MTrk
0 Meta TrkName "charlene"
0 Tempo 550458
0 TimeSig 4/4 24 8
0 Meta TrkEnd
TrkEnd
MTrk
0 Meta TrkName "BEAT"
0 On ch=6 n=12 v=100
240 Off ch=6 n=12 v=64
480 On ch=6 n=13 v=100
720 Off ch=6 n=13 v=64
960 On ch=6 n=13 v=100
1200 Off ch=6 n=13 v=64
1440 On ch=6 n=13 v=100
1680 Off ch=6 n=13 v=64
1920 On ch=6 n=12 v=100
2160 Off ch=6 n=12 v=64
2400 On ch=6 n=13 v=100
2640 Off ch=6 n=13 v=64
2880 On ch=6 n=13 v=100
3120 Off ch=6 n=13 v=64
3360 On ch=6 n=13 v=100
3600 Off ch=6 n=13 v=64
3840 On ch=6 n=12 v=100
4080 Off ch=6 n=12 v=64
4320 On ch=6 n=13 v=100
4560 Off ch=6 n=13 v=64
4800 On ch=6 n=13 v=100
5040 Off ch=6 n=13 v=64
5280 On ch=6 n=13 v=100
5520 Off ch=6 n=13 v=64
5760 On ch=6 n=12 v=100
6000 Off ch=6 n=12 v=64
6240 On ch=6 n=13 v=100
6480 Off ch=6 n=13 v=64
6720 On ch=6 n=13 v=100
6960 Off ch=6 n=13 v=64
7200 On ch=6 n=13 v=100
7440 Off ch=6 n=13 v=64
7680 On ch=6 n=12 v=100
7920 Off ch=6 n=12 v=64
8160 On ch=6 n=13 v=100
8400 Off ch=6 n=13 v=64
8640 On ch=6 n=13 v=100
8880 Off ch=6 n=13 v=64
9120 On ch=6 n=13 v=100
9360 Off ch=6 n=13 v=64
9600 On ch=6 n=12 v=100
9840 Off ch=6 n=12 v=64
10080 On ch=6 n=13 v=100
10320 Off ch=6 n=13 v=64
10560 On ch=6 n=13 v=100
10800 Off ch=6 n=13 v=64
11040 On ch=6 n=13 v=100
11280 Off ch=6 n=13 v=64
11520 On ch=6 n=12 v=100
11760 Off ch=6 n=12 v=64
12000 On ch=6 n=13 v=100
12240 Off ch=6 n=13 v=64
12480 On ch=6 n=13 v=100
12720 Off ch=6 n=13 v=64
12960 On ch=6 n=13 v=100
13200 Off ch=6 n=13 v=64
13440 On ch=6 n=12 v=100
13680 Off ch=6 n=12 v=64
13920 On ch=6 n=13 v=100
14160 Off ch=6 n=13 v=64
14400 On ch=6 n=13 v=100
14640 Off ch=6 n=13 v=64
14880 On ch=6 n=13 v=100
15120 Off ch=6 n=13 v=64
15360 On ch=6 n=12 v=100
15600 Off ch=6 n=12 v=64
15840 On ch=6 n=13 v=100
16080 Off ch=6 n=13 v=64
16320 On ch=6 n=13 v=100
16560 Off ch=6 n=13 v=64
16800 On ch=6 n=13 v=100
17040 Off ch=6 n=13 v=64
17280 On ch=6 n=12 v=100
17520 Off ch=6 n=12 v=64
17760 On ch=6 n=13 v=100
18000 Off ch=6 n=13 v=64
18240 On ch=6 n=13 v=100
18480 Off ch=6 n=13 v=64
18720 On ch=6 n=13 v=100
18960 Off ch=6 n=13 v=64
19200 On ch=6 n=12 v=100
19440 Off ch=6 n=12 v=64
19680 On ch=6 n=13 v=100
19920 Off ch=6 n=13 v=64
20160 On ch=6 n=13 v=100
20400 Off ch=6 n=13 v=64
20640 On ch=6 n=13 v=100
20880 Off ch=6 n=13 v=64
21120 On ch=6 n=12 v=100
21360 Off ch=6 n=12 v=64
21600 On ch=6 n=13 v=100
21840 Off ch=6 n=13 v=64
22080 On ch=6 n=13 v=100
22320 Off ch=6 n=13 v=64
22560 On ch=6 n=13 v=100
22800 Off ch=6 n=13 v=64
23040 On ch=6 n=12 v=100
23280 Off ch=6 n=12 v=64
23520 On ch=6 n=13 v=100
23760 Off ch=6 n=13 v=64
24000 On ch=6 n=13 v=100
24240 Off ch=6 n=13 v=64
24480 On ch=6 n=13 v=100
24720 Off ch=6 n=13 v=64
24960 On ch=6 n=12 v=100
25200 Off ch=6 n=12 v=64
25440 On ch=6 n=13 v=100
25680 Off ch=6 n=13 v=64
25920 On ch=6 n=13 v=100
26160 Off ch=6 n=13 v=64
26400 On ch=6 n=13 v=100
26640 Off ch=6 n=13 v=64
26880 On ch=6 n=12 v=100
27120 Off ch=6 n=12 v=64
27360 On ch=6 n=13 v=100
27600 Off ch=6 n=13 v=64
27840 On ch=6 n=13 v=100
28080 Off ch=6 n=13 v=64
28320 On ch=6 n=13 v=100
28560 Off ch=6 n=13 v=64
28800 On ch=6 n=12 v=100
29040 Off ch=6 n=12 v=64
29280 On ch=6 n=13 v=100
29520 Off ch=6 n=13 v=64
29760 On ch=6 n=13 v=100
30000 Off ch=6 n=13 v=64
30240 On ch=6 n=13 v=100
30480 Off ch=6 n=13 v=64
30720 On ch=6 n=12 v=100
30960 Off ch=6 n=12 v=64
31200 On ch=6 n=13 v=100
31440 Off ch=6 n=13 v=64
31680 On ch=6 n=13 v=100
31920 Off ch=6 n=13 v=64
32160 On ch=6 n=13 v=100
32400 Off ch=6 n=13 v=64
32640 On ch=6 n=12 v=100
32880 Off ch=6 n=12 v=64
33120 On ch=6 n=13 v=100
33360 Off ch=6 n=13 v=64
33600 On ch=6 n=13 v=100
33840 Off ch=6 n=13 v=64
34080 On ch=6 n=13 v=100
34320 Off ch=6 n=13 v=64
34560 On ch=6 n=12 v=100
34800 Off ch=6 n=12 v=64
35040 On ch=6 n=13 v=100
35280 Off ch=6 n=13 v=64
35520 On ch=6 n=13 v=100
35760 Off ch=6 n=13 v=64
36000 On ch=6 n=13 v=100
36240 Off ch=6 n=13 v=64
36480 On ch=6 n=12 v=100
36720 Off ch=6 n=12 v=64
36960 On ch=6 n=13 v=100
37200 Off ch=6 n=13 v=64
37440 On ch=6 n=13 v=100
37680 Off ch=6 n=13 v=64
37920 On ch=6 n=13 v=100
38160 Off ch=6 n=13 v=64
38400 On ch=6 n=12 v=100
38640 Off ch=6 n=12 v=64
38880 On ch=6 n=13 v=100
39120 Off ch=6 n=13 v=64
39360 On ch=6 n=13 v=100
39600 Off ch=6 n=13 v=64
39840 On ch=6 n=13 v=100
40080 Off ch=6 n=13 v=64
40320 On ch=6 n=12 v=100
40560 Off ch=6 n=12 v=64
40800 On ch=6 n=13 v=100
41040 Off ch=6 n=13 v=64
41280 On ch=6 n=13 v=100
41520 Off ch=6 n=13 v=64
41760 On ch=6 n=13 v=100
42000 Off ch=6 n=13 v=64
42240 On ch=6 n=12 v=100
42480 Off ch=6 n=12 v=64
42720 On ch=6 n=13 v=100
42960 Off ch=6 n=13 v=64
43200 On ch=6 n=13 v=100
43440 Off ch=6 n=13 v=64
43680 On ch=6 n=13 v=100
43920 Off ch=6 n=13 v=64
44160 On ch=6 n=12 v=100
44400 Off ch=6 n=12 v=64
44640 On ch=6 n=13 v=100
44880 Off ch=6 n=13 v=64
45120 On ch=6 n=13 v=100
45360 Off ch=6 n=13 v=64
45600 On ch=6 n=13 v=100
45840 Off ch=6 n=13 v=64
46080 On ch=6 n=12 v=100
46320 Off ch=6 n=12 v=64
46560 On ch=6 n=13 v=100
46800 Off ch=6 n=13 v=64
47040 On ch=6 n=13 v=100
47280 Off ch=6 n=13 v=64
47520 On ch=6 n=13 v=100
47760 Off ch=6 n=13 v=64
48000 On ch=6 n=12 v=100
48240 Off ch=6 n=12 v=64
48480 On ch=6 n=13 v=100
48720 Off ch=6 n=13 v=64
48960 On ch=6 n=13 v=100
49200 Off ch=6 n=13 v=64
49440 On ch=6 n=13 v=100
49680 Off ch=6 n=13 v=64
49920 On ch=6 n=12 v=100
50160 Off ch=6 n=12 v=64
50400 On ch=6 n=13 v=100
50640 Off ch=6 n=13 v=64
50880 On ch=6 n=13 v=100
51120 Off ch=6 n=13 v=64
51360 On ch=6 n=13 v=100
51600 Off ch=6 n=13 v=64
51840 On ch=6 n=12 v=100
52080 Off ch=6 n=12 v=64
52320 On ch=6 n=13 v=100
52560 Off ch=6 n=13 v=64
52800 On ch=6 n=13 v=100
53040 Off ch=6 n=13 v=64
53280 On ch=6 n=13 v=100
53520 Off ch=6 n=13 v=64
53760 On ch=6 n=12 v=100
54000 Off ch=6 n=12 v=64
54240 On ch=6 n=13 v=100
54480 Off ch=6 n=13 v=64
54720 On ch=6 n=13 v=100
54960 Off ch=6 n=13 v=64
55200 On ch=6 n=13 v=100
55440 Off ch=6 n=13 v=64
55680 On ch=6 n=12 v=100
55920 Off ch=6 n=12 v=64
56160 On ch=6 n=13 v=100
56400 Off ch=6 n=13 v=64
56640 On ch=6 n=13 v=100
56880 Off ch=6 n=13 v=64
57120 On ch=6 n=13 v=100
57360 Off ch=6 n=13 v=64
57600 On ch=6 n=12 v=100
57840 Off ch=6 n=12 v=64
58080 On ch=6 n=13 v=100
58320 Off ch=6 n=13 v=64
58560 On ch=6 n=13 v=100
58800 Off ch=6 n=13 v=64
59040 On ch=6 n=13 v=100
59280 Off ch=6 n=13 v=64
59520 On ch=6 n=12 v=100
59760 Off ch=6 n=12 v=64
60000 On ch=6 n=13 v=100
60240 Off ch=6 n=13 v=64
60480 On ch=6 n=13 v=100
60720 Off ch=6 n=13 v=64
60960 On ch=6 n=13 v=100
61200 Off ch=6 n=13 v=64
61440 On ch=6 n=12 v=100
61680 Off ch=6 n=12 v=64
61920 On ch=6 n=13 v=100
62160 Off ch=6 n=13 v=64
62400 On ch=6 n=13 v=100
62640 Off ch=6 n=13 v=64
62880 On ch=6 n=13 v=100
63120 Off ch=6 n=13 v=64
63360 On ch=6 n=12 v=100
63600 Off ch=6 n=12 v=64
63840 On ch=6 n=13 v=100
64080 Off ch=6 n=13 v=64
64320 On ch=6 n=13 v=100
64560 Off ch=6 n=13 v=64
64800 On ch=6 n=13 v=100
65040 Off ch=6 n=13 v=64
65280 On ch=6 n=12 v=100
65520 Off ch=6 n=12 v=64
65760 On ch=6 n=13 v=100
66000 Off ch=6 n=13 v=64
66240 On ch=6 n=13 v=100
66480 Off ch=6 n=13 v=64
66720 On ch=6 n=13 v=100
66960 Off ch=6 n=13 v=64
67200 On ch=6 n=12 v=100
67440 Off ch=6 n=12 v=64
67680 On ch=6 n=13 v=100
67920 Off ch=6 n=13 v=64
68160 On ch=6 n=13 v=100
68400 Off ch=6 n=13 v=64
68640 On ch=6 n=13 v=100
68880 Off ch=6 n=13 v=64
69120 On ch=6 n=12 v=100
69360 Off ch=6 n=12 v=64
69600 On ch=6 n=13 v=100
69840 Off ch=6 n=13 v=64
70080 On ch=6 n=13 v=100
70320 Off ch=6 n=13 v=64
70320 Meta TrkEnd
TrkEnd
MTrk
0 Meta TrkName "PART DRUMS"
0 Meta Text "[mix 0 drums1easy]"
60 Meta Text "[mix 1 drums1]"
120 Meta Text "[mix 2 drums1]"
180 Meta Text "[mix 3 drums1]"
3720 Meta Text "[play]"
3720 On ch=1 n=25 v=100
3840 Off ch=1 n=25 v=64
3840 On ch=1 n=24 v=100
3840 On ch=1 n=31 v=100
3840 On ch=1 n=60 v=100
3840 On ch=1 n=72 v=100
3840 On ch=1 n=74 v=100
3840 On ch=1 n=84 v=100
3840 On ch=1 n=86 v=100
3840 On ch=1 n=96 v=100
3840 On ch=1 n=98 v=100
3840 On ch=1 n=105 v=100
3960 Off ch=1 n=24 v=64
3960 Off ch=1 n=31 v=64
3960 Off ch=1 n=60 v=64
3960 Off ch=1 n=72 v=64
3960 Off ch=1 n=74 v=64
3960 Off ch=1 n=84 v=64
3960 Off ch=1 n=86 v=64
3960 Off ch=1 n=96 v=64
3960 Off ch=1 n=98 v=64
4080 On ch=1 n=31 v=100
4080 On ch=1 n=74 v=100
4080 On ch=1 n=86 v=100
4080 On ch=1 n=98 v=100
4200 Off ch=1 n=31 v=64
4200 Off ch=1 n=74 v=64
4200 Off ch=1 n=86 v=64
4200 Off ch=1 n=98 v=64
4320 On ch=1 n=24 v=100
4320 On ch=1 n=26 v=100
4320 On ch=1 n=31 v=100
4320 On ch=1 n=61 v=100
4320 On ch=1 n=73 v=100
4320 On ch=1 n=74 v=100
4320 On ch=1 n=85 v=100
4320 On ch=1 n=86 v=100
4320 On ch=1 n=96 v=100
4320 On ch=1 n=97 v=100
4320 On ch=1 n=98 v=100
4440 Off ch=1 n=24 v=64
4440 Off ch=1 n=26 v=64
4440 Off ch=1 n=31 v=64
4440 Off ch=1 n=61 v=64
4440 Off ch=1 n=73 v=64
4440 Off ch=1 n=74 v=64
4440 Off ch=1 n=85 v=64
4440 Off ch=1 n=86 v=64
4440 Off ch=1 n=96 v=64
4440 Off ch=1 n=97 v=64
4440 Off ch=1 n=98 v=64
4560 On ch=1 n=31 v=100
4560 On ch=1 n=74 v=100
4560 On ch=1 n=86 v=100
4560 On ch=1 n=98 v=100
4680 Off ch=1 n=31 v=64
4680 Off ch=1 n=74 v=64
4680 Off ch=1 n=86 v=64
4680 Off ch=1 n=98 v=64
4800 On ch=1 n=24 v=100
4800 On ch=1 n=31 v=100
4800 On ch=1 n=60 v=100
4800 On ch=1 n=74 v=100
4800 On ch=1 n=84 v=100
4800 On ch=1 n=86 v=100
4800 On ch=1 n=96 v=100
4800 On ch=1 n=98 v=100
4920 Off ch=1 n=24 v=64
4920 Off ch=1 n=31 v=64
4920 Off ch=1 n=60 v=64
4920 Off ch=1 n=74 v=64
4920 Off ch=1 n=84 v=64
4920 Off ch=1 n=86 v=64
4920 Off ch=1 n=96 v=64
4920 Off ch=1 n=98 v=64
5040 On ch=1 n=31 v=100
5040 On ch=1 n=74 v=100
5040 On ch=1 n=86 v=100
5040 On ch=1 n=98 v=100
5160 Off ch=1 n=31 v=64
5160 Off ch=1 n=74 v=64
5160 Off ch=1 n=86 v=64
5160 Off ch=1 n=98 v=64
5280 On ch=1 n=24 v=100
5280 On ch=1 n=26 v=100
5280 On ch=1 n=31 v=100
5280 On ch=1 n=61 v=100
5280 On ch=1 n=73 v=100
5280 On ch=1 n=74 v=100
5280 On ch=1 n=85 v=100
5280 On ch=1 n=86 v=100
5280 On ch=1 n=96 v=100
5280 On ch=1 n=97 v=100
5280 On ch=1 n=98 v=100
5400 Off ch=1 n=24 v=64
5400 Off ch=1 n=26 v=64
5400 Off ch=1 n=31 v=64
5400 Off ch=1 n=61 v=64
5400 Off ch=1 n=73 v=64
5400 Off ch=1 n=74 v=64
5400 Off ch=1 n=85 v=64
5400 Off ch=1 n=86 v=64
5400 Off ch=1 n=96 v=64
5400 Off ch=1 n=97 v=64
5400 Off ch=1 n=98 v=64
5520 On ch=1 n=31 v=100
5520 On ch=1 n=74 v=100
5520 On ch=1 n=86 v=100
5520 On ch=1 n=98 v=100
5640 Off ch=1 n=31 v=64
5640 Off ch=1 n=74 v=64
5640 Off ch=1 n=86 v=64
5640 Off ch=1 n=98 v=64
5760 Off ch=1 n=105 v=64
5760 On ch=1 n=24 v=100
5760 On ch=1 n=31 v=100
5760 On ch=1 n=60 v=100
5760 On ch=1 n=72 v=100
5760 On ch=1 n=74 v=100
5760 On ch=1 n=84 v=100
5760 On ch=1 n=86 v=100
5760 On ch=1 n=96 v=100
5760 On ch=1 n=98 v=100
5760 On ch=1 n=106 v=100
5880 Off ch=1 n=24 v=64
5880 Off ch=1 n=31 v=64
5880 Off ch=1 n=60 v=64
5880 Off ch=1 n=72 v=64
5880 Off ch=1 n=74 v=64
5880 Off ch=1 n=84 v=64
5880 Off ch=1 n=86 v=64
5880 Off ch=1 n=96 v=64
5880 Off ch=1 n=98 v=64
6000 On ch=1 n=31 v=100
6000 On ch=1 n=74 v=100
6000 On ch=1 n=86 v=100
6000 On ch=1 n=98 v=100
6120 Off ch=1 n=31 v=64
6120 Off ch=1 n=74 v=64
6120 Off ch=1 n=86 v=64
6120 Off ch=1 n=98 v=64
6240 On ch=1 n=24 v=100
6240 On ch=1 n=26 v=100
6240 On ch=1 n=31 v=100
6240 On ch=1 n=61 v=100
6240 On ch=1 n=73 v=100
6240 On ch=1 n=74 v=100
6240 On ch=1 n=85 v=100
6240 On ch=1 n=86 v=100
6240 On ch=1 n=96 v=100
6240 On ch=1 n=97 v=100
6240 On ch=1 n=98 v=100
6360 Off ch=1 n=24 v=64
6360 Off ch=1 n=26 v=64
6360 Off ch=1 n=31 v=64
6360 Off ch=1 n=61 v=64
6360 Off ch=1 n=73 v=64
6360 Off ch=1 n=74 v=64
6360 Off ch=1 n=85 v=64
6360 Off ch=1 n=86 v=64
6360 Off ch=1 n=96 v=64
6360 Off ch=1 n=97 v=64
6360 Off ch=1 n=98 v=64
6480 On ch=1 n=31 v=100
6480 On ch=1 n=74 v=100
6480 On ch=1 n=86 v=100
6480 On ch=1 n=98 v=100
6600 Off ch=1 n=31 v=64
6600 Off ch=1 n=74 v=64
6600 Off ch=1 n=86 v=64
6600 Off ch=1 n=98 v=64
6720 On ch=1 n=24 v=100
6720 On ch=1 n=31 v=100
6720 On ch=1 n=60 v=100
6720 On ch=1 n=74 v=100
6720 On ch=1 n=84 v=100
6720 On ch=1 n=86 v=100
6720 On ch=1 n=96 v=100
6720 On ch=1 n=98 v=100
6840 Off ch=1 n=24 v=64
6840 Off ch=1 n=31 v=64
6840 Off ch=1 n=60 v=64
6840 Off ch=1 n=74 v=64
6840 Off ch=1 n=84 v=64
6840 Off ch=1 n=86 v=64
6840 Off ch=1 n=96 v=64
6840 Off ch=1 n=98 v=64
6960 On ch=1 n=31 v=100
6960 On ch=1 n=74 v=100
6960 On ch=1 n=86 v=100
6960 On ch=1 n=98 v=100
7080 Off ch=1 n=31 v=64
7080 Off ch=1 n=74 v=64
7080 Off ch=1 n=86 v=64
7080 Off ch=1 n=98 v=64
7200 On ch=1 n=24 v=100
7200 On ch=1 n=26 v=100
7200 On ch=1 n=31 v=100
7200 On ch=1 n=61 v=100
7200 On ch=1 n=73 v=100
7200 On ch=1 n=74 v=100
7200 On ch=1 n=85 v=100
7200 On ch=1 n=86 v=100
7200 On ch=1 n=96 v=100
7200 On ch=1 n=97 v=100
7200 On ch=1 n=98 v=100
7320 Off ch=1 n=24 v=64
7320 Off ch=1 n=26 v=64
7320 Off ch=1 n=31 v=64
7320 Off ch=1 n=61 v=64
7320 Off ch=1 n=73 v=64
7320 Off ch=1 n=74 v=64
7320 Off ch=1 n=85 v=64
7320 Off ch=1 n=86 v=64
7320 Off ch=1 n=96 v=64
7320 Off ch=1 n=97 v=64
7320 Off ch=1 n=98 v=64
7440 On ch=1 n=31 v=100
7440 On ch=1 n=74 v=100
7440 On ch=1 n=86 v=100
7440 On ch=1 n=98 v=100
7560 Off ch=1 n=31 v=64
7560 Off ch=1 n=74 v=64
7560 Off ch=1 n=86 v=64
7560 Off ch=1 n=98 v=64
7680 On ch=1 n=24 v=100
7680 On ch=1 n=31 v=100
7680 On ch=1 n=60 v=100
7680 On ch=1 n=72 v=100
7680 On ch=1 n=74 v=100
7680 On ch=1 n=84 v=100
7680 On ch=1 n=86 v=100
7680 On ch=1 n=96 v=100
7680 On ch=1 n=98 v=100
7680 On ch=1 n=105 v=100
7800 Off ch=1 n=24 v=64
7800 Off ch=1 n=31 v=64
7800 Off ch=1 n=60 v=64
7800 Off ch=1 n=72 v=64
7800 Off ch=1 n=74 v=64
7800 Off ch=1 n=84 v=64
7800 Off ch=1 n=86 v=64
7800 Off ch=1 n=96 v=64
7800 Off ch=1 n=98 v=64
7920 On ch=1 n=31 v=100
7920 On ch=1 n=74 v=100
7920 On ch=1 n=86 v=100
7920 On ch=1 n=98 v=100
8040 Off ch=1 n=31 v=64
8040 Off ch=1 n=74 v=64
8040 Off ch=1 n=86 v=64
8040 Off ch=1 n=98 v=64
8160 Meta Text "[mix 0 drums1]"
8160 On ch=1 n=24 v=100
8160 On ch=1 n=26 v=100
8160 On ch=1 n=31 v=100
8160 On ch=1 n=61 v=100
8160 On ch=1 n=73 v=100
8160 On ch=1 n=74 v=100
8160 On ch=1 n=85 v=100
8160 On ch=1 n=86 v=100
8160 On ch=1 n=96 v=100
8160 On ch=1 n=97 v=100
8160 On ch=1 n=98 v=100
8280 Off ch=1 n=24 v=64
8280 Off ch=1 n=26 v=64
8280 Off ch=1 n=31 v=64
8280 Off ch=1 n=61 v=64
8280 Off ch=1 n=73 v=64
8280 Off ch=1 n=74 v=64
8280 Off ch=1 n=85 v=64
8280 Off ch=1 n=86 v=64
8280 Off ch=1 n=96 v=64
8280 Off ch=1 n=97 v=64
8280 Off ch=1 n=98 v=64
8400 On ch=1 n=47 v=100
8400 On ch=1 n=63 v=100
8400 On ch=1 n=75 v=100
8400 On ch=1 n=87 v=100
8400 On ch=1 n=99 v=100
8400 On ch=1 n=111 v=100
8520 Off ch=1 n=47 v=64
8520 Off ch=1 n=63 v=64
8520 Off ch=1 n=75 v=64
8520 Off ch=1 n=87 v=64
8520 Off ch=1 n=99 v=64
8520 Off ch=1 n=111 v=64
8640 On ch=1 n=24 v=100
8640 On ch=1 n=47 v=100
8640 On ch=1 n=64 v=100
8640 On ch=1 n=76 v=100
8640 On ch=1 n=84 v=100
8640 On ch=1 n=88 v=100
8640 On ch=1 n=96 v=100
8640 On ch=1 n=100 v=100
8640 On ch=1 n=112 v=100
8760 Off ch=1 n=24 v=64
8760 Off ch=1 n=47 v=64
8760 Off ch=1 n=64 v=64
8760 Off ch=1 n=76 v=64
8760 Off ch=1 n=84 v=64
8760 Off ch=1 n=88 v=64
8760 Off ch=1 n=96 v=64
8760 Off ch=1 n=100 v=64
8760 Off ch=1 n=112 v=64
8880 On ch=1 n=31 v=100
8880 On ch=1 n=86 v=100
8880 On ch=1 n=98 v=100
9000 Off ch=1 n=31 v=64
9000 Off ch=1 n=86 v=64
9000 Off ch=1 n=98 v=64
9120 On ch=1 n=24 v=100
9120 On ch=1 n=26 v=100
9120 On ch=1 n=31 v=100
9120 On ch=1 n=61 v=100
9120 On ch=1 n=73 v=100
9120 On ch=1 n=74 v=100
9120 On ch=1 n=85 v=100
9120 On ch=1 n=86 v=100
9120 On ch=1 n=96 v=100
9120 On ch=1 n=97 v=100
9120 On ch=1 n=98 v=100
9240 Off ch=1 n=24 v=64
9240 Off ch=1 n=26 v=64
9240 Off ch=1 n=31 v=64
9240 Off ch=1 n=61 v=64
9240 Off ch=1 n=73 v=64
9240 Off ch=1 n=74 v=64
9240 Off ch=1 n=85 v=64
9240 Off ch=1 n=86 v=64
9240 Off ch=1 n=96 v=64
9240 Off ch=1 n=97 v=64
9240 Off ch=1 n=98 v=64
9360 On ch=1 n=31 v=100
9360 On ch=1 n=74 v=100
9360 On ch=1 n=86 v=100
9360 On ch=1 n=98 v=100
9480 Off ch=1 n=31 v=64
9480 Off ch=1 n=74 v=64
9480 Off ch=1 n=86 v=64
9480 Off ch=1 n=98 v=64
9600 Off ch=1 n=106 v=64
9600 On ch=1 n=12 v=100
9600 On ch=1 n=24 v=100
9600 On ch=1 n=31 v=100
9600 On ch=1 n=60 v=100
9600 On ch=1 n=72 v=100
9600 On ch=1 n=74 v=100
9600 On ch=1 n=84 v=100
9600 On ch=1 n=86 v=100
9600 On ch=1 n=96 v=100
9600 On ch=1 n=98 v=100
9600 On ch=1 n=116 v=100
9720 Off ch=1 n=12 v=64
9720 Off ch=1 n=24 v=64
9720 Off ch=1 n=31 v=64
9720 Off ch=1 n=60 v=64
9720 Off ch=1 n=72 v=64
9720 Off ch=1 n=74 v=64
9720 Off ch=1 n=84 v=64
9720 Off ch=1 n=86 v=64
9720 Off ch=1 n=96 v=64
9720 Off ch=1 n=98 v=64
9840 On ch=1 n=31 v=100
9840 On ch=1 n=74 v=100
9840 On ch=1 n=86 v=100
9840 On ch=1 n=98 v=100
9960 Off ch=1 n=31 v=64
9960 Off ch=1 n=74 v=64
9960 Off ch=1 n=86 v=64
9960 Off ch=1 n=98 v=64
10080 On ch=1 n=24 v=100
10080 On ch=1 n=26 v=100
10080 On ch=1 n=31 v=100
10080 On ch=1 n=61 v=100
10080 On ch=1 n=73 v=100
10080 On ch=1 n=74 v=100
10080 On ch=1 n=85 v=100
10080 On ch=1 n=86 v=100
10080 On ch=1 n=96 v=100
10080 On ch=1 n=97 v=100
10080 On ch=1 n=98 v=100
10200 Off ch=1 n=24 v=64
10200 Off ch=1 n=26 v=64
10200 Off ch=1 n=31 v=64
10200 Off ch=1 n=61 v=64
10200 Off ch=1 n=73 v=64
10200 Off ch=1 n=74 v=64
10200 Off ch=1 n=85 v=64
10200 Off ch=1 n=86 v=64
10200 Off ch=1 n=96 v=64
10200 Off ch=1 n=97 v=64
10200 Off ch=1 n=98 v=64
10320 On ch=1 n=31 v=100
10320 On ch=1 n=74 v=100
10320 On ch=1 n=86 v=100
10320 On ch=1 n=98 v=100
10440 Off ch=1 n=31 v=64
10440 Off ch=1 n=74 v=64
10440 Off ch=1 n=86 v=64
10440 Off ch=1 n=98 v=64
10560 On ch=1 n=24 v=100
10560 On ch=1 n=31 v=100
10560 On ch=1 n=60 v=100
10560 On ch=1 n=74 v=100
10560 On ch=1 n=84 v=100
10560 On ch=1 n=86 v=100
10560 On ch=1 n=96 v=100
10560 On ch=1 n=98 v=100
10680 Off ch=1 n=24 v=64
10680 Off ch=1 n=31 v=64
10680 Off ch=1 n=60 v=64
10680 Off ch=1 n=74 v=64
10680 Off ch=1 n=84 v=64
10680 Off ch=1 n=86 v=64
10680 Off ch=1 n=96 v=64
10680 Off ch=1 n=98 v=64
10800 On ch=1 n=31 v=100
10800 On ch=1 n=74 v=100
10800 On ch=1 n=86 v=100
10800 On ch=1 n=98 v=100
10920 Off ch=1 n=31 v=64
10920 Off ch=1 n=74 v=64
10920 Off ch=1 n=86 v=64
10920 Off ch=1 n=98 v=64
11040 On ch=1 n=24 v=100
11040 On ch=1 n=26 v=100
11040 On ch=1 n=31 v=100
11040 On ch=1 n=61 v=100
11040 On ch=1 n=73 v=100
11040 On ch=1 n=74 v=100
11040 On ch=1 n=85 v=100
11040 On ch=1 n=86 v=100
11040 On ch=1 n=96 v=100
11040 On ch=1 n=97 v=100
11040 On ch=1 n=98 v=100
11160 Off ch=1 n=24 v=64
11160 Off ch=1 n=26 v=64
11160 Off ch=1 n=31 v=64
11160 Off ch=1 n=61 v=64
11160 Off ch=1 n=73 v=64
11160 Off ch=1 n=74 v=64
11160 Off ch=1 n=85 v=64
11160 Off ch=1 n=86 v=64
11160 Off ch=1 n=96 v=64
11160 Off ch=1 n=97 v=64
11160 Off ch=1 n=98 v=64
11280 On ch=1 n=31 v=100
11280 On ch=1 n=74 v=100
11280 On ch=1 n=86 v=100
11280 On ch=1 n=98 v=100
11400 Off ch=1 n=31 v=64
11400 Off ch=1 n=74 v=64
11400 Off ch=1 n=86 v=64
11400 Off ch=1 n=98 v=64
11520 Off ch=1 n=116 v=64
11520 On ch=1 n=24 v=100
11520 On ch=1 n=31 v=100
11520 On ch=1 n=60 v=100
11520 On ch=1 n=72 v=100
11520 On ch=1 n=74 v=100
11520 On ch=1 n=84 v=100
11520 On ch=1 n=86 v=100
11520 On ch=1 n=96 v=100
11520 On ch=1 n=98 v=100
11520 On ch=1 n=106 v=100
11520 On ch=1 n=120 v=100
11520 On ch=1 n=121 v=100
11520 On ch=1 n=122 v=100
11520 On ch=1 n=123 v=100
11520 On ch=1 n=124 v=100
11640 Off ch=1 n=24 v=64
11640 Off ch=1 n=31 v=64
11640 Off ch=1 n=60 v=64
11640 Off ch=1 n=72 v=64
11640 Off ch=1 n=74 v=64
11640 Off ch=1 n=84 v=64
11640 Off ch=1 n=86 v=64
11640 Off ch=1 n=96 v=64
11640 Off ch=1 n=98 v=64
11760 On ch=1 n=47 v=100
11760 On ch=1 n=62 v=100
11760 On ch=1 n=75 v=100
11760 On ch=1 n=87 v=100
11760 On ch=1 n=99 v=100
11760 On ch=1 n=111 v=100
11880 Off ch=1 n=47 v=64
11880 Off ch=1 n=62 v=64
11880 Off ch=1 n=75 v=64
11880 Off ch=1 n=87 v=64
11880 Off ch=1 n=99 v=64
11880 Off ch=1 n=111 v=64
12000 On ch=1 n=24 v=100
12000 On ch=1 n=26 v=100
12000 On ch=1 n=31 v=100
12000 On ch=1 n=85 v=100
12000 On ch=1 n=86 v=100
12000 On ch=1 n=96 v=100
12000 On ch=1 n=97 v=100
12000 On ch=1 n=98 v=100
12120 Off ch=1 n=24 v=64
12120 Off ch=1 n=26 v=64
12120 Off ch=1 n=31 v=64
12120 Off ch=1 n=85 v=64
12120 Off ch=1 n=86 v=64
12120 Off ch=1 n=96 v=64
12120 Off ch=1 n=97 v=64
12120 Off ch=1 n=98 v=64
12240 On ch=1 n=49 v=100
12240 On ch=1 n=63 v=100
12240 On ch=1 n=75 v=100
12240 On ch=1 n=87 v=100
12240 On ch=1 n=99 v=100
12240 On ch=1 n=111 v=100
12360 Off ch=1 n=49 v=64
12360 Off ch=1 n=63 v=64
12360 Off ch=1 n=75 v=64
12360 Off ch=1 n=87 v=64
12360 Off ch=1 n=99 v=64
12360 Off ch=1 n=111 v=64
12480 On ch=1 n=24 v=100
12480 On ch=1 n=49 v=100
12480 On ch=1 n=63 v=100
12480 On ch=1 n=75 v=100
12480 On ch=1 n=87 v=100
12480 On ch=1 n=96 v=100
12480 On ch=1 n=99 v=100
12480 On ch=1 n=111 v=100
12600 Off ch=1 n=24 v=64
12600 Off ch=1 n=49 v=64
12600 Off ch=1 n=63 v=64
12600 Off ch=1 n=75 v=64
12600 Off ch=1 n=87 v=64
12600 Off ch=1 n=96 v=64
12600 Off ch=1 n=99 v=64
12600 Off ch=1 n=111 v=64
12720 On ch=1 n=30 v=100
12720 On ch=1 n=86 v=100
12720 On ch=1 n=98 v=100
12840 Off ch=1 n=30 v=64
12840 Off ch=1 n=86 v=64
12840 Off ch=1 n=98 v=64
12960 On ch=1 n=24 v=100
12960 On ch=1 n=26 v=100
12960 On ch=1 n=51 v=100
12960 On ch=1 n=64 v=100
12960 On ch=1 n=76 v=100
12960 On ch=1 n=88 v=100
12960 On ch=1 n=96 v=100
12960 On ch=1 n=97 v=100
12960 On ch=1 n=100 v=100
12960 On ch=1 n=112 v=100
13080 Off ch=1 n=24 v=64
13080 Off ch=1 n=26 v=64
13080 Off ch=1 n=51 v=64
13080 Off ch=1 n=64 v=64
13080 Off ch=1 n=76 v=64
13080 Off ch=1 n=88 v=64
13080 Off ch=1 n=96 v=64
13080 Off ch=1 n=97 v=64
13080 Off ch=1 n=100 v=64
13080 Off ch=1 n=112 v=64
13200 On ch=1 n=50 v=100
13200 On ch=1 n=64 v=100
13200 On ch=1 n=76 v=100
13200 On ch=1 n=88 v=100
13200 On ch=1 n=100 v=100
13200 On ch=1 n=112 v=100
13320 Off ch=1 n=50 v=64
13320 Off ch=1 n=64 v=64
13320 Off ch=1 n=76 v=64
13320 Off ch=1 n=88 v=64
13320 Off ch=1 n=100 v=64
13320 Off ch=1 n=112 v=64
13440 Off ch=1 n=105 v=64
13440 Off ch=1 n=120 v=64
13440 Off ch=1 n=121 v=64
13440 Off ch=1 n=122 v=64
13440 Off ch=1 n=123 v=64
13440 Off ch=1 n=124 v=64
13440 On ch=1 n=12 v=100
13440 On ch=1 n=24 v=100
13440 On ch=1 n=38 v=100
13440 On ch=1 n=63 v=100
13440 On ch=1 n=72 v=100
13440 On ch=1 n=75 v=100
13440 On ch=1 n=84 v=100
13440 On ch=1 n=87 v=100
13440 On ch=1 n=96 v=100
13440 On ch=1 n=99 v=100
13560 Off ch=1 n=12 v=64
13560 Off ch=1 n=24 v=64
13560 Off ch=1 n=38 v=64
13560 Off ch=1 n=63 v=64
13560 Off ch=1 n=72 v=64
13560 Off ch=1 n=75 v=64
13560 Off ch=1 n=84 v=64
13560 Off ch=1 n=87 v=64
13560 Off ch=1 n=96 v=64
13560 Off ch=1 n=99 v=64
13680 On ch=1 n=31 v=100
13680 On ch=1 n=86 v=100
13680 On ch=1 n=98 v=100
13800 Off ch=1 n=31 v=64
13800 Off ch=1 n=86 v=64
13800 Off ch=1 n=98 v=64
13920 On ch=1 n=24 v=100
13920 On ch=1 n=26 v=100
13920 On ch=1 n=31 v=100
13920 On ch=1 n=61 v=100
13920 On ch=1 n=73 v=100
13920 On ch=1 n=74 v=100
13920 On ch=1 n=85 v=100
13920 On ch=1 n=86 v=100
13920 On ch=1 n=96 v=100
13920 On ch=1 n=97 v=100
13920 On ch=1 n=98 v=100
14040 Off ch=1 n=24 v=64
14040 Off ch=1 n=26 v=64
14040 Off ch=1 n=31 v=64
14040 Off ch=1 n=61 v=64
14040 Off ch=1 n=73 v=64
14040 Off ch=1 n=74 v=64
14040 Off ch=1 n=85 v=64
14040 Off ch=1 n=86 v=64
14040 Off ch=1 n=96 v=64
14040 Off ch=1 n=97 v=64
14040 Off ch=1 n=98 v=64
14160 On ch=1 n=31 v=100
14160 On ch=1 n=74 v=100
14160 On ch=1 n=86 v=100
14160 On ch=1 n=98 v=100
14280 Off ch=1 n=31 v=64
14280 Off ch=1 n=74 v=64
14280 Off ch=1 n=86 v=64
14280 Off ch=1 n=98 v=64
14400 On ch=1 n=24 v=100
14400 On ch=1 n=31 v=100
14400 On ch=1 n=60 v=100
14400 On ch=1 n=74 v=100
14400 On ch=1 n=84 v=100
14400 On ch=1 n=86 v=100
14400 On ch=1 n=96 v=100
14400 On ch=1 n=98 v=100
14520 Off ch=1 n=24 v=64
14520 Off ch=1 n=31 v=64
14520 Off ch=1 n=60 v=64
14520 Off ch=1 n=74 v=64
14520 Off ch=1 n=84 v=64
14520 Off ch=1 n=86 v=64
14520 Off ch=1 n=96 v=64
14520 Off ch=1 n=98 v=64
14640 On ch=1 n=31 v=100
14640 On ch=1 n=74 v=100
14640 On ch=1 n=86 v=100
14640 On ch=1 n=98 v=100
14760 Off ch=1 n=31 v=64
14760 Off ch=1 n=74 v=64
14760 Off ch=1 n=86 v=64
14760 Off ch=1 n=98 v=64
14880 On ch=1 n=24 v=100
14880 On ch=1 n=26 v=100
14880 On ch=1 n=31 v=100
14880 On ch=1 n=61 v=100
14880 On ch=1 n=73 v=100
14880 On ch=1 n=74 v=100
14880 On ch=1 n=85 v=100
14880 On ch=1 n=86 v=100
14880 On ch=1 n=96 v=100
14880 On ch=1 n=97 v=100
14880 On ch=1 n=98 v=100
15000 Off ch=1 n=24 v=64
15000 Off ch=1 n=26 v=64
15000 Off ch=1 n=31 v=64
15000 Off ch=1 n=61 v=64
15000 Off ch=1 n=73 v=64
15000 Off ch=1 n=74 v=64
15000 Off ch=1 n=85 v=64
15000 Off ch=1 n=86 v=64
15000 Off ch=1 n=96 v=64
15000 Off ch=1 n=97 v=64
15000 Off ch=1 n=98 v=64
15120 On ch=1 n=31 v=100
15120 On ch=1 n=74 v=100
15120 On ch=1 n=86 v=100
15120 On ch=1 n=98 v=100
15240 Off ch=1 n=31 v=64
15240 Off ch=1 n=74 v=64
15240 Off ch=1 n=86 v=64
15240 Off ch=1 n=98 v=64
15360 On ch=1 n=24 v=100
15360 On ch=1 n=31 v=100
15360 On ch=1 n=60 v=100
15360 On ch=1 n=72 v=100
15360 On ch=1 n=74 v=100
15360 On ch=1 n=84 v=100
15360 On ch=1 n=86 v=100
15360 On ch=1 n=96 v=100
15360 On ch=1 n=98 v=100
15360 On ch=1 n=105 v=100
15480 Off ch=1 n=24 v=64
15480 Off ch=1 n=31 v=64
15480 Off ch=1 n=60 v=64
15480 Off ch=1 n=72 v=64
15480 Off ch=1 n=74 v=64
15480 Off ch=1 n=84 v=64
15480 Off ch=1 n=86 v=64
15480 Off ch=1 n=96 v=64
15480 Off ch=1 n=98 v=64
15600 On ch=1 n=31 v=100
15600 On ch=1 n=74 v=100
15600 On ch=1 n=86 v=100
15600 On ch=1 n=98 v=100
15720 Off ch=1 n=31 v=64
15720 Off ch=1 n=74 v=64
15720 Off ch=1 n=86 v=64
15720 Off ch=1 n=98 v=64
15840 On ch=1 n=24 v=100
15840 On ch=1 n=26 v=100
15840 On ch=1 n=31 v=100
15840 On ch=1 n=61 v=100
15840 On ch=1 n=73 v=100
15840 On ch=1 n=74 v=100
15840 On ch=1 n=85 v=100
15840 On ch=1 n=86 v=100
15840 On ch=1 n=96 v=100
15840 On ch=1 n=97 v=100
15840 On ch=1 n=98 v=100
15960 Off ch=1 n=24 v=64
15960 Off ch=1 n=26 v=64
15960 Off ch=1 n=31 v=64
15960 Off ch=1 n=61 v=64
15960 Off ch=1 n=73 v=64
15960 Off ch=1 n=74 v=64
15960 Off ch=1 n=85 v=64
15960 Off ch=1 n=86 v=64
15960 Off ch=1 n=96 v=64
15960 Off ch=1 n=97 v=64
15960 Off ch=1 n=98 v=64
16080 On ch=1 n=47 v=100
16080 On ch=1 n=63 v=100
16080 On ch=1 n=75 v=100
16080 On ch=1 n=87 v=100
16080 On ch=1 n=99 v=100
16080 On ch=1 n=111 v=100
16200 Off ch=1 n=47 v=64
16200 Off ch=1 n=63 v=64
16200 Off ch=1 n=75 v=64
16200 Off ch=1 n=87 v=64
16200 Off ch=1 n=99 v=64
16200 Off ch=1 n=111 v=64
16320 On ch=1 n=24 v=100
16320 On ch=1 n=47 v=100
16320 On ch=1 n=64 v=100
16320 On ch=1 n=76 v=100
16320 On ch=1 n=84 v=100
16320 On ch=1 n=88 v=100
16320 On ch=1 n=96 v=100
16320 On ch=1 n=100 v=100
16320 On ch=1 n=112 v=100
16440 Off ch=1 n=24 v=64
16440 Off ch=1 n=47 v=64
16440 Off ch=1 n=64 v=64
16440 Off ch=1 n=76 v=64
16440 Off ch=1 n=84 v=64
16440 Off ch=1 n=88 v=64
16440 Off ch=1 n=96 v=64
16440 Off ch=1 n=100 v=64
16440 Off ch=1 n=112 v=64
16560 On ch=1 n=31 v=100
16560 On ch=1 n=86 v=100
16560 On ch=1 n=98 v=100
16680 Off ch=1 n=31 v=64
16680 Off ch=1 n=86 v=64
16680 Off ch=1 n=98 v=64
16800 Off ch=1 n=106 v=64
16800 On ch=1 n=12 v=100
16800 On ch=1 n=24 v=100
16800 On ch=1 n=26 v=100
16800 On ch=1 n=31 v=100
16800 On ch=1 n=61 v=100
16800 On ch=1 n=73 v=100
16800 On ch=1 n=74 v=100
16800 On ch=1 n=85 v=100
16800 On ch=1 n=86 v=100
16800 On ch=1 n=96 v=100
16800 On ch=1 n=97 v=100
16800 On ch=1 n=98 v=100
16920 Off ch=1 n=12 v=64
16920 Off ch=1 n=24 v=64
16920 Off ch=1 n=26 v=64
16920 Off ch=1 n=31 v=64
16920 Off ch=1 n=61 v=64
16920 Off ch=1 n=73 v=64
16920 Off ch=1 n=74 v=64
16920 Off ch=1 n=85 v=64
16920 Off ch=1 n=86 v=64
16920 Off ch=1 n=96 v=64
16920 Off ch=1 n=97 v=64
16920 Off ch=1 n=98 v=64
17040 On ch=1 n=31 v=100
17040 On ch=1 n=74 v=100
17040 On ch=1 n=86 v=100
17040 On ch=1 n=98 v=100
17160 Off ch=1 n=31 v=64
17160 Off ch=1 n=74 v=64
17160 Off ch=1 n=86 v=64
17160 Off ch=1 n=98 v=64
17280 On ch=1 n=24 v=100
17280 On ch=1 n=31 v=100
17280 On ch=1 n=60 v=100
17280 On ch=1 n=72 v=100
17280 On ch=1 n=74 v=100
17280 On ch=1 n=84 v=100
17280 On ch=1 n=86 v=100
17280 On ch=1 n=96 v=100
17280 On ch=1 n=98 v=100
17400 Off ch=1 n=24 v=64
17400 Off ch=1 n=31 v=64
17400 Off ch=1 n=60 v=64
17400 Off ch=1 n=72 v=64
17400 Off ch=1 n=74 v=64
17400 Off ch=1 n=84 v=64
17400 Off ch=1 n=86 v=64
17400 Off ch=1 n=96 v=64
17400 Off ch=1 n=98 v=64
17520 On ch=1 n=31 v=100
17520 On ch=1 n=74 v=100
17520 On ch=1 n=86 v=100
17520 On ch=1 n=98 v=100
17640 Off ch=1 n=31 v=64
17640 Off ch=1 n=74 v=64
17640 Off ch=1 n=86 v=64
17640 Off ch=1 n=98 v=64
17760 On ch=1 n=24 v=100
17760 On ch=1 n=26 v=100
17760 On ch=1 n=31 v=100
17760 On ch=1 n=61 v=100
17760 On ch=1 n=73 v=100
17760 On ch=1 n=74 v=100
17760 On ch=1 n=85 v=100
17760 On ch=1 n=86 v=100
17760 On ch=1 n=96 v=100
17760 On ch=1 n=97 v=100
17760 On ch=1 n=98 v=100
17880 Off ch=1 n=24 v=64
17880 Off ch=1 n=26 v=64
17880 Off ch=1 n=31 v=64
17880 Off ch=1 n=61 v=64
17880 Off ch=1 n=73 v=64
17880 Off ch=1 n=74 v=64
17880 Off ch=1 n=85 v=64
17880 Off ch=1 n=86 v=64
17880 Off ch=1 n=96 v=64
17880 Off ch=1 n=97 v=64
17880 Off ch=1 n=98 v=64
18000 On ch=1 n=31 v=100
18000 On ch=1 n=74 v=100
18000 On ch=1 n=86 v=100
18000 On ch=1 n=98 v=100
18120 Off ch=1 n=31 v=64
18120 Off ch=1 n=74 v=64
18120 Off ch=1 n=86 v=64
18120 Off ch=1 n=98 v=64
18240 On ch=1 n=24 v=100
18240 On ch=1 n=31 v=100
18240 On ch=1 n=60 v=100
18240 On ch=1 n=74 v=100
18240 On ch=1 n=84 v=100
18240 On ch=1 n=86 v=100
18240 On ch=1 n=96 v=100
18240 On ch=1 n=98 v=100
18360 Off ch=1 n=24 v=64
18360 Off ch=1 n=31 v=64
18360 Off ch=1 n=60 v=64
18360 Off ch=1 n=74 v=64
18360 Off ch=1 n=84 v=64
18360 Off ch=1 n=86 v=64
18360 Off ch=1 n=96 v=64
18360 Off ch=1 n=98 v=64
18480 On ch=1 n=31 v=100
18480 On ch=1 n=74 v=100
18480 On ch=1 n=86 v=100
18480 On ch=1 n=98 v=100
18600 Off ch=1 n=31 v=64
18600 Off ch=1 n=74 v=64
18600 Off ch=1 n=86 v=64
18600 Off ch=1 n=98 v=64
18720 On ch=1 n=24 v=100
18720 On ch=1 n=26 v=100
18720 On ch=1 n=31 v=100
18720 On ch=1 n=61 v=100
18720 On ch=1 n=73 v=100
18720 On ch=1 n=74 v=100
18720 On ch=1 n=85 v=100
18720 On ch=1 n=86 v=100
18720 On ch=1 n=96 v=100
18720 On ch=1 n=97 v=100
18720 On ch=1 n=98 v=100
18840 Off ch=1 n=24 v=64
18840 Off ch=1 n=26 v=64
18840 Off ch=1 n=31 v=64
18840 Off ch=1 n=61 v=64
18840 Off ch=1 n=73 v=64
18840 Off ch=1 n=74 v=64
18840 Off ch=1 n=85 v=64
18840 Off ch=1 n=86 v=64
18840 Off ch=1 n=96 v=64
18840 Off ch=1 n=97 v=64
18840 Off ch=1 n=98 v=64
18960 On ch=1 n=31 v=100
18960 On ch=1 n=74 v=100
18960 On ch=1 n=86 v=100
18960 On ch=1 n=98 v=100
19080 Off ch=1 n=31 v=64
19080 Off ch=1 n=74 v=64
19080 Off ch=1 n=86 v=64
19080 Off ch=1 n=98 v=64
19200 On ch=1 n=24 v=100
19200 On ch=1 n=31 v=100
19200 On ch=1 n=60 v=100
19200 On ch=1 n=72 v=100
19200 On ch=1 n=74 v=100
19200 On ch=1 n=84 v=100
19200 On ch=1 n=86 v=100
19200 On ch=1 n=96 v=100
19200 On ch=1 n=98 v=100
19200 On ch=1 n=106 v=100
19200 On ch=1 n=120 v=100
19200 On ch=1 n=121 v=100
19200 On ch=1 n=122 v=100
19200 On ch=1 n=123 v=100
19200 On ch=1 n=124 v=100
19320 Off ch=1 n=24 v=64
19320 Off ch=1 n=31 v=64
19320 Off ch=1 n=60 v=64
19320 Off ch=1 n=72 v=64
19320 Off ch=1 n=74 v=64
19320 Off ch=1 n=84 v=64
19320 Off ch=1 n=86 v=64
19320 Off ch=1 n=96 v=64
19320 Off ch=1 n=98 v=64
19440 On ch=1 n=31 v=100
19440 On ch=1 n=74 v=100
19440 On ch=1 n=86 v=100
19440 On ch=1 n=98 v=100
19560 Off ch=1 n=31 v=64
19560 Off ch=1 n=74 v=64
19560 Off ch=1 n=86 v=64
19560 Off ch=1 n=98 v=64
19680 On ch=1 n=24 v=100
19680 On ch=1 n=26 v=100
19680 On ch=1 n=31 v=100
19680 On ch=1 n=61 v=100
19680 On ch=1 n=73 v=100
19680 On ch=1 n=74 v=100
19680 On ch=1 n=85 v=100
19680 On ch=1 n=86 v=100
19680 On ch=1 n=96 v=100
19680 On ch=1 n=97 v=100
19680 On ch=1 n=98 v=100
19800 Off ch=1 n=24 v=64
19800 Off ch=1 n=26 v=64
19800 Off ch=1 n=31 v=64
19800 Off ch=1 n=61 v=64
19800 Off ch=1 n=73 v=64
19800 Off ch=1 n=74 v=64
19800 Off ch=1 n=85 v=64
19800 Off ch=1 n=86 v=64
19800 Off ch=1 n=96 v=64
19800 Off ch=1 n=97 v=64
19800 Off ch=1 n=98 v=64
19920 On ch=1 n=47 v=100
19920 On ch=1 n=63 v=100
19920 On ch=1 n=75 v=100
19920 On ch=1 n=87 v=100
19920 On ch=1 n=99 v=100
19920 On ch=1 n=111 v=100
20040 Off ch=1 n=47 v=64
20040 Off ch=1 n=63 v=64
20040 Off ch=1 n=75 v=64
20040 Off ch=1 n=87 v=64
20040 Off ch=1 n=99 v=64
20040 Off ch=1 n=111 v=64
20160 On ch=1 n=24 v=100
20160 On ch=1 n=47 v=100
20160 On ch=1 n=64 v=100
20160 On ch=1 n=76 v=100
20160 On ch=1 n=84 v=100
20160 On ch=1 n=88 v=100
20160 On ch=1 n=96 v=100
20160 On ch=1 n=100 v=100
20160 On ch=1 n=112 v=100
20280 Off ch=1 n=24 v=64
20280 Off ch=1 n=47 v=64
20280 Off ch=1 n=64 v=64
20280 Off ch=1 n=76 v=64
20280 Off ch=1 n=84 v=64
20280 Off ch=1 n=88 v=64
20280 Off ch=1 n=96 v=64
20280 Off ch=1 n=100 v=64
20280 Off ch=1 n=112 v=64
20400 On ch=1 n=31 v=100
20400 On ch=1 n=86 v=100
20400 On ch=1 n=98 v=100
20520 Off ch=1 n=31 v=64
20520 Off ch=1 n=86 v=64
20520 Off ch=1 n=98 v=64
20640 On ch=1 n=24 v=100
20640 On ch=1 n=26 v=100
20640 On ch=1 n=31 v=100
20640 On ch=1 n=61 v=100
20640 On ch=1 n=73 v=100
20640 On ch=1 n=74 v=100
20640 On ch=1 n=85 v=100
20640 On ch=1 n=86 v=100
20640 On ch=1 n=96 v=100
20640 On ch=1 n=97 v=100
20640 On ch=1 n=98 v=100
20760 Off ch=1 n=24 v=64
20760 Off ch=1 n=26 v=64
20760 Off ch=1 n=31 v=64
20760 Off ch=1 n=61 v=64
20760 Off ch=1 n=73 v=64
20760 Off ch=1 n=74 v=64
20760 Off ch=1 n=85 v=64
20760 Off ch=1 n=86 v=64
20760 Off ch=1 n=96 v=64
20760 Off ch=1 n=97 v=64
20760 Off ch=1 n=98 v=64
20880 On ch=1 n=31 v=100
20880 On ch=1 n=74 v=100
20880 On ch=1 n=86 v=100
20880 On ch=1 n=98 v=100
21000 Off ch=1 n=31 v=64
21000 Off ch=1 n=74 v=64
21000 Off ch=1 n=86 v=64
21000 Off ch=1 n=98 v=64
21120 Off ch=1 n=105 v=64
21120 Off ch=1 n=120 v=64
21120 Off ch=1 n=121 v=64
21120 Off ch=1 n=122 v=64
21120 Off ch=1 n=123 v=64
21120 Off ch=1 n=124 v=64
21120 On ch=1 n=12 v=100
21120 On ch=1 n=24 v=100
21120 On ch=1 n=31 v=100
21120 On ch=1 n=60 v=100
21120 On ch=1 n=72 v=100
21120 On ch=1 n=74 v=100
21120 On ch=1 n=84 v=100
21120 On ch=1 n=86 v=100
21120 On ch=1 n=96 v=100
21120 On ch=1 n=98 v=100
21240 Off ch=1 n=12 v=64
21240 Off ch=1 n=24 v=64
21240 Off ch=1 n=31 v=64
21240 Off ch=1 n=60 v=64
21240 Off ch=1 n=72 v=64
21240 Off ch=1 n=74 v=64
21240 Off ch=1 n=84 v=64
21240 Off ch=1 n=86 v=64
21240 Off ch=1 n=96 v=64
21240 Off ch=1 n=98 v=64
21360 On ch=1 n=31 v=100
21360 On ch=1 n=74 v=100
21360 On ch=1 n=86 v=100
21360 On ch=1 n=98 v=100
21480 Off ch=1 n=31 v=64
21480 Off ch=1 n=74 v=64
21480 Off ch=1 n=86 v=64
21480 Off ch=1 n=98 v=64
21600 On ch=1 n=24 v=100
21600 On ch=1 n=26 v=100
21600 On ch=1 n=31 v=100
21600 On ch=1 n=61 v=100
21600 On ch=1 n=73 v=100
21600 On ch=1 n=74 v=100
21600 On ch=1 n=85 v=100
21600 On ch=1 n=86 v=100
21600 On ch=1 n=96 v=100
21600 On ch=1 n=97 v=100
21600 On ch=1 n=98 v=100
21720 Off ch=1 n=24 v=64
21720 Off ch=1 n=26 v=64
21720 Off ch=1 n=31 v=64
21720 Off ch=1 n=61 v=64
21720 Off ch=1 n=73 v=64
21720 Off ch=1 n=74 v=64
21720 Off ch=1 n=85 v=64
21720 Off ch=1 n=86 v=64
21720 Off ch=1 n=96 v=64
21720 Off ch=1 n=97 v=64
21720 Off ch=1 n=98 v=64
21840 On ch=1 n=31 v=100
21840 On ch=1 n=74 v=100
21840 On ch=1 n=86 v=100
21840 On ch=1 n=98 v=100
21960 Off ch=1 n=31 v=64
21960 Off ch=1 n=74 v=64
21960 Off ch=1 n=86 v=64
21960 Off ch=1 n=98 v=64
22080 On ch=1 n=24 v=100
22080 On ch=1 n=31 v=100
22080 On ch=1 n=60 v=100
22080 On ch=1 n=74 v=100
22080 On ch=1 n=84 v=100
22080 On ch=1 n=86 v=100
22080 On ch=1 n=96 v=100
22080 On ch=1 n=98 v=100
22200 Off ch=1 n=24 v=64
22200 Off ch=1 n=31 v=64
22200 Off ch=1 n=60 v=64
22200 Off ch=1 n=74 v=64
22200 Off ch=1 n=84 v=64
22200 Off ch=1 n=86 v=64
22200 Off ch=1 n=96 v=64
22200 Off ch=1 n=98 v=64
22320 On ch=1 n=31 v=100
22320 On ch=1 n=74 v=100
22320 On ch=1 n=86 v=100
22320 On ch=1 n=98 v=100
22440 Off ch=1 n=31 v=64
22440 Off ch=1 n=74 v=64
22440 Off ch=1 n=86 v=64
22440 Off ch=1 n=98 v=64
22560 On ch=1 n=24 v=100
22560 On ch=1 n=26 v=100
22560 On ch=1 n=31 v=100
22560 On ch=1 n=61 v=100
22560 On ch=1 n=73 v=100
22560 On ch=1 n=74 v=100
22560 On ch=1 n=85 v=100
22560 On ch=1 n=86 v=100
22560 On ch=1 n=96 v=100
22560 On ch=1 n=97 v=100
22560 On ch=1 n=98 v=100
22680 Off ch=1 n=24 v=64
22680 Off ch=1 n=26 v=64
22680 Off ch=1 n=31 v=64
22680 Off ch=1 n=61 v=64
22680 Off ch=1 n=73 v=64
22680 Off ch=1 n=74 v=64
22680 Off ch=1 n=85 v=64
22680 Off ch=1 n=86 v=64
22680 Off ch=1 n=96 v=64
22680 Off ch=1 n=97 v=64
22680 Off ch=1 n=98 v=64
22800 On ch=1 n=31 v=100
22800 On ch=1 n=74 v=100
22800 On ch=1 n=86 v=100
22800 On ch=1 n=98 v=100
22920 Off ch=1 n=31 v=64
22920 Off ch=1 n=74 v=64
22920 Off ch=1 n=86 v=64
22920 Off ch=1 n=98 v=64
23040 On ch=1 n=24 v=100
23040 On ch=1 n=31 v=100
23040 On ch=1 n=60 v=100
23040 On ch=1 n=72 v=100
23040 On ch=1 n=74 v=100
23040 On ch=1 n=84 v=100
23040 On ch=1 n=86 v=100
23040 On ch=1 n=96 v=100
23040 On ch=1 n=98 v=100
23040 On ch=1 n=105 v=100
23040 On ch=1 n=116 v=100
23160 Off ch=1 n=24 v=64
23160 Off ch=1 n=31 v=64
23160 Off ch=1 n=60 v=64
23160 Off ch=1 n=72 v=64
23160 Off ch=1 n=74 v=64
23160 Off ch=1 n=84 v=64
23160 Off ch=1 n=86 v=64
23160 Off ch=1 n=96 v=64
23160 Off ch=1 n=98 v=64
23280 On ch=1 n=31 v=100
23280 On ch=1 n=74 v=100
23280 On ch=1 n=86 v=100
23280 On ch=1 n=98 v=100
23400 Off ch=1 n=31 v=64
23400 Off ch=1 n=74 v=64
23400 Off ch=1 n=86 v=64
23400 Off ch=1 n=98 v=64
23520 On ch=1 n=24 v=100
23520 On ch=1 n=26 v=100
23520 On ch=1 n=31 v=100
23520 On ch=1 n=61 v=100
23520 On ch=1 n=73 v=100
23520 On ch=1 n=74 v=100
23520 On ch=1 n=85 v=100
23520 On ch=1 n=86 v=100
23520 On ch=1 n=96 v=100
23520 On ch=1 n=97 v=100
23520 On ch=1 n=98 v=100
23640 Off ch=1 n=24 v=64
23640 Off ch=1 n=26 v=64
23640 Off ch=1 n=31 v=64
23640 Off ch=1 n=61 v=64
23640 Off ch=1 n=73 v=64
23640 Off ch=1 n=74 v=64
23640 Off ch=1 n=85 v=64
23640 Off ch=1 n=86 v=64
23640 Off ch=1 n=96 v=64
23640 Off ch=1 n=97 v=64
23640 Off ch=1 n=98 v=64
23760 On ch=1 n=47 v=100
23760 On ch=1 n=63 v=100
23760 On ch=1 n=75 v=100
23760 On ch=1 n=87 v=100
23760 On ch=1 n=99 v=100
23760 On ch=1 n=111 v=100
23880 Off ch=1 n=47 v=64
23880 Off ch=1 n=63 v=64
23880 Off ch=1 n=75 v=64
23880 Off ch=1 n=87 v=64
23880 Off ch=1 n=99 v=64
23880 Off ch=1 n=111 v=64
24000 On ch=1 n=24 v=100
24000 On ch=1 n=47 v=100
24000 On ch=1 n=64 v=100
24000 On ch=1 n=76 v=100
24000 On ch=1 n=84 v=100
24000 On ch=1 n=88 v=100
24000 On ch=1 n=96 v=100
24000 On ch=1 n=100 v=100
24000 On ch=1 n=112 v=100
24120 Off ch=1 n=24 v=64
24120 Off ch=1 n=47 v=64
24120 Off ch=1 n=64 v=64
24120 Off ch=1 n=76 v=64
24120 Off ch=1 n=84 v=64
24120 Off ch=1 n=88 v=64
24120 Off ch=1 n=96 v=64
24120 Off ch=1 n=100 v=64
24120 Off ch=1 n=112 v=64
24240 On ch=1 n=31 v=100
24240 On ch=1 n=86 v=100
24240 On ch=1 n=98 v=100
24360 Off ch=1 n=31 v=64
24360 Off ch=1 n=86 v=64
24360 Off ch=1 n=98 v=64
24480 On ch=1 n=24 v=100
24480 On ch=1 n=26 v=100
24480 On ch=1 n=31 v=100
24480 On ch=1 n=61 v=100
24480 On ch=1 n=73 v=100
24480 On ch=1 n=74 v=100
24480 On ch=1 n=85 v=100
24480 On ch=1 n=86 v=100
24480 On ch=1 n=96 v=100
24480 On ch=1 n=97 v=100
24480 On ch=1 n=98 v=100
24600 Off ch=1 n=24 v=64
24600 Off ch=1 n=26 v=64
24600 Off ch=1 n=31 v=64
24600 Off ch=1 n=61 v=64
24600 Off ch=1 n=73 v=64
24600 Off ch=1 n=74 v=64
24600 Off ch=1 n=85 v=64
24600 Off ch=1 n=86 v=64
24600 Off ch=1 n=96 v=64
24600 Off ch=1 n=97 v=64
24600 Off ch=1 n=98 v=64
24720 On ch=1 n=31 v=100
24720 On ch=1 n=74 v=100
24720 On ch=1 n=86 v=100
24720 On ch=1 n=98 v=100
24840 Off ch=1 n=116 v=64
24840 Off ch=1 n=31 v=64
24840 Off ch=1 n=74 v=64
24840 Off ch=1 n=86 v=64
24840 Off ch=1 n=98 v=64
24960 Off ch=1 n=106 v=64
24960 On ch=1 n=12 v=100
24960 On ch=1 n=24 v=100
24960 On ch=1 n=31 v=100
24960 On ch=1 n=60 v=100
24960 On ch=1 n=72 v=100
24960 On ch=1 n=74 v=100
24960 On ch=1 n=84 v=100
24960 On ch=1 n=86 v=100
24960 On ch=1 n=96 v=100
24960 On ch=1 n=98 v=100
25080 Off ch=1 n=12 v=64
25080 Off ch=1 n=24 v=64
25080 Off ch=1 n=31 v=64
25080 Off ch=1 n=60 v=64
25080 Off ch=1 n=72 v=64
25080 Off ch=1 n=74 v=64
25080 Off ch=1 n=84 v=64
25080 Off ch=1 n=86 v=64
25080 Off ch=1 n=96 v=64
25080 Off ch=1 n=98 v=64
25200 On ch=1 n=31 v=100
25200 On ch=1 n=74 v=100
25200 On ch=1 n=86 v=100
25200 On ch=1 n=98 v=100
25320 Off ch=1 n=31 v=64
25320 Off ch=1 n=74 v=64
25320 Off ch=1 n=86 v=64
25320 Off ch=1 n=98 v=64
25440 On ch=1 n=24 v=100
25440 On ch=1 n=26 v=100
25440 On ch=1 n=31 v=100
25440 On ch=1 n=61 v=100
25440 On ch=1 n=73 v=100
25440 On ch=1 n=74 v=100
25440 On ch=1 n=85 v=100
25440 On ch=1 n=86 v=100
25440 On ch=1 n=96 v=100
25440 On ch=1 n=97 v=100
25440 On ch=1 n=98 v=100
25560 Off ch=1 n=24 v=64
25560 Off ch=1 n=26 v=64
25560 Off ch=1 n=31 v=64
25560 Off ch=1 n=61 v=64
25560 Off ch=1 n=73 v=64
25560 Off ch=1 n=74 v=64
25560 Off ch=1 n=85 v=64
25560 Off ch=1 n=86 v=64
25560 Off ch=1 n=96 v=64
25560 Off ch=1 n=97 v=64
25560 Off ch=1 n=98 v=64
25680 On ch=1 n=31 v=100
25680 On ch=1 n=74 v=100
25680 On ch=1 n=86 v=100
25680 On ch=1 n=98 v=100
25800 Off ch=1 n=31 v=64
25800 Off ch=1 n=74 v=64
25800 Off ch=1 n=86 v=64
25800 Off ch=1 n=98 v=64
25920 On ch=1 n=24 v=100
25920 On ch=1 n=31 v=100
25920 On ch=1 n=60 v=100
25920 On ch=1 n=74 v=100
25920 On ch=1 n=84 v=100
25920 On ch=1 n=86 v=100
25920 On ch=1 n=96 v=100
25920 On ch=1 n=98 v=100
26040 Off ch=1 n=24 v=64
26040 Off ch=1 n=31 v=64
26040 Off ch=1 n=60 v=64
26040 Off ch=1 n=74 v=64
26040 Off ch=1 n=84 v=64
26040 Off ch=1 n=86 v=64
26040 Off ch=1 n=96 v=64
26040 Off ch=1 n=98 v=64
26160 On ch=1 n=31 v=100
26160 On ch=1 n=74 v=100
26160 On ch=1 n=86 v=100
26160 On ch=1 n=98 v=100
26280 Off ch=1 n=31 v=64
26280 Off ch=1 n=74 v=64
26280 Off ch=1 n=86 v=64
26280 Off ch=1 n=98 v=64
26400 On ch=1 n=24 v=100
26400 On ch=1 n=26 v=100
26400 On ch=1 n=31 v=100
26400 On ch=1 n=61 v=100
26400 On ch=1 n=73 v=100
26400 On ch=1 n=74 v=100
26400 On ch=1 n=85 v=100
26400 On ch=1 n=86 v=100
26400 On ch=1 n=96 v=100
26400 On ch=1 n=97 v=100
26400 On ch=1 n=98 v=100
26520 Off ch=1 n=24 v=64
26520 Off ch=1 n=26 v=64
26520 Off ch=1 n=31 v=64
26520 Off ch=1 n=61 v=64
26520 Off ch=1 n=73 v=64
26520 Off ch=1 n=74 v=64
26520 Off ch=1 n=85 v=64
26520 Off ch=1 n=86 v=64
26520 Off ch=1 n=96 v=64
26520 Off ch=1 n=97 v=64
26520 Off ch=1 n=98 v=64
26640 On ch=1 n=31 v=100
26640 On ch=1 n=74 v=100
26640 On ch=1 n=86 v=100
26640 On ch=1 n=98 v=100
26760 Off ch=1 n=31 v=64
26760 Off ch=1 n=74 v=64
26760 Off ch=1 n=86 v=64
26760 Off ch=1 n=98 v=64
26880 On ch=1 n=24 v=100
26880 On ch=1 n=31 v=100
26880 On ch=1 n=60 v=100
26880 On ch=1 n=72 v=100
26880 On ch=1 n=74 v=100
26880 On ch=1 n=84 v=100
26880 On ch=1 n=86 v=100
26880 On ch=1 n=96 v=100
26880 On ch=1 n=98 v=100
26880 On ch=1 n=106 v=100
26880 On ch=1 n=120 v=100
26880 On ch=1 n=121 v=100
26880 On ch=1 n=122 v=100
26880 On ch=1 n=123 v=100
26880 On ch=1 n=124 v=100
27000 Off ch=1 n=24 v=64
27000 Off ch=1 n=31 v=64
27000 Off ch=1 n=60 v=64
27000 Off ch=1 n=72 v=64
27000 Off ch=1 n=74 v=64
27000 Off ch=1 n=84 v=64
27000 Off ch=1 n=86 v=64
27000 Off ch=1 n=96 v=64
27000 Off ch=1 n=98 v=64
27120 On ch=1 n=47 v=100
27120 On ch=1 n=62 v=100
27120 On ch=1 n=75 v=100
27120 On ch=1 n=87 v=100
27120 On ch=1 n=99 v=100
27120 On ch=1 n=111 v=100
27240 Off ch=1 n=47 v=64
27240 Off ch=1 n=62 v=64
27240 Off ch=1 n=75 v=64
27240 Off ch=1 n=87 v=64
27240 Off ch=1 n=99 v=64
27240 Off ch=1 n=111 v=64
27360 On ch=1 n=24 v=100
27360 On ch=1 n=26 v=100
27360 On ch=1 n=31 v=100
27360 On ch=1 n=85 v=100
27360 On ch=1 n=86 v=100
27360 On ch=1 n=96 v=100
27360 On ch=1 n=97 v=100
27360 On ch=1 n=98 v=100
27480 Off ch=1 n=24 v=64
27480 Off ch=1 n=26 v=64
27480 Off ch=1 n=31 v=64
27480 Off ch=1 n=85 v=64
27480 Off ch=1 n=86 v=64
27480 Off ch=1 n=96 v=64
27480 Off ch=1 n=97 v=64
27480 Off ch=1 n=98 v=64
27600 On ch=1 n=49 v=100
27600 On ch=1 n=63 v=100
27600 On ch=1 n=75 v=100
27600 On ch=1 n=87 v=100
27600 On ch=1 n=99 v=100
27600 On ch=1 n=111 v=100
27720 Off ch=1 n=49 v=64
27720 Off ch=1 n=63 v=64
27720 Off ch=1 n=75 v=64
27720 Off ch=1 n=87 v=64
27720 Off ch=1 n=99 v=64
27720 Off ch=1 n=111 v=64
27840 On ch=1 n=24 v=100
27840 On ch=1 n=49 v=100
27840 On ch=1 n=63 v=100
27840 On ch=1 n=75 v=100
27840 On ch=1 n=87 v=100
27840 On ch=1 n=96 v=100
27840 On ch=1 n=99 v=100
27840 On ch=1 n=111 v=100
27960 Off ch=1 n=24 v=64
27960 Off ch=1 n=49 v=64
27960 Off ch=1 n=63 v=64
27960 Off ch=1 n=75 v=64
27960 Off ch=1 n=87 v=64
27960 Off ch=1 n=96 v=64
27960 Off ch=1 n=99 v=64
27960 Off ch=1 n=111 v=64
28080 On ch=1 n=30 v=100
28080 On ch=1 n=86 v=100
28080 On ch=1 n=98 v=100
28200 Off ch=1 n=30 v=64
28200 Off ch=1 n=86 v=64
28200 Off ch=1 n=98 v=64
28320 On ch=1 n=24 v=100
28320 On ch=1 n=26 v=100
28320 On ch=1 n=51 v=100
28320 On ch=1 n=64 v=100
28320 On ch=1 n=76 v=100
28320 On ch=1 n=88 v=100
28320 On ch=1 n=96 v=100
28320 On ch=1 n=97 v=100
28320 On ch=1 n=100 v=100
28320 On ch=1 n=112 v=100
28440 Off ch=1 n=24 v=64
28440 Off ch=1 n=26 v=64
28440 Off ch=1 n=51 v=64
28440 Off ch=1 n=64 v=64
28440 Off ch=1 n=76 v=64
28440 Off ch=1 n=88 v=64
28440 Off ch=1 n=96 v=64
28440 Off ch=1 n=97 v=64
28440 Off ch=1 n=100 v=64
28440 Off ch=1 n=112 v=64
28560 On ch=1 n=50 v=100
28560 On ch=1 n=64 v=100
28560 On ch=1 n=76 v=100
28560 On ch=1 n=88 v=100
28560 On ch=1 n=100 v=100
28560 On ch=1 n=112 v=100
28680 Off ch=1 n=50 v=64
28680 Off ch=1 n=64 v=64
28680 Off ch=1 n=76 v=64
28680 Off ch=1 n=88 v=64
28680 Off ch=1 n=100 v=64
28680 Off ch=1 n=112 v=64
28800 Off ch=1 n=105 v=64
28800 Off ch=1 n=120 v=64
28800 Off ch=1 n=121 v=64
28800 Off ch=1 n=122 v=64
28800 Off ch=1 n=123 v=64
28800 Off ch=1 n=124 v=64
28800 On ch=1 n=12 v=100
28800 On ch=1 n=24 v=100
28800 On ch=1 n=38 v=100
28800 On ch=1 n=63 v=100
28800 On ch=1 n=72 v=100
28800 On ch=1 n=75 v=100
28800 On ch=1 n=84 v=100
28800 On ch=1 n=87 v=100
28800 On ch=1 n=96 v=100
28800 On ch=1 n=99 v=100
28920 Off ch=1 n=12 v=64
28920 Off ch=1 n=24 v=64
28920 Off ch=1 n=38 v=64
28920 Off ch=1 n=63 v=64
28920 Off ch=1 n=72 v=64
28920 Off ch=1 n=75 v=64
28920 Off ch=1 n=84 v=64
28920 Off ch=1 n=87 v=64
28920 Off ch=1 n=96 v=64
28920 Off ch=1 n=99 v=64
29040 On ch=1 n=31 v=100
29040 On ch=1 n=86 v=100
29040 On ch=1 n=98 v=100
29160 Off ch=1 n=31 v=64
29160 Off ch=1 n=86 v=64
29160 Off ch=1 n=98 v=64
29280 On ch=1 n=24 v=100
29280 On ch=1 n=26 v=100
29280 On ch=1 n=31 v=100
29280 On ch=1 n=61 v=100
29280 On ch=1 n=73 v=100
29280 On ch=1 n=74 v=100
29280 On ch=1 n=85 v=100
29280 On ch=1 n=86 v=100
29280 On ch=1 n=96 v=100
29280 On ch=1 n=97 v=100
29280 On ch=1 n=98 v=100
29400 Off ch=1 n=24 v=64
29400 Off ch=1 n=26 v=64
29400 Off ch=1 n=31 v=64
29400 Off ch=1 n=61 v=64
29400 Off ch=1 n=73 v=64
29400 Off ch=1 n=74 v=64
29400 Off ch=1 n=85 v=64
29400 Off ch=1 n=86 v=64
29400 Off ch=1 n=96 v=64
29400 Off ch=1 n=97 v=64
29400 Off ch=1 n=98 v=64
29520 On ch=1 n=31 v=100
29520 On ch=1 n=74 v=100
29520 On ch=1 n=86 v=100
29520 On ch=1 n=98 v=100
29640 Off ch=1 n=31 v=64
29640 Off ch=1 n=74 v=64
29640 Off ch=1 n=86 v=64
29640 Off ch=1 n=98 v=64
29760 On ch=1 n=24 v=100
29760 On ch=1 n=31 v=100
29760 On ch=1 n=60 v=100
29760 On ch=1 n=74 v=100
29760 On ch=1 n=84 v=100
29760 On ch=1 n=86 v=100
29760 On ch=1 n=96 v=100
29760 On ch=1 n=98 v=100
29880 Off ch=1 n=24 v=64
29880 Off ch=1 n=31 v=64
29880 Off ch=1 n=60 v=64
29880 Off ch=1 n=74 v=64
29880 Off ch=1 n=84 v=64
29880 Off ch=1 n=86 v=64
29880 Off ch=1 n=96 v=64
29880 Off ch=1 n=98 v=64
30000 On ch=1 n=31 v=100
30000 On ch=1 n=74 v=100
30000 On ch=1 n=86 v=100
30000 On ch=1 n=98 v=100
30120 Off ch=1 n=31 v=64
30120 Off ch=1 n=74 v=64
30120 Off ch=1 n=86 v=64
30120 Off ch=1 n=98 v=64
30240 On ch=1 n=24 v=100
30240 On ch=1 n=26 v=100
30240 On ch=1 n=31 v=100
30240 On ch=1 n=61 v=100
30240 On ch=1 n=73 v=100
30240 On ch=1 n=74 v=100
30240 On ch=1 n=85 v=100
30240 On ch=1 n=86 v=100
30240 On ch=1 n=96 v=100
30240 On ch=1 n=97 v=100
30240 On ch=1 n=98 v=100
30360 Off ch=1 n=24 v=64
30360 Off ch=1 n=26 v=64
30360 Off ch=1 n=31 v=64
30360 Off ch=1 n=61 v=64
30360 Off ch=1 n=73 v=64
30360 Off ch=1 n=74 v=64
30360 Off ch=1 n=85 v=64
30360 Off ch=1 n=86 v=64
30360 Off ch=1 n=96 v=64
30360 Off ch=1 n=97 v=64
30360 Off ch=1 n=98 v=64
30480 On ch=1 n=31 v=100
30480 On ch=1 n=74 v=100
30480 On ch=1 n=86 v=100
30480 On ch=1 n=98 v=100
30600 Off ch=1 n=31 v=64
30600 Off ch=1 n=74 v=64
30600 Off ch=1 n=86 v=64
30600 Off ch=1 n=98 v=64
30720 On ch=1 n=24 v=100
30720 On ch=1 n=31 v=100
30720 On ch=1 n=60 v=100
30720 On ch=1 n=72 v=100
30720 On ch=1 n=74 v=100
30720 On ch=1 n=84 v=100
30720 On ch=1 n=86 v=100
30720 On ch=1 n=96 v=100
30720 On ch=1 n=98 v=100
30720 On ch=1 n=105 v=100
30840 Off ch=1 n=24 v=64
30840 Off ch=1 n=31 v=64
30840 Off ch=1 n=60 v=64
30840 Off ch=1 n=72 v=64
30840 Off ch=1 n=74 v=64
30840 Off ch=1 n=84 v=64
30840 Off ch=1 n=86 v=64
30840 Off ch=1 n=96 v=64
30840 Off ch=1 n=98 v=64
30960 On ch=1 n=31 v=100
30960 On ch=1 n=74 v=100
30960 On ch=1 n=86 v=100
30960 On ch=1 n=98 v=100
31080 Off ch=1 n=31 v=64
31080 Off ch=1 n=74 v=64
31080 Off ch=1 n=86 v=64
31080 Off ch=1 n=98 v=64
31200 On ch=1 n=24 v=100
31200 On ch=1 n=26 v=100
31200 On ch=1 n=31 v=100
31200 On ch=1 n=61 v=100
31200 On ch=1 n=73 v=100
31200 On ch=1 n=74 v=100
31200 On ch=1 n=85 v=100
31200 On ch=1 n=86 v=100
31200 On ch=1 n=96 v=100
31200 On ch=1 n=97 v=100
31200 On ch=1 n=98 v=100
31320 Off ch=1 n=24 v=64
31320 Off ch=1 n=26 v=64
31320 Off ch=1 n=31 v=64
31320 Off ch=1 n=61 v=64
31320 Off ch=1 n=73 v=64
31320 Off ch=1 n=74 v=64
31320 Off ch=1 n=85 v=64
31320 Off ch=1 n=86 v=64
31320 Off ch=1 n=96 v=64
31320 Off ch=1 n=97 v=64
31320 Off ch=1 n=98 v=64
31440 On ch=1 n=47 v=100
31440 On ch=1 n=63 v=100
31440 On ch=1 n=75 v=100
31440 On ch=1 n=87 v=100
31440 On ch=1 n=99 v=100
31440 On ch=1 n=111 v=100
31560 Off ch=1 n=47 v=64
31560 Off ch=1 n=63 v=64
31560 Off ch=1 n=75 v=64
31560 Off ch=1 n=87 v=64
31560 Off ch=1 n=99 v=64
31560 Off ch=1 n=111 v=64
31680 On ch=1 n=24 v=100
31680 On ch=1 n=47 v=100
31680 On ch=1 n=64 v=100
31680 On ch=1 n=76 v=100
31680 On ch=1 n=84 v=100
31680 On ch=1 n=88 v=100
31680 On ch=1 n=96 v=100
31680 On ch=1 n=100 v=100
31680 On ch=1 n=112 v=100
31800 Off ch=1 n=24 v=64
31800 Off ch=1 n=47 v=64
31800 Off ch=1 n=64 v=64
31800 Off ch=1 n=76 v=64
31800 Off ch=1 n=84 v=64
31800 Off ch=1 n=88 v=64
31800 Off ch=1 n=96 v=64
31800 Off ch=1 n=100 v=64
31800 Off ch=1 n=112 v=64
31920 On ch=1 n=31 v=100
31920 On ch=1 n=86 v=100
31920 On ch=1 n=98 v=100
32040 Off ch=1 n=31 v=64
32040 Off ch=1 n=86 v=64
32040 Off ch=1 n=98 v=64
32160 On ch=1 n=24 v=100
32160 On ch=1 n=26 v=100
32160 On ch=1 n=31 v=100
32160 On ch=1 n=61 v=100
32160 On ch=1 n=73 v=100
32160 On ch=1 n=74 v=100
32160 On ch=1 n=85 v=100
32160 On ch=1 n=86 v=100
32160 On ch=1 n=96 v=100
32160 On ch=1 n=97 v=100
32160 On ch=1 n=98 v=100
32280 Off ch=1 n=24 v=64
32280 Off ch=1 n=26 v=64
32280 Off ch=1 n=31 v=64
32280 Off ch=1 n=61 v=64
32280 Off ch=1 n=73 v=64
32280 Off ch=1 n=74 v=64
32280 Off ch=1 n=85 v=64
32280 Off ch=1 n=86 v=64
32280 Off ch=1 n=96 v=64
32280 Off ch=1 n=97 v=64
32280 Off ch=1 n=98 v=64
32400 On ch=1 n=31 v=100
32400 On ch=1 n=74 v=100
32400 On ch=1 n=86 v=100
32400 On ch=1 n=98 v=100
32520 Off ch=1 n=31 v=64
32520 Off ch=1 n=74 v=64
32520 Off ch=1 n=86 v=64
32520 Off ch=1 n=98 v=64
32640 Off ch=1 n=106 v=64
32640 On ch=1 n=12 v=100
32640 On ch=1 n=24 v=100
32640 On ch=1 n=31 v=100
32640 On ch=1 n=60 v=100
32640 On ch=1 n=72 v=100
32640 On ch=1 n=74 v=100
32640 On ch=1 n=84 v=100
32640 On ch=1 n=86 v=100
32640 On ch=1 n=96 v=100
32640 On ch=1 n=98 v=100
32760 Off ch=1 n=12 v=64
32760 Off ch=1 n=24 v=64
32760 Off ch=1 n=31 v=64
32760 Off ch=1 n=60 v=64
32760 Off ch=1 n=72 v=64
32760 Off ch=1 n=74 v=64
32760 Off ch=1 n=84 v=64
32760 Off ch=1 n=86 v=64
32760 Off ch=1 n=96 v=64
32760 Off ch=1 n=98 v=64
32880 On ch=1 n=31 v=100
32880 On ch=1 n=74 v=100
32880 On ch=1 n=86 v=100
32880 On ch=1 n=98 v=100
33000 Off ch=1 n=31 v=64
33000 Off ch=1 n=74 v=64
33000 Off ch=1 n=86 v=64
33000 Off ch=1 n=98 v=64
33120 On ch=1 n=24 v=100
33120 On ch=1 n=26 v=100
33120 On ch=1 n=31 v=100
33120 On ch=1 n=61 v=100
33120 On ch=1 n=73 v=100
33120 On ch=1 n=74 v=100
33120 On ch=1 n=85 v=100
33120 On ch=1 n=86 v=100
33120 On ch=1 n=96 v=100
33120 On ch=1 n=97 v=100
33120 On ch=1 n=98 v=100
33240 Off ch=1 n=24 v=64
33240 Off ch=1 n=26 v=64
33240 Off ch=1 n=31 v=64
33240 Off ch=1 n=61 v=64
33240 Off ch=1 n=73 v=64
33240 Off ch=1 n=74 v=64
33240 Off ch=1 n=85 v=64
33240 Off ch=1 n=86 v=64
33240 Off ch=1 n=96 v=64
33240 Off ch=1 n=97 v=64
33240 Off ch=1 n=98 v=64
33360 On ch=1 n=31 v=100
33360 On ch=1 n=74 v=100
33360 On ch=1 n=86 v=100
33360 On ch=1 n=98 v=100
33480 Off ch=1 n=31 v=64
33480 Off ch=1 n=74 v=64
33480 Off ch=1 n=86 v=64
33480 Off ch=1 n=98 v=64
33600 On ch=1 n=24 v=100
33600 On ch=1 n=31 v=100
33600 On ch=1 n=60 v=100
33600 On ch=1 n=74 v=100
33600 On ch=1 n=84 v=100
33600 On ch=1 n=86 v=100
33600 On ch=1 n=96 v=100
33600 On ch=1 n=98 v=100
33720 Off ch=1 n=24 v=64
33720 Off ch=1 n=31 v=64
33720 Off ch=1 n=60 v=64
33720 Off ch=1 n=74 v=64
33720 Off ch=1 n=84 v=64
33720 Off ch=1 n=86 v=64
33720 Off ch=1 n=96 v=64
33720 Off ch=1 n=98 v=64
33840 On ch=1 n=31 v=100
33840 On ch=1 n=74 v=100
33840 On ch=1 n=86 v=100
33840 On ch=1 n=98 v=100
33960 Off ch=1 n=31 v=64
33960 Off ch=1 n=74 v=64
33960 Off ch=1 n=86 v=64
33960 Off ch=1 n=98 v=64
34080 On ch=1 n=24 v=100
34080 On ch=1 n=26 v=100
34080 On ch=1 n=31 v=100
34080 On ch=1 n=61 v=100
34080 On ch=1 n=73 v=100
34080 On ch=1 n=74 v=100
34080 On ch=1 n=85 v=100
34080 On ch=1 n=86 v=100
34080 On ch=1 n=96 v=100
34080 On ch=1 n=97 v=100
34080 On ch=1 n=98 v=100
34200 Off ch=1 n=24 v=64
34200 Off ch=1 n=26 v=64
34200 Off ch=1 n=31 v=64
34200 Off ch=1 n=61 v=64
34200 Off ch=1 n=73 v=64
34200 Off ch=1 n=74 v=64
34200 Off ch=1 n=85 v=64
34200 Off ch=1 n=86 v=64
34200 Off ch=1 n=96 v=64
34200 Off ch=1 n=97 v=64
34200 Off ch=1 n=98 v=64
34320 On ch=1 n=31 v=100
34320 On ch=1 n=74 v=100
34320 On ch=1 n=86 v=100
34320 On ch=1 n=98 v=100
34440 Off ch=1 n=31 v=64
34440 Off ch=1 n=74 v=64
34440 Off ch=1 n=86 v=64
34440 Off ch=1 n=98 v=64
34560 On ch=1 n=24 v=100
34560 On ch=1 n=31 v=100
34560 On ch=1 n=60 v=100
34560 On ch=1 n=72 v=100
34560 On ch=1 n=74 v=100
34560 On ch=1 n=84 v=100
34560 On ch=1 n=86 v=100
34560 On ch=1 n=96 v=100
34560 On ch=1 n=98 v=100
34560 On ch=1 n=106 v=100
34560 On ch=1 n=120 v=100
34560 On ch=1 n=121 v=100
34560 On ch=1 n=122 v=100
34560 On ch=1 n=123 v=100
34560 On ch=1 n=124 v=100
34680 Off ch=1 n=24 v=64
34680 Off ch=1 n=31 v=64
34680 Off ch=1 n=60 v=64
34680 Off ch=1 n=72 v=64
34680 Off ch=1 n=74 v=64
34680 Off ch=1 n=84 v=64
34680 Off ch=1 n=86 v=64
34680 Off ch=1 n=96 v=64
34680 Off ch=1 n=98 v=64
34800 On ch=1 n=47 v=100
34800 On ch=1 n=62 v=100
34800 On ch=1 n=75 v=100
34800 On ch=1 n=87 v=100
34800 On ch=1 n=99 v=100
34800 On ch=1 n=111 v=100
34920 Off ch=1 n=47 v=64
34920 Off ch=1 n=62 v=64
34920 Off ch=1 n=75 v=64
34920 Off ch=1 n=87 v=64
34920 Off ch=1 n=99 v=64
34920 Off ch=1 n=111 v=64
35040 On ch=1 n=24 v=100
35040 On ch=1 n=26 v=100
35040 On ch=1 n=31 v=100
35040 On ch=1 n=85 v=100
35040 On ch=1 n=86 v=100
35040 On ch=1 n=96 v=100
35040 On ch=1 n=97 v=100
35040 On ch=1 n=98 v=100
35160 Off ch=1 n=24 v=64
35160 Off ch=1 n=26 v=64
35160 Off ch=1 n=31 v=64
35160 Off ch=1 n=85 v=64
35160 Off ch=1 n=86 v=64
35160 Off ch=1 n=96 v=64
35160 Off ch=1 n=97 v=64
35160 Off ch=1 n=98 v=64
35280 On ch=1 n=49 v=100
35280 On ch=1 n=63 v=100
35280 On ch=1 n=75 v=100
35280 On ch=1 n=87 v=100
35280 On ch=1 n=99 v=100
35280 On ch=1 n=111 v=100
35400 Off ch=1 n=49 v=64
35400 Off ch=1 n=63 v=64
35400 Off ch=1 n=75 v=64
35400 Off ch=1 n=87 v=64
35400 Off ch=1 n=99 v=64
35400 Off ch=1 n=111 v=64
35520 On ch=1 n=24 v=100
35520 On ch=1 n=49 v=100
35520 On ch=1 n=63 v=100
35520 On ch=1 n=75 v=100
35520 On ch=1 n=87 v=100
35520 On ch=1 n=96 v=100
35520 On ch=1 n=99 v=100
35520 On ch=1 n=111 v=100
35640 Off ch=1 n=24 v=64
35640 Off ch=1 n=49 v=64
35640 Off ch=1 n=63 v=64
35640 Off ch=1 n=75 v=64
35640 Off ch=1 n=87 v=64
35640 Off ch=1 n=96 v=64
35640 Off ch=1 n=99 v=64
35640 Off ch=1 n=111 v=64
35760 On ch=1 n=30 v=100
35760 On ch=1 n=86 v=100
35760 On ch=1 n=98 v=100
35880 Off ch=1 n=30 v=64
35880 Off ch=1 n=86 v=64
35880 Off ch=1 n=98 v=64
36000 On ch=1 n=24 v=100
36000 On ch=1 n=26 v=100
36000 On ch=1 n=51 v=100
36000 On ch=1 n=64 v=100
36000 On ch=1 n=76 v=100
36000 On ch=1 n=88 v=100
36000 On ch=1 n=96 v=100
36000 On ch=1 n=97 v=100
36000 On ch=1 n=100 v=100
36000 On ch=1 n=112 v=100
36120 Off ch=1 n=24 v=64
36120 Off ch=1 n=26 v=64
36120 Off ch=1 n=51 v=64
36120 Off ch=1 n=64 v=64
36120 Off ch=1 n=76 v=64
36120 Off ch=1 n=88 v=64
36120 Off ch=1 n=96 v=64
36120 Off ch=1 n=97 v=64
36120 Off ch=1 n=100 v=64
36120 Off ch=1 n=112 v=64
36240 On ch=1 n=50 v=100
36240 On ch=1 n=64 v=100
36240 On ch=1 n=76 v=100
36240 On ch=1 n=88 v=100
36240 On ch=1 n=100 v=100
36240 On ch=1 n=112 v=100
36360 Off ch=1 n=50 v=64
36360 Off ch=1 n=64 v=64
36360 Off ch=1 n=76 v=64
36360 Off ch=1 n=88 v=64
36360 Off ch=1 n=100 v=64
36360 Off ch=1 n=112 v=64
36480 Off ch=1 n=120 v=64
36480 Off ch=1 n=121 v=64
36480 Off ch=1 n=122 v=64
36480 Off ch=1 n=123 v=64
36480 Off ch=1 n=124 v=64
36480 On ch=1 n=24 v=100
36480 On ch=1 n=38 v=100
36480 On ch=1 n=63 v=100
36480 On ch=1 n=72 v=100
36480 On ch=1 n=75 v=100
36480 On ch=1 n=84 v=100
36480 On ch=1 n=87 v=100
36480 On ch=1 n=96 v=100
36480 On ch=1 n=99 v=100
36480 On ch=1 n=116 v=100
36600 Off ch=1 n=24 v=64
36600 Off ch=1 n=38 v=64
36600 Off ch=1 n=63 v=64
36600 Off ch=1 n=72 v=64
36600 Off ch=1 n=75 v=64
36600 Off ch=1 n=84 v=64
36600 Off ch=1 n=87 v=64
36600 Off ch=1 n=96 v=64
36600 Off ch=1 n=99 v=64
36720 On ch=1 n=31 v=100
36720 On ch=1 n=86 v=100
36720 On ch=1 n=98 v=100
36840 Off ch=1 n=31 v=64
36840 Off ch=1 n=86 v=64
36840 Off ch=1 n=98 v=64
36960 On ch=1 n=24 v=100
36960 On ch=1 n=26 v=100
36960 On ch=1 n=31 v=100
36960 On ch=1 n=61 v=100
36960 On ch=1 n=62 v=100
36960 On ch=1 n=73 v=100
36960 On ch=1 n=74 v=100
36960 On ch=1 n=85 v=100
36960 On ch=1 n=86 v=100
36960 On ch=1 n=96 v=100
36960 On ch=1 n=97 v=100
36960 On ch=1 n=98 v=100
37080 Off ch=1 n=24 v=64
37080 Off ch=1 n=26 v=64
37080 Off ch=1 n=31 v=64
37080 Off ch=1 n=61 v=64
37080 Off ch=1 n=62 v=64
37080 Off ch=1 n=73 v=64
37080 Off ch=1 n=74 v=64
37080 Off ch=1 n=85 v=64
37080 Off ch=1 n=86 v=64
37080 Off ch=1 n=96 v=64
37080 Off ch=1 n=97 v=64
37080 Off ch=1 n=98 v=64
37200 On ch=1 n=31 v=100
37200 On ch=1 n=62 v=100
37200 On ch=1 n=74 v=100
37200 On ch=1 n=86 v=100
37200 On ch=1 n=98 v=100
37320 Off ch=1 n=31 v=64
37320 Off ch=1 n=62 v=64
37320 Off ch=1 n=74 v=64
37320 Off ch=1 n=86 v=64
37320 Off ch=1 n=98 v=64
37440 On ch=1 n=24 v=100
37440 On ch=1 n=31 v=100
37440 On ch=1 n=62 v=100
37440 On ch=1 n=74 v=100
37440 On ch=1 n=84 v=100
37440 On ch=1 n=86 v=100
37440 On ch=1 n=96 v=100
37440 On ch=1 n=98 v=100
37560 Off ch=1 n=24 v=64
37560 Off ch=1 n=31 v=64
37560 Off ch=1 n=62 v=64
37560 Off ch=1 n=74 v=64
37560 Off ch=1 n=84 v=64
37560 Off ch=1 n=86 v=64
37560 Off ch=1 n=96 v=64
37560 Off ch=1 n=98 v=64
37680 On ch=1 n=31 v=100
37680 On ch=1 n=62 v=100
37680 On ch=1 n=74 v=100
37680 On ch=1 n=86 v=100
37680 On ch=1 n=98 v=100
37800 Off ch=1 n=31 v=64
37800 Off ch=1 n=62 v=64
37800 Off ch=1 n=74 v=64
37800 Off ch=1 n=86 v=64
37800 Off ch=1 n=98 v=64
37920 On ch=1 n=24 v=100
37920 On ch=1 n=26 v=100
37920 On ch=1 n=31 v=100
37920 On ch=1 n=61 v=100
37920 On ch=1 n=62 v=100
37920 On ch=1 n=73 v=100
37920 On ch=1 n=74 v=100
37920 On ch=1 n=85 v=100
37920 On ch=1 n=86 v=100
37920 On ch=1 n=96 v=100
37920 On ch=1 n=97 v=100
37920 On ch=1 n=98 v=100
38040 Off ch=1 n=24 v=64
38040 Off ch=1 n=26 v=64
38040 Off ch=1 n=31 v=64
38040 Off ch=1 n=61 v=64
38040 Off ch=1 n=62 v=64
38040 Off ch=1 n=73 v=64
38040 Off ch=1 n=74 v=64
38040 Off ch=1 n=85 v=64
38040 Off ch=1 n=86 v=64
38040 Off ch=1 n=96 v=64
38040 Off ch=1 n=97 v=64
38040 Off ch=1 n=98 v=64
38160 On ch=1 n=31 v=100
38160 On ch=1 n=62 v=100
38160 On ch=1 n=74 v=100
38160 On ch=1 n=86 v=100
38160 On ch=1 n=98 v=100
38280 Off ch=1 n=31 v=64
38280 Off ch=1 n=62 v=64
38280 Off ch=1 n=74 v=64
38280 Off ch=1 n=86 v=64
38280 Off ch=1 n=98 v=64
38400 On ch=1 n=24 v=100
38400 On ch=1 n=31 v=100
38400 On ch=1 n=62 v=100
38400 On ch=1 n=72 v=100
38400 On ch=1 n=74 v=100
38400 On ch=1 n=84 v=100
38400 On ch=1 n=86 v=100
38400 On ch=1 n=96 v=100
38400 On ch=1 n=98 v=100
38520 Off ch=1 n=24 v=64
38520 Off ch=1 n=31 v=64
38520 Off ch=1 n=62 v=64
38520 Off ch=1 n=72 v=64
38520 Off ch=1 n=74 v=64
38520 Off ch=1 n=84 v=64
38520 Off ch=1 n=86 v=64
38520 Off ch=1 n=96 v=64
38520 Off ch=1 n=98 v=64
38640 On ch=1 n=31 v=100
38640 On ch=1 n=62 v=100
38640 On ch=1 n=74 v=100
38640 On ch=1 n=86 v=100
38640 On ch=1 n=98 v=100
38760 Off ch=1 n=31 v=64
38760 Off ch=1 n=62 v=64
38760 Off ch=1 n=74 v=64
38760 Off ch=1 n=86 v=64
38760 Off ch=1 n=98 v=64
38880 On ch=1 n=24 v=100
38880 On ch=1 n=26 v=100
38880 On ch=1 n=31 v=100
38880 On ch=1 n=61 v=100
38880 On ch=1 n=62 v=100
38880 On ch=1 n=73 v=100
38880 On ch=1 n=74 v=100
38880 On ch=1 n=85 v=100
38880 On ch=1 n=86 v=100
38880 On ch=1 n=96 v=100
38880 On ch=1 n=97 v=100
38880 On ch=1 n=98 v=100
39000 Off ch=1 n=116 v=64
39000 Off ch=1 n=24 v=64
39000 Off ch=1 n=26 v=64
39000 Off ch=1 n=31 v=64
39000 Off ch=1 n=61 v=64
39000 Off ch=1 n=62 v=64
39000 Off ch=1 n=73 v=64
39000 Off ch=1 n=74 v=64
39000 Off ch=1 n=85 v=64
39000 Off ch=1 n=86 v=64
39000 Off ch=1 n=96 v=64
39000 Off ch=1 n=97 v=64
39000 Off ch=1 n=98 v=64
39120 On ch=1 n=31 v=100
39120 On ch=1 n=62 v=100
39120 On ch=1 n=74 v=100
39120 On ch=1 n=86 v=100
39120 On ch=1 n=98 v=100
39240 Off ch=1 n=31 v=64
39240 Off ch=1 n=62 v=64
39240 Off ch=1 n=74 v=64
39240 Off ch=1 n=86 v=64
39240 Off ch=1 n=98 v=64
39360 On ch=1 n=24 v=100
39360 On ch=1 n=31 v=100
39360 On ch=1 n=62 v=100
39360 On ch=1 n=74 v=100
39360 On ch=1 n=84 v=100
39360 On ch=1 n=86 v=100
39360 On ch=1 n=96 v=100
39360 On ch=1 n=98 v=100
39480 Off ch=1 n=24 v=64
39480 Off ch=1 n=31 v=64
39480 Off ch=1 n=62 v=64
39480 Off ch=1 n=74 v=64
39480 Off ch=1 n=84 v=64
39480 Off ch=1 n=86 v=64
39480 Off ch=1 n=96 v=64
39480 Off ch=1 n=98 v=64
39600 On ch=1 n=31 v=100
39600 On ch=1 n=62 v=100
39600 On ch=1 n=74 v=100
39600 On ch=1 n=86 v=100
39600 On ch=1 n=98 v=100
39720 Off ch=1 n=31 v=64
39720 Off ch=1 n=62 v=64
39720 Off ch=1 n=74 v=64
39720 Off ch=1 n=86 v=64
39720 Off ch=1 n=98 v=64
39840 On ch=1 n=24 v=100
39840 On ch=1 n=26 v=100
39840 On ch=1 n=31 v=100
39840 On ch=1 n=61 v=100
39840 On ch=1 n=62 v=100
39840 On ch=1 n=73 v=100
39840 On ch=1 n=74 v=100
39840 On ch=1 n=85 v=100
39840 On ch=1 n=86 v=100
39840 On ch=1 n=96 v=100
39840 On ch=1 n=97 v=100
39840 On ch=1 n=98 v=100
39960 Off ch=1 n=24 v=64
39960 Off ch=1 n=26 v=64
39960 Off ch=1 n=31 v=64
39960 Off ch=1 n=61 v=64
39960 Off ch=1 n=62 v=64
39960 Off ch=1 n=73 v=64
39960 Off ch=1 n=74 v=64
39960 Off ch=1 n=85 v=64
39960 Off ch=1 n=86 v=64
39960 Off ch=1 n=96 v=64
39960 Off ch=1 n=97 v=64
39960 Off ch=1 n=98 v=64
40080 On ch=1 n=31 v=100
40080 On ch=1 n=62 v=100
40080 On ch=1 n=74 v=100
40080 On ch=1 n=86 v=100
40080 On ch=1 n=98 v=100
40200 Off ch=1 n=31 v=64
40200 Off ch=1 n=62 v=64
40200 Off ch=1 n=74 v=64
40200 Off ch=1 n=86 v=64
40200 Off ch=1 n=98 v=64
40320 Off ch=1 n=105 v=64
40320 On ch=1 n=12 v=100
40320 On ch=1 n=24 v=100
40320 On ch=1 n=31 v=100
40320 On ch=1 n=62 v=100
40320 On ch=1 n=72 v=100
40320 On ch=1 n=74 v=100
40320 On ch=1 n=84 v=100
40320 On ch=1 n=86 v=100
40320 On ch=1 n=96 v=100
40320 On ch=1 n=98 v=100
40440 Off ch=1 n=12 v=64
40440 Off ch=1 n=24 v=64
40440 Off ch=1 n=31 v=64
40440 Off ch=1 n=62 v=64
40440 Off ch=1 n=72 v=64
40440 Off ch=1 n=74 v=64
40440 Off ch=1 n=84 v=64
40440 Off ch=1 n=86 v=64
40440 Off ch=1 n=96 v=64
40440 Off ch=1 n=98 v=64
40560 On ch=1 n=31 v=100
40560 On ch=1 n=62 v=100
40560 On ch=1 n=74 v=100
40560 On ch=1 n=86 v=100
40560 On ch=1 n=98 v=100
40680 Off ch=1 n=31 v=64
40680 Off ch=1 n=62 v=64
40680 Off ch=1 n=74 v=64
40680 Off ch=1 n=86 v=64
40680 Off ch=1 n=98 v=64
40800 On ch=1 n=24 v=100
40800 On ch=1 n=26 v=100
40800 On ch=1 n=31 v=100
40800 On ch=1 n=61 v=100
40800 On ch=1 n=62 v=100
40800 On ch=1 n=73 v=100
40800 On ch=1 n=74 v=100
40800 On ch=1 n=85 v=100
40800 On ch=1 n=86 v=100
40800 On ch=1 n=96 v=100
40800 On ch=1 n=97 v=100
40800 On ch=1 n=98 v=100
40920 Off ch=1 n=24 v=64
40920 Off ch=1 n=26 v=64
40920 Off ch=1 n=31 v=64
40920 Off ch=1 n=61 v=64
40920 Off ch=1 n=62 v=64
40920 Off ch=1 n=73 v=64
40920 Off ch=1 n=74 v=64
40920 Off ch=1 n=85 v=64
40920 Off ch=1 n=86 v=64
40920 Off ch=1 n=96 v=64
40920 Off ch=1 n=97 v=64
40920 Off ch=1 n=98 v=64
41040 On ch=1 n=31 v=100
41040 On ch=1 n=62 v=100
41040 On ch=1 n=74 v=100
41040 On ch=1 n=86 v=100
41040 On ch=1 n=98 v=100
41160 Off ch=1 n=31 v=64
41160 Off ch=1 n=62 v=64
41160 Off ch=1 n=74 v=64
41160 Off ch=1 n=86 v=64
41160 Off ch=1 n=98 v=64
41280 On ch=1 n=24 v=100
41280 On ch=1 n=31 v=100
41280 On ch=1 n=62 v=100
41280 On ch=1 n=74 v=100
41280 On ch=1 n=84 v=100
41280 On ch=1 n=86 v=100
41280 On ch=1 n=96 v=100
41280 On ch=1 n=98 v=100
41400 Off ch=1 n=24 v=64
41400 Off ch=1 n=31 v=64
41400 Off ch=1 n=62 v=64
41400 Off ch=1 n=74 v=64
41400 Off ch=1 n=84 v=64
41400 Off ch=1 n=86 v=64
41400 Off ch=1 n=96 v=64
41400 Off ch=1 n=98 v=64
41520 On ch=1 n=31 v=100
41520 On ch=1 n=62 v=100
41520 On ch=1 n=74 v=100
41520 On ch=1 n=86 v=100
41520 On ch=1 n=98 v=100
41640 Off ch=1 n=31 v=64
41640 Off ch=1 n=62 v=64
41640 Off ch=1 n=74 v=64
41640 Off ch=1 n=86 v=64
41640 Off ch=1 n=98 v=64
41760 On ch=1 n=24 v=100
41760 On ch=1 n=26 v=100
41760 On ch=1 n=31 v=100
41760 On ch=1 n=61 v=100
41760 On ch=1 n=62 v=100
41760 On ch=1 n=73 v=100
41760 On ch=1 n=74 v=100
41760 On ch=1 n=85 v=100
41760 On ch=1 n=86 v=100
41760 On ch=1 n=96 v=100
41760 On ch=1 n=97 v=100
41760 On ch=1 n=98 v=100
41880 Off ch=1 n=24 v=64
41880 Off ch=1 n=26 v=64
41880 Off ch=1 n=31 v=64
41880 Off ch=1 n=61 v=64
41880 Off ch=1 n=62 v=64
41880 Off ch=1 n=73 v=64
41880 Off ch=1 n=74 v=64
41880 Off ch=1 n=85 v=64
41880 Off ch=1 n=86 v=64
41880 Off ch=1 n=96 v=64
41880 Off ch=1 n=97 v=64
41880 Off ch=1 n=98 v=64
42000 On ch=1 n=31 v=100
42000 On ch=1 n=62 v=100
42000 On ch=1 n=74 v=100
42000 On ch=1 n=86 v=100
42000 On ch=1 n=98 v=100
42120 Off ch=1 n=31 v=64
42120 Off ch=1 n=62 v=64
42120 Off ch=1 n=74 v=64
42120 Off ch=1 n=86 v=64
42120 Off ch=1 n=98 v=64
42240 On ch=1 n=24 v=100
42240 On ch=1 n=31 v=100
42240 On ch=1 n=62 v=100
42240 On ch=1 n=72 v=100
42240 On ch=1 n=74 v=100
42240 On ch=1 n=84 v=100
42240 On ch=1 n=86 v=100
42240 On ch=1 n=96 v=100
42240 On ch=1 n=98 v=100
42240 On ch=1 n=105 v=100
42240 On ch=1 n=120 v=100
42240 On ch=1 n=121 v=100
42240 On ch=1 n=122 v=100
42240 On ch=1 n=123 v=100
42240 On ch=1 n=124 v=100
42360 Off ch=1 n=24 v=64
42360 Off ch=1 n=31 v=64
42360 Off ch=1 n=62 v=64
42360 Off ch=1 n=72 v=64
42360 Off ch=1 n=74 v=64
42360 Off ch=1 n=84 v=64
42360 Off ch=1 n=86 v=64
42360 Off ch=1 n=96 v=64
42360 Off ch=1 n=98 v=64
42480 On ch=1 n=31 v=100
42480 On ch=1 n=62 v=100
42480 On ch=1 n=74 v=100
42480 On ch=1 n=86 v=100
42480 On ch=1 n=98 v=100
42600 Off ch=1 n=31 v=64
42600 Off ch=1 n=62 v=64
42600 Off ch=1 n=74 v=64
42600 Off ch=1 n=86 v=64
42600 Off ch=1 n=98 v=64
42720 On ch=1 n=24 v=100
42720 On ch=1 n=26 v=100
42720 On ch=1 n=31 v=100
42720 On ch=1 n=61 v=100
42720 On ch=1 n=62 v=100
42720 On ch=1 n=73 v=100
42720 On ch=1 n=74 v=100
42720 On ch=1 n=85 v=100
42720 On ch=1 n=86 v=100
42720 On ch=1 n=96 v=100
42720 On ch=1 n=97 v=100
42720 On ch=1 n=98 v=100
42840 Off ch=1 n=24 v=64
42840 Off ch=1 n=26 v=64
42840 Off ch=1 n=31 v=64
42840 Off ch=1 n=61 v=64
42840 Off ch=1 n=62 v=64
42840 Off ch=1 n=73 v=64
42840 Off ch=1 n=74 v=64
42840 Off ch=1 n=85 v=64
42840 Off ch=1 n=86 v=64
42840 Off ch=1 n=96 v=64
42840 Off ch=1 n=97 v=64
42840 Off ch=1 n=98 v=64
42960 On ch=1 n=31 v=100
42960 On ch=1 n=62 v=100
42960 On ch=1 n=74 v=100
42960 On ch=1 n=86 v=100
42960 On ch=1 n=98 v=100
43080 Off ch=1 n=31 v=64
43080 Off ch=1 n=62 v=64
43080 Off ch=1 n=74 v=64
43080 Off ch=1 n=86 v=64
43080 Off ch=1 n=98 v=64
43200 On ch=1 n=24 v=100
43200 On ch=1 n=31 v=100
43200 On ch=1 n=62 v=100
43200 On ch=1 n=74 v=100
43200 On ch=1 n=84 v=100
43200 On ch=1 n=86 v=100
43200 On ch=1 n=96 v=100
43200 On ch=1 n=98 v=100
43320 Off ch=1 n=24 v=64
43320 Off ch=1 n=31 v=64
43320 Off ch=1 n=62 v=64
43320 Off ch=1 n=74 v=64
43320 Off ch=1 n=84 v=64
43320 Off ch=1 n=86 v=64
43320 Off ch=1 n=96 v=64
43320 Off ch=1 n=98 v=64
43440 On ch=1 n=31 v=100
43440 On ch=1 n=62 v=100
43440 On ch=1 n=74 v=100
43440 On ch=1 n=86 v=100
43440 On ch=1 n=98 v=100
43560 Off ch=1 n=31 v=64
43560 Off ch=1 n=62 v=64
43560 Off ch=1 n=74 v=64
43560 Off ch=1 n=86 v=64
43560 Off ch=1 n=98 v=64
43680 On ch=1 n=24 v=100
43680 On ch=1 n=26 v=100
43680 On ch=1 n=31 v=100
43680 On ch=1 n=61 v=100
43680 On ch=1 n=62 v=100
43680 On ch=1 n=73 v=100
43680 On ch=1 n=74 v=100
43680 On ch=1 n=85 v=100
43680 On ch=1 n=86 v=100
43680 On ch=1 n=96 v=100
43680 On ch=1 n=97 v=100
43680 On ch=1 n=98 v=100
43800 Off ch=1 n=24 v=64
43800 Off ch=1 n=26 v=64
43800 Off ch=1 n=31 v=64
43800 Off ch=1 n=61 v=64
43800 Off ch=1 n=62 v=64
43800 Off ch=1 n=73 v=64
43800 Off ch=1 n=74 v=64
43800 Off ch=1 n=85 v=64
43800 Off ch=1 n=86 v=64
43800 Off ch=1 n=96 v=64
43800 Off ch=1 n=97 v=64
43800 Off ch=1 n=98 v=64
43920 On ch=1 n=31 v=100
43920 On ch=1 n=62 v=100
43920 On ch=1 n=74 v=100
43920 On ch=1 n=86 v=100
43920 On ch=1 n=98 v=100
44040 Off ch=1 n=31 v=64
44040 Off ch=1 n=62 v=64
44040 Off ch=1 n=74 v=64
44040 Off ch=1 n=86 v=64
44040 Off ch=1 n=98 v=64
44160 Off ch=1 n=106 v=64
44160 Off ch=1 n=120 v=64
44160 Off ch=1 n=121 v=64
44160 Off ch=1 n=122 v=64
44160 Off ch=1 n=123 v=64
44160 Off ch=1 n=124 v=64
44160 On ch=1 n=12 v=100
44160 On ch=1 n=24 v=100
44160 On ch=1 n=31 v=100
44160 On ch=1 n=62 v=100
44160 On ch=1 n=72 v=100
44160 On ch=1 n=74 v=100
44160 On ch=1 n=84 v=100
44160 On ch=1 n=86 v=100
44160 On ch=1 n=96 v=100
44160 On ch=1 n=98 v=100
44280 Off ch=1 n=12 v=64
44280 Off ch=1 n=24 v=64
44280 Off ch=1 n=31 v=64
44280 Off ch=1 n=62 v=64
44280 Off ch=1 n=72 v=64
44280 Off ch=1 n=74 v=64
44280 Off ch=1 n=84 v=64
44280 Off ch=1 n=86 v=64
44280 Off ch=1 n=96 v=64
44280 Off ch=1 n=98 v=64
44400 On ch=1 n=31 v=100
44400 On ch=1 n=62 v=100
44400 On ch=1 n=74 v=100
44400 On ch=1 n=86 v=100
44400 On ch=1 n=98 v=100
44520 Off ch=1 n=31 v=64
44520 Off ch=1 n=62 v=64
44520 Off ch=1 n=74 v=64
44520 Off ch=1 n=86 v=64
44520 Off ch=1 n=98 v=64
44640 On ch=1 n=24 v=100
44640 On ch=1 n=26 v=100
44640 On ch=1 n=31 v=100
44640 On ch=1 n=61 v=100
44640 On ch=1 n=62 v=100
44640 On ch=1 n=73 v=100
44640 On ch=1 n=74 v=100
44640 On ch=1 n=85 v=100
44640 On ch=1 n=86 v=100
44640 On ch=1 n=96 v=100
44640 On ch=1 n=97 v=100
44640 On ch=1 n=98 v=100
44760 Off ch=1 n=24 v=64
44760 Off ch=1 n=26 v=64
44760 Off ch=1 n=31 v=64
44760 Off ch=1 n=61 v=64
44760 Off ch=1 n=62 v=64
44760 Off ch=1 n=73 v=64
44760 Off ch=1 n=74 v=64
44760 Off ch=1 n=85 v=64
44760 Off ch=1 n=86 v=64
44760 Off ch=1 n=96 v=64
44760 Off ch=1 n=97 v=64
44760 Off ch=1 n=98 v=64
44880 On ch=1 n=31 v=100
44880 On ch=1 n=62 v=100
44880 On ch=1 n=74 v=100
44880 On ch=1 n=86 v=100
44880 On ch=1 n=98 v=100
45000 Off ch=1 n=31 v=64
45000 Off ch=1 n=62 v=64
45000 Off ch=1 n=74 v=64
45000 Off ch=1 n=86 v=64
45000 Off ch=1 n=98 v=64
45120 On ch=1 n=24 v=100
45120 On ch=1 n=31 v=100
45120 On ch=1 n=62 v=100
45120 On ch=1 n=74 v=100
45120 On ch=1 n=84 v=100
45120 On ch=1 n=86 v=100
45120 On ch=1 n=96 v=100
45120 On ch=1 n=98 v=100
45240 Off ch=1 n=24 v=64
45240 Off ch=1 n=31 v=64
45240 Off ch=1 n=62 v=64
45240 Off ch=1 n=74 v=64
45240 Off ch=1 n=84 v=64
45240 Off ch=1 n=86 v=64
45240 Off ch=1 n=96 v=64
45240 Off ch=1 n=98 v=64
45360 On ch=1 n=31 v=100
45360 On ch=1 n=62 v=100
45360 On ch=1 n=74 v=100
45360 On ch=1 n=86 v=100
45360 On ch=1 n=98 v=100
45480 Off ch=1 n=31 v=64
45480 Off ch=1 n=62 v=64
45480 Off ch=1 n=74 v=64
45480 Off ch=1 n=86 v=64
45480 Off ch=1 n=98 v=64
45600 On ch=1 n=24 v=100
45600 On ch=1 n=26 v=100
45600 On ch=1 n=31 v=100
45600 On ch=1 n=61 v=100
45600 On ch=1 n=62 v=100
45600 On ch=1 n=73 v=100
45600 On ch=1 n=74 v=100
45600 On ch=1 n=85 v=100
45600 On ch=1 n=86 v=100
45600 On ch=1 n=96 v=100
45600 On ch=1 n=97 v=100
45600 On ch=1 n=98 v=100
45720 Off ch=1 n=24 v=64
45720 Off ch=1 n=26 v=64
45720 Off ch=1 n=31 v=64
45720 Off ch=1 n=61 v=64
45720 Off ch=1 n=62 v=64
45720 Off ch=1 n=73 v=64
45720 Off ch=1 n=74 v=64
45720 Off ch=1 n=85 v=64
45720 Off ch=1 n=86 v=64
45720 Off ch=1 n=96 v=64
45720 Off ch=1 n=97 v=64
45720 Off ch=1 n=98 v=64
45840 On ch=1 n=31 v=100
45840 On ch=1 n=62 v=100
45840 On ch=1 n=74 v=100
45840 On ch=1 n=86 v=100
45840 On ch=1 n=98 v=100
45960 Off ch=1 n=31 v=64
45960 Off ch=1 n=62 v=64
45960 Off ch=1 n=74 v=64
45960 Off ch=1 n=86 v=64
45960 Off ch=1 n=98 v=64
46080 Off ch=1 n=105 v=64
46080 On ch=1 n=24 v=100
46080 On ch=1 n=31 v=100
46080 On ch=1 n=62 v=100
46080 On ch=1 n=72 v=100
46080 On ch=1 n=74 v=100
46080 On ch=1 n=84 v=100
46080 On ch=1 n=86 v=100
46080 On ch=1 n=96 v=100
46080 On ch=1 n=98 v=100
46080 On ch=1 n=106 v=100
46080 On ch=1 n=116 v=100
46200 Off ch=1 n=24 v=64
46200 Off ch=1 n=31 v=64
46200 Off ch=1 n=62 v=64
46200 Off ch=1 n=72 v=64
46200 Off ch=1 n=74 v=64
46200 Off ch=1 n=84 v=64
46200 Off ch=1 n=86 v=64
46200 Off ch=1 n=96 v=64
46200 Off ch=1 n=98 v=64
46320 On ch=1 n=31 v=100
46320 On ch=1 n=62 v=100
46320 On ch=1 n=74 v=100
46320 On ch=1 n=86 v=100
46320 On ch=1 n=98 v=100
46440 Off ch=1 n=31 v=64
46440 Off ch=1 n=62 v=64
46440 Off ch=1 n=74 v=64
46440 Off ch=1 n=86 v=64
46440 Off ch=1 n=98 v=64
46560 On ch=1 n=24 v=100
46560 On ch=1 n=26 v=100
46560 On ch=1 n=31 v=100
46560 On ch=1 n=61 v=100
46560 On ch=1 n=62 v=100
46560 On ch=1 n=73 v=100
46560 On ch=1 n=74 v=100
46560 On ch=1 n=85 v=100
46560 On ch=1 n=86 v=100
46560 On ch=1 n=96 v=100
46560 On ch=1 n=97 v=100
46560 On ch=1 n=98 v=100
46680 Off ch=1 n=24 v=64
46680 Off ch=1 n=26 v=64
46680 Off ch=1 n=31 v=64
46680 Off ch=1 n=61 v=64
46680 Off ch=1 n=62 v=64
46680 Off ch=1 n=73 v=64
46680 Off ch=1 n=74 v=64
46680 Off ch=1 n=85 v=64
46680 Off ch=1 n=86 v=64
46680 Off ch=1 n=96 v=64
46680 Off ch=1 n=97 v=64
46680 Off ch=1 n=98 v=64
46800 On ch=1 n=31 v=100
46800 On ch=1 n=62 v=100
46800 On ch=1 n=74 v=100
46800 On ch=1 n=86 v=100
46800 On ch=1 n=98 v=100
46920 Off ch=1 n=31 v=64
46920 Off ch=1 n=62 v=64
46920 Off ch=1 n=74 v=64
46920 Off ch=1 n=86 v=64
46920 Off ch=1 n=98 v=64
47040 On ch=1 n=24 v=100
47040 On ch=1 n=31 v=100
47040 On ch=1 n=62 v=100
47040 On ch=1 n=74 v=100
47040 On ch=1 n=84 v=100
47040 On ch=1 n=86 v=100
47040 On ch=1 n=96 v=100
47040 On ch=1 n=98 v=100
47160 Off ch=1 n=24 v=64
47160 Off ch=1 n=31 v=64
47160 Off ch=1 n=62 v=64
47160 Off ch=1 n=74 v=64
47160 Off ch=1 n=84 v=64
47160 Off ch=1 n=86 v=64
47160 Off ch=1 n=96 v=64
47160 Off ch=1 n=98 v=64
47280 On ch=1 n=31 v=100
47280 On ch=1 n=62 v=100
47280 On ch=1 n=74 v=100
47280 On ch=1 n=86 v=100
47280 On ch=1 n=98 v=100
47400 Off ch=1 n=31 v=64
47400 Off ch=1 n=62 v=64
47400 Off ch=1 n=74 v=64
47400 Off ch=1 n=86 v=64
47400 Off ch=1 n=98 v=64
47520 On ch=1 n=24 v=100
47520 On ch=1 n=26 v=100
47520 On ch=1 n=31 v=100
47520 On ch=1 n=61 v=100
47520 On ch=1 n=62 v=100
47520 On ch=1 n=73 v=100
47520 On ch=1 n=74 v=100
47520 On ch=1 n=85 v=100
47520 On ch=1 n=86 v=100
47520 On ch=1 n=96 v=100
47520 On ch=1 n=97 v=100
47520 On ch=1 n=98 v=100
47640 Off ch=1 n=24 v=64
47640 Off ch=1 n=26 v=64
47640 Off ch=1 n=31 v=64
47640 Off ch=1 n=61 v=64
47640 Off ch=1 n=62 v=64
47640 Off ch=1 n=73 v=64
47640 Off ch=1 n=74 v=64
47640 Off ch=1 n=85 v=64
47640 Off ch=1 n=86 v=64
47640 Off ch=1 n=96 v=64
47640 Off ch=1 n=97 v=64
47640 Off ch=1 n=98 v=64
47760 On ch=1 n=31 v=100
47760 On ch=1 n=62 v=100
47760 On ch=1 n=74 v=100
47760 On ch=1 n=86 v=100
47760 On ch=1 n=98 v=100
47880 Off ch=1 n=31 v=64
47880 Off ch=1 n=62 v=64
47880 Off ch=1 n=74 v=64
47880 Off ch=1 n=86 v=64
47880 Off ch=1 n=98 v=64
48000 Off ch=1 n=106 v=64
48000 Off ch=1 n=116 v=64
48000 On ch=1 n=24 v=100
48000 On ch=1 n=31 v=100
48000 On ch=1 n=62 v=100
48000 On ch=1 n=72 v=100
48000 On ch=1 n=74 v=100
48000 On ch=1 n=84 v=100
48000 On ch=1 n=86 v=100
48000 On ch=1 n=96 v=100
48000 On ch=1 n=98 v=100
48000 On ch=1 n=105 v=100
48120 Off ch=1 n=24 v=64
48120 Off ch=1 n=31 v=64
48120 Off ch=1 n=62 v=64
48120 Off ch=1 n=72 v=64
48120 Off ch=1 n=74 v=64
48120 Off ch=1 n=84 v=64
48120 Off ch=1 n=86 v=64
48120 Off ch=1 n=96 v=64
48120 Off ch=1 n=98 v=64
48240 On ch=1 n=31 v=100
48240 On ch=1 n=62 v=100
48240 On ch=1 n=74 v=100
48240 On ch=1 n=86 v=100
48240 On ch=1 n=98 v=100
48360 Off ch=1 n=31 v=64
48360 Off ch=1 n=62 v=64
48360 Off ch=1 n=74 v=64
48360 Off ch=1 n=86 v=64
48360 Off ch=1 n=98 v=64
48480 On ch=1 n=24 v=100
48480 On ch=1 n=26 v=100
48480 On ch=1 n=31 v=100
48480 On ch=1 n=61 v=100
48480 On ch=1 n=62 v=100
48480 On ch=1 n=73 v=100
48480 On ch=1 n=74 v=100
48480 On ch=1 n=85 v=100
48480 On ch=1 n=86 v=100
48480 On ch=1 n=96 v=100
48480 On ch=1 n=97 v=100
48480 On ch=1 n=98 v=100
48600 Off ch=1 n=24 v=64
48600 Off ch=1 n=26 v=64
48600 Off ch=1 n=31 v=64
48600 Off ch=1 n=61 v=64
48600 Off ch=1 n=62 v=64
48600 Off ch=1 n=73 v=64
48600 Off ch=1 n=74 v=64
48600 Off ch=1 n=85 v=64
48600 Off ch=1 n=86 v=64
48600 Off ch=1 n=96 v=64
48600 Off ch=1 n=97 v=64
48600 Off ch=1 n=98 v=64
48720 On ch=1 n=31 v=100
48720 On ch=1 n=62 v=100
48720 On ch=1 n=74 v=100
48720 On ch=1 n=86 v=100
48720 On ch=1 n=98 v=100
48840 Off ch=1 n=31 v=64
48840 Off ch=1 n=62 v=64
48840 Off ch=1 n=74 v=64
48840 Off ch=1 n=86 v=64
48840 Off ch=1 n=98 v=64
48960 On ch=1 n=24 v=100
48960 On ch=1 n=31 v=100
48960 On ch=1 n=62 v=100
48960 On ch=1 n=74 v=100
48960 On ch=1 n=84 v=100
48960 On ch=1 n=86 v=100
48960 On ch=1 n=96 v=100
48960 On ch=1 n=98 v=100
49080 Off ch=1 n=24 v=64
49080 Off ch=1 n=31 v=64
49080 Off ch=1 n=62 v=64
49080 Off ch=1 n=74 v=64
49080 Off ch=1 n=84 v=64
49080 Off ch=1 n=86 v=64
49080 Off ch=1 n=96 v=64
49080 Off ch=1 n=98 v=64
49200 On ch=1 n=31 v=100
49200 On ch=1 n=62 v=100
49200 On ch=1 n=74 v=100
49200 On ch=1 n=86 v=100
49200 On ch=1 n=98 v=100
49320 Off ch=1 n=31 v=64
49320 Off ch=1 n=62 v=64
49320 Off ch=1 n=74 v=64
49320 Off ch=1 n=86 v=64
49320 Off ch=1 n=98 v=64
49440 On ch=1 n=24 v=100
49440 On ch=1 n=26 v=100
49440 On ch=1 n=31 v=100
49440 On ch=1 n=61 v=100
49440 On ch=1 n=62 v=100
49440 On ch=1 n=73 v=100
49440 On ch=1 n=74 v=100
49440 On ch=1 n=85 v=100
49440 On ch=1 n=86 v=100
49440 On ch=1 n=96 v=100
49440 On ch=1 n=97 v=100
49440 On ch=1 n=98 v=100
49560 Off ch=1 n=24 v=64
49560 Off ch=1 n=26 v=64
49560 Off ch=1 n=31 v=64
49560 Off ch=1 n=61 v=64
49560 Off ch=1 n=62 v=64
49560 Off ch=1 n=73 v=64
49560 Off ch=1 n=74 v=64
49560 Off ch=1 n=85 v=64
49560 Off ch=1 n=86 v=64
49560 Off ch=1 n=96 v=64
49560 Off ch=1 n=97 v=64
49560 Off ch=1 n=98 v=64
49680 On ch=1 n=31 v=100
49680 On ch=1 n=62 v=100
49680 On ch=1 n=74 v=100
49680 On ch=1 n=86 v=100
49680 On ch=1 n=98 v=100
49800 Off ch=1 n=31 v=64
49800 Off ch=1 n=62 v=64
49800 Off ch=1 n=74 v=64
49800 Off ch=1 n=86 v=64
49800 Off ch=1 n=98 v=64
49920 Off ch=1 n=105 v=64
49920 On ch=1 n=24 v=100
49920 On ch=1 n=31 v=100
49920 On ch=1 n=62 v=100
49920 On ch=1 n=72 v=100
49920 On ch=1 n=74 v=100
49920 On ch=1 n=84 v=100
49920 On ch=1 n=86 v=100
49920 On ch=1 n=96 v=100
49920 On ch=1 n=98 v=100
49920 On ch=1 n=106 v=100
49920 On ch=1 n=120 v=100
49920 On ch=1 n=121 v=100
49920 On ch=1 n=122 v=100
49920 On ch=1 n=123 v=100
49920 On ch=1 n=124 v=100
50040 Off ch=1 n=24 v=64
50040 Off ch=1 n=31 v=64
50040 Off ch=1 n=62 v=64
50040 Off ch=1 n=72 v=64
50040 Off ch=1 n=74 v=64
50040 Off ch=1 n=84 v=64
50040 Off ch=1 n=86 v=64
50040 Off ch=1 n=96 v=64
50040 Off ch=1 n=98 v=64
50160 On ch=1 n=31 v=100
50160 On ch=1 n=62 v=100
50160 On ch=1 n=74 v=100
50160 On ch=1 n=86 v=100
50160 On ch=1 n=98 v=100
50280 Off ch=1 n=31 v=64
50280 Off ch=1 n=62 v=64
50280 Off ch=1 n=74 v=64
50280 Off ch=1 n=86 v=64
50280 Off ch=1 n=98 v=64
50400 On ch=1 n=24 v=100
50400 On ch=1 n=26 v=100
50400 On ch=1 n=31 v=100
50400 On ch=1 n=61 v=100
50400 On ch=1 n=62 v=100
50400 On ch=1 n=73 v=100
50400 On ch=1 n=74 v=100
50400 On ch=1 n=85 v=100
50400 On ch=1 n=86 v=100
50400 On ch=1 n=96 v=100
50400 On ch=1 n=97 v=100
50400 On ch=1 n=98 v=100
50520 Off ch=1 n=24 v=64
50520 Off ch=1 n=26 v=64
50520 Off ch=1 n=31 v=64
50520 Off ch=1 n=61 v=64
50520 Off ch=1 n=62 v=64
50520 Off ch=1 n=73 v=64
50520 Off ch=1 n=74 v=64
50520 Off ch=1 n=85 v=64
50520 Off ch=1 n=86 v=64
50520 Off ch=1 n=96 v=64
50520 Off ch=1 n=97 v=64
50520 Off ch=1 n=98 v=64
50640 On ch=1 n=31 v=100
50640 On ch=1 n=62 v=100
50640 On ch=1 n=74 v=100
50640 On ch=1 n=86 v=100
50640 On ch=1 n=98 v=100
50760 Off ch=1 n=31 v=64
50760 Off ch=1 n=62 v=64
50760 Off ch=1 n=74 v=64
50760 Off ch=1 n=86 v=64
50760 Off ch=1 n=98 v=64
50880 On ch=1 n=24 v=100
50880 On ch=1 n=31 v=100
50880 On ch=1 n=62 v=100
50880 On ch=1 n=74 v=100
50880 On ch=1 n=84 v=100
50880 On ch=1 n=86 v=100
50880 On ch=1 n=96 v=100
50880 On ch=1 n=98 v=100
51000 Off ch=1 n=24 v=64
51000 Off ch=1 n=31 v=64
51000 Off ch=1 n=62 v=64
51000 Off ch=1 n=74 v=64
51000 Off ch=1 n=84 v=64
51000 Off ch=1 n=86 v=64
51000 Off ch=1 n=96 v=64
51000 Off ch=1 n=98 v=64
51120 On ch=1 n=31 v=100
51120 On ch=1 n=62 v=100
51120 On ch=1 n=74 v=100
51120 On ch=1 n=86 v=100
51120 On ch=1 n=98 v=100
51240 Off ch=1 n=31 v=64
51240 Off ch=1 n=62 v=64
51240 Off ch=1 n=74 v=64
51240 Off ch=1 n=86 v=64
51240 Off ch=1 n=98 v=64
51360 On ch=1 n=24 v=100
51360 On ch=1 n=26 v=100
51360 On ch=1 n=31 v=100
51360 On ch=1 n=61 v=100
51360 On ch=1 n=62 v=100
51360 On ch=1 n=73 v=100
51360 On ch=1 n=74 v=100
51360 On ch=1 n=85 v=100
51360 On ch=1 n=86 v=100
51360 On ch=1 n=96 v=100
51360 On ch=1 n=97 v=100
51360 On ch=1 n=98 v=100
51480 Off ch=1 n=24 v=64
51480 Off ch=1 n=26 v=64
51480 Off ch=1 n=31 v=64
51480 Off ch=1 n=61 v=64
51480 Off ch=1 n=62 v=64
51480 Off ch=1 n=73 v=64
51480 Off ch=1 n=74 v=64
51480 Off ch=1 n=85 v=64
51480 Off ch=1 n=86 v=64
51480 Off ch=1 n=96 v=64
51480 Off ch=1 n=97 v=64
51480 Off ch=1 n=98 v=64
51600 On ch=1 n=31 v=100
51600 On ch=1 n=62 v=100
51600 On ch=1 n=74 v=100
51600 On ch=1 n=86 v=100
51600 On ch=1 n=98 v=100
51720 Off ch=1 n=31 v=64
51720 Off ch=1 n=62 v=64
51720 Off ch=1 n=74 v=64
51720 Off ch=1 n=86 v=64
51720 Off ch=1 n=98 v=64
51840 Off ch=1 n=120 v=64
51840 Off ch=1 n=121 v=64
51840 Off ch=1 n=122 v=64
51840 Off ch=1 n=123 v=64
51840 Off ch=1 n=124 v=64
51840 On ch=1 n=24 v=100
51840 On ch=1 n=31 v=100
51840 On ch=1 n=62 v=100
51840 On ch=1 n=72 v=100
51840 On ch=1 n=74 v=100
51840 On ch=1 n=84 v=100
51840 On ch=1 n=86 v=100
51840 On ch=1 n=96 v=100
51840 On ch=1 n=98 v=100
51840 On ch=1 n=105 v=100
51960 Off ch=1 n=24 v=64
51960 Off ch=1 n=31 v=64
51960 Off ch=1 n=62 v=64
51960 Off ch=1 n=72 v=64
51960 Off ch=1 n=74 v=64
51960 Off ch=1 n=84 v=64
51960 Off ch=1 n=86 v=64
51960 Off ch=1 n=96 v=64
51960 Off ch=1 n=98 v=64
52080 On ch=1 n=31 v=100
52080 On ch=1 n=62 v=100
52080 On ch=1 n=74 v=100
52080 On ch=1 n=86 v=100
52080 On ch=1 n=98 v=100
52200 Off ch=1 n=31 v=64
52200 Off ch=1 n=62 v=64
52200 Off ch=1 n=74 v=64
52200 Off ch=1 n=86 v=64
52200 Off ch=1 n=98 v=64
52320 On ch=1 n=24 v=100
52320 On ch=1 n=26 v=100
52320 On ch=1 n=31 v=100
52320 On ch=1 n=61 v=100
52320 On ch=1 n=62 v=100
52320 On ch=1 n=73 v=100
52320 On ch=1 n=74 v=100
52320 On ch=1 n=85 v=100
52320 On ch=1 n=86 v=100
52320 On ch=1 n=96 v=100
52320 On ch=1 n=97 v=100
52320 On ch=1 n=98 v=100
52440 Off ch=1 n=24 v=64
52440 Off ch=1 n=26 v=64
52440 Off ch=1 n=31 v=64
52440 Off ch=1 n=61 v=64
52440 Off ch=1 n=62 v=64
52440 Off ch=1 n=73 v=64
52440 Off ch=1 n=74 v=64
52440 Off ch=1 n=85 v=64
52440 Off ch=1 n=86 v=64
52440 Off ch=1 n=96 v=64
52440 Off ch=1 n=97 v=64
52440 Off ch=1 n=98 v=64
52560 On ch=1 n=31 v=100
52560 On ch=1 n=62 v=100
52560 On ch=1 n=74 v=100
52560 On ch=1 n=86 v=100
52560 On ch=1 n=98 v=100
52680 Off ch=1 n=31 v=64
52680 Off ch=1 n=62 v=64
52680 Off ch=1 n=74 v=64
52680 Off ch=1 n=86 v=64
52680 Off ch=1 n=98 v=64
52800 On ch=1 n=24 v=100
52800 On ch=1 n=31 v=100
52800 On ch=1 n=62 v=100
52800 On ch=1 n=74 v=100
52800 On ch=1 n=84 v=100
52800 On ch=1 n=86 v=100
52800 On ch=1 n=96 v=100
52800 On ch=1 n=98 v=100
52920 Off ch=1 n=24 v=64
52920 Off ch=1 n=31 v=64
52920 Off ch=1 n=62 v=64
52920 Off ch=1 n=74 v=64
52920 Off ch=1 n=84 v=64
52920 Off ch=1 n=86 v=64
52920 Off ch=1 n=96 v=64
52920 Off ch=1 n=98 v=64
53040 On ch=1 n=31 v=100
53040 On ch=1 n=62 v=100
53040 On ch=1 n=74 v=100
53040 On ch=1 n=86 v=100
53040 On ch=1 n=98 v=100
53160 Off ch=1 n=31 v=64
53160 Off ch=1 n=62 v=64
53160 Off ch=1 n=74 v=64
53160 Off ch=1 n=86 v=64
53160 Off ch=1 n=98 v=64
53280 On ch=1 n=24 v=100
53280 On ch=1 n=26 v=100
53280 On ch=1 n=31 v=100
53280 On ch=1 n=61 v=100
53280 On ch=1 n=62 v=100
53280 On ch=1 n=73 v=100
53280 On ch=1 n=74 v=100
53280 On ch=1 n=85 v=100
53280 On ch=1 n=86 v=100
53280 On ch=1 n=96 v=100
53280 On ch=1 n=97 v=100
53280 On ch=1 n=98 v=100
53400 Off ch=1 n=24 v=64
53400 Off ch=1 n=26 v=64
53400 Off ch=1 n=31 v=64
53400 Off ch=1 n=61 v=64
53400 Off ch=1 n=62 v=64
53400 Off ch=1 n=73 v=64
53400 Off ch=1 n=74 v=64
53400 Off ch=1 n=85 v=64
53400 Off ch=1 n=86 v=64
53400 Off ch=1 n=96 v=64
53400 Off ch=1 n=97 v=64
53400 Off ch=1 n=98 v=64
53520 On ch=1 n=31 v=100
53520 On ch=1 n=62 v=100
53520 On ch=1 n=74 v=100
53520 On ch=1 n=86 v=100
53520 On ch=1 n=98 v=100
53640 Off ch=1 n=31 v=64
53640 Off ch=1 n=62 v=64
53640 Off ch=1 n=74 v=64
53640 Off ch=1 n=86 v=64
53640 Off ch=1 n=98 v=64
53760 On ch=1 n=24 v=100
53760 On ch=1 n=31 v=100
53760 On ch=1 n=62 v=100
53760 On ch=1 n=72 v=100
53760 On ch=1 n=74 v=100
53760 On ch=1 n=84 v=100
53760 On ch=1 n=86 v=100
53760 On ch=1 n=96 v=100
53760 On ch=1 n=98 v=100
53880 Off ch=1 n=24 v=64
53880 Off ch=1 n=31 v=64
53880 Off ch=1 n=62 v=64
53880 Off ch=1 n=72 v=64
53880 Off ch=1 n=74 v=64
53880 Off ch=1 n=84 v=64
53880 Off ch=1 n=86 v=64
53880 Off ch=1 n=96 v=64
53880 Off ch=1 n=98 v=64
54000 On ch=1 n=31 v=100
54000 On ch=1 n=62 v=100
54000 On ch=1 n=74 v=100
54000 On ch=1 n=86 v=100
54000 On ch=1 n=98 v=100
54120 Off ch=1 n=31 v=64
54120 Off ch=1 n=62 v=64
54120 Off ch=1 n=74 v=64
54120 Off ch=1 n=86 v=64
54120 Off ch=1 n=98 v=64
54240 On ch=1 n=24 v=100
54240 On ch=1 n=26 v=100
54240 On ch=1 n=31 v=100
54240 On ch=1 n=61 v=100
54240 On ch=1 n=62 v=100
54240 On ch=1 n=73 v=100
54240 On ch=1 n=74 v=100
54240 On ch=1 n=85 v=100
54240 On ch=1 n=86 v=100
54240 On ch=1 n=96 v=100
54240 On ch=1 n=97 v=100
54240 On ch=1 n=98 v=100
54360 Off ch=1 n=24 v=64
54360 Off ch=1 n=26 v=64
54360 Off ch=1 n=31 v=64
54360 Off ch=1 n=61 v=64
54360 Off ch=1 n=62 v=64
54360 Off ch=1 n=73 v=64
54360 Off ch=1 n=74 v=64
54360 Off ch=1 n=85 v=64
54360 Off ch=1 n=86 v=64
54360 Off ch=1 n=96 v=64
54360 Off ch=1 n=97 v=64
54360 Off ch=1 n=98 v=64
54480 On ch=1 n=31 v=100
54480 On ch=1 n=62 v=100
54480 On ch=1 n=74 v=100
54480 On ch=1 n=86 v=100
54480 On ch=1 n=98 v=100
54600 Off ch=1 n=31 v=64
54600 Off ch=1 n=62 v=64
54600 Off ch=1 n=74 v=64
54600 Off ch=1 n=86 v=64
54600 Off ch=1 n=98 v=64
54720 On ch=1 n=24 v=100
54720 On ch=1 n=31 v=100
54720 On ch=1 n=62 v=100
54720 On ch=1 n=74 v=100
54720 On ch=1 n=84 v=100
54720 On ch=1 n=86 v=100
54720 On ch=1 n=96 v=100
54720 On ch=1 n=98 v=100
54840 Off ch=1 n=24 v=64
54840 Off ch=1 n=31 v=64
54840 Off ch=1 n=62 v=64
54840 Off ch=1 n=74 v=64
54840 Off ch=1 n=84 v=64
54840 Off ch=1 n=86 v=64
54840 Off ch=1 n=96 v=64
54840 Off ch=1 n=98 v=64
54960 On ch=1 n=31 v=100
54960 On ch=1 n=62 v=100
54960 On ch=1 n=74 v=100
54960 On ch=1 n=86 v=100
54960 On ch=1 n=98 v=100
55080 Off ch=1 n=31 v=64
55080 Off ch=1 n=62 v=64
55080 Off ch=1 n=74 v=64
55080 Off ch=1 n=86 v=64
55080 Off ch=1 n=98 v=64
55200 On ch=1 n=24 v=100
55200 On ch=1 n=26 v=100
55200 On ch=1 n=31 v=100
55200 On ch=1 n=61 v=100
55200 On ch=1 n=62 v=100
55200 On ch=1 n=73 v=100
55200 On ch=1 n=74 v=100
55200 On ch=1 n=85 v=100
55200 On ch=1 n=86 v=100
55200 On ch=1 n=96 v=100
55200 On ch=1 n=97 v=100
55200 On ch=1 n=98 v=100
55320 Off ch=1 n=24 v=64
55320 Off ch=1 n=26 v=64
55320 Off ch=1 n=31 v=64
55320 Off ch=1 n=61 v=64
55320 Off ch=1 n=62 v=64
55320 Off ch=1 n=73 v=64
55320 Off ch=1 n=74 v=64
55320 Off ch=1 n=85 v=64
55320 Off ch=1 n=86 v=64
55320 Off ch=1 n=96 v=64
55320 Off ch=1 n=97 v=64
55320 Off ch=1 n=98 v=64
55440 On ch=1 n=31 v=100
55440 On ch=1 n=62 v=100
55440 On ch=1 n=74 v=100
55440 On ch=1 n=86 v=100
55440 On ch=1 n=98 v=100
55560 Off ch=1 n=31 v=64
55560 Off ch=1 n=62 v=64
55560 Off ch=1 n=74 v=64
55560 Off ch=1 n=86 v=64
55560 Off ch=1 n=98 v=64
55680 Off ch=1 n=106 v=64
55680 On ch=1 n=12 v=100
55680 On ch=1 n=24 v=100
55680 On ch=1 n=31 v=100
55680 On ch=1 n=62 v=100
55680 On ch=1 n=72 v=100
55680 On ch=1 n=74 v=100
55680 On ch=1 n=84 v=100
55680 On ch=1 n=86 v=100
55680 On ch=1 n=96 v=100
55680 On ch=1 n=98 v=100
55800 Off ch=1 n=12 v=64
55800 Off ch=1 n=24 v=64
55800 Off ch=1 n=31 v=64
55800 Off ch=1 n=62 v=64
55800 Off ch=1 n=72 v=64
55800 Off ch=1 n=74 v=64
55800 Off ch=1 n=84 v=64
55800 Off ch=1 n=86 v=64
55800 Off ch=1 n=96 v=64
55800 Off ch=1 n=98 v=64
55920 On ch=1 n=31 v=100
55920 On ch=1 n=62 v=100
55920 On ch=1 n=74 v=100
55920 On ch=1 n=86 v=100
55920 On ch=1 n=98 v=100
56040 Off ch=1 n=31 v=64
56040 Off ch=1 n=62 v=64
56040 Off ch=1 n=74 v=64
56040 Off ch=1 n=86 v=64
56040 Off ch=1 n=98 v=64
56160 On ch=1 n=24 v=100
56160 On ch=1 n=26 v=100
56160 On ch=1 n=31 v=100
56160 On ch=1 n=61 v=100
56160 On ch=1 n=62 v=100
56160 On ch=1 n=73 v=100
56160 On ch=1 n=74 v=100
56160 On ch=1 n=85 v=100
56160 On ch=1 n=86 v=100
56160 On ch=1 n=96 v=100
56160 On ch=1 n=97 v=100
56160 On ch=1 n=98 v=100
56280 Off ch=1 n=24 v=64
56280 Off ch=1 n=26 v=64
56280 Off ch=1 n=31 v=64
56280 Off ch=1 n=61 v=64
56280 Off ch=1 n=62 v=64
56280 Off ch=1 n=73 v=64
56280 Off ch=1 n=74 v=64
56280 Off ch=1 n=85 v=64
56280 Off ch=1 n=86 v=64
56280 Off ch=1 n=96 v=64
56280 Off ch=1 n=97 v=64
56280 Off ch=1 n=98 v=64
56400 On ch=1 n=31 v=100
56400 On ch=1 n=62 v=100
56400 On ch=1 n=74 v=100
56400 On ch=1 n=86 v=100
56400 On ch=1 n=98 v=100
56520 Off ch=1 n=31 v=64
56520 Off ch=1 n=62 v=64
56520 Off ch=1 n=74 v=64
56520 Off ch=1 n=86 v=64
56520 Off ch=1 n=98 v=64
56640 On ch=1 n=24 v=100
56640 On ch=1 n=31 v=100
56640 On ch=1 n=62 v=100
56640 On ch=1 n=74 v=100
56640 On ch=1 n=84 v=100
56640 On ch=1 n=86 v=100
56640 On ch=1 n=96 v=100
56640 On ch=1 n=98 v=100
56760 Off ch=1 n=24 v=64
56760 Off ch=1 n=31 v=64
56760 Off ch=1 n=62 v=64
56760 Off ch=1 n=74 v=64
56760 Off ch=1 n=84 v=64
56760 Off ch=1 n=86 v=64
56760 Off ch=1 n=96 v=64
56760 Off ch=1 n=98 v=64
56880 On ch=1 n=31 v=100
56880 On ch=1 n=62 v=100
56880 On ch=1 n=74 v=100
56880 On ch=1 n=86 v=100
56880 On ch=1 n=98 v=100
57000 Off ch=1 n=31 v=64
57000 Off ch=1 n=62 v=64
57000 Off ch=1 n=74 v=64
57000 Off ch=1 n=86 v=64
57000 Off ch=1 n=98 v=64
57120 On ch=1 n=24 v=100
57120 On ch=1 n=26 v=100
57120 On ch=1 n=31 v=100
57120 On ch=1 n=61 v=100
57120 On ch=1 n=62 v=100
57120 On ch=1 n=73 v=100
57120 On ch=1 n=74 v=100
57120 On ch=1 n=85 v=100
57120 On ch=1 n=86 v=100
57120 On ch=1 n=96 v=100
57120 On ch=1 n=97 v=100
57120 On ch=1 n=98 v=100
57240 Off ch=1 n=24 v=64
57240 Off ch=1 n=26 v=64
57240 Off ch=1 n=31 v=64
57240 Off ch=1 n=61 v=64
57240 Off ch=1 n=62 v=64
57240 Off ch=1 n=73 v=64
57240 Off ch=1 n=74 v=64
57240 Off ch=1 n=85 v=64
57240 Off ch=1 n=86 v=64
57240 Off ch=1 n=96 v=64
57240 Off ch=1 n=97 v=64
57240 Off ch=1 n=98 v=64
57360 On ch=1 n=31 v=100
57360 On ch=1 n=62 v=100
57360 On ch=1 n=74 v=100
57360 On ch=1 n=86 v=100
57360 On ch=1 n=98 v=100
57480 Off ch=1 n=31 v=64
57480 Off ch=1 n=62 v=64
57480 Off ch=1 n=74 v=64
57480 Off ch=1 n=86 v=64
57480 Off ch=1 n=98 v=64
57600 Off ch=1 n=105 v=64
57600 On ch=1 n=24 v=100
57600 On ch=1 n=31 v=100
57600 On ch=1 n=62 v=100
57600 On ch=1 n=72 v=100
57600 On ch=1 n=74 v=100
57600 On ch=1 n=84 v=100
57600 On ch=1 n=86 v=100
57600 On ch=1 n=96 v=100
57600 On ch=1 n=98 v=100
57600 On ch=1 n=106 v=100
57600 On ch=1 n=120 v=100
57600 On ch=1 n=121 v=100
57600 On ch=1 n=122 v=100
57600 On ch=1 n=123 v=100
57600 On ch=1 n=124 v=100
57720 Off ch=1 n=24 v=64
57720 Off ch=1 n=31 v=64
57720 Off ch=1 n=62 v=64
57720 Off ch=1 n=72 v=64
57720 Off ch=1 n=74 v=64
57720 Off ch=1 n=84 v=64
57720 Off ch=1 n=86 v=64
57720 Off ch=1 n=96 v=64
57720 Off ch=1 n=98 v=64
57840 On ch=1 n=31 v=100
57840 On ch=1 n=62 v=100
57840 On ch=1 n=74 v=100
57840 On ch=1 n=86 v=100
57840 On ch=1 n=98 v=100
57960 Off ch=1 n=31 v=64
57960 Off ch=1 n=62 v=64
57960 Off ch=1 n=74 v=64
57960 Off ch=1 n=86 v=64
57960 Off ch=1 n=98 v=64
58080 On ch=1 n=24 v=100
58080 On ch=1 n=26 v=100
58080 On ch=1 n=31 v=100
58080 On ch=1 n=61 v=100
58080 On ch=1 n=62 v=100
58080 On ch=1 n=73 v=100
58080 On ch=1 n=74 v=100
58080 On ch=1 n=85 v=100
58080 On ch=1 n=86 v=100
58080 On ch=1 n=96 v=100
58080 On ch=1 n=97 v=100
58080 On ch=1 n=98 v=100
58200 Off ch=1 n=24 v=64
58200 Off ch=1 n=26 v=64
58200 Off ch=1 n=31 v=64
58200 Off ch=1 n=61 v=64
58200 Off ch=1 n=62 v=64
58200 Off ch=1 n=73 v=64
58200 Off ch=1 n=74 v=64
58200 Off ch=1 n=85 v=64
58200 Off ch=1 n=86 v=64
58200 Off ch=1 n=96 v=64
58200 Off ch=1 n=97 v=64
58200 Off ch=1 n=98 v=64
58320 On ch=1 n=31 v=100
58320 On ch=1 n=62 v=100
58320 On ch=1 n=74 v=100
58320 On ch=1 n=86 v=100
58320 On ch=1 n=98 v=100
58440 Off ch=1 n=31 v=64
58440 Off ch=1 n=62 v=64
58440 Off ch=1 n=74 v=64
58440 Off ch=1 n=86 v=64
58440 Off ch=1 n=98 v=64
58560 On ch=1 n=24 v=100
58560 On ch=1 n=31 v=100
58560 On ch=1 n=62 v=100
58560 On ch=1 n=74 v=100
58560 On ch=1 n=84 v=100
58560 On ch=1 n=86 v=100
58560 On ch=1 n=96 v=100
58560 On ch=1 n=98 v=100
58680 Off ch=1 n=24 v=64
58680 Off ch=1 n=31 v=64
58680 Off ch=1 n=62 v=64
58680 Off ch=1 n=74 v=64
58680 Off ch=1 n=84 v=64
58680 Off ch=1 n=86 v=64
58680 Off ch=1 n=96 v=64
58680 Off ch=1 n=98 v=64
58800 On ch=1 n=31 v=100
58800 On ch=1 n=62 v=100
58800 On ch=1 n=74 v=100
58800 On ch=1 n=86 v=100
58800 On ch=1 n=98 v=100
58920 Off ch=1 n=31 v=64
58920 Off ch=1 n=62 v=64
58920 Off ch=1 n=74 v=64
58920 Off ch=1 n=86 v=64
58920 Off ch=1 n=98 v=64
59040 On ch=1 n=24 v=100
59040 On ch=1 n=26 v=100
59040 On ch=1 n=31 v=100
59040 On ch=1 n=61 v=100
59040 On ch=1 n=62 v=100
59040 On ch=1 n=73 v=100
59040 On ch=1 n=74 v=100
59040 On ch=1 n=85 v=100
59040 On ch=1 n=86 v=100
59040 On ch=1 n=96 v=100
59040 On ch=1 n=97 v=100
59040 On ch=1 n=98 v=100
59160 Off ch=1 n=24 v=64
59160 Off ch=1 n=26 v=64
59160 Off ch=1 n=31 v=64
59160 Off ch=1 n=61 v=64
59160 Off ch=1 n=62 v=64
59160 Off ch=1 n=73 v=64
59160 Off ch=1 n=74 v=64
59160 Off ch=1 n=85 v=64
59160 Off ch=1 n=86 v=64
59160 Off ch=1 n=96 v=64
59160 Off ch=1 n=97 v=64
59160 Off ch=1 n=98 v=64
59280 On ch=1 n=31 v=100
59280 On ch=1 n=62 v=100
59280 On ch=1 n=74 v=100
59280 On ch=1 n=86 v=100
59280 On ch=1 n=98 v=100
59400 Off ch=1 n=31 v=64
59400 Off ch=1 n=62 v=64
59400 Off ch=1 n=74 v=64
59400 Off ch=1 n=86 v=64
59400 Off ch=1 n=98 v=64
59520 Off ch=1 n=106 v=64
59520 Off ch=1 n=120 v=64
59520 Off ch=1 n=121 v=64
59520 Off ch=1 n=122 v=64
59520 Off ch=1 n=123 v=64
59520 Off ch=1 n=124 v=64
59520 On ch=1 n=24 v=100
59520 On ch=1 n=31 v=100
59520 On ch=1 n=62 v=100
59520 On ch=1 n=72 v=100
59520 On ch=1 n=74 v=100
59520 On ch=1 n=84 v=100
59520 On ch=1 n=86 v=100
59520 On ch=1 n=96 v=100
59520 On ch=1 n=98 v=100
59520 On ch=1 n=105 v=100
59640 Off ch=1 n=24 v=64
59640 Off ch=1 n=31 v=64
59640 Off ch=1 n=62 v=64
59640 Off ch=1 n=72 v=64
59640 Off ch=1 n=74 v=64
59640 Off ch=1 n=84 v=64
59640 Off ch=1 n=86 v=64
59640 Off ch=1 n=96 v=64
59640 Off ch=1 n=98 v=64
59760 On ch=1 n=31 v=100
59760 On ch=1 n=62 v=100
59760 On ch=1 n=74 v=100
59760 On ch=1 n=86 v=100
59760 On ch=1 n=98 v=100
59880 Off ch=1 n=31 v=64
59880 Off ch=1 n=62 v=64
59880 Off ch=1 n=74 v=64
59880 Off ch=1 n=86 v=64
59880 Off ch=1 n=98 v=64
60000 On ch=1 n=24 v=100
60000 On ch=1 n=26 v=100
60000 On ch=1 n=31 v=100
60000 On ch=1 n=61 v=100
60000 On ch=1 n=62 v=100
60000 On ch=1 n=73 v=100
60000 On ch=1 n=74 v=100
60000 On ch=1 n=85 v=100
60000 On ch=1 n=86 v=100
60000 On ch=1 n=96 v=100
60000 On ch=1 n=97 v=100
60000 On ch=1 n=98 v=100
60120 Off ch=1 n=24 v=64
60120 Off ch=1 n=26 v=64
60120 Off ch=1 n=31 v=64
60120 Off ch=1 n=61 v=64
60120 Off ch=1 n=62 v=64
60120 Off ch=1 n=73 v=64
60120 Off ch=1 n=74 v=64
60120 Off ch=1 n=85 v=64
60120 Off ch=1 n=86 v=64
60120 Off ch=1 n=96 v=64
60120 Off ch=1 n=97 v=64
60120 Off ch=1 n=98 v=64
60240 On ch=1 n=31 v=100
60240 On ch=1 n=62 v=100
60240 On ch=1 n=74 v=100
60240 On ch=1 n=86 v=100
60240 On ch=1 n=98 v=100
60360 Off ch=1 n=31 v=64
60360 Off ch=1 n=62 v=64
60360 Off ch=1 n=74 v=64
60360 Off ch=1 n=86 v=64
60360 Off ch=1 n=98 v=64
60480 On ch=1 n=24 v=100
60480 On ch=1 n=31 v=100
60480 On ch=1 n=62 v=100
60480 On ch=1 n=74 v=100
60480 On ch=1 n=84 v=100
60480 On ch=1 n=86 v=100
60480 On ch=1 n=96 v=100
60480 On ch=1 n=98 v=100
60600 Off ch=1 n=24 v=64
60600 Off ch=1 n=31 v=64
60600 Off ch=1 n=62 v=64
60600 Off ch=1 n=74 v=64
60600 Off ch=1 n=84 v=64
60600 Off ch=1 n=86 v=64
60600 Off ch=1 n=96 v=64
60600 Off ch=1 n=98 v=64
60720 On ch=1 n=31 v=100
60720 On ch=1 n=62 v=100
60720 On ch=1 n=74 v=100
60720 On ch=1 n=86 v=100
60720 On ch=1 n=98 v=100
60840 Off ch=1 n=31 v=64
60840 Off ch=1 n=62 v=64
60840 Off ch=1 n=74 v=64
60840 Off ch=1 n=86 v=64
60840 Off ch=1 n=98 v=64
60960 On ch=1 n=24 v=100
60960 On ch=1 n=26 v=100
60960 On ch=1 n=31 v=100
60960 On ch=1 n=61 v=100
60960 On ch=1 n=62 v=100
60960 On ch=1 n=73 v=100
60960 On ch=1 n=74 v=100
60960 On ch=1 n=85 v=100
60960 On ch=1 n=86 v=100
60960 On ch=1 n=96 v=100
60960 On ch=1 n=97 v=100
60960 On ch=1 n=98 v=100
61080 Off ch=1 n=24 v=64
61080 Off ch=1 n=26 v=64
61080 Off ch=1 n=31 v=64
61080 Off ch=1 n=61 v=64
61080 Off ch=1 n=62 v=64
61080 Off ch=1 n=73 v=64
61080 Off ch=1 n=74 v=64
61080 Off ch=1 n=85 v=64
61080 Off ch=1 n=86 v=64
61080 Off ch=1 n=96 v=64
61080 Off ch=1 n=97 v=64
61080 Off ch=1 n=98 v=64
61200 On ch=1 n=31 v=100
61200 On ch=1 n=62 v=100
61200 On ch=1 n=74 v=100
61200 On ch=1 n=86 v=100
61200 On ch=1 n=98 v=100
61320 Off ch=1 n=31 v=64
61320 Off ch=1 n=62 v=64
61320 Off ch=1 n=74 v=64
61320 Off ch=1 n=86 v=64
61320 Off ch=1 n=98 v=64
61440 Off ch=1 n=105 v=64
61440 On ch=1 n=24 v=100
61440 On ch=1 n=31 v=100
61440 On ch=1 n=62 v=100
61440 On ch=1 n=72 v=100
61440 On ch=1 n=74 v=100
61440 On ch=1 n=84 v=100
61440 On ch=1 n=86 v=100
61440 On ch=1 n=96 v=100
61440 On ch=1 n=98 v=100
61440 On ch=1 n=106 v=100
61560 Off ch=1 n=24 v=64
61560 Off ch=1 n=31 v=64
61560 Off ch=1 n=62 v=64
61560 Off ch=1 n=72 v=64
61560 Off ch=1 n=74 v=64
61560 Off ch=1 n=84 v=64
61560 Off ch=1 n=86 v=64
61560 Off ch=1 n=96 v=64
61560 Off ch=1 n=98 v=64
61680 On ch=1 n=31 v=100
61680 On ch=1 n=62 v=100
61680 On ch=1 n=74 v=100
61680 On ch=1 n=86 v=100
61680 On ch=1 n=98 v=100
61800 Off ch=1 n=31 v=64
61800 Off ch=1 n=62 v=64
61800 Off ch=1 n=74 v=64
61800 Off ch=1 n=86 v=64
61800 Off ch=1 n=98 v=64
61920 On ch=1 n=24 v=100
61920 On ch=1 n=26 v=100
61920 On ch=1 n=31 v=100
61920 On ch=1 n=61 v=100
61920 On ch=1 n=62 v=100
61920 On ch=1 n=73 v=100
61920 On ch=1 n=74 v=100
61920 On ch=1 n=85 v=100
61920 On ch=1 n=86 v=100
61920 On ch=1 n=96 v=100
61920 On ch=1 n=97 v=100
61920 On ch=1 n=98 v=100
62040 Off ch=1 n=24 v=64
62040 Off ch=1 n=26 v=64
62040 Off ch=1 n=31 v=64
62040 Off ch=1 n=61 v=64
62040 Off ch=1 n=62 v=64
62040 Off ch=1 n=73 v=64
62040 Off ch=1 n=74 v=64
62040 Off ch=1 n=85 v=64
62040 Off ch=1 n=86 v=64
62040 Off ch=1 n=96 v=64
62040 Off ch=1 n=97 v=64
62040 Off ch=1 n=98 v=64
62160 On ch=1 n=31 v=100
62160 On ch=1 n=62 v=100
62160 On ch=1 n=74 v=100
62160 On ch=1 n=86 v=100
62160 On ch=1 n=98 v=100
62280 Off ch=1 n=31 v=64
62280 Off ch=1 n=62 v=64
62280 Off ch=1 n=74 v=64
62280 Off ch=1 n=86 v=64
62280 Off ch=1 n=98 v=64
62400 On ch=1 n=24 v=100
62400 On ch=1 n=31 v=100
62400 On ch=1 n=62 v=100
62400 On ch=1 n=74 v=100
62400 On ch=1 n=84 v=100
62400 On ch=1 n=86 v=100
62400 On ch=1 n=96 v=100
62400 On ch=1 n=98 v=100
62520 Off ch=1 n=24 v=64
62520 Off ch=1 n=31 v=64
62520 Off ch=1 n=62 v=64
62520 Off ch=1 n=74 v=64
62520 Off ch=1 n=84 v=64
62520 Off ch=1 n=86 v=64
62520 Off ch=1 n=96 v=64
62520 Off ch=1 n=98 v=64
62640 On ch=1 n=31 v=100
62640 On ch=1 n=62 v=100
62640 On ch=1 n=74 v=100
62640 On ch=1 n=86 v=100
62640 On ch=1 n=98 v=100
62760 Off ch=1 n=31 v=64
62760 Off ch=1 n=62 v=64
62760 Off ch=1 n=74 v=64
62760 Off ch=1 n=86 v=64
62760 Off ch=1 n=98 v=64
62880 On ch=1 n=24 v=100
62880 On ch=1 n=26 v=100
62880 On ch=1 n=31 v=100
62880 On ch=1 n=61 v=100
62880 On ch=1 n=62 v=100
62880 On ch=1 n=73 v=100
62880 On ch=1 n=74 v=100
62880 On ch=1 n=85 v=100
62880 On ch=1 n=86 v=100
62880 On ch=1 n=96 v=100
62880 On ch=1 n=97 v=100
62880 On ch=1 n=98 v=100
63000 Off ch=1 n=24 v=64
63000 Off ch=1 n=26 v=64
63000 Off ch=1 n=31 v=64
63000 Off ch=1 n=61 v=64
63000 Off ch=1 n=62 v=64
63000 Off ch=1 n=73 v=64
63000 Off ch=1 n=74 v=64
63000 Off ch=1 n=85 v=64
63000 Off ch=1 n=86 v=64
63000 Off ch=1 n=96 v=64
63000 Off ch=1 n=97 v=64
63000 Off ch=1 n=98 v=64
63120 On ch=1 n=31 v=100
63120 On ch=1 n=62 v=100
63120 On ch=1 n=74 v=100
63120 On ch=1 n=86 v=100
63120 On ch=1 n=98 v=100
63240 Off ch=1 n=31 v=64
63240 Off ch=1 n=62 v=64
63240 Off ch=1 n=74 v=64
63240 Off ch=1 n=86 v=64
63240 Off ch=1 n=98 v=64
63360 On ch=1 n=24 v=100
63360 On ch=1 n=31 v=100
63360 On ch=1 n=62 v=100
63360 On ch=1 n=72 v=100
63360 On ch=1 n=74 v=100
63360 On ch=1 n=84 v=100
63360 On ch=1 n=86 v=100
63360 On ch=1 n=96 v=100
63360 On ch=1 n=98 v=100
63360 On ch=1 n=105 v=100
63480 Off ch=1 n=24 v=64
63480 Off ch=1 n=31 v=64
63480 Off ch=1 n=62 v=64
63480 Off ch=1 n=72 v=64
63480 Off ch=1 n=74 v=64
63480 Off ch=1 n=84 v=64
63480 Off ch=1 n=86 v=64
63480 Off ch=1 n=96 v=64
63480 Off ch=1 n=98 v=64
63600 On ch=1 n=31 v=100
63600 On ch=1 n=62 v=100
63600 On ch=1 n=74 v=100
63600 On ch=1 n=86 v=100
63600 On ch=1 n=98 v=100
63720 Off ch=1 n=31 v=64
63720 Off ch=1 n=62 v=64
63720 Off ch=1 n=74 v=64
63720 Off ch=1 n=86 v=64
63720 Off ch=1 n=98 v=64
63840 On ch=1 n=24 v=100
63840 On ch=1 n=26 v=100
63840 On ch=1 n=31 v=100
63840 On ch=1 n=61 v=100
63840 On ch=1 n=62 v=100
63840 On ch=1 n=73 v=100
63840 On ch=1 n=74 v=100
63840 On ch=1 n=85 v=100
63840 On ch=1 n=86 v=100
63840 On ch=1 n=96 v=100
63840 On ch=1 n=97 v=100
63840 On ch=1 n=98 v=100
63960 Off ch=1 n=24 v=64
63960 Off ch=1 n=26 v=64
63960 Off ch=1 n=31 v=64
63960 Off ch=1 n=61 v=64
63960 Off ch=1 n=62 v=64
63960 Off ch=1 n=73 v=64
63960 Off ch=1 n=74 v=64
63960 Off ch=1 n=85 v=64
63960 Off ch=1 n=86 v=64
63960 Off ch=1 n=96 v=64
63960 Off ch=1 n=97 v=64
63960 Off ch=1 n=98 v=64
64080 On ch=1 n=31 v=100
64080 On ch=1 n=62 v=100
64080 On ch=1 n=74 v=100
64080 On ch=1 n=86 v=100
64080 On ch=1 n=98 v=100
64200 Off ch=1 n=31 v=64
64200 Off ch=1 n=62 v=64
64200 Off ch=1 n=74 v=64
64200 Off ch=1 n=86 v=64
64200 Off ch=1 n=98 v=64
64320 On ch=1 n=24 v=100
64320 On ch=1 n=31 v=100
64320 On ch=1 n=62 v=100
64320 On ch=1 n=74 v=100
64320 On ch=1 n=84 v=100
64320 On ch=1 n=86 v=100
64320 On ch=1 n=96 v=100
64320 On ch=1 n=98 v=100
64440 Off ch=1 n=24 v=64
64440 Off ch=1 n=31 v=64
64440 Off ch=1 n=62 v=64
64440 Off ch=1 n=74 v=64
64440 Off ch=1 n=84 v=64
64440 Off ch=1 n=86 v=64
64440 Off ch=1 n=96 v=64
64440 Off ch=1 n=98 v=64
64560 On ch=1 n=31 v=100
64560 On ch=1 n=62 v=100
64560 On ch=1 n=74 v=100
64560 On ch=1 n=86 v=100
64560 On ch=1 n=98 v=100
64680 Off ch=1 n=31 v=64
64680 Off ch=1 n=62 v=64
64680 Off ch=1 n=74 v=64
64680 Off ch=1 n=86 v=64
64680 Off ch=1 n=98 v=64
64800 On ch=1 n=24 v=100
64800 On ch=1 n=26 v=100
64800 On ch=1 n=31 v=100
64800 On ch=1 n=61 v=100
64800 On ch=1 n=62 v=100
64800 On ch=1 n=73 v=100
64800 On ch=1 n=74 v=100
64800 On ch=1 n=85 v=100
64800 On ch=1 n=86 v=100
64800 On ch=1 n=96 v=100
64800 On ch=1 n=97 v=100
64800 On ch=1 n=98 v=100
64920 Off ch=1 n=24 v=64
64920 Off ch=1 n=26 v=64
64920 Off ch=1 n=31 v=64
64920 Off ch=1 n=61 v=64
64920 Off ch=1 n=62 v=64
64920 Off ch=1 n=73 v=64
64920 Off ch=1 n=74 v=64
64920 Off ch=1 n=85 v=64
64920 Off ch=1 n=86 v=64
64920 Off ch=1 n=96 v=64
64920 Off ch=1 n=97 v=64
64920 Off ch=1 n=98 v=64
65040 On ch=1 n=31 v=100
65040 On ch=1 n=62 v=100
65040 On ch=1 n=74 v=100
65040 On ch=1 n=86 v=100
65040 On ch=1 n=98 v=100
65160 Off ch=1 n=31 v=64
65160 Off ch=1 n=62 v=64
65160 Off ch=1 n=74 v=64
65160 Off ch=1 n=86 v=64
65160 Off ch=1 n=98 v=64
65280 On ch=1 n=24 v=100
65280 On ch=1 n=31 v=100
65280 On ch=1 n=62 v=100
65280 On ch=1 n=72 v=100
65280 On ch=1 n=74 v=100
65280 On ch=1 n=84 v=100
65280 On ch=1 n=86 v=100
65280 On ch=1 n=96 v=100
65280 On ch=1 n=98 v=100
65400 Off ch=1 n=24 v=64
65400 Off ch=1 n=31 v=64
65400 Off ch=1 n=62 v=64
65400 Off ch=1 n=72 v=64
65400 Off ch=1 n=74 v=64
65400 Off ch=1 n=84 v=64
65400 Off ch=1 n=86 v=64
65400 Off ch=1 n=96 v=64
65400 Off ch=1 n=98 v=64
65520 On ch=1 n=31 v=100
65520 On ch=1 n=62 v=100
65520 On ch=1 n=74 v=100
65520 On ch=1 n=86 v=100
65520 On ch=1 n=98 v=100
65640 Off ch=1 n=31 v=64
65640 Off ch=1 n=62 v=64
65640 Off ch=1 n=74 v=64
65640 Off ch=1 n=86 v=64
65640 Off ch=1 n=98 v=64
65760 On ch=1 n=24 v=100
65760 On ch=1 n=26 v=100
65760 On ch=1 n=31 v=100
65760 On ch=1 n=61 v=100
65760 On ch=1 n=62 v=100
65760 On ch=1 n=73 v=100
65760 On ch=1 n=74 v=100
65760 On ch=1 n=85 v=100
65760 On ch=1 n=86 v=100
65760 On ch=1 n=96 v=100
65760 On ch=1 n=97 v=100
65760 On ch=1 n=98 v=100
65880 Off ch=1 n=24 v=64
65880 Off ch=1 n=26 v=64
65880 Off ch=1 n=31 v=64
65880 Off ch=1 n=61 v=64
65880 Off ch=1 n=62 v=64
65880 Off ch=1 n=73 v=64
65880 Off ch=1 n=74 v=64
65880 Off ch=1 n=85 v=64
65880 Off ch=1 n=86 v=64
65880 Off ch=1 n=96 v=64
65880 Off ch=1 n=97 v=64
65880 Off ch=1 n=98 v=64
66000 On ch=1 n=31 v=100
66000 On ch=1 n=62 v=100
66000 On ch=1 n=74 v=100
66000 On ch=1 n=86 v=100
66000 On ch=1 n=98 v=100
66120 Off ch=1 n=31 v=64
66120 Off ch=1 n=62 v=64
66120 Off ch=1 n=74 v=64
66120 Off ch=1 n=86 v=64
66120 Off ch=1 n=98 v=64
66240 On ch=1 n=24 v=100
66240 On ch=1 n=31 v=100
66240 On ch=1 n=62 v=100
66240 On ch=1 n=74 v=100
66240 On ch=1 n=84 v=100
66240 On ch=1 n=86 v=100
66240 On ch=1 n=96 v=100
66240 On ch=1 n=98 v=100
66360 Off ch=1 n=24 v=64
66360 Off ch=1 n=31 v=64
66360 Off ch=1 n=62 v=64
66360 Off ch=1 n=74 v=64
66360 Off ch=1 n=84 v=64
66360 Off ch=1 n=86 v=64
66360 Off ch=1 n=96 v=64
66360 Off ch=1 n=98 v=64
66480 On ch=1 n=31 v=100
66480 On ch=1 n=62 v=100
66480 On ch=1 n=74 v=100
66480 On ch=1 n=86 v=100
66480 On ch=1 n=98 v=100
66600 Off ch=1 n=31 v=64
66600 Off ch=1 n=62 v=64
66600 Off ch=1 n=74 v=64
66600 Off ch=1 n=86 v=64
66600 Off ch=1 n=98 v=64
66720 Off ch=1 n=106 v=64
66720 Off ch=1 n=105 v=64
66720 On ch=1 n=12 v=100
66840 Off ch=1 n=12 v=64
70320 Meta Text "[idle_realtime]"
70320 Meta TrkEnd
TrkEnd
MTrk
0 Meta TrkName "PART BASS"
3840 Meta Text "[map HandMap_DropD2]"
3849 Meta Text "[idle] "
4800 On ch=2 n=47 v=100
5760 Meta Text "[play] "
5760 On ch=2 n=61 v=100
5760 On ch=2 n=74 v=100
5760 On ch=2 n=86 v=100
5760 On ch=2 n=98 v=100
5760 On ch=2 n=105 v=100
5880 Off ch=2 n=61 v=64
6780 Off ch=2 n=74 v=64
6840 Off ch=2 n=86 v=64
6900 Off ch=2 n=98 v=64
6960 On ch=2 n=62 v=100
6960 On ch=2 n=75 v=100
6960 On ch=2 n=88 v=100
6960 On ch=2 n=100 v=100
7080 Off ch=2 n=62 v=64
7500 Off ch=2 n=75 v=64
7560 Off ch=2 n=47 v=64
7560 Off ch=2 n=88 v=64
7620 Off ch=2 n=100 v=64
7680 On ch=2 n=43 v=100
7680 On ch=2 n=60 v=100
7680 On ch=2 n=73 v=100
7680 On ch=2 n=85 v=100
7680 On ch=2 n=97 v=100
7800 Off ch=2 n=60 v=64
8700 Off ch=2 n=73 v=64
8820 Off ch=2 n=85 v=64
8820 Off ch=2 n=97 v=64
8880 On ch=2 n=62 v=100
8880 On ch=2 n=74 v=100
8880 On ch=2 n=87 v=100
8880 On ch=2 n=99 v=100
9000 Off ch=2 n=62 v=64
9420 Off ch=2 n=74 v=64
9480 Off ch=2 n=43 v=64
9480 Off ch=2 n=87 v=64
9480 Off ch=2 n=99 v=64
9600 On ch=2 n=45 v=100
9600 On ch=2 n=61 v=100
9600 On ch=2 n=73 v=100
9600 On ch=2 n=86 v=100
9600 On ch=2 n=98 v=100
9600 On ch=2 n=116 v=100
9720 Off ch=2 n=61 v=64
10620 Off ch=2 n=73 v=64
10680 Off ch=2 n=86 v=64
10740 Off ch=2 n=98 v=64
10800 On ch=2 n=62 v=100
10800 On ch=2 n=75 v=100
10800 On ch=2 n=87 v=100
10800 On ch=2 n=100 v=100
10880 Off ch=2 n=116 v=64
10920 Off ch=2 n=62 v=64
11340 Off ch=2 n=75 v=64
11400 Off ch=2 n=87 v=64
11460 Off ch=2 n=100 v=64
11520 On ch=2 n=60 v=100
11520 On ch=2 n=72 v=100
11520 On ch=2 n=84 v=100
11520 On ch=2 n=96 v=100
13080 Off ch=2 n=60 v=64
13260 Off ch=2 n=72 v=64
13320 Off ch=2 n=84 v=64
13336 Off ch=2 n=45 v=64
13380 Off ch=2 n=96 v=64
13440 Off ch=2 n=105 v=64
13440 On ch=2 n=47 v=100
13440 On ch=2 n=61 v=100
13440 On ch=2 n=74 v=100
13440 On ch=2 n=86 v=100
13440 On ch=2 n=98 v=100
13440 On ch=2 n=106 v=100
13560 Off ch=2 n=61 v=64
14460 Off ch=2 n=74 v=64
14520 Off ch=2 n=86 v=64
14580 Off ch=2 n=98 v=64
14640 On ch=2 n=62 v=100
14640 On ch=2 n=75 v=100
14640 On ch=2 n=88 v=100
14640 On ch=2 n=100 v=100
14760 Off ch=2 n=62 v=64
15180 Off ch=2 n=75 v=64
15240 Off ch=2 n=47 v=64
15240 Off ch=2 n=88 v=64
15300 Off ch=2 n=100 v=64
15360 On ch=2 n=43 v=100
15360 On ch=2 n=60 v=100
15360 On ch=2 n=73 v=100
15360 On ch=2 n=85 v=100
15360 On ch=2 n=97 v=100
15480 Off ch=2 n=60 v=64
16380 Off ch=2 n=73 v=64
16440 Off ch=2 n=85 v=64
16500 Off ch=2 n=97 v=64
16560 On ch=2 n=62 v=100
16560 On ch=2 n=74 v=100
16560 On ch=2 n=87 v=100
16560 On ch=2 n=99 v=100
16680 Off ch=2 n=62 v=64
17100 Off ch=2 n=74 v=64
17160 Off ch=2 n=43 v=64
17160 Off ch=2 n=87 v=64
17220 Off ch=2 n=99 v=64
17280 On ch=2 n=45 v=100
17280 On ch=2 n=61 v=100
17280 On ch=2 n=73 v=100
17280 On ch=2 n=86 v=100
17280 On ch=2 n=98 v=100
17280 On ch=2 n=116 v=100
17400 Off ch=2 n=61 v=64
18300 Off ch=2 n=73 v=64
18360 Off ch=2 n=86 v=64
18420 Off ch=2 n=98 v=64
18480 On ch=2 n=62 v=100
18480 On ch=2 n=75 v=100
18480 On ch=2 n=87 v=100
18480 On ch=2 n=100 v=100
18600 Off ch=2 n=62 v=64
19020 Off ch=2 n=75 v=64
19080 Off ch=2 n=87 v=64
19140 Off ch=2 n=100 v=64
19200 On ch=2 n=60 v=100
19200 On ch=2 n=72 v=100
19200 On ch=2 n=84 v=100
19200 On ch=2 n=96 v=100
19320 Off ch=2 n=116 v=64
20760 Off ch=2 n=60 v=64
20940 Off ch=2 n=72 v=64
21000 Off ch=2 n=84 v=64
21019 Off ch=2 n=45 v=64
21060 Off ch=2 n=96 v=64
21120 Off ch=2 n=106 v=64
21120 On ch=2 n=47 v=100
21120 On ch=2 n=61 v=100
21120 On ch=2 n=74 v=100
21120 On ch=2 n=86 v=100
21120 On ch=2 n=98 v=100
21120 On ch=2 n=105 v=100
21240 Off ch=2 n=61 v=64
22140 Off ch=2 n=74 v=64
22200 Off ch=2 n=86 v=64
22260 Off ch=2 n=98 v=64
22320 On ch=2 n=62 v=100
22320 On ch=2 n=75 v=100
22320 On ch=2 n=88 v=100
22320 On ch=2 n=100 v=100
22440 Off ch=2 n=62 v=64
22860 Off ch=2 n=75 v=64
22920 Off ch=2 n=47 v=64
22920 Off ch=2 n=88 v=64
22980 Off ch=2 n=100 v=64
23040 On ch=2 n=43 v=100
23040 On ch=2 n=60 v=100
23040 On ch=2 n=73 v=100
23040 On ch=2 n=85 v=100
23040 On ch=2 n=97 v=100
23160 Off ch=2 n=60 v=64
24060 Off ch=2 n=73 v=64
24120 Off ch=2 n=85 v=64
24180 Off ch=2 n=97 v=64
24240 On ch=2 n=62 v=100
24240 On ch=2 n=74 v=100
24240 On ch=2 n=87 v=100
24240 On ch=2 n=99 v=100
24360 Off ch=2 n=62 v=64
24780 Off ch=2 n=74 v=64
24840 Off ch=2 n=43 v=64
24840 Off ch=2 n=87 v=64
24900 Off ch=2 n=99 v=64
24960 On ch=2 n=45 v=100
24960 On ch=2 n=61 v=100
24960 On ch=2 n=73 v=100
24960 On ch=2 n=86 v=100
24960 On ch=2 n=98 v=100
25080 Off ch=2 n=61 v=64
25980 Off ch=2 n=73 v=64
26040 Off ch=2 n=86 v=64
26100 Off ch=2 n=98 v=64
26160 On ch=2 n=62 v=100
26160 On ch=2 n=75 v=100
26160 On ch=2 n=87 v=100
26160 On ch=2 n=100 v=100
26280 Off ch=2 n=62 v=64
26700 Off ch=2 n=75 v=64
26760 Off ch=2 n=87 v=64
26820 Off ch=2 n=100 v=64
26880 On ch=2 n=60 v=100
26880 On ch=2 n=72 v=100
26880 On ch=2 n=84 v=100
26880 On ch=2 n=96 v=100
28440 Off ch=2 n=60 v=64
28620 Off ch=2 n=72 v=64
28679 Off ch=2 n=45 v=64
28680 Off ch=2 n=84 v=64
28740 Off ch=2 n=96 v=64
28800 Off ch=2 n=105 v=64
28800 On ch=2 n=47 v=100
28800 On ch=2 n=61 v=100
28800 On ch=2 n=74 v=100
28800 On ch=2 n=86 v=100
28800 On ch=2 n=98 v=100
28800 On ch=2 n=106 v=100
28920 Off ch=2 n=61 v=64
29820 Off ch=2 n=74 v=64
29880 Off ch=2 n=86 v=64
29940 Off ch=2 n=98 v=64
30000 On ch=2 n=62 v=100
30000 On ch=2 n=75 v=100
30000 On ch=2 n=88 v=100
30000 On ch=2 n=100 v=100
30120 Off ch=2 n=62 v=64
30540 Off ch=2 n=75 v=64
30600 Off ch=2 n=47 v=64
30600 Off ch=2 n=88 v=64
30660 Off ch=2 n=100 v=64
30720 On ch=2 n=43 v=100
30720 On ch=2 n=60 v=100
30720 On ch=2 n=73 v=100
30720 On ch=2 n=85 v=100
30720 On ch=2 n=97 v=100
30720 On ch=2 n=116 v=100
30840 Off ch=2 n=60 v=64
31740 Off ch=2 n=73 v=64
31800 Off ch=2 n=85 v=64
31860 Off ch=2 n=97 v=64
31920 On ch=2 n=62 v=100
31920 On ch=2 n=74 v=100
31920 On ch=2 n=87 v=100
31920 On ch=2 n=99 v=100
32040 Off ch=2 n=62 v=64
32460 Off ch=2 n=74 v=64
32520 Off ch=2 n=43 v=64
32520 Off ch=2 n=87 v=64
32580 Off ch=2 n=99 v=64
32640 Off ch=2 n=116 v=64
32640 On ch=2 n=45 v=100
32640 On ch=2 n=61 v=100
32640 On ch=2 n=73 v=100
32640 On ch=2 n=86 v=100
32640 On ch=2 n=98 v=100
32760 Off ch=2 n=61 v=64
33660 Off ch=2 n=73 v=64
33720 Off ch=2 n=86 v=64
33780 Off ch=2 n=98 v=64
33840 On ch=2 n=62 v=100
33840 On ch=2 n=75 v=100
33840 On ch=2 n=87 v=100
33840 On ch=2 n=100 v=100
33960 Off ch=2 n=62 v=64
34380 Off ch=2 n=75 v=64
34440 Off ch=2 n=87 v=64
34500 Off ch=2 n=100 v=64
34560 On ch=2 n=60 v=100
34560 On ch=2 n=72 v=100
34560 On ch=2 n=84 v=100
34560 On ch=2 n=96 v=100
35843 Off ch=2 n=45 v=64
36000 Meta Text "[map HandMap_Default]"
36120 Off ch=2 n=60 v=64
36180 Off ch=2 n=72 v=64
36240 Off ch=2 n=84 v=64
36240 On ch=2 n=52 v=100
36300 Off ch=2 n=96 v=64
36480 Off ch=2 n=106 v=64
36480 On ch=2 n=60 v=100
36480 On ch=2 n=72 v=100
36480 On ch=2 n=84 v=100
36480 On ch=2 n=96 v=100
36480 On ch=2 n=105 v=100
36480 On ch=2 n=116 v=100
36600 Off ch=2 n=60 v=64
37020 Off ch=2 n=72 v=64
37080 Off ch=2 n=84 v=64
37140 Off ch=2 n=96 v=64
37200 On ch=2 n=61 v=100
37200 On ch=2 n=74 v=100
37200 On ch=2 n=86 v=100
37200 On ch=2 n=98 v=100
37320 Off ch=2 n=61 v=64
37320 Off ch=2 n=74 v=64
37560 Off ch=2 n=86 v=64
37620 Off ch=2 n=98 v=64
37680 On ch=2 n=72 v=100
37680 On ch=2 n=84 v=100
37680 On ch=2 n=96 v=100
37800 Off ch=2 n=72 v=64
37800 Off ch=2 n=84 v=64
37800 Off ch=2 n=96 v=64
37920 On ch=2 n=61 v=100
37920 On ch=2 n=74 v=100
37920 On ch=2 n=86 v=100
37920 On ch=2 n=98 v=100
38040 Off ch=2 n=61 v=64
38040 Off ch=2 n=74 v=64
38040 Off ch=2 n=86 v=64
38040 Off ch=2 n=98 v=64
38160 On ch=2 n=84 v=100
38160 On ch=2 n=96 v=100
38276 Off ch=2 n=52 v=64
38280 Off ch=2 n=84 v=64
38280 Off ch=2 n=96 v=64
38400 On ch=2 n=55 v=100
38400 On ch=2 n=60 v=100
38400 On ch=2 n=73 v=100
38400 On ch=2 n=85 v=100
38400 On ch=2 n=97 v=100
38520 Off ch=2 n=60 v=64
38520 Off ch=2 n=73 v=64
39000 Off ch=2 n=116 v=64
39000 Off ch=2 n=85 v=64
39060 Off ch=2 n=97 v=64
39120 On ch=2 n=62 v=100
39120 On ch=2 n=74 v=100
39120 On ch=2 n=87 v=100
39120 On ch=2 n=99 v=100
39240 Off ch=2 n=62 v=64
39240 Off ch=2 n=74 v=64
39480 Off ch=2 n=87 v=64
39540 Off ch=2 n=99 v=64
39600 On ch=2 n=73 v=100
39600 On ch=2 n=85 v=100
39600 On ch=2 n=97 v=100
39720 Off ch=2 n=73 v=64
39720 Off ch=2 n=85 v=64
39720 Off ch=2 n=97 v=64
39840 On ch=2 n=62 v=100
39840 On ch=2 n=74 v=100
39840 On ch=2 n=87 v=100
39840 On ch=2 n=99 v=100
39960 Off ch=2 n=62 v=64
39960 Off ch=2 n=74 v=64
39960 Off ch=2 n=87 v=64
39960 Off ch=2 n=99 v=64
40080 On ch=2 n=85 v=100
40080 On ch=2 n=97 v=100
40200 Off ch=2 n=55 v=64
40200 Off ch=2 n=85 v=64
40200 Off ch=2 n=97 v=64
40320 On ch=2 n=57 v=100
40320 On ch=2 n=61 v=100
40320 On ch=2 n=74 v=100
40320 On ch=2 n=86 v=100
40320 On ch=2 n=98 v=100
40440 Off ch=2 n=61 v=64
40440 Off ch=2 n=74 v=64
40920 Off ch=2 n=86 v=64
40980 Off ch=2 n=98 v=64
41040 On ch=2 n=62 v=100
41040 On ch=2 n=75 v=100
41040 On ch=2 n=87 v=100
41040 On ch=2 n=100 v=100
41160 Off ch=2 n=62 v=64
41160 Off ch=2 n=75 v=64
41400 Off ch=2 n=87 v=64
41460 Off ch=2 n=100 v=64
41520 On ch=2 n=74 v=100
41520 On ch=2 n=86 v=100
41520 On ch=2 n=98 v=100
41640 Off ch=2 n=74 v=64
41640 Off ch=2 n=86 v=64
41640 Off ch=2 n=98 v=64
41760 On ch=2 n=62 v=100
41760 On ch=2 n=75 v=100
41760 On ch=2 n=87 v=100
41760 On ch=2 n=100 v=100
41880 Off ch=2 n=62 v=64
41880 Off ch=2 n=75 v=64
41880 Off ch=2 n=87 v=64
41880 Off ch=2 n=100 v=64
42000 On ch=2 n=86 v=100
42000 On ch=2 n=98 v=100
42120 Off ch=2 n=57 v=64
42120 Off ch=2 n=86 v=64
42120 Off ch=2 n=98 v=64
42240 On ch=2 n=52 v=100
42240 On ch=2 n=60 v=100
42240 On ch=2 n=72 v=100
42240 On ch=2 n=84 v=100
42240 On ch=2 n=96 v=100
42360 Off ch=2 n=60 v=64
42360 Off ch=2 n=72 v=64
42840 Off ch=2 n=84 v=64
42900 Off ch=2 n=96 v=64
42960 On ch=2 n=61 v=100
42960 On ch=2 n=74 v=100
42960 On ch=2 n=86 v=100
42960 On ch=2 n=98 v=100
43080 Off ch=2 n=61 v=64
43080 Off ch=2 n=74 v=64
43320 Off ch=2 n=86 v=64
43380 Off ch=2 n=98 v=64
43440 On ch=2 n=72 v=100
43440 On ch=2 n=84 v=100
43440 On ch=2 n=96 v=100
43560 Off ch=2 n=72 v=64
43560 Off ch=2 n=84 v=64
43560 Off ch=2 n=96 v=64
43680 On ch=2 n=61 v=100
43680 On ch=2 n=74 v=100
43680 On ch=2 n=86 v=100
43680 On ch=2 n=98 v=100
43800 Off ch=2 n=61 v=64
43800 Off ch=2 n=74 v=64
43800 Off ch=2 n=86 v=64
43800 Off ch=2 n=98 v=64
43920 On ch=2 n=84 v=100
43920 On ch=2 n=96 v=100
44040 Off ch=2 n=52 v=64
44040 Off ch=2 n=84 v=64
44040 Off ch=2 n=96 v=64
44160 Off ch=2 n=105 v=64
44160 On ch=2 n=52 v=100
44160 On ch=2 n=60 v=100
44160 On ch=2 n=72 v=100
44160 On ch=2 n=84 v=100
44160 On ch=2 n=96 v=100
44160 On ch=2 n=106 v=100
44280 Off ch=2 n=60 v=64
44280 Off ch=2 n=72 v=64
44760 Off ch=2 n=84 v=64
44820 Off ch=2 n=96 v=64
44880 On ch=2 n=61 v=100
44880 On ch=2 n=74 v=100
44880 On ch=2 n=86 v=100
44880 On ch=2 n=98 v=100
45000 Off ch=2 n=61 v=64
45000 Off ch=2 n=74 v=64
45240 Off ch=2 n=86 v=64
45300 Off ch=2 n=98 v=64
45360 On ch=2 n=72 v=100
45360 On ch=2 n=84 v=100
45360 On ch=2 n=96 v=100
45480 Off ch=2 n=72 v=64
45480 Off ch=2 n=84 v=64
45480 Off ch=2 n=96 v=64
45600 On ch=2 n=61 v=100
45600 On ch=2 n=74 v=100
45600 On ch=2 n=86 v=100
45600 On ch=2 n=98 v=100
45720 Off ch=2 n=61 v=64
45720 Off ch=2 n=74 v=64
45720 Off ch=2 n=86 v=64
45720 Off ch=2 n=98 v=64
45840 On ch=2 n=84 v=100
45840 On ch=2 n=96 v=100
45960 Off ch=2 n=52 v=64
45960 Off ch=2 n=84 v=64
45960 Off ch=2 n=96 v=64
46080 On ch=2 n=55 v=100
46080 On ch=2 n=60 v=100
46080 On ch=2 n=73 v=100
46080 On ch=2 n=85 v=100
46080 On ch=2 n=97 v=100
46200 Off ch=2 n=60 v=64
46200 Off ch=2 n=73 v=64
46680 Off ch=2 n=85 v=64
46740 Off ch=2 n=97 v=64
46800 On ch=2 n=62 v=100
46800 On ch=2 n=74 v=100
46800 On ch=2 n=87 v=100
46800 On ch=2 n=99 v=100
46920 Off ch=2 n=62 v=64
46920 Off ch=2 n=74 v=64
47160 Off ch=2 n=87 v=64
47220 Off ch=2 n=99 v=64
47280 On ch=2 n=73 v=100
47280 On ch=2 n=85 v=100
47280 On ch=2 n=97 v=100
47400 Off ch=2 n=73 v=64
47400 Off ch=2 n=85 v=64
47400 Off ch=2 n=97 v=64
47520 On ch=2 n=62 v=100
47520 On ch=2 n=74 v=100
47520 On ch=2 n=87 v=100
47520 On ch=2 n=99 v=100
47640 Off ch=2 n=62 v=64
47640 Off ch=2 n=74 v=64
47640 Off ch=2 n=87 v=64
47640 Off ch=2 n=99 v=64
47760 On ch=2 n=85 v=100
47760 On ch=2 n=97 v=100
47880 Off ch=2 n=55 v=64
47880 Off ch=2 n=85 v=64
47880 Off ch=2 n=97 v=64
48000 On ch=2 n=57 v=100
48000 On ch=2 n=61 v=100
48000 On ch=2 n=74 v=100
48000 On ch=2 n=86 v=100
48000 On ch=2 n=98 v=100
48000 On ch=2 n=116 v=100
48120 Off ch=2 n=61 v=64
48120 Off ch=2 n=74 v=64
48600 Off ch=2 n=86 v=64
48660 Off ch=2 n=98 v=64
48720 On ch=2 n=62 v=100
48720 On ch=2 n=75 v=100
48720 On ch=2 n=87 v=100
48720 On ch=2 n=100 v=100
48840 Off ch=2 n=62 v=64
48840 Off ch=2 n=75 v=64
49080 Off ch=2 n=87 v=64
49140 Off ch=2 n=100 v=64
49200 On ch=2 n=74 v=100
49200 On ch=2 n=86 v=100
49200 On ch=2 n=98 v=100
49320 Off ch=2 n=74 v=64
49320 Off ch=2 n=86 v=64
49320 Off ch=2 n=98 v=64
49440 On ch=2 n=62 v=100
49440 On ch=2 n=75 v=100
49440 On ch=2 n=87 v=100
49440 On ch=2 n=100 v=100
49560 Off ch=2 n=62 v=64
49560 Off ch=2 n=75 v=64
49560 Off ch=2 n=87 v=64
49560 Off ch=2 n=100 v=64
49680 On ch=2 n=86 v=100
49680 On ch=2 n=98 v=100
49800 Off ch=2 n=57 v=64
49800 Off ch=2 n=86 v=64
49800 Off ch=2 n=98 v=64
49920 Off ch=2 n=116 v=64
49920 On ch=2 n=52 v=100
49920 On ch=2 n=60 v=100
49920 On ch=2 n=72 v=100
49920 On ch=2 n=84 v=100
49920 On ch=2 n=96 v=100
50040 Off ch=2 n=60 v=64
50040 Off ch=2 n=72 v=64
50520 Off ch=2 n=84 v=64
50580 Off ch=2 n=96 v=64
50640 On ch=2 n=61 v=100
50640 On ch=2 n=74 v=100
50640 On ch=2 n=86 v=100
50640 On ch=2 n=98 v=100
50760 Off ch=2 n=61 v=64
50760 Off ch=2 n=74 v=64
51000 Off ch=2 n=86 v=64
51060 Off ch=2 n=98 v=64
51120 On ch=2 n=72 v=100
51120 On ch=2 n=84 v=100
51120 On ch=2 n=96 v=100
51240 Off ch=2 n=72 v=64
51240 Off ch=2 n=84 v=64
51240 Off ch=2 n=96 v=64
51360 On ch=2 n=61 v=100
51360 On ch=2 n=74 v=100
51360 On ch=2 n=86 v=100
51360 On ch=2 n=98 v=100
51480 Off ch=2 n=61 v=64
51480 Off ch=2 n=74 v=64
51480 Off ch=2 n=86 v=64
51480 Off ch=2 n=98 v=64
51600 On ch=2 n=84 v=100
51600 On ch=2 n=96 v=100
51720 Off ch=2 n=52 v=64
51720 Off ch=2 n=84 v=64
51720 Off ch=2 n=96 v=64
51720 Meta Text "[map HandMap_DropD2]"
51840 Off ch=2 n=106 v=64
51840 On ch=2 n=47 v=100
51840 On ch=2 n=61 v=100
51840 On ch=2 n=74 v=100
51840 On ch=2 n=86 v=100
51840 On ch=2 n=98 v=100
51840 On ch=2 n=105 v=100
51840 On ch=2 n=116 v=100
51960 Off ch=2 n=61 v=64
52860 Off ch=2 n=74 v=64
52920 Off ch=2 n=86 v=64
52980 Off ch=2 n=98 v=64
53040 On ch=2 n=62 v=100
53040 On ch=2 n=75 v=100
53040 On ch=2 n=88 v=100
53040 On ch=2 n=100 v=100
53160 Off ch=2 n=62 v=64
53580 Off ch=2 n=75 v=64
53640 Off ch=2 n=47 v=64
53640 Off ch=2 n=88 v=64
53700 Off ch=2 n=100 v=64
53760 On ch=2 n=43 v=100
53760 On ch=2 n=60 v=100
53760 On ch=2 n=73 v=100
53760 On ch=2 n=85 v=100
53760 On ch=2 n=97 v=100
53880 Off ch=2 n=116 v=64
53880 Off ch=2 n=60 v=64
54780 Off ch=2 n=73 v=64
54840 Off ch=2 n=85 v=64
54900 Off ch=2 n=97 v=64
54960 On ch=2 n=62 v=100
54960 On ch=2 n=74 v=100
54960 On ch=2 n=87 v=100
54960 On ch=2 n=99 v=100
55080 Off ch=2 n=62 v=64
55500 Off ch=2 n=74 v=64
55560 Off ch=2 n=43 v=64
55560 Off ch=2 n=87 v=64
55620 Off ch=2 n=99 v=64
55680 On ch=2 n=45 v=100
55680 On ch=2 n=61 v=100
55680 On ch=2 n=73 v=100
55680 On ch=2 n=86 v=100
55680 On ch=2 n=98 v=100
55800 Off ch=2 n=61 v=64
56700 Off ch=2 n=73 v=64
56760 Off ch=2 n=86 v=64
56820 Off ch=2 n=98 v=64
56880 On ch=2 n=62 v=100
56880 On ch=2 n=75 v=100
56880 On ch=2 n=87 v=100
56880 On ch=2 n=100 v=100
57000 Off ch=2 n=62 v=64
57420 Off ch=2 n=75 v=64
57480 Off ch=2 n=87 v=64
57540 Off ch=2 n=100 v=64
57600 On ch=2 n=60 v=100
57600 On ch=2 n=72 v=100
57600 On ch=2 n=84 v=100
57600 On ch=2 n=96 v=100
59160 Off ch=2 n=60 v=64
59340 Off ch=2 n=72 v=64
59388 Off ch=2 n=45 v=64
59400 Off ch=2 n=84 v=64
59460 Off ch=2 n=96 v=64
59520 Off ch=2 n=105 v=64
59520 On ch=2 n=47 v=100
59520 On ch=2 n=61 v=100
59520 On ch=2 n=74 v=100
59520 On ch=2 n=86 v=100
59520 On ch=2 n=98 v=100
59520 On ch=2 n=106 v=100
59640 Off ch=2 n=61 v=64
60540 Off ch=2 n=74 v=64
60600 Off ch=2 n=86 v=64
60660 Off ch=2 n=98 v=64
60720 On ch=2 n=62 v=100
60720 On ch=2 n=75 v=100
60720 On ch=2 n=88 v=100
60720 On ch=2 n=100 v=100
60840 Off ch=2 n=62 v=64
61260 Off ch=2 n=75 v=64
61320 Off ch=2 n=47 v=64
61320 Off ch=2 n=88 v=64
61380 Off ch=2 n=100 v=64
61440 On ch=2 n=43 v=100
61440 On ch=2 n=60 v=100
61440 On ch=2 n=73 v=100
61440 On ch=2 n=85 v=100
61440 On ch=2 n=97 v=100
61560 Off ch=2 n=60 v=64
62460 Off ch=2 n=73 v=64
62520 Off ch=2 n=85 v=64
62580 Off ch=2 n=97 v=64
62640 On ch=2 n=62 v=100
62640 On ch=2 n=74 v=100
62640 On ch=2 n=87 v=100
62640 On ch=2 n=99 v=100
62760 Off ch=2 n=62 v=64
63180 Off ch=2 n=74 v=64
63240 Off ch=2 n=43 v=64
63240 Off ch=2 n=87 v=64
63300 Off ch=2 n=99 v=64
63360 On ch=2 n=45 v=100
63360 On ch=2 n=61 v=100
63360 On ch=2 n=73 v=100
63360 On ch=2 n=86 v=100
63360 On ch=2 n=98 v=100
63480 Off ch=2 n=61 v=64
64380 Off ch=2 n=73 v=64
64440 Off ch=2 n=86 v=64
64500 Off ch=2 n=98 v=64
64560 On ch=2 n=62 v=100
64560 On ch=2 n=75 v=100
64560 On ch=2 n=87 v=100
64560 On ch=2 n=100 v=100
64680 Off ch=2 n=62 v=64
65100 Off ch=2 n=75 v=64
65160 Off ch=2 n=87 v=64
65220 Off ch=2 n=100 v=64
65280 On ch=2 n=60 v=100
65280 On ch=2 n=72 v=100
65280 On ch=2 n=84 v=100
65280 On ch=2 n=96 v=100
66960 Off ch=2 n=60 v=64
66960 Off ch=2 n=72 v=64
66960 Off ch=2 n=84 v=64
66960 Off ch=2 n=96 v=64
67106 Off ch=2 n=45 v=64
67200 Off ch=2 n=106 v=64
67200 Meta Text "[idle_realtime]"
67200 Meta TrkEnd
TrkEnd
MTrk
0 Meta TrkName "PART GUITAR"
1440 Meta Text "[idle_realtime] "
5760 Meta Text "[play]"
5760 Meta Text "[map HandMap_chord_A]"
5760 On ch=3 n=50 v=100
5760 On ch=3 n=62 v=100
5760 On ch=3 n=74 v=100
5760 On ch=3 n=86 v=100
5760 On ch=3 n=87 v=100
5760 On ch=3 n=98 v=100
5760 On ch=3 n=99 v=100
5760 On ch=3 n=105 v=100
5880 Off ch=3 n=62 v=64
5880 Off ch=3 n=74 v=64
5880 Off ch=3 n=86 v=64
5880 Off ch=3 n=87 v=64
5880 Off ch=3 n=98 v=64
5880 Off ch=3 n=99 v=64
6000 On ch=3 n=73 v=100
6000 On ch=3 n=85 v=100
6000 On ch=3 n=98 v=100
6120 Off ch=3 n=73 v=64
6120 Off ch=3 n=85 v=64
6120 Off ch=3 n=98 v=64
6240 On ch=3 n=60 v=100
6240 On ch=3 n=72 v=100
6240 On ch=3 n=84 v=100
6240 On ch=3 n=96 v=100
6240 On ch=3 n=97 v=100
6360 Off ch=3 n=60 v=64
6360 Off ch=3 n=72 v=64
6360 Off ch=3 n=84 v=64
6360 Off ch=3 n=96 v=64
6360 Off ch=3 n=97 v=64
6480 On ch=3 n=62 v=100
6480 On ch=3 n=74 v=100
6480 On ch=3 n=86 v=100
6480 On ch=3 n=87 v=100
6480 On ch=3 n=98 v=100
6480 On ch=3 n=99 v=100
6600 Off ch=3 n=62 v=64
6600 Off ch=3 n=74 v=64
6600 Off ch=3 n=86 v=64
6600 Off ch=3 n=87 v=64
6600 Off ch=3 n=98 v=64
6600 Off ch=3 n=99 v=64
6960 On ch=3 n=62 v=100
6960 On ch=3 n=73 v=100
6960 On ch=3 n=74 v=100
6960 On ch=3 n=86 v=100
6960 On ch=3 n=87 v=100
6960 On ch=3 n=98 v=100
6960 On ch=3 n=99 v=100
7080 Off ch=3 n=62 v=64
7080 Off ch=3 n=73 v=64
7080 Off ch=3 n=74 v=64
7080 Off ch=3 n=86 v=64
7080 Off ch=3 n=87 v=64
7080 Off ch=3 n=98 v=64
7080 Off ch=3 n=99 v=64
7200 On ch=3 n=86 v=100
7200 On ch=3 n=98 v=100
7320 Off ch=3 n=50 v=64
7320 Off ch=3 n=86 v=64
7320 Off ch=3 n=98 v=64
7440 On ch=3 n=46 v=100
7440 On ch=3 n=61 v=100
7440 On ch=3 n=72 v=100
7440 On ch=3 n=73 v=100
7440 On ch=3 n=84 v=100
7440 On ch=3 n=85 v=100
7440 On ch=3 n=97 v=100
7440 On ch=3 n=98 v=100
7560 Off ch=3 n=61 v=64
7560 Off ch=3 n=72 v=64
7560 Off ch=3 n=73 v=64
7560 Off ch=3 n=84 v=64
7560 Off ch=3 n=85 v=64
7560 Off ch=3 n=97 v=64
7560 Off ch=3 n=98 v=64
7680 On ch=3 n=61 v=100
7680 On ch=3 n=73 v=100
7680 On ch=3 n=85 v=100
7680 On ch=3 n=97 v=100
9360 Off ch=3 n=61 v=64
9480 Off ch=3 n=46 v=64
9480 Off ch=3 n=73 v=64
9480 Off ch=3 n=85 v=64
9480 Off ch=3 n=97 v=64
9600 Off ch=3 n=105 v=64
9600 On ch=3 n=50 v=100
9600 On ch=3 n=62 v=100
9600 On ch=3 n=74 v=100
9600 On ch=3 n=85 v=100
9600 On ch=3 n=87 v=100
9600 On ch=3 n=97 v=100
9600 On ch=3 n=99 v=100
9600 On ch=3 n=106 v=100
9600 On ch=3 n=116 v=100
9720 Off ch=3 n=62 v=64
9720 Off ch=3 n=74 v=64
9720 Off ch=3 n=85 v=64
9720 Off ch=3 n=87 v=64
9720 Off ch=3 n=97 v=64
9720 Off ch=3 n=99 v=64
9840 On ch=3 n=73 v=100
9840 On ch=3 n=86 v=100
9840 On ch=3 n=98 v=100
9960 Off ch=3 n=73 v=64
9960 Off ch=3 n=86 v=64
9960 Off ch=3 n=98 v=64
10080 On ch=3 n=60 v=100
10080 On ch=3 n=72 v=100
10080 On ch=3 n=84 v=100
10080 On ch=3 n=96 v=100
10080 On ch=3 n=98 v=100
10200 Off ch=3 n=60 v=64
10200 Off ch=3 n=72 v=64
10200 Off ch=3 n=84 v=64
10200 Off ch=3 n=96 v=64
10200 Off ch=3 n=98 v=64
10320 On ch=3 n=61 v=100
10320 On ch=3 n=74 v=100
10320 On ch=3 n=85 v=100
10320 On ch=3 n=87 v=100
10320 On ch=3 n=97 v=100
10320 On ch=3 n=99 v=100
10440 Off ch=3 n=61 v=64
10440 Off ch=3 n=74 v=64
10440 Off ch=3 n=85 v=64
10440 Off ch=3 n=87 v=64
10440 Off ch=3 n=97 v=64
10440 Off ch=3 n=99 v=64
10560 On ch=3 n=85 v=100
10560 On ch=3 n=97 v=100
10680 Off ch=3 n=85 v=64
10680 Off ch=3 n=97 v=64
10800 On ch=3 n=61 v=100
10800 On ch=3 n=72 v=100
10800 On ch=3 n=74 v=100
10800 On ch=3 n=85 v=100
10800 On ch=3 n=87 v=100
10800 On ch=3 n=97 v=100
10800 On ch=3 n=99 v=100
10920 Off ch=3 n=61 v=64
10920 Off ch=3 n=72 v=64
10920 Off ch=3 n=74 v=64
10920 Off ch=3 n=85 v=64
10920 Off ch=3 n=87 v=64
10920 Off ch=3 n=97 v=64
10920 Off ch=3 n=99 v=64
11040 On ch=3 n=85 v=100
11040 On ch=3 n=97 v=100
11160 Off ch=3 n=50 v=64
11160 Off ch=3 n=85 v=64
11160 Off ch=3 n=97 v=64
11280 Meta Text "[map HandMap_Chord_D]"
11280 On ch=3 n=52 v=100
11280 On ch=3 n=62 v=100
11280 On ch=3 n=75 v=100
11280 On ch=3 n=88 v=100
11280 On ch=3 n=99 v=100
11280 On ch=3 n=100 v=100
11400 Off ch=3 n=62 v=64
11400 Off ch=3 n=75 v=64
11400 Off ch=3 n=88 v=64
11400 Off ch=3 n=99 v=64
11400 Off ch=3 n=100 v=64
11520 Off ch=3 n=116 v=64
11520 Meta Text "[map HandMap_DropD]"
11520 On ch=3 n=60 v=100
11520 On ch=3 n=72 v=100
11520 On ch=3 n=84 v=100
11520 On ch=3 n=96 v=100
13200 Off ch=3 n=60 v=64
13320 Off ch=3 n=52 v=64
13320 Off ch=3 n=72 v=64
13320 Off ch=3 n=84 v=64
13320 Off ch=3 n=96 v=64
13440 Off ch=3 n=106 v=64
13440 Meta Text "[map HandMap_chord_A]"
13440 On ch=3 n=50 v=100
13440 On ch=3 n=62 v=100
13440 On ch=3 n=74 v=100
13440 On ch=3 n=86 v=100
13440 On ch=3 n=87 v=100
13440 On ch=3 n=98 v=100
13440 On ch=3 n=99 v=100
13440 On ch=3 n=105 v=100
13560 Off ch=3 n=62 v=64
13560 Off ch=3 n=74 v=64
13560 Off ch=3 n=86 v=64
13560 Off ch=3 n=87 v=64
13560 Off ch=3 n=98 v=64
13560 Off ch=3 n=99 v=64
13680 On ch=3 n=73 v=100
13680 On ch=3 n=85 v=100
13680 On ch=3 n=98 v=100
13800 Off ch=3 n=73 v=64
13800 Off ch=3 n=85 v=64
13800 Off ch=3 n=98 v=64
13920 On ch=3 n=60 v=100
13920 On ch=3 n=72 v=100
13920 On ch=3 n=84 v=100
13920 On ch=3 n=96 v=100
13920 On ch=3 n=97 v=100
14040 Off ch=3 n=60 v=64
14040 Off ch=3 n=72 v=64
14040 Off ch=3 n=84 v=64
14040 Off ch=3 n=96 v=64
14040 Off ch=3 n=97 v=64
14160 On ch=3 n=62 v=100
14160 On ch=3 n=74 v=100
14160 On ch=3 n=86 v=100
14160 On ch=3 n=87 v=100
14160 On ch=3 n=98 v=100
14160 On ch=3 n=99 v=100
14280 Off ch=3 n=62 v=64
14280 Off ch=3 n=74 v=64
14280 Off ch=3 n=86 v=64
14280 Off ch=3 n=87 v=64
14280 Off ch=3 n=98 v=64
14280 Off ch=3 n=99 v=64
14640 On ch=3 n=62 v=100
14640 On ch=3 n=73 v=100
14640 On ch=3 n=74 v=100
14640 On ch=3 n=86 v=100
14640 On ch=3 n=87 v=100
14640 On ch=3 n=98 v=100
14640 On ch=3 n=99 v=100
14760 Off ch=3 n=62 v=64
14760 Off ch=3 n=73 v=64
14760 Off ch=3 n=74 v=64
14760 Off ch=3 n=86 v=64
14760 Off ch=3 n=87 v=64
14760 Off ch=3 n=98 v=64
14760 Off ch=3 n=99 v=64
14880 On ch=3 n=86 v=100
14880 On ch=3 n=98 v=100
15000 Off ch=3 n=50 v=64
15000 Off ch=3 n=86 v=64
15000 Off ch=3 n=98 v=64
15120 On ch=3 n=46 v=100
15120 On ch=3 n=61 v=100
15120 On ch=3 n=72 v=100
15120 On ch=3 n=73 v=100
15120 On ch=3 n=85 v=100
15120 On ch=3 n=86 v=100
15120 On ch=3 n=97 v=100
15120 On ch=3 n=98 v=100
15240 Off ch=3 n=61 v=64
15240 Off ch=3 n=72 v=64
15240 Off ch=3 n=73 v=64
15240 Off ch=3 n=85 v=64
15240 Off ch=3 n=86 v=64
15240 Off ch=3 n=97 v=64
15240 Off ch=3 n=98 v=64
15360 On ch=3 n=61 v=100
15360 On ch=3 n=73 v=100
15360 On ch=3 n=85 v=100
15360 On ch=3 n=97 v=100
17040 Off ch=3 n=61 v=64
17160 Off ch=3 n=46 v=64
17160 Off ch=3 n=73 v=64
17160 Off ch=3 n=85 v=64
17160 Off ch=3 n=97 v=64
17280 Off ch=3 n=105 v=64
17280 On ch=3 n=50 v=100
17280 On ch=3 n=62 v=100
17280 On ch=3 n=74 v=100
17280 On ch=3 n=85 v=100
17280 On ch=3 n=87 v=100
17280 On ch=3 n=97 v=100
17280 On ch=3 n=99 v=100
17280 On ch=3 n=106 v=100
17400 Off ch=3 n=62 v=64
17400 Off ch=3 n=74 v=64
17400 Off ch=3 n=85 v=64
17400 Off ch=3 n=87 v=64
17400 Off ch=3 n=97 v=64
17400 Off ch=3 n=99 v=64
17520 On ch=3 n=73 v=100
17520 On ch=3 n=86 v=100
17520 On ch=3 n=98 v=100
17640 Off ch=3 n=73 v=64
17640 Off ch=3 n=86 v=64
17640 Off ch=3 n=98 v=64
17760 On ch=3 n=60 v=100
17760 On ch=3 n=72 v=100
17760 On ch=3 n=84 v=100
17760 On ch=3 n=96 v=100
17760 On ch=3 n=98 v=100
17880 Off ch=3 n=60 v=64
17880 Off ch=3 n=72 v=64
17880 Off ch=3 n=84 v=64
17880 Off ch=3 n=96 v=64
17880 Off ch=3 n=98 v=64
18000 On ch=3 n=61 v=100
18000 On ch=3 n=74 v=100
18000 On ch=3 n=85 v=100
18000 On ch=3 n=87 v=100
18000 On ch=3 n=97 v=100
18000 On ch=3 n=99 v=100
18120 Off ch=3 n=61 v=64
18120 Off ch=3 n=74 v=64
18120 Off ch=3 n=85 v=64
18120 Off ch=3 n=87 v=64
18120 Off ch=3 n=97 v=64
18120 Off ch=3 n=99 v=64
18240 On ch=3 n=85 v=100
18240 On ch=3 n=97 v=100
18360 Off ch=3 n=85 v=64
18360 Off ch=3 n=97 v=64
18480 On ch=3 n=61 v=100
18480 On ch=3 n=72 v=100
18480 On ch=3 n=74 v=100
18480 On ch=3 n=85 v=100
18480 On ch=3 n=87 v=100
18480 On ch=3 n=97 v=100
18480 On ch=3 n=99 v=100
18600 Off ch=3 n=61 v=64
18600 Off ch=3 n=72 v=64
18600 Off ch=3 n=74 v=64
18600 Off ch=3 n=85 v=64
18600 Off ch=3 n=87 v=64
18600 Off ch=3 n=97 v=64
18600 Off ch=3 n=99 v=64
18720 On ch=3 n=85 v=100
18720 On ch=3 n=97 v=100
18840 Off ch=3 n=50 v=64
18840 Off ch=3 n=85 v=64
18840 Off ch=3 n=97 v=64
18960 Meta Text "[map HandMap_Chord_D]"
18960 On ch=3 n=52 v=100
18960 On ch=3 n=62 v=100
18960 On ch=3 n=75 v=100
18960 On ch=3 n=88 v=100
18960 On ch=3 n=99 v=100
18960 On ch=3 n=100 v=100
19080 Off ch=3 n=62 v=64
19080 Off ch=3 n=75 v=64
19080 Off ch=3 n=88 v=64
19080 Off ch=3 n=99 v=64
19080 Off ch=3 n=100 v=64
19200 Meta Text "[map HandMap_DropD]"
19200 On ch=3 n=60 v=100
19200 On ch=3 n=72 v=100
19200 On ch=3 n=84 v=100
19200 On ch=3 n=96 v=100
20880 Off ch=3 n=52 v=64
20880 Off ch=3 n=60 v=64
20880 Off ch=3 n=72 v=64
21000 Off ch=3 n=84 v=64
21000 Off ch=3 n=96 v=64
21120 Off ch=3 n=106 v=64
21120 Meta Text "[map HandMap_chord_A]"
21120 On ch=3 n=50 v=100
21120 On ch=3 n=62 v=100
21120 On ch=3 n=74 v=100
21120 On ch=3 n=86 v=100
21120 On ch=3 n=87 v=100
21120 On ch=3 n=98 v=100
21120 On ch=3 n=99 v=100
21120 On ch=3 n=105 v=100
21120 On ch=3 n=116 v=100
21240 Off ch=3 n=62 v=64
21240 Off ch=3 n=74 v=64
21240 Off ch=3 n=86 v=64
21240 Off ch=3 n=87 v=64
21240 Off ch=3 n=98 v=64
21240 Off ch=3 n=99 v=64
21360 On ch=3 n=73 v=100
21360 On ch=3 n=85 v=100
21360 On ch=3 n=86 v=100
21360 On ch=3 n=98 v=100
21480 Off ch=3 n=73 v=64
21480 Off ch=3 n=85 v=64
21480 Off ch=3 n=86 v=64
21480 Off ch=3 n=98 v=64
21600 On ch=3 n=60 v=100
21600 On ch=3 n=72 v=100
21600 On ch=3 n=84 v=100
21600 On ch=3 n=85 v=100
21600 On ch=3 n=96 v=100
21600 On ch=3 n=97 v=100
21720 Off ch=3 n=60 v=64
21720 Off ch=3 n=72 v=64
21720 Off ch=3 n=84 v=64
21720 Off ch=3 n=85 v=64
21720 Off ch=3 n=96 v=64
21720 Off ch=3 n=97 v=64
21840 On ch=3 n=62 v=100
21840 On ch=3 n=73 v=100
21840 On ch=3 n=74 v=100
21840 On ch=3 n=86 v=100
21840 On ch=3 n=87 v=100
21840 On ch=3 n=98 v=100
21840 On ch=3 n=99 v=100
21960 Off ch=3 n=62 v=64
21960 Off ch=3 n=73 v=64
21960 Off ch=3 n=74 v=64
21960 Off ch=3 n=86 v=64
21960 Off ch=3 n=87 v=64
21960 Off ch=3 n=98 v=64
21960 Off ch=3 n=99 v=64
22080 On ch=3 n=86 v=100
22080 On ch=3 n=98 v=100
22200 Off ch=3 n=86 v=64
22200 Off ch=3 n=98 v=64
22320 On ch=3 n=62 v=100
22320 On ch=3 n=73 v=100
22320 On ch=3 n=74 v=100
22320 On ch=3 n=86 v=100
22320 On ch=3 n=87 v=100
22320 On ch=3 n=98 v=100
22320 On ch=3 n=99 v=100
22440 Off ch=3 n=62 v=64
22440 Off ch=3 n=73 v=64
22440 Off ch=3 n=74 v=64
22440 Off ch=3 n=86 v=64
22440 Off ch=3 n=87 v=64
22440 Off ch=3 n=98 v=64
22440 Off ch=3 n=99 v=64
22560 On ch=3 n=86 v=100
22560 On ch=3 n=98 v=100
22680 Off ch=3 n=50 v=64
22680 Off ch=3 n=86 v=64
22680 Off ch=3 n=98 v=64
22800 On ch=3 n=48 v=100
22800 On ch=3 n=61 v=100
22800 On ch=3 n=72 v=100
22800 On ch=3 n=73 v=100
22800 On ch=3 n=85 v=100
22800 On ch=3 n=86 v=100
22800 On ch=3 n=97 v=100
22800 On ch=3 n=98 v=100
22920 Off ch=3 n=61 v=64
22920 Off ch=3 n=72 v=64
22920 Off ch=3 n=73 v=64
22920 Off ch=3 n=85 v=64
22920 Off ch=3 n=86 v=64
22920 Off ch=3 n=97 v=64
22920 Off ch=3 n=98 v=64
23040 Off ch=3 n=116 v=64
23040 On ch=3 n=61 v=100
23040 On ch=3 n=73 v=100
23040 On ch=3 n=85 v=100
23040 On ch=3 n=97 v=100
24720 Off ch=3 n=61 v=64
24840 Off ch=3 n=73 v=64
24840 Off ch=3 n=85 v=64
24840 Off ch=3 n=97 v=64
24960 Off ch=3 n=105 v=64
24960 On ch=3 n=62 v=100
24960 On ch=3 n=74 v=100
24960 On ch=3 n=85 v=100
24960 On ch=3 n=87 v=100
24960 On ch=3 n=97 v=100
24960 On ch=3 n=99 v=100
24960 On ch=3 n=106 v=100
25080 Off ch=3 n=62 v=64
25080 Off ch=3 n=74 v=64
25080 Off ch=3 n=85 v=64
25080 Off ch=3 n=87 v=64
25080 Off ch=3 n=97 v=64
25080 Off ch=3 n=99 v=64
25200 On ch=3 n=73 v=100
25200 On ch=3 n=86 v=100
25200 On ch=3 n=98 v=100
25320 Off ch=3 n=73 v=64
25320 Off ch=3 n=86 v=64
25320 Off ch=3 n=98 v=64
25440 On ch=3 n=60 v=100
25440 On ch=3 n=72 v=100
25440 On ch=3 n=84 v=100
25440 On ch=3 n=86 v=100
25440 On ch=3 n=96 v=100
25440 On ch=3 n=98 v=100
25560 Off ch=3 n=60 v=64
25560 Off ch=3 n=72 v=64
25560 Off ch=3 n=84 v=64
25560 Off ch=3 n=86 v=64
25560 Off ch=3 n=96 v=64
25560 Off ch=3 n=98 v=64
25680 On ch=3 n=61 v=100
25680 On ch=3 n=72 v=100
25680 On ch=3 n=74 v=100
25680 On ch=3 n=85 v=100
25680 On ch=3 n=87 v=100
25680 On ch=3 n=97 v=100
25680 On ch=3 n=99 v=100
25800 Off ch=3 n=61 v=64
25800 Off ch=3 n=72 v=64
25800 Off ch=3 n=74 v=64
25800 Off ch=3 n=85 v=64
25800 Off ch=3 n=87 v=64
25800 Off ch=3 n=97 v=64
25800 Off ch=3 n=99 v=64
25920 On ch=3 n=85 v=100
25920 On ch=3 n=97 v=100
26040 Off ch=3 n=85 v=64
26040 Off ch=3 n=97 v=64
26160 On ch=3 n=61 v=100
26160 On ch=3 n=72 v=100
26160 On ch=3 n=74 v=100
26160 On ch=3 n=85 v=100
26160 On ch=3 n=87 v=100
26160 On ch=3 n=97 v=100
26160 On ch=3 n=99 v=100
26280 Off ch=3 n=61 v=64
26280 Off ch=3 n=72 v=64
26280 Off ch=3 n=74 v=64
26280 Off ch=3 n=85 v=64
26280 Off ch=3 n=87 v=64
26280 Off ch=3 n=97 v=64
26280 Off ch=3 n=99 v=64
26400 On ch=3 n=85 v=100
26400 On ch=3 n=97 v=100
26520 Off ch=3 n=48 v=64
26520 Off ch=3 n=85 v=64
26520 Off ch=3 n=97 v=64
26640 Meta Text "[map HandMap_Chord_D]"
26640 On ch=3 n=51 v=100
26640 On ch=3 n=61 v=100
26640 On ch=3 n=62 v=100
26640 On ch=3 n=74 v=100
26640 On ch=3 n=75 v=100
26640 On ch=3 n=86 v=100
26640 On ch=3 n=98 v=100
26640 On ch=3 n=99 v=100
26760 Off ch=3 n=61 v=64
26760 Off ch=3 n=62 v=64
26760 Off ch=3 n=74 v=64
26760 Off ch=3 n=75 v=64
26760 Off ch=3 n=86 v=64
26760 Off ch=3 n=98 v=64
26760 Off ch=3 n=99 v=64
26880 On ch=3 n=62 v=100
26880 On ch=3 n=75 v=100
26880 On ch=3 n=86 v=100
26880 On ch=3 n=87 v=100
26880 On ch=3 n=98 v=100
26880 On ch=3 n=100 v=100
28560 Off ch=3 n=51 v=64
28560 Off ch=3 n=62 v=64
28680 Off ch=3 n=75 v=64
28680 Off ch=3 n=86 v=64
28680 Off ch=3 n=87 v=64
28680 Off ch=3 n=98 v=64
28680 Off ch=3 n=100 v=64
28800 Off ch=3 n=106 v=64
28800 Meta Text "[map HandMap_chord_A] "
28800 On ch=3 n=50 v=100
28800 On ch=3 n=62 v=100
28800 On ch=3 n=74 v=100
28800 On ch=3 n=86 v=100
28800 On ch=3 n=87 v=100
28800 On ch=3 n=98 v=100
28800 On ch=3 n=99 v=100
28800 On ch=3 n=105 v=100
28800 On ch=3 n=116 v=100
28920 Off ch=3 n=62 v=64
28920 Off ch=3 n=74 v=64
28920 Off ch=3 n=86 v=64
28920 Off ch=3 n=87 v=64
28920 Off ch=3 n=98 v=64
28920 Off ch=3 n=99 v=64
29040 On ch=3 n=73 v=100
29040 On ch=3 n=85 v=100
29040 On ch=3 n=98 v=100
29160 Off ch=3 n=73 v=64
29160 Off ch=3 n=85 v=64
29160 Off ch=3 n=98 v=64
29280 On ch=3 n=60 v=100
29280 On ch=3 n=72 v=100
29280 On ch=3 n=84 v=100
29280 On ch=3 n=96 v=100
29280 On ch=3 n=97 v=100
29400 Off ch=3 n=60 v=64
29400 Off ch=3 n=72 v=64
29400 Off ch=3 n=84 v=64
29400 Off ch=3 n=96 v=64
29400 Off ch=3 n=97 v=64
29520 On ch=3 n=62 v=100
29520 On ch=3 n=74 v=100
29520 On ch=3 n=86 v=100
29520 On ch=3 n=87 v=100
29520 On ch=3 n=98 v=100
29520 On ch=3 n=99 v=100
29640 Off ch=3 n=62 v=64
29640 Off ch=3 n=74 v=64
29640 Off ch=3 n=86 v=64
29640 Off ch=3 n=87 v=64
29640 Off ch=3 n=98 v=64
29640 Off ch=3 n=99 v=64
30000 On ch=3 n=62 v=100
30000 On ch=3 n=73 v=100
30000 On ch=3 n=74 v=100
30000 On ch=3 n=86 v=100
30000 On ch=3 n=87 v=100
30000 On ch=3 n=98 v=100
30000 On ch=3 n=99 v=100
30120 Off ch=3 n=62 v=64
30120 Off ch=3 n=73 v=64
30120 Off ch=3 n=74 v=64
30120 Off ch=3 n=86 v=64
30120 Off ch=3 n=87 v=64
30120 Off ch=3 n=98 v=64
30120 Off ch=3 n=99 v=64
30240 On ch=3 n=86 v=100
30240 On ch=3 n=98 v=100
30360 Off ch=3 n=50 v=64
30360 Off ch=3 n=86 v=64
30360 Off ch=3 n=98 v=64
30480 On ch=3 n=46 v=100
30480 On ch=3 n=61 v=100
30480 On ch=3 n=72 v=100
30480 On ch=3 n=73 v=100
30480 On ch=3 n=85 v=100
30480 On ch=3 n=86 v=100
30480 On ch=3 n=97 v=100
30480 On ch=3 n=98 v=100
30600 Off ch=3 n=61 v=64
30600 Off ch=3 n=72 v=64
30600 Off ch=3 n=73 v=64
30600 Off ch=3 n=85 v=64
30600 Off ch=3 n=86 v=64
30600 Off ch=3 n=97 v=64
30600 Off ch=3 n=98 v=64
30720 Off ch=3 n=116 v=64
30720 On ch=3 n=61 v=100
30720 On ch=3 n=73 v=100
30720 On ch=3 n=85 v=100
30720 On ch=3 n=97 v=100
32400 Off ch=3 n=61 v=64
32520 Off ch=3 n=46 v=64
32520 Off ch=3 n=73 v=64
32520 Off ch=3 n=85 v=64
32520 Off ch=3 n=97 v=64
32640 On ch=3 n=50 v=100
32640 On ch=3 n=62 v=100
32640 On ch=3 n=74 v=100
32640 On ch=3 n=85 v=100
32640 On ch=3 n=87 v=100
32640 On ch=3 n=97 v=100
32640 On ch=3 n=99 v=100
32760 Off ch=3 n=62 v=64
32760 Off ch=3 n=74 v=64
32760 Off ch=3 n=85 v=64
32760 Off ch=3 n=87 v=64
32760 Off ch=3 n=97 v=64
32760 Off ch=3 n=99 v=64
32880 On ch=3 n=73 v=100
32880 On ch=3 n=86 v=100
32880 On ch=3 n=98 v=100
33000 Off ch=3 n=73 v=64
33000 Off ch=3 n=86 v=64
33000 Off ch=3 n=98 v=64
33120 On ch=3 n=60 v=100
33120 On ch=3 n=72 v=100
33120 On ch=3 n=84 v=100
33120 On ch=3 n=96 v=100
33120 On ch=3 n=98 v=100
33240 Off ch=3 n=60 v=64
33240 Off ch=3 n=72 v=64
33240 Off ch=3 n=84 v=64
33240 Off ch=3 n=96 v=64
33240 Off ch=3 n=98 v=64
33360 On ch=3 n=61 v=100
33360 On ch=3 n=74 v=100
33360 On ch=3 n=85 v=100
33360 On ch=3 n=87 v=100
33360 On ch=3 n=97 v=100
33360 On ch=3 n=99 v=100
33480 Off ch=3 n=61 v=64
33480 Off ch=3 n=74 v=64
33480 Off ch=3 n=85 v=64
33480 Off ch=3 n=87 v=64
33480 Off ch=3 n=97 v=64
33480 Off ch=3 n=99 v=64
33600 On ch=3 n=85 v=100
33600 On ch=3 n=97 v=100
33720 Off ch=3 n=85 v=64
33720 Off ch=3 n=97 v=64
33840 On ch=3 n=61 v=100
33840 On ch=3 n=72 v=100
33840 On ch=3 n=74 v=100
33840 On ch=3 n=85 v=100
33840 On ch=3 n=87 v=100
33840 On ch=3 n=97 v=100
33840 On ch=3 n=99 v=100
33960 Off ch=3 n=61 v=64
33960 Off ch=3 n=72 v=64
33960 Off ch=3 n=74 v=64
33960 Off ch=3 n=85 v=64
33960 Off ch=3 n=87 v=64
33960 Off ch=3 n=97 v=64
33960 Off ch=3 n=99 v=64
34080 On ch=3 n=85 v=100
34080 On ch=3 n=97 v=100
34200 Off ch=3 n=50 v=64
34200 Off ch=3 n=85 v=64
34200 Off ch=3 n=97 v=64
34320 Meta Text "[map HandMap_Chord_D]"
34320 On ch=3 n=52 v=100
34320 On ch=3 n=62 v=100
34320 On ch=3 n=75 v=100
34320 On ch=3 n=88 v=100
34320 On ch=3 n=99 v=100
34320 On ch=3 n=100 v=100
34440 Off ch=3 n=62 v=64
34440 Off ch=3 n=75 v=64
34440 Off ch=3 n=88 v=64
34440 Off ch=3 n=99 v=64
34440 Off ch=3 n=100 v=64
34560 Meta Text "[map HandMap_DropD]"
34560 On ch=3 n=60 v=100
34560 On ch=3 n=72 v=100
34560 On ch=3 n=84 v=100
34560 On ch=3 n=96 v=100
36240 Off ch=3 n=52 v=64
36240 Off ch=3 n=60 v=64
36240 Off ch=3 n=72 v=64
36360 Off ch=3 n=84 v=64
36360 Off ch=3 n=96 v=64
36480 Meta Text "[map HandMap_Chord_C]"
36480 On ch=3 n=51 v=100
36480 On ch=3 n=60 v=100
36480 On ch=3 n=72 v=100
36480 On ch=3 n=85 v=100
36480 On ch=3 n=97 v=100
36480 On ch=3 n=106 v=100
36480 On ch=3 n=116 v=100
36600 Off ch=3 n=85 v=64
36600 Off ch=3 n=97 v=64
36720 On ch=3 n=86 v=100
36720 On ch=3 n=99 v=100
36840 Off ch=3 n=86 v=64
36840 Off ch=3 n=99 v=64
36960 On ch=3 n=84 v=100
36960 On ch=3 n=96 v=100
37080 Off ch=3 n=96 v=64
37200 On ch=3 n=96 v=100
37200 On ch=3 n=97 v=100
37320 Off ch=3 n=96 v=64
37320 Off ch=3 n=97 v=64
37440 Off ch=3 n=60 v=64
37440 Off ch=3 n=72 v=64
37560 Off ch=3 n=51 v=64
37560 Off ch=3 n=84 v=64
37680 Meta Text "[map HandMap_Chord_A]"
37680 On ch=3 n=53 v=100
37680 On ch=3 n=61 v=100
37680 On ch=3 n=74 v=100
37680 On ch=3 n=87 v=100
37680 On ch=3 n=98 v=100
37680 On ch=3 n=99 v=100
37800 Off ch=3 n=61 v=64
37800 Off ch=3 n=74 v=64
37800 Off ch=3 n=87 v=64
37800 Off ch=3 n=98 v=64
37800 Off ch=3 n=99 v=64
37920 On ch=3 n=99 v=100
37920 On ch=3 n=100 v=100
38040 Off ch=3 n=99 v=64
38040 Off ch=3 n=100 v=64
38160 On ch=3 n=60 v=100
38160 On ch=3 n=73 v=100
38160 On ch=3 n=86 v=100
38160 On ch=3 n=96 v=100
38160 On ch=3 n=98 v=100
38280 Off ch=3 n=96 v=64
38280 Off ch=3 n=98 v=64
38400 On ch=3 n=97 v=100
38520 Off ch=3 n=97 v=64
38640 On ch=3 n=98 v=100
38640 On ch=3 n=99 v=100
38760 Off ch=3 n=98 v=64
38760 Off ch=3 n=99 v=64
39000 Off ch=3 n=116 v=64
39000 Off ch=3 n=86 v=64
39120 On ch=3 n=87 v=100
39120 On ch=3 n=98 v=100
39120 On ch=3 n=100 v=100
39240 Off ch=3 n=87 v=64
39240 Off ch=3 n=98 v=64
39240 Off ch=3 n=100 v=64
39600 Off ch=3 n=53 v=64
39600 Off ch=3 n=60 v=64
39600 Off ch=3 n=73 v=64
39600 On ch=3 n=86 v=100
39600 On ch=3 n=98 v=100
39600 On ch=3 n=99 v=100
39720 Off ch=3 n=86 v=64
39720 Off ch=3 n=98 v=64
39720 Off ch=3 n=99 v=64
39840 Meta Text "[map HandMap_Chord_D]"
39840 On ch=3 n=55 v=100
39840 On ch=3 n=62 v=100
39840 On ch=3 n=75 v=100
39840 On ch=3 n=88 v=100
39840 On ch=3 n=97 v=100
39840 On ch=3 n=100 v=100
39960 Off ch=3 n=62 v=64
39960 Off ch=3 n=75 v=64
39960 Off ch=3 n=88 v=64
39960 Off ch=3 n=97 v=64
39960 Off ch=3 n=100 v=64
40080 On ch=3 n=61 v=100
40080 On ch=3 n=74 v=100
40080 On ch=3 n=87 v=100
40080 On ch=3 n=99 v=100
40200 Off ch=3 n=99 v=64
40320 On ch=3 n=98 v=100
40800 Off ch=3 n=87 v=64
40920 Off ch=3 n=98 v=64
41040 On ch=3 n=88 v=100
41040 On ch=3 n=99 v=100
41040 On ch=3 n=100 v=100
41160 Off ch=3 n=88 v=64
41160 Off ch=3 n=99 v=64
41160 Off ch=3 n=100 v=64
41280 Off ch=3 n=55 v=64
41280 Off ch=3 n=61 v=64
41280 Off ch=3 n=74 v=64
41520 Meta Text "[map HandMap_Chord_C]"
41520 On ch=3 n=51 v=100
41520 On ch=3 n=61 v=100
41520 On ch=3 n=73 v=100
41520 On ch=3 n=85 v=100
41520 On ch=3 n=98 v=100
41520 On ch=3 n=99 v=100
41640 Off ch=3 n=61 v=64
41640 Off ch=3 n=73 v=64
41640 Off ch=3 n=85 v=64
41640 Off ch=3 n=98 v=64
41640 Off ch=3 n=99 v=64
41760 On ch=3 n=98 v=100
41880 Off ch=3 n=98 v=64
42000 On ch=3 n=60 v=100
42000 On ch=3 n=72 v=100
42000 On ch=3 n=84 v=100
42000 On ch=3 n=97 v=100
42420 Off ch=3 n=97 v=64
42480 On ch=3 n=98 v=100
42600 Off ch=3 n=98 v=64
42840 Off ch=3 n=84 v=64
42960 On ch=3 n=86 v=100
42960 On ch=3 n=97 v=100
42960 On ch=3 n=98 v=100
43080 Off ch=3 n=86 v=64
43080 Off ch=3 n=97 v=64
43080 Off ch=3 n=98 v=64
43200 On ch=3 n=87 v=100
43200 On ch=3 n=98 v=100
43200 On ch=3 n=99 v=100
43320 Off ch=3 n=87 v=64
43320 Off ch=3 n=98 v=64
43320 Off ch=3 n=99 v=64
43920 Off ch=3 n=60 v=64
44040 Off ch=3 n=72 v=64
44160 Off ch=3 n=105 v=64
44160 On ch=3 n=12 v=100
44160 On ch=3 n=60 v=100
44160 On ch=3 n=72 v=100
44160 On ch=3 n=85 v=100
44160 On ch=3 n=96 v=100
44160 On ch=3 n=97 v=100
44160 On ch=3 n=116 v=100
44280 Off ch=3 n=12 v=64
44280 Off ch=3 n=96 v=64
44280 Off ch=3 n=97 v=64
44400 Meta Text "[map HandMap_Chord_C]"
44400 On ch=3 n=96 v=100
44520 Off ch=3 n=85 v=64
44520 Off ch=3 n=96 v=64
44640 On ch=3 n=86 v=100
44640 On ch=3 n=97 v=100
44640 On ch=3 n=98 v=100
44760 Off ch=3 n=86 v=64
44760 Off ch=3 n=97 v=64
44760 Off ch=3 n=98 v=64
44880 On ch=3 n=84 v=100
44880 On ch=3 n=96 v=100
44880 On ch=3 n=97 v=100
45000 Off ch=3 n=84 v=64
45000 Off ch=3 n=96 v=64
45000 Off ch=3 n=97 v=64
45120 Off ch=3 n=51 v=64
45120 Off ch=3 n=60 v=64
45120 On ch=3 n=85 v=100
45120 On ch=3 n=97 v=100
45240 Off ch=3 n=72 v=64
45240 Off ch=3 n=85 v=64
45240 Off ch=3 n=97 v=64
45360 On ch=3 n=53 v=100
45360 On ch=3 n=61 v=100
45360 On ch=3 n=74 v=100
45360 On ch=3 n=87 v=100
45360 On ch=3 n=96 v=100
45360 On ch=3 n=99 v=100
45480 Off ch=3 n=61 v=64
45480 Off ch=3 n=74 v=64
45480 Off ch=3 n=87 v=64
45480 Off ch=3 n=96 v=64
45480 Off ch=3 n=99 v=64
45600 Meta Text "[map HandMap_Chord_A]"
45600 On ch=3 n=97 v=100
45600 On ch=3 n=98 v=100
45720 Off ch=3 n=97 v=64
45720 Off ch=3 n=98 v=64
45840 On ch=3 n=60 v=100
45840 On ch=3 n=73 v=100
45840 On ch=3 n=86 v=100
45840 On ch=3 n=98 v=100
45960 Off ch=3 n=98 v=64
46080 Off ch=3 n=106 v=64
46080 Off ch=3 n=116 v=64
46080 On ch=3 n=97 v=100
46080 On ch=3 n=99 v=100
46080 On ch=3 n=105 v=100
46200 Off ch=3 n=97 v=64
46200 Off ch=3 n=99 v=64
46560 Off ch=3 n=86 v=64
46800 On ch=3 n=88 v=100
46800 On ch=3 n=100 v=100
46920 Off ch=3 n=88 v=64
46920 Off ch=3 n=100 v=64
47040 On ch=3 n=86 v=100
47040 On ch=3 n=98 v=100
47160 Off ch=3 n=86 v=64
47160 Off ch=3 n=98 v=64
47280 Off ch=3 n=53 v=64
47280 Off ch=3 n=60 v=64
47400 Off ch=3 n=73 v=64
47520 On ch=3 n=55 v=100
47520 On ch=3 n=62 v=100
47520 On ch=3 n=75 v=100
47520 On ch=3 n=88 v=100
47520 On ch=3 n=97 v=100
47520 On ch=3 n=100 v=100
47640 Off ch=3 n=62 v=64
47640 Off ch=3 n=75 v=64
47640 Off ch=3 n=88 v=64
47640 Off ch=3 n=97 v=64
47640 Off ch=3 n=100 v=64
47760 Meta Text "[map HandMap_Chord_D]"
47760 On ch=3 n=61 v=100
47760 On ch=3 n=74 v=100
47760 On ch=3 n=87 v=100
47760 On ch=3 n=99 v=100
47880 Off ch=3 n=99 v=64
48000 Off ch=3 n=105 v=64
48000 On ch=3 n=98 v=100
48000 On ch=3 n=106 v=100
48360 Off ch=3 n=87 v=64
48360 Off ch=3 n=98 v=64
48480 On ch=3 n=86 v=100
48480 On ch=3 n=87 v=100
48480 On ch=3 n=98 v=100
48480 On ch=3 n=99 v=100
48600 Off ch=3 n=86 v=64
48600 Off ch=3 n=87 v=64
48600 Off ch=3 n=98 v=64
48600 Off ch=3 n=99 v=64
48720 On ch=3 n=87 v=100
48720 On ch=3 n=88 v=100
48720 On ch=3 n=99 v=100
48720 On ch=3 n=100 v=100
48840 Off ch=3 n=87 v=64
48840 Off ch=3 n=88 v=64
48840 Off ch=3 n=99 v=64
48840 Off ch=3 n=100 v=64
49320 Off ch=3 n=55 v=64
49320 Off ch=3 n=61 v=64
49320 Off ch=3 n=74 v=64
49440 Meta Text "[map HandMap_Chord_C]"
49440 On ch=3 n=51 v=100
49440 On ch=3 n=61 v=100
49440 On ch=3 n=73 v=100
49440 On ch=3 n=86 v=100
49440 On ch=3 n=98 v=100
49560 Off ch=3 n=61 v=64
49560 Off ch=3 n=73 v=64
49560 Off ch=3 n=86 v=64
49560 Off ch=3 n=98 v=64
49680 On ch=3 n=60 v=100
49680 On ch=3 n=72 v=100
49680 On ch=3 n=85 v=100
49680 On ch=3 n=97 v=100
49800 Off ch=3 n=97 v=64
49920 On ch=3 n=96 v=100
50400 Off ch=3 n=85 v=64
50520 Off ch=3 n=96 v=64
50640 On ch=3 n=86 v=100
50640 On ch=3 n=87 v=100
50640 On ch=3 n=98 v=100
50640 On ch=3 n=99 v=100
50760 Off ch=3 n=86 v=64
50760 Off ch=3 n=87 v=64
50760 Off ch=3 n=98 v=64
50760 Off ch=3 n=99 v=64
51600 Off ch=3 n=51 v=64
51600 Off ch=3 n=60 v=64
51600 Meta Text "[map HandMap_Chord_C]"
51720 Off ch=3 n=72 v=64
51840 Meta Text "[play_solo]"
51840 On ch=3 n=57 v=100
51840 On ch=3 n=60 v=100
51840 On ch=3 n=72 v=100
51840 On ch=3 n=84 v=100
51840 On ch=3 n=96 v=100
51960 Off ch=3 n=60 v=64
51960 Off ch=3 n=72 v=64
51960 Off ch=3 n=84 v=64
51960 Off ch=3 n=96 v=64
52080 On ch=3 n=73 v=100
52080 On ch=3 n=85 v=100
52080 On ch=3 n=98 v=100
52200 Off ch=3 n=73 v=64
52200 Off ch=3 n=85 v=64
52200 Off ch=3 n=98 v=64
52320 On ch=3 n=61 v=100
52320 On ch=3 n=74 v=100
52320 On ch=3 n=86 v=100
52320 On ch=3 n=99 v=100
52440 Off ch=3 n=61 v=64
52440 Off ch=3 n=74 v=64
52440 Off ch=3 n=86 v=64
52440 Off ch=3 n=99 v=64
52560 On ch=3 n=62 v=100
52560 On ch=3 n=75 v=100
52560 On ch=3 n=87 v=100
52560 On ch=3 n=100 v=100
52680 Off ch=3 n=62 v=64
52920 Off ch=3 n=75 v=64
52980 Off ch=3 n=87 v=64
52980 Off ch=3 n=100 v=64
53040 On ch=3 n=61 v=100
53040 On ch=3 n=74 v=100
53040 On ch=3 n=86 v=100
53040 On ch=3 n=99 v=100
53160 Off ch=3 n=61 v=64
53160 Off ch=3 n=74 v=64
53160 Off ch=3 n=86 v=64
53160 Off ch=3 n=99 v=64
53280 On ch=3 n=61 v=100
53280 On ch=3 n=73 v=100
53280 On ch=3 n=85 v=100
53280 On ch=3 n=98 v=100
53400 Off ch=3 n=61 v=64
53640 Off ch=3 n=73 v=64
53700 Off ch=3 n=85 v=64
53700 Off ch=3 n=98 v=64
53760 On ch=3 n=60 v=100
53760 On ch=3 n=72 v=100
53760 On ch=3 n=84 v=100
53760 On ch=3 n=96 v=100
53880 Off ch=3 n=60 v=64
53880 Off ch=3 n=72 v=64
53880 Off ch=3 n=84 v=64
53880 Off ch=3 n=96 v=64
54000 On ch=3 n=73 v=100
54000 On ch=3 n=85 v=100
54000 On ch=3 n=98 v=100
54120 Off ch=3 n=73 v=64
54120 Off ch=3 n=85 v=64
54120 Off ch=3 n=98 v=64
54240 On ch=3 n=61 v=100
54240 On ch=3 n=74 v=100
54240 On ch=3 n=86 v=100
54240 On ch=3 n=99 v=100
54360 Off ch=3 n=61 v=64
54360 Off ch=3 n=74 v=64
54360 Off ch=3 n=86 v=64
54360 Off ch=3 n=99 v=64
54480 On ch=3 n=62 v=100
54480 On ch=3 n=75 v=100
54480 On ch=3 n=87 v=100
54480 On ch=3 n=100 v=100
54600 Off ch=3 n=62 v=64
54840 Off ch=3 n=75 v=64
54900 Off ch=3 n=87 v=64
54900 Off ch=3 n=100 v=64
54960 On ch=3 n=61 v=100
54960 On ch=3 n=74 v=100
54960 On ch=3 n=86 v=100
54960 On ch=3 n=99 v=100
55080 Off ch=3 n=61 v=64
55080 Off ch=3 n=74 v=64
55080 Off ch=3 n=86 v=64
55080 Off ch=3 n=99 v=64
55200 On ch=3 n=61 v=100
55200 On ch=3 n=73 v=100
55200 On ch=3 n=85 v=100
55200 On ch=3 n=98 v=100
55320 Off ch=3 n=61 v=64
55560 Off ch=3 n=73 v=64
55620 Off ch=3 n=85 v=64
55620 Off ch=3 n=98 v=64
55680 Off ch=3 n=106 v=64
55680 On ch=3 n=60 v=100
55680 On ch=3 n=72 v=100
55680 On ch=3 n=84 v=100
55680 On ch=3 n=96 v=100
55680 On ch=3 n=105 v=100
55800 Off ch=3 n=60 v=64
55800 Off ch=3 n=72 v=64
55800 Off ch=3 n=84 v=64
55800 Off ch=3 n=96 v=64
55920 On ch=3 n=73 v=100
55920 On ch=3 n=85 v=100
55920 On ch=3 n=98 v=100
56040 Off ch=3 n=73 v=64
56040 Off ch=3 n=85 v=64
56040 Off ch=3 n=98 v=64
56160 On ch=3 n=61 v=100
56160 On ch=3 n=74 v=100
56160 On ch=3 n=86 v=100
56160 On ch=3 n=99 v=100
56280 Off ch=3 n=61 v=64
56280 Off ch=3 n=74 v=64
56280 Off ch=3 n=86 v=64
56280 Off ch=3 n=99 v=64
56400 On ch=3 n=62 v=100
56400 On ch=3 n=75 v=100
56400 On ch=3 n=87 v=100
56400 On ch=3 n=100 v=100
56520 Off ch=3 n=62 v=64
56760 Off ch=3 n=75 v=64
56820 Off ch=3 n=87 v=64
56820 Off ch=3 n=100 v=64
56880 On ch=3 n=61 v=100
56880 On ch=3 n=74 v=100
56880 On ch=3 n=86 v=100
56880 On ch=3 n=99 v=100
57000 Off ch=3 n=61 v=64
57000 Off ch=3 n=74 v=64
57000 Off ch=3 n=86 v=64
57000 Off ch=3 n=99 v=64
57120 On ch=3 n=61 v=100
57120 On ch=3 n=73 v=100
57120 On ch=3 n=85 v=100
57120 On ch=3 n=98 v=100
57240 Off ch=3 n=61 v=64
57480 Off ch=3 n=57 v=64
57480 Off ch=3 n=73 v=64
57480 Meta Text "[map HandMap_Default]"
57540 Off ch=3 n=85 v=64
57540 Off ch=3 n=98 v=64
57600 On ch=3 n=59 v=100
57600 On ch=3 n=62 v=100
57600 On ch=3 n=75 v=100
57600 On ch=3 n=88 v=100
57600 On ch=3 n=100 v=100
59280 Off ch=3 n=62 v=64
59400 Off ch=3 n=59 v=64
59400 Off ch=3 n=75 v=64
59460 Off ch=3 n=88 v=64
59460 Off ch=3 n=100 v=64
59520 Off ch=3 n=105 v=64
59520 Meta Text "[play]"
59520 Meta Text "[map HandMap_chord_A]"
59520 On ch=3 n=50 v=100
59520 On ch=3 n=62 v=100
59520 On ch=3 n=74 v=100
59520 On ch=3 n=86 v=100
59520 On ch=3 n=87 v=100
59520 On ch=3 n=98 v=100
59520 On ch=3 n=99 v=100
59520 On ch=3 n=106 v=100
59640 Off ch=3 n=62 v=64
59640 Off ch=3 n=74 v=64
59640 Off ch=3 n=86 v=64
59640 Off ch=3 n=87 v=64
59640 Off ch=3 n=98 v=64
59640 Off ch=3 n=99 v=64
59760 On ch=3 n=73 v=100
59760 On ch=3 n=86 v=100
59760 On ch=3 n=98 v=100
59880 Off ch=3 n=73 v=64
59880 Off ch=3 n=86 v=64
59880 Off ch=3 n=98 v=64
60000 On ch=3 n=60 v=100
60000 On ch=3 n=72 v=100
60000 On ch=3 n=84 v=100
60000 On ch=3 n=85 v=100
60000 On ch=3 n=96 v=100
60000 On ch=3 n=97 v=100
60120 Off ch=3 n=60 v=64
60120 Off ch=3 n=72 v=64
60120 Off ch=3 n=84 v=64
60120 Off ch=3 n=85 v=64
60120 Off ch=3 n=96 v=64
60120 Off ch=3 n=97 v=64
60240 On ch=3 n=62 v=100
60240 On ch=3 n=74 v=100
60240 On ch=3 n=86 v=100
60240 On ch=3 n=87 v=100
60240 On ch=3 n=98 v=100
60240 On ch=3 n=99 v=100
60360 Off ch=3 n=62 v=64
60360 Off ch=3 n=74 v=64
60360 Off ch=3 n=86 v=64
60360 Off ch=3 n=87 v=64
60360 Off ch=3 n=98 v=64
60360 Off ch=3 n=99 v=64
60720 On ch=3 n=62 v=100
60720 On ch=3 n=73 v=100
60720 On ch=3 n=74 v=100
60720 On ch=3 n=86 v=100
60720 On ch=3 n=87 v=100
60720 On ch=3 n=98 v=100
60720 On ch=3 n=99 v=100
60840 Off ch=3 n=62 v=64
60840 Off ch=3 n=73 v=64
60840 Off ch=3 n=74 v=64
60840 Off ch=3 n=86 v=64
60840 Off ch=3 n=87 v=64
60840 Off ch=3 n=98 v=64
60840 Off ch=3 n=99 v=64
60960 On ch=3 n=86 v=100
60960 On ch=3 n=98 v=100
61080 Off ch=3 n=50 v=64
61080 Off ch=3 n=86 v=64
61080 Off ch=3 n=98 v=64
61200 On ch=3 n=46 v=100
61200 On ch=3 n=61 v=100
61200 On ch=3 n=72 v=100
61200 On ch=3 n=73 v=100
61200 On ch=3 n=85 v=100
61200 On ch=3 n=86 v=100
61200 On ch=3 n=97 v=100
61200 On ch=3 n=98 v=100
61320 Off ch=3 n=61 v=64
61320 Off ch=3 n=72 v=64
61320 Off ch=3 n=73 v=64
61320 Off ch=3 n=85 v=64
61320 Off ch=3 n=86 v=64
61320 Off ch=3 n=97 v=64
61320 Off ch=3 n=98 v=64
61440 On ch=3 n=60 v=100
61440 On ch=3 n=72 v=100
61440 On ch=3 n=84 v=100
61440 On ch=3 n=96 v=100
63120 Off ch=3 n=60 v=64
63240 Off ch=3 n=46 v=64
63240 Off ch=3 n=72 v=64
63240 Off ch=3 n=84 v=64
63240 Off ch=3 n=96 v=64
63360 On ch=3 n=50 v=100
63360 On ch=3 n=62 v=100
63360 On ch=3 n=74 v=100
63360 On ch=3 n=85 v=100
63360 On ch=3 n=87 v=100
63360 On ch=3 n=97 v=100
63360 On ch=3 n=99 v=100
63360 On ch=3 n=105 v=100
63480 Off ch=3 n=62 v=64
63480 Off ch=3 n=74 v=64
63480 Off ch=3 n=85 v=64
63480 Off ch=3 n=87 v=64
63480 Off ch=3 n=97 v=64
63480 Off ch=3 n=99 v=64
63600 On ch=3 n=73 v=100
63600 On ch=3 n=86 v=100
63600 On ch=3 n=98 v=100
63720 Off ch=3 n=73 v=64
63720 Off ch=3 n=86 v=64
63720 Off ch=3 n=98 v=64
63840 On ch=3 n=60 v=100
63840 On ch=3 n=72 v=100
63840 On ch=3 n=84 v=100
63840 On ch=3 n=86 v=100
63840 On ch=3 n=96 v=100
63840 On ch=3 n=98 v=100
63960 Off ch=3 n=60 v=64
63960 Off ch=3 n=72 v=64
63960 Off ch=3 n=84 v=64
63960 Off ch=3 n=86 v=64
63960 Off ch=3 n=96 v=64
63960 Off ch=3 n=98 v=64
64080 On ch=3 n=61 v=100
64080 On ch=3 n=74 v=100
64080 On ch=3 n=85 v=100
64080 On ch=3 n=87 v=100
64080 On ch=3 n=97 v=100
64080 On ch=3 n=99 v=100
64200 Off ch=3 n=61 v=64
64200 Off ch=3 n=74 v=64
64200 Off ch=3 n=85 v=64
64200 Off ch=3 n=87 v=64
64200 Off ch=3 n=97 v=64
64200 Off ch=3 n=99 v=64
64320 On ch=3 n=85 v=100
64320 On ch=3 n=97 v=100
64440 Off ch=3 n=85 v=64
64440 Off ch=3 n=97 v=64
64560 On ch=3 n=61 v=100
64560 On ch=3 n=72 v=100
64560 On ch=3 n=74 v=100
64560 On ch=3 n=85 v=100
64560 On ch=3 n=87 v=100
64560 On ch=3 n=97 v=100
64560 On ch=3 n=99 v=100
64680 Off ch=3 n=61 v=64
64680 Off ch=3 n=72 v=64
64680 Off ch=3 n=74 v=64
64680 Off ch=3 n=85 v=64
64680 Off ch=3 n=87 v=64
64680 Off ch=3 n=97 v=64
64680 Off ch=3 n=99 v=64
64800 On ch=3 n=85 v=100
64800 On ch=3 n=97 v=100
64920 Off ch=3 n=50 v=64
64920 Off ch=3 n=85 v=64
64920 Off ch=3 n=97 v=64
65040 Meta Text "[map HandMap_Chord_D]"
65040 On ch=3 n=52 v=100
65040 On ch=3 n=62 v=100
65040 On ch=3 n=75 v=100
65040 On ch=3 n=88 v=100
65040 On ch=3 n=99 v=100
65040 On ch=3 n=100 v=100
65160 Off ch=3 n=62 v=64
65160 Off ch=3 n=75 v=64
65160 Off ch=3 n=88 v=64
65160 Off ch=3 n=99 v=64
65160 Off ch=3 n=100 v=64
65280 Meta Text "[map HandMap_DropD]"
65280 On ch=3 n=60 v=100
65280 On ch=3 n=72 v=100
65280 On ch=3 n=84 v=100
65280 On ch=3 n=96 v=100
67080 Off ch=3 n=52 v=64
67080 Off ch=3 n=60 v=64
67080 Off ch=3 n=72 v=64
67080 Off ch=3 n=84 v=64
67080 Off ch=3 n=96 v=64
67200 Off ch=3 n=106 v=64
67200 Off ch=3 n=105 v=64
67200 Meta Text "[idle_realtime]"
67200 On ch=3 n=12 v=100
67320 Off ch=3 n=12 v=64
67320 Meta TrkEnd
TrkEnd
MTrk
0 Meta TrkName "PART VOCALS"
3840 Meta Text "[idle] "
3840 On ch=4 n=12 v=100
3840 On ch=4 n=13 v=100
3960 Off ch=4 n=12 v=64
3960 Off ch=4 n=13 v=64
5760 On ch=4 n=12 v=100
5760 On ch=4 n=15 v=100
5880 Off ch=4 n=12 v=64
5880 Off ch=4 n=15 v=64
9600 On ch=4 n=12 v=100
9600 On ch=4 n=13 v=100
9720 Off ch=4 n=12 v=64
9720 Off ch=4 n=13 v=64
13320 Meta Text "[play]"
13440 On ch=4 n=105 v=100
13440 On ch=4 n=116 v=100
13463 Meta Lyric "Ev-"
13463 On ch=4 n=59 v=73
13598 Off ch=4 n=59 v=0
13668 Meta Lyric "ery"
13668 On ch=4 n=60 v=4
13774 Off ch=4 n=60 v=0
13834 Meta Lyric "time"
13834 On ch=4 n=59 v=80
14055 Off ch=4 n=59 v=0
14110 Meta Lyric "I"
14110 On ch=4 n=60 v=63
14209 Off ch=4 n=60 v=0
14420 Meta Lyric "see"
14420 On ch=4 n=62 v=81
14659 Off ch=4 n=62 v=0
14695 Meta Lyric "you"
14695 On ch=4 n=60 v=55
14823 Off ch=4 n=60 v=0
14878 Meta Text "+"
14878 On ch=4 n=59 v=55
15091 Off ch=4 n=59 v=0
15122 Meta Lyric "I"
15122 On ch=4 n=59 v=65
15269 Off ch=4 n=59 v=0
15456 Meta Lyric "think"
15456 On ch=4 n=59 v=83
15577 Off ch=4 n=59 v=0
15643 Meta Lyric "of"
15643 On ch=4 n=57 v=66
15759 Off ch=4 n=57 v=0
15800 Meta Lyric "you"
15800 On ch=4 n=57 v=73
16558 Off ch=4 n=57 v=0
16680 Off ch=4 n=105 v=64
16680 Off ch=4 n=116 v=64
17283 On ch=4 n=106 v=100
17283 On ch=4 n=116 v=100
17294 Meta Lyric "Ev-"
17294 On ch=4 n=55 v=63
17440 Off ch=4 n=55 v=0
17511 Meta Lyric "ery"
17511 On ch=4 n=57 v=80
17587 Off ch=4 n=57 v=0
17650 Meta Lyric "time"
17650 On ch=4 n=55 v=50
17876 Off ch=4 n=55 v=0
17921 Meta Lyric "I'm"
17921 On ch=4 n=57 v=73
18017 Off ch=4 n=57 v=0
18187 Meta Lyric "near"
18187 On ch=4 n=58 v=65
18411 Off ch=4 n=58 v=0
18433 Meta Lyric "+"
18433 On ch=4 n=57 v=73
18551 Off ch=4 n=57 v=0
18589 Meta Lyric "you"
18589 On ch=4 n=57 v=72
18718 Off ch=4 n=57 v=0
18738 Meta Text "+"
18738 On ch=4 n=55 v=72
18895 Off ch=4 n=55 v=0
18918 Meta Lyric "I"
18918 On ch=4 n=55 v=80
19083 Off ch=4 n=55 v=0
19259 Meta Lyric "think"
19259 On ch=4 n=54 v=73
19398 Off ch=4 n=54 v=0
19444 Meta Lyric "of"
19444 On ch=4 n=52 v=63
19545 Off ch=4 n=52 v=0
19588 Meta Lyric "you"
19588 On ch=4 n=52 v=73
20151 Off ch=4 n=52 v=0
20283 Off ch=4 n=106 v=64
20283 Off ch=4 n=116 v=64
20760 On ch=4 n=105 v=100
20840 Meta Lyric "I"
20840 On ch=4 n=52 v=50
20991 Off ch=4 n=52 v=0
21163 Meta Lyric "think"
21163 On ch=4 n=50 v=66
21306 Off ch=4 n=50 v=0
21364 Meta Lyric "of"
21364 On ch=4 n=55 v=12
21462 Off ch=4 n=55 v=0
21489 Meta Lyric "you"
21489 On ch=4 n=55 v=66
21716 Off ch=4 n=55 v=0
21762 Meta Lyric "when"
21762 On ch=4 n=55 v=80
21829 Off ch=4 n=55 v=0
21839 Meta Lyric "I"
21839 On ch=4 n=55 v=90
21950 Off ch=4 n=55 v=0
22072 Meta Lyric "dream"
22072 On ch=4 n=55 v=81
22276 Off ch=4 n=55 v=0
22319 Meta Lyric "of"
22319 On ch=4 n=59 v=65
22401 Off ch=4 n=59 v=0
22441 Meta Lyric "you"
22441 On ch=4 n=59 v=81
22670 Off ch=4 n=59 v=0
22694 Meta Lyric "when"
22694 On ch=4 n=62 v=72
22770 Off ch=4 n=62 v=0
22789 Meta Lyric "I'm"
22789 On ch=4 n=62 v=65
22881 Off ch=4 n=62 v=0
23065 Meta Lyric "tak-"
23065 On ch=4 n=60 v=65
23182 Off ch=4 n=60 v=0
23301 Meta Lyric "ing"
23301 On ch=4 n=60 v=65
23383 Off ch=4 n=60 v=0
23532 Meta Lyric "pic-"
23532 On ch=4 n=60 v=65
23631 Off ch=4 n=60 v=0
23762 Meta Lyric "tures"
23762 On ch=4 n=59 v=65
23852 Off ch=4 n=59 v=0
23911 Meta Lyric "of"
23911 On ch=4 n=59 v=80
24049 Off ch=4 n=59 v=0
24134 Meta Lyric "you"
24134 On ch=4 n=57 v=82
24476 Off ch=4 n=57 v=0
24600 Off ch=4 n=105 v=64
24600 On ch=4 n=106 v=100
24674 Meta Lyric "I"
24674 On ch=4 n=59 v=66
24786 Off ch=4 n=59 v=0
24981 Meta Lyric "think"
24981 On ch=4 n=59 v=72
25095 Off ch=4 n=59 v=0
25199 Meta Lyric "of"
25199 On ch=4 n=57 v=66
25270 Off ch=4 n=57 v=0
25308 Meta Lyric "you"
25308 On ch=4 n=57 v=80
25535 Off ch=4 n=57 v=0
25630 Meta Lyric "when"
25630 On ch=4 n=55 v=65
25703 Off ch=4 n=55 v=0
25711 Meta Lyric "I'm"
25711 On ch=4 n=55 v=80
25865 Off ch=4 n=55 v=0
25953 Meta Lyric "in"
25953 On ch=4 n=55 v=81
26042 Off ch=4 n=55 v=0
26056 Meta Lyric "a"
26056 On ch=4 n=54 v=124
26144 Off ch=4 n=54 v=0
26260 Meta Lyric "blimp"
26260 On ch=4 n=54 v=103
26485 Off ch=4 n=54 v=0
26626 Meta Lyric "look-"
26626 On ch=4 n=55 v=90
26695 Off ch=4 n=55 v=0
26753 Meta Lyric "ing"
26753 On ch=4 n=55 v=82
26847 Off ch=4 n=55 v=0
26940 Meta Lyric "down"
26940 On ch=4 n=55 v=73
27153 Off ch=4 n=55 v=0
27170 Meta Text "+"
27170 On ch=4 n=54 v=111
27315 Off ch=4 n=54 v=0
27422 Meta Lyric "from"
27422 On ch=4 n=52 v=72
27526 Off ch=4 n=52 v=0
27634 Meta Lyric "up"
27634 On ch=4 n=54 v=82
27762 Off ch=4 n=54 v=0
27849 Meta Lyric "a-"
27849 On ch=4 n=52 v=73
27949 Off ch=4 n=52 v=0
28080 Meta Lyric "bove"
28080 On ch=4 n=54 v=80
28231 Off ch=4 n=54 v=0
28308 Meta Lyric "you"
28308 On ch=4 n=52 v=66
28397 Off ch=4 n=52 v=0
28412 Meta Lyric "+"
28412 On ch=4 n=50 v=81
29012 Off ch=4 n=50 v=0
29100 Off ch=4 n=106 v=64
30240 Meta Text "[mellow]"
30960 On ch=4 n=105 v=100
30960 On ch=4 n=116 v=100
31014 Meta Lyric "You#"
31014 On ch=4 n=53 v=73
31158 Off ch=4 n=53 v=0
31225 Meta Lyric "know#"
31225 On ch=4 n=53 v=66
31371 Off ch=4 n=53 v=0
31397 Meta Lyric "I'm#"
31397 On ch=4 n=53 v=63
31521 Off ch=4 n=53 v=0
31650 Meta Lyric "miss-#"
31650 On ch=4 n=53 v=80
31757 Off ch=4 n=53 v=0
31846 Meta Lyric "ing#"
31846 On ch=4 n=53 v=73
31985 Off ch=4 n=53 v=0
32074 Meta Lyric "you#"
32074 On ch=4 n=53 v=81
32530 Off ch=4 n=53 v=0
32640 Off ch=4 n=105 v=64
32640 Off ch=4 n=116 v=64
34200 On ch=4 n=106 v=100
34200 On ch=4 n=116 v=100
34348 Meta Lyric "My"
34348 On ch=4 n=55 v=72
34448 Off ch=4 n=55 v=0
34597 Meta Lyric "mind"
34597 On ch=4 n=55 v=81
34770 Off ch=4 n=55 v=0
34794 Meta Text "+"
34794 On ch=4 n=54 v=81
34931 Off ch=4 n=54 v=0
35028 Meta Lyric "is"
35028 On ch=4 n=52 v=73
35111 Off ch=4 n=52 v=0
35329 Meta Lyric "kiss-"
35329 On ch=4 n=57 v=73
35447 Off ch=4 n=57 v=0
35521 Meta Lyric "ing"
35521 On ch=4 n=54 v=66
35620 Off ch=4 n=54 v=0
35705 Meta Lyric "you"
35705 On ch=4 n=50 v=82
35880 Meta Text "[play]"
35883 Off ch=4 n=50 v=0
36000 Off ch=4 n=106 v=64
36000 Off ch=4 n=116 v=64
36000 On ch=4 n=105 v=100
36000 On ch=4 n=106 v=100
36000 On ch=4 n=116 v=100
36045 Meta Lyric "I'm"
36045 On ch=4 n=62 v=66
36347 Off ch=4 n=62 v=0
36494 Meta Lyric "right"
36494 On ch=4 n=62 v=66
36682 Off ch=4 n=62 v=0
36954 Meta Lyric "be-"
36954 On ch=4 n=60 v=66
37153 Off ch=4 n=60 v=0
37262 Meta Lyric "hind"
37262 On ch=4 n=60 v=56
37546 Off ch=4 n=60 v=0
37707 Meta Lyric "you"
37707 On ch=4 n=59 v=72
38022 Off ch=4 n=59 v=0
38174 Meta Lyric "now"
38174 On ch=4 n=59 v=80
38347 Off ch=4 n=59 v=0
38398 Meta Text "+"
38398 On ch=4 n=57 v=80
38508 Off ch=4 n=57 v=0
38665 Meta Lyric "Char-"
38665 On ch=4 n=57 v=72
38999 Off ch=4 n=57 v=0
39185 Meta Lyric "lene"
39185 On ch=4 n=59 v=65
39625 Off ch=4 n=59 v=0
39840 Off ch=4 n=105 v=64
39840 Off ch=4 n=106 v=64
39840 Off ch=4 n=116 v=64
40200 On ch=4 n=105 v=100
40310 Meta Lyric "Wait-"
40310 On ch=4 n=59 v=72
40551 Off ch=4 n=59 v=0
40600 Meta Lyric "ing"
40600 On ch=4 n=57 v=72
40959 Off ch=4 n=57 v=0
41031 Meta Lyric "watch-"
41031 On ch=4 n=57 v=100
41198 Off ch=4 n=57 v=64
41502 Meta Lyric "ing"
41502 On ch=4 n=55 v=100
41683 Off ch=4 n=55 v=64
41960 Meta Lyric "oh"
41960 On ch=4 n=55 v=100
42213 Off ch=4 n=55 v=64
42432 Meta Lyric "so"
42432 On ch=4 n=54 v=100
42552 Off ch=4 n=54 v=64
42569 Meta Lyric "+"
42569 On ch=4 n=55 v=100
42682 Off ch=4 n=55 v=64
42867 Meta Lyric "close"
42867 On ch=4 n=52 v=100
43089 Off ch=4 n=52 v=64
43126 Meta Lyric "+"
43126 On ch=4 n=50 v=100
43391 Off ch=4 n=50 v=64
43437 Off ch=4 n=105 v=64
43800 On ch=4 n=105 v=100
43800 On ch=4 n=106 v=100
43800 On ch=4 n=116 v=100
43915 Meta Lyric "I'm"
43915 On ch=4 n=62 v=100
44035 Off ch=4 n=62 v=64
44164 Meta Lyric "right"
44164 On ch=4 n=62 v=100
44348 Off ch=4 n=62 v=64
44625 Meta Lyric "be-"
44625 On ch=4 n=60 v=100
44817 Off ch=4 n=60 v=64
44909 Meta Lyric "hind"
44909 On ch=4 n=60 v=100
45225 Off ch=4 n=60 v=64
45359 Meta Lyric "you"
45359 On ch=4 n=59 v=100
45708 Off ch=4 n=59 v=64
45862 Meta Lyric "now"
45862 On ch=4 n=59 v=100
46001 Off ch=4 n=59 v=64
46064 Meta Text "+"
46064 On ch=4 n=57 v=100
46136 Off ch=4 n=57 v=64
46346 Meta Lyric "Char-"
46346 On ch=4 n=57 v=100
46605 Off ch=4 n=57 v=64
46793 Meta Lyric "lene"
46793 On ch=4 n=57 v=100
46909 Off ch=4 n=57 v=64
46935 Meta Lyric "+"
46935 On ch=4 n=59 v=100
47301 Off ch=4 n=59 v=64
47519 Off ch=4 n=106 v=64
47519 Off ch=4 n=116 v=64
47520 Off ch=4 n=105 v=64
48120 On ch=4 n=106 v=100
48252 Meta Lyric "You'll"
48252 On ch=4 n=47 v=100
48348 Off ch=4 n=47 v=64
48488 Meta Lyric "nev-"
48488 On ch=4 n=55 v=80
48685 Off ch=4 n=55 v=0
48746 Meta Lyric "er"
48746 On ch=4 n=55 v=73
48840 Off ch=4 n=55 v=0
48984 Meta Lyric "be"
48984 On ch=4 n=54 v=81
49489 Off ch=4 n=54 v=0
49526 Meta Lyric "a-"
49526 On ch=4 n=54 v=20
49631 Off ch=4 n=54 v=0
49752 Meta Lyric "lone"
49752 On ch=4 n=54 v=73
50092 Off ch=4 n=54 v=0
50197 Meta Lyric "a-"
50197 On ch=4 n=55 v=63
50500 Off ch=4 n=55 v=0
50639 Meta Lyric "gain"
50639 On ch=4 n=52 v=80
51564 Off ch=4 n=52 v=0
51623 Meta Lyric "no"
51623 On ch=4 n=50 v=81
53259 Off ch=4 n=50 v=0
53280 Off ch=4 n=106 v=64
53280 Meta Text "[cowbell_start]"
55440 On ch=4 n=105 v=100
55680 On ch=4 n=96 v=100
55800 Off ch=4 n=96 v=64
56160 On ch=4 n=96 v=100
56280 Off ch=4 n=96 v=64
56640 On ch=4 n=96 v=100
56760 Off ch=4 n=96 v=64
57120 On ch=4 n=96 v=100
57240 Off ch=4 n=96 v=64
57600 On ch=4 n=96 v=100
57720 Off ch=4 n=96 v=64
58080 On ch=4 n=96 v=100
58200 Off ch=4 n=96 v=64
58560 On ch=4 n=96 v=100
58680 Off ch=4 n=96 v=64
59040 On ch=4 n=96 v=100
59160 Off ch=4 n=96 v=64
59280 Off ch=4 n=105 v=64
59280 On ch=4 n=106 v=100
59520 On ch=4 n=96 v=100
59640 Off ch=4 n=96 v=64
60000 On ch=4 n=96 v=100
60120 Off ch=4 n=96 v=64
60480 On ch=4 n=96 v=100
60600 Off ch=4 n=96 v=64
60960 On ch=4 n=96 v=100
61080 Off ch=4 n=96 v=64
61680 On ch=4 n=96 v=100
61800 Off ch=4 n=96 v=64
61920 On ch=4 n=96 v=100
62040 Off ch=4 n=96 v=64
62640 On ch=4 n=96 v=100
62760 Off ch=4 n=96 v=64
62880 On ch=4 n=96 v=100
63000 Off ch=4 n=96 v=64
63120 Off ch=4 n=106 v=64
63120 On ch=4 n=105 v=100
63120 On ch=4 n=106 v=100
63360 On ch=4 n=96 v=100
63480 Off ch=4 n=96 v=64
63840 On ch=4 n=96 v=100
63960 Off ch=4 n=96 v=64
64320 On ch=4 n=96 v=100
64440 Off ch=4 n=96 v=64
64800 On ch=4 n=96 v=100
64920 Off ch=4 n=96 v=64
65280 On ch=4 n=96 v=100
65400 Off ch=4 n=96 v=64
65760 On ch=4 n=96 v=100
65880 Off ch=4 n=96 v=64
65880 Meta Text "[cowbell_end]"
66000 Off ch=4 n=105 v=64
66000 Off ch=4 n=106 v=64
66000 Meta Text "[idle]"
67200 Meta Text "[idle_realtime]"
67200 Meta TrkEnd
TrkEnd
MTrk
0 Meta TrkName "VENUE"
0 Meta Text "[verse]"
0 On ch=1 n=60 v=100
0 On ch=1 n=61 v=100
0 On ch=1 n=62 v=100
0 On ch=1 n=63 v=100
0 On ch=1 n=64 v=100
120 Off ch=1 n=60 v=64
120 Off ch=1 n=61 v=64
120 Off ch=1 n=62 v=64
120 Off ch=1 n=63 v=64
120 Off ch=1 n=64 v=64
3840 Meta Text "[lighting (searchlights)]"
3840 Meta Text "[do_directed_cut directed_drums_lt]"
3840 Meta Text "[FogOn]"
5760 Meta Text "[lighting (dischord)]"
5760 On ch=1 n=60 v=100
5760 On ch=1 n=63 v=100
5760 On ch=1 n=70 v=100
5880 Off ch=1 n=60 v=64
5880 Off ch=1 n=63 v=64
5880 Off ch=1 n=70 v=64
7680 On ch=1 n=48 v=100
7800 Off ch=1 n=48 v=64
8160 On ch=1 n=60 v=100
8160 On ch=1 n=62 v=100
8160 On ch=1 n=72 v=100
8280 Off ch=1 n=60 v=64
8280 Off ch=1 n=62 v=64
8280 Off ch=1 n=72 v=64
8880 On ch=1 n=60 v=100
8880 On ch=1 n=61 v=100
9000 Off ch=1 n=60 v=64
9000 Off ch=1 n=61 v=64
9600 On ch=1 n=48 v=100
9720 Off ch=1 n=48 v=64
11520 On ch=1 n=48 v=100
11520 On ch=1 n=60 v=100
11520 On ch=1 n=62 v=100
11520 On ch=1 n=72 v=100
11640 Off ch=1 n=48 v=64
11640 Off ch=1 n=60 v=64
11640 Off ch=1 n=62 v=64
11640 Off ch=1 n=72 v=64
13440 Meta Text "[lighting (harmony)]"
13440 On ch=1 n=60 v=100
13440 On ch=1 n=64 v=100
13440 On ch=1 n=70 v=100
13440 On ch=1 n=72 v=100
13560 Off ch=1 n=60 v=64
13560 Off ch=1 n=64 v=64
13560 Off ch=1 n=70 v=64
13560 Off ch=1 n=72 v=64
16320 On ch=1 n=60 v=100
16320 On ch=1 n=63 v=100
16320 On ch=1 n=70 v=100
16440 Off ch=1 n=60 v=64
16440 Off ch=1 n=63 v=64
16440 Off ch=1 n=70 v=64
17280 On ch=1 n=60 v=100
17280 On ch=1 n=64 v=100
17280 On ch=1 n=70 v=100
17280 On ch=1 n=73 v=100
17400 Off ch=1 n=60 v=64
17400 Off ch=1 n=64 v=64
17400 Off ch=1 n=70 v=64
17400 Off ch=1 n=73 v=64
19200 Meta Text "[FogOff]"
20160 On ch=1 n=60 v=100
20160 On ch=1 n=61 v=100
20280 Off ch=1 n=60 v=64
20280 Off ch=1 n=61 v=64
22080 Meta Text "[do_directed_cut directed_vocals_cam]"
22080 On ch=1 n=62 v=100
25680 Off ch=1 n=62 v=64
25920 On ch=1 n=60 v=100
25920 On ch=1 n=63 v=100
26040 Off ch=1 n=60 v=64
26040 Off ch=1 n=63 v=64
26880 On ch=1 n=60 v=100
26880 On ch=1 n=62 v=100
26880 On ch=1 n=72 v=100
27000 Off ch=1 n=60 v=64
27000 Off ch=1 n=62 v=64
27000 Off ch=1 n=72 v=64
28800 Meta Text "[lighting (dischord)]"
29280 On ch=1 n=60 v=100
29280 On ch=1 n=63 v=100
29280 On ch=1 n=70 v=100
29400 Off ch=1 n=60 v=64
29400 Off ch=1 n=63 v=64
29400 Off ch=1 n=70 v=64
30720 On ch=1 n=48 v=100
30840 Off ch=1 n=48 v=64
30960 On ch=1 n=60 v=100
30960 On ch=1 n=64 v=100
30960 On ch=1 n=70 v=100
31080 Off ch=1 n=60 v=64
31080 Off ch=1 n=64 v=64
31080 Off ch=1 n=70 v=64
32640 On ch=1 n=48 v=100
32640 On ch=1 n=60 v=100
32640 On ch=1 n=61 v=100
32760 Off ch=1 n=48 v=64
32760 Off ch=1 n=60 v=64
32760 Off ch=1 n=61 v=64
34320 On ch=1 n=60 v=100
34320 On ch=1 n=64 v=100
34320 On ch=1 n=70 v=100
34440 Off ch=1 n=60 v=64
34440 Off ch=1 n=64 v=64
34440 Off ch=1 n=70 v=64
34560 Meta Text "[FogOn]"
34560 On ch=1 n=48 v=100
34680 Off ch=1 n=48 v=64
36240 On ch=1 n=60 v=100
36240 On ch=1 n=70 v=100
36240 On ch=1 n=71 v=100
36360 Off ch=1 n=60 v=64
36360 Off ch=1 n=70 v=64
36360 Off ch=1 n=71 v=64
36480 Meta Text "[chorus]"
36480 Meta Text "[lighting ()]"
40320 On ch=1 n=48 v=100
40320 On ch=1 n=60 v=100
40320 On ch=1 n=64 v=100
40320 On ch=1 n=70 v=100
40320 On ch=1 n=73 v=100
40440 Off ch=1 n=48 v=64
40440 Off ch=1 n=60 v=64
40440 Off ch=1 n=64 v=64
40440 Off ch=1 n=70 v=64
40440 Off ch=1 n=73 v=64
42000 On ch=1 n=60 v=100
42000 On ch=1 n=64 v=100
42000 On ch=1 n=70 v=100
42000 On ch=1 n=72 v=100
42120 Off ch=1 n=60 v=64
42120 Off ch=1 n=64 v=64
42120 Off ch=1 n=70 v=64
42120 Off ch=1 n=72 v=64
43920 On ch=1 n=60 v=100
43920 On ch=1 n=61 v=100
43920 On ch=1 n=63 v=100
44040 Off ch=1 n=60 v=64
44040 Off ch=1 n=61 v=64
44040 Off ch=1 n=63 v=64
44160 On ch=1 n=48 v=100
44280 Off ch=1 n=48 v=64
46080 On ch=1 n=60 v=100
46080 On ch=1 n=62 v=100
46080 On ch=1 n=72 v=100
46200 Off ch=1 n=60 v=64
46200 Off ch=1 n=62 v=64
46200 Off ch=1 n=72 v=64
48000 On ch=1 n=48 v=100
48120 Off ch=1 n=48 v=64
48960 Meta Text "[do_directed_cut directed_vocals_cam]"
48960 On ch=1 n=63 v=100
49920 Meta Text "[FogOff]"
51600 On ch=1 n=39 v=100
51720 Off ch=1 n=63 v=64
51840 Meta Text "[lighting (loop_cool)]"
51840 Meta Text "[do_directed_cut directed_guitar_cls]"
51840 On ch=1 n=63 v=100
55440 Off ch=1 n=63 v=64
55680 On ch=1 n=60 v=100
55680 On ch=1 n=63 v=100
55680 On ch=1 n=70 v=100
55680 On ch=1 n=72 v=100
55800 Off ch=1 n=60 v=64
55800 Off ch=1 n=63 v=64
55800 Off ch=1 n=70 v=64
55800 Off ch=1 n=72 v=64
57600 On ch=1 n=60 v=100
57600 On ch=1 n=63 v=100
57600 On ch=1 n=70 v=100
57600 On ch=1 n=73 v=100
57720 Off ch=1 n=60 v=64
57720 Off ch=1 n=63 v=64
57720 Off ch=1 n=70 v=64
57720 Off ch=1 n=73 v=64
59280 Off ch=1 n=39 v=64
59520 Meta Text "[lighting (dischord)]"
59520 On ch=1 n=60 v=100
59520 On ch=1 n=62 v=100
59520 On ch=1 n=72 v=100
59640 Off ch=1 n=60 v=64
59640 Off ch=1 n=62 v=64
59640 Off ch=1 n=72 v=64
59760 On ch=1 n=48 v=100
59880 Off ch=1 n=48 v=64
60000 On ch=1 n=48 v=100
60120 Off ch=1 n=48 v=64
60240 On ch=1 n=48 v=100
60360 Off ch=1 n=48 v=64
60720 On ch=1 n=48 v=100
60840 Off ch=1 n=48 v=64
60960 On ch=1 n=60 v=100
60960 On ch=1 n=61 v=100
61080 Off ch=1 n=60 v=64
61080 Off ch=1 n=61 v=64
61200 On ch=1 n=48 v=100
61320 Off ch=1 n=48 v=64
61440 On ch=1 n=60 v=100
61440 On ch=1 n=61 v=100
61440 On ch=1 n=63 v=100
61440 On ch=1 n=64 v=100
61440 On ch=1 n=70 v=100
61560 Off ch=1 n=60 v=64
61560 Off ch=1 n=61 v=64
61560 Off ch=1 n=63 v=64
61560 Off ch=1 n=64 v=64
61560 Off ch=1 n=70 v=64
63360 On ch=1 n=48 v=100
63360 On ch=1 n=60 v=100
63360 On ch=1 n=63 v=100
63480 Off ch=1 n=48 v=64
63480 Off ch=1 n=60 v=64
63480 Off ch=1 n=63 v=64
63600 On ch=1 n=48 v=100
63720 Off ch=1 n=48 v=64
63840 On ch=1 n=48 v=100
63960 Off ch=1 n=48 v=64
64080 On ch=1 n=48 v=100
64200 Off ch=1 n=48 v=64
64560 On ch=1 n=48 v=100
64680 Off ch=1 n=48 v=64
64800 On ch=1 n=60 v=100
64800 On ch=1 n=70 v=100
64800 On ch=1 n=71 v=100
64920 Off ch=1 n=60 v=64
64920 Off ch=1 n=70 v=64
64920 Off ch=1 n=71 v=64
65040 On ch=1 n=48 v=100
65160 Off ch=1 n=48 v=64
66240 Meta Text "[lighting (silhouettes)]"
66240 Meta TrkEnd
TrkEnd
MTrk
0 Meta TrkName "EVENTS"
3840 Meta Text "[section intro]"
3840 Meta Text "[crowd_mellow]"
8160 Meta Text "[music_start]"
13440 Meta Text "[section verse_1]"
28800 Meta Text "[section verse_1a]"
36480 Meta Text "[section chorus_1]"
36480 Meta Text "[crowd_intense]"
51840 Meta Text "[section gtr_solo]"
59520 Meta Text "[section outro]"
67680 Meta Text "[music_end]"
70560 Meta Text "[end]"
70560 Meta TrkEnd
TrkEnd
