MFile 1 8 480
MTrk
0 Meta TrkName "foreplaylongtime"
0 TimeSig 4/4 24 8
0 Tempo 333332
19200 Tempo 343641
21120 Tempo 338028
23040 Tempo 330123
26880 Tempo 335195
28800 Tempo 338503
30720 Tempo 333332
32640 Tempo 335195
34560 Tempo 333332
36480 Tempo 335195
38400 Tempo 340909
40320 Tempo 335195
42240 Tempo 337457
44160 Tempo 336133
46080 Tempo 334728
48000 Tempo 333332
49920 Tempo 332408
51840 Tempo 335664
53760 Tempo 338028
55680 Tempo 331950
57600 Tempo 333332
59520 Tempo 335195
61440 Tempo 341394
63360 Tempo 331490
65280 Tempo 343347
67200 Tempo 333332
71040 Tempo 336133
74880 Tempo 337552
76800 Tempo 332408
80640 Tempo 333332
84480 Tempo 336133
86400 Tempo 333332
90240 Tempo 335195
92160 Tempo 331950
96000 Tempo 338503
101760 Tempo 331950
107520 Tempo 342368
111360 Tempo 337552
113280 Tempo 332870
115200 Tempo 331034
119040 Tempo 336133
120960 Tempo 326530
121920 Tempo 363085
122880 Tempo 370370
123840 Tempo 384615
124320 Tempo 397350
124800 Tempo 449438
125280 Tempo 510635
125760 Tempo 629921
126240 Tempo 916027
126720 TimeSig 5/4 24 8
126720 Tempo 821917
130560 Tempo 789472
132480 Tempo 824742
136320 Tempo 851063
140160 Tempo 813557
141120 TimeSig 6/4 24 8
144000 Tempo 833332
155520 TimeSig 6/4 24 8
155520 Tempo 505473
158400 TimeSig 4/4 24 8
163200 Tempo 502092
166080 Tempo 508472
168000 Tempo 495867
169920 Tempo 503144
177600 Tempo 501043
181440 Tempo 503144
185280 Tempo 502092
189120 Tempo 504199
191040 Tempo 500000
192960 Tempo 508472
194880 Tempo 500000
196800 Tempo 506326
198720 Tempo 497925
200640 Tempo 504199
202560 Tempo 501043
204480 Tempo 506326
206400 Tempo 501043
210240 Tempo 504199
212160 Tempo 506326
216000 Tempo 493826
217920 Tempo 497925
219840 Tempo 505262
225600 Tempo 500000
227520 Tempo 504199
231360 Tempo 506326
235200 Tempo 502092
239040 Tempo 500000
240960 Tempo 494845
242880 Tempo 504199
246720 Tempo 507399
248640 Tempo 500000
250560 Tempo 502092
256320 Tempo 505262
258240 Tempo 498959
260160 Tempo 504199
267840 Tempo 502092
279360 Tempo 503144
281280 Tempo 502092
283200 Tempo 505262
287040 Tempo 501043
290880 Tempo 498959
292800 Tempo 511726
294720 Tempo 504199
296640 Tempo 502092
298560 Tempo 497925
300480 Tempo 502092
302400 Tempo 506326
304320 Tempo 501043
308160 Tempo 503144
323520 Tempo 498959
327360 Tempo 503144
331200 Tempo 512820
332160 Tempo 490797
333120 Tempo 500000
334080 Tempo 515021
335040 Tempo 510635
336000 Tempo 475246
336960 Tempo 496894
337920 Tempo 526314
338880 Tempo 496894
340800 Tempo 506326
344640 Tempo 500000
346560 Tempo 495867
348480 Tempo 507399
350400 Tempo 503144
352320 Tempo 500000
354240 Tempo 502092
358080 Tempo 498959
360000 Tempo 494845
365760 Tempo 501043
367680 Tempo 509554
371520 Tempo 510635
375360 Tempo 520605
377280 Tempo 494845
378240 Tempo 504199
379200 Tempo 515021
381600 Tempo 491802
382080 Tempo 501043
382560 Tempo 530973
383040 Tempo 515021
384960 Tempo 501043
386880 Tempo 510635
390720 Tempo 509554
392640 Tempo 512820
394560 Tempo 508472
396480 Tempo 509554
398400 Tempo 504199
400320 Tempo 500000
404160 Tempo 502092
409920 Tempo 506326
411840 Tempo 516794
412800 Tempo 496277
413760 Tempo 506326
417600 Tempo 502092
419520 Tempo 493420
421440 Tempo 490195
423360 Tempo 495867
425280 Tempo 498753
427200 Tempo 505050
428160 Tempo 466196
429120 Tempo 505050
431040 Tempo 498753
432000 Tempo 473185
432960 Tempo 498338
434880 Tempo 502933
436800 Tempo 495867
440640 Tempo 492610
442560 Tempo 494233
444480 Tempo 492610
446400 Tempo 495867
447360 Tempo 493420
450240 Tempo 497512
451200 Tempo 508472
452160 Tempo 497925
456000 Tempo 502092
456960 Tempo 496277
461760 Tempo 498753
465600 Tempo 494641
467520 Tempo 488997
469440 Tempo 478850
471360 Tempo 494641
471360 Meta TrkEnd
TrkEnd
MTrk
0 Meta TrkName "BEAT"
0 On ch=1 n=12 v=100
236 On ch=1 n=12 v=0
960 On ch=1 n=13 v=100
1196 On ch=1 n=13 v=0
1920 On ch=1 n=13 v=100
2156 On ch=1 n=13 v=0
2880 On ch=1 n=13 v=100
3116 On ch=1 n=13 v=0
3840 On ch=1 n=12 v=100
4072 On ch=1 n=12 v=0
4800 On ch=1 n=13 v=100
5033 On ch=1 n=13 v=0
5760 On ch=1 n=13 v=100
5996 On ch=1 n=13 v=0
6720 On ch=1 n=13 v=100
6956 On ch=1 n=13 v=0
7680 On ch=1 n=12 v=100
7916 On ch=1 n=12 v=0
8640 On ch=1 n=13 v=100
8876 On ch=1 n=13 v=0
9600 On ch=1 n=13 v=100
9836 On ch=1 n=13 v=0
10560 On ch=1 n=13 v=100
10796 On ch=1 n=13 v=0
11520 On ch=1 n=12 v=100
11756 On ch=1 n=12 v=0
12480 On ch=1 n=13 v=100
12716 On ch=1 n=13 v=0
13440 On ch=1 n=13 v=100
13676 On ch=1 n=13 v=0
14400 On ch=1 n=13 v=100
14636 On ch=1 n=13 v=0
15360 On ch=1 n=12 v=100
15596 On ch=1 n=12 v=0
16320 On ch=1 n=13 v=100
16556 On ch=1 n=13 v=0
17280 On ch=1 n=13 v=100
17516 On ch=1 n=13 v=0
18240 On ch=1 n=13 v=100
18476 On ch=1 n=13 v=0
19200 On ch=1 n=12 v=100
19436 On ch=1 n=12 v=0
20160 On ch=1 n=13 v=100
20396 On ch=1 n=13 v=0
21120 On ch=1 n=13 v=100
21356 On ch=1 n=13 v=0
22080 On ch=1 n=13 v=100
22316 On ch=1 n=13 v=0
23040 On ch=1 n=12 v=100
23276 On ch=1 n=12 v=0
24000 On ch=1 n=13 v=100
24236 On ch=1 n=13 v=0
24960 On ch=1 n=13 v=100
25196 On ch=1 n=13 v=0
25920 On ch=1 n=13 v=100
26156 On ch=1 n=13 v=0
26880 On ch=1 n=12 v=100
27115 On ch=1 n=12 v=0
27840 On ch=1 n=13 v=100
28075 On ch=1 n=13 v=0
28800 On ch=1 n=13 v=100
29036 On ch=1 n=13 v=0
29760 On ch=1 n=13 v=100
29996 On ch=1 n=13 v=0
30720 On ch=1 n=12 v=100
30956 On ch=1 n=12 v=0
31680 On ch=1 n=13 v=100
31916 On ch=1 n=13 v=0
32640 On ch=1 n=13 v=100
32876 On ch=1 n=13 v=0
33600 On ch=1 n=13 v=100
33836 On ch=1 n=13 v=0
34560 On ch=1 n=12 v=100
34796 On ch=1 n=12 v=0
35520 On ch=1 n=13 v=100
35756 On ch=1 n=13 v=0
36480 On ch=1 n=13 v=100
36716 On ch=1 n=13 v=0
37440 On ch=1 n=13 v=100
37676 On ch=1 n=13 v=0
38400 On ch=1 n=12 v=100
38636 On ch=1 n=12 v=0
39360 On ch=1 n=13 v=100
39596 On ch=1 n=13 v=0
40320 On ch=1 n=13 v=100
40556 On ch=1 n=13 v=0
41280 On ch=1 n=13 v=100
41516 On ch=1 n=13 v=0
42240 On ch=1 n=12 v=100
42476 On ch=1 n=12 v=0
43200 On ch=1 n=13 v=100
43436 On ch=1 n=13 v=0
44160 On ch=1 n=13 v=100
44396 On ch=1 n=13 v=0
45120 On ch=1 n=13 v=100
45356 On ch=1 n=13 v=0
46080 On ch=1 n=12 v=100
46316 On ch=1 n=12 v=0
46560 On ch=1 n=13 v=100
46796 On ch=1 n=13 v=0
47040 On ch=1 n=13 v=100
47276 On ch=1 n=13 v=0
47520 On ch=1 n=13 v=100
47756 On ch=1 n=13 v=0
48000 On ch=1 n=12 v=100
48235 On ch=1 n=12 v=0
48480 On ch=1 n=13 v=100
48715 On ch=1 n=13 v=0
48960 On ch=1 n=13 v=100
49195 On ch=1 n=13 v=0
49440 On ch=1 n=13 v=100
49675 On ch=1 n=13 v=0
49920 On ch=1 n=12 v=100
50156 On ch=1 n=12 v=0
50400 On ch=1 n=13 v=100
50636 On ch=1 n=13 v=0
50880 On ch=1 n=13 v=100
51116 On ch=1 n=13 v=0
51360 On ch=1 n=13 v=100
51596 On ch=1 n=13 v=0
51840 On ch=1 n=12 v=100
52076 On ch=1 n=12 v=0
52320 On ch=1 n=13 v=100
52556 On ch=1 n=13 v=0
52800 On ch=1 n=13 v=100
53036 On ch=1 n=13 v=0
53280 On ch=1 n=13 v=100
53516 On ch=1 n=13 v=0
53760 On ch=1 n=12 v=100
53996 On ch=1 n=12 v=0
54240 On ch=1 n=13 v=100
54476 On ch=1 n=13 v=0
54720 On ch=1 n=13 v=100
54956 On ch=1 n=13 v=0
55200 On ch=1 n=13 v=100
55436 On ch=1 n=13 v=0
55680 On ch=1 n=12 v=100
55916 On ch=1 n=12 v=0
56160 On ch=1 n=13 v=100
56396 On ch=1 n=13 v=0
56640 On ch=1 n=13 v=100
56876 On ch=1 n=13 v=0
57120 On ch=1 n=13 v=100
57356 On ch=1 n=13 v=0
57600 On ch=1 n=12 v=100
57835 On ch=1 n=12 v=0
58080 On ch=1 n=13 v=100
58315 On ch=1 n=13 v=0
58560 On ch=1 n=13 v=100
58795 On ch=1 n=13 v=0
59040 On ch=1 n=13 v=100
59275 On ch=1 n=13 v=0
59520 On ch=1 n=12 v=100
59756 On ch=1 n=12 v=0
60000 On ch=1 n=13 v=100
60236 On ch=1 n=13 v=0
60480 On ch=1 n=13 v=100
60716 On ch=1 n=13 v=0
60960 On ch=1 n=13 v=100
61196 On ch=1 n=13 v=0
61440 On ch=1 n=12 v=100
61676 On ch=1 n=12 v=0
62400 On ch=1 n=13 v=100
62636 On ch=1 n=13 v=0
63360 On ch=1 n=13 v=100
63596 On ch=1 n=13 v=0
64320 On ch=1 n=13 v=100
64556 On ch=1 n=13 v=0
65280 On ch=1 n=12 v=100
65516 On ch=1 n=12 v=0
66240 On ch=1 n=13 v=100
66476 On ch=1 n=13 v=0
67200 On ch=1 n=13 v=100
67436 On ch=1 n=13 v=0
68160 On ch=1 n=13 v=100
68396 On ch=1 n=13 v=0
69120 On ch=1 n=12 v=100
69356 On ch=1 n=12 v=0
69600 On ch=1 n=13 v=100
69836 On ch=1 n=13 v=0
70080 On ch=1 n=13 v=100
70316 On ch=1 n=13 v=0
70560 On ch=1 n=13 v=100
70796 On ch=1 n=13 v=0
71040 On ch=1 n=12 v=100
71276 On ch=1 n=12 v=0
71520 On ch=1 n=13 v=100
71756 On ch=1 n=13 v=0
72000 On ch=1 n=13 v=100
72236 On ch=1 n=13 v=0
72480 On ch=1 n=13 v=100
72716 On ch=1 n=13 v=0
72960 On ch=1 n=12 v=100
73196 On ch=1 n=12 v=0
73440 On ch=1 n=13 v=100
73676 On ch=1 n=13 v=0
73920 On ch=1 n=13 v=100
74156 On ch=1 n=13 v=0
74400 On ch=1 n=13 v=100
74636 On ch=1 n=13 v=0
74880 On ch=1 n=12 v=100
75116 On ch=1 n=12 v=0
75360 On ch=1 n=13 v=100
75596 On ch=1 n=13 v=0
75840 On ch=1 n=13 v=100
76076 On ch=1 n=13 v=0
76320 On ch=1 n=13 v=100
76556 On ch=1 n=13 v=0
76800 On ch=1 n=12 v=100
77036 On ch=1 n=12 v=0
77760 On ch=1 n=13 v=100
77996 On ch=1 n=13 v=0
78720 On ch=1 n=13 v=100
78956 On ch=1 n=13 v=0
79680 On ch=1 n=13 v=100
79916 On ch=1 n=13 v=0
80640 On ch=1 n=12 v=100
80876 On ch=1 n=12 v=0
81600 On ch=1 n=13 v=100
81836 On ch=1 n=13 v=0
82560 On ch=1 n=13 v=100
82796 On ch=1 n=13 v=0
83520 On ch=1 n=13 v=100
83756 On ch=1 n=13 v=0
84480 On ch=1 n=12 v=100
84716 On ch=1 n=12 v=0
85440 On ch=1 n=13 v=100
85676 On ch=1 n=13 v=0
86400 On ch=1 n=13 v=100
86636 On ch=1 n=13 v=0
87360 On ch=1 n=13 v=100
87596 On ch=1 n=13 v=0
88320 On ch=1 n=12 v=100
88556 On ch=1 n=12 v=0
89280 On ch=1 n=13 v=100
89516 On ch=1 n=13 v=0
90240 On ch=1 n=13 v=100
90476 On ch=1 n=13 v=0
91200 On ch=1 n=13 v=100
91436 On ch=1 n=13 v=0
92160 On ch=1 n=12 v=100
92396 On ch=1 n=12 v=0
92640 On ch=1 n=13 v=100
92876 On ch=1 n=13 v=0
93120 On ch=1 n=13 v=100
93356 On ch=1 n=13 v=0
93600 On ch=1 n=13 v=100
93836 On ch=1 n=13 v=0
94080 On ch=1 n=12 v=100
94316 On ch=1 n=12 v=0
94560 On ch=1 n=13 v=100
94796 On ch=1 n=13 v=0
95040 On ch=1 n=13 v=100
95276 On ch=1 n=13 v=0
95520 On ch=1 n=13 v=100
95756 On ch=1 n=13 v=0
96000 On ch=1 n=12 v=100
96235 On ch=1 n=12 v=0
96480 On ch=1 n=13 v=100
96715 On ch=1 n=13 v=0
96960 On ch=1 n=13 v=100
97195 On ch=1 n=13 v=0
97440 On ch=1 n=13 v=100
97675 On ch=1 n=13 v=0
97920 On ch=1 n=12 v=100
98155 On ch=1 n=12 v=0
98400 On ch=1 n=13 v=100
98635 On ch=1 n=13 v=0
98880 On ch=1 n=13 v=100
99115 On ch=1 n=13 v=0
99360 On ch=1 n=13 v=100
99595 On ch=1 n=13 v=0
99840 On ch=1 n=12 v=100
100075 On ch=1 n=12 v=0
100320 On ch=1 n=13 v=100
100555 On ch=1 n=13 v=0
100800 On ch=1 n=13 v=100
101035 On ch=1 n=13 v=0
101280 On ch=1 n=13 v=100
101515 On ch=1 n=13 v=0
101760 On ch=1 n=12 v=100
101996 On ch=1 n=12 v=0
102240 On ch=1 n=13 v=100
102476 On ch=1 n=13 v=0
102720 On ch=1 n=13 v=100
102956 On ch=1 n=13 v=0
103200 On ch=1 n=13 v=100
103436 On ch=1 n=13 v=0
103680 On ch=1 n=12 v=100
103916 On ch=1 n=12 v=0
104160 On ch=1 n=13 v=100
104396 On ch=1 n=13 v=0
104640 On ch=1 n=13 v=100
104876 On ch=1 n=13 v=0
105120 On ch=1 n=13 v=100
105356 On ch=1 n=13 v=0
105600 On ch=1 n=12 v=100
105836 On ch=1 n=12 v=0
106080 On ch=1 n=13 v=100
106316 On ch=1 n=13 v=0
106560 On ch=1 n=13 v=100
106796 On ch=1 n=13 v=0
107040 On ch=1 n=13 v=100
107276 On ch=1 n=13 v=0
107520 On ch=1 n=12 v=100
107756 On ch=1 n=12 v=0
108480 On ch=1 n=13 v=100
108716 On ch=1 n=13 v=0
109440 On ch=1 n=13 v=100
109676 On ch=1 n=13 v=0
110400 On ch=1 n=13 v=100
110636 On ch=1 n=13 v=0
111360 On ch=1 n=12 v=100
111596 On ch=1 n=12 v=0
112320 On ch=1 n=13 v=100
112556 On ch=1 n=13 v=0
113280 On ch=1 n=13 v=100
113516 On ch=1 n=13 v=0
114240 On ch=1 n=13 v=100
114476 On ch=1 n=13 v=0
115200 On ch=1 n=12 v=100
115436 On ch=1 n=12 v=0
115680 On ch=1 n=13 v=100
115916 On ch=1 n=13 v=0
116160 On ch=1 n=13 v=100
116396 On ch=1 n=13 v=0
116640 On ch=1 n=13 v=100
116876 On ch=1 n=13 v=0
117120 On ch=1 n=12 v=100
117356 On ch=1 n=12 v=0
117600 On ch=1 n=13 v=100
117836 On ch=1 n=13 v=0
118080 On ch=1 n=13 v=100
118316 On ch=1 n=13 v=0
118560 On ch=1 n=13 v=100
118796 On ch=1 n=13 v=0
119040 On ch=1 n=12 v=100
119276 On ch=1 n=12 v=0
119520 On ch=1 n=13 v=100
119756 On ch=1 n=13 v=0
120000 On ch=1 n=13 v=100
120236 On ch=1 n=13 v=0
120480 On ch=1 n=13 v=100
120716 On ch=1 n=13 v=0
120960 On ch=1 n=12 v=100
121196 On ch=1 n=12 v=0
121440 On ch=1 n=13 v=100
121676 On ch=1 n=13 v=0
121920 On ch=1 n=13 v=100
122155 On ch=1 n=13 v=0
122400 On ch=1 n=13 v=100
122635 On ch=1 n=13 v=0
122880 On ch=1 n=12 v=100
123116 On ch=1 n=12 v=0
123360 On ch=1 n=13 v=100
123596 On ch=1 n=13 v=0
123840 On ch=1 n=13 v=100
124076 On ch=1 n=13 v=0
124320 On ch=1 n=13 v=100
124556 On ch=1 n=13 v=0
124800 On ch=1 n=12 v=100
125036 On ch=1 n=12 v=0
125280 On ch=1 n=13 v=100
125516 On ch=1 n=13 v=0
125760 On ch=1 n=13 v=100
125996 On ch=1 n=13 v=0
126240 On ch=1 n=13 v=100
126476 On ch=1 n=13 v=0
126720 On ch=1 n=12 v=100
126956 On ch=1 n=12 v=0
127200 On ch=1 n=13 v=100
127436 On ch=1 n=13 v=0
127680 On ch=1 n=13 v=100
127916 On ch=1 n=13 v=0
128160 On ch=1 n=13 v=100
128396 On ch=1 n=13 v=0
128640 On ch=1 n=13 v=100
128876 On ch=1 n=13 v=0
129120 On ch=1 n=13 v=100
129356 On ch=1 n=13 v=0
129600 On ch=1 n=13 v=100
129836 On ch=1 n=13 v=0
130080 On ch=1 n=13 v=100
130316 On ch=1 n=13 v=0
130560 On ch=1 n=13 v=100
130796 On ch=1 n=13 v=0
131040 On ch=1 n=13 v=100
131276 On ch=1 n=13 v=0
131520 On ch=1 n=13 v=100
131756 On ch=1 n=13 v=0
132000 On ch=1 n=13 v=100
132236 On ch=1 n=13 v=0
132480 On ch=1 n=13 v=100
132716 On ch=1 n=13 v=0
132960 On ch=1 n=13 v=100
133196 On ch=1 n=13 v=0
133440 On ch=1 n=13 v=100
133676 On ch=1 n=13 v=0
133920 On ch=1 n=13 v=100
134156 On ch=1 n=13 v=0
134400 On ch=1 n=13 v=100
134636 On ch=1 n=13 v=0
134880 On ch=1 n=13 v=100
135116 On ch=1 n=13 v=0
135360 On ch=1 n=13 v=100
135596 On ch=1 n=13 v=0
135840 On ch=1 n=13 v=100
136076 On ch=1 n=13 v=0
136320 On ch=1 n=13 v=100
136556 On ch=1 n=13 v=0
136800 On ch=1 n=13 v=100
137036 On ch=1 n=13 v=0
137280 On ch=1 n=13 v=100
137516 On ch=1 n=13 v=0
137760 On ch=1 n=13 v=100
137996 On ch=1 n=13 v=0
138240 On ch=1 n=13 v=100
138476 On ch=1 n=13 v=0
138720 On ch=1 n=13 v=100
138956 On ch=1 n=13 v=0
139200 On ch=1 n=13 v=100
139436 On ch=1 n=13 v=0
139680 On ch=1 n=13 v=100
139916 On ch=1 n=13 v=0
140160 On ch=1 n=13 v=100
140396 On ch=1 n=13 v=0
140640 On ch=1 n=13 v=100
140876 On ch=1 n=13 v=0
141120 On ch=1 n=13 v=100
141356 On ch=1 n=13 v=0
141600 On ch=1 n=13 v=100
141836 On ch=1 n=13 v=0
142080 On ch=1 n=13 v=100
142316 On ch=1 n=13 v=0
142560 On ch=1 n=13 v=100
142796 On ch=1 n=13 v=0
143040 On ch=1 n=13 v=100
143276 On ch=1 n=13 v=0
143520 On ch=1 n=13 v=100
143756 On ch=1 n=13 v=0
144000 On ch=1 n=13 v=100
144236 On ch=1 n=13 v=0
144480 On ch=1 n=13 v=100
144716 On ch=1 n=13 v=0
144960 On ch=1 n=13 v=100
145196 On ch=1 n=13 v=0
145440 On ch=1 n=13 v=100
145676 On ch=1 n=13 v=0
145920 On ch=1 n=13 v=100
146156 On ch=1 n=13 v=0
146400 On ch=1 n=13 v=100
146636 On ch=1 n=13 v=0
146880 On ch=1 n=13 v=100
147116 On ch=1 n=13 v=0
147360 On ch=1 n=13 v=100
147596 On ch=1 n=13 v=0
147840 On ch=1 n=13 v=100
148076 On ch=1 n=13 v=0
148320 On ch=1 n=13 v=100
148556 On ch=1 n=13 v=0
148800 On ch=1 n=13 v=100
149036 On ch=1 n=13 v=0
149280 On ch=1 n=13 v=100
149516 On ch=1 n=13 v=0
149760 On ch=1 n=13 v=100
149996 On ch=1 n=13 v=0
150240 On ch=1 n=13 v=100
150476 On ch=1 n=13 v=0
150720 On ch=1 n=13 v=100
150956 On ch=1 n=13 v=0
151200 On ch=1 n=13 v=100
151436 On ch=1 n=13 v=0
151680 On ch=1 n=13 v=100
151916 On ch=1 n=13 v=0
152160 On ch=1 n=13 v=100
152396 On ch=1 n=13 v=0
152640 On ch=1 n=13 v=100
152876 On ch=1 n=13 v=0
153120 On ch=1 n=13 v=100
153356 On ch=1 n=13 v=0
153600 On ch=1 n=13 v=100
153836 On ch=1 n=13 v=0
154080 On ch=1 n=13 v=100
154316 On ch=1 n=13 v=0
154560 On ch=1 n=13 v=100
154796 On ch=1 n=13 v=0
155040 On ch=1 n=13 v=100
155276 On ch=1 n=13 v=0
155520 On ch=1 n=13 v=100
155756 On ch=1 n=13 v=0
156256 On ch=1 n=13 v=100
156492 On ch=1 n=13 v=0
156960 On ch=1 n=13 v=100
157196 On ch=1 n=13 v=0
157680 On ch=1 n=13 v=100
157916 On ch=1 n=13 v=0
158400 On ch=1 n=13 v=100
158636 On ch=1 n=13 v=0
159120 On ch=1 n=13 v=100
159356 On ch=1 n=13 v=0
159840 On ch=1 n=13 v=100
160076 On ch=1 n=13 v=0
160560 On ch=1 n=13 v=100
160796 On ch=1 n=13 v=0
161280 On ch=1 n=13 v=100
161516 On ch=1 n=13 v=0
161760 On ch=1 n=13 v=100
161996 On ch=1 n=13 v=0
162240 On ch=1 n=13 v=100
162476 On ch=1 n=13 v=0
162720 On ch=1 n=13 v=100
162956 On ch=1 n=13 v=0
163200 On ch=1 n=13 v=100
163436 On ch=1 n=13 v=0
163680 On ch=1 n=13 v=100
163916 On ch=1 n=13 v=0
164160 On ch=1 n=13 v=100
164396 On ch=1 n=13 v=0
164640 On ch=1 n=13 v=100
164876 On ch=1 n=13 v=0
165120 On ch=1 n=13 v=100
165356 On ch=1 n=13 v=0
165600 On ch=1 n=13 v=100
165836 On ch=1 n=13 v=0
166080 On ch=1 n=13 v=100
166316 On ch=1 n=13 v=0
166560 On ch=1 n=13 v=100
166796 On ch=1 n=13 v=0
167040 On ch=1 n=13 v=100
167276 On ch=1 n=13 v=0
167520 On ch=1 n=13 v=100
167756 On ch=1 n=13 v=0
168000 On ch=1 n=12 v=100
168236 On ch=1 n=12 v=0
168480 On ch=1 n=13 v=100
168716 On ch=1 n=13 v=0
168960 On ch=1 n=13 v=100
169196 On ch=1 n=13 v=0
169440 On ch=1 n=13 v=100
169676 On ch=1 n=13 v=0
169920 On ch=1 n=12 v=100
170156 On ch=1 n=12 v=0
170400 On ch=1 n=13 v=100
170636 On ch=1 n=13 v=0
170880 On ch=1 n=13 v=100
171116 On ch=1 n=13 v=0
171360 On ch=1 n=13 v=100
171596 On ch=1 n=13 v=0
171840 On ch=1 n=12 v=100
172076 On ch=1 n=12 v=0
172320 On ch=1 n=13 v=100
172556 On ch=1 n=13 v=0
172800 On ch=1 n=13 v=100
173036 On ch=1 n=13 v=0
173280 On ch=1 n=13 v=100
173516 On ch=1 n=13 v=0
173760 On ch=1 n=12 v=100
173996 On ch=1 n=12 v=0
174240 On ch=1 n=13 v=100
174476 On ch=1 n=13 v=0
174720 On ch=1 n=13 v=100
174956 On ch=1 n=13 v=0
175200 On ch=1 n=13 v=100
175436 On ch=1 n=13 v=0
175680 On ch=1 n=12 v=100
175916 On ch=1 n=12 v=0
176160 On ch=1 n=13 v=100
176396 On ch=1 n=13 v=0
176640 On ch=1 n=13 v=100
176876 On ch=1 n=13 v=0
177120 On ch=1 n=13 v=100
177356 On ch=1 n=13 v=0
177600 On ch=1 n=12 v=100
177836 On ch=1 n=12 v=0
178080 On ch=1 n=13 v=100
178316 On ch=1 n=13 v=0
178560 On ch=1 n=13 v=100
178796 On ch=1 n=13 v=0
179040 On ch=1 n=13 v=100
179276 On ch=1 n=13 v=0
179520 On ch=1 n=12 v=100
179756 On ch=1 n=12 v=0
180000 On ch=1 n=13 v=100
180236 On ch=1 n=13 v=0
180480 On ch=1 n=13 v=100
180716 On ch=1 n=13 v=0
180960 On ch=1 n=13 v=100
181196 On ch=1 n=13 v=0
181440 On ch=1 n=12 v=100
181676 On ch=1 n=12 v=0
181920 On ch=1 n=13 v=100
182156 On ch=1 n=13 v=0
182400 On ch=1 n=13 v=100
182636 On ch=1 n=13 v=0
182880 On ch=1 n=13 v=100
183116 On ch=1 n=13 v=0
183360 On ch=1 n=12 v=100
183596 On ch=1 n=12 v=0
183840 On ch=1 n=13 v=100
184076 On ch=1 n=13 v=0
184320 On ch=1 n=13 v=100
184556 On ch=1 n=13 v=0
184800 On ch=1 n=13 v=100
185036 On ch=1 n=13 v=0
185280 On ch=1 n=12 v=100
185516 On ch=1 n=12 v=0
185760 On ch=1 n=13 v=100
185996 On ch=1 n=13 v=0
186240 On ch=1 n=13 v=100
186476 On ch=1 n=13 v=0
186720 On ch=1 n=13 v=100
186956 On ch=1 n=13 v=0
187200 On ch=1 n=12 v=100
187436 On ch=1 n=12 v=0
187680 On ch=1 n=13 v=100
187916 On ch=1 n=13 v=0
188160 On ch=1 n=13 v=100
188396 On ch=1 n=13 v=0
188640 On ch=1 n=13 v=100
188876 On ch=1 n=13 v=0
189120 On ch=1 n=12 v=100
189356 On ch=1 n=12 v=0
189600 On ch=1 n=13 v=100
189836 On ch=1 n=13 v=0
190080 On ch=1 n=13 v=100
190316 On ch=1 n=13 v=0
190560 On ch=1 n=13 v=100
190796 On ch=1 n=13 v=0
191040 On ch=1 n=12 v=100
191276 On ch=1 n=12 v=0
191520 On ch=1 n=13 v=100
191756 On ch=1 n=13 v=0
192000 On ch=1 n=13 v=100
192236 On ch=1 n=13 v=0
192480 On ch=1 n=13 v=100
192716 On ch=1 n=13 v=0
192960 On ch=1 n=12 v=100
193196 On ch=1 n=12 v=0
193440 On ch=1 n=13 v=100
193676 On ch=1 n=13 v=0
193920 On ch=1 n=13 v=100
194156 On ch=1 n=13 v=0
194400 On ch=1 n=13 v=100
194636 On ch=1 n=13 v=0
194880 On ch=1 n=12 v=100
195116 On ch=1 n=12 v=0
195360 On ch=1 n=13 v=100
195596 On ch=1 n=13 v=0
195840 On ch=1 n=13 v=100
196076 On ch=1 n=13 v=0
196320 On ch=1 n=13 v=100
196556 On ch=1 n=13 v=0
196800 On ch=1 n=12 v=100
197036 On ch=1 n=12 v=0
197280 On ch=1 n=13 v=100
197516 On ch=1 n=13 v=0
197760 On ch=1 n=13 v=100
197996 On ch=1 n=13 v=0
198240 On ch=1 n=13 v=100
198476 On ch=1 n=13 v=0
198720 On ch=1 n=12 v=100
198956 On ch=1 n=12 v=0
199200 On ch=1 n=13 v=100
199436 On ch=1 n=13 v=0
199680 On ch=1 n=13 v=100
199916 On ch=1 n=13 v=0
200160 On ch=1 n=13 v=100
200396 On ch=1 n=13 v=0
200640 On ch=1 n=12 v=100
200876 On ch=1 n=12 v=0
201120 On ch=1 n=13 v=100
201356 On ch=1 n=13 v=0
201600 On ch=1 n=13 v=100
201836 On ch=1 n=13 v=0
202080 On ch=1 n=13 v=100
202316 On ch=1 n=13 v=0
202560 On ch=1 n=12 v=100
202796 On ch=1 n=12 v=0
203040 On ch=1 n=13 v=100
203276 On ch=1 n=13 v=0
203520 On ch=1 n=13 v=100
203756 On ch=1 n=13 v=0
204000 On ch=1 n=13 v=100
204236 On ch=1 n=13 v=0
204480 On ch=1 n=12 v=100
204716 On ch=1 n=12 v=0
204960 On ch=1 n=13 v=100
205196 On ch=1 n=13 v=0
205440 On ch=1 n=13 v=100
205676 On ch=1 n=13 v=0
205920 On ch=1 n=13 v=100
206156 On ch=1 n=13 v=0
206400 On ch=1 n=12 v=100
206636 On ch=1 n=12 v=0
206880 On ch=1 n=13 v=100
207116 On ch=1 n=13 v=0
207360 On ch=1 n=13 v=100
207596 On ch=1 n=13 v=0
207840 On ch=1 n=13 v=100
208076 On ch=1 n=13 v=0
208320 On ch=1 n=12 v=100
208556 On ch=1 n=12 v=0
208800 On ch=1 n=13 v=100
209036 On ch=1 n=13 v=0
209280 On ch=1 n=13 v=100
209516 On ch=1 n=13 v=0
209760 On ch=1 n=13 v=100
209996 On ch=1 n=13 v=0
210240 On ch=1 n=12 v=100
210476 On ch=1 n=12 v=0
210720 On ch=1 n=13 v=100
210956 On ch=1 n=13 v=0
211200 On ch=1 n=13 v=100
211436 On ch=1 n=13 v=0
211680 On ch=1 n=13 v=100
211916 On ch=1 n=13 v=0
212160 On ch=1 n=12 v=100
212396 On ch=1 n=12 v=0
212640 On ch=1 n=13 v=100
212876 On ch=1 n=13 v=0
213120 On ch=1 n=13 v=100
213356 On ch=1 n=13 v=0
213600 On ch=1 n=13 v=100
213836 On ch=1 n=13 v=0
214080 On ch=1 n=12 v=100
214316 On ch=1 n=12 v=0
214560 On ch=1 n=13 v=100
214796 On ch=1 n=13 v=0
215040 On ch=1 n=13 v=100
215276 On ch=1 n=13 v=0
215520 On ch=1 n=13 v=100
215756 On ch=1 n=13 v=0
216000 On ch=1 n=12 v=100
216236 On ch=1 n=12 v=0
216480 On ch=1 n=13 v=100
216716 On ch=1 n=13 v=0
216960 On ch=1 n=13 v=100
217196 On ch=1 n=13 v=0
217440 On ch=1 n=13 v=100
217676 On ch=1 n=13 v=0
217920 On ch=1 n=12 v=100
218156 On ch=1 n=12 v=0
218400 On ch=1 n=13 v=100
218636 On ch=1 n=13 v=0
218880 On ch=1 n=13 v=100
219116 On ch=1 n=13 v=0
219360 On ch=1 n=13 v=100
219596 On ch=1 n=13 v=0
219840 On ch=1 n=12 v=100
220076 On ch=1 n=12 v=0
220320 On ch=1 n=13 v=100
220556 On ch=1 n=13 v=0
220800 On ch=1 n=13 v=100
221036 On ch=1 n=13 v=0
221280 On ch=1 n=13 v=100
221516 On ch=1 n=13 v=0
221760 On ch=1 n=12 v=100
221996 On ch=1 n=12 v=0
222240 On ch=1 n=13 v=100
222476 On ch=1 n=13 v=0
222720 On ch=1 n=13 v=100
222956 On ch=1 n=13 v=0
223200 On ch=1 n=13 v=100
223436 On ch=1 n=13 v=0
223680 On ch=1 n=12 v=100
223916 On ch=1 n=12 v=0
224160 On ch=1 n=13 v=100
224396 On ch=1 n=13 v=0
224640 On ch=1 n=13 v=100
224876 On ch=1 n=13 v=0
225120 On ch=1 n=13 v=100
225356 On ch=1 n=13 v=0
225600 On ch=1 n=12 v=100
225836 On ch=1 n=12 v=0
226080 On ch=1 n=13 v=100
226316 On ch=1 n=13 v=0
226560 On ch=1 n=13 v=100
226796 On ch=1 n=13 v=0
227040 On ch=1 n=13 v=100
227276 On ch=1 n=13 v=0
227520 On ch=1 n=12 v=100
227756 On ch=1 n=12 v=0
228000 On ch=1 n=13 v=100
228236 On ch=1 n=13 v=0
228480 On ch=1 n=13 v=100
228716 On ch=1 n=13 v=0
228960 On ch=1 n=13 v=100
229196 On ch=1 n=13 v=0
229440 On ch=1 n=12 v=100
229676 On ch=1 n=12 v=0
229920 On ch=1 n=13 v=100
230156 On ch=1 n=13 v=0
230400 On ch=1 n=13 v=100
230636 On ch=1 n=13 v=0
230880 On ch=1 n=13 v=100
231116 On ch=1 n=13 v=0
231360 On ch=1 n=12 v=100
231596 On ch=1 n=12 v=0
231840 On ch=1 n=13 v=100
232076 On ch=1 n=13 v=0
232320 On ch=1 n=13 v=100
232556 On ch=1 n=13 v=0
232800 On ch=1 n=13 v=100
233036 On ch=1 n=13 v=0
233280 On ch=1 n=12 v=100
233516 On ch=1 n=12 v=0
233760 On ch=1 n=13 v=100
233996 On ch=1 n=13 v=0
234240 On ch=1 n=13 v=100
234476 On ch=1 n=13 v=0
234720 On ch=1 n=13 v=100
234956 On ch=1 n=13 v=0
235200 On ch=1 n=12 v=100
235436 On ch=1 n=12 v=0
235680 On ch=1 n=13 v=100
235916 On ch=1 n=13 v=0
236160 On ch=1 n=13 v=100
236396 On ch=1 n=13 v=0
236640 On ch=1 n=13 v=100
236876 On ch=1 n=13 v=0
237120 On ch=1 n=12 v=100
237356 On ch=1 n=12 v=0
237600 On ch=1 n=13 v=100
237836 On ch=1 n=13 v=0
238080 On ch=1 n=13 v=100
238316 On ch=1 n=13 v=0
238560 On ch=1 n=13 v=100
238796 On ch=1 n=13 v=0
239040 On ch=1 n=12 v=100
239276 On ch=1 n=12 v=0
239520 On ch=1 n=13 v=100
239756 On ch=1 n=13 v=0
240000 On ch=1 n=13 v=100
240236 On ch=1 n=13 v=0
240480 On ch=1 n=13 v=100
240716 On ch=1 n=13 v=0
240960 On ch=1 n=12 v=100
241196 On ch=1 n=12 v=0
241440 On ch=1 n=13 v=100
241676 On ch=1 n=13 v=0
241920 On ch=1 n=13 v=100
242156 On ch=1 n=13 v=0
242400 On ch=1 n=13 v=100
242636 On ch=1 n=13 v=0
242880 On ch=1 n=12 v=100
243116 On ch=1 n=12 v=0
243360 On ch=1 n=13 v=100
243596 On ch=1 n=13 v=0
243840 On ch=1 n=13 v=100
244076 On ch=1 n=13 v=0
244320 On ch=1 n=13 v=100
244556 On ch=1 n=13 v=0
244800 On ch=1 n=12 v=100
245036 On ch=1 n=12 v=0
245280 On ch=1 n=13 v=100
245516 On ch=1 n=13 v=0
245760 On ch=1 n=13 v=100
245996 On ch=1 n=13 v=0
246240 On ch=1 n=13 v=100
246476 On ch=1 n=13 v=0
246720 On ch=1 n=12 v=100
246956 On ch=1 n=12 v=0
247200 On ch=1 n=13 v=100
247436 On ch=1 n=13 v=0
247680 On ch=1 n=13 v=100
247916 On ch=1 n=13 v=0
248160 On ch=1 n=13 v=100
248396 On ch=1 n=13 v=0
248640 On ch=1 n=12 v=100
248876 On ch=1 n=12 v=0
249120 On ch=1 n=13 v=100
249356 On ch=1 n=13 v=0
249600 On ch=1 n=13 v=100
249836 On ch=1 n=13 v=0
250080 On ch=1 n=13 v=100
250316 On ch=1 n=13 v=0
250560 On ch=1 n=12 v=100
250796 On ch=1 n=12 v=0
251040 On ch=1 n=13 v=100
251276 On ch=1 n=13 v=0
251520 On ch=1 n=13 v=100
251756 On ch=1 n=13 v=0
252000 On ch=1 n=13 v=100
252236 On ch=1 n=13 v=0
252480 On ch=1 n=12 v=100
252716 On ch=1 n=12 v=0
252960 On ch=1 n=13 v=100
253196 On ch=1 n=13 v=0
253440 On ch=1 n=13 v=100
253676 On ch=1 n=13 v=0
253920 On ch=1 n=13 v=100
254156 On ch=1 n=13 v=0
254400 On ch=1 n=12 v=100
254636 On ch=1 n=12 v=0
254880 On ch=1 n=13 v=100
255116 On ch=1 n=13 v=0
255360 On ch=1 n=13 v=100
255596 On ch=1 n=13 v=0
255840 On ch=1 n=13 v=100
256076 On ch=1 n=13 v=0
256320 On ch=1 n=12 v=100
256556 On ch=1 n=12 v=0
256800 On ch=1 n=13 v=100
257036 On ch=1 n=13 v=0
257280 On ch=1 n=13 v=100
257516 On ch=1 n=13 v=0
257760 On ch=1 n=13 v=100
257996 On ch=1 n=13 v=0
258240 On ch=1 n=12 v=100
258476 On ch=1 n=12 v=0
258720 On ch=1 n=13 v=100
258956 On ch=1 n=13 v=0
259200 On ch=1 n=13 v=100
259436 On ch=1 n=13 v=0
259680 On ch=1 n=13 v=100
259916 On ch=1 n=13 v=0
260160 On ch=1 n=12 v=100
260396 On ch=1 n=12 v=0
260640 On ch=1 n=13 v=100
260876 On ch=1 n=13 v=0
261120 On ch=1 n=13 v=100
261356 On ch=1 n=13 v=0
261600 On ch=1 n=13 v=100
261836 On ch=1 n=13 v=0
262080 On ch=1 n=12 v=100
262316 On ch=1 n=12 v=0
262560 On ch=1 n=13 v=100
262796 On ch=1 n=13 v=0
263040 On ch=1 n=13 v=100
263276 On ch=1 n=13 v=0
263520 On ch=1 n=13 v=100
263756 On ch=1 n=13 v=0
264000 On ch=1 n=12 v=100
264236 On ch=1 n=12 v=0
264480 On ch=1 n=13 v=100
264716 On ch=1 n=13 v=0
264960 On ch=1 n=13 v=100
265196 On ch=1 n=13 v=0
265440 On ch=1 n=13 v=100
265676 On ch=1 n=13 v=0
265920 On ch=1 n=12 v=100
266156 On ch=1 n=12 v=0
266400 On ch=1 n=13 v=100
266636 On ch=1 n=13 v=0
266880 On ch=1 n=13 v=100
267116 On ch=1 n=13 v=0
267360 On ch=1 n=13 v=100
267596 On ch=1 n=13 v=0
267840 On ch=1 n=12 v=100
268076 On ch=1 n=12 v=0
268320 On ch=1 n=13 v=100
268556 On ch=1 n=13 v=0
268800 On ch=1 n=13 v=100
269036 On ch=1 n=13 v=0
269280 On ch=1 n=13 v=100
269516 On ch=1 n=13 v=0
269760 On ch=1 n=12 v=100
269996 On ch=1 n=12 v=0
270240 On ch=1 n=13 v=100
270476 On ch=1 n=13 v=0
270720 On ch=1 n=13 v=100
270956 On ch=1 n=13 v=0
271200 On ch=1 n=13 v=100
271436 On ch=1 n=13 v=0
271680 On ch=1 n=12 v=100
271916 On ch=1 n=12 v=0
272160 On ch=1 n=13 v=100
272396 On ch=1 n=13 v=0
272640 On ch=1 n=13 v=100
272876 On ch=1 n=13 v=0
273120 On ch=1 n=13 v=100
273356 On ch=1 n=13 v=0
273600 On ch=1 n=12 v=100
273836 On ch=1 n=12 v=0
274080 On ch=1 n=13 v=100
274316 On ch=1 n=13 v=0
274560 On ch=1 n=13 v=100
274796 On ch=1 n=13 v=0
275040 On ch=1 n=13 v=100
275276 On ch=1 n=13 v=0
275520 On ch=1 n=12 v=100
275756 On ch=1 n=12 v=0
276000 On ch=1 n=13 v=100
276236 On ch=1 n=13 v=0
276480 On ch=1 n=13 v=100
276716 On ch=1 n=13 v=0
276960 On ch=1 n=13 v=100
277196 On ch=1 n=13 v=0
277440 On ch=1 n=12 v=100
277676 On ch=1 n=12 v=0
277920 On ch=1 n=13 v=100
278156 On ch=1 n=13 v=0
278400 On ch=1 n=13 v=100
278636 On ch=1 n=13 v=0
278880 On ch=1 n=13 v=100
279116 On ch=1 n=13 v=0
279360 On ch=1 n=12 v=100
279596 On ch=1 n=12 v=0
279840 On ch=1 n=13 v=100
280076 On ch=1 n=13 v=0
280320 On ch=1 n=13 v=100
280556 On ch=1 n=13 v=0
280800 On ch=1 n=13 v=100
281036 On ch=1 n=13 v=0
281280 On ch=1 n=12 v=100
281516 On ch=1 n=12 v=0
281760 On ch=1 n=13 v=100
281996 On ch=1 n=13 v=0
282240 On ch=1 n=13 v=100
282476 On ch=1 n=13 v=0
282720 On ch=1 n=13 v=100
282956 On ch=1 n=13 v=0
283200 On ch=1 n=12 v=100
283436 On ch=1 n=12 v=0
283680 On ch=1 n=13 v=100
283916 On ch=1 n=13 v=0
284160 On ch=1 n=13 v=100
284396 On ch=1 n=13 v=0
284640 On ch=1 n=13 v=100
284876 On ch=1 n=13 v=0
285120 On ch=1 n=12 v=100
285356 On ch=1 n=12 v=0
285600 On ch=1 n=13 v=100
285836 On ch=1 n=13 v=0
286080 On ch=1 n=13 v=100
286316 On ch=1 n=13 v=0
286560 On ch=1 n=13 v=100
286796 On ch=1 n=13 v=0
287040 On ch=1 n=12 v=100
287276 On ch=1 n=12 v=0
287520 On ch=1 n=13 v=100
287756 On ch=1 n=13 v=0
288000 On ch=1 n=13 v=100
288236 On ch=1 n=13 v=0
288480 On ch=1 n=13 v=100
288716 On ch=1 n=13 v=0
288960 On ch=1 n=12 v=100
289196 On ch=1 n=12 v=0
289440 On ch=1 n=13 v=100
289676 On ch=1 n=13 v=0
289920 On ch=1 n=13 v=100
290156 On ch=1 n=13 v=0
290400 On ch=1 n=13 v=100
290636 On ch=1 n=13 v=0
290880 On ch=1 n=12 v=100
291116 On ch=1 n=12 v=0
291360 On ch=1 n=13 v=100
291596 On ch=1 n=13 v=0
291840 On ch=1 n=13 v=100
292076 On ch=1 n=13 v=0
292320 On ch=1 n=13 v=100
292556 On ch=1 n=13 v=0
292800 On ch=1 n=12 v=100
293036 On ch=1 n=12 v=0
293280 On ch=1 n=13 v=100
293516 On ch=1 n=13 v=0
293760 On ch=1 n=13 v=100
293996 On ch=1 n=13 v=0
294240 On ch=1 n=13 v=100
294476 On ch=1 n=13 v=0
294720 On ch=1 n=12 v=100
294956 On ch=1 n=12 v=0
295200 On ch=1 n=13 v=100
295436 On ch=1 n=13 v=0
295680 On ch=1 n=13 v=100
295916 On ch=1 n=13 v=0
296160 On ch=1 n=13 v=100
296396 On ch=1 n=13 v=0
296640 On ch=1 n=12 v=100
296876 On ch=1 n=12 v=0
297120 On ch=1 n=13 v=100
297356 On ch=1 n=13 v=0
297600 On ch=1 n=13 v=100
297836 On ch=1 n=13 v=0
298080 On ch=1 n=13 v=100
298316 On ch=1 n=13 v=0
298560 On ch=1 n=12 v=100
298796 On ch=1 n=12 v=0
299040 On ch=1 n=13 v=100
299276 On ch=1 n=13 v=0
299520 On ch=1 n=13 v=100
299756 On ch=1 n=13 v=0
300000 On ch=1 n=13 v=100
300236 On ch=1 n=13 v=0
300480 On ch=1 n=12 v=100
300716 On ch=1 n=12 v=0
300960 On ch=1 n=13 v=100
301196 On ch=1 n=13 v=0
301440 On ch=1 n=13 v=100
301676 On ch=1 n=13 v=0
301920 On ch=1 n=13 v=100
302156 On ch=1 n=13 v=0
302400 On ch=1 n=12 v=100
302636 On ch=1 n=12 v=0
302880 On ch=1 n=13 v=100
303116 On ch=1 n=13 v=0
303360 On ch=1 n=13 v=100
303596 On ch=1 n=13 v=0
303840 On ch=1 n=13 v=100
304076 On ch=1 n=13 v=0
304320 On ch=1 n=12 v=100
304556 On ch=1 n=12 v=0
304800 On ch=1 n=13 v=100
305036 On ch=1 n=13 v=0
305280 On ch=1 n=13 v=100
305516 On ch=1 n=13 v=0
305760 On ch=1 n=13 v=100
305996 On ch=1 n=13 v=0
306240 On ch=1 n=12 v=100
306476 On ch=1 n=12 v=0
306720 On ch=1 n=13 v=100
306956 On ch=1 n=13 v=0
307200 On ch=1 n=13 v=100
307436 On ch=1 n=13 v=0
307680 On ch=1 n=13 v=100
307916 On ch=1 n=13 v=0
308160 On ch=1 n=12 v=100
308396 On ch=1 n=12 v=0
308640 On ch=1 n=13 v=100
308876 On ch=1 n=13 v=0
309120 On ch=1 n=13 v=100
309356 On ch=1 n=13 v=0
309600 On ch=1 n=13 v=100
309836 On ch=1 n=13 v=0
310080 On ch=1 n=12 v=100
310316 On ch=1 n=12 v=0
310560 On ch=1 n=13 v=100
310796 On ch=1 n=13 v=0
311040 On ch=1 n=13 v=100
311276 On ch=1 n=13 v=0
311520 On ch=1 n=13 v=100
311756 On ch=1 n=13 v=0
312000 On ch=1 n=12 v=100
312236 On ch=1 n=12 v=0
312480 On ch=1 n=13 v=100
312716 On ch=1 n=13 v=0
312960 On ch=1 n=13 v=100
313196 On ch=1 n=13 v=0
313440 On ch=1 n=13 v=100
313676 On ch=1 n=13 v=0
313920 On ch=1 n=12 v=100
314156 On ch=1 n=12 v=0
314400 On ch=1 n=13 v=100
314636 On ch=1 n=13 v=0
314880 On ch=1 n=13 v=100
315116 On ch=1 n=13 v=0
315360 On ch=1 n=13 v=100
315596 On ch=1 n=13 v=0
315840 On ch=1 n=12 v=100
316076 On ch=1 n=12 v=0
316320 On ch=1 n=13 v=100
316556 On ch=1 n=13 v=0
316800 On ch=1 n=13 v=100
317036 On ch=1 n=13 v=0
317280 On ch=1 n=13 v=100
317516 On ch=1 n=13 v=0
317760 On ch=1 n=12 v=100
317996 On ch=1 n=12 v=0
318240 On ch=1 n=13 v=100
318476 On ch=1 n=13 v=0
318720 On ch=1 n=13 v=100
318956 On ch=1 n=13 v=0
319200 On ch=1 n=13 v=100
319436 On ch=1 n=13 v=0
319680 On ch=1 n=12 v=100
319916 On ch=1 n=12 v=0
320160 On ch=1 n=13 v=100
320396 On ch=1 n=13 v=0
320640 On ch=1 n=13 v=100
320876 On ch=1 n=13 v=0
321120 On ch=1 n=13 v=100
321356 On ch=1 n=13 v=0
321600 On ch=1 n=12 v=100
321836 On ch=1 n=12 v=0
322080 On ch=1 n=13 v=100
322316 On ch=1 n=13 v=0
322560 On ch=1 n=13 v=100
322796 On ch=1 n=13 v=0
323040 On ch=1 n=13 v=100
323276 On ch=1 n=13 v=0
323520 On ch=1 n=12 v=100
323756 On ch=1 n=12 v=0
324000 On ch=1 n=13 v=100
324236 On ch=1 n=13 v=0
324480 On ch=1 n=13 v=100
324716 On ch=1 n=13 v=0
324960 On ch=1 n=13 v=100
325196 On ch=1 n=13 v=0
325440 On ch=1 n=12 v=100
325676 On ch=1 n=12 v=0
325920 On ch=1 n=13 v=100
326156 On ch=1 n=13 v=0
326400 On ch=1 n=13 v=100
326636 On ch=1 n=13 v=0
326880 On ch=1 n=13 v=100
327116 On ch=1 n=13 v=0
327360 On ch=1 n=12 v=100
327596 On ch=1 n=12 v=0
327840 On ch=1 n=13 v=100
328076 On ch=1 n=13 v=0
328320 On ch=1 n=13 v=100
328556 On ch=1 n=13 v=0
328800 On ch=1 n=13 v=100
329036 On ch=1 n=13 v=0
329280 On ch=1 n=12 v=100
329516 On ch=1 n=12 v=0
329760 On ch=1 n=13 v=100
329996 On ch=1 n=13 v=0
330240 On ch=1 n=13 v=100
330476 On ch=1 n=13 v=0
330720 On ch=1 n=13 v=100
330956 On ch=1 n=13 v=0
331200 On ch=1 n=12 v=100
331436 On ch=1 n=12 v=0
331680 On ch=1 n=13 v=100
331916 On ch=1 n=13 v=0
332160 On ch=1 n=13 v=100
332396 On ch=1 n=13 v=0
332640 On ch=1 n=13 v=100
332876 On ch=1 n=13 v=0
333120 On ch=1 n=12 v=100
333356 On ch=1 n=12 v=0
333600 On ch=1 n=13 v=100
333836 On ch=1 n=13 v=0
334080 On ch=1 n=13 v=100
334316 On ch=1 n=13 v=0
334560 On ch=1 n=13 v=100
334796 On ch=1 n=13 v=0
335040 On ch=1 n=12 v=100
335276 On ch=1 n=12 v=0
335520 On ch=1 n=13 v=100
335756 On ch=1 n=13 v=0
336000 On ch=1 n=13 v=100
336236 On ch=1 n=13 v=0
336480 On ch=1 n=13 v=100
336716 On ch=1 n=13 v=0
336960 On ch=1 n=12 v=100
337196 On ch=1 n=12 v=0
337440 On ch=1 n=13 v=100
337676 On ch=1 n=13 v=0
337920 On ch=1 n=13 v=100
338156 On ch=1 n=13 v=0
338400 On ch=1 n=13 v=100
338636 On ch=1 n=13 v=0
338880 On ch=1 n=12 v=100
339116 On ch=1 n=12 v=0
339360 On ch=1 n=13 v=100
339596 On ch=1 n=13 v=0
339840 On ch=1 n=13 v=100
340076 On ch=1 n=13 v=0
340320 On ch=1 n=13 v=100
340556 On ch=1 n=13 v=0
340800 On ch=1 n=12 v=100
341036 On ch=1 n=12 v=0
341280 On ch=1 n=13 v=100
341516 On ch=1 n=13 v=0
341760 On ch=1 n=13 v=100
341996 On ch=1 n=13 v=0
342240 On ch=1 n=13 v=100
342476 On ch=1 n=13 v=0
342720 On ch=1 n=12 v=100
342956 On ch=1 n=12 v=0
343200 On ch=1 n=13 v=100
343436 On ch=1 n=13 v=0
343680 On ch=1 n=13 v=100
343916 On ch=1 n=13 v=0
344160 On ch=1 n=13 v=100
344396 On ch=1 n=13 v=0
344640 On ch=1 n=12 v=100
344876 On ch=1 n=12 v=0
345120 On ch=1 n=13 v=100
345356 On ch=1 n=13 v=0
345600 On ch=1 n=13 v=100
345836 On ch=1 n=13 v=0
346080 On ch=1 n=13 v=100
346316 On ch=1 n=13 v=0
346560 On ch=1 n=12 v=100
346796 On ch=1 n=12 v=0
347040 On ch=1 n=13 v=100
347276 On ch=1 n=13 v=0
347520 On ch=1 n=13 v=100
347756 On ch=1 n=13 v=0
348000 On ch=1 n=13 v=100
348236 On ch=1 n=13 v=0
348480 On ch=1 n=12 v=100
348716 On ch=1 n=12 v=0
348960 On ch=1 n=13 v=100
349196 On ch=1 n=13 v=0
349440 On ch=1 n=13 v=100
349676 On ch=1 n=13 v=0
349920 On ch=1 n=13 v=100
350156 On ch=1 n=13 v=0
350400 On ch=1 n=12 v=100
350636 On ch=1 n=12 v=0
350880 On ch=1 n=13 v=100
351116 On ch=1 n=13 v=0
351360 On ch=1 n=13 v=100
351596 On ch=1 n=13 v=0
351840 On ch=1 n=13 v=100
352076 On ch=1 n=13 v=0
352320 On ch=1 n=12 v=100
352556 On ch=1 n=12 v=0
352800 On ch=1 n=13 v=100
353036 On ch=1 n=13 v=0
353280 On ch=1 n=13 v=100
353516 On ch=1 n=13 v=0
353760 On ch=1 n=13 v=100
353996 On ch=1 n=13 v=0
354240 On ch=1 n=12 v=100
354476 On ch=1 n=12 v=0
354720 On ch=1 n=13 v=100
354956 On ch=1 n=13 v=0
355200 On ch=1 n=13 v=100
355436 On ch=1 n=13 v=0
355680 On ch=1 n=13 v=100
355916 On ch=1 n=13 v=0
356160 On ch=1 n=12 v=100
356396 On ch=1 n=12 v=0
356640 On ch=1 n=13 v=100
356876 On ch=1 n=13 v=0
357120 On ch=1 n=13 v=100
357356 On ch=1 n=13 v=0
357600 On ch=1 n=13 v=100
357836 On ch=1 n=13 v=0
358080 On ch=1 n=12 v=100
358316 On ch=1 n=12 v=0
358560 On ch=1 n=13 v=100
358796 On ch=1 n=13 v=0
359040 On ch=1 n=13 v=100
359276 On ch=1 n=13 v=0
359520 On ch=1 n=13 v=100
359756 On ch=1 n=13 v=0
360000 On ch=1 n=12 v=100
360236 On ch=1 n=12 v=0
360480 On ch=1 n=13 v=100
360716 On ch=1 n=13 v=0
360960 On ch=1 n=13 v=100
361196 On ch=1 n=13 v=0
361440 On ch=1 n=13 v=100
361676 On ch=1 n=13 v=0
361920 On ch=1 n=12 v=100
362156 On ch=1 n=12 v=0
362400 On ch=1 n=13 v=100
362636 On ch=1 n=13 v=0
362880 On ch=1 n=13 v=100
363116 On ch=1 n=13 v=0
363360 On ch=1 n=13 v=100
363596 On ch=1 n=13 v=0
363840 On ch=1 n=12 v=100
364076 On ch=1 n=12 v=0
364320 On ch=1 n=13 v=100
364556 On ch=1 n=13 v=0
364800 On ch=1 n=13 v=100
365036 On ch=1 n=13 v=0
365280 On ch=1 n=13 v=100
365516 On ch=1 n=13 v=0
365760 On ch=1 n=12 v=100
365996 On ch=1 n=12 v=0
366240 On ch=1 n=13 v=100
366476 On ch=1 n=13 v=0
366720 On ch=1 n=13 v=100
366956 On ch=1 n=13 v=0
367200 On ch=1 n=13 v=100
367436 On ch=1 n=13 v=0
367680 On ch=1 n=12 v=100
367916 On ch=1 n=12 v=0
368160 On ch=1 n=13 v=100
368396 On ch=1 n=13 v=0
368640 On ch=1 n=13 v=100
368876 On ch=1 n=13 v=0
369120 On ch=1 n=13 v=100
369356 On ch=1 n=13 v=0
369600 On ch=1 n=12 v=100
369836 On ch=1 n=12 v=0
370080 On ch=1 n=13 v=100
370316 On ch=1 n=13 v=0
370560 On ch=1 n=13 v=100
370796 On ch=1 n=13 v=0
371040 On ch=1 n=13 v=100
371276 On ch=1 n=13 v=0
371520 On ch=1 n=12 v=100
371756 On ch=1 n=12 v=0
372000 On ch=1 n=13 v=100
372236 On ch=1 n=13 v=0
372480 On ch=1 n=13 v=100
372716 On ch=1 n=13 v=0
372960 On ch=1 n=13 v=100
373196 On ch=1 n=13 v=0
373440 On ch=1 n=12 v=100
373676 On ch=1 n=12 v=0
373920 On ch=1 n=13 v=100
374156 On ch=1 n=13 v=0
374400 On ch=1 n=13 v=100
374636 On ch=1 n=13 v=0
374880 On ch=1 n=13 v=100
375116 On ch=1 n=13 v=0
375360 On ch=1 n=12 v=100
375596 On ch=1 n=12 v=0
375840 On ch=1 n=13 v=100
376076 On ch=1 n=13 v=0
376320 On ch=1 n=13 v=100
376556 On ch=1 n=13 v=0
376800 On ch=1 n=13 v=100
377036 On ch=1 n=13 v=0
377280 On ch=1 n=12 v=100
377516 On ch=1 n=12 v=0
377760 On ch=1 n=13 v=100
377996 On ch=1 n=13 v=0
378240 On ch=1 n=13 v=100
378476 On ch=1 n=13 v=0
378720 On ch=1 n=13 v=100
378956 On ch=1 n=13 v=0
379200 On ch=1 n=12 v=100
379436 On ch=1 n=12 v=0
379680 On ch=1 n=13 v=100
379916 On ch=1 n=13 v=0
380160 On ch=1 n=13 v=100
380396 On ch=1 n=13 v=0
380640 On ch=1 n=13 v=100
380876 On ch=1 n=13 v=0
381120 On ch=1 n=12 v=100
381356 On ch=1 n=12 v=0
381600 On ch=1 n=13 v=100
381836 On ch=1 n=13 v=0
382080 On ch=1 n=13 v=100
382316 On ch=1 n=13 v=0
382560 On ch=1 n=13 v=100
382796 On ch=1 n=13 v=0
383040 On ch=1 n=12 v=100
383276 On ch=1 n=12 v=0
383520 On ch=1 n=13 v=100
383756 On ch=1 n=13 v=0
384000 On ch=1 n=13 v=100
384236 On ch=1 n=13 v=0
384480 On ch=1 n=13 v=100
384716 On ch=1 n=13 v=0
384960 On ch=1 n=12 v=100
385196 On ch=1 n=12 v=0
385440 On ch=1 n=13 v=100
385676 On ch=1 n=13 v=0
385920 On ch=1 n=13 v=100
386156 On ch=1 n=13 v=0
386400 On ch=1 n=13 v=100
386636 On ch=1 n=13 v=0
386880 On ch=1 n=12 v=100
387116 On ch=1 n=12 v=0
387360 On ch=1 n=13 v=100
387596 On ch=1 n=13 v=0
387840 On ch=1 n=13 v=100
388076 On ch=1 n=13 v=0
388320 On ch=1 n=13 v=100
388556 On ch=1 n=13 v=0
388800 On ch=1 n=12 v=100
389036 On ch=1 n=12 v=0
389280 On ch=1 n=13 v=100
389516 On ch=1 n=13 v=0
389760 On ch=1 n=13 v=100
389996 On ch=1 n=13 v=0
390240 On ch=1 n=13 v=100
390476 On ch=1 n=13 v=0
390720 On ch=1 n=12 v=100
390956 On ch=1 n=12 v=0
391200 On ch=1 n=13 v=100
391436 On ch=1 n=13 v=0
391680 On ch=1 n=13 v=100
391916 On ch=1 n=13 v=0
392160 On ch=1 n=13 v=100
392396 On ch=1 n=13 v=0
392640 On ch=1 n=12 v=100
392876 On ch=1 n=12 v=0
393120 On ch=1 n=13 v=100
393356 On ch=1 n=13 v=0
393600 On ch=1 n=13 v=100
393836 On ch=1 n=13 v=0
394080 On ch=1 n=13 v=100
394316 On ch=1 n=13 v=0
394560 On ch=1 n=12 v=100
394796 On ch=1 n=12 v=0
395040 On ch=1 n=13 v=100
395276 On ch=1 n=13 v=0
395520 On ch=1 n=13 v=100
395756 On ch=1 n=13 v=0
396000 On ch=1 n=13 v=100
396236 On ch=1 n=13 v=0
396480 On ch=1 n=12 v=100
396716 On ch=1 n=12 v=0
396960 On ch=1 n=13 v=100
397196 On ch=1 n=13 v=0
397440 On ch=1 n=13 v=100
397676 On ch=1 n=13 v=0
397920 On ch=1 n=13 v=100
398156 On ch=1 n=13 v=0
398400 On ch=1 n=12 v=100
398636 On ch=1 n=12 v=0
398880 On ch=1 n=13 v=100
399116 On ch=1 n=13 v=0
399360 On ch=1 n=13 v=100
399596 On ch=1 n=13 v=0
399840 On ch=1 n=13 v=100
400076 On ch=1 n=13 v=0
400320 On ch=1 n=12 v=100
400556 On ch=1 n=12 v=0
400800 On ch=1 n=13 v=100
401036 On ch=1 n=13 v=0
401280 On ch=1 n=13 v=100
401516 On ch=1 n=13 v=0
401760 On ch=1 n=13 v=100
401996 On ch=1 n=13 v=0
402240 On ch=1 n=12 v=100
402476 On ch=1 n=12 v=0
402720 On ch=1 n=13 v=100
402956 On ch=1 n=13 v=0
403200 On ch=1 n=13 v=100
403436 On ch=1 n=13 v=0
403680 On ch=1 n=13 v=100
403916 On ch=1 n=13 v=0
404160 On ch=1 n=12 v=100
404396 On ch=1 n=12 v=0
404640 On ch=1 n=13 v=100
404876 On ch=1 n=13 v=0
405120 On ch=1 n=13 v=100
405356 On ch=1 n=13 v=0
405600 On ch=1 n=13 v=100
405836 On ch=1 n=13 v=0
406080 On ch=1 n=12 v=100
406316 On ch=1 n=12 v=0
406560 On ch=1 n=13 v=100
406796 On ch=1 n=13 v=0
407040 On ch=1 n=13 v=100
407276 On ch=1 n=13 v=0
407520 On ch=1 n=13 v=100
407756 On ch=1 n=13 v=0
408000 On ch=1 n=12 v=100
408236 On ch=1 n=12 v=0
408480 On ch=1 n=13 v=100
408716 On ch=1 n=13 v=0
408960 On ch=1 n=13 v=100
409196 On ch=1 n=13 v=0
409440 On ch=1 n=13 v=100
409676 On ch=1 n=13 v=0
409920 On ch=1 n=12 v=100
410156 On ch=1 n=12 v=0
410400 On ch=1 n=13 v=100
410636 On ch=1 n=13 v=0
410880 On ch=1 n=13 v=100
411116 On ch=1 n=13 v=0
411360 On ch=1 n=13 v=100
411596 On ch=1 n=13 v=0
411840 On ch=1 n=12 v=100
412076 On ch=1 n=12 v=0
412320 On ch=1 n=13 v=100
412556 On ch=1 n=13 v=0
412800 On ch=1 n=13 v=100
413036 On ch=1 n=13 v=0
413280 On ch=1 n=13 v=100
413516 On ch=1 n=13 v=0
413760 On ch=1 n=12 v=100
413996 On ch=1 n=12 v=0
414240 On ch=1 n=13 v=100
414476 On ch=1 n=13 v=0
414720 On ch=1 n=13 v=100
414956 On ch=1 n=13 v=0
415200 On ch=1 n=13 v=100
415436 On ch=1 n=13 v=0
415680 On ch=1 n=12 v=100
415916 On ch=1 n=12 v=0
416160 On ch=1 n=13 v=100
416396 On ch=1 n=13 v=0
416640 On ch=1 n=13 v=100
416876 On ch=1 n=13 v=0
417120 On ch=1 n=13 v=100
417356 On ch=1 n=13 v=0
417600 On ch=1 n=12 v=100
417836 On ch=1 n=12 v=0
418080 On ch=1 n=13 v=100
418316 On ch=1 n=13 v=0
418560 On ch=1 n=13 v=100
418796 On ch=1 n=13 v=0
419040 On ch=1 n=13 v=100
419276 On ch=1 n=13 v=0
419520 On ch=1 n=12 v=100
419756 On ch=1 n=12 v=0
420000 On ch=1 n=13 v=100
420236 On ch=1 n=13 v=0
420480 On ch=1 n=13 v=100
420716 On ch=1 n=13 v=0
420960 On ch=1 n=13 v=100
421196 On ch=1 n=13 v=0
421440 On ch=1 n=12 v=100
421676 On ch=1 n=12 v=0
421920 On ch=1 n=13 v=100
422156 On ch=1 n=13 v=0
422400 On ch=1 n=13 v=100
422636 On ch=1 n=13 v=0
422880 On ch=1 n=13 v=100
423116 On ch=1 n=13 v=0
423360 On ch=1 n=12 v=100
423596 On ch=1 n=12 v=0
423840 On ch=1 n=13 v=100
424076 On ch=1 n=13 v=0
424320 On ch=1 n=13 v=100
424556 On ch=1 n=13 v=0
424800 On ch=1 n=13 v=100
425036 On ch=1 n=13 v=0
425280 On ch=1 n=12 v=100
425516 On ch=1 n=12 v=0
425760 On ch=1 n=13 v=100
425996 On ch=1 n=13 v=0
426240 On ch=1 n=13 v=100
426476 On ch=1 n=13 v=0
426720 On ch=1 n=13 v=100
426956 On ch=1 n=13 v=0
427200 On ch=1 n=12 v=100
427436 On ch=1 n=12 v=0
427680 On ch=1 n=13 v=100
427916 On ch=1 n=13 v=0
428160 On ch=1 n=13 v=100
428396 On ch=1 n=13 v=0
428640 On ch=1 n=13 v=100
428876 On ch=1 n=13 v=0
429120 On ch=1 n=12 v=100
429356 On ch=1 n=12 v=0
429600 On ch=1 n=13 v=100
429836 On ch=1 n=13 v=0
430080 On ch=1 n=13 v=100
430316 On ch=1 n=13 v=0
430560 On ch=1 n=13 v=100
430796 On ch=1 n=13 v=0
431040 On ch=1 n=12 v=100
431276 On ch=1 n=12 v=0
431520 On ch=1 n=13 v=100
431756 On ch=1 n=13 v=0
432000 On ch=1 n=13 v=100
432236 On ch=1 n=13 v=0
432480 On ch=1 n=13 v=100
432716 On ch=1 n=13 v=0
432960 On ch=1 n=12 v=100
433196 On ch=1 n=12 v=0
433440 On ch=1 n=13 v=100
433676 On ch=1 n=13 v=0
433920 On ch=1 n=13 v=100
434156 On ch=1 n=13 v=0
434400 On ch=1 n=13 v=100
434636 On ch=1 n=13 v=0
434880 On ch=1 n=12 v=100
435116 On ch=1 n=12 v=0
435360 On ch=1 n=13 v=100
435596 On ch=1 n=13 v=0
435840 On ch=1 n=13 v=100
436076 On ch=1 n=13 v=0
436320 On ch=1 n=13 v=100
436556 On ch=1 n=13 v=0
436800 On ch=1 n=12 v=100
437036 On ch=1 n=12 v=0
437280 On ch=1 n=13 v=100
437516 On ch=1 n=13 v=0
437760 On ch=1 n=13 v=100
437996 On ch=1 n=13 v=0
438240 On ch=1 n=13 v=100
438476 On ch=1 n=13 v=0
438720 On ch=1 n=12 v=100
438956 On ch=1 n=12 v=0
439200 On ch=1 n=13 v=100
439436 On ch=1 n=13 v=0
439680 On ch=1 n=13 v=100
439916 On ch=1 n=13 v=0
440160 On ch=1 n=13 v=100
440396 On ch=1 n=13 v=0
440640 On ch=1 n=12 v=100
440876 On ch=1 n=12 v=0
441120 On ch=1 n=13 v=100
441356 On ch=1 n=13 v=0
441600 On ch=1 n=13 v=100
441836 On ch=1 n=13 v=0
442080 On ch=1 n=13 v=100
442316 On ch=1 n=13 v=0
442560 On ch=1 n=12 v=100
442796 On ch=1 n=12 v=0
443040 On ch=1 n=13 v=100
443276 On ch=1 n=13 v=0
443520 On ch=1 n=13 v=100
443756 On ch=1 n=13 v=0
444000 On ch=1 n=13 v=100
444236 On ch=1 n=13 v=0
444480 On ch=1 n=12 v=100
444716 On ch=1 n=12 v=0
444960 On ch=1 n=13 v=100
445196 On ch=1 n=13 v=0
445440 On ch=1 n=13 v=100
445676 On ch=1 n=13 v=0
445920 On ch=1 n=13 v=100
446156 On ch=1 n=13 v=0
446400 On ch=1 n=12 v=100
446636 On ch=1 n=12 v=0
446880 On ch=1 n=13 v=100
447116 On ch=1 n=13 v=0
447360 On ch=1 n=13 v=100
447596 On ch=1 n=13 v=0
447840 On ch=1 n=13 v=100
448076 On ch=1 n=13 v=0
448320 On ch=1 n=12 v=100
448556 On ch=1 n=12 v=0
448800 On ch=1 n=13 v=100
449036 On ch=1 n=13 v=0
449280 On ch=1 n=13 v=100
449516 On ch=1 n=13 v=0
449760 On ch=1 n=13 v=100
449996 On ch=1 n=13 v=0
450240 On ch=1 n=12 v=100
450476 On ch=1 n=12 v=0
450720 On ch=1 n=13 v=100
450956 On ch=1 n=13 v=0
451200 On ch=1 n=13 v=100
451436 On ch=1 n=13 v=0
451680 On ch=1 n=13 v=100
451916 On ch=1 n=13 v=0
452160 On ch=1 n=12 v=100
452396 On ch=1 n=12 v=0
452640 On ch=1 n=13 v=100
452876 On ch=1 n=13 v=0
453120 On ch=1 n=13 v=100
453356 On ch=1 n=13 v=0
453600 On ch=1 n=13 v=100
453836 On ch=1 n=13 v=0
454080 On ch=1 n=12 v=100
454316 On ch=1 n=12 v=0
454560 On ch=1 n=13 v=100
454796 On ch=1 n=13 v=0
455040 On ch=1 n=13 v=100
455276 On ch=1 n=13 v=0
455520 On ch=1 n=13 v=100
455756 On ch=1 n=13 v=0
456000 On ch=1 n=12 v=100
456236 On ch=1 n=12 v=0
456480 On ch=1 n=13 v=100
456716 On ch=1 n=13 v=0
456960 On ch=1 n=13 v=100
457196 On ch=1 n=13 v=0
457440 On ch=1 n=13 v=100
457676 On ch=1 n=13 v=0
457920 On ch=1 n=12 v=100
458156 On ch=1 n=12 v=0
458400 On ch=1 n=13 v=100
458636 On ch=1 n=13 v=0
458880 On ch=1 n=13 v=100
459116 On ch=1 n=13 v=0
459360 On ch=1 n=13 v=100
459596 On ch=1 n=13 v=0
459840 On ch=1 n=12 v=100
460076 On ch=1 n=12 v=0
460320 On ch=1 n=13 v=100
460556 On ch=1 n=13 v=0
460800 On ch=1 n=13 v=100
461036 On ch=1 n=13 v=0
461280 On ch=1 n=13 v=100
461516 On ch=1 n=13 v=0
461760 On ch=1 n=12 v=100
461996 On ch=1 n=12 v=0
462240 On ch=1 n=13 v=100
462476 On ch=1 n=13 v=0
462720 On ch=1 n=13 v=100
462956 On ch=1 n=13 v=0
463200 On ch=1 n=13 v=100
463436 On ch=1 n=13 v=0
463680 On ch=1 n=12 v=100
463916 On ch=1 n=12 v=0
464160 On ch=1 n=13 v=100
464396 On ch=1 n=13 v=0
464640 On ch=1 n=13 v=100
464876 On ch=1 n=13 v=0
465120 On ch=1 n=13 v=100
465356 On ch=1 n=13 v=0
465600 On ch=1 n=12 v=100
465836 On ch=1 n=12 v=0
466080 On ch=1 n=13 v=100
466316 On ch=1 n=13 v=0
466560 On ch=1 n=13 v=100
466796 On ch=1 n=13 v=0
467040 On ch=1 n=13 v=100
467276 On ch=1 n=13 v=0
467520 On ch=1 n=12 v=100
467756 On ch=1 n=12 v=0
468000 On ch=1 n=13 v=100
468236 On ch=1 n=13 v=0
468480 On ch=1 n=13 v=100
468716 On ch=1 n=13 v=0
468960 On ch=1 n=13 v=100
469196 On ch=1 n=13 v=0
469440 On ch=1 n=12 v=100
469676 On ch=1 n=12 v=0
469920 On ch=1 n=13 v=100
470156 On ch=1 n=13 v=0
470400 On ch=1 n=13 v=100
470636 On ch=1 n=13 v=0
470880 On ch=1 n=13 v=100
471116 On ch=1 n=13 v=0
471360 On ch=1 n=12 v=100
471596 On ch=1 n=12 v=0
471840 On ch=1 n=13 v=100
472076 On ch=1 n=13 v=0
472320 On ch=1 n=13 v=100
472556 On ch=1 n=13 v=0
472800 On ch=1 n=13 v=100
473036 On ch=1 n=13 v=0
473280 On ch=1 n=12 v=100
473516 On ch=1 n=12 v=0
473760 On ch=1 n=13 v=100
473996 On ch=1 n=13 v=0
474240 On ch=1 n=13 v=100
474476 On ch=1 n=13 v=0
474720 On ch=1 n=13 v=100
474956 On ch=1 n=13 v=0
475200 On ch=1 n=12 v=100
475436 On ch=1 n=12 v=0
475680 On ch=1 n=13 v=100
475916 On ch=1 n=13 v=0
476160 On ch=1 n=13 v=100
476396 On ch=1 n=13 v=0
476640 On ch=1 n=13 v=100
476876 On ch=1 n=13 v=0
477120 On ch=1 n=12 v=100
477356 On ch=1 n=12 v=0
477600 On ch=1 n=13 v=100
477836 On ch=1 n=13 v=0
478080 On ch=1 n=13 v=100
478316 On ch=1 n=13 v=0
478560 On ch=1 n=13 v=100
478796 On ch=1 n=13 v=0
479040 On ch=1 n=12 v=100
479276 On ch=1 n=12 v=0
479520 On ch=1 n=13 v=100
479756 On ch=1 n=13 v=0
480000 On ch=1 n=13 v=100
480236 On ch=1 n=13 v=0
480480 On ch=1 n=13 v=100
480716 On ch=1 n=13 v=0
480960 On ch=1 n=12 v=100
481196 On ch=1 n=12 v=0
481440 On ch=1 n=13 v=100
481676 On ch=1 n=13 v=0
481920 On ch=1 n=13 v=100
482156 On ch=1 n=13 v=0
482400 On ch=1 n=13 v=100
482636 On ch=1 n=13 v=0
482880 On ch=1 n=12 v=100
483116 On ch=1 n=12 v=0
483360 On ch=1 n=13 v=100
483596 On ch=1 n=13 v=0
483840 On ch=1 n=13 v=100
484076 On ch=1 n=13 v=0
484320 On ch=1 n=13 v=100
484556 On ch=1 n=13 v=0
484800 On ch=1 n=12 v=100
485036 On ch=1 n=12 v=0
485280 On ch=1 n=13 v=100
485516 On ch=1 n=13 v=0
485760 On ch=1 n=13 v=100
485996 On ch=1 n=13 v=0
486240 On ch=1 n=13 v=100
486476 On ch=1 n=13 v=0
486720 On ch=1 n=12 v=100
486956 On ch=1 n=12 v=0
487200 On ch=1 n=13 v=100
487436 On ch=1 n=13 v=0
487680 On ch=1 n=13 v=100
487916 On ch=1 n=13 v=0
488160 On ch=1 n=13 v=100
488396 On ch=1 n=13 v=0
488640 On ch=1 n=12 v=100
488876 On ch=1 n=12 v=0
489120 On ch=1 n=13 v=100
489356 On ch=1 n=13 v=0
489600 On ch=1 n=13 v=100
489836 On ch=1 n=13 v=0
490080 On ch=1 n=13 v=100
490316 On ch=1 n=13 v=0
490560 On ch=1 n=12 v=100
490796 On ch=1 n=12 v=0
491040 On ch=1 n=13 v=100
491276 On ch=1 n=13 v=0
491520 On ch=1 n=13 v=100
491756 On ch=1 n=13 v=0
492000 On ch=1 n=13 v=100
492236 On ch=1 n=13 v=0
492480 On ch=1 n=12 v=100
492716 On ch=1 n=12 v=0
492960 On ch=1 n=13 v=100
493196 On ch=1 n=13 v=0
493440 On ch=1 n=13 v=100
493676 On ch=1 n=13 v=0
493920 On ch=1 n=13 v=100
494156 On ch=1 n=13 v=0
494400 On ch=1 n=12 v=100
494636 On ch=1 n=12 v=0
494880 On ch=1 n=13 v=100
495116 On ch=1 n=13 v=0
495360 On ch=1 n=13 v=100
495596 On ch=1 n=13 v=0
495840 On ch=1 n=13 v=100
496076 On ch=1 n=13 v=0
496320 On ch=1 n=12 v=100
496556 On ch=1 n=12 v=0
496800 On ch=1 n=13 v=100
497036 On ch=1 n=13 v=0
497280 On ch=1 n=13 v=100
497516 On ch=1 n=13 v=0
497760 On ch=1 n=13 v=100
497996 On ch=1 n=13 v=0
498240 On ch=1 n=12 v=100
498476 On ch=1 n=12 v=0
498476 Meta TrkEnd
TrkEnd
MTrk
0 Meta TrkName "PART DRUMS"
0 Meta Text "[mix 0 drums3]"
60 Meta Text "[mix 1 drums3]"
120 Meta Text "[mix 2 drums3]"
180 Meta Text "[mix 3 drums3]"
19200 Meta Text "[intense]"
19200 On ch=3 n=24 v=127
19200 On ch=3 n=25 v=127
19200 On ch=3 n=40 v=127
19200 On ch=3 n=60 v=127
19200 On ch=3 n=63 v=127
19200 On ch=3 n=72 v=127
19200 On ch=3 n=75 v=127
19200 On ch=3 n=84 v=127
19200 On ch=3 n=87 v=127
19200 On ch=3 n=96 v=127
19200 On ch=3 n=99 v=127
19200 On ch=3 n=105 v=127
19260 On ch=3 n=24 v=0
19260 On ch=3 n=40 v=0
19260 On ch=3 n=60 v=0
19260 On ch=3 n=63 v=0
19260 On ch=3 n=72 v=0
19260 On ch=3 n=75 v=0
19260 On ch=3 n=84 v=0
19260 On ch=3 n=87 v=0
19260 On ch=3 n=96 v=0
19260 On ch=3 n=99 v=0
19314 On ch=3 n=25 v=0
20156 On ch=3 n=105 v=0
21120 On ch=3 n=24 v=127
21120 On ch=3 n=25 v=127
21120 On ch=3 n=40 v=127
21120 On ch=3 n=60 v=127
21120 On ch=3 n=63 v=127
21120 On ch=3 n=72 v=127
21120 On ch=3 n=75 v=127
21120 On ch=3 n=84 v=127
21120 On ch=3 n=87 v=127
21120 On ch=3 n=96 v=127
21120 On ch=3 n=99 v=127
21120 On ch=3 n=106 v=127
21180 On ch=3 n=24 v=0
21180 On ch=3 n=40 v=0
21180 On ch=3 n=60 v=0
21180 On ch=3 n=63 v=0
21180 On ch=3 n=72 v=0
21180 On ch=3 n=75 v=0
21180 On ch=3 n=84 v=0
21180 On ch=3 n=87 v=0
21180 On ch=3 n=96 v=0
21180 On ch=3 n=99 v=0
21234 On ch=3 n=25 v=0
22076 On ch=3 n=106 v=0
23040 On ch=3 n=24 v=127
23040 On ch=3 n=34 v=127
23040 On ch=3 n=38 v=127
23040 On ch=3 n=60 v=127
23040 On ch=3 n=64 v=127
23040 On ch=3 n=72 v=127
23040 On ch=3 n=76 v=127
23040 On ch=3 n=84 v=127
23040 On ch=3 n=88 v=127
23040 On ch=3 n=96 v=127
23040 On ch=3 n=100 v=127
23040 On ch=3 n=105 v=127
23040 On ch=3 n=106 v=127
23040 On ch=3 n=116 v=100
23100 On ch=3 n=24 v=0
23100 On ch=3 n=34 v=0
23100 On ch=3 n=38 v=0
23100 On ch=3 n=60 v=0
23100 On ch=3 n=64 v=0
23100 On ch=3 n=72 v=0
23100 On ch=3 n=76 v=0
23100 On ch=3 n=84 v=0
23100 On ch=3 n=88 v=0
23100 On ch=3 n=96 v=0
23100 On ch=3 n=100 v=0
23160 On ch=3 n=116 v=0
23996 On ch=3 n=105 v=0
23996 On ch=3 n=106 v=0
26880 On ch=3 n=31 v=127
26880 On ch=3 n=62 v=127
26880 On ch=3 n=74 v=127
26880 On ch=3 n=86 v=127
26880 On ch=3 n=98 v=127
26880 On ch=3 n=105 v=127
26880 Meta Text "[play]"
26940 On ch=3 n=31 v=0
26940 On ch=3 n=62 v=0
26940 On ch=3 n=74 v=0
26940 On ch=3 n=86 v=0
26940 On ch=3 n=98 v=0
27040 On ch=3 n=30 v=127
27040 On ch=3 n=98 v=127
27100 On ch=3 n=30 v=0
27100 On ch=3 n=98 v=0
27200 On ch=3 n=25 v=127
27200 On ch=3 n=30 v=127
27200 On ch=3 n=86 v=127
27200 On ch=3 n=98 v=127
27260 On ch=3 n=30 v=0
27260 On ch=3 n=86 v=0
27260 On ch=3 n=98 v=0
27354 On ch=3 n=25 v=0
27360 On ch=3 n=31 v=127
27360 On ch=3 n=62 v=127
27360 On ch=3 n=74 v=127
27360 On ch=3 n=86 v=127
27360 On ch=3 n=98 v=127
27420 On ch=3 n=31 v=0
27420 On ch=3 n=62 v=0
27420 On ch=3 n=74 v=0
27420 On ch=3 n=86 v=0
27420 On ch=3 n=98 v=0
27520 On ch=3 n=30 v=127
27520 On ch=3 n=98 v=127
27580 On ch=3 n=30 v=0
27580 On ch=3 n=98 v=0
27680 On ch=3 n=25 v=127
27680 On ch=3 n=30 v=127
27680 On ch=3 n=86 v=127
27680 On ch=3 n=98 v=127
27740 On ch=3 n=30 v=0
27740 On ch=3 n=86 v=0
27740 On ch=3 n=98 v=0
27834 On ch=3 n=25 v=0
27840 On ch=3 n=31 v=127
27840 On ch=3 n=62 v=127
27840 On ch=3 n=74 v=127
27840 On ch=3 n=86 v=127
27840 On ch=3 n=98 v=127
27900 On ch=3 n=31 v=0
27900 On ch=3 n=62 v=0
27900 On ch=3 n=74 v=0
27900 On ch=3 n=86 v=0
27900 On ch=3 n=98 v=0
28000 On ch=3 n=30 v=127
28000 On ch=3 n=98 v=127
28060 On ch=3 n=30 v=0
28060 On ch=3 n=98 v=0
28160 On ch=3 n=25 v=127
28160 On ch=3 n=30 v=127
28160 On ch=3 n=86 v=127
28160 On ch=3 n=98 v=127
28220 On ch=3 n=30 v=0
28220 On ch=3 n=86 v=0
28220 On ch=3 n=98 v=0
28314 On ch=3 n=25 v=0
28320 On ch=3 n=31 v=127
28320 On ch=3 n=62 v=127
28320 On ch=3 n=74 v=127
28320 On ch=3 n=86 v=127
28320 On ch=3 n=98 v=127
28380 On ch=3 n=31 v=0
28380 On ch=3 n=62 v=0
28380 On ch=3 n=74 v=0
28380 On ch=3 n=86 v=0
28380 On ch=3 n=98 v=0
28480 On ch=3 n=30 v=127
28480 On ch=3 n=98 v=127
28540 On ch=3 n=30 v=0
28540 On ch=3 n=98 v=0
28640 On ch=3 n=25 v=127
28640 On ch=3 n=30 v=127
28640 On ch=3 n=86 v=127
28640 On ch=3 n=98 v=127
28700 On ch=3 n=30 v=0
28700 On ch=3 n=86 v=0
28700 On ch=3 n=98 v=0
28794 On ch=3 n=25 v=0
28795 On ch=3 n=105 v=0
28800 On ch=3 n=31 v=127
28800 On ch=3 n=62 v=127
28800 On ch=3 n=74 v=127
28800 On ch=3 n=86 v=127
28800 On ch=3 n=98 v=127
28800 On ch=3 n=106 v=127
28860 On ch=3 n=31 v=0
28860 On ch=3 n=62 v=0
28860 On ch=3 n=74 v=0
28860 On ch=3 n=86 v=0
28860 On ch=3 n=98 v=0
28960 On ch=3 n=30 v=127
28960 On ch=3 n=98 v=127
29020 On ch=3 n=30 v=0
29020 On ch=3 n=98 v=0
29120 On ch=3 n=25 v=127
29120 On ch=3 n=30 v=127
29120 On ch=3 n=86 v=127
29120 On ch=3 n=98 v=127
29180 On ch=3 n=30 v=0
29180 On ch=3 n=86 v=0
29180 On ch=3 n=98 v=0
29273 On ch=3 n=25 v=0
29280 On ch=3 n=31 v=127
29280 On ch=3 n=62 v=127
29280 On ch=3 n=74 v=127
29280 On ch=3 n=86 v=127
29280 On ch=3 n=98 v=127
29340 On ch=3 n=31 v=0
29340 On ch=3 n=62 v=0
29340 On ch=3 n=74 v=0
29340 On ch=3 n=86 v=0
29340 On ch=3 n=98 v=0
29440 On ch=3 n=30 v=127
29440 On ch=3 n=98 v=127
29500 On ch=3 n=30 v=0
29500 On ch=3 n=98 v=0
29600 On ch=3 n=25 v=127
29600 On ch=3 n=30 v=127
29600 On ch=3 n=86 v=127
29600 On ch=3 n=98 v=127
29660 On ch=3 n=30 v=0
29660 On ch=3 n=86 v=0
29660 On ch=3 n=98 v=0
29753 On ch=3 n=25 v=0
29760 On ch=3 n=31 v=127
29760 On ch=3 n=62 v=127
29760 On ch=3 n=74 v=127
29760 On ch=3 n=86 v=127
29760 On ch=3 n=98 v=127
29820 On ch=3 n=31 v=0
29820 On ch=3 n=62 v=0
29820 On ch=3 n=74 v=0
29820 On ch=3 n=86 v=0
29820 On ch=3 n=98 v=0
29920 On ch=3 n=30 v=127
29920 On ch=3 n=98 v=127
29980 On ch=3 n=30 v=0
29980 On ch=3 n=98 v=0
30080 On ch=3 n=25 v=127
30080 On ch=3 n=30 v=127
30080 On ch=3 n=86 v=127
30080 On ch=3 n=98 v=127
30140 On ch=3 n=30 v=0
30140 On ch=3 n=86 v=0
30140 On ch=3 n=98 v=0
30233 On ch=3 n=25 v=0
30240 On ch=3 n=31 v=127
30240 On ch=3 n=62 v=127
30240 On ch=3 n=74 v=127
30240 On ch=3 n=86 v=127
30240 On ch=3 n=98 v=127
30300 On ch=3 n=31 v=0
30300 On ch=3 n=62 v=0
30300 On ch=3 n=74 v=0
30300 On ch=3 n=86 v=0
30300 On ch=3 n=98 v=0
30400 On ch=3 n=30 v=127
30400 On ch=3 n=98 v=127
30460 On ch=3 n=30 v=0
30460 On ch=3 n=98 v=0
30560 On ch=3 n=25 v=127
30560 On ch=3 n=30 v=127
30560 On ch=3 n=86 v=127
30560 On ch=3 n=98 v=127
30620 On ch=3 n=30 v=0
30620 On ch=3 n=86 v=0
30620 On ch=3 n=98 v=0
30713 On ch=3 n=25 v=0
30716 On ch=3 n=106 v=0
30720 On ch=3 n=31 v=127
30720 On ch=3 n=62 v=127
30720 On ch=3 n=74 v=127
30720 On ch=3 n=86 v=127
30720 On ch=3 n=98 v=127
30720 On ch=3 n=105 v=127
30780 On ch=3 n=31 v=0
30780 On ch=3 n=62 v=0
30780 On ch=3 n=74 v=0
30780 On ch=3 n=86 v=0
30780 On ch=3 n=98 v=0
30880 On ch=3 n=30 v=127
30880 On ch=3 n=98 v=127
30940 On ch=3 n=30 v=0
30940 On ch=3 n=98 v=0
31040 On ch=3 n=25 v=127
31040 On ch=3 n=30 v=127
31040 On ch=3 n=86 v=127
31040 On ch=3 n=98 v=127
31100 On ch=3 n=30 v=0
31100 On ch=3 n=86 v=0
31100 On ch=3 n=98 v=0
31193 On ch=3 n=25 v=0
31200 On ch=3 n=31 v=127
31200 On ch=3 n=62 v=127
31200 On ch=3 n=74 v=127
31200 On ch=3 n=86 v=127
31200 On ch=3 n=98 v=127
31260 On ch=3 n=31 v=0
31260 On ch=3 n=62 v=0
31260 On ch=3 n=74 v=0
31260 On ch=3 n=86 v=0
31260 On ch=3 n=98 v=0
31360 On ch=3 n=30 v=127
31360 On ch=3 n=98 v=127
31420 On ch=3 n=30 v=0
31420 On ch=3 n=98 v=0
31520 On ch=3 n=25 v=127
31520 On ch=3 n=30 v=127
31520 On ch=3 n=86 v=127
31520 On ch=3 n=98 v=127
31580 On ch=3 n=30 v=0
31580 On ch=3 n=86 v=0
31580 On ch=3 n=98 v=0
31673 On ch=3 n=25 v=0
31680 On ch=3 n=31 v=127
31680 On ch=3 n=62 v=127
31680 On ch=3 n=74 v=127
31680 On ch=3 n=86 v=127
31680 On ch=3 n=98 v=127
31740 On ch=3 n=31 v=0
31740 On ch=3 n=62 v=0
31740 On ch=3 n=74 v=0
31740 On ch=3 n=86 v=0
31740 On ch=3 n=98 v=0
31840 On ch=3 n=30 v=127
31840 On ch=3 n=98 v=127
31900 On ch=3 n=30 v=0
31900 On ch=3 n=98 v=0
32000 On ch=3 n=25 v=127
32000 On ch=3 n=30 v=127
32000 On ch=3 n=86 v=127
32000 On ch=3 n=98 v=127
32060 On ch=3 n=30 v=0
32060 On ch=3 n=86 v=0
32060 On ch=3 n=98 v=0
32153 On ch=3 n=25 v=0
32160 On ch=3 n=31 v=127
32160 On ch=3 n=62 v=127
32160 On ch=3 n=74 v=127
32160 On ch=3 n=86 v=127
32160 On ch=3 n=98 v=127
32220 On ch=3 n=31 v=0
32220 On ch=3 n=62 v=0
32220 On ch=3 n=74 v=0
32220 On ch=3 n=86 v=0
32220 On ch=3 n=98 v=0
32320 On ch=3 n=30 v=127
32320 On ch=3 n=98 v=127
32380 On ch=3 n=30 v=0
32380 On ch=3 n=98 v=0
32480 On ch=3 n=25 v=127
32480 On ch=3 n=30 v=127
32480 On ch=3 n=86 v=127
32480 On ch=3 n=98 v=127
32540 On ch=3 n=30 v=0
32540 On ch=3 n=86 v=0
32540 On ch=3 n=98 v=0
32633 On ch=3 n=25 v=0
32636 On ch=3 n=105 v=0
32640 On ch=3 n=31 v=127
32640 On ch=3 n=62 v=127
32640 On ch=3 n=74 v=127
32640 On ch=3 n=86 v=127
32640 On ch=3 n=98 v=127
32640 On ch=3 n=106 v=127
32700 On ch=3 n=31 v=0
32700 On ch=3 n=62 v=0
32700 On ch=3 n=74 v=0
32700 On ch=3 n=86 v=0
32700 On ch=3 n=98 v=0
32800 On ch=3 n=30 v=127
32800 On ch=3 n=98 v=127
32860 On ch=3 n=30 v=0
32860 On ch=3 n=98 v=0
32960 On ch=3 n=25 v=127
32960 On ch=3 n=30 v=127
32960 On ch=3 n=86 v=127
32960 On ch=3 n=98 v=127
33020 On ch=3 n=30 v=0
33020 On ch=3 n=86 v=0
33020 On ch=3 n=98 v=0
33114 On ch=3 n=25 v=0
33120 On ch=3 n=31 v=127
33120 On ch=3 n=62 v=127
33120 On ch=3 n=74 v=127
33120 On ch=3 n=86 v=127
33120 On ch=3 n=98 v=127
33180 On ch=3 n=31 v=0
33180 On ch=3 n=62 v=0
33180 On ch=3 n=74 v=0
33180 On ch=3 n=86 v=0
33180 On ch=3 n=98 v=0
33280 On ch=3 n=30 v=127
33280 On ch=3 n=98 v=127
33340 On ch=3 n=30 v=0
33340 On ch=3 n=98 v=0
33440 On ch=3 n=25 v=127
33440 On ch=3 n=30 v=127
33440 On ch=3 n=86 v=127
33440 On ch=3 n=98 v=127
33500 On ch=3 n=30 v=0
33500 On ch=3 n=86 v=0
33500 On ch=3 n=98 v=0
33594 On ch=3 n=25 v=0
33600 On ch=3 n=31 v=127
33600 On ch=3 n=62 v=127
33600 On ch=3 n=74 v=127
33600 On ch=3 n=86 v=127
33600 On ch=3 n=98 v=127
33660 On ch=3 n=31 v=0
33660 On ch=3 n=62 v=0
33660 On ch=3 n=74 v=0
33660 On ch=3 n=86 v=0
33660 On ch=3 n=98 v=0
33760 On ch=3 n=30 v=127
33760 On ch=3 n=98 v=127
33820 On ch=3 n=30 v=0
33820 On ch=3 n=98 v=0
33920 On ch=3 n=25 v=127
33920 On ch=3 n=30 v=127
33920 On ch=3 n=86 v=127
33920 On ch=3 n=98 v=127
33980 On ch=3 n=30 v=0
33980 On ch=3 n=86 v=0
33980 On ch=3 n=98 v=0
34074 On ch=3 n=25 v=0
34080 On ch=3 n=31 v=127
34080 On ch=3 n=62 v=127
34080 On ch=3 n=74 v=127
34080 On ch=3 n=86 v=127
34080 On ch=3 n=98 v=127
34140 On ch=3 n=31 v=0
34140 On ch=3 n=62 v=0
34140 On ch=3 n=74 v=0
34140 On ch=3 n=86 v=0
34140 On ch=3 n=98 v=0
34240 On ch=3 n=30 v=127
34240 On ch=3 n=98 v=127
34300 On ch=3 n=30 v=0
34300 On ch=3 n=98 v=0
34400 On ch=3 n=25 v=127
34400 On ch=3 n=30 v=127
34400 On ch=3 n=86 v=127
34400 On ch=3 n=98 v=127
34460 On ch=3 n=30 v=0
34460 On ch=3 n=86 v=0
34460 On ch=3 n=98 v=0
34554 On ch=3 n=25 v=0
34556 On ch=3 n=106 v=0
34560 On ch=3 n=31 v=127
34560 On ch=3 n=62 v=127
34560 On ch=3 n=74 v=127
34560 On ch=3 n=86 v=127
34560 On ch=3 n=98 v=127
34560 On ch=3 n=105 v=127
34620 On ch=3 n=31 v=0
34620 On ch=3 n=62 v=0
34620 On ch=3 n=74 v=0
34620 On ch=3 n=86 v=0
34620 On ch=3 n=98 v=0
34720 On ch=3 n=30 v=127
34720 On ch=3 n=98 v=127
34780 On ch=3 n=30 v=0
34780 On ch=3 n=98 v=0
34880 On ch=3 n=25 v=127
34880 On ch=3 n=30 v=127
34880 On ch=3 n=86 v=127
34880 On ch=3 n=98 v=127
34940 On ch=3 n=30 v=0
34940 On ch=3 n=86 v=0
34940 On ch=3 n=98 v=0
35034 On ch=3 n=25 v=0
35040 On ch=3 n=31 v=127
35040 On ch=3 n=62 v=127
35040 On ch=3 n=74 v=127
35040 On ch=3 n=86 v=127
35040 On ch=3 n=98 v=127
35100 On ch=3 n=31 v=0
35100 On ch=3 n=62 v=0
35100 On ch=3 n=74 v=0
35100 On ch=3 n=86 v=0
35100 On ch=3 n=98 v=0
35200 On ch=3 n=30 v=127
35200 On ch=3 n=98 v=127
35260 On ch=3 n=30 v=0
35260 On ch=3 n=98 v=0
35360 On ch=3 n=25 v=127
35360 On ch=3 n=30 v=127
35360 On ch=3 n=86 v=127
35360 On ch=3 n=98 v=127
35420 On ch=3 n=30 v=0
35420 On ch=3 n=86 v=0
35420 On ch=3 n=98 v=0
35514 On ch=3 n=25 v=0
35520 On ch=3 n=31 v=127
35520 On ch=3 n=62 v=127
35520 On ch=3 n=74 v=127
35520 On ch=3 n=86 v=127
35520 On ch=3 n=98 v=127
35580 On ch=3 n=31 v=0
35580 On ch=3 n=62 v=0
35580 On ch=3 n=74 v=0
35580 On ch=3 n=86 v=0
35580 On ch=3 n=98 v=0
35680 On ch=3 n=30 v=127
35680 On ch=3 n=98 v=127
35740 On ch=3 n=30 v=0
35740 On ch=3 n=98 v=0
35840 On ch=3 n=25 v=127
35840 On ch=3 n=30 v=127
35840 On ch=3 n=86 v=127
35840 On ch=3 n=98 v=127
35900 On ch=3 n=30 v=0
35900 On ch=3 n=86 v=0
35900 On ch=3 n=98 v=0
35994 On ch=3 n=25 v=0
36000 On ch=3 n=31 v=127
36000 On ch=3 n=62 v=127
36000 On ch=3 n=74 v=127
36000 On ch=3 n=86 v=127
36000 On ch=3 n=98 v=127
36060 On ch=3 n=31 v=0
36060 On ch=3 n=62 v=0
36060 On ch=3 n=74 v=0
36060 On ch=3 n=86 v=0
36060 On ch=3 n=98 v=0
36160 On ch=3 n=30 v=127
36160 On ch=3 n=98 v=127
36220 On ch=3 n=30 v=0
36220 On ch=3 n=98 v=0
36320 On ch=3 n=25 v=127
36320 On ch=3 n=30 v=127
36320 On ch=3 n=86 v=127
36320 On ch=3 n=98 v=127
36380 On ch=3 n=30 v=0
36380 On ch=3 n=86 v=0
36380 On ch=3 n=98 v=0
36474 On ch=3 n=25 v=0
36476 On ch=3 n=105 v=0
36480 On ch=3 n=31 v=127
36480 On ch=3 n=62 v=127
36480 On ch=3 n=74 v=127
36480 On ch=3 n=86 v=127
36480 On ch=3 n=98 v=127
36480 On ch=3 n=106 v=127
36540 On ch=3 n=31 v=0
36540 On ch=3 n=62 v=0
36540 On ch=3 n=74 v=0
36540 On ch=3 n=86 v=0
36540 On ch=3 n=98 v=0
36640 On ch=3 n=30 v=127
36640 On ch=3 n=98 v=127
36700 On ch=3 n=30 v=0
36700 On ch=3 n=98 v=0
36800 On ch=3 n=25 v=127
36800 On ch=3 n=30 v=127
36800 On ch=3 n=86 v=127
36800 On ch=3 n=98 v=127
36860 On ch=3 n=30 v=0
36860 On ch=3 n=86 v=0
36860 On ch=3 n=98 v=0
36954 On ch=3 n=25 v=0
36960 On ch=3 n=31 v=127
36960 On ch=3 n=62 v=127
36960 On ch=3 n=74 v=127
36960 On ch=3 n=86 v=127
36960 On ch=3 n=98 v=127
37020 On ch=3 n=31 v=0
37020 On ch=3 n=62 v=0
37020 On ch=3 n=74 v=0
37020 On ch=3 n=86 v=0
37020 On ch=3 n=98 v=0
37120 On ch=3 n=30 v=127
37120 On ch=3 n=98 v=127
37180 On ch=3 n=30 v=0
37180 On ch=3 n=98 v=0
37280 On ch=3 n=25 v=127
37280 On ch=3 n=30 v=127
37280 On ch=3 n=86 v=127
37280 On ch=3 n=98 v=127
37340 On ch=3 n=30 v=0
37340 On ch=3 n=86 v=0
37340 On ch=3 n=98 v=0
37434 On ch=3 n=25 v=0
37440 On ch=3 n=31 v=127
37440 On ch=3 n=62 v=127
37440 On ch=3 n=74 v=127
37440 On ch=3 n=86 v=127
37440 On ch=3 n=98 v=127
37500 On ch=3 n=31 v=0
37500 On ch=3 n=62 v=0
37500 On ch=3 n=74 v=0
37500 On ch=3 n=86 v=0
37500 On ch=3 n=98 v=0
37600 On ch=3 n=30 v=127
37600 On ch=3 n=98 v=127
37660 On ch=3 n=30 v=0
37660 On ch=3 n=98 v=0
37760 On ch=3 n=25 v=127
37760 On ch=3 n=30 v=127
37760 On ch=3 n=98 v=127
37820 On ch=3 n=30 v=0
37820 On ch=3 n=98 v=0
37914 On ch=3 n=25 v=0
37920 On ch=3 n=26 v=127
37920 On ch=3 n=61 v=127
37920 On ch=3 n=73 v=127
37920 On ch=3 n=85 v=127
37920 On ch=3 n=97 v=127
37980 On ch=3 n=26 v=0
37980 On ch=3 n=61 v=0
37980 On ch=3 n=73 v=0
37980 On ch=3 n=85 v=0
37980 On ch=3 n=97 v=0
38080 On ch=3 n=27 v=127
38080 On ch=3 n=85 v=127
38080 On ch=3 n=97 v=127
38140 On ch=3 n=27 v=0
38140 On ch=3 n=85 v=0
38140 On ch=3 n=97 v=0
38240 On ch=3 n=25 v=127
38240 On ch=3 n=26 v=127
38240 On ch=3 n=85 v=127
38240 On ch=3 n=97 v=127
38240 On ch=3 n=73 v=100
38300 On ch=3 n=26 v=0
38300 On ch=3 n=85 v=0
38300 On ch=3 n=97 v=0
38300 On ch=3 n=73 v=0
38394 On ch=3 n=25 v=0
38396 On ch=3 n=106 v=0
38400 On ch=3 n=24 v=127
38400 On ch=3 n=37 v=127
38400 On ch=3 n=60 v=127
38400 On ch=3 n=63 v=127
38400 On ch=3 n=72 v=127
38400 On ch=3 n=75 v=127
38400 On ch=3 n=84 v=127
38400 On ch=3 n=87 v=127
38400 On ch=3 n=96 v=127
38400 On ch=3 n=99 v=127
38400 On ch=3 n=105 v=127
38460 On ch=3 n=24 v=0
38460 On ch=3 n=37 v=0
38460 On ch=3 n=60 v=0
38460 On ch=3 n=63 v=0
38460 On ch=3 n=72 v=0
38460 On ch=3 n=75 v=0
38460 On ch=3 n=84 v=0
38460 On ch=3 n=87 v=0
38460 On ch=3 n=96 v=0
38460 On ch=3 n=99 v=0
38560 On ch=3 n=35 v=127
38560 On ch=3 n=99 v=127
38620 On ch=3 n=35 v=0
38620 On ch=3 n=99 v=0
38720 On ch=3 n=25 v=127
38720 On ch=3 n=35 v=127
38720 On ch=3 n=87 v=127
38720 On ch=3 n=99 v=127
38780 On ch=3 n=35 v=0
38780 On ch=3 n=87 v=0
38780 On ch=3 n=99 v=0
38874 On ch=3 n=25 v=0
38880 On ch=3 n=24 v=127
38880 On ch=3 n=37 v=127
38880 On ch=3 n=63 v=127
38880 On ch=3 n=72 v=127
38880 On ch=3 n=75 v=127
38880 On ch=3 n=84 v=127
38880 On ch=3 n=87 v=127
38880 On ch=3 n=96 v=127
38880 On ch=3 n=99 v=127
38880 On ch=3 n=60 v=127
38940 On ch=3 n=24 v=0
38940 On ch=3 n=37 v=0
38940 On ch=3 n=63 v=0
38940 On ch=3 n=72 v=0
38940 On ch=3 n=75 v=0
38940 On ch=3 n=84 v=0
38940 On ch=3 n=87 v=0
38940 On ch=3 n=96 v=0
38940 On ch=3 n=99 v=0
38940 On ch=3 n=60 v=0
39040 On ch=3 n=35 v=127
39040 On ch=3 n=99 v=127
39100 On ch=3 n=35 v=0
39100 On ch=3 n=99 v=0
39200 On ch=3 n=25 v=127
39200 On ch=3 n=35 v=127
39200 On ch=3 n=87 v=127
39200 On ch=3 n=99 v=127
39260 On ch=3 n=35 v=0
39260 On ch=3 n=87 v=0
39260 On ch=3 n=99 v=0
39354 On ch=3 n=25 v=0
39360 On ch=3 n=24 v=127
39360 On ch=3 n=37 v=127
39360 On ch=3 n=63 v=127
39360 On ch=3 n=72 v=127
39360 On ch=3 n=75 v=127
39360 On ch=3 n=84 v=127
39360 On ch=3 n=87 v=127
39360 On ch=3 n=96 v=127
39360 On ch=3 n=99 v=127
39360 On ch=3 n=60 v=127
39420 On ch=3 n=24 v=0
39420 On ch=3 n=37 v=0
39420 On ch=3 n=63 v=0
39420 On ch=3 n=72 v=0
39420 On ch=3 n=75 v=0
39420 On ch=3 n=84 v=0
39420 On ch=3 n=87 v=0
39420 On ch=3 n=96 v=0
39420 On ch=3 n=99 v=0
39420 On ch=3 n=60 v=0
39520 On ch=3 n=35 v=127
39520 On ch=3 n=99 v=127
39580 On ch=3 n=35 v=0
39580 On ch=3 n=99 v=0
39680 On ch=3 n=25 v=127
39680 On ch=3 n=35 v=127
39680 On ch=3 n=87 v=127
39680 On ch=3 n=99 v=127
39740 On ch=3 n=35 v=0
39740 On ch=3 n=87 v=0
39740 On ch=3 n=99 v=0
39834 On ch=3 n=25 v=0
39840 On ch=3 n=24 v=127
39840 On ch=3 n=37 v=127
39840 On ch=3 n=63 v=127
39840 On ch=3 n=72 v=127
39840 On ch=3 n=75 v=127
39840 On ch=3 n=84 v=127
39840 On ch=3 n=87 v=127
39840 On ch=3 n=96 v=127
39840 On ch=3 n=99 v=127
39840 On ch=3 n=60 v=127
39900 On ch=3 n=24 v=0
39900 On ch=3 n=37 v=0
39900 On ch=3 n=63 v=0
39900 On ch=3 n=72 v=0
39900 On ch=3 n=75 v=0
39900 On ch=3 n=84 v=0
39900 On ch=3 n=87 v=0
39900 On ch=3 n=96 v=0
39900 On ch=3 n=99 v=0
39900 On ch=3 n=60 v=0
40000 On ch=3 n=35 v=127
40000 On ch=3 n=99 v=127
40060 On ch=3 n=35 v=0
40060 On ch=3 n=99 v=0
40160 On ch=3 n=25 v=127
40160 On ch=3 n=35 v=127
40160 On ch=3 n=87 v=127
40160 On ch=3 n=99 v=127
40220 On ch=3 n=35 v=0
40220 On ch=3 n=87 v=0
40220 On ch=3 n=99 v=0
40314 On ch=3 n=25 v=0
40316 On ch=3 n=105 v=0
40320 On ch=3 n=24 v=127
40320 On ch=3 n=37 v=127
40320 On ch=3 n=63 v=127
40320 On ch=3 n=72 v=127
40320 On ch=3 n=75 v=127
40320 On ch=3 n=84 v=127
40320 On ch=3 n=87 v=127
40320 On ch=3 n=96 v=127
40320 On ch=3 n=99 v=127
40320 On ch=3 n=106 v=127
40320 On ch=3 n=60 v=127
40380 On ch=3 n=24 v=0
40380 On ch=3 n=37 v=0
40380 On ch=3 n=63 v=0
40380 On ch=3 n=72 v=0
40380 On ch=3 n=75 v=0
40380 On ch=3 n=84 v=0
40380 On ch=3 n=87 v=0
40380 On ch=3 n=96 v=0
40380 On ch=3 n=99 v=0
40380 On ch=3 n=60 v=0
40480 On ch=3 n=35 v=127
40480 On ch=3 n=99 v=127
40540 On ch=3 n=35 v=0
40540 On ch=3 n=99 v=0
40640 On ch=3 n=25 v=127
40640 On ch=3 n=35 v=127
40640 On ch=3 n=87 v=127
40640 On ch=3 n=99 v=127
40700 On ch=3 n=35 v=0
40700 On ch=3 n=87 v=0
40700 On ch=3 n=99 v=0
40794 On ch=3 n=25 v=0
40800 On ch=3 n=24 v=127
40800 On ch=3 n=37 v=127
40800 On ch=3 n=63 v=127
40800 On ch=3 n=72 v=127
40800 On ch=3 n=75 v=127
40800 On ch=3 n=84 v=127
40800 On ch=3 n=87 v=127
40800 On ch=3 n=96 v=127
40800 On ch=3 n=99 v=127
40800 On ch=3 n=60 v=127
40860 On ch=3 n=24 v=0
40860 On ch=3 n=37 v=0
40860 On ch=3 n=63 v=0
40860 On ch=3 n=72 v=0
40860 On ch=3 n=75 v=0
40860 On ch=3 n=84 v=0
40860 On ch=3 n=87 v=0
40860 On ch=3 n=96 v=0
40860 On ch=3 n=99 v=0
40860 On ch=3 n=60 v=0
40960 On ch=3 n=35 v=127
40960 On ch=3 n=99 v=127
41020 On ch=3 n=35 v=0
41020 On ch=3 n=99 v=0
41120 On ch=3 n=25 v=127
41120 On ch=3 n=35 v=127
41120 On ch=3 n=87 v=127
41120 On ch=3 n=99 v=127
41180 On ch=3 n=35 v=0
41180 On ch=3 n=87 v=0
41180 On ch=3 n=99 v=0
41274 On ch=3 n=25 v=0
41280 On ch=3 n=24 v=127
41280 On ch=3 n=37 v=127
41280 On ch=3 n=63 v=127
41280 On ch=3 n=72 v=127
41280 On ch=3 n=75 v=127
41280 On ch=3 n=84 v=127
41280 On ch=3 n=87 v=127
41280 On ch=3 n=96 v=127
41280 On ch=3 n=99 v=127
41280 On ch=3 n=60 v=127
41340 On ch=3 n=24 v=0
41340 On ch=3 n=37 v=0
41340 On ch=3 n=63 v=0
41340 On ch=3 n=72 v=0
41340 On ch=3 n=75 v=0
41340 On ch=3 n=84 v=0
41340 On ch=3 n=87 v=0
41340 On ch=3 n=96 v=0
41340 On ch=3 n=99 v=0
41340 On ch=3 n=60 v=0
41440 On ch=3 n=35 v=127
41440 On ch=3 n=99 v=127
41500 On ch=3 n=35 v=0
41500 On ch=3 n=99 v=0
41600 On ch=3 n=25 v=127
41600 On ch=3 n=35 v=127
41600 On ch=3 n=87 v=127
41600 On ch=3 n=99 v=127
41660 On ch=3 n=35 v=0
41660 On ch=3 n=87 v=0
41660 On ch=3 n=99 v=0
41754 On ch=3 n=25 v=0
41760 On ch=3 n=24 v=127
41760 On ch=3 n=37 v=127
41760 On ch=3 n=63 v=127
41760 On ch=3 n=72 v=127
41760 On ch=3 n=75 v=127
41760 On ch=3 n=84 v=127
41760 On ch=3 n=87 v=127
41760 On ch=3 n=96 v=127
41760 On ch=3 n=99 v=127
41760 On ch=3 n=60 v=127
41820 On ch=3 n=24 v=0
41820 On ch=3 n=37 v=0
41820 On ch=3 n=63 v=0
41820 On ch=3 n=72 v=0
41820 On ch=3 n=75 v=0
41820 On ch=3 n=84 v=0
41820 On ch=3 n=87 v=0
41820 On ch=3 n=96 v=0
41820 On ch=3 n=99 v=0
41820 On ch=3 n=60 v=0
41920 On ch=3 n=35 v=127
41920 On ch=3 n=99 v=127
41980 On ch=3 n=35 v=0
41980 On ch=3 n=99 v=0
42080 On ch=3 n=25 v=127
42080 On ch=3 n=35 v=127
42080 On ch=3 n=87 v=127
42080 On ch=3 n=99 v=127
42140 On ch=3 n=35 v=0
42140 On ch=3 n=87 v=0
42140 On ch=3 n=99 v=0
42234 On ch=3 n=25 v=0
42236 On ch=3 n=106 v=0
42240 On ch=3 n=24 v=127
42240 On ch=3 n=37 v=127
42240 On ch=3 n=63 v=127
42240 On ch=3 n=72 v=127
42240 On ch=3 n=75 v=127
42240 On ch=3 n=84 v=127
42240 On ch=3 n=87 v=127
42240 On ch=3 n=96 v=127
42240 On ch=3 n=99 v=127
42240 On ch=3 n=105 v=127
42240 On ch=3 n=116 v=100
42240 On ch=3 n=60 v=127
42300 On ch=3 n=24 v=0
42300 On ch=3 n=37 v=0
42300 On ch=3 n=63 v=0
42300 On ch=3 n=72 v=0
42300 On ch=3 n=75 v=0
42300 On ch=3 n=84 v=0
42300 On ch=3 n=87 v=0
42300 On ch=3 n=96 v=0
42300 On ch=3 n=99 v=0
42300 On ch=3 n=60 v=0
42400 On ch=3 n=35 v=127
42400 On ch=3 n=99 v=127
42460 On ch=3 n=35 v=0
42460 On ch=3 n=99 v=0
42560 On ch=3 n=25 v=127
42560 On ch=3 n=35 v=127
42560 On ch=3 n=87 v=127
42560 On ch=3 n=99 v=127
42620 On ch=3 n=35 v=0
42620 On ch=3 n=87 v=0
42620 On ch=3 n=99 v=0
42714 On ch=3 n=25 v=0
42720 On ch=3 n=24 v=127
42720 On ch=3 n=37 v=127
42720 On ch=3 n=63 v=127
42720 On ch=3 n=72 v=127
42720 On ch=3 n=75 v=127
42720 On ch=3 n=84 v=127
42720 On ch=3 n=87 v=127
42720 On ch=3 n=96 v=127
42720 On ch=3 n=99 v=127
42720 On ch=3 n=60 v=127
42780 On ch=3 n=24 v=0
42780 On ch=3 n=37 v=0
42780 On ch=3 n=63 v=0
42780 On ch=3 n=72 v=0
42780 On ch=3 n=75 v=0
42780 On ch=3 n=84 v=0
42780 On ch=3 n=87 v=0
42780 On ch=3 n=96 v=0
42780 On ch=3 n=99 v=0
42780 On ch=3 n=60 v=0
42880 On ch=3 n=35 v=127
42880 On ch=3 n=99 v=127
42940 On ch=3 n=35 v=0
42940 On ch=3 n=99 v=0
43040 On ch=3 n=25 v=127
43040 On ch=3 n=35 v=127
43040 On ch=3 n=87 v=127
43040 On ch=3 n=99 v=127
43100 On ch=3 n=35 v=0
43100 On ch=3 n=87 v=0
43100 On ch=3 n=99 v=0
43194 On ch=3 n=25 v=0
43200 On ch=3 n=24 v=127
43200 On ch=3 n=37 v=127
43200 On ch=3 n=63 v=127
43200 On ch=3 n=72 v=127
43200 On ch=3 n=75 v=127
43200 On ch=3 n=84 v=127
43200 On ch=3 n=87 v=127
43200 On ch=3 n=96 v=127
43200 On ch=3 n=99 v=127
43200 On ch=3 n=60 v=127
43260 On ch=3 n=24 v=0
43260 On ch=3 n=37 v=0
43260 On ch=3 n=63 v=0
43260 On ch=3 n=72 v=0
43260 On ch=3 n=75 v=0
43260 On ch=3 n=84 v=0
43260 On ch=3 n=87 v=0
43260 On ch=3 n=96 v=0
43260 On ch=3 n=99 v=0
43260 On ch=3 n=60 v=0
43360 On ch=3 n=35 v=127
43360 On ch=3 n=99 v=127
43420 On ch=3 n=35 v=0
43420 On ch=3 n=99 v=0
43520 On ch=3 n=25 v=127
43520 On ch=3 n=35 v=127
43520 On ch=3 n=87 v=127
43520 On ch=3 n=99 v=127
43580 On ch=3 n=35 v=0
43580 On ch=3 n=87 v=0
43580 On ch=3 n=99 v=0
43674 On ch=3 n=25 v=0
43680 On ch=3 n=24 v=127
43680 On ch=3 n=37 v=127
43680 On ch=3 n=63 v=127
43680 On ch=3 n=72 v=127
43680 On ch=3 n=75 v=127
43680 On ch=3 n=84 v=127
43680 On ch=3 n=87 v=127
43680 On ch=3 n=96 v=127
43680 On ch=3 n=99 v=127
43680 On ch=3 n=60 v=127
43740 On ch=3 n=24 v=0
43740 On ch=3 n=37 v=0
43740 On ch=3 n=63 v=0
43740 On ch=3 n=72 v=0
43740 On ch=3 n=75 v=0
43740 On ch=3 n=84 v=0
43740 On ch=3 n=87 v=0
43740 On ch=3 n=96 v=0
43740 On ch=3 n=99 v=0
43740 On ch=3 n=60 v=0
43840 On ch=3 n=35 v=127
43840 On ch=3 n=99 v=127
43900 On ch=3 n=35 v=0
43900 On ch=3 n=99 v=0
44000 On ch=3 n=25 v=127
44000 On ch=3 n=35 v=127
44000 On ch=3 n=99 v=127
44060 On ch=3 n=35 v=0
44060 On ch=3 n=99 v=0
44154 On ch=3 n=25 v=0
44156 On ch=3 n=105 v=0
44160 On ch=3 n=116 v=0
44160 On ch=3 n=124 v=127
44160 On ch=3 n=123 v=127
44160 On ch=3 n=122 v=127
44160 On ch=3 n=121 v=127
44160 On ch=3 n=120 v=127
44160 On ch=3 n=112 v=127
44160 On ch=3 n=111 v=127
44160 On ch=3 n=110 v=127
44160 On ch=3 n=106 v=127
44160 On ch=3 n=105 v=127
44160 On ch=3 n=100 v=127
44160 On ch=3 n=96 v=127
44160 On ch=3 n=88 v=127
44160 On ch=3 n=84 v=127
44160 On ch=3 n=76 v=127
44160 On ch=3 n=64 v=127
44160 On ch=3 n=51 v=127
44160 On ch=3 n=24 v=127
44220 On ch=3 n=100 v=0
44220 On ch=3 n=96 v=0
44220 On ch=3 n=88 v=0
44220 On ch=3 n=84 v=0
44220 On ch=3 n=76 v=0
44220 On ch=3 n=64 v=0
44220 On ch=3 n=51 v=0
44220 On ch=3 n=24 v=0
44320 On ch=3 n=50 v=127
44320 On ch=3 n=88 v=127
44320 On ch=3 n=100 v=127
44380 On ch=3 n=50 v=0
44380 On ch=3 n=88 v=0
44380 On ch=3 n=100 v=0
44480 On ch=3 n=25 v=127
44480 On ch=3 n=51 v=127
44480 On ch=3 n=88 v=127
44480 On ch=3 n=100 v=127
44480 On ch=3 n=76 v=100
44540 On ch=3 n=51 v=0
44540 On ch=3 n=88 v=0
44540 On ch=3 n=100 v=0
44540 On ch=3 n=76 v=0
44634 On ch=3 n=25 v=0
44640 On ch=3 n=24 v=127
44640 On ch=3 n=48 v=127
44640 On ch=3 n=63 v=127
44640 On ch=3 n=75 v=127
44640 On ch=3 n=87 v=127
44640 On ch=3 n=96 v=127
44640 On ch=3 n=99 v=127
44700 On ch=3 n=24 v=0
44700 On ch=3 n=48 v=0
44700 On ch=3 n=63 v=0
44700 On ch=3 n=75 v=0
44700 On ch=3 n=87 v=0
44700 On ch=3 n=96 v=0
44700 On ch=3 n=99 v=0
44800 On ch=3 n=49 v=127
44800 On ch=3 n=87 v=127
44800 On ch=3 n=99 v=127
44860 On ch=3 n=49 v=0
44860 On ch=3 n=87 v=0
44860 On ch=3 n=99 v=0
44960 On ch=3 n=25 v=127
44960 On ch=3 n=48 v=127
44960 On ch=3 n=87 v=127
44960 On ch=3 n=99 v=127
44960 On ch=3 n=74 v=100
45020 On ch=3 n=48 v=0
45020 On ch=3 n=87 v=0
45020 On ch=3 n=99 v=0
45020 On ch=3 n=74 v=0
45114 On ch=3 n=25 v=0
45120 On ch=3 n=24 v=127
45120 On ch=3 n=47 v=127
45120 On ch=3 n=62 v=127
45120 On ch=3 n=74 v=127
45120 On ch=3 n=87 v=127
45120 On ch=3 n=96 v=127
45120 On ch=3 n=99 v=127
45180 On ch=3 n=24 v=0
45180 On ch=3 n=47 v=0
45180 On ch=3 n=62 v=0
45180 On ch=3 n=74 v=0
45180 On ch=3 n=87 v=0
45180 On ch=3 n=96 v=0
45180 On ch=3 n=99 v=0
45280 On ch=3 n=46 v=127
45280 On ch=3 n=86 v=127
45280 On ch=3 n=98 v=127
45340 On ch=3 n=46 v=0
45340 On ch=3 n=86 v=0
45340 On ch=3 n=98 v=0
45440 On ch=3 n=25 v=127
45440 On ch=3 n=47 v=127
45440 On ch=3 n=86 v=127
45440 On ch=3 n=98 v=127
45440 On ch=3 n=73 v=100
45500 On ch=3 n=47 v=0
45500 On ch=3 n=86 v=0
45500 On ch=3 n=98 v=0
45500 On ch=3 n=73 v=0
45594 On ch=3 n=25 v=0
45598 On ch=3 n=112 v=0
45598 On ch=3 n=111 v=0
45598 On ch=3 n=110 v=0
45600 On ch=3 n=24 v=127
45600 On ch=3 n=26 v=127
45600 On ch=3 n=61 v=127
45600 On ch=3 n=73 v=127
45600 On ch=3 n=85 v=127
45600 On ch=3 n=96 v=127
45600 On ch=3 n=97 v=127
45660 On ch=3 n=24 v=0
45660 On ch=3 n=26 v=0
45660 On ch=3 n=61 v=0
45660 On ch=3 n=73 v=0
45660 On ch=3 n=85 v=0
45660 On ch=3 n=96 v=0
45660 On ch=3 n=97 v=0
45760 On ch=3 n=27 v=127
45760 On ch=3 n=85 v=127
45760 On ch=3 n=97 v=127
45820 On ch=3 n=27 v=0
45820 On ch=3 n=85 v=0
45820 On ch=3 n=97 v=0
45920 On ch=3 n=25 v=127
45920 On ch=3 n=26 v=127
45920 On ch=3 n=85 v=127
45920 On ch=3 n=97 v=127
45920 On ch=3 n=73 v=100
45980 On ch=3 n=26 v=0
45980 On ch=3 n=85 v=0
45980 On ch=3 n=97 v=0
45980 On ch=3 n=73 v=0
46073 On ch=3 n=25 v=0
46076 On ch=3 n=124 v=0
46076 On ch=3 n=123 v=0
46076 On ch=3 n=122 v=0
46076 On ch=3 n=121 v=0
46076 On ch=3 n=120 v=0
46080 On ch=3 n=105 v=0
46080 On ch=3 n=24 v=127
46080 On ch=3 n=38 v=127
46080 On ch=3 n=60 v=127
46080 On ch=3 n=64 v=127
46080 On ch=3 n=72 v=127
46080 On ch=3 n=76 v=127
46080 On ch=3 n=84 v=127
46080 On ch=3 n=88 v=127
46080 On ch=3 n=96 v=127
46080 On ch=3 n=100 v=127
46080 Meta Text "[intense]"
46140 On ch=3 n=24 v=0
46140 On ch=3 n=38 v=0
46140 On ch=3 n=60 v=0
46140 On ch=3 n=64 v=0
46140 On ch=3 n=72 v=0
46140 On ch=3 n=76 v=0
46140 On ch=3 n=84 v=0
46140 On ch=3 n=88 v=0
46140 On ch=3 n=96 v=0
46140 On ch=3 n=100 v=0
46240 On ch=3 n=26 v=127
46240 On ch=3 n=97 v=127
46300 On ch=3 n=26 v=0
46300 On ch=3 n=97 v=0
46400 On ch=3 n=25 v=127
46400 On ch=3 n=27 v=127
46400 On ch=3 n=85 v=127
46400 On ch=3 n=97 v=127
46460 On ch=3 n=27 v=0
46460 On ch=3 n=85 v=0
46460 On ch=3 n=97 v=0
46554 On ch=3 n=25 v=0
46560 On ch=3 n=24 v=127
46560 On ch=3 n=34 v=127
46560 On ch=3 n=64 v=127
46560 On ch=3 n=72 v=127
46560 On ch=3 n=75 v=127
46560 On ch=3 n=84 v=127
46560 On ch=3 n=88 v=127
46560 On ch=3 n=96 v=127
46560 On ch=3 n=99 v=127
46560 On ch=3 n=60 v=127
46620 On ch=3 n=24 v=0
46620 On ch=3 n=34 v=0
46620 On ch=3 n=64 v=0
46620 On ch=3 n=72 v=0
46620 On ch=3 n=75 v=0
46620 On ch=3 n=84 v=0
46620 On ch=3 n=88 v=0
46620 On ch=3 n=96 v=0
46620 On ch=3 n=99 v=0
46620 On ch=3 n=60 v=0
46720 On ch=3 n=27 v=127
46720 On ch=3 n=97 v=127
46780 On ch=3 n=27 v=0
46780 On ch=3 n=97 v=0
46880 On ch=3 n=25 v=127
46880 On ch=3 n=26 v=127
46880 On ch=3 n=85 v=127
46880 On ch=3 n=97 v=127
46940 On ch=3 n=26 v=0
46940 On ch=3 n=85 v=0
46940 On ch=3 n=97 v=0
47034 On ch=3 n=25 v=0
47040 On ch=3 n=24 v=127
47040 On ch=3 n=38 v=127
47040 On ch=3 n=64 v=127
47040 On ch=3 n=72 v=127
47040 On ch=3 n=76 v=127
47040 On ch=3 n=84 v=127
47040 On ch=3 n=88 v=127
47040 On ch=3 n=96 v=127
47040 On ch=3 n=100 v=127
47040 On ch=3 n=60 v=127
47100 On ch=3 n=24 v=0
47100 On ch=3 n=38 v=0
47100 On ch=3 n=64 v=0
47100 On ch=3 n=72 v=0
47100 On ch=3 n=76 v=0
47100 On ch=3 n=84 v=0
47100 On ch=3 n=88 v=0
47100 On ch=3 n=96 v=0
47100 On ch=3 n=100 v=0
47100 On ch=3 n=60 v=0
47200 On ch=3 n=26 v=127
47200 On ch=3 n=97 v=127
47260 On ch=3 n=26 v=0
47260 On ch=3 n=97 v=0
47360 On ch=3 n=25 v=127
47360 On ch=3 n=27 v=127
47360 On ch=3 n=85 v=127
47360 On ch=3 n=97 v=127
47420 On ch=3 n=27 v=0
47420 On ch=3 n=85 v=0
47420 On ch=3 n=97 v=0
47514 On ch=3 n=25 v=0
47520 On ch=3 n=24 v=127
47520 On ch=3 n=34 v=127
47520 On ch=3 n=64 v=127
47520 On ch=3 n=72 v=127
47520 On ch=3 n=75 v=127
47520 On ch=3 n=84 v=127
47520 On ch=3 n=88 v=127
47520 On ch=3 n=96 v=127
47520 On ch=3 n=99 v=127
47520 On ch=3 n=60 v=127
47580 On ch=3 n=24 v=0
47580 On ch=3 n=34 v=0
47580 On ch=3 n=64 v=0
47580 On ch=3 n=72 v=0
47580 On ch=3 n=75 v=0
47580 On ch=3 n=84 v=0
47580 On ch=3 n=88 v=0
47580 On ch=3 n=96 v=0
47580 On ch=3 n=99 v=0
47580 On ch=3 n=60 v=0
47680 On ch=3 n=27 v=127
47680 On ch=3 n=97 v=127
47740 On ch=3 n=27 v=0
47740 On ch=3 n=97 v=0
47840 On ch=3 n=25 v=127
47840 On ch=3 n=26 v=127
47840 On ch=3 n=85 v=127
47840 On ch=3 n=97 v=127
47900 On ch=3 n=26 v=0
47900 On ch=3 n=85 v=0
47900 On ch=3 n=97 v=0
47994 On ch=3 n=25 v=0
48000 On ch=3 n=24 v=127
48000 On ch=3 n=38 v=127
48000 On ch=3 n=64 v=127
48000 On ch=3 n=72 v=127
48000 On ch=3 n=76 v=127
48000 On ch=3 n=84 v=127
48000 On ch=3 n=88 v=127
48000 On ch=3 n=96 v=127
48000 On ch=3 n=100 v=127
48000 On ch=3 n=105 v=100
48000 On ch=3 n=60 v=127
48060 On ch=3 n=24 v=0
48060 On ch=3 n=38 v=0
48060 On ch=3 n=64 v=0
48060 On ch=3 n=72 v=0
48060 On ch=3 n=76 v=0
48060 On ch=3 n=84 v=0
48060 On ch=3 n=88 v=0
48060 On ch=3 n=96 v=0
48060 On ch=3 n=100 v=0
48060 On ch=3 n=60 v=0
48160 On ch=3 n=26 v=127
48160 On ch=3 n=97 v=127
48220 On ch=3 n=26 v=0
48220 On ch=3 n=97 v=0
48320 On ch=3 n=25 v=127
48320 On ch=3 n=27 v=127
48320 On ch=3 n=85 v=127
48320 On ch=3 n=97 v=127
48380 On ch=3 n=27 v=0
48380 On ch=3 n=85 v=0
48380 On ch=3 n=97 v=0
48474 On ch=3 n=25 v=0
48480 On ch=3 n=24 v=127
48480 On ch=3 n=34 v=127
48480 On ch=3 n=64 v=127
48480 On ch=3 n=72 v=127
48480 On ch=3 n=75 v=127
48480 On ch=3 n=84 v=127
48480 On ch=3 n=88 v=127
48480 On ch=3 n=96 v=127
48480 On ch=3 n=99 v=127
48480 On ch=3 n=60 v=127
48540 On ch=3 n=24 v=0
48540 On ch=3 n=34 v=0
48540 On ch=3 n=64 v=0
48540 On ch=3 n=72 v=0
48540 On ch=3 n=75 v=0
48540 On ch=3 n=84 v=0
48540 On ch=3 n=88 v=0
48540 On ch=3 n=96 v=0
48540 On ch=3 n=99 v=0
48540 On ch=3 n=60 v=0
48640 On ch=3 n=27 v=127
48640 On ch=3 n=97 v=127
48700 On ch=3 n=27 v=0
48700 On ch=3 n=97 v=0
48800 On ch=3 n=25 v=127
48800 On ch=3 n=26 v=127
48800 On ch=3 n=85 v=127
48800 On ch=3 n=97 v=127
48860 On ch=3 n=26 v=0
48860 On ch=3 n=85 v=0
48860 On ch=3 n=97 v=0
48954 On ch=3 n=25 v=0
48960 On ch=3 n=24 v=127
48960 On ch=3 n=38 v=127
48960 On ch=3 n=64 v=127
48960 On ch=3 n=72 v=127
48960 On ch=3 n=76 v=127
48960 On ch=3 n=84 v=127
48960 On ch=3 n=88 v=127
48960 On ch=3 n=96 v=127
48960 On ch=3 n=100 v=127
48960 On ch=3 n=60 v=127
49020 On ch=3 n=24 v=0
49020 On ch=3 n=38 v=0
49020 On ch=3 n=64 v=0
49020 On ch=3 n=72 v=0
49020 On ch=3 n=76 v=0
49020 On ch=3 n=84 v=0
49020 On ch=3 n=88 v=0
49020 On ch=3 n=96 v=0
49020 On ch=3 n=100 v=0
49020 On ch=3 n=60 v=0
49120 On ch=3 n=26 v=127
49120 On ch=3 n=97 v=127
49180 On ch=3 n=26 v=0
49180 On ch=3 n=97 v=0
49280 On ch=3 n=25 v=127
49280 On ch=3 n=27 v=127
49280 On ch=3 n=85 v=127
49280 On ch=3 n=97 v=127
49340 On ch=3 n=27 v=0
49340 On ch=3 n=85 v=0
49340 On ch=3 n=97 v=0
49434 On ch=3 n=25 v=0
49440 On ch=3 n=24 v=127
49440 On ch=3 n=34 v=127
49440 On ch=3 n=64 v=127
49440 On ch=3 n=72 v=127
49440 On ch=3 n=75 v=127
49440 On ch=3 n=84 v=127
49440 On ch=3 n=88 v=127
49440 On ch=3 n=96 v=127
49440 On ch=3 n=99 v=127
49440 On ch=3 n=60 v=127
49500 On ch=3 n=24 v=0
49500 On ch=3 n=34 v=0
49500 On ch=3 n=64 v=0
49500 On ch=3 n=72 v=0
49500 On ch=3 n=75 v=0
49500 On ch=3 n=84 v=0
49500 On ch=3 n=88 v=0
49500 On ch=3 n=96 v=0
49500 On ch=3 n=99 v=0
49500 On ch=3 n=60 v=0
49600 On ch=3 n=27 v=127
49600 On ch=3 n=97 v=127
49660 On ch=3 n=27 v=0
49660 On ch=3 n=97 v=0
49760 On ch=3 n=25 v=127
49760 On ch=3 n=26 v=127
49760 On ch=3 n=85 v=127
49760 On ch=3 n=97 v=127
49820 On ch=3 n=26 v=0
49820 On ch=3 n=85 v=0
49820 On ch=3 n=97 v=0
49914 On ch=3 n=25 v=0
49920 On ch=3 n=106 v=0
49920 On ch=3 n=24 v=127
49920 On ch=3 n=38 v=127
49920 On ch=3 n=64 v=127
49920 On ch=3 n=72 v=127
49920 On ch=3 n=76 v=127
49920 On ch=3 n=84 v=127
49920 On ch=3 n=88 v=127
49920 On ch=3 n=96 v=127
49920 On ch=3 n=100 v=127
49920 On ch=3 n=60 v=127
49980 On ch=3 n=24 v=0
49980 On ch=3 n=38 v=0
49980 On ch=3 n=64 v=0
49980 On ch=3 n=72 v=0
49980 On ch=3 n=76 v=0
49980 On ch=3 n=84 v=0
49980 On ch=3 n=88 v=0
49980 On ch=3 n=96 v=0
49980 On ch=3 n=100 v=0
49980 On ch=3 n=60 v=0
50080 On ch=3 n=26 v=127
50080 On ch=3 n=97 v=127
50140 On ch=3 n=26 v=0
50140 On ch=3 n=97 v=0
50240 On ch=3 n=25 v=127
50240 On ch=3 n=27 v=127
50240 On ch=3 n=85 v=127
50240 On ch=3 n=97 v=127
50300 On ch=3 n=27 v=0
50300 On ch=3 n=85 v=0
50300 On ch=3 n=97 v=0
50393 On ch=3 n=25 v=0
50400 On ch=3 n=24 v=127
50400 On ch=3 n=34 v=127
50400 On ch=3 n=64 v=127
50400 On ch=3 n=72 v=127
50400 On ch=3 n=75 v=127
50400 On ch=3 n=84 v=127
50400 On ch=3 n=88 v=127
50400 On ch=3 n=96 v=127
50400 On ch=3 n=99 v=127
50400 On ch=3 n=60 v=127
50460 On ch=3 n=24 v=0
50460 On ch=3 n=34 v=0
50460 On ch=3 n=64 v=0
50460 On ch=3 n=72 v=0
50460 On ch=3 n=75 v=0
50460 On ch=3 n=84 v=0
50460 On ch=3 n=88 v=0
50460 On ch=3 n=96 v=0
50460 On ch=3 n=99 v=0
50460 On ch=3 n=60 v=0
50560 On ch=3 n=27 v=127
50560 On ch=3 n=97 v=127
50620 On ch=3 n=27 v=0
50620 On ch=3 n=97 v=0
50720 On ch=3 n=25 v=127
50720 On ch=3 n=26 v=127
50720 On ch=3 n=85 v=127
50720 On ch=3 n=97 v=127
50780 On ch=3 n=26 v=0
50780 On ch=3 n=85 v=0
50780 On ch=3 n=97 v=0
50873 On ch=3 n=25 v=0
50880 On ch=3 n=24 v=127
50880 On ch=3 n=38 v=127
50880 On ch=3 n=64 v=127
50880 On ch=3 n=72 v=127
50880 On ch=3 n=76 v=127
50880 On ch=3 n=84 v=127
50880 On ch=3 n=88 v=127
50880 On ch=3 n=96 v=127
50880 On ch=3 n=100 v=127
50880 On ch=3 n=60 v=127
50940 On ch=3 n=24 v=0
50940 On ch=3 n=38 v=0
50940 On ch=3 n=64 v=0
50940 On ch=3 n=72 v=0
50940 On ch=3 n=76 v=0
50940 On ch=3 n=84 v=0
50940 On ch=3 n=88 v=0
50940 On ch=3 n=96 v=0
50940 On ch=3 n=100 v=0
50940 On ch=3 n=60 v=0
51040 On ch=3 n=26 v=127
51040 On ch=3 n=97 v=127
51100 On ch=3 n=26 v=0
51100 On ch=3 n=97 v=0
51200 On ch=3 n=25 v=127
51200 On ch=3 n=27 v=127
51200 On ch=3 n=85 v=127
51200 On ch=3 n=97 v=127
51260 On ch=3 n=27 v=0
51260 On ch=3 n=85 v=0
51260 On ch=3 n=97 v=0
51353 On ch=3 n=25 v=0
51360 On ch=3 n=24 v=127
51360 On ch=3 n=34 v=127
51360 On ch=3 n=64 v=127
51360 On ch=3 n=72 v=127
51360 On ch=3 n=75 v=127
51360 On ch=3 n=84 v=127
51360 On ch=3 n=88 v=127
51360 On ch=3 n=96 v=127
51360 On ch=3 n=99 v=127
51360 On ch=3 n=60 v=127
51420 On ch=3 n=24 v=0
51420 On ch=3 n=34 v=0
51420 On ch=3 n=64 v=0
51420 On ch=3 n=72 v=0
51420 On ch=3 n=75 v=0
51420 On ch=3 n=84 v=0
51420 On ch=3 n=88 v=0
51420 On ch=3 n=96 v=0
51420 On ch=3 n=99 v=0
51420 On ch=3 n=60 v=0
51520 On ch=3 n=27 v=127
51520 On ch=3 n=97 v=127
51580 On ch=3 n=27 v=0
51580 On ch=3 n=97 v=0
51680 On ch=3 n=25 v=127
51680 On ch=3 n=26 v=127
51680 On ch=3 n=85 v=127
51680 On ch=3 n=97 v=127
51740 On ch=3 n=26 v=0
51740 On ch=3 n=85 v=0
51740 On ch=3 n=97 v=0
51833 On ch=3 n=25 v=0
51840 On ch=3 n=24 v=127
51840 On ch=3 n=38 v=127
51840 On ch=3 n=64 v=127
51840 On ch=3 n=72 v=127
51840 On ch=3 n=76 v=127
51840 On ch=3 n=84 v=127
51840 On ch=3 n=88 v=127
51840 On ch=3 n=96 v=127
51840 On ch=3 n=100 v=127
51840 On ch=3 n=106 v=100
51840 On ch=3 n=60 v=127
51900 On ch=3 n=24 v=0
51900 On ch=3 n=38 v=0
51900 On ch=3 n=64 v=0
51900 On ch=3 n=72 v=0
51900 On ch=3 n=76 v=0
51900 On ch=3 n=84 v=0
51900 On ch=3 n=88 v=0
51900 On ch=3 n=96 v=0
51900 On ch=3 n=100 v=0
51900 On ch=3 n=60 v=0
52000 On ch=3 n=26 v=127
52000 On ch=3 n=85 v=127
52000 On ch=3 n=97 v=127
52060 On ch=3 n=26 v=0
52060 On ch=3 n=85 v=0
52060 On ch=3 n=97 v=0
52160 On ch=3 n=25 v=127
52160 On ch=3 n=27 v=127
52160 On ch=3 n=85 v=127
52160 On ch=3 n=97 v=127
52160 On ch=3 n=73 v=100
52220 On ch=3 n=27 v=0
52220 On ch=3 n=85 v=0
52220 On ch=3 n=97 v=0
52220 On ch=3 n=73 v=0
52314 On ch=3 n=25 v=0
52320 On ch=3 n=24 v=127
52320 On ch=3 n=26 v=127
52320 On ch=3 n=61 v=127
52320 On ch=3 n=73 v=127
52320 On ch=3 n=85 v=127
52320 On ch=3 n=96 v=127
52320 On ch=3 n=97 v=127
52380 On ch=3 n=24 v=0
52380 On ch=3 n=26 v=0
52380 On ch=3 n=61 v=0
52380 On ch=3 n=73 v=0
52380 On ch=3 n=85 v=0
52380 On ch=3 n=96 v=0
52380 On ch=3 n=97 v=0
52480 On ch=3 n=27 v=127
52480 On ch=3 n=85 v=127
52480 On ch=3 n=97 v=127
52540 On ch=3 n=27 v=0
52540 On ch=3 n=85 v=0
52540 On ch=3 n=97 v=0
52640 On ch=3 n=25 v=127
52640 On ch=3 n=26 v=127
52640 On ch=3 n=85 v=127
52640 On ch=3 n=97 v=127
52640 On ch=3 n=74 v=100
52700 On ch=3 n=26 v=0
52700 On ch=3 n=85 v=0
52700 On ch=3 n=97 v=0
52700 On ch=3 n=74 v=0
52794 On ch=3 n=25 v=0
52800 On ch=3 n=24 v=127
52800 On ch=3 n=47 v=127
52800 On ch=3 n=62 v=127
52800 On ch=3 n=74 v=127
52800 On ch=3 n=86 v=127
52800 On ch=3 n=96 v=127
52800 On ch=3 n=98 v=127
52800 On ch=3 n=110 v=127
52800 On ch=3 n=111 v=127
52800 On ch=3 n=120 v=127
52800 On ch=3 n=121 v=127
52800 On ch=3 n=122 v=127
52800 On ch=3 n=123 v=127
52800 On ch=3 n=124 v=127
52860 On ch=3 n=24 v=0
52860 On ch=3 n=47 v=0
52860 On ch=3 n=62 v=0
52860 On ch=3 n=74 v=0
52860 On ch=3 n=86 v=0
52860 On ch=3 n=96 v=0
52860 On ch=3 n=98 v=0
52960 On ch=3 n=46 v=127
52960 On ch=3 n=86 v=127
52960 On ch=3 n=98 v=127
53020 On ch=3 n=46 v=0
53020 On ch=3 n=86 v=0
53020 On ch=3 n=98 v=0
53120 On ch=3 n=25 v=127
53120 On ch=3 n=47 v=127
53120 On ch=3 n=86 v=127
53120 On ch=3 n=98 v=127
53120 On ch=3 n=75 v=100
53180 On ch=3 n=47 v=0
53180 On ch=3 n=86 v=0
53180 On ch=3 n=98 v=0
53180 On ch=3 n=75 v=0
53274 On ch=3 n=25 v=0
53280 On ch=3 n=24 v=127
53280 On ch=3 n=48 v=127
53280 On ch=3 n=63 v=127
53280 On ch=3 n=75 v=127
53280 On ch=3 n=87 v=127
53280 On ch=3 n=96 v=127
53280 On ch=3 n=99 v=127
53340 On ch=3 n=24 v=0
53340 On ch=3 n=48 v=0
53340 On ch=3 n=63 v=0
53340 On ch=3 n=75 v=0
53340 On ch=3 n=87 v=0
53340 On ch=3 n=96 v=0
53340 On ch=3 n=99 v=0
53440 On ch=3 n=49 v=127
53440 On ch=3 n=87 v=127
53440 On ch=3 n=99 v=127
53500 On ch=3 n=49 v=0
53500 On ch=3 n=87 v=0
53500 On ch=3 n=99 v=0
53600 On ch=3 n=25 v=127
53600 On ch=3 n=48 v=127
53600 On ch=3 n=87 v=127
53600 On ch=3 n=99 v=127
53600 On ch=3 n=75 v=100
53660 On ch=3 n=48 v=0
53660 On ch=3 n=87 v=0
53660 On ch=3 n=99 v=0
53660 On ch=3 n=75 v=0
53754 On ch=3 n=25 v=0
53756 On ch=3 n=120 v=0
53756 On ch=3 n=121 v=0
53756 On ch=3 n=122 v=0
53756 On ch=3 n=123 v=0
53756 On ch=3 n=124 v=0
53758 On ch=3 n=110 v=0
53758 On ch=3 n=111 v=0
53760 On ch=3 n=105 v=0
53760 On ch=3 n=24 v=127
53760 On ch=3 n=38 v=127
53760 On ch=3 n=60 v=127
53760 On ch=3 n=64 v=127
53760 On ch=3 n=72 v=127
53760 On ch=3 n=76 v=127
53760 On ch=3 n=84 v=127
53760 On ch=3 n=88 v=127
53760 On ch=3 n=96 v=127
53760 On ch=3 n=100 v=127
53820 On ch=3 n=24 v=0
53820 On ch=3 n=38 v=0
53820 On ch=3 n=60 v=0
53820 On ch=3 n=64 v=0
53820 On ch=3 n=72 v=0
53820 On ch=3 n=76 v=0
53820 On ch=3 n=84 v=0
53820 On ch=3 n=88 v=0
53820 On ch=3 n=96 v=0
53820 On ch=3 n=100 v=0
53920 On ch=3 n=26 v=127
53920 On ch=3 n=97 v=127
53980 On ch=3 n=26 v=0
53980 On ch=3 n=97 v=0
54080 On ch=3 n=25 v=127
54080 On ch=3 n=27 v=127
54080 On ch=3 n=85 v=127
54080 On ch=3 n=97 v=127
54140 On ch=3 n=27 v=0
54140 On ch=3 n=85 v=0
54140 On ch=3 n=97 v=0
54234 On ch=3 n=25 v=0
54240 On ch=3 n=24 v=127
54240 On ch=3 n=34 v=127
54240 On ch=3 n=72 v=127
54240 On ch=3 n=75 v=127
54240 On ch=3 n=84 v=127
54240 On ch=3 n=88 v=127
54240 On ch=3 n=96 v=127
54240 On ch=3 n=99 v=127
54240 On ch=3 n=64 v=127
54240 On ch=3 n=60 v=127
54300 On ch=3 n=24 v=0
54300 On ch=3 n=34 v=0
54300 On ch=3 n=72 v=0
54300 On ch=3 n=75 v=0
54300 On ch=3 n=84 v=0
54300 On ch=3 n=88 v=0
54300 On ch=3 n=96 v=0
54300 On ch=3 n=99 v=0
54300 On ch=3 n=64 v=0
54300 On ch=3 n=60 v=0
54400 On ch=3 n=27 v=127
54400 On ch=3 n=97 v=127
54460 On ch=3 n=27 v=0
54460 On ch=3 n=97 v=0
54560 On ch=3 n=25 v=127
54560 On ch=3 n=26 v=127
54560 On ch=3 n=85 v=127
54560 On ch=3 n=97 v=127
54620 On ch=3 n=26 v=0
54620 On ch=3 n=85 v=0
54620 On ch=3 n=97 v=0
54714 On ch=3 n=25 v=0
54720 On ch=3 n=24 v=127
54720 On ch=3 n=38 v=127
54720 On ch=3 n=72 v=127
54720 On ch=3 n=76 v=127
54720 On ch=3 n=84 v=127
54720 On ch=3 n=88 v=127
54720 On ch=3 n=96 v=127
54720 On ch=3 n=100 v=127
54720 On ch=3 n=64 v=127
54720 On ch=3 n=60 v=127
54780 On ch=3 n=24 v=0
54780 On ch=3 n=38 v=0
54780 On ch=3 n=72 v=0
54780 On ch=3 n=76 v=0
54780 On ch=3 n=84 v=0
54780 On ch=3 n=88 v=0
54780 On ch=3 n=96 v=0
54780 On ch=3 n=100 v=0
54780 On ch=3 n=64 v=0
54780 On ch=3 n=60 v=0
54880 On ch=3 n=26 v=127
54880 On ch=3 n=97 v=127
54940 On ch=3 n=26 v=0
54940 On ch=3 n=97 v=0
55040 On ch=3 n=25 v=127
55040 On ch=3 n=27 v=127
55040 On ch=3 n=85 v=127
55040 On ch=3 n=97 v=127
55100 On ch=3 n=27 v=0
55100 On ch=3 n=85 v=0
55100 On ch=3 n=97 v=0
55194 On ch=3 n=25 v=0
55200 On ch=3 n=24 v=127
55200 On ch=3 n=34 v=127
55200 On ch=3 n=72 v=127
55200 On ch=3 n=75 v=127
55200 On ch=3 n=84 v=127
55200 On ch=3 n=88 v=127
55200 On ch=3 n=96 v=127
55200 On ch=3 n=99 v=127
55200 On ch=3 n=64 v=127
55200 On ch=3 n=60 v=127
55260 On ch=3 n=24 v=0
55260 On ch=3 n=34 v=0
55260 On ch=3 n=72 v=0
55260 On ch=3 n=75 v=0
55260 On ch=3 n=84 v=0
55260 On ch=3 n=88 v=0
55260 On ch=3 n=96 v=0
55260 On ch=3 n=99 v=0
55260 On ch=3 n=64 v=0
55260 On ch=3 n=60 v=0
55360 On ch=3 n=27 v=127
55360 On ch=3 n=97 v=127
55420 On ch=3 n=27 v=0
55420 On ch=3 n=97 v=0
55520 On ch=3 n=25 v=127
55520 On ch=3 n=26 v=127
55520 On ch=3 n=85 v=127
55520 On ch=3 n=97 v=127
55580 On ch=3 n=26 v=0
55580 On ch=3 n=85 v=0
55580 On ch=3 n=97 v=0
55674 On ch=3 n=25 v=0
55680 On ch=3 n=24 v=127
55680 On ch=3 n=38 v=127
55680 On ch=3 n=72 v=127
55680 On ch=3 n=76 v=127
55680 On ch=3 n=84 v=127
55680 On ch=3 n=88 v=127
55680 On ch=3 n=96 v=127
55680 On ch=3 n=100 v=127
55680 On ch=3 n=105 v=100
55680 On ch=3 n=64 v=127
55680 On ch=3 n=60 v=127
55740 On ch=3 n=24 v=0
55740 On ch=3 n=38 v=0
55740 On ch=3 n=72 v=0
55740 On ch=3 n=76 v=0
55740 On ch=3 n=84 v=0
55740 On ch=3 n=88 v=0
55740 On ch=3 n=96 v=0
55740 On ch=3 n=100 v=0
55740 On ch=3 n=64 v=0
55740 On ch=3 n=60 v=0
55840 On ch=3 n=26 v=127
55840 On ch=3 n=97 v=127
55900 On ch=3 n=26 v=0
55900 On ch=3 n=97 v=0
56000 On ch=3 n=25 v=127
56000 On ch=3 n=27 v=127
56000 On ch=3 n=85 v=127
56000 On ch=3 n=97 v=127
56060 On ch=3 n=27 v=0
56060 On ch=3 n=85 v=0
56060 On ch=3 n=97 v=0
56154 On ch=3 n=25 v=0
56160 On ch=3 n=24 v=127
56160 On ch=3 n=34 v=127
56160 On ch=3 n=72 v=127
56160 On ch=3 n=75 v=127
56160 On ch=3 n=84 v=127
56160 On ch=3 n=88 v=127
56160 On ch=3 n=96 v=127
56160 On ch=3 n=99 v=127
56160 On ch=3 n=64 v=127
56160 On ch=3 n=60 v=127
56220 On ch=3 n=24 v=0
56220 On ch=3 n=34 v=0
56220 On ch=3 n=72 v=0
56220 On ch=3 n=75 v=0
56220 On ch=3 n=84 v=0
56220 On ch=3 n=88 v=0
56220 On ch=3 n=96 v=0
56220 On ch=3 n=99 v=0
56220 On ch=3 n=64 v=0
56220 On ch=3 n=60 v=0
56320 On ch=3 n=27 v=127
56320 On ch=3 n=97 v=127
56380 On ch=3 n=27 v=0
56380 On ch=3 n=97 v=0
56480 On ch=3 n=25 v=127
56480 On ch=3 n=26 v=127
56480 On ch=3 n=85 v=127
56480 On ch=3 n=97 v=127
56540 On ch=3 n=26 v=0
56540 On ch=3 n=85 v=0
56540 On ch=3 n=97 v=0
56634 On ch=3 n=25 v=0
56640 On ch=3 n=24 v=127
56640 On ch=3 n=38 v=127
56640 On ch=3 n=72 v=127
56640 On ch=3 n=76 v=127
56640 On ch=3 n=84 v=127
56640 On ch=3 n=88 v=127
56640 On ch=3 n=96 v=127
56640 On ch=3 n=100 v=127
56640 On ch=3 n=64 v=127
56640 On ch=3 n=60 v=127
56700 On ch=3 n=24 v=0
56700 On ch=3 n=38 v=0
56700 On ch=3 n=72 v=0
56700 On ch=3 n=76 v=0
56700 On ch=3 n=84 v=0
56700 On ch=3 n=88 v=0
56700 On ch=3 n=96 v=0
56700 On ch=3 n=100 v=0
56700 On ch=3 n=64 v=0
56700 On ch=3 n=60 v=0
56800 On ch=3 n=26 v=127
56800 On ch=3 n=97 v=127
56860 On ch=3 n=26 v=0
56860 On ch=3 n=97 v=0
56960 On ch=3 n=25 v=127
56960 On ch=3 n=27 v=127
56960 On ch=3 n=85 v=127
56960 On ch=3 n=97 v=127
57020 On ch=3 n=27 v=0
57020 On ch=3 n=85 v=0
57020 On ch=3 n=97 v=0
57114 On ch=3 n=25 v=0
57120 On ch=3 n=24 v=127
57120 On ch=3 n=34 v=127
57120 On ch=3 n=72 v=127
57120 On ch=3 n=75 v=127
57120 On ch=3 n=84 v=127
57120 On ch=3 n=88 v=127
57120 On ch=3 n=96 v=127
57120 On ch=3 n=99 v=127
57120 On ch=3 n=64 v=127
57120 On ch=3 n=60 v=127
57180 On ch=3 n=24 v=0
57180 On ch=3 n=34 v=0
57180 On ch=3 n=72 v=0
57180 On ch=3 n=75 v=0
57180 On ch=3 n=84 v=0
57180 On ch=3 n=88 v=0
57180 On ch=3 n=96 v=0
57180 On ch=3 n=99 v=0
57180 On ch=3 n=64 v=0
57180 On ch=3 n=60 v=0
57280 On ch=3 n=27 v=127
57280 On ch=3 n=97 v=127
57340 On ch=3 n=27 v=0
57340 On ch=3 n=97 v=0
57440 On ch=3 n=25 v=127
57440 On ch=3 n=26 v=127
57440 On ch=3 n=85 v=127
57440 On ch=3 n=97 v=127
57500 On ch=3 n=26 v=0
57500 On ch=3 n=85 v=0
57500 On ch=3 n=97 v=0
57594 On ch=3 n=25 v=0
57600 On ch=3 n=106 v=0
57600 On ch=3 n=24 v=127
57600 On ch=3 n=38 v=127
57600 On ch=3 n=72 v=127
57600 On ch=3 n=76 v=127
57600 On ch=3 n=84 v=127
57600 On ch=3 n=88 v=127
57600 On ch=3 n=96 v=127
57600 On ch=3 n=100 v=127
57600 On ch=3 n=64 v=127
57600 On ch=3 n=60 v=127
57660 On ch=3 n=24 v=0
57660 On ch=3 n=38 v=0
57660 On ch=3 n=72 v=0
57660 On ch=3 n=76 v=0
57660 On ch=3 n=84 v=0
57660 On ch=3 n=88 v=0
57660 On ch=3 n=96 v=0
57660 On ch=3 n=100 v=0
57660 On ch=3 n=64 v=0
57660 On ch=3 n=60 v=0
57760 On ch=3 n=26 v=127
57760 On ch=3 n=97 v=127
57820 On ch=3 n=26 v=0
57820 On ch=3 n=97 v=0
57920 On ch=3 n=25 v=127
57920 On ch=3 n=27 v=127
57920 On ch=3 n=85 v=127
57920 On ch=3 n=97 v=127
57980 On ch=3 n=27 v=0
57980 On ch=3 n=85 v=0
57980 On ch=3 n=97 v=0
58074 On ch=3 n=25 v=0
58080 On ch=3 n=24 v=127
58080 On ch=3 n=34 v=127
58080 On ch=3 n=72 v=127
58080 On ch=3 n=75 v=127
58080 On ch=3 n=84 v=127
58080 On ch=3 n=88 v=127
58080 On ch=3 n=96 v=127
58080 On ch=3 n=99 v=127
58080 On ch=3 n=64 v=127
58080 On ch=3 n=60 v=127
58140 On ch=3 n=24 v=0
58140 On ch=3 n=34 v=0
58140 On ch=3 n=72 v=0
58140 On ch=3 n=75 v=0
58140 On ch=3 n=84 v=0
58140 On ch=3 n=88 v=0
58140 On ch=3 n=96 v=0
58140 On ch=3 n=99 v=0
58140 On ch=3 n=64 v=0
58140 On ch=3 n=60 v=0
58240 On ch=3 n=27 v=127
58240 On ch=3 n=97 v=127
58300 On ch=3 n=27 v=0
58300 On ch=3 n=97 v=0
58400 On ch=3 n=25 v=127
58400 On ch=3 n=26 v=127
58400 On ch=3 n=85 v=127
58400 On ch=3 n=97 v=127
58460 On ch=3 n=26 v=0
58460 On ch=3 n=85 v=0
58460 On ch=3 n=97 v=0
58554 On ch=3 n=25 v=0
58560 On ch=3 n=24 v=127
58560 On ch=3 n=38 v=127
58560 On ch=3 n=72 v=127
58560 On ch=3 n=76 v=127
58560 On ch=3 n=84 v=127
58560 On ch=3 n=88 v=127
58560 On ch=3 n=96 v=127
58560 On ch=3 n=100 v=127
58560 On ch=3 n=64 v=127
58560 On ch=3 n=60 v=127
58620 On ch=3 n=24 v=0
58620 On ch=3 n=38 v=0
58620 On ch=3 n=72 v=0
58620 On ch=3 n=76 v=0
58620 On ch=3 n=84 v=0
58620 On ch=3 n=88 v=0
58620 On ch=3 n=96 v=0
58620 On ch=3 n=100 v=0
58620 On ch=3 n=64 v=0
58620 On ch=3 n=60 v=0
58720 On ch=3 n=26 v=127
58720 On ch=3 n=97 v=127
58780 On ch=3 n=26 v=0
58780 On ch=3 n=97 v=0
58880 On ch=3 n=25 v=127
58880 On ch=3 n=27 v=127
58880 On ch=3 n=85 v=127
58880 On ch=3 n=97 v=127
58940 On ch=3 n=27 v=0
58940 On ch=3 n=85 v=0
58940 On ch=3 n=97 v=0
59034 On ch=3 n=25 v=0
59040 On ch=3 n=24 v=127
59040 On ch=3 n=34 v=127
59040 On ch=3 n=72 v=127
59040 On ch=3 n=75 v=127
59040 On ch=3 n=84 v=127
59040 On ch=3 n=88 v=127
59040 On ch=3 n=96 v=127
59040 On ch=3 n=99 v=127
59040 On ch=3 n=64 v=127
59040 On ch=3 n=60 v=127
59100 On ch=3 n=24 v=0
59100 On ch=3 n=34 v=0
59100 On ch=3 n=72 v=0
59100 On ch=3 n=75 v=0
59100 On ch=3 n=84 v=0
59100 On ch=3 n=88 v=0
59100 On ch=3 n=96 v=0
59100 On ch=3 n=99 v=0
59100 On ch=3 n=64 v=0
59100 On ch=3 n=60 v=0
59200 On ch=3 n=27 v=127
59200 On ch=3 n=97 v=127
59260 On ch=3 n=27 v=0
59260 On ch=3 n=97 v=0
59360 On ch=3 n=25 v=127
59360 On ch=3 n=26 v=127
59360 On ch=3 n=85 v=127
59360 On ch=3 n=97 v=127
59420 On ch=3 n=26 v=0
59420 On ch=3 n=85 v=0
59420 On ch=3 n=97 v=0
59514 On ch=3 n=25 v=0
59520 On ch=3 n=24 v=127
59520 On ch=3 n=38 v=127
59520 On ch=3 n=72 v=127
59520 On ch=3 n=76 v=127
59520 On ch=3 n=84 v=127
59520 On ch=3 n=88 v=127
59520 On ch=3 n=96 v=127
59520 On ch=3 n=100 v=127
59520 On ch=3 n=106 v=100
59520 On ch=3 n=64 v=127
59520 On ch=3 n=60 v=127
59580 On ch=3 n=24 v=0
59580 On ch=3 n=38 v=0
59580 On ch=3 n=72 v=0
59580 On ch=3 n=76 v=0
59580 On ch=3 n=84 v=0
59580 On ch=3 n=88 v=0
59580 On ch=3 n=96 v=0
59580 On ch=3 n=100 v=0
59580 On ch=3 n=64 v=0
59580 On ch=3 n=60 v=0
59680 On ch=3 n=26 v=127
59680 On ch=3 n=97 v=127
59740 On ch=3 n=26 v=0
59740 On ch=3 n=97 v=0
59840 On ch=3 n=25 v=127
59840 On ch=3 n=27 v=127
59840 On ch=3 n=85 v=127
59840 On ch=3 n=97 v=127
59900 On ch=3 n=27 v=0
59900 On ch=3 n=85 v=0
59900 On ch=3 n=97 v=0
59994 On ch=3 n=25 v=0
60000 On ch=3 n=24 v=127
60000 On ch=3 n=34 v=127
60000 On ch=3 n=72 v=127
60000 On ch=3 n=75 v=127
60000 On ch=3 n=84 v=127
60000 On ch=3 n=88 v=127
60000 On ch=3 n=96 v=127
60000 On ch=3 n=99 v=127
60000 On ch=3 n=64 v=127
60000 On ch=3 n=60 v=127
60060 On ch=3 n=24 v=0
60060 On ch=3 n=34 v=0
60060 On ch=3 n=72 v=0
60060 On ch=3 n=75 v=0
60060 On ch=3 n=84 v=0
60060 On ch=3 n=88 v=0
60060 On ch=3 n=96 v=0
60060 On ch=3 n=99 v=0
60060 On ch=3 n=64 v=0
60060 On ch=3 n=60 v=0
60160 On ch=3 n=27 v=127
60160 On ch=3 n=97 v=127
60220 On ch=3 n=27 v=0
60220 On ch=3 n=97 v=0
60320 On ch=3 n=25 v=127
60320 On ch=3 n=26 v=127
60320 On ch=3 n=85 v=127
60320 On ch=3 n=97 v=127
60380 On ch=3 n=26 v=0
60380 On ch=3 n=85 v=0
60380 On ch=3 n=97 v=0
60474 On ch=3 n=25 v=0
60480 On ch=3 n=24 v=127
60480 On ch=3 n=38 v=127
60480 On ch=3 n=72 v=127
60480 On ch=3 n=76 v=127
60480 On ch=3 n=84 v=127
60480 On ch=3 n=88 v=127
60480 On ch=3 n=96 v=127
60480 On ch=3 n=100 v=127
60480 On ch=3 n=120 v=127
60480 On ch=3 n=121 v=127
60480 On ch=3 n=122 v=127
60480 On ch=3 n=123 v=127
60480 On ch=3 n=124 v=127
60480 On ch=3 n=64 v=127
60480 On ch=3 n=60 v=127
60540 On ch=3 n=24 v=0
60540 On ch=3 n=38 v=0
60540 On ch=3 n=72 v=0
60540 On ch=3 n=76 v=0
60540 On ch=3 n=84 v=0
60540 On ch=3 n=88 v=0
60540 On ch=3 n=96 v=0
60540 On ch=3 n=100 v=0
60540 On ch=3 n=64 v=0
60540 On ch=3 n=60 v=0
60640 On ch=3 n=26 v=127
60640 On ch=3 n=97 v=127
60700 On ch=3 n=26 v=0
60700 On ch=3 n=97 v=0
60800 On ch=3 n=25 v=127
60800 On ch=3 n=27 v=127
60800 On ch=3 n=85 v=127
60800 On ch=3 n=97 v=127
60860 On ch=3 n=27 v=0
60860 On ch=3 n=85 v=0
60860 On ch=3 n=97 v=0
60954 On ch=3 n=25 v=0
60960 On ch=3 n=24 v=127
60960 On ch=3 n=34 v=127
60960 On ch=3 n=72 v=127
60960 On ch=3 n=75 v=127
60960 On ch=3 n=84 v=127
60960 On ch=3 n=88 v=127
60960 On ch=3 n=96 v=127
60960 On ch=3 n=99 v=127
60960 On ch=3 n=64 v=127
60960 On ch=3 n=60 v=127
61020 On ch=3 n=24 v=0
61020 On ch=3 n=34 v=0
61020 On ch=3 n=72 v=0
61020 On ch=3 n=75 v=0
61020 On ch=3 n=84 v=0
61020 On ch=3 n=88 v=0
61020 On ch=3 n=96 v=0
61020 On ch=3 n=99 v=0
61020 On ch=3 n=64 v=0
61020 On ch=3 n=60 v=0
61120 On ch=3 n=27 v=127
61120 On ch=3 n=97 v=127
61180 On ch=3 n=27 v=0
61180 On ch=3 n=97 v=0
61280 On ch=3 n=25 v=127
61280 On ch=3 n=26 v=127
61280 On ch=3 n=84 v=127
61280 On ch=3 n=97 v=127
61340 On ch=3 n=26 v=0
61340 On ch=3 n=84 v=0
61340 On ch=3 n=97 v=0
61434 On ch=3 n=25 v=0
61436 On ch=3 n=120 v=0
61436 On ch=3 n=121 v=0
61436 On ch=3 n=122 v=0
61436 On ch=3 n=123 v=0
61436 On ch=3 n=124 v=0
61440 On ch=3 n=24 v=127
61440 On ch=3 n=38 v=127
61440 On ch=3 n=64 v=127
61440 On ch=3 n=72 v=127
61440 On ch=3 n=76 v=127
61440 On ch=3 n=84 v=127
61440 On ch=3 n=88 v=127
61440 On ch=3 n=96 v=127
61440 On ch=3 n=100 v=127
61440 On ch=3 n=60 v=127
61500 On ch=3 n=24 v=0
61500 On ch=3 n=38 v=0
61500 On ch=3 n=64 v=0
61500 On ch=3 n=72 v=0
61500 On ch=3 n=76 v=0
61500 On ch=3 n=84 v=0
61500 On ch=3 n=88 v=0
61500 On ch=3 n=96 v=0
61500 On ch=3 n=100 v=0
61500 On ch=3 n=60 v=0
61560 On ch=3 n=105 v=0
61680 On ch=3 n=116 v=100
61760 On ch=3 n=26 v=127
61760 On ch=3 n=73 v=127
61760 On ch=3 n=85 v=127
61760 On ch=3 n=97 v=127
61820 On ch=3 n=26 v=0
61820 On ch=3 n=73 v=0
61820 On ch=3 n=85 v=0
61820 On ch=3 n=97 v=0
62080 On ch=3 n=47 v=127
62080 On ch=3 n=74 v=127
62080 On ch=3 n=86 v=127
62080 On ch=3 n=98 v=127
62080 On ch=3 n=62 v=100
62140 On ch=3 n=47 v=0
62140 On ch=3 n=74 v=0
62140 On ch=3 n=86 v=0
62140 On ch=3 n=98 v=0
62140 On ch=3 n=62 v=0
62160 On ch=3 n=110 v=127
62160 On ch=3 n=111 v=127
62400 On ch=3 n=48 v=127
62400 On ch=3 n=49 v=127
62400 On ch=3 n=75 v=127
62400 On ch=3 n=87 v=127
62400 On ch=3 n=99 v=127
62400 On ch=3 n=63 v=100
62460 On ch=3 n=48 v=0
62460 On ch=3 n=49 v=0
62460 On ch=3 n=75 v=0
62460 On ch=3 n=87 v=0
62460 On ch=3 n=99 v=0
62460 On ch=3 n=63 v=0
62880 On ch=3 n=24 v=127
62880 On ch=3 n=34 v=127
62880 On ch=3 n=64 v=127
62880 On ch=3 n=72 v=127
62880 On ch=3 n=76 v=127
62880 On ch=3 n=84 v=127
62880 On ch=3 n=88 v=127
62880 On ch=3 n=96 v=127
62880 On ch=3 n=100 v=127
62940 On ch=3 n=24 v=0
62940 On ch=3 n=34 v=0
62940 On ch=3 n=64 v=0
62940 On ch=3 n=72 v=0
62940 On ch=3 n=76 v=0
62940 On ch=3 n=84 v=0
62940 On ch=3 n=88 v=0
62940 On ch=3 n=96 v=0
62940 On ch=3 n=100 v=0
63000 On ch=3 n=116 v=0
63360 On ch=3 n=24 v=127
63360 On ch=3 n=47 v=127
63360 On ch=3 n=62 v=127
63360 On ch=3 n=72 v=127
63360 On ch=3 n=74 v=127
63360 On ch=3 n=84 v=127
63360 On ch=3 n=86 v=127
63360 On ch=3 n=96 v=127
63360 On ch=3 n=98 v=127
63420 On ch=3 n=24 v=0
63420 On ch=3 n=47 v=0
63420 On ch=3 n=62 v=0
63420 On ch=3 n=72 v=0
63420 On ch=3 n=74 v=0
63420 On ch=3 n=84 v=0
63420 On ch=3 n=86 v=0
63420 On ch=3 n=96 v=0
63420 On ch=3 n=98 v=0
63520 On ch=3 n=46 v=127
63520 On ch=3 n=86 v=127
63520 On ch=3 n=98 v=127
63580 On ch=3 n=46 v=0
63580 On ch=3 n=86 v=0
63580 On ch=3 n=98 v=0
63680 On ch=3 n=47 v=127
63680 On ch=3 n=86 v=127
63680 On ch=3 n=98 v=127
63680 On ch=3 n=75 v=100
63740 On ch=3 n=47 v=0
63740 On ch=3 n=86 v=0
63740 On ch=3 n=98 v=0
63740 On ch=3 n=75 v=0
63840 On ch=3 n=48 v=127
63840 On ch=3 n=75 v=127
63840 On ch=3 n=87 v=127
63840 On ch=3 n=99 v=127
63840 On ch=3 n=63 v=100
63900 On ch=3 n=48 v=0
63900 On ch=3 n=75 v=0
63900 On ch=3 n=87 v=0
63900 On ch=3 n=99 v=0
63900 On ch=3 n=63 v=0
64000 On ch=3 n=49 v=127
64000 On ch=3 n=87 v=127
64000 On ch=3 n=99 v=127
64060 On ch=3 n=49 v=0
64060 On ch=3 n=87 v=0
64060 On ch=3 n=99 v=0
64160 On ch=3 n=48 v=127
64160 On ch=3 n=87 v=127
64160 On ch=3 n=99 v=127
64160 On ch=3 n=76 v=100
64220 On ch=3 n=48 v=0
64220 On ch=3 n=87 v=0
64220 On ch=3 n=99 v=0
64220 On ch=3 n=76 v=0
64320 On ch=3 n=50 v=127
64320 On ch=3 n=51 v=127
64320 On ch=3 n=76 v=127
64320 On ch=3 n=88 v=127
64320 On ch=3 n=100 v=127
64320 On ch=3 n=112 v=127
64320 On ch=3 n=63 v=100
64380 On ch=3 n=50 v=0
64380 On ch=3 n=51 v=0
64380 On ch=3 n=76 v=0
64380 On ch=3 n=88 v=0
64380 On ch=3 n=100 v=0
64380 On ch=3 n=63 v=0
64558 On ch=3 n=112 v=0
64800 On ch=3 n=24 v=127
64800 On ch=3 n=38 v=127
64800 On ch=3 n=72 v=127
64800 On ch=3 n=76 v=127
64800 On ch=3 n=84 v=127
64800 On ch=3 n=88 v=127
64800 On ch=3 n=96 v=127
64800 On ch=3 n=100 v=127
64800 On ch=3 n=64 v=100
64860 On ch=3 n=24 v=0
64860 On ch=3 n=38 v=0
64860 On ch=3 n=72 v=0
64860 On ch=3 n=76 v=0
64860 On ch=3 n=84 v=0
64860 On ch=3 n=88 v=0
64860 On ch=3 n=96 v=0
64860 On ch=3 n=100 v=0
64860 On ch=3 n=64 v=0
65280 On ch=3 n=106 v=0
65280 On ch=3 n=24 v=127
65280 On ch=3 n=34 v=127
65280 On ch=3 n=72 v=127
65280 On ch=3 n=76 v=127
65280 On ch=3 n=84 v=127
65280 On ch=3 n=88 v=127
65280 On ch=3 n=96 v=127
65280 On ch=3 n=100 v=127
65280 On ch=3 n=64 v=127
65280 On ch=3 n=105 v=100
65280 On ch=3 n=124 v=127
65280 On ch=3 n=123 v=127
65280 On ch=3 n=122 v=127
65280 On ch=3 n=121 v=127
65280 On ch=3 n=120 v=127
65340 On ch=3 n=24 v=0
65340 On ch=3 n=34 v=0
65340 On ch=3 n=72 v=0
65340 On ch=3 n=76 v=0
65340 On ch=3 n=84 v=0
65340 On ch=3 n=88 v=0
65340 On ch=3 n=96 v=0
65340 On ch=3 n=100 v=0
65340 On ch=3 n=64 v=0
65600 On ch=3 n=26 v=127
65600 On ch=3 n=73 v=127
65600 On ch=3 n=85 v=127
65600 On ch=3 n=97 v=127
65660 On ch=3 n=26 v=0
65660 On ch=3 n=73 v=0
65660 On ch=3 n=85 v=0
65660 On ch=3 n=97 v=0
65920 On ch=3 n=47 v=127
65920 On ch=3 n=74 v=127
65920 On ch=3 n=86 v=127
65920 On ch=3 n=98 v=127
65920 On ch=3 n=62 v=100
65980 On ch=3 n=47 v=0
65980 On ch=3 n=74 v=0
65980 On ch=3 n=86 v=0
65980 On ch=3 n=98 v=0
65980 On ch=3 n=62 v=0
66240 On ch=3 n=48 v=127
66240 On ch=3 n=49 v=127
66240 On ch=3 n=75 v=127
66240 On ch=3 n=87 v=127
66240 On ch=3 n=99 v=127
66240 On ch=3 n=63 v=100
66300 On ch=3 n=48 v=0
66300 On ch=3 n=49 v=0
66300 On ch=3 n=75 v=0
66300 On ch=3 n=87 v=0
66300 On ch=3 n=99 v=0
66300 On ch=3 n=63 v=0
66716 On ch=3 n=124 v=0
66716 On ch=3 n=123 v=0
66716 On ch=3 n=122 v=0
66716 On ch=3 n=121 v=0
66716 On ch=3 n=120 v=0
66720 On ch=3 n=24 v=127
66720 On ch=3 n=38 v=127
66720 On ch=3 n=72 v=127
66720 On ch=3 n=76 v=127
66720 On ch=3 n=84 v=127
66720 On ch=3 n=88 v=127
66720 On ch=3 n=96 v=127
66720 On ch=3 n=100 v=127
66720 On ch=3 n=64 v=127
66780 On ch=3 n=24 v=0
66780 On ch=3 n=38 v=0
66780 On ch=3 n=72 v=0
66780 On ch=3 n=76 v=0
66780 On ch=3 n=84 v=0
66780 On ch=3 n=88 v=0
66780 On ch=3 n=96 v=0
66780 On ch=3 n=100 v=0
66780 On ch=3 n=64 v=0
67200 On ch=3 n=24 v=127
67200 On ch=3 n=47 v=127
67200 On ch=3 n=72 v=127
67200 On ch=3 n=74 v=127
67200 On ch=3 n=84 v=127
67200 On ch=3 n=86 v=127
67200 On ch=3 n=96 v=127
67200 On ch=3 n=98 v=127
67200 On ch=3 n=62 v=127
67260 On ch=3 n=24 v=0
67260 On ch=3 n=47 v=0
67260 On ch=3 n=72 v=0
67260 On ch=3 n=74 v=0
67260 On ch=3 n=84 v=0
67260 On ch=3 n=86 v=0
67260 On ch=3 n=96 v=0
67260 On ch=3 n=98 v=0
67260 On ch=3 n=62 v=0
67360 On ch=3 n=46 v=127
67360 On ch=3 n=86 v=127
67360 On ch=3 n=98 v=127
67420 On ch=3 n=46 v=0
67420 On ch=3 n=86 v=0
67420 On ch=3 n=98 v=0
67520 On ch=3 n=47 v=127
67520 On ch=3 n=86 v=127
67520 On ch=3 n=98 v=127
67520 On ch=3 n=75 v=100
67580 On ch=3 n=47 v=0
67580 On ch=3 n=86 v=0
67580 On ch=3 n=98 v=0
67580 On ch=3 n=75 v=0
67680 On ch=3 n=48 v=127
67680 On ch=3 n=75 v=127
67680 On ch=3 n=87 v=127
67680 On ch=3 n=99 v=127
67680 On ch=3 n=63 v=100
67740 On ch=3 n=48 v=0
67740 On ch=3 n=75 v=0
67740 On ch=3 n=87 v=0
67740 On ch=3 n=99 v=0
67740 On ch=3 n=63 v=0
67840 On ch=3 n=49 v=127
67840 On ch=3 n=87 v=127
67840 On ch=3 n=99 v=127
67900 On ch=3 n=49 v=0
67900 On ch=3 n=87 v=0
67900 On ch=3 n=99 v=0
68000 On ch=3 n=48 v=127
68000 On ch=3 n=87 v=127
68000 On ch=3 n=99 v=127
68000 On ch=3 n=76 v=100
68060 On ch=3 n=48 v=0
68060 On ch=3 n=87 v=0
68060 On ch=3 n=99 v=0
68060 On ch=3 n=76 v=0
68160 On ch=3 n=50 v=127
68160 On ch=3 n=51 v=127
68160 On ch=3 n=76 v=127
68160 On ch=3 n=88 v=127
68160 On ch=3 n=100 v=127
68160 On ch=3 n=112 v=127
68160 On ch=3 n=63 v=100
68220 On ch=3 n=50 v=0
68220 On ch=3 n=51 v=0
68220 On ch=3 n=76 v=0
68220 On ch=3 n=88 v=0
68220 On ch=3 n=100 v=0
68220 On ch=3 n=63 v=0
68398 On ch=3 n=110 v=0
68398 On ch=3 n=111 v=0
68398 On ch=3 n=112 v=0
68640 On ch=3 n=24 v=127
68640 On ch=3 n=34 v=127
68640 On ch=3 n=60 v=127
68640 On ch=3 n=64 v=127
68640 On ch=3 n=72 v=127
68640 On ch=3 n=76 v=127
68640 On ch=3 n=84 v=127
68640 On ch=3 n=88 v=127
68640 On ch=3 n=96 v=127
68640 On ch=3 n=99 v=127
68640 On ch=3 n=106 v=100
68700 On ch=3 n=24 v=0
68700 On ch=3 n=34 v=0
68700 On ch=3 n=60 v=0
68700 On ch=3 n=64 v=0
68700 On ch=3 n=72 v=0
68700 On ch=3 n=76 v=0
68700 On ch=3 n=84 v=0
68700 On ch=3 n=88 v=0
68700 On ch=3 n=96 v=0
68700 On ch=3 n=99 v=0
68800 On ch=3 n=27 v=127
68800 On ch=3 n=97 v=127
68860 On ch=3 n=27 v=0
68860 On ch=3 n=97 v=0
68960 On ch=3 n=25 v=127
68960 On ch=3 n=26 v=127
68960 On ch=3 n=85 v=127
68960 On ch=3 n=97 v=127
69020 On ch=3 n=26 v=0
69020 On ch=3 n=85 v=0
69020 On ch=3 n=97 v=0
69114 On ch=3 n=25 v=0
69120 On ch=3 n=24 v=127
69120 On ch=3 n=38 v=127
69120 On ch=3 n=60 v=127
69120 On ch=3 n=64 v=127
69120 On ch=3 n=72 v=127
69120 On ch=3 n=76 v=127
69120 On ch=3 n=84 v=127
69120 On ch=3 n=88 v=127
69120 On ch=3 n=96 v=127
69120 On ch=3 n=100 v=127
69180 On ch=3 n=24 v=0
69180 On ch=3 n=38 v=0
69180 On ch=3 n=60 v=0
69180 On ch=3 n=64 v=0
69180 On ch=3 n=72 v=0
69180 On ch=3 n=76 v=0
69180 On ch=3 n=84 v=0
69180 On ch=3 n=88 v=0
69180 On ch=3 n=96 v=0
69180 On ch=3 n=100 v=0
69280 On ch=3 n=26 v=127
69280 On ch=3 n=97 v=127
69340 On ch=3 n=26 v=0
69340 On ch=3 n=97 v=0
69440 On ch=3 n=25 v=127
69440 On ch=3 n=27 v=127
69440 On ch=3 n=85 v=127
69440 On ch=3 n=97 v=127
69500 On ch=3 n=27 v=0
69500 On ch=3 n=85 v=0
69500 On ch=3 n=97 v=0
69594 On ch=3 n=25 v=0
69600 On ch=3 n=24 v=127
69600 On ch=3 n=34 v=127
69600 On ch=3 n=72 v=127
69600 On ch=3 n=75 v=127
69600 On ch=3 n=84 v=127
69600 On ch=3 n=88 v=127
69600 On ch=3 n=96 v=127
69600 On ch=3 n=99 v=127
69600 On ch=3 n=60 v=127
69600 On ch=3 n=64 v=127
69660 On ch=3 n=24 v=0
69660 On ch=3 n=34 v=0
69660 On ch=3 n=72 v=0
69660 On ch=3 n=75 v=0
69660 On ch=3 n=84 v=0
69660 On ch=3 n=88 v=0
69660 On ch=3 n=96 v=0
69660 On ch=3 n=99 v=0
69660 On ch=3 n=60 v=0
69660 On ch=3 n=64 v=0
69760 On ch=3 n=27 v=127
69760 On ch=3 n=97 v=127
69820 On ch=3 n=27 v=0
69820 On ch=3 n=97 v=0
69920 On ch=3 n=25 v=127
69920 On ch=3 n=26 v=127
69920 On ch=3 n=85 v=127
69920 On ch=3 n=97 v=127
69980 On ch=3 n=26 v=0
69980 On ch=3 n=85 v=0
69980 On ch=3 n=97 v=0
70074 On ch=3 n=25 v=0
70080 On ch=3 n=24 v=127
70080 On ch=3 n=38 v=127
70080 On ch=3 n=72 v=127
70080 On ch=3 n=76 v=127
70080 On ch=3 n=84 v=127
70080 On ch=3 n=88 v=127
70080 On ch=3 n=96 v=127
70080 On ch=3 n=100 v=127
70080 On ch=3 n=60 v=127
70080 On ch=3 n=64 v=127
70140 On ch=3 n=24 v=0
70140 On ch=3 n=38 v=0
70140 On ch=3 n=72 v=0
70140 On ch=3 n=76 v=0
70140 On ch=3 n=84 v=0
70140 On ch=3 n=88 v=0
70140 On ch=3 n=96 v=0
70140 On ch=3 n=100 v=0
70140 On ch=3 n=60 v=0
70140 On ch=3 n=64 v=0
70240 On ch=3 n=26 v=127
70240 On ch=3 n=97 v=127
70300 On ch=3 n=26 v=0
70300 On ch=3 n=97 v=0
70400 On ch=3 n=25 v=127
70400 On ch=3 n=27 v=127
70400 On ch=3 n=85 v=127
70400 On ch=3 n=97 v=127
70460 On ch=3 n=27 v=0
70460 On ch=3 n=85 v=0
70460 On ch=3 n=97 v=0
70554 On ch=3 n=25 v=0
70560 On ch=3 n=24 v=127
70560 On ch=3 n=34 v=127
70560 On ch=3 n=72 v=127
70560 On ch=3 n=75 v=127
70560 On ch=3 n=84 v=127
70560 On ch=3 n=88 v=127
70560 On ch=3 n=96 v=127
70560 On ch=3 n=99 v=127
70560 On ch=3 n=60 v=127
70560 On ch=3 n=64 v=127
70620 On ch=3 n=24 v=0
70620 On ch=3 n=34 v=0
70620 On ch=3 n=72 v=0
70620 On ch=3 n=75 v=0
70620 On ch=3 n=84 v=0
70620 On ch=3 n=88 v=0
70620 On ch=3 n=96 v=0
70620 On ch=3 n=99 v=0
70620 On ch=3 n=60 v=0
70620 On ch=3 n=64 v=0
70720 On ch=3 n=27 v=127
70720 On ch=3 n=97 v=127
70780 On ch=3 n=27 v=0
70780 On ch=3 n=97 v=0
70880 On ch=3 n=25 v=127
70880 On ch=3 n=26 v=127
70880 On ch=3 n=85 v=127
70880 On ch=3 n=97 v=127
70940 On ch=3 n=26 v=0
70940 On ch=3 n=85 v=0
70940 On ch=3 n=97 v=0
71034 On ch=3 n=25 v=0
71040 On ch=3 n=24 v=127
71040 On ch=3 n=38 v=127
71040 On ch=3 n=72 v=127
71040 On ch=3 n=76 v=127
71040 On ch=3 n=84 v=127
71040 On ch=3 n=88 v=127
71040 On ch=3 n=96 v=127
71040 On ch=3 n=100 v=127
71040 On ch=3 n=60 v=127
71040 On ch=3 n=64 v=127
71100 On ch=3 n=24 v=0
71100 On ch=3 n=38 v=0
71100 On ch=3 n=72 v=0
71100 On ch=3 n=76 v=0
71100 On ch=3 n=84 v=0
71100 On ch=3 n=88 v=0
71100 On ch=3 n=96 v=0
71100 On ch=3 n=100 v=0
71100 On ch=3 n=60 v=0
71100 On ch=3 n=64 v=0
71200 On ch=3 n=26 v=127
71200 On ch=3 n=97 v=127
71260 On ch=3 n=26 v=0
71260 On ch=3 n=97 v=0
71360 On ch=3 n=25 v=127
71360 On ch=3 n=27 v=127
71360 On ch=3 n=85 v=127
71360 On ch=3 n=97 v=127
71420 On ch=3 n=27 v=0
71420 On ch=3 n=85 v=0
71420 On ch=3 n=97 v=0
71514 On ch=3 n=25 v=0
71520 On ch=3 n=24 v=127
71520 On ch=3 n=34 v=127
71520 On ch=3 n=72 v=127
71520 On ch=3 n=75 v=127
71520 On ch=3 n=84 v=127
71520 On ch=3 n=88 v=127
71520 On ch=3 n=96 v=127
71520 On ch=3 n=99 v=127
71520 On ch=3 n=60 v=127
71520 On ch=3 n=64 v=127
71580 On ch=3 n=24 v=0
71580 On ch=3 n=34 v=0
71580 On ch=3 n=72 v=0
71580 On ch=3 n=75 v=0
71580 On ch=3 n=84 v=0
71580 On ch=3 n=88 v=0
71580 On ch=3 n=96 v=0
71580 On ch=3 n=99 v=0
71580 On ch=3 n=60 v=0
71580 On ch=3 n=64 v=0
71680 On ch=3 n=27 v=127
71680 On ch=3 n=97 v=127
71740 On ch=3 n=27 v=0
71740 On ch=3 n=97 v=0
71840 On ch=3 n=25 v=127
71840 On ch=3 n=26 v=127
71840 On ch=3 n=85 v=127
71840 On ch=3 n=97 v=127
71900 On ch=3 n=26 v=0
71900 On ch=3 n=85 v=0
71900 On ch=3 n=97 v=0
71994 On ch=3 n=25 v=0
72000 On ch=3 n=24 v=127
72000 On ch=3 n=38 v=127
72000 On ch=3 n=72 v=127
72000 On ch=3 n=76 v=127
72000 On ch=3 n=84 v=127
72000 On ch=3 n=88 v=127
72000 On ch=3 n=96 v=127
72000 On ch=3 n=100 v=127
72000 On ch=3 n=60 v=127
72000 On ch=3 n=64 v=127
72060 On ch=3 n=24 v=0
72060 On ch=3 n=38 v=0
72060 On ch=3 n=72 v=0
72060 On ch=3 n=76 v=0
72060 On ch=3 n=84 v=0
72060 On ch=3 n=88 v=0
72060 On ch=3 n=96 v=0
72060 On ch=3 n=100 v=0
72060 On ch=3 n=60 v=0
72060 On ch=3 n=64 v=0
72160 On ch=3 n=26 v=127
72160 On ch=3 n=97 v=127
72220 On ch=3 n=26 v=0
72220 On ch=3 n=97 v=0
72320 On ch=3 n=25 v=127
72320 On ch=3 n=27 v=127
72320 On ch=3 n=85 v=127
72320 On ch=3 n=97 v=127
72380 On ch=3 n=27 v=0
72380 On ch=3 n=85 v=0
72380 On ch=3 n=97 v=0
72474 On ch=3 n=25 v=0
72480 On ch=3 n=24 v=127
72480 On ch=3 n=34 v=127
72480 On ch=3 n=72 v=127
72480 On ch=3 n=75 v=127
72480 On ch=3 n=84 v=127
72480 On ch=3 n=88 v=127
72480 On ch=3 n=96 v=127
72480 On ch=3 n=99 v=127
72480 On ch=3 n=60 v=127
72480 On ch=3 n=64 v=127
72540 On ch=3 n=24 v=0
72540 On ch=3 n=34 v=0
72540 On ch=3 n=72 v=0
72540 On ch=3 n=75 v=0
72540 On ch=3 n=84 v=0
72540 On ch=3 n=88 v=0
72540 On ch=3 n=96 v=0
72540 On ch=3 n=99 v=0
72540 On ch=3 n=60 v=0
72540 On ch=3 n=64 v=0
72640 On ch=3 n=27 v=127
72640 On ch=3 n=97 v=127
72700 On ch=3 n=27 v=0
72700 On ch=3 n=97 v=0
72800 On ch=3 n=25 v=127
72800 On ch=3 n=26 v=127
72800 On ch=3 n=85 v=127
72800 On ch=3 n=97 v=127
72860 On ch=3 n=26 v=0
72860 On ch=3 n=85 v=0
72860 On ch=3 n=97 v=0
72954 On ch=3 n=25 v=0
72960 On ch=3 n=24 v=127
72960 On ch=3 n=38 v=127
72960 On ch=3 n=72 v=127
72960 On ch=3 n=76 v=127
72960 On ch=3 n=84 v=127
72960 On ch=3 n=88 v=127
72960 On ch=3 n=96 v=127
72960 On ch=3 n=100 v=127
72960 On ch=3 n=60 v=127
72960 On ch=3 n=64 v=127
73020 On ch=3 n=24 v=0
73020 On ch=3 n=38 v=0
73020 On ch=3 n=72 v=0
73020 On ch=3 n=76 v=0
73020 On ch=3 n=84 v=0
73020 On ch=3 n=88 v=0
73020 On ch=3 n=96 v=0
73020 On ch=3 n=100 v=0
73020 On ch=3 n=60 v=0
73020 On ch=3 n=64 v=0
73120 On ch=3 n=26 v=127
73120 On ch=3 n=97 v=127
73180 On ch=3 n=26 v=0
73180 On ch=3 n=97 v=0
73280 On ch=3 n=25 v=127
73280 On ch=3 n=27 v=127
73280 On ch=3 n=85 v=127
73280 On ch=3 n=97 v=127
73340 On ch=3 n=27 v=0
73340 On ch=3 n=85 v=0
73340 On ch=3 n=97 v=0
73434 On ch=3 n=25 v=0
73440 On ch=3 n=24 v=127
73440 On ch=3 n=34 v=127
73440 On ch=3 n=72 v=127
73440 On ch=3 n=75 v=127
73440 On ch=3 n=84 v=127
73440 On ch=3 n=88 v=127
73440 On ch=3 n=96 v=127
73440 On ch=3 n=99 v=127
73440 On ch=3 n=60 v=127
73440 On ch=3 n=64 v=127
73500 On ch=3 n=24 v=0
73500 On ch=3 n=34 v=0
73500 On ch=3 n=72 v=0
73500 On ch=3 n=75 v=0
73500 On ch=3 n=84 v=0
73500 On ch=3 n=88 v=0
73500 On ch=3 n=96 v=0
73500 On ch=3 n=99 v=0
73500 On ch=3 n=60 v=0
73500 On ch=3 n=64 v=0
73600 On ch=3 n=27 v=127
73600 On ch=3 n=97 v=127
73660 On ch=3 n=27 v=0
73660 On ch=3 n=97 v=0
73760 On ch=3 n=25 v=127
73760 On ch=3 n=26 v=127
73760 On ch=3 n=85 v=127
73760 On ch=3 n=97 v=127
73820 On ch=3 n=26 v=0
73820 On ch=3 n=85 v=0
73820 On ch=3 n=97 v=0
73914 On ch=3 n=25 v=0
73920 On ch=3 n=24 v=127
73920 On ch=3 n=38 v=127
73920 On ch=3 n=72 v=127
73920 On ch=3 n=76 v=127
73920 On ch=3 n=84 v=127
73920 On ch=3 n=88 v=127
73920 On ch=3 n=96 v=127
73920 On ch=3 n=100 v=127
73920 On ch=3 n=60 v=127
73920 On ch=3 n=64 v=127
73980 On ch=3 n=24 v=0
73980 On ch=3 n=38 v=0
73980 On ch=3 n=72 v=0
73980 On ch=3 n=76 v=0
73980 On ch=3 n=84 v=0
73980 On ch=3 n=88 v=0
73980 On ch=3 n=96 v=0
73980 On ch=3 n=100 v=0
73980 On ch=3 n=60 v=0
73980 On ch=3 n=64 v=0
74080 On ch=3 n=26 v=127
74080 On ch=3 n=97 v=127
74140 On ch=3 n=26 v=0
74140 On ch=3 n=97 v=0
74240 On ch=3 n=25 v=127
74240 On ch=3 n=27 v=127
74240 On ch=3 n=85 v=127
74240 On ch=3 n=97 v=127
74300 On ch=3 n=27 v=0
74300 On ch=3 n=85 v=0
74300 On ch=3 n=97 v=0
74394 On ch=3 n=25 v=0
74400 On ch=3 n=24 v=127
74400 On ch=3 n=34 v=127
74400 On ch=3 n=72 v=127
74400 On ch=3 n=75 v=127
74400 On ch=3 n=84 v=127
74400 On ch=3 n=88 v=127
74400 On ch=3 n=96 v=127
74400 On ch=3 n=99 v=127
74400 On ch=3 n=60 v=127
74400 On ch=3 n=64 v=127
74460 On ch=3 n=24 v=0
74460 On ch=3 n=34 v=0
74460 On ch=3 n=72 v=0
74460 On ch=3 n=75 v=0
74460 On ch=3 n=84 v=0
74460 On ch=3 n=88 v=0
74460 On ch=3 n=96 v=0
74460 On ch=3 n=99 v=0
74460 On ch=3 n=60 v=0
74460 On ch=3 n=64 v=0
74560 On ch=3 n=27 v=127
74560 On ch=3 n=97 v=127
74620 On ch=3 n=27 v=0
74620 On ch=3 n=97 v=0
74720 On ch=3 n=25 v=127
74720 On ch=3 n=26 v=127
74720 On ch=3 n=85 v=127
74720 On ch=3 n=97 v=127
74780 On ch=3 n=26 v=0
74780 On ch=3 n=85 v=0
74780 On ch=3 n=97 v=0
74874 On ch=3 n=25 v=0
74880 On ch=3 n=24 v=127
74880 On ch=3 n=38 v=127
74880 On ch=3 n=72 v=127
74880 On ch=3 n=76 v=127
74880 On ch=3 n=84 v=127
74880 On ch=3 n=88 v=127
74880 On ch=3 n=96 v=127
74880 On ch=3 n=100 v=127
74880 On ch=3 n=120 v=127
74880 On ch=3 n=121 v=127
74880 On ch=3 n=122 v=127
74880 On ch=3 n=123 v=127
74880 On ch=3 n=124 v=127
74880 On ch=3 n=60 v=127
74880 On ch=3 n=64 v=127
74940 On ch=3 n=24 v=0
74940 On ch=3 n=38 v=0
74940 On ch=3 n=72 v=0
74940 On ch=3 n=76 v=0
74940 On ch=3 n=84 v=0
74940 On ch=3 n=88 v=0
74940 On ch=3 n=96 v=0
74940 On ch=3 n=100 v=0
74940 On ch=3 n=60 v=0
74940 On ch=3 n=64 v=0
75040 On ch=3 n=26 v=127
75040 On ch=3 n=97 v=127
75100 On ch=3 n=26 v=0
75100 On ch=3 n=97 v=0
75200 On ch=3 n=25 v=127
75200 On ch=3 n=27 v=127
75200 On ch=3 n=85 v=127
75200 On ch=3 n=97 v=127
75260 On ch=3 n=27 v=0
75260 On ch=3 n=85 v=0
75260 On ch=3 n=97 v=0
75354 On ch=3 n=25 v=0
75360 On ch=3 n=24 v=127
75360 On ch=3 n=34 v=127
75360 On ch=3 n=72 v=127
75360 On ch=3 n=75 v=127
75360 On ch=3 n=84 v=127
75360 On ch=3 n=88 v=127
75360 On ch=3 n=96 v=127
75360 On ch=3 n=99 v=127
75360 On ch=3 n=60 v=127
75360 On ch=3 n=64 v=127
75420 On ch=3 n=24 v=0
75420 On ch=3 n=34 v=0
75420 On ch=3 n=72 v=0
75420 On ch=3 n=75 v=0
75420 On ch=3 n=84 v=0
75420 On ch=3 n=88 v=0
75420 On ch=3 n=96 v=0
75420 On ch=3 n=99 v=0
75420 On ch=3 n=60 v=0
75420 On ch=3 n=64 v=0
75520 On ch=3 n=27 v=127
75520 On ch=3 n=97 v=127
75580 On ch=3 n=27 v=0
75580 On ch=3 n=97 v=0
75680 On ch=3 n=25 v=127
75680 On ch=3 n=26 v=127
75680 On ch=3 n=85 v=127
75680 On ch=3 n=97 v=127
75740 On ch=3 n=26 v=0
75740 On ch=3 n=85 v=0
75740 On ch=3 n=97 v=0
75834 On ch=3 n=25 v=0
75840 On ch=3 n=24 v=127
75840 On ch=3 n=38 v=127
75840 On ch=3 n=72 v=127
75840 On ch=3 n=76 v=127
75840 On ch=3 n=84 v=127
75840 On ch=3 n=88 v=127
75840 On ch=3 n=96 v=127
75840 On ch=3 n=100 v=127
75840 On ch=3 n=60 v=127
75840 On ch=3 n=64 v=127
75900 On ch=3 n=24 v=0
75900 On ch=3 n=38 v=0
75900 On ch=3 n=72 v=0
75900 On ch=3 n=76 v=0
75900 On ch=3 n=84 v=0
75900 On ch=3 n=88 v=0
75900 On ch=3 n=96 v=0
75900 On ch=3 n=100 v=0
75900 On ch=3 n=60 v=0
75900 On ch=3 n=64 v=0
76000 On ch=3 n=26 v=127
76000 On ch=3 n=97 v=127
76060 On ch=3 n=26 v=0
76060 On ch=3 n=97 v=0
76160 On ch=3 n=25 v=127
76160 On ch=3 n=27 v=127
76160 On ch=3 n=85 v=127
76160 On ch=3 n=97 v=127
76220 On ch=3 n=27 v=0
76220 On ch=3 n=85 v=0
76220 On ch=3 n=97 v=0
76314 On ch=3 n=25 v=0
76320 On ch=3 n=24 v=127
76320 On ch=3 n=34 v=127
76320 On ch=3 n=72 v=127
76320 On ch=3 n=75 v=127
76320 On ch=3 n=84 v=127
76320 On ch=3 n=88 v=127
76320 On ch=3 n=96 v=127
76320 On ch=3 n=99 v=127
76320 On ch=3 n=60 v=127
76320 On ch=3 n=64 v=127
76380 On ch=3 n=24 v=0
76380 On ch=3 n=34 v=0
76380 On ch=3 n=72 v=0
76380 On ch=3 n=75 v=0
76380 On ch=3 n=84 v=0
76380 On ch=3 n=88 v=0
76380 On ch=3 n=96 v=0
76380 On ch=3 n=99 v=0
76380 On ch=3 n=60 v=0
76380 On ch=3 n=64 v=0
76480 On ch=3 n=27 v=127
76480 On ch=3 n=97 v=127
76540 On ch=3 n=27 v=0
76540 On ch=3 n=97 v=0
76640 On ch=3 n=25 v=127
76640 On ch=3 n=26 v=127
76640 On ch=3 n=85 v=127
76640 On ch=3 n=97 v=127
76700 On ch=3 n=26 v=0
76700 On ch=3 n=85 v=0
76700 On ch=3 n=97 v=0
76794 On ch=3 n=25 v=0
76796 On ch=3 n=120 v=0
76796 On ch=3 n=121 v=0
76796 On ch=3 n=122 v=0
76796 On ch=3 n=123 v=0
76796 On ch=3 n=124 v=0
76800 On ch=3 n=24 v=127
76800 On ch=3 n=38 v=127
76800 On ch=3 n=60 v=127
76800 On ch=3 n=64 v=127
76800 On ch=3 n=72 v=127
76800 On ch=3 n=76 v=127
76800 On ch=3 n=84 v=127
76800 On ch=3 n=88 v=127
76800 On ch=3 n=96 v=127
76800 On ch=3 n=100 v=127
76800 On ch=3 n=116 v=100
76800 Meta Text "[play]"
76860 On ch=3 n=24 v=0
76860 On ch=3 n=38 v=0
76860 On ch=3 n=60 v=0
76860 On ch=3 n=64 v=0
76860 On ch=3 n=72 v=0
76860 On ch=3 n=76 v=0
76860 On ch=3 n=84 v=0
76860 On ch=3 n=88 v=0
76860 On ch=3 n=96 v=0
76860 On ch=3 n=100 v=0
76920 On ch=3 n=116 v=0
77120 On ch=3 n=105 v=0
77120 On ch=3 n=106 v=0
80640 On ch=3 n=37 v=127
80640 On ch=3 n=63 v=127
80640 On ch=3 n=75 v=127
80640 On ch=3 n=87 v=127
80640 On ch=3 n=99 v=127
80640 On ch=3 n=106 v=127
80700 On ch=3 n=37 v=0
80700 On ch=3 n=63 v=0
80700 On ch=3 n=75 v=0
80700 On ch=3 n=87 v=0
80700 On ch=3 n=99 v=0
80800 On ch=3 n=35 v=127
80800 On ch=3 n=99 v=127
80860 On ch=3 n=35 v=0
80860 On ch=3 n=99 v=0
80960 On ch=3 n=35 v=127
80960 On ch=3 n=87 v=127
80960 On ch=3 n=99 v=127
81020 On ch=3 n=35 v=0
81020 On ch=3 n=87 v=0
81020 On ch=3 n=99 v=0
81120 On ch=3 n=37 v=127
81120 On ch=3 n=63 v=127
81120 On ch=3 n=75 v=127
81120 On ch=3 n=87 v=127
81120 On ch=3 n=99 v=127
81180 On ch=3 n=37 v=0
81180 On ch=3 n=63 v=0
81180 On ch=3 n=75 v=0
81180 On ch=3 n=87 v=0
81180 On ch=3 n=99 v=0
81280 On ch=3 n=35 v=127
81280 On ch=3 n=99 v=127
81340 On ch=3 n=35 v=0
81340 On ch=3 n=99 v=0
81440 On ch=3 n=35 v=127
81440 On ch=3 n=87 v=127
81440 On ch=3 n=99 v=127
81500 On ch=3 n=35 v=0
81500 On ch=3 n=87 v=0
81500 On ch=3 n=99 v=0
81600 On ch=3 n=37 v=127
81600 On ch=3 n=63 v=127
81600 On ch=3 n=75 v=127
81600 On ch=3 n=87 v=127
81600 On ch=3 n=99 v=127
81660 On ch=3 n=37 v=0
81660 On ch=3 n=63 v=0
81660 On ch=3 n=75 v=0
81660 On ch=3 n=87 v=0
81660 On ch=3 n=99 v=0
81760 On ch=3 n=35 v=127
81760 On ch=3 n=99 v=127
81820 On ch=3 n=35 v=0
81820 On ch=3 n=99 v=0
81920 On ch=3 n=35 v=127
81920 On ch=3 n=87 v=127
81920 On ch=3 n=99 v=127
81980 On ch=3 n=35 v=0
81980 On ch=3 n=87 v=0
81980 On ch=3 n=99 v=0
82080 On ch=3 n=37 v=127
82080 On ch=3 n=63 v=127
82080 On ch=3 n=75 v=127
82080 On ch=3 n=87 v=127
82080 On ch=3 n=99 v=127
82140 On ch=3 n=37 v=0
82140 On ch=3 n=63 v=0
82140 On ch=3 n=75 v=0
82140 On ch=3 n=87 v=0
82140 On ch=3 n=99 v=0
82240 On ch=3 n=35 v=127
82240 On ch=3 n=99 v=127
82300 On ch=3 n=35 v=0
82300 On ch=3 n=99 v=0
82400 On ch=3 n=35 v=127
82400 On ch=3 n=87 v=127
82400 On ch=3 n=99 v=127
82460 On ch=3 n=35 v=0
82460 On ch=3 n=87 v=0
82460 On ch=3 n=99 v=0
82556 On ch=3 n=106 v=0
82560 On ch=3 n=37 v=127
82560 On ch=3 n=63 v=127
82560 On ch=3 n=75 v=127
82560 On ch=3 n=87 v=127
82560 On ch=3 n=99 v=127
82560 On ch=3 n=105 v=127
82620 On ch=3 n=37 v=0
82620 On ch=3 n=63 v=0
82620 On ch=3 n=75 v=0
82620 On ch=3 n=87 v=0
82620 On ch=3 n=99 v=0
82720 On ch=3 n=35 v=127
82720 On ch=3 n=99 v=127
82780 On ch=3 n=35 v=0
82780 On ch=3 n=99 v=0
82880 On ch=3 n=35 v=127
82880 On ch=3 n=87 v=127
82880 On ch=3 n=99 v=127
82940 On ch=3 n=35 v=0
82940 On ch=3 n=87 v=0
82940 On ch=3 n=99 v=0
83040 On ch=3 n=37 v=127
83040 On ch=3 n=63 v=127
83040 On ch=3 n=75 v=127
83040 On ch=3 n=87 v=127
83040 On ch=3 n=99 v=127
83100 On ch=3 n=37 v=0
83100 On ch=3 n=63 v=0
83100 On ch=3 n=75 v=0
83100 On ch=3 n=87 v=0
83100 On ch=3 n=99 v=0
83200 On ch=3 n=35 v=127
83200 On ch=3 n=99 v=127
83260 On ch=3 n=35 v=0
83260 On ch=3 n=99 v=0
83360 On ch=3 n=35 v=127
83360 On ch=3 n=87 v=127
83360 On ch=3 n=99 v=127
83420 On ch=3 n=35 v=0
83420 On ch=3 n=87 v=0
83420 On ch=3 n=99 v=0
83520 On ch=3 n=37 v=127
83520 On ch=3 n=63 v=127
83520 On ch=3 n=75 v=127
83520 On ch=3 n=87 v=127
83520 On ch=3 n=99 v=127
83580 On ch=3 n=37 v=0
83580 On ch=3 n=63 v=0
83580 On ch=3 n=75 v=0
83580 On ch=3 n=87 v=0
83580 On ch=3 n=99 v=0
83680 On ch=3 n=35 v=127
83680 On ch=3 n=99 v=127
83740 On ch=3 n=35 v=0
83740 On ch=3 n=99 v=0
83840 On ch=3 n=35 v=127
83840 On ch=3 n=87 v=127
83840 On ch=3 n=99 v=127
83900 On ch=3 n=35 v=0
83900 On ch=3 n=87 v=0
83900 On ch=3 n=99 v=0
84000 On ch=3 n=37 v=127
84000 On ch=3 n=63 v=127
84000 On ch=3 n=75 v=127
84000 On ch=3 n=87 v=127
84000 On ch=3 n=99 v=127
84060 On ch=3 n=37 v=0
84060 On ch=3 n=63 v=0
84060 On ch=3 n=75 v=0
84060 On ch=3 n=87 v=0
84060 On ch=3 n=99 v=0
84160 On ch=3 n=35 v=127
84160 On ch=3 n=99 v=127
84220 On ch=3 n=35 v=0
84220 On ch=3 n=99 v=0
84320 On ch=3 n=25 v=127
84320 On ch=3 n=35 v=127
84320 On ch=3 n=87 v=127
84320 On ch=3 n=99 v=127
84380 On ch=3 n=35 v=0
84380 On ch=3 n=87 v=0
84380 On ch=3 n=99 v=0
84474 On ch=3 n=25 v=0
84476 On ch=3 n=105 v=0
84480 On ch=3 n=24 v=127
84480 On ch=3 n=37 v=127
84480 On ch=3 n=60 v=127
84480 On ch=3 n=63 v=127
84480 On ch=3 n=72 v=127
84480 On ch=3 n=75 v=127
84480 On ch=3 n=84 v=127
84480 On ch=3 n=87 v=127
84480 On ch=3 n=96 v=127
84480 On ch=3 n=99 v=127
84480 On ch=3 n=106 v=127
84480 On ch=3 n=116 v=100
84540 On ch=3 n=24 v=0
84540 On ch=3 n=37 v=0
84540 On ch=3 n=60 v=0
84540 On ch=3 n=63 v=0
84540 On ch=3 n=72 v=0
84540 On ch=3 n=75 v=0
84540 On ch=3 n=84 v=0
84540 On ch=3 n=87 v=0
84540 On ch=3 n=96 v=0
84540 On ch=3 n=99 v=0
84640 On ch=3 n=35 v=127
84640 On ch=3 n=99 v=127
84700 On ch=3 n=35 v=0
84700 On ch=3 n=99 v=0
84800 On ch=3 n=25 v=127
84800 On ch=3 n=35 v=127
84800 On ch=3 n=87 v=127
84800 On ch=3 n=99 v=127
84860 On ch=3 n=35 v=0
84860 On ch=3 n=87 v=0
84860 On ch=3 n=99 v=0
84954 On ch=3 n=25 v=0
84960 On ch=3 n=24 v=127
84960 On ch=3 n=37 v=127
84960 On ch=3 n=63 v=127
84960 On ch=3 n=72 v=127
84960 On ch=3 n=75 v=127
84960 On ch=3 n=84 v=127
84960 On ch=3 n=87 v=127
84960 On ch=3 n=96 v=127
84960 On ch=3 n=99 v=127
84960 On ch=3 n=60 v=127
85020 On ch=3 n=24 v=0
85020 On ch=3 n=37 v=0
85020 On ch=3 n=63 v=0
85020 On ch=3 n=72 v=0
85020 On ch=3 n=75 v=0
85020 On ch=3 n=84 v=0
85020 On ch=3 n=87 v=0
85020 On ch=3 n=96 v=0
85020 On ch=3 n=99 v=0
85020 On ch=3 n=60 v=0
85120 On ch=3 n=35 v=127
85120 On ch=3 n=99 v=127
85180 On ch=3 n=35 v=0
85180 On ch=3 n=99 v=0
85280 On ch=3 n=25 v=127
85280 On ch=3 n=35 v=127
85280 On ch=3 n=87 v=127
85280 On ch=3 n=99 v=127
85340 On ch=3 n=35 v=0
85340 On ch=3 n=87 v=0
85340 On ch=3 n=99 v=0
85434 On ch=3 n=25 v=0
85440 On ch=3 n=24 v=127
85440 On ch=3 n=37 v=127
85440 On ch=3 n=63 v=127
85440 On ch=3 n=72 v=127
85440 On ch=3 n=75 v=127
85440 On ch=3 n=84 v=127
85440 On ch=3 n=87 v=127
85440 On ch=3 n=96 v=127
85440 On ch=3 n=99 v=127
85440 On ch=3 n=60 v=127
85500 On ch=3 n=24 v=0
85500 On ch=3 n=37 v=0
85500 On ch=3 n=63 v=0
85500 On ch=3 n=72 v=0
85500 On ch=3 n=75 v=0
85500 On ch=3 n=84 v=0
85500 On ch=3 n=87 v=0
85500 On ch=3 n=96 v=0
85500 On ch=3 n=99 v=0
85500 On ch=3 n=60 v=0
85600 On ch=3 n=35 v=127
85600 On ch=3 n=99 v=127
85660 On ch=3 n=35 v=0
85660 On ch=3 n=99 v=0
85760 On ch=3 n=25 v=127
85760 On ch=3 n=35 v=127
85760 On ch=3 n=87 v=127
85760 On ch=3 n=99 v=127
85820 On ch=3 n=35 v=0
85820 On ch=3 n=87 v=0
85820 On ch=3 n=99 v=0
85914 On ch=3 n=25 v=0
85920 On ch=3 n=24 v=127
85920 On ch=3 n=37 v=127
85920 On ch=3 n=63 v=127
85920 On ch=3 n=72 v=127
85920 On ch=3 n=75 v=127
85920 On ch=3 n=84 v=127
85920 On ch=3 n=87 v=127
85920 On ch=3 n=96 v=127
85920 On ch=3 n=99 v=127
85920 On ch=3 n=60 v=127
85980 On ch=3 n=24 v=0
85980 On ch=3 n=37 v=0
85980 On ch=3 n=63 v=0
85980 On ch=3 n=72 v=0
85980 On ch=3 n=75 v=0
85980 On ch=3 n=84 v=0
85980 On ch=3 n=87 v=0
85980 On ch=3 n=96 v=0
85980 On ch=3 n=99 v=0
85980 On ch=3 n=60 v=0
86080 On ch=3 n=35 v=127
86080 On ch=3 n=99 v=127
86140 On ch=3 n=35 v=0
86140 On ch=3 n=99 v=0
86240 On ch=3 n=25 v=127
86240 On ch=3 n=35 v=127
86240 On ch=3 n=87 v=127
86240 On ch=3 n=99 v=127
86300 On ch=3 n=35 v=0
86300 On ch=3 n=87 v=0
86300 On ch=3 n=99 v=0
86394 On ch=3 n=25 v=0
86396 On ch=3 n=106 v=0
86400 On ch=3 n=116 v=0
86400 On ch=3 n=24 v=127
86400 On ch=3 n=37 v=127
86400 On ch=3 n=63 v=127
86400 On ch=3 n=72 v=127
86400 On ch=3 n=75 v=127
86400 On ch=3 n=84 v=127
86400 On ch=3 n=87 v=127
86400 On ch=3 n=96 v=127
86400 On ch=3 n=99 v=127
86400 On ch=3 n=105 v=127
86400 On ch=3 n=60 v=127
86460 On ch=3 n=24 v=0
86460 On ch=3 n=37 v=0
86460 On ch=3 n=63 v=0
86460 On ch=3 n=72 v=0
86460 On ch=3 n=75 v=0
86460 On ch=3 n=84 v=0
86460 On ch=3 n=87 v=0
86460 On ch=3 n=96 v=0
86460 On ch=3 n=99 v=0
86460 On ch=3 n=60 v=0
86560 On ch=3 n=35 v=127
86560 On ch=3 n=99 v=127
86620 On ch=3 n=35 v=0
86620 On ch=3 n=99 v=0
86720 On ch=3 n=25 v=127
86720 On ch=3 n=35 v=127
86720 On ch=3 n=87 v=127
86720 On ch=3 n=99 v=127
86780 On ch=3 n=35 v=0
86780 On ch=3 n=87 v=0
86780 On ch=3 n=99 v=0
86874 On ch=3 n=25 v=0
86880 On ch=3 n=24 v=127
86880 On ch=3 n=37 v=127
86880 On ch=3 n=63 v=127
86880 On ch=3 n=72 v=127
86880 On ch=3 n=75 v=127
86880 On ch=3 n=84 v=127
86880 On ch=3 n=87 v=127
86880 On ch=3 n=96 v=127
86880 On ch=3 n=99 v=127
86880 On ch=3 n=60 v=127
86940 On ch=3 n=24 v=0
86940 On ch=3 n=37 v=0
86940 On ch=3 n=63 v=0
86940 On ch=3 n=72 v=0
86940 On ch=3 n=75 v=0
86940 On ch=3 n=84 v=0
86940 On ch=3 n=87 v=0
86940 On ch=3 n=96 v=0
86940 On ch=3 n=99 v=0
86940 On ch=3 n=60 v=0
87040 On ch=3 n=35 v=127
87040 On ch=3 n=99 v=127
87100 On ch=3 n=35 v=0
87100 On ch=3 n=99 v=0
87200 On ch=3 n=25 v=127
87200 On ch=3 n=35 v=127
87200 On ch=3 n=87 v=127
87200 On ch=3 n=99 v=127
87260 On ch=3 n=35 v=0
87260 On ch=3 n=87 v=0
87260 On ch=3 n=99 v=0
87354 On ch=3 n=25 v=0
87360 On ch=3 n=24 v=127
87360 On ch=3 n=37 v=127
87360 On ch=3 n=63 v=127
87360 On ch=3 n=72 v=127
87360 On ch=3 n=75 v=127
87360 On ch=3 n=84 v=127
87360 On ch=3 n=87 v=127
87360 On ch=3 n=96 v=127
87360 On ch=3 n=99 v=127
87360 On ch=3 n=60 v=127
87420 On ch=3 n=24 v=0
87420 On ch=3 n=37 v=0
87420 On ch=3 n=63 v=0
87420 On ch=3 n=72 v=0
87420 On ch=3 n=75 v=0
87420 On ch=3 n=84 v=0
87420 On ch=3 n=87 v=0
87420 On ch=3 n=96 v=0
87420 On ch=3 n=99 v=0
87420 On ch=3 n=60 v=0
87520 On ch=3 n=35 v=127
87520 On ch=3 n=99 v=127
87580 On ch=3 n=35 v=0
87580 On ch=3 n=99 v=0
87680 On ch=3 n=25 v=127
87680 On ch=3 n=35 v=127
87680 On ch=3 n=87 v=127
87680 On ch=3 n=99 v=127
87740 On ch=3 n=35 v=0
87740 On ch=3 n=87 v=0
87740 On ch=3 n=99 v=0
87834 On ch=3 n=25 v=0
87840 On ch=3 n=24 v=127
87840 On ch=3 n=37 v=127
87840 On ch=3 n=63 v=127
87840 On ch=3 n=72 v=127
87840 On ch=3 n=75 v=127
87840 On ch=3 n=84 v=127
87840 On ch=3 n=87 v=127
87840 On ch=3 n=96 v=127
87840 On ch=3 n=99 v=127
87840 On ch=3 n=60 v=127
87900 On ch=3 n=24 v=0
87900 On ch=3 n=37 v=0
87900 On ch=3 n=63 v=0
87900 On ch=3 n=72 v=0
87900 On ch=3 n=75 v=0
87900 On ch=3 n=84 v=0
87900 On ch=3 n=87 v=0
87900 On ch=3 n=96 v=0
87900 On ch=3 n=99 v=0
87900 On ch=3 n=60 v=0
88000 On ch=3 n=35 v=127
88000 On ch=3 n=99 v=127
88060 On ch=3 n=35 v=0
88060 On ch=3 n=99 v=0
88160 On ch=3 n=25 v=127
88160 On ch=3 n=35 v=127
88160 On ch=3 n=87 v=127
88160 On ch=3 n=99 v=127
88220 On ch=3 n=35 v=0
88220 On ch=3 n=87 v=0
88220 On ch=3 n=99 v=0
88314 On ch=3 n=25 v=0
88316 On ch=3 n=105 v=0
88320 On ch=3 n=24 v=127
88320 On ch=3 n=37 v=127
88320 On ch=3 n=63 v=127
88320 On ch=3 n=72 v=127
88320 On ch=3 n=75 v=127
88320 On ch=3 n=84 v=127
88320 On ch=3 n=87 v=127
88320 On ch=3 n=96 v=127
88320 On ch=3 n=99 v=127
88320 On ch=3 n=106 v=127
88320 On ch=3 n=60 v=127
88380 On ch=3 n=24 v=0
88380 On ch=3 n=37 v=0
88380 On ch=3 n=63 v=0
88380 On ch=3 n=72 v=0
88380 On ch=3 n=75 v=0
88380 On ch=3 n=84 v=0
88380 On ch=3 n=87 v=0
88380 On ch=3 n=96 v=0
88380 On ch=3 n=99 v=0
88380 On ch=3 n=60 v=0
88480 On ch=3 n=35 v=127
88480 On ch=3 n=99 v=127
88540 On ch=3 n=35 v=0
88540 On ch=3 n=99 v=0
88640 On ch=3 n=25 v=127
88640 On ch=3 n=35 v=127
88640 On ch=3 n=87 v=127
88640 On ch=3 n=99 v=127
88700 On ch=3 n=35 v=0
88700 On ch=3 n=87 v=0
88700 On ch=3 n=99 v=0
88794 On ch=3 n=25 v=0
88800 On ch=3 n=24 v=127
88800 On ch=3 n=37 v=127
88800 On ch=3 n=63 v=127
88800 On ch=3 n=72 v=127
88800 On ch=3 n=75 v=127
88800 On ch=3 n=84 v=127
88800 On ch=3 n=87 v=127
88800 On ch=3 n=96 v=127
88800 On ch=3 n=99 v=127
88800 On ch=3 n=60 v=127
88860 On ch=3 n=24 v=0
88860 On ch=3 n=37 v=0
88860 On ch=3 n=63 v=0
88860 On ch=3 n=72 v=0
88860 On ch=3 n=75 v=0
88860 On ch=3 n=84 v=0
88860 On ch=3 n=87 v=0
88860 On ch=3 n=96 v=0
88860 On ch=3 n=99 v=0
88860 On ch=3 n=60 v=0
88960 On ch=3 n=35 v=127
88960 On ch=3 n=99 v=127
89020 On ch=3 n=35 v=0
89020 On ch=3 n=99 v=0
89120 On ch=3 n=25 v=127
89120 On ch=3 n=35 v=127
89120 On ch=3 n=87 v=127
89120 On ch=3 n=99 v=127
89180 On ch=3 n=35 v=0
89180 On ch=3 n=87 v=0
89180 On ch=3 n=99 v=0
89274 On ch=3 n=25 v=0
89280 On ch=3 n=24 v=127
89280 On ch=3 n=37 v=127
89280 On ch=3 n=63 v=127
89280 On ch=3 n=72 v=127
89280 On ch=3 n=75 v=127
89280 On ch=3 n=84 v=127
89280 On ch=3 n=87 v=127
89280 On ch=3 n=96 v=127
89280 On ch=3 n=99 v=127
89280 On ch=3 n=60 v=127
89340 On ch=3 n=24 v=0
89340 On ch=3 n=37 v=0
89340 On ch=3 n=63 v=0
89340 On ch=3 n=72 v=0
89340 On ch=3 n=75 v=0
89340 On ch=3 n=84 v=0
89340 On ch=3 n=87 v=0
89340 On ch=3 n=96 v=0
89340 On ch=3 n=99 v=0
89340 On ch=3 n=60 v=0
89440 On ch=3 n=35 v=127
89440 On ch=3 n=99 v=127
89500 On ch=3 n=35 v=0
89500 On ch=3 n=99 v=0
89600 On ch=3 n=25 v=127
89600 On ch=3 n=35 v=127
89600 On ch=3 n=87 v=127
89600 On ch=3 n=99 v=127
89660 On ch=3 n=35 v=0
89660 On ch=3 n=87 v=0
89660 On ch=3 n=99 v=0
89754 On ch=3 n=25 v=0
89760 On ch=3 n=24 v=127
89760 On ch=3 n=37 v=127
89760 On ch=3 n=63 v=127
89760 On ch=3 n=72 v=127
89760 On ch=3 n=75 v=127
89760 On ch=3 n=84 v=127
89760 On ch=3 n=87 v=127
89760 On ch=3 n=96 v=127
89760 On ch=3 n=99 v=127
89760 On ch=3 n=60 v=127
89820 On ch=3 n=24 v=0
89820 On ch=3 n=37 v=0
89820 On ch=3 n=63 v=0
89820 On ch=3 n=72 v=0
89820 On ch=3 n=75 v=0
89820 On ch=3 n=84 v=0
89820 On ch=3 n=87 v=0
89820 On ch=3 n=96 v=0
89820 On ch=3 n=99 v=0
89820 On ch=3 n=60 v=0
89920 On ch=3 n=35 v=127
89920 On ch=3 n=99 v=127
89980 On ch=3 n=35 v=0
89980 On ch=3 n=99 v=0
90080 On ch=3 n=25 v=127
90080 On ch=3 n=35 v=127
90080 On ch=3 n=99 v=127
90140 On ch=3 n=35 v=0
90140 On ch=3 n=99 v=0
90234 On ch=3 n=25 v=0
90236 On ch=3 n=106 v=0
90240 On ch=3 n=124 v=127
90240 On ch=3 n=123 v=127
90240 On ch=3 n=122 v=127
90240 On ch=3 n=121 v=127
90240 On ch=3 n=120 v=127
90240 On ch=3 n=112 v=127
90240 On ch=3 n=111 v=127
90240 On ch=3 n=110 v=127
90240 On ch=3 n=106 v=127
90240 On ch=3 n=105 v=127
90240 On ch=3 n=100 v=127
90240 On ch=3 n=96 v=127
90240 On ch=3 n=88 v=127
90240 On ch=3 n=84 v=127
90240 On ch=3 n=76 v=127
90240 On ch=3 n=72 v=127
90240 On ch=3 n=64 v=127
90240 On ch=3 n=60 v=127
90240 On ch=3 n=51 v=127
90240 On ch=3 n=24 v=127
90300 On ch=3 n=100 v=0
90300 On ch=3 n=96 v=0
90300 On ch=3 n=88 v=0
90300 On ch=3 n=84 v=0
90300 On ch=3 n=76 v=0
90300 On ch=3 n=72 v=0
90300 On ch=3 n=64 v=0
90300 On ch=3 n=60 v=0
90300 On ch=3 n=51 v=0
90300 On ch=3 n=24 v=0
90400 On ch=3 n=50 v=127
90400 On ch=3 n=88 v=127
90400 On ch=3 n=100 v=127
90460 On ch=3 n=50 v=0
90460 On ch=3 n=88 v=0
90460 On ch=3 n=100 v=0
90560 On ch=3 n=25 v=127
90560 On ch=3 n=51 v=127
90560 On ch=3 n=88 v=127
90560 On ch=3 n=100 v=127
90560 On ch=3 n=76 v=100
90620 On ch=3 n=51 v=0
90620 On ch=3 n=88 v=0
90620 On ch=3 n=100 v=0
90620 On ch=3 n=76 v=0
90714 On ch=3 n=25 v=0
90720 On ch=3 n=24 v=127
90720 On ch=3 n=48 v=127
90720 On ch=3 n=63 v=127
90720 On ch=3 n=75 v=127
90720 On ch=3 n=87 v=127
90720 On ch=3 n=96 v=127
90720 On ch=3 n=99 v=127
90780 On ch=3 n=24 v=0
90780 On ch=3 n=48 v=0
90780 On ch=3 n=63 v=0
90780 On ch=3 n=75 v=0
90780 On ch=3 n=87 v=0
90780 On ch=3 n=96 v=0
90780 On ch=3 n=99 v=0
90880 On ch=3 n=49 v=127
90880 On ch=3 n=87 v=127
90880 On ch=3 n=99 v=127
90940 On ch=3 n=49 v=0
90940 On ch=3 n=87 v=0
90940 On ch=3 n=99 v=0
91040 On ch=3 n=25 v=127
91040 On ch=3 n=48 v=127
91040 On ch=3 n=87 v=127
91040 On ch=3 n=99 v=127
91040 On ch=3 n=74 v=100
91100 On ch=3 n=48 v=0
91100 On ch=3 n=87 v=0
91100 On ch=3 n=99 v=0
91100 On ch=3 n=74 v=0
91194 On ch=3 n=25 v=0
91200 On ch=3 n=24 v=127
91200 On ch=3 n=47 v=127
91200 On ch=3 n=62 v=127
91200 On ch=3 n=74 v=127
91200 On ch=3 n=86 v=127
91200 On ch=3 n=96 v=127
91200 On ch=3 n=98 v=127
91260 On ch=3 n=24 v=0
91260 On ch=3 n=47 v=0
91260 On ch=3 n=62 v=0
91260 On ch=3 n=74 v=0
91260 On ch=3 n=86 v=0
91260 On ch=3 n=96 v=0
91260 On ch=3 n=98 v=0
91360 On ch=3 n=46 v=127
91360 On ch=3 n=86 v=127
91360 On ch=3 n=98 v=127
91420 On ch=3 n=46 v=0
91420 On ch=3 n=86 v=0
91420 On ch=3 n=98 v=0
91520 On ch=3 n=25 v=127
91520 On ch=3 n=47 v=127
91520 On ch=3 n=86 v=127
91520 On ch=3 n=98 v=127
91520 On ch=3 n=74 v=100
91580 On ch=3 n=47 v=0
91580 On ch=3 n=86 v=0
91580 On ch=3 n=98 v=0
91580 On ch=3 n=74 v=0
91674 On ch=3 n=25 v=0
91678 On ch=3 n=112 v=0
91678 On ch=3 n=111 v=0
91678 On ch=3 n=110 v=0
91680 On ch=3 n=24 v=127
91680 On ch=3 n=26 v=127
91680 On ch=3 n=61 v=127
91680 On ch=3 n=73 v=127
91680 On ch=3 n=85 v=127
91680 On ch=3 n=96 v=127
91680 On ch=3 n=97 v=127
91740 On ch=3 n=24 v=0
91740 On ch=3 n=26 v=0
91740 On ch=3 n=61 v=0
91740 On ch=3 n=73 v=0
91740 On ch=3 n=85 v=0
91740 On ch=3 n=96 v=0
91740 On ch=3 n=97 v=0
91840 On ch=3 n=27 v=127
91840 On ch=3 n=85 v=127
91840 On ch=3 n=97 v=127
91900 On ch=3 n=27 v=0
91900 On ch=3 n=85 v=0
91900 On ch=3 n=97 v=0
92000 On ch=3 n=25 v=127
92000 On ch=3 n=26 v=127
92000 On ch=3 n=85 v=127
92000 On ch=3 n=97 v=127
92000 On ch=3 n=73 v=100
92060 On ch=3 n=26 v=0
92060 On ch=3 n=85 v=0
92060 On ch=3 n=97 v=0
92060 On ch=3 n=73 v=0
92154 On ch=3 n=25 v=0
92155 On ch=3 n=106 v=0
92156 On ch=3 n=124 v=0
92156 On ch=3 n=123 v=0
92156 On ch=3 n=122 v=0
92156 On ch=3 n=121 v=0
92156 On ch=3 n=120 v=0
92160 On ch=3 n=24 v=127
92160 On ch=3 n=38 v=127
92160 On ch=3 n=60 v=127
92160 On ch=3 n=64 v=127
92160 On ch=3 n=72 v=127
92160 On ch=3 n=76 v=127
92160 On ch=3 n=84 v=127
92160 On ch=3 n=88 v=127
92160 On ch=3 n=96 v=127
92160 On ch=3 n=100 v=127
92160 Meta Text "[intense]"
92220 On ch=3 n=24 v=0
92220 On ch=3 n=38 v=0
92220 On ch=3 n=60 v=0
92220 On ch=3 n=64 v=0
92220 On ch=3 n=72 v=0
92220 On ch=3 n=76 v=0
92220 On ch=3 n=84 v=0
92220 On ch=3 n=88 v=0
92220 On ch=3 n=96 v=0
92220 On ch=3 n=100 v=0
92320 On ch=3 n=26 v=127
92320 On ch=3 n=97 v=127
92380 On ch=3 n=26 v=0
92380 On ch=3 n=97 v=0
92480 On ch=3 n=25 v=127
92480 On ch=3 n=27 v=127
92480 On ch=3 n=85 v=127
92480 On ch=3 n=97 v=127
92540 On ch=3 n=27 v=0
92540 On ch=3 n=85 v=0
92540 On ch=3 n=97 v=0
92633 On ch=3 n=25 v=0
92640 On ch=3 n=24 v=127
92640 On ch=3 n=34 v=127
92640 On ch=3 n=64 v=127
92640 On ch=3 n=72 v=127
92640 On ch=3 n=75 v=127
92640 On ch=3 n=84 v=127
92640 On ch=3 n=88 v=127
92640 On ch=3 n=96 v=127
92640 On ch=3 n=99 v=127
92640 On ch=3 n=60 v=127
92700 On ch=3 n=24 v=0
92700 On ch=3 n=34 v=0
92700 On ch=3 n=64 v=0
92700 On ch=3 n=72 v=0
92700 On ch=3 n=75 v=0
92700 On ch=3 n=84 v=0
92700 On ch=3 n=88 v=0
92700 On ch=3 n=96 v=0
92700 On ch=3 n=99 v=0
92700 On ch=3 n=60 v=0
92800 On ch=3 n=27 v=127
92800 On ch=3 n=97 v=127
92860 On ch=3 n=27 v=0
92860 On ch=3 n=97 v=0
92960 On ch=3 n=25 v=127
92960 On ch=3 n=26 v=127
92960 On ch=3 n=85 v=127
92960 On ch=3 n=97 v=127
93020 On ch=3 n=26 v=0
93020 On ch=3 n=85 v=0
93020 On ch=3 n=97 v=0
93113 On ch=3 n=25 v=0
93120 On ch=3 n=24 v=127
93120 On ch=3 n=38 v=127
93120 On ch=3 n=64 v=127
93120 On ch=3 n=72 v=127
93120 On ch=3 n=76 v=127
93120 On ch=3 n=84 v=127
93120 On ch=3 n=88 v=127
93120 On ch=3 n=96 v=127
93120 On ch=3 n=100 v=127
93120 On ch=3 n=60 v=127
93180 On ch=3 n=24 v=0
93180 On ch=3 n=38 v=0
93180 On ch=3 n=64 v=0
93180 On ch=3 n=72 v=0
93180 On ch=3 n=76 v=0
93180 On ch=3 n=84 v=0
93180 On ch=3 n=88 v=0
93180 On ch=3 n=96 v=0
93180 On ch=3 n=100 v=0
93180 On ch=3 n=60 v=0
93280 On ch=3 n=26 v=127
93280 On ch=3 n=97 v=127
93340 On ch=3 n=26 v=0
93340 On ch=3 n=97 v=0
93440 On ch=3 n=25 v=127
93440 On ch=3 n=27 v=127
93440 On ch=3 n=85 v=127
93440 On ch=3 n=97 v=127
93500 On ch=3 n=27 v=0
93500 On ch=3 n=85 v=0
93500 On ch=3 n=97 v=0
93593 On ch=3 n=25 v=0
93600 On ch=3 n=24 v=127
93600 On ch=3 n=34 v=127
93600 On ch=3 n=64 v=127
93600 On ch=3 n=72 v=127
93600 On ch=3 n=75 v=127
93600 On ch=3 n=84 v=127
93600 On ch=3 n=88 v=127
93600 On ch=3 n=96 v=127
93600 On ch=3 n=99 v=127
93600 On ch=3 n=60 v=127
93660 On ch=3 n=24 v=0
93660 On ch=3 n=34 v=0
93660 On ch=3 n=64 v=0
93660 On ch=3 n=72 v=0
93660 On ch=3 n=75 v=0
93660 On ch=3 n=84 v=0
93660 On ch=3 n=88 v=0
93660 On ch=3 n=96 v=0
93660 On ch=3 n=99 v=0
93660 On ch=3 n=60 v=0
93760 On ch=3 n=27 v=127
93760 On ch=3 n=97 v=127
93820 On ch=3 n=27 v=0
93820 On ch=3 n=97 v=0
93920 On ch=3 n=25 v=127
93920 On ch=3 n=26 v=127
93920 On ch=3 n=85 v=127
93920 On ch=3 n=97 v=127
93980 On ch=3 n=26 v=0
93980 On ch=3 n=85 v=0
93980 On ch=3 n=97 v=0
94073 On ch=3 n=25 v=0
94080 On ch=3 n=24 v=127
94080 On ch=3 n=38 v=127
94080 On ch=3 n=64 v=127
94080 On ch=3 n=72 v=127
94080 On ch=3 n=76 v=127
94080 On ch=3 n=84 v=127
94080 On ch=3 n=88 v=127
94080 On ch=3 n=96 v=127
94080 On ch=3 n=100 v=127
94080 On ch=3 n=106 v=100
94080 On ch=3 n=60 v=127
94140 On ch=3 n=24 v=0
94140 On ch=3 n=38 v=0
94140 On ch=3 n=64 v=0
94140 On ch=3 n=72 v=0
94140 On ch=3 n=76 v=0
94140 On ch=3 n=84 v=0
94140 On ch=3 n=88 v=0
94140 On ch=3 n=96 v=0
94140 On ch=3 n=100 v=0
94140 On ch=3 n=60 v=0
94240 On ch=3 n=26 v=127
94240 On ch=3 n=97 v=127
94300 On ch=3 n=26 v=0
94300 On ch=3 n=97 v=0
94400 On ch=3 n=25 v=127
94400 On ch=3 n=27 v=127
94400 On ch=3 n=85 v=127
94400 On ch=3 n=97 v=127
94460 On ch=3 n=27 v=0
94460 On ch=3 n=85 v=0
94460 On ch=3 n=97 v=0
94553 On ch=3 n=25 v=0
94560 On ch=3 n=24 v=127
94560 On ch=3 n=34 v=127
94560 On ch=3 n=64 v=127
94560 On ch=3 n=72 v=127
94560 On ch=3 n=75 v=127
94560 On ch=3 n=84 v=127
94560 On ch=3 n=88 v=127
94560 On ch=3 n=96 v=127
94560 On ch=3 n=99 v=127
94560 On ch=3 n=60 v=127
94620 On ch=3 n=24 v=0
94620 On ch=3 n=34 v=0
94620 On ch=3 n=64 v=0
94620 On ch=3 n=72 v=0
94620 On ch=3 n=75 v=0
94620 On ch=3 n=84 v=0
94620 On ch=3 n=88 v=0
94620 On ch=3 n=96 v=0
94620 On ch=3 n=99 v=0
94620 On ch=3 n=60 v=0
94720 On ch=3 n=27 v=127
94720 On ch=3 n=97 v=127
94780 On ch=3 n=27 v=0
94780 On ch=3 n=97 v=0
94880 On ch=3 n=25 v=127
94880 On ch=3 n=26 v=127
94880 On ch=3 n=85 v=127
94880 On ch=3 n=97 v=127
94940 On ch=3 n=26 v=0
94940 On ch=3 n=85 v=0
94940 On ch=3 n=97 v=0
95033 On ch=3 n=25 v=0
95040 On ch=3 n=24 v=127
95040 On ch=3 n=38 v=127
95040 On ch=3 n=64 v=127
95040 On ch=3 n=72 v=127
95040 On ch=3 n=76 v=127
95040 On ch=3 n=84 v=127
95040 On ch=3 n=88 v=127
95040 On ch=3 n=96 v=127
95040 On ch=3 n=100 v=127
95040 On ch=3 n=60 v=127
95100 On ch=3 n=24 v=0
95100 On ch=3 n=38 v=0
95100 On ch=3 n=64 v=0
95100 On ch=3 n=72 v=0
95100 On ch=3 n=76 v=0
95100 On ch=3 n=84 v=0
95100 On ch=3 n=88 v=0
95100 On ch=3 n=96 v=0
95100 On ch=3 n=100 v=0
95100 On ch=3 n=60 v=0
95200 On ch=3 n=26 v=127
95200 On ch=3 n=97 v=127
95260 On ch=3 n=26 v=0
95260 On ch=3 n=97 v=0
95360 On ch=3 n=25 v=127
95360 On ch=3 n=27 v=127
95360 On ch=3 n=85 v=127
95360 On ch=3 n=97 v=127
95420 On ch=3 n=27 v=0
95420 On ch=3 n=85 v=0
95420 On ch=3 n=97 v=0
95513 On ch=3 n=25 v=0
95520 On ch=3 n=24 v=127
95520 On ch=3 n=34 v=127
95520 On ch=3 n=64 v=127
95520 On ch=3 n=72 v=127
95520 On ch=3 n=75 v=127
95520 On ch=3 n=84 v=127
95520 On ch=3 n=88 v=127
95520 On ch=3 n=96 v=127
95520 On ch=3 n=99 v=127
95520 On ch=3 n=60 v=127
95580 On ch=3 n=24 v=0
95580 On ch=3 n=34 v=0
95580 On ch=3 n=64 v=0
95580 On ch=3 n=72 v=0
95580 On ch=3 n=75 v=0
95580 On ch=3 n=84 v=0
95580 On ch=3 n=88 v=0
95580 On ch=3 n=96 v=0
95580 On ch=3 n=99 v=0
95580 On ch=3 n=60 v=0
95680 On ch=3 n=27 v=127
95680 On ch=3 n=97 v=127
95740 On ch=3 n=27 v=0
95740 On ch=3 n=97 v=0
95840 On ch=3 n=25 v=127
95840 On ch=3 n=26 v=127
95840 On ch=3 n=85 v=127
95840 On ch=3 n=97 v=127
95900 On ch=3 n=26 v=0
95900 On ch=3 n=85 v=0
95900 On ch=3 n=97 v=0
95993 On ch=3 n=25 v=0
96000 On ch=3 n=105 v=0
96000 On ch=3 n=24 v=127
96000 On ch=3 n=38 v=127
96000 On ch=3 n=64 v=127
96000 On ch=3 n=72 v=127
96000 On ch=3 n=76 v=127
96000 On ch=3 n=84 v=127
96000 On ch=3 n=88 v=127
96000 On ch=3 n=96 v=127
96000 On ch=3 n=100 v=127
96000 On ch=3 n=60 v=127
96060 On ch=3 n=24 v=0
96060 On ch=3 n=38 v=0
96060 On ch=3 n=64 v=0
96060 On ch=3 n=72 v=0
96060 On ch=3 n=76 v=0
96060 On ch=3 n=84 v=0
96060 On ch=3 n=88 v=0
96060 On ch=3 n=96 v=0
96060 On ch=3 n=100 v=0
96060 On ch=3 n=60 v=0
96160 On ch=3 n=26 v=127
96160 On ch=3 n=97 v=127
96220 On ch=3 n=26 v=0
96220 On ch=3 n=97 v=0
96320 On ch=3 n=25 v=127
96320 On ch=3 n=27 v=127
96320 On ch=3 n=85 v=127
96320 On ch=3 n=97 v=127
96380 On ch=3 n=27 v=0
96380 On ch=3 n=85 v=0
96380 On ch=3 n=97 v=0
96474 On ch=3 n=25 v=0
96480 On ch=3 n=24 v=127
96480 On ch=3 n=34 v=127
96480 On ch=3 n=64 v=127
96480 On ch=3 n=72 v=127
96480 On ch=3 n=75 v=127
96480 On ch=3 n=84 v=127
96480 On ch=3 n=88 v=127
96480 On ch=3 n=96 v=127
96480 On ch=3 n=99 v=127
96480 On ch=3 n=60 v=127
96540 On ch=3 n=24 v=0
96540 On ch=3 n=34 v=0
96540 On ch=3 n=64 v=0
96540 On ch=3 n=72 v=0
96540 On ch=3 n=75 v=0
96540 On ch=3 n=84 v=0
96540 On ch=3 n=88 v=0
96540 On ch=3 n=96 v=0
96540 On ch=3 n=99 v=0
96540 On ch=3 n=60 v=0
96640 On ch=3 n=27 v=127
96640 On ch=3 n=97 v=127
96700 On ch=3 n=27 v=0
96700 On ch=3 n=97 v=0
96800 On ch=3 n=25 v=127
96800 On ch=3 n=26 v=127
96800 On ch=3 n=85 v=127
96800 On ch=3 n=97 v=127
96860 On ch=3 n=26 v=0
96860 On ch=3 n=85 v=0
96860 On ch=3 n=97 v=0
96954 On ch=3 n=25 v=0
96960 On ch=3 n=24 v=127
96960 On ch=3 n=38 v=127
96960 On ch=3 n=64 v=127
96960 On ch=3 n=72 v=127
96960 On ch=3 n=76 v=127
96960 On ch=3 n=84 v=127
96960 On ch=3 n=88 v=127
96960 On ch=3 n=96 v=127
96960 On ch=3 n=100 v=127
96960 On ch=3 n=60 v=127
97020 On ch=3 n=24 v=0
97020 On ch=3 n=38 v=0
97020 On ch=3 n=64 v=0
97020 On ch=3 n=72 v=0
97020 On ch=3 n=76 v=0
97020 On ch=3 n=84 v=0
97020 On ch=3 n=88 v=0
97020 On ch=3 n=96 v=0
97020 On ch=3 n=100 v=0
97020 On ch=3 n=60 v=0
97120 On ch=3 n=26 v=127
97120 On ch=3 n=97 v=127
97180 On ch=3 n=26 v=0
97180 On ch=3 n=97 v=0
97280 On ch=3 n=25 v=127
97280 On ch=3 n=27 v=127
97280 On ch=3 n=85 v=127
97280 On ch=3 n=97 v=127
97340 On ch=3 n=27 v=0
97340 On ch=3 n=85 v=0
97340 On ch=3 n=97 v=0
97434 On ch=3 n=25 v=0
97440 On ch=3 n=24 v=127
97440 On ch=3 n=34 v=127
97440 On ch=3 n=64 v=127
97440 On ch=3 n=72 v=127
97440 On ch=3 n=75 v=127
97440 On ch=3 n=84 v=127
97440 On ch=3 n=88 v=127
97440 On ch=3 n=96 v=127
97440 On ch=3 n=99 v=127
97440 On ch=3 n=60 v=127
97500 On ch=3 n=24 v=0
97500 On ch=3 n=34 v=0
97500 On ch=3 n=64 v=0
97500 On ch=3 n=72 v=0
97500 On ch=3 n=75 v=0
97500 On ch=3 n=84 v=0
97500 On ch=3 n=88 v=0
97500 On ch=3 n=96 v=0
97500 On ch=3 n=99 v=0
97500 On ch=3 n=60 v=0
97600 On ch=3 n=27 v=127
97600 On ch=3 n=97 v=127
97660 On ch=3 n=27 v=0
97660 On ch=3 n=97 v=0
97760 On ch=3 n=25 v=127
97760 On ch=3 n=26 v=127
97760 On ch=3 n=85 v=127
97760 On ch=3 n=97 v=127
97820 On ch=3 n=26 v=0
97820 On ch=3 n=85 v=0
97820 On ch=3 n=97 v=0
97914 On ch=3 n=25 v=0
97920 On ch=3 n=24 v=127
97920 On ch=3 n=38 v=127
97920 On ch=3 n=72 v=127
97920 On ch=3 n=84 v=127
97920 On ch=3 n=96 v=127
97920 On ch=3 n=100 v=100
97920 On ch=3 n=88 v=100
97920 On ch=3 n=76 v=100
97920 On ch=3 n=64 v=127
97920 On ch=3 n=105 v=100
97920 On ch=3 n=60 v=127
97980 On ch=3 n=24 v=0
97980 On ch=3 n=38 v=0
97980 On ch=3 n=72 v=0
97980 On ch=3 n=84 v=0
97980 On ch=3 n=96 v=0
97980 On ch=3 n=100 v=0
97980 On ch=3 n=88 v=0
97980 On ch=3 n=76 v=0
97980 On ch=3 n=64 v=0
97980 On ch=3 n=60 v=0
98080 On ch=3 n=26 v=127
98080 On ch=3 n=85 v=127
98080 On ch=3 n=97 v=127
98140 On ch=3 n=26 v=0
98140 On ch=3 n=85 v=0
98140 On ch=3 n=97 v=0
98240 On ch=3 n=25 v=127
98240 On ch=3 n=27 v=127
98240 On ch=3 n=85 v=127
98240 On ch=3 n=97 v=127
98240 On ch=3 n=73 v=100
98300 On ch=3 n=27 v=0
98300 On ch=3 n=85 v=0
98300 On ch=3 n=97 v=0
98300 On ch=3 n=73 v=0
98394 On ch=3 n=25 v=0
98400 On ch=3 n=24 v=127
98400 On ch=3 n=26 v=127
98400 On ch=3 n=61 v=127
98400 On ch=3 n=73 v=127
98400 On ch=3 n=85 v=127
98400 On ch=3 n=96 v=127
98400 On ch=3 n=97 v=127
98460 On ch=3 n=24 v=0
98460 On ch=3 n=26 v=0
98460 On ch=3 n=61 v=0
98460 On ch=3 n=73 v=0
98460 On ch=3 n=85 v=0
98460 On ch=3 n=96 v=0
98460 On ch=3 n=97 v=0
98560 On ch=3 n=27 v=127
98560 On ch=3 n=85 v=127
98560 On ch=3 n=97 v=127
98620 On ch=3 n=27 v=0
98620 On ch=3 n=85 v=0
98620 On ch=3 n=97 v=0
98720 On ch=3 n=25 v=127
98720 On ch=3 n=26 v=127
98720 On ch=3 n=85 v=127
98720 On ch=3 n=97 v=127
98720 On ch=3 n=74 v=100
98780 On ch=3 n=26 v=0
98780 On ch=3 n=85 v=0
98780 On ch=3 n=97 v=0
98780 On ch=3 n=74 v=0
98874 On ch=3 n=25 v=0
98880 On ch=3 n=24 v=127
98880 On ch=3 n=47 v=127
98880 On ch=3 n=62 v=127
98880 On ch=3 n=74 v=127
98880 On ch=3 n=86 v=127
98880 On ch=3 n=96 v=127
98880 On ch=3 n=98 v=127
98880 On ch=3 n=110 v=127
98880 On ch=3 n=111 v=127
98880 On ch=3 n=120 v=127
98880 On ch=3 n=121 v=127
98880 On ch=3 n=122 v=127
98880 On ch=3 n=123 v=127
98880 On ch=3 n=124 v=127
98940 On ch=3 n=24 v=0
98940 On ch=3 n=47 v=0
98940 On ch=3 n=62 v=0
98940 On ch=3 n=74 v=0
98940 On ch=3 n=86 v=0
98940 On ch=3 n=96 v=0
98940 On ch=3 n=98 v=0
99040 On ch=3 n=46 v=127
99040 On ch=3 n=86 v=127
99040 On ch=3 n=98 v=127
99100 On ch=3 n=46 v=0
99100 On ch=3 n=86 v=0
99100 On ch=3 n=98 v=0
99200 On ch=3 n=25 v=127
99200 On ch=3 n=47 v=127
99200 On ch=3 n=86 v=127
99200 On ch=3 n=98 v=127
99200 On ch=3 n=75 v=100
99260 On ch=3 n=47 v=0
99260 On ch=3 n=86 v=0
99260 On ch=3 n=98 v=0
99260 On ch=3 n=75 v=0
99354 On ch=3 n=25 v=0
99360 On ch=3 n=24 v=127
99360 On ch=3 n=48 v=127
99360 On ch=3 n=63 v=127
99360 On ch=3 n=75 v=127
99360 On ch=3 n=87 v=127
99360 On ch=3 n=96 v=127
99360 On ch=3 n=99 v=127
99420 On ch=3 n=24 v=0
99420 On ch=3 n=48 v=0
99420 On ch=3 n=63 v=0
99420 On ch=3 n=75 v=0
99420 On ch=3 n=87 v=0
99420 On ch=3 n=96 v=0
99420 On ch=3 n=99 v=0
99520 On ch=3 n=49 v=127
99520 On ch=3 n=87 v=127
99520 On ch=3 n=99 v=127
99580 On ch=3 n=49 v=0
99580 On ch=3 n=87 v=0
99580 On ch=3 n=99 v=0
99680 On ch=3 n=25 v=127
99680 On ch=3 n=48 v=127
99680 On ch=3 n=87 v=127
99680 On ch=3 n=99 v=127
99740 On ch=3 n=48 v=0
99740 On ch=3 n=87 v=0
99740 On ch=3 n=99 v=0
99834 On ch=3 n=25 v=0
99835 On ch=3 n=120 v=0
99835 On ch=3 n=121 v=0
99835 On ch=3 n=122 v=0
99835 On ch=3 n=123 v=0
99835 On ch=3 n=124 v=0
99838 On ch=3 n=110 v=0
99838 On ch=3 n=111 v=0
99840 On ch=3 n=106 v=0
99840 On ch=3 n=24 v=127
99840 On ch=3 n=38 v=127
99840 On ch=3 n=60 v=127
99840 On ch=3 n=64 v=127
99840 On ch=3 n=72 v=127
99840 On ch=3 n=76 v=127
99840 On ch=3 n=84 v=127
99840 On ch=3 n=88 v=127
99840 On ch=3 n=96 v=127
99840 On ch=3 n=100 v=127
99900 On ch=3 n=24 v=0
99900 On ch=3 n=38 v=0
99900 On ch=3 n=60 v=0
99900 On ch=3 n=64 v=0
99900 On ch=3 n=72 v=0
99900 On ch=3 n=76 v=0
99900 On ch=3 n=84 v=0
99900 On ch=3 n=88 v=0
99900 On ch=3 n=96 v=0
99900 On ch=3 n=100 v=0
100000 On ch=3 n=26 v=127
100000 On ch=3 n=97 v=127
100060 On ch=3 n=26 v=0
100060 On ch=3 n=97 v=0
100160 On ch=3 n=25 v=127
100160 On ch=3 n=27 v=127
100160 On ch=3 n=85 v=127
100160 On ch=3 n=97 v=127
100220 On ch=3 n=27 v=0
100220 On ch=3 n=85 v=0
100220 On ch=3 n=97 v=0
100314 On ch=3 n=25 v=0
100320 On ch=3 n=24 v=127
100320 On ch=3 n=34 v=127
100320 On ch=3 n=64 v=127
100320 On ch=3 n=72 v=127
100320 On ch=3 n=75 v=127
100320 On ch=3 n=84 v=127
100320 On ch=3 n=88 v=127
100320 On ch=3 n=96 v=127
100320 On ch=3 n=99 v=127
100320 On ch=3 n=60 v=127
100380 On ch=3 n=24 v=0
100380 On ch=3 n=34 v=0
100380 On ch=3 n=64 v=0
100380 On ch=3 n=72 v=0
100380 On ch=3 n=75 v=0
100380 On ch=3 n=84 v=0
100380 On ch=3 n=88 v=0
100380 On ch=3 n=96 v=0
100380 On ch=3 n=99 v=0
100380 On ch=3 n=60 v=0
100480 On ch=3 n=27 v=127
100480 On ch=3 n=97 v=127
100540 On ch=3 n=27 v=0
100540 On ch=3 n=97 v=0
100640 On ch=3 n=25 v=127
100640 On ch=3 n=26 v=127
100640 On ch=3 n=85 v=127
100640 On ch=3 n=97 v=127
100700 On ch=3 n=26 v=0
100700 On ch=3 n=85 v=0
100700 On ch=3 n=97 v=0
100794 On ch=3 n=25 v=0
100800 On ch=3 n=24 v=127
100800 On ch=3 n=38 v=127
100800 On ch=3 n=64 v=127
100800 On ch=3 n=72 v=127
100800 On ch=3 n=76 v=127
100800 On ch=3 n=84 v=127
100800 On ch=3 n=88 v=127
100800 On ch=3 n=96 v=127
100800 On ch=3 n=100 v=127
100800 On ch=3 n=60 v=127
100860 On ch=3 n=24 v=0
100860 On ch=3 n=38 v=0
100860 On ch=3 n=64 v=0
100860 On ch=3 n=72 v=0
100860 On ch=3 n=76 v=0
100860 On ch=3 n=84 v=0
100860 On ch=3 n=88 v=0
100860 On ch=3 n=96 v=0
100860 On ch=3 n=100 v=0
100860 On ch=3 n=60 v=0
100960 On ch=3 n=26 v=127
100960 On ch=3 n=97 v=127
101020 On ch=3 n=26 v=0
101020 On ch=3 n=97 v=0
101120 On ch=3 n=25 v=127
101120 On ch=3 n=27 v=127
101120 On ch=3 n=85 v=127
101120 On ch=3 n=97 v=127
101180 On ch=3 n=27 v=0
101180 On ch=3 n=85 v=0
101180 On ch=3 n=97 v=0
101274 On ch=3 n=25 v=0
101280 On ch=3 n=24 v=127
101280 On ch=3 n=34 v=127
101280 On ch=3 n=64 v=127
101280 On ch=3 n=72 v=127
101280 On ch=3 n=75 v=127
101280 On ch=3 n=84 v=127
101280 On ch=3 n=88 v=127
101280 On ch=3 n=96 v=127
101280 On ch=3 n=99 v=127
101280 On ch=3 n=60 v=127
101340 On ch=3 n=24 v=0
101340 On ch=3 n=34 v=0
101340 On ch=3 n=64 v=0
101340 On ch=3 n=72 v=0
101340 On ch=3 n=75 v=0
101340 On ch=3 n=84 v=0
101340 On ch=3 n=88 v=0
101340 On ch=3 n=96 v=0
101340 On ch=3 n=99 v=0
101340 On ch=3 n=60 v=0
101440 On ch=3 n=27 v=127
101440 On ch=3 n=97 v=127
101500 On ch=3 n=27 v=0
101500 On ch=3 n=97 v=0
101600 On ch=3 n=25 v=127
101600 On ch=3 n=26 v=127
101600 On ch=3 n=85 v=127
101600 On ch=3 n=97 v=127
101660 On ch=3 n=26 v=0
101660 On ch=3 n=85 v=0
101660 On ch=3 n=97 v=0
101754 On ch=3 n=25 v=0
101760 On ch=3 n=24 v=127
101760 On ch=3 n=38 v=127
101760 On ch=3 n=64 v=127
101760 On ch=3 n=72 v=127
101760 On ch=3 n=76 v=127
101760 On ch=3 n=84 v=127
101760 On ch=3 n=88 v=127
101760 On ch=3 n=96 v=127
101760 On ch=3 n=100 v=127
101760 On ch=3 n=106 v=100
101760 On ch=3 n=60 v=127
101820 On ch=3 n=24 v=0
101820 On ch=3 n=38 v=0
101820 On ch=3 n=64 v=0
101820 On ch=3 n=72 v=0
101820 On ch=3 n=76 v=0
101820 On ch=3 n=84 v=0
101820 On ch=3 n=88 v=0
101820 On ch=3 n=96 v=0
101820 On ch=3 n=100 v=0
101820 On ch=3 n=60 v=0
101920 On ch=3 n=26 v=127
101920 On ch=3 n=97 v=127
101980 On ch=3 n=26 v=0
101980 On ch=3 n=97 v=0
102080 On ch=3 n=25 v=127
102080 On ch=3 n=27 v=127
102080 On ch=3 n=85 v=127
102080 On ch=3 n=97 v=127
102140 On ch=3 n=27 v=0
102140 On ch=3 n=85 v=0
102140 On ch=3 n=97 v=0
102233 On ch=3 n=25 v=0
102240 On ch=3 n=24 v=127
102240 On ch=3 n=34 v=127
102240 On ch=3 n=64 v=127
102240 On ch=3 n=72 v=127
102240 On ch=3 n=75 v=127
102240 On ch=3 n=84 v=127
102240 On ch=3 n=88 v=127
102240 On ch=3 n=96 v=127
102240 On ch=3 n=99 v=127
102240 On ch=3 n=60 v=127
102300 On ch=3 n=24 v=0
102300 On ch=3 n=34 v=0
102300 On ch=3 n=64 v=0
102300 On ch=3 n=72 v=0
102300 On ch=3 n=75 v=0
102300 On ch=3 n=84 v=0
102300 On ch=3 n=88 v=0
102300 On ch=3 n=96 v=0
102300 On ch=3 n=99 v=0
102300 On ch=3 n=60 v=0
102400 On ch=3 n=27 v=127
102400 On ch=3 n=97 v=127
102460 On ch=3 n=27 v=0
102460 On ch=3 n=97 v=0
102560 On ch=3 n=25 v=127
102560 On ch=3 n=26 v=127
102560 On ch=3 n=85 v=127
102560 On ch=3 n=97 v=127
102620 On ch=3 n=26 v=0
102620 On ch=3 n=85 v=0
102620 On ch=3 n=97 v=0
102713 On ch=3 n=25 v=0
102720 On ch=3 n=24 v=127
102720 On ch=3 n=38 v=127
102720 On ch=3 n=64 v=127
102720 On ch=3 n=72 v=127
102720 On ch=3 n=76 v=127
102720 On ch=3 n=84 v=127
102720 On ch=3 n=88 v=127
102720 On ch=3 n=96 v=127
102720 On ch=3 n=100 v=127
102720 On ch=3 n=60 v=127
102780 On ch=3 n=24 v=0
102780 On ch=3 n=38 v=0
102780 On ch=3 n=64 v=0
102780 On ch=3 n=72 v=0
102780 On ch=3 n=76 v=0
102780 On ch=3 n=84 v=0
102780 On ch=3 n=88 v=0
102780 On ch=3 n=96 v=0
102780 On ch=3 n=100 v=0
102780 On ch=3 n=60 v=0
102880 On ch=3 n=26 v=127
102880 On ch=3 n=97 v=127
102940 On ch=3 n=26 v=0
102940 On ch=3 n=97 v=0
103040 On ch=3 n=25 v=127
103040 On ch=3 n=27 v=127
103040 On ch=3 n=85 v=127
103040 On ch=3 n=97 v=127
103100 On ch=3 n=27 v=0
103100 On ch=3 n=85 v=0
103100 On ch=3 n=97 v=0
103193 On ch=3 n=25 v=0
103200 On ch=3 n=24 v=127
103200 On ch=3 n=34 v=127
103200 On ch=3 n=64 v=127
103200 On ch=3 n=72 v=127
103200 On ch=3 n=75 v=127
103200 On ch=3 n=84 v=127
103200 On ch=3 n=88 v=127
103200 On ch=3 n=96 v=127
103200 On ch=3 n=99 v=127
103200 On ch=3 n=60 v=127
103260 On ch=3 n=24 v=0
103260 On ch=3 n=34 v=0
103260 On ch=3 n=64 v=0
103260 On ch=3 n=72 v=0
103260 On ch=3 n=75 v=0
103260 On ch=3 n=84 v=0
103260 On ch=3 n=88 v=0
103260 On ch=3 n=96 v=0
103260 On ch=3 n=99 v=0
103260 On ch=3 n=60 v=0
103360 On ch=3 n=27 v=127
103360 On ch=3 n=97 v=127
103420 On ch=3 n=27 v=0
103420 On ch=3 n=97 v=0
103520 On ch=3 n=25 v=127
103520 On ch=3 n=26 v=127
103520 On ch=3 n=85 v=127
103520 On ch=3 n=97 v=127
103580 On ch=3 n=26 v=0
103580 On ch=3 n=85 v=0
103580 On ch=3 n=97 v=0
103673 On ch=3 n=25 v=0
103680 On ch=3 n=105 v=0
103680 On ch=3 n=24 v=127
103680 On ch=3 n=38 v=127
103680 On ch=3 n=64 v=127
103680 On ch=3 n=72 v=127
103680 On ch=3 n=76 v=127
103680 On ch=3 n=84 v=127
103680 On ch=3 n=88 v=127
103680 On ch=3 n=96 v=127
103680 On ch=3 n=100 v=127
103680 On ch=3 n=60 v=127
103740 On ch=3 n=24 v=0
103740 On ch=3 n=38 v=0
103740 On ch=3 n=64 v=0
103740 On ch=3 n=72 v=0
103740 On ch=3 n=76 v=0
103740 On ch=3 n=84 v=0
103740 On ch=3 n=88 v=0
103740 On ch=3 n=96 v=0
103740 On ch=3 n=100 v=0
103740 On ch=3 n=60 v=0
103840 On ch=3 n=26 v=127
103840 On ch=3 n=97 v=127
103900 On ch=3 n=26 v=0
103900 On ch=3 n=97 v=0
104000 On ch=3 n=25 v=127
104000 On ch=3 n=27 v=127
104000 On ch=3 n=85 v=127
104000 On ch=3 n=97 v=127
104060 On ch=3 n=27 v=0
104060 On ch=3 n=85 v=0
104060 On ch=3 n=97 v=0
104153 On ch=3 n=25 v=0
104160 On ch=3 n=24 v=127
104160 On ch=3 n=34 v=127
104160 On ch=3 n=64 v=127
104160 On ch=3 n=72 v=127
104160 On ch=3 n=75 v=127
104160 On ch=3 n=84 v=127
104160 On ch=3 n=88 v=127
104160 On ch=3 n=96 v=127
104160 On ch=3 n=99 v=127
104160 On ch=3 n=60 v=127
104220 On ch=3 n=24 v=0
104220 On ch=3 n=34 v=0
104220 On ch=3 n=64 v=0
104220 On ch=3 n=72 v=0
104220 On ch=3 n=75 v=0
104220 On ch=3 n=84 v=0
104220 On ch=3 n=88 v=0
104220 On ch=3 n=96 v=0
104220 On ch=3 n=99 v=0
104220 On ch=3 n=60 v=0
104320 On ch=3 n=27 v=127
104320 On ch=3 n=97 v=127
104380 On ch=3 n=27 v=0
104380 On ch=3 n=97 v=0
104480 On ch=3 n=25 v=127
104480 On ch=3 n=26 v=127
104480 On ch=3 n=85 v=127
104480 On ch=3 n=97 v=127
104540 On ch=3 n=26 v=0
104540 On ch=3 n=85 v=0
104540 On ch=3 n=97 v=0
104633 On ch=3 n=25 v=0
104640 On ch=3 n=24 v=127
104640 On ch=3 n=38 v=127
104640 On ch=3 n=64 v=127
104640 On ch=3 n=72 v=127
104640 On ch=3 n=76 v=127
104640 On ch=3 n=84 v=127
104640 On ch=3 n=88 v=127
104640 On ch=3 n=96 v=127
104640 On ch=3 n=100 v=127
104640 On ch=3 n=60 v=127
104700 On ch=3 n=24 v=0
104700 On ch=3 n=38 v=0
104700 On ch=3 n=64 v=0
104700 On ch=3 n=72 v=0
104700 On ch=3 n=76 v=0
104700 On ch=3 n=84 v=0
104700 On ch=3 n=88 v=0
104700 On ch=3 n=96 v=0
104700 On ch=3 n=100 v=0
104700 On ch=3 n=60 v=0
104800 On ch=3 n=26 v=127
104800 On ch=3 n=97 v=127
104860 On ch=3 n=26 v=0
104860 On ch=3 n=97 v=0
104960 On ch=3 n=25 v=127
104960 On ch=3 n=27 v=127
104960 On ch=3 n=85 v=127
104960 On ch=3 n=97 v=127
105020 On ch=3 n=27 v=0
105020 On ch=3 n=85 v=0
105020 On ch=3 n=97 v=0
105113 On ch=3 n=25 v=0
105120 On ch=3 n=24 v=127
105120 On ch=3 n=34 v=127
105120 On ch=3 n=64 v=127
105120 On ch=3 n=72 v=127
105120 On ch=3 n=75 v=127
105120 On ch=3 n=84 v=127
105120 On ch=3 n=88 v=127
105120 On ch=3 n=96 v=127
105120 On ch=3 n=99 v=127
105120 On ch=3 n=60 v=127
105180 On ch=3 n=24 v=0
105180 On ch=3 n=34 v=0
105180 On ch=3 n=64 v=0
105180 On ch=3 n=72 v=0
105180 On ch=3 n=75 v=0
105180 On ch=3 n=84 v=0
105180 On ch=3 n=88 v=0
105180 On ch=3 n=96 v=0
105180 On ch=3 n=99 v=0
105180 On ch=3 n=60 v=0
105280 On ch=3 n=27 v=127
105280 On ch=3 n=97 v=127
105340 On ch=3 n=27 v=0
105340 On ch=3 n=97 v=0
105440 On ch=3 n=25 v=127
105440 On ch=3 n=26 v=127
105440 On ch=3 n=85 v=127
105440 On ch=3 n=97 v=127
105500 On ch=3 n=26 v=0
105500 On ch=3 n=85 v=0
105500 On ch=3 n=97 v=0
105593 On ch=3 n=25 v=0
105600 On ch=3 n=24 v=127
105600 On ch=3 n=38 v=127
105600 On ch=3 n=64 v=127
105600 On ch=3 n=72 v=127
105600 On ch=3 n=76 v=127
105600 On ch=3 n=84 v=127
105600 On ch=3 n=88 v=127
105600 On ch=3 n=96 v=127
105600 On ch=3 n=100 v=127
105600 On ch=3 n=105 v=100
105600 On ch=3 n=60 v=127
105660 On ch=3 n=24 v=0
105660 On ch=3 n=38 v=0
105660 On ch=3 n=64 v=0
105660 On ch=3 n=72 v=0
105660 On ch=3 n=76 v=0
105660 On ch=3 n=84 v=0
105660 On ch=3 n=88 v=0
105660 On ch=3 n=96 v=0
105660 On ch=3 n=100 v=0
105660 On ch=3 n=60 v=0
105760 On ch=3 n=26 v=127
105760 On ch=3 n=97 v=127
105820 On ch=3 n=26 v=0
105820 On ch=3 n=97 v=0
105920 On ch=3 n=25 v=127
105920 On ch=3 n=27 v=127
105920 On ch=3 n=85 v=127
105920 On ch=3 n=97 v=127
105980 On ch=3 n=27 v=0
105980 On ch=3 n=85 v=0
105980 On ch=3 n=97 v=0
106073 On ch=3 n=25 v=0
106080 On ch=3 n=24 v=127
106080 On ch=3 n=34 v=127
106080 On ch=3 n=64 v=127
106080 On ch=3 n=72 v=127
106080 On ch=3 n=75 v=127
106080 On ch=3 n=84 v=127
106080 On ch=3 n=88 v=127
106080 On ch=3 n=96 v=127
106080 On ch=3 n=99 v=127
106080 On ch=3 n=60 v=127
106140 On ch=3 n=24 v=0
106140 On ch=3 n=34 v=0
106140 On ch=3 n=64 v=0
106140 On ch=3 n=72 v=0
106140 On ch=3 n=75 v=0
106140 On ch=3 n=84 v=0
106140 On ch=3 n=88 v=0
106140 On ch=3 n=96 v=0
106140 On ch=3 n=99 v=0
106140 On ch=3 n=60 v=0
106240 On ch=3 n=27 v=127
106240 On ch=3 n=97 v=127
106300 On ch=3 n=27 v=0
106300 On ch=3 n=97 v=0
106400 On ch=3 n=25 v=127
106400 On ch=3 n=26 v=127
106400 On ch=3 n=85 v=127
106400 On ch=3 n=97 v=127
106460 On ch=3 n=26 v=0
106460 On ch=3 n=85 v=0
106460 On ch=3 n=97 v=0
106553 On ch=3 n=25 v=0
106560 On ch=3 n=24 v=127
106560 On ch=3 n=38 v=127
106560 On ch=3 n=64 v=127
106560 On ch=3 n=72 v=127
106560 On ch=3 n=76 v=127
106560 On ch=3 n=84 v=127
106560 On ch=3 n=88 v=127
106560 On ch=3 n=96 v=127
106560 On ch=3 n=100 v=127
106560 On ch=3 n=120 v=127
106560 On ch=3 n=121 v=127
106560 On ch=3 n=122 v=127
106560 On ch=3 n=123 v=127
106560 On ch=3 n=124 v=127
106560 On ch=3 n=60 v=127
106620 On ch=3 n=24 v=0
106620 On ch=3 n=38 v=0
106620 On ch=3 n=64 v=0
106620 On ch=3 n=72 v=0
106620 On ch=3 n=76 v=0
106620 On ch=3 n=84 v=0
106620 On ch=3 n=88 v=0
106620 On ch=3 n=96 v=0
106620 On ch=3 n=100 v=0
106620 On ch=3 n=60 v=0
106720 On ch=3 n=26 v=127
106720 On ch=3 n=97 v=127
106780 On ch=3 n=26 v=0
106780 On ch=3 n=97 v=0
106880 On ch=3 n=25 v=127
106880 On ch=3 n=27 v=127
106880 On ch=3 n=85 v=127
106880 On ch=3 n=97 v=127
106940 On ch=3 n=27 v=0
106940 On ch=3 n=85 v=0
106940 On ch=3 n=97 v=0
107033 On ch=3 n=25 v=0
107040 On ch=3 n=24 v=127
107040 On ch=3 n=34 v=127
107040 On ch=3 n=64 v=127
107040 On ch=3 n=72 v=127
107040 On ch=3 n=75 v=127
107040 On ch=3 n=84 v=127
107040 On ch=3 n=88 v=127
107040 On ch=3 n=96 v=127
107040 On ch=3 n=99 v=127
107040 On ch=3 n=60 v=127
107100 On ch=3 n=24 v=0
107100 On ch=3 n=34 v=0
107100 On ch=3 n=64 v=0
107100 On ch=3 n=72 v=0
107100 On ch=3 n=75 v=0
107100 On ch=3 n=84 v=0
107100 On ch=3 n=88 v=0
107100 On ch=3 n=96 v=0
107100 On ch=3 n=99 v=0
107100 On ch=3 n=60 v=0
107200 On ch=3 n=27 v=127
107200 On ch=3 n=97 v=127
107260 On ch=3 n=27 v=0
107260 On ch=3 n=97 v=0
107360 On ch=3 n=25 v=127
107360 On ch=3 n=26 v=127
107360 On ch=3 n=85 v=127
107360 On ch=3 n=97 v=127
107420 On ch=3 n=26 v=0
107420 On ch=3 n=85 v=0
107420 On ch=3 n=97 v=0
107513 On ch=3 n=25 v=0
107516 On ch=3 n=120 v=0
107516 On ch=3 n=121 v=0
107516 On ch=3 n=122 v=0
107516 On ch=3 n=123 v=0
107516 On ch=3 n=124 v=0
107520 On ch=3 n=106 v=0
107520 On ch=3 n=24 v=127
107520 On ch=3 n=38 v=127
107520 On ch=3 n=72 v=127
107520 On ch=3 n=76 v=127
107520 On ch=3 n=84 v=127
107520 On ch=3 n=88 v=127
107520 On ch=3 n=96 v=127
107520 On ch=3 n=100 v=127
107520 On ch=3 n=116 v=100
107520 On ch=3 n=64 v=127
107520 On ch=3 n=60 v=127
107580 On ch=3 n=24 v=0
107580 On ch=3 n=38 v=0
107580 On ch=3 n=72 v=0
107580 On ch=3 n=76 v=0
107580 On ch=3 n=84 v=0
107580 On ch=3 n=88 v=0
107580 On ch=3 n=96 v=0
107580 On ch=3 n=100 v=0
107580 On ch=3 n=64 v=0
107580 On ch=3 n=60 v=0
107840 On ch=3 n=26 v=127
107840 On ch=3 n=73 v=127
107840 On ch=3 n=85 v=127
107840 On ch=3 n=97 v=127
107900 On ch=3 n=26 v=0
107900 On ch=3 n=73 v=0
107900 On ch=3 n=85 v=0
107900 On ch=3 n=97 v=0
108000 On ch=3 n=110 v=127
108000 On ch=3 n=111 v=127
108160 On ch=3 n=47 v=127
108160 On ch=3 n=74 v=127
108160 On ch=3 n=86 v=127
108160 On ch=3 n=98 v=127
108160 On ch=3 n=62 v=100
108220 On ch=3 n=47 v=0
108220 On ch=3 n=74 v=0
108220 On ch=3 n=86 v=0
108220 On ch=3 n=98 v=0
108220 On ch=3 n=62 v=0
108480 On ch=3 n=48 v=127
108480 On ch=3 n=49 v=127
108480 On ch=3 n=75 v=127
108480 On ch=3 n=87 v=127
108480 On ch=3 n=99 v=127
108480 On ch=3 n=63 v=100
108540 On ch=3 n=48 v=0
108540 On ch=3 n=49 v=0
108540 On ch=3 n=75 v=0
108540 On ch=3 n=87 v=0
108540 On ch=3 n=99 v=0
108540 On ch=3 n=63 v=0
108960 On ch=3 n=24 v=127
108960 On ch=3 n=34 v=127
108960 On ch=3 n=72 v=127
108960 On ch=3 n=76 v=127
108960 On ch=3 n=84 v=127
108960 On ch=3 n=88 v=127
108960 On ch=3 n=96 v=127
108960 On ch=3 n=100 v=127
108960 On ch=3 n=64 v=127
109020 On ch=3 n=24 v=0
109020 On ch=3 n=34 v=0
109020 On ch=3 n=72 v=0
109020 On ch=3 n=76 v=0
109020 On ch=3 n=84 v=0
109020 On ch=3 n=88 v=0
109020 On ch=3 n=96 v=0
109020 On ch=3 n=100 v=0
109020 On ch=3 n=64 v=0
109440 On ch=3 n=116 v=0
109440 On ch=3 n=24 v=127
109440 On ch=3 n=47 v=127
109440 On ch=3 n=72 v=127
109440 On ch=3 n=76 v=127
109440 On ch=3 n=84 v=127
109440 On ch=3 n=88 v=127
109440 On ch=3 n=96 v=127
109440 On ch=3 n=100 v=127
109440 On ch=3 n=64 v=127
109500 On ch=3 n=24 v=0
109500 On ch=3 n=47 v=0
109500 On ch=3 n=72 v=0
109500 On ch=3 n=76 v=0
109500 On ch=3 n=84 v=0
109500 On ch=3 n=88 v=0
109500 On ch=3 n=96 v=0
109500 On ch=3 n=100 v=0
109500 On ch=3 n=64 v=0
109600 On ch=3 n=46 v=127
109600 On ch=3 n=86 v=127
109600 On ch=3 n=98 v=127
109660 On ch=3 n=46 v=0
109660 On ch=3 n=86 v=0
109660 On ch=3 n=98 v=0
109760 On ch=3 n=47 v=127
109760 On ch=3 n=86 v=127
109760 On ch=3 n=98 v=127
109820 On ch=3 n=47 v=0
109820 On ch=3 n=86 v=0
109820 On ch=3 n=98 v=0
109920 On ch=3 n=48 v=127
109920 On ch=3 n=75 v=127
109920 On ch=3 n=87 v=127
109920 On ch=3 n=99 v=127
109920 On ch=3 n=63 v=100
109980 On ch=3 n=48 v=0
109980 On ch=3 n=75 v=0
109980 On ch=3 n=87 v=0
109980 On ch=3 n=99 v=0
109980 On ch=3 n=63 v=0
110080 On ch=3 n=49 v=127
110080 On ch=3 n=87 v=127
110080 On ch=3 n=99 v=127
110140 On ch=3 n=49 v=0
110140 On ch=3 n=87 v=0
110140 On ch=3 n=99 v=0
110240 On ch=3 n=48 v=127
110240 On ch=3 n=87 v=127
110240 On ch=3 n=99 v=127
110240 On ch=3 n=75 v=100
110300 On ch=3 n=48 v=0
110300 On ch=3 n=87 v=0
110300 On ch=3 n=99 v=0
110300 On ch=3 n=75 v=0
110400 On ch=3 n=50 v=127
110400 On ch=3 n=51 v=127
110400 On ch=3 n=76 v=127
110400 On ch=3 n=88 v=127
110400 On ch=3 n=100 v=127
110400 On ch=3 n=112 v=127
110400 On ch=3 n=63 v=100
110460 On ch=3 n=50 v=0
110460 On ch=3 n=51 v=0
110460 On ch=3 n=76 v=0
110460 On ch=3 n=88 v=0
110460 On ch=3 n=100 v=0
110460 On ch=3 n=63 v=0
110637 On ch=3 n=112 v=0
110880 On ch=3 n=24 v=127
110880 On ch=3 n=38 v=127
110880 On ch=3 n=72 v=127
110880 On ch=3 n=76 v=127
110880 On ch=3 n=84 v=127
110880 On ch=3 n=88 v=127
110880 On ch=3 n=96 v=127
110880 On ch=3 n=100 v=127
110880 On ch=3 n=64 v=100
110940 On ch=3 n=24 v=0
110940 On ch=3 n=38 v=0
110940 On ch=3 n=72 v=0
110940 On ch=3 n=76 v=0
110940 On ch=3 n=84 v=0
110940 On ch=3 n=88 v=0
110940 On ch=3 n=96 v=0
110940 On ch=3 n=100 v=0
110940 On ch=3 n=64 v=0
111360 On ch=3 n=105 v=0
111360 On ch=3 n=24 v=127
111360 On ch=3 n=34 v=127
111360 On ch=3 n=72 v=127
111360 On ch=3 n=76 v=127
111360 On ch=3 n=84 v=127
111360 On ch=3 n=88 v=127
111360 On ch=3 n=96 v=127
111360 On ch=3 n=100 v=127
111360 On ch=3 n=120 v=127
111360 On ch=3 n=121 v=127
111360 On ch=3 n=122 v=127
111360 On ch=3 n=123 v=127
111360 On ch=3 n=124 v=127
111360 On ch=3 n=64 v=127
111360 On ch=3 n=106 v=127
111420 On ch=3 n=24 v=0
111420 On ch=3 n=34 v=0
111420 On ch=3 n=72 v=0
111420 On ch=3 n=76 v=0
111420 On ch=3 n=84 v=0
111420 On ch=3 n=88 v=0
111420 On ch=3 n=96 v=0
111420 On ch=3 n=100 v=0
111420 On ch=3 n=64 v=0
111680 On ch=3 n=26 v=127
111680 On ch=3 n=73 v=127
111680 On ch=3 n=85 v=127
111680 On ch=3 n=97 v=127
111740 On ch=3 n=26 v=0
111740 On ch=3 n=73 v=0
111740 On ch=3 n=85 v=0
111740 On ch=3 n=97 v=0
112000 On ch=3 n=47 v=127
112000 On ch=3 n=74 v=127
112000 On ch=3 n=86 v=127
112000 On ch=3 n=98 v=127
112000 On ch=3 n=62 v=100
112060 On ch=3 n=47 v=0
112060 On ch=3 n=74 v=0
112060 On ch=3 n=86 v=0
112060 On ch=3 n=98 v=0
112060 On ch=3 n=62 v=0
112320 On ch=3 n=48 v=127
112320 On ch=3 n=49 v=127
112320 On ch=3 n=75 v=127
112320 On ch=3 n=87 v=127
112320 On ch=3 n=99 v=127
112320 On ch=3 n=63 v=100
112380 On ch=3 n=48 v=0
112380 On ch=3 n=49 v=0
112380 On ch=3 n=75 v=0
112380 On ch=3 n=87 v=0
112380 On ch=3 n=99 v=0
112380 On ch=3 n=63 v=0
112796 On ch=3 n=120 v=0
112796 On ch=3 n=121 v=0
112796 On ch=3 n=122 v=0
112796 On ch=3 n=123 v=0
112796 On ch=3 n=124 v=0
112800 On ch=3 n=24 v=127
112800 On ch=3 n=38 v=127
112800 On ch=3 n=72 v=127
112800 On ch=3 n=76 v=127
112800 On ch=3 n=84 v=127
112800 On ch=3 n=88 v=127
112800 On ch=3 n=96 v=127
112800 On ch=3 n=100 v=127
112800 On ch=3 n=64 v=127
112860 On ch=3 n=24 v=0
112860 On ch=3 n=38 v=0
112860 On ch=3 n=72 v=0
112860 On ch=3 n=76 v=0
112860 On ch=3 n=84 v=0
112860 On ch=3 n=88 v=0
112860 On ch=3 n=96 v=0
112860 On ch=3 n=100 v=0
112860 On ch=3 n=64 v=0
113280 On ch=3 n=24 v=127
113280 On ch=3 n=47 v=127
113280 On ch=3 n=72 v=127
113280 On ch=3 n=74 v=127
113280 On ch=3 n=84 v=127
113280 On ch=3 n=86 v=127
113280 On ch=3 n=96 v=127
113280 On ch=3 n=98 v=127
113280 On ch=3 n=62 v=127
113340 On ch=3 n=24 v=0
113340 On ch=3 n=47 v=0
113340 On ch=3 n=72 v=0
113340 On ch=3 n=74 v=0
113340 On ch=3 n=84 v=0
113340 On ch=3 n=86 v=0
113340 On ch=3 n=96 v=0
113340 On ch=3 n=98 v=0
113340 On ch=3 n=62 v=0
113440 On ch=3 n=46 v=127
113440 On ch=3 n=86 v=127
113440 On ch=3 n=98 v=127
113500 On ch=3 n=46 v=0
113500 On ch=3 n=86 v=0
113500 On ch=3 n=98 v=0
113600 On ch=3 n=47 v=127
113600 On ch=3 n=86 v=127
113600 On ch=3 n=98 v=127
113600 On ch=3 n=74 v=100
113660 On ch=3 n=47 v=0
113660 On ch=3 n=86 v=0
113660 On ch=3 n=98 v=0
113660 On ch=3 n=74 v=0
113760 On ch=3 n=48 v=127
113760 On ch=3 n=75 v=127
113760 On ch=3 n=87 v=127
113760 On ch=3 n=99 v=127
113760 On ch=3 n=63 v=100
113820 On ch=3 n=48 v=0
113820 On ch=3 n=75 v=0
113820 On ch=3 n=87 v=0
113820 On ch=3 n=99 v=0
113820 On ch=3 n=63 v=0
113920 On ch=3 n=49 v=127
113920 On ch=3 n=87 v=127
113920 On ch=3 n=99 v=127
113980 On ch=3 n=49 v=0
113980 On ch=3 n=87 v=0
113980 On ch=3 n=99 v=0
114080 On ch=3 n=48 v=127
114080 On ch=3 n=87 v=127
114080 On ch=3 n=99 v=127
114080 On ch=3 n=75 v=100
114140 On ch=3 n=48 v=0
114140 On ch=3 n=87 v=0
114140 On ch=3 n=99 v=0
114140 On ch=3 n=75 v=0
114240 On ch=3 n=50 v=127
114240 On ch=3 n=51 v=127
114240 On ch=3 n=76 v=127
114240 On ch=3 n=88 v=127
114240 On ch=3 n=100 v=127
114240 On ch=3 n=112 v=127
114240 On ch=3 n=63 v=100
114300 On ch=3 n=50 v=0
114300 On ch=3 n=51 v=0
114300 On ch=3 n=76 v=0
114300 On ch=3 n=88 v=0
114300 On ch=3 n=100 v=0
114300 On ch=3 n=63 v=0
114478 On ch=3 n=110 v=0
114478 On ch=3 n=111 v=0
114478 On ch=3 n=112 v=0
114560 On ch=3 n=25 v=127
114713 On ch=3 n=25 v=0
114720 On ch=3 n=24 v=127
114720 On ch=3 n=34 v=127
114720 On ch=3 n=72 v=127
114720 On ch=3 n=76 v=127
114720 On ch=3 n=84 v=127
114720 On ch=3 n=88 v=127
114720 On ch=3 n=96 v=127
114720 On ch=3 n=99 v=127
114720 On ch=3 n=60 v=127
114720 On ch=3 n=64 v=127
114720 On ch=3 n=105 v=127
114780 On ch=3 n=24 v=0
114780 On ch=3 n=34 v=0
114780 On ch=3 n=72 v=0
114780 On ch=3 n=76 v=0
114780 On ch=3 n=84 v=0
114780 On ch=3 n=88 v=0
114780 On ch=3 n=96 v=0
114780 On ch=3 n=99 v=0
114780 On ch=3 n=60 v=0
114780 On ch=3 n=64 v=0
114880 On ch=3 n=27 v=127
114880 On ch=3 n=97 v=127
114940 On ch=3 n=27 v=0
114940 On ch=3 n=97 v=0
115040 On ch=3 n=25 v=127
115040 On ch=3 n=26 v=127
115040 On ch=3 n=85 v=127
115040 On ch=3 n=97 v=127
115100 On ch=3 n=26 v=0
115100 On ch=3 n=85 v=0
115100 On ch=3 n=97 v=0
115193 On ch=3 n=25 v=0
115200 On ch=3 n=24 v=127
115200 On ch=3 n=38 v=127
115200 On ch=3 n=60 v=127
115200 On ch=3 n=64 v=127
115200 On ch=3 n=72 v=127
115200 On ch=3 n=76 v=127
115200 On ch=3 n=84 v=127
115200 On ch=3 n=88 v=127
115200 On ch=3 n=96 v=127
115200 On ch=3 n=100 v=127
115260 On ch=3 n=24 v=0
115260 On ch=3 n=38 v=0
115260 On ch=3 n=60 v=0
115260 On ch=3 n=64 v=0
115260 On ch=3 n=72 v=0
115260 On ch=3 n=76 v=0
115260 On ch=3 n=84 v=0
115260 On ch=3 n=88 v=0
115260 On ch=3 n=96 v=0
115260 On ch=3 n=100 v=0
115360 On ch=3 n=26 v=127
115360 On ch=3 n=97 v=127
115420 On ch=3 n=26 v=0
115420 On ch=3 n=97 v=0
115520 On ch=3 n=25 v=127
115520 On ch=3 n=27 v=127
115520 On ch=3 n=85 v=127
115520 On ch=3 n=97 v=127
115580 On ch=3 n=27 v=0
115580 On ch=3 n=85 v=0
115580 On ch=3 n=97 v=0
115674 On ch=3 n=25 v=0
115680 On ch=3 n=24 v=127
115680 On ch=3 n=34 v=127
115680 On ch=3 n=63 v=127
115680 On ch=3 n=72 v=127
115680 On ch=3 n=76 v=127
115680 On ch=3 n=84 v=127
115680 On ch=3 n=88 v=127
115680 On ch=3 n=96 v=127
115680 On ch=3 n=99 v=127
115680 On ch=3 n=60 v=127
115740 On ch=3 n=24 v=0
115740 On ch=3 n=34 v=0
115740 On ch=3 n=63 v=0
115740 On ch=3 n=72 v=0
115740 On ch=3 n=76 v=0
115740 On ch=3 n=84 v=0
115740 On ch=3 n=88 v=0
115740 On ch=3 n=96 v=0
115740 On ch=3 n=99 v=0
115740 On ch=3 n=60 v=0
115840 On ch=3 n=27 v=127
115840 On ch=3 n=97 v=127
115900 On ch=3 n=27 v=0
115900 On ch=3 n=97 v=0
116000 On ch=3 n=25 v=127
116000 On ch=3 n=26 v=127
116000 On ch=3 n=85 v=127
116000 On ch=3 n=97 v=127
116060 On ch=3 n=26 v=0
116060 On ch=3 n=85 v=0
116060 On ch=3 n=97 v=0
116154 On ch=3 n=25 v=0
116160 On ch=3 n=24 v=127
116160 On ch=3 n=38 v=127
116160 On ch=3 n=64 v=127
116160 On ch=3 n=72 v=127
116160 On ch=3 n=76 v=127
116160 On ch=3 n=84 v=127
116160 On ch=3 n=88 v=127
116160 On ch=3 n=96 v=127
116160 On ch=3 n=100 v=127
116160 On ch=3 n=60 v=127
116220 On ch=3 n=24 v=0
116220 On ch=3 n=38 v=0
116220 On ch=3 n=64 v=0
116220 On ch=3 n=72 v=0
116220 On ch=3 n=76 v=0
116220 On ch=3 n=84 v=0
116220 On ch=3 n=88 v=0
116220 On ch=3 n=96 v=0
116220 On ch=3 n=100 v=0
116220 On ch=3 n=60 v=0
116320 On ch=3 n=26 v=127
116320 On ch=3 n=97 v=127
116380 On ch=3 n=26 v=0
116380 On ch=3 n=97 v=0
116480 On ch=3 n=25 v=127
116480 On ch=3 n=27 v=127
116480 On ch=3 n=85 v=127
116480 On ch=3 n=97 v=127
116540 On ch=3 n=27 v=0
116540 On ch=3 n=85 v=0
116540 On ch=3 n=97 v=0
116634 On ch=3 n=25 v=0
116640 On ch=3 n=24 v=127
116640 On ch=3 n=34 v=127
116640 On ch=3 n=63 v=127
116640 On ch=3 n=72 v=127
116640 On ch=3 n=76 v=127
116640 On ch=3 n=84 v=127
116640 On ch=3 n=88 v=127
116640 On ch=3 n=96 v=127
116640 On ch=3 n=99 v=127
116640 On ch=3 n=60 v=127
116700 On ch=3 n=24 v=0
116700 On ch=3 n=34 v=0
116700 On ch=3 n=63 v=0
116700 On ch=3 n=72 v=0
116700 On ch=3 n=76 v=0
116700 On ch=3 n=84 v=0
116700 On ch=3 n=88 v=0
116700 On ch=3 n=96 v=0
116700 On ch=3 n=99 v=0
116700 On ch=3 n=60 v=0
116800 On ch=3 n=27 v=127
116800 On ch=3 n=97 v=127
116860 On ch=3 n=27 v=0
116860 On ch=3 n=97 v=0
116960 On ch=3 n=25 v=127
116960 On ch=3 n=26 v=127
116960 On ch=3 n=85 v=127
116960 On ch=3 n=97 v=127
117020 On ch=3 n=26 v=0
117020 On ch=3 n=85 v=0
117020 On ch=3 n=97 v=0
117114 On ch=3 n=25 v=0
117120 On ch=3 n=24 v=127
117120 On ch=3 n=38 v=127
117120 On ch=3 n=64 v=127
117120 On ch=3 n=72 v=127
117120 On ch=3 n=76 v=127
117120 On ch=3 n=84 v=127
117120 On ch=3 n=88 v=127
117120 On ch=3 n=96 v=127
117120 On ch=3 n=100 v=127
117120 On ch=3 n=60 v=127
117180 On ch=3 n=24 v=0
117180 On ch=3 n=38 v=0
117180 On ch=3 n=64 v=0
117180 On ch=3 n=72 v=0
117180 On ch=3 n=76 v=0
117180 On ch=3 n=84 v=0
117180 On ch=3 n=88 v=0
117180 On ch=3 n=96 v=0
117180 On ch=3 n=100 v=0
117180 On ch=3 n=60 v=0
117280 On ch=3 n=26 v=127
117280 On ch=3 n=97 v=127
117340 On ch=3 n=26 v=0
117340 On ch=3 n=97 v=0
117440 On ch=3 n=25 v=127
117440 On ch=3 n=27 v=127
117440 On ch=3 n=85 v=127
117440 On ch=3 n=97 v=127
117500 On ch=3 n=27 v=0
117500 On ch=3 n=85 v=0
117500 On ch=3 n=97 v=0
117594 On ch=3 n=25 v=0
117600 On ch=3 n=24 v=127
117600 On ch=3 n=34 v=127
117600 On ch=3 n=63 v=127
117600 On ch=3 n=72 v=127
117600 On ch=3 n=76 v=127
117600 On ch=3 n=84 v=127
117600 On ch=3 n=88 v=127
117600 On ch=3 n=96 v=127
117600 On ch=3 n=99 v=127
117600 On ch=3 n=60 v=127
117660 On ch=3 n=24 v=0
117660 On ch=3 n=34 v=0
117660 On ch=3 n=63 v=0
117660 On ch=3 n=72 v=0
117660 On ch=3 n=76 v=0
117660 On ch=3 n=84 v=0
117660 On ch=3 n=88 v=0
117660 On ch=3 n=96 v=0
117660 On ch=3 n=99 v=0
117660 On ch=3 n=60 v=0
117760 On ch=3 n=27 v=127
117760 On ch=3 n=97 v=127
117820 On ch=3 n=27 v=0
117820 On ch=3 n=97 v=0
117920 On ch=3 n=25 v=127
117920 On ch=3 n=26 v=127
117920 On ch=3 n=85 v=127
117920 On ch=3 n=97 v=127
117980 On ch=3 n=26 v=0
117980 On ch=3 n=85 v=0
117980 On ch=3 n=97 v=0
118074 On ch=3 n=25 v=0
118080 On ch=3 n=24 v=127
118080 On ch=3 n=38 v=127
118080 On ch=3 n=64 v=127
118080 On ch=3 n=72 v=127
118080 On ch=3 n=76 v=127
118080 On ch=3 n=84 v=127
118080 On ch=3 n=88 v=127
118080 On ch=3 n=96 v=127
118080 On ch=3 n=100 v=127
118080 On ch=3 n=60 v=127
118140 On ch=3 n=24 v=0
118140 On ch=3 n=38 v=0
118140 On ch=3 n=64 v=0
118140 On ch=3 n=72 v=0
118140 On ch=3 n=76 v=0
118140 On ch=3 n=84 v=0
118140 On ch=3 n=88 v=0
118140 On ch=3 n=96 v=0
118140 On ch=3 n=100 v=0
118140 On ch=3 n=60 v=0
118240 On ch=3 n=26 v=127
118240 On ch=3 n=97 v=127
118300 On ch=3 n=26 v=0
118300 On ch=3 n=97 v=0
118400 On ch=3 n=25 v=127
118400 On ch=3 n=27 v=127
118400 On ch=3 n=85 v=127
118400 On ch=3 n=97 v=127
118460 On ch=3 n=27 v=0
118460 On ch=3 n=85 v=0
118460 On ch=3 n=97 v=0
118554 On ch=3 n=25 v=0
118560 On ch=3 n=24 v=127
118560 On ch=3 n=34 v=127
118560 On ch=3 n=63 v=127
118560 On ch=3 n=72 v=127
118560 On ch=3 n=76 v=127
118560 On ch=3 n=84 v=127
118560 On ch=3 n=88 v=127
118560 On ch=3 n=96 v=127
118560 On ch=3 n=99 v=127
118560 On ch=3 n=60 v=127
118620 On ch=3 n=24 v=0
118620 On ch=3 n=34 v=0
118620 On ch=3 n=63 v=0
118620 On ch=3 n=72 v=0
118620 On ch=3 n=76 v=0
118620 On ch=3 n=84 v=0
118620 On ch=3 n=88 v=0
118620 On ch=3 n=96 v=0
118620 On ch=3 n=99 v=0
118620 On ch=3 n=60 v=0
118720 On ch=3 n=27 v=127
118720 On ch=3 n=97 v=127
118780 On ch=3 n=27 v=0
118780 On ch=3 n=97 v=0
118880 On ch=3 n=25 v=127
118880 On ch=3 n=26 v=127
118880 On ch=3 n=85 v=127
118880 On ch=3 n=97 v=127
118940 On ch=3 n=26 v=0
118940 On ch=3 n=85 v=0
118940 On ch=3 n=97 v=0
119034 On ch=3 n=25 v=0
119040 On ch=3 n=24 v=127
119040 On ch=3 n=38 v=127
119040 On ch=3 n=64 v=127
119040 On ch=3 n=72 v=127
119040 On ch=3 n=76 v=127
119040 On ch=3 n=84 v=127
119040 On ch=3 n=88 v=127
119040 On ch=3 n=96 v=127
119040 On ch=3 n=100 v=127
119040 On ch=3 n=60 v=127
119100 On ch=3 n=24 v=0
119100 On ch=3 n=38 v=0
119100 On ch=3 n=64 v=0
119100 On ch=3 n=72 v=0
119100 On ch=3 n=76 v=0
119100 On ch=3 n=84 v=0
119100 On ch=3 n=88 v=0
119100 On ch=3 n=96 v=0
119100 On ch=3 n=100 v=0
119100 On ch=3 n=60 v=0
119200 On ch=3 n=26 v=127
119200 On ch=3 n=97 v=127
119260 On ch=3 n=26 v=0
119260 On ch=3 n=97 v=0
119360 On ch=3 n=25 v=127
119360 On ch=3 n=27 v=127
119360 On ch=3 n=85 v=127
119360 On ch=3 n=97 v=127
119420 On ch=3 n=27 v=0
119420 On ch=3 n=85 v=0
119420 On ch=3 n=97 v=0
119514 On ch=3 n=25 v=0
119520 On ch=3 n=24 v=127
119520 On ch=3 n=34 v=127
119520 On ch=3 n=63 v=127
119520 On ch=3 n=72 v=127
119520 On ch=3 n=76 v=127
119520 On ch=3 n=84 v=127
119520 On ch=3 n=88 v=127
119520 On ch=3 n=96 v=127
119520 On ch=3 n=99 v=127
119520 On ch=3 n=60 v=127
119580 On ch=3 n=24 v=0
119580 On ch=3 n=34 v=0
119580 On ch=3 n=63 v=0
119580 On ch=3 n=72 v=0
119580 On ch=3 n=76 v=0
119580 On ch=3 n=84 v=0
119580 On ch=3 n=88 v=0
119580 On ch=3 n=96 v=0
119580 On ch=3 n=99 v=0
119580 On ch=3 n=60 v=0
119680 On ch=3 n=27 v=127
119680 On ch=3 n=97 v=127
119740 On ch=3 n=27 v=0
119740 On ch=3 n=97 v=0
119840 On ch=3 n=25 v=127
119840 On ch=3 n=26 v=127
119840 On ch=3 n=85 v=127
119840 On ch=3 n=97 v=127
119900 On ch=3 n=26 v=0
119900 On ch=3 n=85 v=0
119900 On ch=3 n=97 v=0
119994 On ch=3 n=25 v=0
120000 On ch=3 n=24 v=127
120000 On ch=3 n=38 v=127
120000 On ch=3 n=64 v=127
120000 On ch=3 n=72 v=127
120000 On ch=3 n=76 v=127
120000 On ch=3 n=84 v=127
120000 On ch=3 n=88 v=127
120000 On ch=3 n=96 v=127
120000 On ch=3 n=100 v=127
120000 On ch=3 n=60 v=127
120060 On ch=3 n=24 v=0
120060 On ch=3 n=38 v=0
120060 On ch=3 n=64 v=0
120060 On ch=3 n=72 v=0
120060 On ch=3 n=76 v=0
120060 On ch=3 n=84 v=0
120060 On ch=3 n=88 v=0
120060 On ch=3 n=96 v=0
120060 On ch=3 n=100 v=0
120060 On ch=3 n=60 v=0
120160 On ch=3 n=26 v=127
120160 On ch=3 n=97 v=127
120220 On ch=3 n=26 v=0
120220 On ch=3 n=97 v=0
120320 On ch=3 n=25 v=127
120320 On ch=3 n=27 v=127
120320 On ch=3 n=85 v=127
120320 On ch=3 n=97 v=127
120380 On ch=3 n=27 v=0
120380 On ch=3 n=85 v=0
120380 On ch=3 n=97 v=0
120474 On ch=3 n=25 v=0
120480 On ch=3 n=24 v=127
120480 On ch=3 n=34 v=127
120480 On ch=3 n=63 v=127
120480 On ch=3 n=72 v=127
120480 On ch=3 n=76 v=127
120480 On ch=3 n=84 v=127
120480 On ch=3 n=88 v=127
120480 On ch=3 n=96 v=127
120480 On ch=3 n=99 v=127
120480 On ch=3 n=60 v=127
120540 On ch=3 n=24 v=0
120540 On ch=3 n=34 v=0
120540 On ch=3 n=63 v=0
120540 On ch=3 n=72 v=0
120540 On ch=3 n=76 v=0
120540 On ch=3 n=84 v=0
120540 On ch=3 n=88 v=0
120540 On ch=3 n=96 v=0
120540 On ch=3 n=99 v=0
120540 On ch=3 n=60 v=0
120640 On ch=3 n=27 v=127
120640 On ch=3 n=97 v=127
120700 On ch=3 n=27 v=0
120700 On ch=3 n=97 v=0
120800 On ch=3 n=25 v=127
120800 On ch=3 n=26 v=127
120800 On ch=3 n=85 v=127
120800 On ch=3 n=97 v=127
120860 On ch=3 n=26 v=0
120860 On ch=3 n=85 v=0
120860 On ch=3 n=97 v=0
120954 On ch=3 n=25 v=0
120960 On ch=3 n=24 v=127
120960 On ch=3 n=38 v=127
120960 On ch=3 n=64 v=127
120960 On ch=3 n=72 v=127
120960 On ch=3 n=76 v=127
120960 On ch=3 n=84 v=127
120960 On ch=3 n=88 v=127
120960 On ch=3 n=96 v=127
120960 On ch=3 n=100 v=127
120960 On ch=3 n=120 v=127
120960 On ch=3 n=121 v=127
120960 On ch=3 n=122 v=127
120960 On ch=3 n=123 v=127
120960 On ch=3 n=124 v=127
120960 On ch=3 n=60 v=127
121020 On ch=3 n=24 v=0
121020 On ch=3 n=38 v=0
121020 On ch=3 n=64 v=0
121020 On ch=3 n=72 v=0
121020 On ch=3 n=76 v=0
121020 On ch=3 n=84 v=0
121020 On ch=3 n=88 v=0
121020 On ch=3 n=96 v=0
121020 On ch=3 n=100 v=0
121020 On ch=3 n=60 v=0
121120 On ch=3 n=26 v=127
121120 On ch=3 n=97 v=127
121180 On ch=3 n=26 v=0
121180 On ch=3 n=97 v=0
121280 On ch=3 n=25 v=127
121280 On ch=3 n=27 v=127
121280 On ch=3 n=85 v=127
121280 On ch=3 n=97 v=127
121340 On ch=3 n=27 v=0
121340 On ch=3 n=85 v=0
121340 On ch=3 n=97 v=0
121433 On ch=3 n=25 v=0
121440 On ch=3 n=24 v=127
121440 On ch=3 n=34 v=127
121440 On ch=3 n=63 v=127
121440 On ch=3 n=72 v=127
121440 On ch=3 n=76 v=127
121440 On ch=3 n=84 v=127
121440 On ch=3 n=88 v=127
121440 On ch=3 n=96 v=127
121440 On ch=3 n=99 v=127
121440 On ch=3 n=60 v=127
121500 On ch=3 n=24 v=0
121500 On ch=3 n=34 v=0
121500 On ch=3 n=63 v=0
121500 On ch=3 n=72 v=0
121500 On ch=3 n=76 v=0
121500 On ch=3 n=84 v=0
121500 On ch=3 n=88 v=0
121500 On ch=3 n=96 v=0
121500 On ch=3 n=99 v=0
121500 On ch=3 n=60 v=0
121600 On ch=3 n=27 v=127
121600 On ch=3 n=97 v=127
121660 On ch=3 n=27 v=0
121660 On ch=3 n=97 v=0
121760 On ch=3 n=25 v=127
121760 On ch=3 n=26 v=127
121760 On ch=3 n=85 v=127
121760 On ch=3 n=97 v=127
121820 On ch=3 n=26 v=0
121820 On ch=3 n=85 v=0
121820 On ch=3 n=97 v=0
121913 On ch=3 n=25 v=0
121920 On ch=3 n=24 v=127
121920 On ch=3 n=38 v=127
121920 On ch=3 n=64 v=127
121920 On ch=3 n=72 v=127
121920 On ch=3 n=76 v=127
121920 On ch=3 n=84 v=127
121920 On ch=3 n=88 v=127
121920 On ch=3 n=96 v=127
121920 On ch=3 n=100 v=127
121920 On ch=3 n=60 v=127
121980 On ch=3 n=24 v=0
121980 On ch=3 n=38 v=0
121980 On ch=3 n=64 v=0
121980 On ch=3 n=72 v=0
121980 On ch=3 n=76 v=0
121980 On ch=3 n=84 v=0
121980 On ch=3 n=88 v=0
121980 On ch=3 n=96 v=0
121980 On ch=3 n=100 v=0
121980 On ch=3 n=60 v=0
122080 On ch=3 n=26 v=127
122080 On ch=3 n=97 v=127
122140 On ch=3 n=26 v=0
122140 On ch=3 n=97 v=0
122240 On ch=3 n=25 v=127
122240 On ch=3 n=27 v=127
122240 On ch=3 n=85 v=127
122240 On ch=3 n=97 v=127
122300 On ch=3 n=27 v=0
122300 On ch=3 n=85 v=0
122300 On ch=3 n=97 v=0
122394 On ch=3 n=25 v=0
122400 On ch=3 n=24 v=127
122400 On ch=3 n=34 v=127
122400 On ch=3 n=63 v=127
122400 On ch=3 n=72 v=127
122400 On ch=3 n=76 v=127
122400 On ch=3 n=84 v=127
122400 On ch=3 n=88 v=127
122400 On ch=3 n=96 v=127
122400 On ch=3 n=99 v=127
122400 On ch=3 n=60 v=127
122460 On ch=3 n=24 v=0
122460 On ch=3 n=34 v=0
122460 On ch=3 n=63 v=0
122460 On ch=3 n=72 v=0
122460 On ch=3 n=76 v=0
122460 On ch=3 n=84 v=0
122460 On ch=3 n=88 v=0
122460 On ch=3 n=96 v=0
122460 On ch=3 n=99 v=0
122460 On ch=3 n=60 v=0
122560 On ch=3 n=27 v=127
122560 On ch=3 n=97 v=127
122620 On ch=3 n=27 v=0
122620 On ch=3 n=97 v=0
122720 On ch=3 n=25 v=127
122720 On ch=3 n=26 v=127
122720 On ch=3 n=85 v=127
122720 On ch=3 n=97 v=127
122780 On ch=3 n=26 v=0
122780 On ch=3 n=85 v=0
122780 On ch=3 n=97 v=0
122874 On ch=3 n=25 v=0
122875 On ch=3 n=120 v=0
122875 On ch=3 n=121 v=0
122875 On ch=3 n=122 v=0
122875 On ch=3 n=123 v=0
122875 On ch=3 n=124 v=0
122880 On ch=3 n=24 v=127
122880 On ch=3 n=38 v=127
122880 On ch=3 n=60 v=127
122880 On ch=3 n=64 v=127
122880 On ch=3 n=72 v=127
122880 On ch=3 n=76 v=127
122880 On ch=3 n=84 v=127
122880 On ch=3 n=88 v=127
122880 On ch=3 n=96 v=127
122880 On ch=3 n=100 v=127
122940 On ch=3 n=24 v=0
122940 On ch=3 n=38 v=0
122940 On ch=3 n=60 v=0
122940 On ch=3 n=64 v=0
122940 On ch=3 n=72 v=0
122940 On ch=3 n=76 v=0
122940 On ch=3 n=84 v=0
122940 On ch=3 n=88 v=0
122940 On ch=3 n=96 v=0
122940 On ch=3 n=100 v=0
123040 On ch=3 n=26 v=127
123040 On ch=3 n=85 v=127
123040 On ch=3 n=97 v=127
123100 On ch=3 n=26 v=0
123100 On ch=3 n=85 v=0
123100 On ch=3 n=97 v=0
123200 On ch=3 n=27 v=127
123200 On ch=3 n=85 v=127
123200 On ch=3 n=97 v=127
123260 On ch=3 n=27 v=0
123260 On ch=3 n=85 v=0
123260 On ch=3 n=97 v=0
123360 On ch=3 n=26 v=127
123360 On ch=3 n=61 v=127
123360 On ch=3 n=73 v=127
123360 On ch=3 n=85 v=127
123360 On ch=3 n=97 v=127
123420 On ch=3 n=26 v=0
123420 On ch=3 n=61 v=0
123420 On ch=3 n=73 v=0
123420 On ch=3 n=85 v=0
123420 On ch=3 n=97 v=0
123520 On ch=3 n=27 v=127
123520 On ch=3 n=85 v=127
123520 On ch=3 n=97 v=127
123580 On ch=3 n=27 v=0
123580 On ch=3 n=85 v=0
123580 On ch=3 n=97 v=0
123680 On ch=3 n=25 v=127
123680 On ch=3 n=26 v=127
123680 On ch=3 n=85 v=127
123680 On ch=3 n=97 v=127
123680 On ch=3 n=73 v=100
123740 On ch=3 n=26 v=0
123740 On ch=3 n=85 v=0
123740 On ch=3 n=97 v=0
123740 On ch=3 n=73 v=0
123834 On ch=3 n=25 v=0
123840 On ch=3 n=47 v=127
123840 On ch=3 n=62 v=127
123840 On ch=3 n=74 v=127
123840 On ch=3 n=86 v=127
123840 On ch=3 n=98 v=127
123840 On ch=3 n=110 v=127
123840 On ch=3 n=111 v=127
123840 On ch=3 n=112 v=127
123900 On ch=3 n=47 v=0
123900 On ch=3 n=62 v=0
123900 On ch=3 n=74 v=0
123900 On ch=3 n=86 v=0
123900 On ch=3 n=98 v=0
124000 On ch=3 n=46 v=127
124000 On ch=3 n=86 v=127
124000 On ch=3 n=98 v=127
124060 On ch=3 n=46 v=0
124060 On ch=3 n=86 v=0
124060 On ch=3 n=98 v=0
124160 On ch=3 n=47 v=127
124160 On ch=3 n=86 v=127
124160 On ch=3 n=98 v=127
124160 On ch=3 n=74 v=100
124220 On ch=3 n=47 v=0
124220 On ch=3 n=86 v=0
124220 On ch=3 n=98 v=0
124220 On ch=3 n=74 v=0
124320 On ch=3 n=46 v=127
124320 On ch=3 n=62 v=127
124320 On ch=3 n=74 v=127
124320 On ch=3 n=86 v=127
124320 On ch=3 n=98 v=127
124380 On ch=3 n=46 v=0
124380 On ch=3 n=62 v=0
124380 On ch=3 n=74 v=0
124380 On ch=3 n=86 v=0
124380 On ch=3 n=98 v=0
124480 On ch=3 n=47 v=127
124480 On ch=3 n=86 v=127
124480 On ch=3 n=98 v=127
124540 On ch=3 n=47 v=0
124540 On ch=3 n=86 v=0
124540 On ch=3 n=98 v=0
124640 On ch=3 n=25 v=127
124640 On ch=3 n=46 v=127
124640 On ch=3 n=86 v=127
124640 On ch=3 n=98 v=127
124640 On ch=3 n=74 v=100
124700 On ch=3 n=46 v=0
124700 On ch=3 n=86 v=0
124700 On ch=3 n=98 v=0
124700 On ch=3 n=74 v=0
124794 On ch=3 n=25 v=0
124800 On ch=3 n=49 v=127
124800 On ch=3 n=63 v=127
124800 On ch=3 n=75 v=127
124800 On ch=3 n=87 v=127
124800 On ch=3 n=99 v=127
124860 On ch=3 n=49 v=0
124860 On ch=3 n=63 v=0
124860 On ch=3 n=75 v=0
124860 On ch=3 n=87 v=0
124860 On ch=3 n=99 v=0
124960 On ch=3 n=48 v=127
124960 On ch=3 n=87 v=127
124960 On ch=3 n=99 v=127
125020 On ch=3 n=48 v=0
125020 On ch=3 n=87 v=0
125020 On ch=3 n=99 v=0
125120 On ch=3 n=49 v=127
125120 On ch=3 n=87 v=127
125120 On ch=3 n=99 v=127
125120 On ch=3 n=75 v=100
125180 On ch=3 n=49 v=0
125180 On ch=3 n=87 v=0
125180 On ch=3 n=99 v=0
125180 On ch=3 n=75 v=0
125280 On ch=3 n=48 v=127
125280 On ch=3 n=63 v=127
125280 On ch=3 n=75 v=127
125280 On ch=3 n=87 v=127
125280 On ch=3 n=99 v=127
125340 On ch=3 n=48 v=0
125340 On ch=3 n=63 v=0
125340 On ch=3 n=75 v=0
125340 On ch=3 n=87 v=0
125340 On ch=3 n=99 v=0
125440 On ch=3 n=49 v=127
125440 On ch=3 n=87 v=127
125440 On ch=3 n=99 v=127
125500 On ch=3 n=49 v=0
125500 On ch=3 n=87 v=0
125500 On ch=3 n=99 v=0
125600 On ch=3 n=25 v=127
125600 On ch=3 n=48 v=127
125600 On ch=3 n=87 v=127
125600 On ch=3 n=99 v=127
125600 On ch=3 n=75 v=100
125660 On ch=3 n=48 v=0
125660 On ch=3 n=87 v=0
125660 On ch=3 n=99 v=0
125660 On ch=3 n=75 v=0
125754 On ch=3 n=25 v=0
125760 On ch=3 n=46 v=127
125760 On ch=3 n=63 v=127
125760 On ch=3 n=75 v=127
125760 On ch=3 n=87 v=127
125760 On ch=3 n=98 v=127
125760 On ch=3 n=99 v=127
125782 On ch=3 n=49 v=127
125820 On ch=3 n=46 v=0
125820 On ch=3 n=63 v=0
125820 On ch=3 n=75 v=0
125820 On ch=3 n=87 v=0
125820 On ch=3 n=98 v=0
125820 On ch=3 n=99 v=0
125842 On ch=3 n=49 v=0
125920 On ch=3 n=24 v=127
125920 On ch=3 n=84 v=127
125920 On ch=3 n=96 v=127
125980 On ch=3 n=24 v=0
125980 On ch=3 n=84 v=0
125980 On ch=3 n=96 v=0
126080 On ch=3 n=49 v=127
126080 On ch=3 n=87 v=127
126080 On ch=3 n=99 v=127
126080 On ch=3 n=75 v=100
126140 On ch=3 n=49 v=0
126140 On ch=3 n=87 v=0
126140 On ch=3 n=99 v=0
126140 On ch=3 n=75 v=0
126240 On ch=3 n=48 v=127
126240 On ch=3 n=64 v=127
126240 On ch=3 n=76 v=127
126240 On ch=3 n=88 v=127
126240 On ch=3 n=99 v=127
126240 On ch=3 n=100 v=127
126266 On ch=3 n=51 v=127
126300 On ch=3 n=48 v=0
126300 On ch=3 n=64 v=0
126300 On ch=3 n=76 v=0
126300 On ch=3 n=88 v=0
126300 On ch=3 n=99 v=0
126300 On ch=3 n=100 v=0
126326 On ch=3 n=51 v=0
126400 On ch=3 n=24 v=127
126400 On ch=3 n=72 v=127
126400 On ch=3 n=84 v=127
126400 On ch=3 n=96 v=127
126460 On ch=3 n=24 v=0
126460 On ch=3 n=72 v=0
126460 On ch=3 n=84 v=0
126460 On ch=3 n=96 v=0
126479 On ch=3 n=110 v=0
126479 On ch=3 n=111 v=0
126479 On ch=3 n=112 v=0
126560 On ch=3 n=24 v=127
126560 On ch=3 n=25 v=127
126560 On ch=3 n=72 v=127
126560 On ch=3 n=84 v=127
126560 On ch=3 n=96 v=127
126560 On ch=3 n=60 v=100
126620 On ch=3 n=24 v=0
126620 On ch=3 n=72 v=0
126620 On ch=3 n=84 v=0
126620 On ch=3 n=96 v=0
126620 On ch=3 n=60 v=0
126714 On ch=3 n=25 v=0
126720 On ch=3 n=24 v=127
126720 On ch=3 n=34 v=127
126720 On ch=3 n=38 v=127
126720 On ch=3 n=60 v=127
126720 On ch=3 n=64 v=127
126720 On ch=3 n=72 v=127
126720 On ch=3 n=76 v=127
126720 On ch=3 n=84 v=127
126720 On ch=3 n=88 v=127
126720 On ch=3 n=96 v=127
126720 On ch=3 n=100 v=127
126780 On ch=3 n=24 v=0
126780 On ch=3 n=34 v=0
126780 On ch=3 n=38 v=0
126780 On ch=3 n=60 v=0
126780 On ch=3 n=64 v=0
126780 On ch=3 n=72 v=0
126780 On ch=3 n=76 v=0
126780 On ch=3 n=84 v=0
126780 On ch=3 n=88 v=0
126780 On ch=3 n=96 v=0
126780 On ch=3 n=100 v=0
126960 On ch=3 n=39 v=127
127020 On ch=3 n=39 v=0
127080 On ch=3 n=35 v=127
127140 On ch=3 n=35 v=0
127200 On ch=3 n=39 v=127
127260 On ch=3 n=39 v=0
127320 On ch=3 n=35 v=127
127380 On ch=3 n=35 v=0
127440 On ch=3 n=39 v=127
127500 On ch=3 n=39 v=0
127560 On ch=3 n=35 v=127
127620 On ch=3 n=35 v=0
127680 On ch=3 n=39 v=127
127740 On ch=3 n=39 v=0
127760 On ch=3 n=35 v=127
127820 On ch=3 n=35 v=0
127840 On ch=3 n=39 v=127
127900 On ch=3 n=39 v=0
127920 On ch=3 n=35 v=127
127980 On ch=3 n=35 v=0
128000 On ch=3 n=39 v=127
128060 On ch=3 n=39 v=0
128080 On ch=3 n=35 v=127
128140 On ch=3 n=35 v=0
128160 On ch=3 n=39 v=127
128220 On ch=3 n=39 v=0
128240 On ch=3 n=35 v=127
128300 On ch=3 n=35 v=0
128320 On ch=3 n=39 v=127
128380 On ch=3 n=39 v=0
128400 On ch=3 n=35 v=127
128460 On ch=3 n=35 v=0
128480 On ch=3 n=39 v=127
128540 On ch=3 n=39 v=0
128560 On ch=3 n=35 v=127
128620 On ch=3 n=35 v=0
128640 On ch=3 n=39 v=127
128700 On ch=3 n=39 v=0
128720 On ch=3 n=35 v=127
128780 On ch=3 n=35 v=0
128800 On ch=3 n=39 v=127
128860 On ch=3 n=39 v=0
128880 On ch=3 n=35 v=127
128940 On ch=3 n=35 v=0
128960 On ch=3 n=39 v=127
129020 On ch=3 n=39 v=0
129120 On ch=3 n=24 v=127
129120 On ch=3 n=34 v=127
129120 On ch=3 n=38 v=127
129120 On ch=3 n=60 v=127
129120 On ch=3 n=64 v=127
129120 On ch=3 n=72 v=127
129120 On ch=3 n=76 v=127
129120 On ch=3 n=84 v=127
129120 On ch=3 n=88 v=127
129120 On ch=3 n=96 v=127
129120 On ch=3 n=100 v=127
129180 On ch=3 n=24 v=0
129180 On ch=3 n=34 v=0
129180 On ch=3 n=38 v=0
129180 On ch=3 n=60 v=0
129180 On ch=3 n=64 v=0
129180 On ch=3 n=72 v=0
129180 On ch=3 n=76 v=0
129180 On ch=3 n=84 v=0
129180 On ch=3 n=88 v=0
129180 On ch=3 n=96 v=0
129180 On ch=3 n=100 v=0
129280 On ch=3 n=105 v=0
129360 On ch=3 n=39 v=127
129420 On ch=3 n=39 v=0
129480 On ch=3 n=35 v=127
129540 On ch=3 n=35 v=0
129600 On ch=3 n=39 v=127
129660 On ch=3 n=39 v=0
129720 On ch=3 n=35 v=127
129780 On ch=3 n=35 v=0
129840 On ch=3 n=39 v=127
129900 On ch=3 n=39 v=0
129960 On ch=3 n=35 v=127
130020 On ch=3 n=35 v=0
130080 On ch=3 n=39 v=127
130140 On ch=3 n=39 v=0
130160 On ch=3 n=35 v=127
130220 On ch=3 n=35 v=0
130240 On ch=3 n=39 v=127
130300 On ch=3 n=39 v=0
130320 On ch=3 n=35 v=127
130380 On ch=3 n=35 v=0
130400 On ch=3 n=39 v=127
130460 On ch=3 n=39 v=0
130480 On ch=3 n=35 v=127
130540 On ch=3 n=35 v=0
130560 On ch=3 n=39 v=127
130620 On ch=3 n=39 v=0
130640 On ch=3 n=35 v=127
130700 On ch=3 n=35 v=0
130720 On ch=3 n=39 v=127
130780 On ch=3 n=39 v=0
130800 On ch=3 n=35 v=127
130860 On ch=3 n=35 v=0
130880 On ch=3 n=39 v=127
130940 On ch=3 n=39 v=0
130960 On ch=3 n=35 v=127
131020 On ch=3 n=35 v=0
131040 On ch=3 n=39 v=127
131100 On ch=3 n=39 v=0
131120 On ch=3 n=35 v=127
131180 On ch=3 n=35 v=0
131200 On ch=3 n=39 v=127
131260 On ch=3 n=39 v=0
131280 On ch=3 n=35 v=127
131340 On ch=3 n=35 v=0
131360 On ch=3 n=39 v=127
131420 On ch=3 n=39 v=0
131520 On ch=3 n=106 v=0
131520 On ch=3 n=24 v=127
131520 On ch=3 n=34 v=127
131520 On ch=3 n=38 v=127
131520 On ch=3 n=60 v=127
131520 On ch=3 n=64 v=127
131520 On ch=3 n=72 v=127
131520 On ch=3 n=76 v=127
131520 On ch=3 n=84 v=127
131520 On ch=3 n=88 v=127
131520 On ch=3 n=96 v=127
131520 On ch=3 n=100 v=127
131520 On ch=3 n=105 v=100
131580 On ch=3 n=24 v=0
131580 On ch=3 n=34 v=0
131580 On ch=3 n=38 v=0
131580 On ch=3 n=60 v=0
131580 On ch=3 n=64 v=0
131580 On ch=3 n=72 v=0
131580 On ch=3 n=76 v=0
131580 On ch=3 n=84 v=0
131580 On ch=3 n=88 v=0
131580 On ch=3 n=96 v=0
131580 On ch=3 n=100 v=0
131760 On ch=3 n=39 v=127
131820 On ch=3 n=39 v=0
131880 On ch=3 n=35 v=127
131940 On ch=3 n=35 v=0
132000 On ch=3 n=39 v=127
132060 On ch=3 n=39 v=0
132120 On ch=3 n=35 v=127
132180 On ch=3 n=35 v=0
132240 On ch=3 n=39 v=127
132300 On ch=3 n=39 v=0
132360 On ch=3 n=35 v=127
132420 On ch=3 n=35 v=0
132480 On ch=3 n=39 v=127
132540 On ch=3 n=39 v=0
132560 On ch=3 n=35 v=127
132620 On ch=3 n=35 v=0
132640 On ch=3 n=39 v=127
132700 On ch=3 n=39 v=0
132720 On ch=3 n=35 v=127
132780 On ch=3 n=35 v=0
132800 On ch=3 n=39 v=127
132860 On ch=3 n=39 v=0
132880 On ch=3 n=35 v=127
132940 On ch=3 n=35 v=0
132960 On ch=3 n=39 v=127
133020 On ch=3 n=39 v=0
133040 On ch=3 n=35 v=127
133100 On ch=3 n=35 v=0
133120 On ch=3 n=39 v=127
133180 On ch=3 n=39 v=0
133200 On ch=3 n=35 v=127
133260 On ch=3 n=35 v=0
133280 On ch=3 n=39 v=127
133340 On ch=3 n=39 v=0
133360 On ch=3 n=35 v=127
133420 On ch=3 n=35 v=0
133440 On ch=3 n=39 v=127
133500 On ch=3 n=39 v=0
133520 On ch=3 n=35 v=127
133580 On ch=3 n=35 v=0
133600 On ch=3 n=39 v=127
133660 On ch=3 n=39 v=0
133680 On ch=3 n=35 v=127
133740 On ch=3 n=35 v=0
133760 On ch=3 n=39 v=127
133820 On ch=3 n=39 v=0
133920 On ch=3 n=105 v=0
133920 On ch=3 n=24 v=127
133920 On ch=3 n=34 v=127
133920 On ch=3 n=38 v=127
133920 On ch=3 n=60 v=127
133920 On ch=3 n=64 v=127
133920 On ch=3 n=72 v=127
133920 On ch=3 n=76 v=127
133920 On ch=3 n=84 v=127
133920 On ch=3 n=88 v=127
133920 On ch=3 n=96 v=127
133920 On ch=3 n=100 v=127
133920 On ch=3 n=106 v=100
133980 On ch=3 n=24 v=0
133980 On ch=3 n=34 v=0
133980 On ch=3 n=38 v=0
133980 On ch=3 n=60 v=0
133980 On ch=3 n=64 v=0
133980 On ch=3 n=72 v=0
133980 On ch=3 n=76 v=0
133980 On ch=3 n=84 v=0
133980 On ch=3 n=88 v=0
133980 On ch=3 n=96 v=0
133980 On ch=3 n=100 v=0
134160 On ch=3 n=39 v=127
134220 On ch=3 n=39 v=0
134280 On ch=3 n=35 v=127
134340 On ch=3 n=35 v=0
134400 On ch=3 n=39 v=127
134460 On ch=3 n=39 v=0
134520 On ch=3 n=35 v=127
134580 On ch=3 n=35 v=0
134640 On ch=3 n=39 v=127
134700 On ch=3 n=39 v=0
134760 On ch=3 n=35 v=127
134820 On ch=3 n=35 v=0
134880 On ch=3 n=39 v=127
134940 On ch=3 n=39 v=0
134960 On ch=3 n=35 v=127
135020 On ch=3 n=35 v=0
135040 On ch=3 n=39 v=127
135100 On ch=3 n=39 v=0
135120 On ch=3 n=35 v=127
135180 On ch=3 n=35 v=0
135200 On ch=3 n=39 v=127
135260 On ch=3 n=39 v=0
135280 On ch=3 n=35 v=127
135340 On ch=3 n=35 v=0
135360 On ch=3 n=39 v=127
135420 On ch=3 n=39 v=0
135440 On ch=3 n=35 v=127
135500 On ch=3 n=35 v=0
135520 On ch=3 n=39 v=127
135580 On ch=3 n=39 v=0
135600 On ch=3 n=35 v=127
135660 On ch=3 n=35 v=0
135680 On ch=3 n=39 v=127
135740 On ch=3 n=39 v=0
135760 On ch=3 n=35 v=127
135820 On ch=3 n=35 v=0
135840 On ch=3 n=39 v=127
135900 On ch=3 n=39 v=0
135920 On ch=3 n=35 v=127
135980 On ch=3 n=35 v=0
136000 On ch=3 n=39 v=127
136000 On ch=3 n=105 v=100
136060 On ch=3 n=39 v=0
136080 On ch=3 n=35 v=127
136140 On ch=3 n=35 v=0
136160 On ch=3 n=39 v=127
136220 On ch=3 n=39 v=0
136320 On ch=3 n=24 v=127
136320 On ch=3 n=34 v=127
136320 On ch=3 n=38 v=127
136320 On ch=3 n=60 v=127
136320 On ch=3 n=64 v=127
136320 On ch=3 n=72 v=127
136320 On ch=3 n=76 v=127
136320 On ch=3 n=84 v=127
136320 On ch=3 n=88 v=127
136320 On ch=3 n=96 v=127
136320 On ch=3 n=100 v=127
136320 On ch=3 n=116 v=100
136380 On ch=3 n=24 v=0
136380 On ch=3 n=34 v=0
136380 On ch=3 n=38 v=0
136380 On ch=3 n=60 v=0
136380 On ch=3 n=64 v=0
136380 On ch=3 n=72 v=0
136380 On ch=3 n=76 v=0
136380 On ch=3 n=84 v=0
136380 On ch=3 n=88 v=0
136380 On ch=3 n=96 v=0
136380 On ch=3 n=100 v=0
136560 On ch=3 n=39 v=127
136620 On ch=3 n=39 v=0
136640 On ch=3 n=35 v=127
136700 On ch=3 n=35 v=0
136720 On ch=3 n=39 v=127
136780 On ch=3 n=39 v=0
136800 On ch=3 n=35 v=127
136860 On ch=3 n=35 v=0
136880 On ch=3 n=39 v=127
136940 On ch=3 n=39 v=0
136960 On ch=3 n=35 v=127
137020 On ch=3 n=35 v=0
137040 On ch=3 n=39 v=127
137100 On ch=3 n=39 v=0
137120 On ch=3 n=35 v=127
137180 On ch=3 n=35 v=0
137200 On ch=3 n=39 v=127
137260 On ch=3 n=39 v=0
137280 On ch=3 n=35 v=127
137340 On ch=3 n=35 v=0
137360 On ch=3 n=39 v=127
137420 On ch=3 n=39 v=0
137440 On ch=3 n=35 v=127
137500 On ch=3 n=35 v=0
137520 On ch=3 n=39 v=127
137580 On ch=3 n=39 v=0
137600 On ch=3 n=35 v=127
137660 On ch=3 n=35 v=0
137680 On ch=3 n=39 v=127
137740 On ch=3 n=39 v=0
137760 On ch=3 n=35 v=127
137820 On ch=3 n=35 v=0
137840 On ch=3 n=39 v=127
137900 On ch=3 n=39 v=0
137920 On ch=3 n=35 v=127
137980 On ch=3 n=35 v=0
138000 On ch=3 n=39 v=127
138060 On ch=3 n=39 v=0
138080 On ch=3 n=35 v=127
138140 On ch=3 n=35 v=0
138160 On ch=3 n=39 v=127
138220 On ch=3 n=39 v=0
138240 On ch=3 n=35 v=127
138300 On ch=3 n=35 v=0
138320 On ch=3 n=39 v=127
138380 On ch=3 n=39 v=0
138400 On ch=3 n=35 v=127
138460 On ch=3 n=35 v=0
138480 On ch=3 n=39 v=127
138540 On ch=3 n=39 v=0
138560 On ch=3 n=35 v=127
138620 On ch=3 n=35 v=0
138640 On ch=3 n=39 v=127
138700 On ch=3 n=39 v=0
138720 On ch=3 n=25 v=127
138720 On ch=3 n=30 v=127
138780 On ch=3 n=30 v=0
138800 On ch=3 n=39 v=127
138860 On ch=3 n=39 v=0
138880 On ch=3 n=30 v=127
138940 On ch=3 n=30 v=0
138960 On ch=3 n=39 v=127
139020 On ch=3 n=39 v=0
139040 On ch=3 n=30 v=127
139100 On ch=3 n=30 v=0
139120 On ch=3 n=39 v=127
139180 On ch=3 n=39 v=0
139200 On ch=3 n=30 v=127
139260 On ch=3 n=30 v=0
139280 On ch=3 n=39 v=127
139340 On ch=3 n=39 v=0
139360 On ch=3 n=30 v=127
139420 On ch=3 n=30 v=0
139440 On ch=3 n=39 v=127
139500 On ch=3 n=39 v=0
139520 On ch=3 n=30 v=127
139580 On ch=3 n=30 v=0
139600 On ch=3 n=39 v=127
139660 On ch=3 n=39 v=0
139680 On ch=3 n=30 v=127
139740 On ch=3 n=30 v=0
139760 On ch=3 n=39 v=127
139820 On ch=3 n=39 v=0
139840 On ch=3 n=34 v=127
139900 On ch=3 n=34 v=0
139920 On ch=3 n=38 v=127
139980 On ch=3 n=38 v=0
140000 On ch=3 n=34 v=127
140060 On ch=3 n=34 v=0
140080 On ch=3 n=38 v=127
140140 On ch=3 n=38 v=0
140160 On ch=3 n=34 v=127
140220 On ch=3 n=34 v=0
140240 On ch=3 n=38 v=127
140300 On ch=3 n=38 v=0
140320 On ch=3 n=34 v=127
140380 On ch=3 n=34 v=0
140400 On ch=3 n=38 v=127
140460 On ch=3 n=38 v=0
140480 On ch=3 n=34 v=127
140540 On ch=3 n=34 v=0
140560 On ch=3 n=38 v=127
140620 On ch=3 n=38 v=0
140640 On ch=3 n=34 v=127
140700 On ch=3 n=34 v=0
140720 On ch=3 n=40 v=127
140760 On ch=3 n=116 v=0
140780 On ch=3 n=40 v=0
140794 On ch=3 n=25 v=0
141120 Meta Text "[idle_realtime]"
158400 Meta Text "[idle]"
161920 On ch=3 n=106 v=0
161920 On ch=3 n=105 v=0
162120 On ch=3 n=25 v=127
162234 On ch=3 n=25 v=0
162240 Meta Text "[play]"
162240 On ch=3 n=24 v=127
162240 On ch=3 n=72 v=127
162240 On ch=3 n=84 v=127
162240 On ch=3 n=96 v=127
162240 On ch=3 n=105 v=127
162300 On ch=3 n=24 v=0
162300 On ch=3 n=72 v=0
162300 On ch=3 n=84 v=0
162300 On ch=3 n=96 v=0
162600 On ch=3 n=25 v=127
162714 On ch=3 n=25 v=0
162720 On ch=3 n=24 v=127
162720 On ch=3 n=72 v=127
162720 On ch=3 n=84 v=127
162720 On ch=3 n=96 v=127
162780 On ch=3 n=24 v=0
162780 On ch=3 n=72 v=0
162780 On ch=3 n=84 v=0
162780 On ch=3 n=96 v=0
163080 On ch=3 n=25 v=127
163194 On ch=3 n=25 v=0
163196 On ch=3 n=105 v=0
163200 On ch=3 n=24 v=127
163200 On ch=3 n=72 v=127
163200 On ch=3 n=84 v=127
163200 On ch=3 n=96 v=127
163200 On ch=3 n=106 v=127
163260 On ch=3 n=24 v=0
163260 On ch=3 n=72 v=0
163260 On ch=3 n=84 v=0
163260 On ch=3 n=96 v=0
163560 On ch=3 n=25 v=127
163674 On ch=3 n=25 v=0
163680 On ch=3 n=24 v=127
163680 On ch=3 n=72 v=127
163680 On ch=3 n=84 v=127
163680 On ch=3 n=96 v=127
163740 On ch=3 n=24 v=0
163740 On ch=3 n=72 v=0
163740 On ch=3 n=84 v=0
163740 On ch=3 n=96 v=0
164040 On ch=3 n=25 v=127
164154 On ch=3 n=25 v=0
164156 On ch=3 n=106 v=0
164160 On ch=3 n=24 v=127
164160 On ch=3 n=72 v=127
164160 On ch=3 n=84 v=127
164160 On ch=3 n=96 v=127
164160 On ch=3 n=105 v=127
164220 On ch=3 n=24 v=0
164220 On ch=3 n=72 v=0
164220 On ch=3 n=84 v=0
164220 On ch=3 n=96 v=0
164520 On ch=3 n=25 v=127
164634 On ch=3 n=25 v=0
164640 On ch=3 n=24 v=127
164640 On ch=3 n=72 v=127
164640 On ch=3 n=84 v=127
164640 On ch=3 n=96 v=127
164700 On ch=3 n=24 v=0
164700 On ch=3 n=72 v=0
164700 On ch=3 n=84 v=0
164700 On ch=3 n=96 v=0
165000 On ch=3 n=25 v=127
165114 On ch=3 n=25 v=0
165116 On ch=3 n=105 v=0
165120 On ch=3 n=24 v=127
165120 On ch=3 n=72 v=127
165120 On ch=3 n=84 v=127
165120 On ch=3 n=96 v=127
165120 On ch=3 n=106 v=127
165180 On ch=3 n=24 v=0
165180 On ch=3 n=72 v=0
165180 On ch=3 n=84 v=0
165180 On ch=3 n=96 v=0
165480 On ch=3 n=25 v=127
165594 On ch=3 n=25 v=0
165600 On ch=3 n=24 v=127
165600 On ch=3 n=72 v=127
165600 On ch=3 n=84 v=127
165600 On ch=3 n=96 v=127
165660 On ch=3 n=24 v=0
165660 On ch=3 n=72 v=0
165660 On ch=3 n=84 v=0
165660 On ch=3 n=96 v=0
165960 On ch=3 n=25 v=127
166074 On ch=3 n=25 v=0
166076 On ch=3 n=106 v=0
166080 On ch=3 n=24 v=127
166080 On ch=3 n=72 v=127
166080 On ch=3 n=84 v=127
166080 On ch=3 n=96 v=127
166080 On ch=3 n=105 v=100
166140 On ch=3 n=24 v=0
166140 On ch=3 n=72 v=0
166140 On ch=3 n=84 v=0
166140 On ch=3 n=96 v=0
166440 On ch=3 n=25 v=127
166554 On ch=3 n=25 v=0
166560 On ch=3 n=24 v=127
166560 On ch=3 n=72 v=127
166560 On ch=3 n=84 v=127
166560 On ch=3 n=96 v=127
166620 On ch=3 n=24 v=0
166620 On ch=3 n=72 v=0
166620 On ch=3 n=84 v=0
166620 On ch=3 n=96 v=0
166920 On ch=3 n=25 v=127
167034 On ch=3 n=25 v=0
167040 On ch=3 n=27 v=127
167040 On ch=3 n=61 v=127
167040 On ch=3 n=62 v=127
167040 On ch=3 n=73 v=127
167040 On ch=3 n=74 v=127
167040 On ch=3 n=85 v=127
167040 On ch=3 n=86 v=127
167040 On ch=3 n=97 v=127
167040 On ch=3 n=98 v=127
167040 On ch=3 n=110 v=127
167040 On ch=3 n=106 v=100
167056 On ch=3 n=26 v=127
167100 On ch=3 n=27 v=0
167100 On ch=3 n=61 v=0
167100 On ch=3 n=62 v=0
167100 On ch=3 n=73 v=0
167100 On ch=3 n=74 v=0
167100 On ch=3 n=85 v=0
167100 On ch=3 n=86 v=0
167100 On ch=3 n=97 v=0
167100 On ch=3 n=98 v=0
167116 On ch=3 n=26 v=0
167280 On ch=3 n=24 v=127
167280 On ch=3 n=84 v=127
167280 On ch=3 n=96 v=127
167340 On ch=3 n=24 v=0
167340 On ch=3 n=84 v=0
167340 On ch=3 n=96 v=0
167400 On ch=3 n=25 v=127
167514 On ch=3 n=25 v=0
167520 On ch=3 n=27 v=127
167520 On ch=3 n=61 v=127
167520 On ch=3 n=62 v=127
167520 On ch=3 n=73 v=127
167520 On ch=3 n=74 v=127
167520 On ch=3 n=85 v=127
167520 On ch=3 n=86 v=127
167520 On ch=3 n=97 v=127
167520 On ch=3 n=98 v=127
167548 On ch=3 n=26 v=127
167580 On ch=3 n=27 v=0
167580 On ch=3 n=61 v=0
167580 On ch=3 n=62 v=0
167580 On ch=3 n=73 v=0
167580 On ch=3 n=74 v=0
167580 On ch=3 n=85 v=0
167580 On ch=3 n=86 v=0
167580 On ch=3 n=97 v=0
167580 On ch=3 n=98 v=0
167608 On ch=3 n=26 v=0
167758 On ch=3 n=110 v=0
167760 On ch=3 n=24 v=127
167760 On ch=3 n=84 v=127
167760 On ch=3 n=96 v=127
167820 On ch=3 n=24 v=0
167820 On ch=3 n=84 v=0
167820 On ch=3 n=96 v=0
167880 On ch=3 n=25 v=127
167994 On ch=3 n=25 v=0
168000 On ch=3 n=24 v=127
168000 On ch=3 n=34 v=127
168000 On ch=3 n=38 v=127
168000 On ch=3 n=64 v=127
168000 On ch=3 n=72 v=127
168000 On ch=3 n=76 v=127
168000 On ch=3 n=84 v=127
168000 On ch=3 n=88 v=127
168000 On ch=3 n=96 v=127
168000 On ch=3 n=100 v=127
168000 On ch=3 n=60 v=100
168060 On ch=3 n=24 v=0
168060 On ch=3 n=34 v=0
168060 On ch=3 n=38 v=0
168060 On ch=3 n=64 v=0
168060 On ch=3 n=72 v=0
168060 On ch=3 n=76 v=0
168060 On ch=3 n=84 v=0
168060 On ch=3 n=88 v=0
168060 On ch=3 n=96 v=0
168060 On ch=3 n=100 v=0
168060 On ch=3 n=60 v=0
168480 On ch=3 n=24 v=127
168480 On ch=3 n=25 v=127
168480 On ch=3 n=26 v=127
168480 On ch=3 n=61 v=127
168480 On ch=3 n=73 v=127
168480 On ch=3 n=85 v=127
168480 On ch=3 n=96 v=127
168480 On ch=3 n=97 v=127
168540 On ch=3 n=24 v=0
168540 On ch=3 n=26 v=0
168540 On ch=3 n=61 v=0
168540 On ch=3 n=73 v=0
168540 On ch=3 n=85 v=0
168540 On ch=3 n=96 v=0
168540 On ch=3 n=97 v=0
168714 On ch=3 n=25 v=0
168960 On ch=3 n=24 v=127
168960 On ch=3 n=31 v=127
168960 On ch=3 n=62 v=127
168960 On ch=3 n=72 v=127
168960 On ch=3 n=74 v=127
168960 On ch=3 n=84 v=127
168960 On ch=3 n=86 v=127
168960 On ch=3 n=96 v=127
168960 On ch=3 n=98 v=127
169020 On ch=3 n=24 v=0
169020 On ch=3 n=31 v=0
169020 On ch=3 n=62 v=0
169020 On ch=3 n=72 v=0
169020 On ch=3 n=74 v=0
169020 On ch=3 n=84 v=0
169020 On ch=3 n=86 v=0
169020 On ch=3 n=96 v=0
169020 On ch=3 n=98 v=0
169200 On ch=3 n=24 v=127
169200 On ch=3 n=31 v=127
169200 On ch=3 n=72 v=127
169200 On ch=3 n=74 v=127
169200 On ch=3 n=84 v=127
169200 On ch=3 n=86 v=127
169200 On ch=3 n=96 v=127
169200 On ch=3 n=98 v=127
169200 On ch=3 n=62 v=127
169260 On ch=3 n=24 v=0
169260 On ch=3 n=31 v=0
169260 On ch=3 n=72 v=0
169260 On ch=3 n=74 v=0
169260 On ch=3 n=84 v=0
169260 On ch=3 n=86 v=0
169260 On ch=3 n=96 v=0
169260 On ch=3 n=98 v=0
169260 On ch=3 n=62 v=0
169440 On ch=3 n=26 v=127
169440 On ch=3 n=31 v=127
169440 On ch=3 n=61 v=127
169440 On ch=3 n=62 v=127
169440 On ch=3 n=73 v=127
169440 On ch=3 n=74 v=127
169440 On ch=3 n=85 v=127
169440 On ch=3 n=86 v=127
169440 On ch=3 n=97 v=127
169440 On ch=3 n=98 v=127
169500 On ch=3 n=26 v=0
169500 On ch=3 n=31 v=0
169500 On ch=3 n=61 v=0
169500 On ch=3 n=62 v=0
169500 On ch=3 n=73 v=0
169500 On ch=3 n=74 v=0
169500 On ch=3 n=85 v=0
169500 On ch=3 n=86 v=0
169500 On ch=3 n=97 v=0
169500 On ch=3 n=98 v=0
169680 On ch=3 n=24 v=127
169680 On ch=3 n=31 v=127
169680 On ch=3 n=74 v=127
169680 On ch=3 n=84 v=127
169680 On ch=3 n=86 v=127
169680 On ch=3 n=96 v=127
169680 On ch=3 n=98 v=127
169680 On ch=3 n=62 v=127
169740 On ch=3 n=24 v=0
169740 On ch=3 n=31 v=0
169740 On ch=3 n=74 v=0
169740 On ch=3 n=84 v=0
169740 On ch=3 n=86 v=0
169740 On ch=3 n=96 v=0
169740 On ch=3 n=98 v=0
169740 On ch=3 n=62 v=0
169920 On ch=3 n=24 v=127
169920 On ch=3 n=31 v=127
169920 On ch=3 n=62 v=127
169920 On ch=3 n=72 v=127
169920 On ch=3 n=74 v=127
169920 On ch=3 n=84 v=127
169920 On ch=3 n=86 v=127
169920 On ch=3 n=96 v=127
169920 On ch=3 n=98 v=127
169980 On ch=3 n=24 v=0
169980 On ch=3 n=31 v=0
169980 On ch=3 n=62 v=0
169980 On ch=3 n=72 v=0
169980 On ch=3 n=74 v=0
169980 On ch=3 n=84 v=0
169980 On ch=3 n=86 v=0
169980 On ch=3 n=96 v=0
169980 On ch=3 n=98 v=0
170160 On ch=3 n=31 v=127
170160 On ch=3 n=74 v=127
170160 On ch=3 n=86 v=127
170160 On ch=3 n=98 v=127
170160 On ch=3 n=62 v=127
170220 On ch=3 n=31 v=0
170220 On ch=3 n=74 v=0
170220 On ch=3 n=86 v=0
170220 On ch=3 n=98 v=0
170220 On ch=3 n=62 v=0
170400 On ch=3 n=24 v=127
170400 On ch=3 n=26 v=127
170400 On ch=3 n=31 v=127
170400 On ch=3 n=61 v=127
170400 On ch=3 n=62 v=127
170400 On ch=3 n=73 v=127
170400 On ch=3 n=74 v=127
170400 On ch=3 n=85 v=127
170400 On ch=3 n=86 v=127
170400 On ch=3 n=96 v=127
170400 On ch=3 n=97 v=127
170400 On ch=3 n=98 v=127
170460 On ch=3 n=24 v=0
170460 On ch=3 n=26 v=0
170460 On ch=3 n=31 v=0
170460 On ch=3 n=61 v=0
170460 On ch=3 n=62 v=0
170460 On ch=3 n=73 v=0
170460 On ch=3 n=74 v=0
170460 On ch=3 n=85 v=0
170460 On ch=3 n=86 v=0
170460 On ch=3 n=96 v=0
170460 On ch=3 n=97 v=0
170460 On ch=3 n=98 v=0
170640 On ch=3 n=31 v=127
170640 On ch=3 n=74 v=127
170640 On ch=3 n=86 v=127
170640 On ch=3 n=98 v=127
170640 On ch=3 n=62 v=127
170700 On ch=3 n=31 v=0
170700 On ch=3 n=74 v=0
170700 On ch=3 n=86 v=0
170700 On ch=3 n=98 v=0
170700 On ch=3 n=62 v=0
170880 On ch=3 n=24 v=127
170880 On ch=3 n=31 v=127
170880 On ch=3 n=62 v=127
170880 On ch=3 n=72 v=127
170880 On ch=3 n=74 v=127
170880 On ch=3 n=84 v=127
170880 On ch=3 n=86 v=127
170880 On ch=3 n=96 v=127
170880 On ch=3 n=98 v=127
170940 On ch=3 n=24 v=0
170940 On ch=3 n=31 v=0
170940 On ch=3 n=62 v=0
170940 On ch=3 n=72 v=0
170940 On ch=3 n=74 v=0
170940 On ch=3 n=84 v=0
170940 On ch=3 n=86 v=0
170940 On ch=3 n=96 v=0
170940 On ch=3 n=98 v=0
171120 On ch=3 n=24 v=127
171120 On ch=3 n=31 v=127
171120 On ch=3 n=72 v=127
171120 On ch=3 n=74 v=127
171120 On ch=3 n=84 v=127
171120 On ch=3 n=86 v=127
171120 On ch=3 n=96 v=127
171120 On ch=3 n=98 v=127
171120 On ch=3 n=62 v=127
171180 On ch=3 n=24 v=0
171180 On ch=3 n=31 v=0
171180 On ch=3 n=72 v=0
171180 On ch=3 n=74 v=0
171180 On ch=3 n=84 v=0
171180 On ch=3 n=86 v=0
171180 On ch=3 n=96 v=0
171180 On ch=3 n=98 v=0
171180 On ch=3 n=62 v=0
171360 On ch=3 n=26 v=127
171360 On ch=3 n=31 v=127
171360 On ch=3 n=61 v=127
171360 On ch=3 n=62 v=127
171360 On ch=3 n=73 v=127
171360 On ch=3 n=74 v=127
171360 On ch=3 n=85 v=127
171360 On ch=3 n=86 v=127
171360 On ch=3 n=97 v=127
171360 On ch=3 n=98 v=127
171420 On ch=3 n=26 v=0
171420 On ch=3 n=31 v=0
171420 On ch=3 n=61 v=0
171420 On ch=3 n=62 v=0
171420 On ch=3 n=73 v=0
171420 On ch=3 n=74 v=0
171420 On ch=3 n=85 v=0
171420 On ch=3 n=86 v=0
171420 On ch=3 n=97 v=0
171420 On ch=3 n=98 v=0
171600 On ch=3 n=24 v=127
171600 On ch=3 n=31 v=127
171600 On ch=3 n=74 v=127
171600 On ch=3 n=84 v=127
171600 On ch=3 n=86 v=127
171600 On ch=3 n=96 v=127
171600 On ch=3 n=98 v=127
171600 On ch=3 n=62 v=127
171660 On ch=3 n=24 v=0
171660 On ch=3 n=31 v=0
171660 On ch=3 n=74 v=0
171660 On ch=3 n=84 v=0
171660 On ch=3 n=86 v=0
171660 On ch=3 n=96 v=0
171660 On ch=3 n=98 v=0
171660 On ch=3 n=62 v=0
171840 On ch=3 n=24 v=127
171840 On ch=3 n=31 v=127
171840 On ch=3 n=62 v=127
171840 On ch=3 n=72 v=127
171840 On ch=3 n=74 v=127
171840 On ch=3 n=84 v=127
171840 On ch=3 n=86 v=127
171840 On ch=3 n=96 v=127
171840 On ch=3 n=98 v=127
171840 On ch=3 n=116 v=100
171840 On ch=3 n=60 v=100
171900 On ch=3 n=24 v=0
171900 On ch=3 n=31 v=0
171900 On ch=3 n=62 v=0
171900 On ch=3 n=72 v=0
171900 On ch=3 n=74 v=0
171900 On ch=3 n=84 v=0
171900 On ch=3 n=86 v=0
171900 On ch=3 n=96 v=0
171900 On ch=3 n=98 v=0
171900 On ch=3 n=60 v=0
172080 On ch=3 n=31 v=127
172080 On ch=3 n=74 v=127
172080 On ch=3 n=86 v=127
172080 On ch=3 n=98 v=127
172080 On ch=3 n=62 v=127
172140 On ch=3 n=31 v=0
172140 On ch=3 n=74 v=0
172140 On ch=3 n=86 v=0
172140 On ch=3 n=98 v=0
172140 On ch=3 n=62 v=0
172320 On ch=3 n=24 v=127
172320 On ch=3 n=26 v=127
172320 On ch=3 n=31 v=127
172320 On ch=3 n=61 v=127
172320 On ch=3 n=62 v=127
172320 On ch=3 n=73 v=127
172320 On ch=3 n=74 v=127
172320 On ch=3 n=85 v=127
172320 On ch=3 n=86 v=127
172320 On ch=3 n=96 v=127
172320 On ch=3 n=97 v=127
172320 On ch=3 n=98 v=127
172380 On ch=3 n=24 v=0
172380 On ch=3 n=26 v=0
172380 On ch=3 n=31 v=0
172380 On ch=3 n=61 v=0
172380 On ch=3 n=62 v=0
172380 On ch=3 n=73 v=0
172380 On ch=3 n=74 v=0
172380 On ch=3 n=85 v=0
172380 On ch=3 n=86 v=0
172380 On ch=3 n=96 v=0
172380 On ch=3 n=97 v=0
172380 On ch=3 n=98 v=0
172560 On ch=3 n=31 v=127
172560 On ch=3 n=74 v=127
172560 On ch=3 n=86 v=127
172560 On ch=3 n=98 v=127
172560 On ch=3 n=62 v=127
172620 On ch=3 n=31 v=0
172620 On ch=3 n=74 v=0
172620 On ch=3 n=86 v=0
172620 On ch=3 n=98 v=0
172620 On ch=3 n=62 v=0
172800 On ch=3 n=24 v=127
172800 On ch=3 n=31 v=127
172800 On ch=3 n=62 v=127
172800 On ch=3 n=72 v=127
172800 On ch=3 n=74 v=127
172800 On ch=3 n=84 v=127
172800 On ch=3 n=86 v=127
172800 On ch=3 n=96 v=127
172800 On ch=3 n=98 v=127
172860 On ch=3 n=24 v=0
172860 On ch=3 n=31 v=0
172860 On ch=3 n=62 v=0
172860 On ch=3 n=72 v=0
172860 On ch=3 n=74 v=0
172860 On ch=3 n=84 v=0
172860 On ch=3 n=86 v=0
172860 On ch=3 n=96 v=0
172860 On ch=3 n=98 v=0
173040 On ch=3 n=24 v=127
173040 On ch=3 n=31 v=127
173040 On ch=3 n=72 v=127
173040 On ch=3 n=74 v=127
173040 On ch=3 n=84 v=127
173040 On ch=3 n=86 v=127
173040 On ch=3 n=96 v=127
173040 On ch=3 n=98 v=127
173040 On ch=3 n=62 v=127
173100 On ch=3 n=24 v=0
173100 On ch=3 n=31 v=0
173100 On ch=3 n=72 v=0
173100 On ch=3 n=74 v=0
173100 On ch=3 n=84 v=0
173100 On ch=3 n=86 v=0
173100 On ch=3 n=96 v=0
173100 On ch=3 n=98 v=0
173100 On ch=3 n=62 v=0
173280 On ch=3 n=26 v=127
173280 On ch=3 n=31 v=127
173280 On ch=3 n=61 v=127
173280 On ch=3 n=62 v=127
173280 On ch=3 n=73 v=127
173280 On ch=3 n=74 v=127
173280 On ch=3 n=85 v=127
173280 On ch=3 n=86 v=127
173280 On ch=3 n=97 v=127
173280 On ch=3 n=98 v=127
173340 On ch=3 n=26 v=0
173340 On ch=3 n=31 v=0
173340 On ch=3 n=61 v=0
173340 On ch=3 n=62 v=0
173340 On ch=3 n=73 v=0
173340 On ch=3 n=74 v=0
173340 On ch=3 n=85 v=0
173340 On ch=3 n=86 v=0
173340 On ch=3 n=97 v=0
173340 On ch=3 n=98 v=0
173520 On ch=3 n=24 v=127
173520 On ch=3 n=31 v=127
173520 On ch=3 n=74 v=127
173520 On ch=3 n=84 v=127
173520 On ch=3 n=86 v=127
173520 On ch=3 n=96 v=127
173520 On ch=3 n=98 v=127
173520 On ch=3 n=62 v=127
173580 On ch=3 n=24 v=0
173580 On ch=3 n=31 v=0
173580 On ch=3 n=74 v=0
173580 On ch=3 n=84 v=0
173580 On ch=3 n=86 v=0
173580 On ch=3 n=96 v=0
173580 On ch=3 n=98 v=0
173580 On ch=3 n=62 v=0
173760 On ch=3 n=116 v=0
173760 On ch=3 n=24 v=127
173760 On ch=3 n=31 v=127
173760 On ch=3 n=62 v=127
173760 On ch=3 n=72 v=127
173760 On ch=3 n=74 v=127
173760 On ch=3 n=84 v=127
173760 On ch=3 n=86 v=127
173760 On ch=3 n=96 v=127
173760 On ch=3 n=98 v=127
173820 On ch=3 n=24 v=0
173820 On ch=3 n=31 v=0
173820 On ch=3 n=62 v=0
173820 On ch=3 n=72 v=0
173820 On ch=3 n=74 v=0
173820 On ch=3 n=84 v=0
173820 On ch=3 n=86 v=0
173820 On ch=3 n=96 v=0
173820 On ch=3 n=98 v=0
174000 On ch=3 n=31 v=127
174000 On ch=3 n=74 v=127
174000 On ch=3 n=86 v=127
174000 On ch=3 n=98 v=127
174000 On ch=3 n=62 v=127
174060 On ch=3 n=31 v=0
174060 On ch=3 n=74 v=0
174060 On ch=3 n=86 v=0
174060 On ch=3 n=98 v=0
174060 On ch=3 n=62 v=0
174240 On ch=3 n=24 v=127
174240 On ch=3 n=26 v=127
174240 On ch=3 n=31 v=127
174240 On ch=3 n=61 v=127
174240 On ch=3 n=62 v=127
174240 On ch=3 n=73 v=127
174240 On ch=3 n=74 v=127
174240 On ch=3 n=85 v=127
174240 On ch=3 n=86 v=127
174240 On ch=3 n=96 v=127
174240 On ch=3 n=97 v=127
174240 On ch=3 n=98 v=127
174300 On ch=3 n=24 v=0
174300 On ch=3 n=26 v=0
174300 On ch=3 n=31 v=0
174300 On ch=3 n=61 v=0
174300 On ch=3 n=62 v=0
174300 On ch=3 n=73 v=0
174300 On ch=3 n=74 v=0
174300 On ch=3 n=85 v=0
174300 On ch=3 n=86 v=0
174300 On ch=3 n=96 v=0
174300 On ch=3 n=97 v=0
174300 On ch=3 n=98 v=0
174480 On ch=3 n=31 v=127
174480 On ch=3 n=74 v=127
174480 On ch=3 n=86 v=127
174480 On ch=3 n=98 v=127
174480 On ch=3 n=62 v=127
174540 On ch=3 n=31 v=0
174540 On ch=3 n=74 v=0
174540 On ch=3 n=86 v=0
174540 On ch=3 n=98 v=0
174540 On ch=3 n=62 v=0
174720 On ch=3 n=24 v=127
174720 On ch=3 n=31 v=127
174720 On ch=3 n=62 v=127
174720 On ch=3 n=72 v=127
174720 On ch=3 n=74 v=127
174720 On ch=3 n=84 v=127
174720 On ch=3 n=86 v=127
174720 On ch=3 n=96 v=127
174720 On ch=3 n=98 v=127
174720 On ch=3 n=120 v=127
174720 On ch=3 n=121 v=127
174720 On ch=3 n=122 v=127
174720 On ch=3 n=123 v=127
174720 On ch=3 n=124 v=127
174780 On ch=3 n=24 v=0
174780 On ch=3 n=31 v=0
174780 On ch=3 n=62 v=0
174780 On ch=3 n=72 v=0
174780 On ch=3 n=74 v=0
174780 On ch=3 n=84 v=0
174780 On ch=3 n=86 v=0
174780 On ch=3 n=96 v=0
174780 On ch=3 n=98 v=0
174960 On ch=3 n=24 v=127
174960 On ch=3 n=31 v=127
174960 On ch=3 n=72 v=127
174960 On ch=3 n=74 v=127
174960 On ch=3 n=84 v=127
174960 On ch=3 n=86 v=127
174960 On ch=3 n=96 v=127
174960 On ch=3 n=98 v=127
174960 On ch=3 n=62 v=127
175020 On ch=3 n=24 v=0
175020 On ch=3 n=31 v=0
175020 On ch=3 n=72 v=0
175020 On ch=3 n=74 v=0
175020 On ch=3 n=84 v=0
175020 On ch=3 n=86 v=0
175020 On ch=3 n=96 v=0
175020 On ch=3 n=98 v=0
175020 On ch=3 n=62 v=0
175200 On ch=3 n=26 v=127
175200 On ch=3 n=31 v=127
175200 On ch=3 n=61 v=127
175200 On ch=3 n=62 v=127
175200 On ch=3 n=73 v=127
175200 On ch=3 n=74 v=127
175200 On ch=3 n=85 v=127
175200 On ch=3 n=86 v=127
175200 On ch=3 n=97 v=127
175200 On ch=3 n=98 v=127
175260 On ch=3 n=26 v=0
175260 On ch=3 n=31 v=0
175260 On ch=3 n=61 v=0
175260 On ch=3 n=62 v=0
175260 On ch=3 n=73 v=0
175260 On ch=3 n=74 v=0
175260 On ch=3 n=85 v=0
175260 On ch=3 n=86 v=0
175260 On ch=3 n=97 v=0
175260 On ch=3 n=98 v=0
175440 On ch=3 n=24 v=127
175440 On ch=3 n=31 v=127
175440 On ch=3 n=74 v=127
175440 On ch=3 n=84 v=127
175440 On ch=3 n=86 v=127
175440 On ch=3 n=96 v=127
175440 On ch=3 n=98 v=127
175440 On ch=3 n=62 v=127
175500 On ch=3 n=24 v=0
175500 On ch=3 n=31 v=0
175500 On ch=3 n=74 v=0
175500 On ch=3 n=84 v=0
175500 On ch=3 n=86 v=0
175500 On ch=3 n=96 v=0
175500 On ch=3 n=98 v=0
175500 On ch=3 n=62 v=0
175676 On ch=3 n=120 v=0
175676 On ch=3 n=121 v=0
175676 On ch=3 n=122 v=0
175676 On ch=3 n=123 v=0
175676 On ch=3 n=124 v=0
175680 On ch=3 n=105 v=0
175680 On ch=3 n=24 v=127
175680 On ch=3 n=31 v=127
175680 On ch=3 n=62 v=127
175680 On ch=3 n=72 v=127
175680 On ch=3 n=74 v=127
175680 On ch=3 n=84 v=127
175680 On ch=3 n=86 v=127
175680 On ch=3 n=96 v=127
175680 On ch=3 n=98 v=127
175680 On ch=3 n=60 v=100
175740 On ch=3 n=24 v=0
175740 On ch=3 n=31 v=0
175740 On ch=3 n=62 v=0
175740 On ch=3 n=72 v=0
175740 On ch=3 n=74 v=0
175740 On ch=3 n=84 v=0
175740 On ch=3 n=86 v=0
175740 On ch=3 n=96 v=0
175740 On ch=3 n=98 v=0
175740 On ch=3 n=60 v=0
175920 On ch=3 n=31 v=127
175920 On ch=3 n=74 v=127
175920 On ch=3 n=86 v=127
175920 On ch=3 n=98 v=127
175920 On ch=3 n=62 v=127
175980 On ch=3 n=31 v=0
175980 On ch=3 n=74 v=0
175980 On ch=3 n=86 v=0
175980 On ch=3 n=98 v=0
175980 On ch=3 n=62 v=0
176160 On ch=3 n=24 v=127
176160 On ch=3 n=26 v=127
176160 On ch=3 n=31 v=127
176160 On ch=3 n=61 v=127
176160 On ch=3 n=62 v=127
176160 On ch=3 n=73 v=127
176160 On ch=3 n=74 v=127
176160 On ch=3 n=85 v=127
176160 On ch=3 n=86 v=127
176160 On ch=3 n=96 v=127
176160 On ch=3 n=97 v=127
176160 On ch=3 n=98 v=127
176220 On ch=3 n=24 v=0
176220 On ch=3 n=26 v=0
176220 On ch=3 n=31 v=0
176220 On ch=3 n=61 v=0
176220 On ch=3 n=62 v=0
176220 On ch=3 n=73 v=0
176220 On ch=3 n=74 v=0
176220 On ch=3 n=85 v=0
176220 On ch=3 n=86 v=0
176220 On ch=3 n=96 v=0
176220 On ch=3 n=97 v=0
176220 On ch=3 n=98 v=0
176400 On ch=3 n=31 v=127
176400 On ch=3 n=74 v=127
176400 On ch=3 n=86 v=127
176400 On ch=3 n=98 v=127
176400 On ch=3 n=62 v=127
176460 On ch=3 n=31 v=0
176460 On ch=3 n=74 v=0
176460 On ch=3 n=86 v=0
176460 On ch=3 n=98 v=0
176460 On ch=3 n=62 v=0
176640 On ch=3 n=24 v=127
176640 On ch=3 n=31 v=127
176640 On ch=3 n=62 v=127
176640 On ch=3 n=72 v=127
176640 On ch=3 n=74 v=127
176640 On ch=3 n=84 v=127
176640 On ch=3 n=86 v=127
176640 On ch=3 n=96 v=127
176640 On ch=3 n=98 v=127
176700 On ch=3 n=24 v=0
176700 On ch=3 n=31 v=0
176700 On ch=3 n=62 v=0
176700 On ch=3 n=72 v=0
176700 On ch=3 n=74 v=0
176700 On ch=3 n=84 v=0
176700 On ch=3 n=86 v=0
176700 On ch=3 n=96 v=0
176700 On ch=3 n=98 v=0
176880 On ch=3 n=24 v=127
176880 On ch=3 n=31 v=127
176880 On ch=3 n=72 v=127
176880 On ch=3 n=74 v=127
176880 On ch=3 n=84 v=127
176880 On ch=3 n=86 v=127
176880 On ch=3 n=96 v=127
176880 On ch=3 n=98 v=127
176880 On ch=3 n=62 v=127
176940 On ch=3 n=24 v=0
176940 On ch=3 n=31 v=0
176940 On ch=3 n=72 v=0
176940 On ch=3 n=74 v=0
176940 On ch=3 n=84 v=0
176940 On ch=3 n=86 v=0
176940 On ch=3 n=96 v=0
176940 On ch=3 n=98 v=0
176940 On ch=3 n=62 v=0
177120 On ch=3 n=26 v=127
177120 On ch=3 n=31 v=127
177120 On ch=3 n=61 v=127
177120 On ch=3 n=62 v=127
177120 On ch=3 n=73 v=127
177120 On ch=3 n=74 v=127
177120 On ch=3 n=85 v=127
177120 On ch=3 n=86 v=127
177120 On ch=3 n=97 v=127
177120 On ch=3 n=98 v=127
177180 On ch=3 n=26 v=0
177180 On ch=3 n=31 v=0
177180 On ch=3 n=61 v=0
177180 On ch=3 n=62 v=0
177180 On ch=3 n=73 v=0
177180 On ch=3 n=74 v=0
177180 On ch=3 n=85 v=0
177180 On ch=3 n=86 v=0
177180 On ch=3 n=97 v=0
177180 On ch=3 n=98 v=0
177360 On ch=3 n=24 v=127
177360 On ch=3 n=31 v=127
177360 On ch=3 n=74 v=127
177360 On ch=3 n=84 v=127
177360 On ch=3 n=86 v=127
177360 On ch=3 n=96 v=127
177360 On ch=3 n=98 v=127
177360 On ch=3 n=62 v=127
177420 On ch=3 n=24 v=0
177420 On ch=3 n=31 v=0
177420 On ch=3 n=74 v=0
177420 On ch=3 n=84 v=0
177420 On ch=3 n=86 v=0
177420 On ch=3 n=96 v=0
177420 On ch=3 n=98 v=0
177420 On ch=3 n=62 v=0
177600 On ch=3 n=24 v=127
177600 On ch=3 n=31 v=127
177600 On ch=3 n=62 v=127
177600 On ch=3 n=72 v=127
177600 On ch=3 n=74 v=127
177600 On ch=3 n=84 v=127
177600 On ch=3 n=86 v=127
177600 On ch=3 n=96 v=127
177600 On ch=3 n=98 v=127
177660 On ch=3 n=24 v=0
177660 On ch=3 n=31 v=0
177660 On ch=3 n=62 v=0
177660 On ch=3 n=72 v=0
177660 On ch=3 n=74 v=0
177660 On ch=3 n=84 v=0
177660 On ch=3 n=86 v=0
177660 On ch=3 n=96 v=0
177660 On ch=3 n=98 v=0
177840 On ch=3 n=31 v=127
177840 On ch=3 n=74 v=127
177840 On ch=3 n=86 v=127
177840 On ch=3 n=98 v=127
177840 On ch=3 n=62 v=127
177900 On ch=3 n=31 v=0
177900 On ch=3 n=74 v=0
177900 On ch=3 n=86 v=0
177900 On ch=3 n=98 v=0
177900 On ch=3 n=62 v=0
178080 On ch=3 n=24 v=127
178080 On ch=3 n=26 v=127
178080 On ch=3 n=31 v=127
178080 On ch=3 n=61 v=127
178080 On ch=3 n=62 v=127
178080 On ch=3 n=73 v=127
178080 On ch=3 n=74 v=127
178080 On ch=3 n=85 v=127
178080 On ch=3 n=86 v=127
178080 On ch=3 n=96 v=127
178080 On ch=3 n=97 v=127
178080 On ch=3 n=98 v=127
178140 On ch=3 n=24 v=0
178140 On ch=3 n=26 v=0
178140 On ch=3 n=31 v=0
178140 On ch=3 n=61 v=0
178140 On ch=3 n=62 v=0
178140 On ch=3 n=73 v=0
178140 On ch=3 n=74 v=0
178140 On ch=3 n=85 v=0
178140 On ch=3 n=86 v=0
178140 On ch=3 n=96 v=0
178140 On ch=3 n=97 v=0
178140 On ch=3 n=98 v=0
178320 On ch=3 n=31 v=127
178320 On ch=3 n=74 v=127
178320 On ch=3 n=86 v=127
178320 On ch=3 n=98 v=127
178320 On ch=3 n=62 v=127
178380 On ch=3 n=31 v=0
178380 On ch=3 n=74 v=0
178380 On ch=3 n=86 v=0
178380 On ch=3 n=98 v=0
178380 On ch=3 n=62 v=0
178560 On ch=3 n=24 v=127
178560 On ch=3 n=31 v=127
178560 On ch=3 n=62 v=127
178560 On ch=3 n=72 v=127
178560 On ch=3 n=74 v=127
178560 On ch=3 n=84 v=127
178560 On ch=3 n=86 v=127
178560 On ch=3 n=96 v=127
178560 On ch=3 n=98 v=127
178620 On ch=3 n=24 v=0
178620 On ch=3 n=31 v=0
178620 On ch=3 n=62 v=0
178620 On ch=3 n=72 v=0
178620 On ch=3 n=74 v=0
178620 On ch=3 n=84 v=0
178620 On ch=3 n=86 v=0
178620 On ch=3 n=96 v=0
178620 On ch=3 n=98 v=0
178800 On ch=3 n=24 v=127
178800 On ch=3 n=31 v=127
178800 On ch=3 n=72 v=127
178800 On ch=3 n=74 v=127
178800 On ch=3 n=84 v=127
178800 On ch=3 n=86 v=127
178800 On ch=3 n=96 v=127
178800 On ch=3 n=98 v=127
178800 On ch=3 n=62 v=127
178860 On ch=3 n=24 v=0
178860 On ch=3 n=31 v=0
178860 On ch=3 n=72 v=0
178860 On ch=3 n=74 v=0
178860 On ch=3 n=84 v=0
178860 On ch=3 n=86 v=0
178860 On ch=3 n=96 v=0
178860 On ch=3 n=98 v=0
178860 On ch=3 n=62 v=0
179040 On ch=3 n=26 v=127
179040 On ch=3 n=31 v=127
179040 On ch=3 n=61 v=127
179040 On ch=3 n=62 v=127
179040 On ch=3 n=73 v=127
179040 On ch=3 n=74 v=127
179040 On ch=3 n=85 v=127
179040 On ch=3 n=86 v=127
179040 On ch=3 n=97 v=127
179040 On ch=3 n=98 v=127
179100 On ch=3 n=26 v=0
179100 On ch=3 n=31 v=0
179100 On ch=3 n=61 v=0
179100 On ch=3 n=62 v=0
179100 On ch=3 n=73 v=0
179100 On ch=3 n=74 v=0
179100 On ch=3 n=85 v=0
179100 On ch=3 n=86 v=0
179100 On ch=3 n=97 v=0
179100 On ch=3 n=98 v=0
179280 On ch=3 n=24 v=127
179280 On ch=3 n=31 v=127
179280 On ch=3 n=74 v=127
179280 On ch=3 n=84 v=127
179280 On ch=3 n=86 v=127
179280 On ch=3 n=96 v=127
179280 On ch=3 n=98 v=127
179280 On ch=3 n=62 v=127
179340 On ch=3 n=24 v=0
179340 On ch=3 n=31 v=0
179340 On ch=3 n=74 v=0
179340 On ch=3 n=84 v=0
179340 On ch=3 n=86 v=0
179340 On ch=3 n=96 v=0
179340 On ch=3 n=98 v=0
179340 On ch=3 n=62 v=0
179520 On ch=3 n=106 v=0
179520 On ch=3 n=24 v=127
179520 On ch=3 n=31 v=127
179520 On ch=3 n=62 v=127
179520 On ch=3 n=72 v=127
179520 On ch=3 n=74 v=127
179520 On ch=3 n=84 v=127
179520 On ch=3 n=86 v=127
179520 On ch=3 n=96 v=127
179520 On ch=3 n=98 v=127
179520 On ch=3 n=105 v=100
179520 On ch=3 n=60 v=100
179580 On ch=3 n=24 v=0
179580 On ch=3 n=31 v=0
179580 On ch=3 n=62 v=0
179580 On ch=3 n=72 v=0
179580 On ch=3 n=74 v=0
179580 On ch=3 n=84 v=0
179580 On ch=3 n=86 v=0
179580 On ch=3 n=96 v=0
179580 On ch=3 n=98 v=0
179580 On ch=3 n=60 v=0
179760 On ch=3 n=31 v=127
179760 On ch=3 n=74 v=127
179760 On ch=3 n=86 v=127
179760 On ch=3 n=98 v=127
179760 On ch=3 n=62 v=127
179820 On ch=3 n=31 v=0
179820 On ch=3 n=74 v=0
179820 On ch=3 n=86 v=0
179820 On ch=3 n=98 v=0
179820 On ch=3 n=62 v=0
180000 On ch=3 n=24 v=127
180000 On ch=3 n=26 v=127
180000 On ch=3 n=31 v=127
180000 On ch=3 n=61 v=127
180000 On ch=3 n=62 v=127
180000 On ch=3 n=73 v=127
180000 On ch=3 n=74 v=127
180000 On ch=3 n=85 v=127
180000 On ch=3 n=86 v=127
180000 On ch=3 n=96 v=127
180000 On ch=3 n=97 v=127
180000 On ch=3 n=98 v=127
180060 On ch=3 n=24 v=0
180060 On ch=3 n=26 v=0
180060 On ch=3 n=31 v=0
180060 On ch=3 n=61 v=0
180060 On ch=3 n=62 v=0
180060 On ch=3 n=73 v=0
180060 On ch=3 n=74 v=0
180060 On ch=3 n=85 v=0
180060 On ch=3 n=86 v=0
180060 On ch=3 n=96 v=0
180060 On ch=3 n=97 v=0
180060 On ch=3 n=98 v=0
180240 On ch=3 n=31 v=127
180240 On ch=3 n=74 v=127
180240 On ch=3 n=86 v=127
180240 On ch=3 n=98 v=127
180240 On ch=3 n=62 v=127
180300 On ch=3 n=31 v=0
180300 On ch=3 n=74 v=0
180300 On ch=3 n=86 v=0
180300 On ch=3 n=98 v=0
180300 On ch=3 n=62 v=0
180480 On ch=3 n=24 v=127
180480 On ch=3 n=31 v=127
180480 On ch=3 n=62 v=127
180480 On ch=3 n=72 v=127
180480 On ch=3 n=74 v=127
180480 On ch=3 n=84 v=127
180480 On ch=3 n=86 v=127
180480 On ch=3 n=96 v=127
180480 On ch=3 n=98 v=127
180540 On ch=3 n=24 v=0
180540 On ch=3 n=31 v=0
180540 On ch=3 n=62 v=0
180540 On ch=3 n=72 v=0
180540 On ch=3 n=74 v=0
180540 On ch=3 n=84 v=0
180540 On ch=3 n=86 v=0
180540 On ch=3 n=96 v=0
180540 On ch=3 n=98 v=0
180720 On ch=3 n=24 v=127
180720 On ch=3 n=31 v=127
180720 On ch=3 n=72 v=127
180720 On ch=3 n=74 v=127
180720 On ch=3 n=84 v=127
180720 On ch=3 n=86 v=127
180720 On ch=3 n=96 v=127
180720 On ch=3 n=98 v=127
180720 On ch=3 n=62 v=127
180780 On ch=3 n=24 v=0
180780 On ch=3 n=31 v=0
180780 On ch=3 n=72 v=0
180780 On ch=3 n=74 v=0
180780 On ch=3 n=84 v=0
180780 On ch=3 n=86 v=0
180780 On ch=3 n=96 v=0
180780 On ch=3 n=98 v=0
180780 On ch=3 n=62 v=0
180960 On ch=3 n=26 v=127
180960 On ch=3 n=31 v=127
180960 On ch=3 n=61 v=127
180960 On ch=3 n=62 v=127
180960 On ch=3 n=73 v=127
180960 On ch=3 n=74 v=127
180960 On ch=3 n=85 v=127
180960 On ch=3 n=86 v=127
180960 On ch=3 n=97 v=127
180960 On ch=3 n=98 v=127
181020 On ch=3 n=26 v=0
181020 On ch=3 n=31 v=0
181020 On ch=3 n=61 v=0
181020 On ch=3 n=62 v=0
181020 On ch=3 n=73 v=0
181020 On ch=3 n=74 v=0
181020 On ch=3 n=85 v=0
181020 On ch=3 n=86 v=0
181020 On ch=3 n=97 v=0
181020 On ch=3 n=98 v=0
181200 On ch=3 n=24 v=127
181200 On ch=3 n=31 v=127
181200 On ch=3 n=74 v=127
181200 On ch=3 n=84 v=127
181200 On ch=3 n=86 v=127
181200 On ch=3 n=96 v=127
181200 On ch=3 n=98 v=127
181200 On ch=3 n=62 v=127
181260 On ch=3 n=24 v=0
181260 On ch=3 n=31 v=0
181260 On ch=3 n=74 v=0
181260 On ch=3 n=84 v=0
181260 On ch=3 n=86 v=0
181260 On ch=3 n=96 v=0
181260 On ch=3 n=98 v=0
181260 On ch=3 n=62 v=0
181440 On ch=3 n=24 v=127
181440 On ch=3 n=31 v=127
181440 On ch=3 n=62 v=127
181440 On ch=3 n=72 v=127
181440 On ch=3 n=74 v=127
181440 On ch=3 n=84 v=127
181440 On ch=3 n=86 v=127
181440 On ch=3 n=96 v=127
181440 On ch=3 n=98 v=127
181440 On ch=3 n=106 v=100
181500 On ch=3 n=24 v=0
181500 On ch=3 n=31 v=0
181500 On ch=3 n=62 v=0
181500 On ch=3 n=72 v=0
181500 On ch=3 n=74 v=0
181500 On ch=3 n=84 v=0
181500 On ch=3 n=86 v=0
181500 On ch=3 n=96 v=0
181500 On ch=3 n=98 v=0
181680 On ch=3 n=31 v=127
181680 On ch=3 n=74 v=127
181680 On ch=3 n=86 v=127
181680 On ch=3 n=98 v=127
181680 On ch=3 n=62 v=127
181740 On ch=3 n=31 v=0
181740 On ch=3 n=74 v=0
181740 On ch=3 n=86 v=0
181740 On ch=3 n=98 v=0
181740 On ch=3 n=62 v=0
181920 On ch=3 n=24 v=127
181920 On ch=3 n=26 v=127
181920 On ch=3 n=31 v=127
181920 On ch=3 n=61 v=127
181920 On ch=3 n=62 v=127
181920 On ch=3 n=73 v=127
181920 On ch=3 n=74 v=127
181920 On ch=3 n=85 v=127
181920 On ch=3 n=86 v=127
181920 On ch=3 n=96 v=127
181920 On ch=3 n=97 v=127
181920 On ch=3 n=98 v=127
181980 On ch=3 n=24 v=0
181980 On ch=3 n=26 v=0
181980 On ch=3 n=31 v=0
181980 On ch=3 n=61 v=0
181980 On ch=3 n=62 v=0
181980 On ch=3 n=73 v=0
181980 On ch=3 n=74 v=0
181980 On ch=3 n=85 v=0
181980 On ch=3 n=86 v=0
181980 On ch=3 n=96 v=0
181980 On ch=3 n=97 v=0
181980 On ch=3 n=98 v=0
182160 On ch=3 n=31 v=127
182160 On ch=3 n=74 v=127
182160 On ch=3 n=86 v=127
182160 On ch=3 n=98 v=127
182160 On ch=3 n=62 v=127
182220 On ch=3 n=31 v=0
182220 On ch=3 n=74 v=0
182220 On ch=3 n=86 v=0
182220 On ch=3 n=98 v=0
182220 On ch=3 n=62 v=0
182400 On ch=3 n=24 v=127
182400 On ch=3 n=31 v=127
182400 On ch=3 n=62 v=127
182400 On ch=3 n=72 v=127
182400 On ch=3 n=74 v=127
182400 On ch=3 n=84 v=127
182400 On ch=3 n=86 v=127
182400 On ch=3 n=96 v=127
182400 On ch=3 n=98 v=127
182400 On ch=3 n=120 v=127
182400 On ch=3 n=121 v=127
182400 On ch=3 n=122 v=127
182400 On ch=3 n=123 v=127
182400 On ch=3 n=124 v=127
182460 On ch=3 n=24 v=0
182460 On ch=3 n=31 v=0
182460 On ch=3 n=62 v=0
182460 On ch=3 n=72 v=0
182460 On ch=3 n=74 v=0
182460 On ch=3 n=84 v=0
182460 On ch=3 n=86 v=0
182460 On ch=3 n=96 v=0
182460 On ch=3 n=98 v=0
182640 On ch=3 n=24 v=127
182640 On ch=3 n=31 v=127
182640 On ch=3 n=72 v=127
182640 On ch=3 n=74 v=127
182640 On ch=3 n=84 v=127
182640 On ch=3 n=86 v=127
182640 On ch=3 n=96 v=127
182640 On ch=3 n=98 v=127
182640 On ch=3 n=62 v=127
182700 On ch=3 n=24 v=0
182700 On ch=3 n=31 v=0
182700 On ch=3 n=72 v=0
182700 On ch=3 n=74 v=0
182700 On ch=3 n=84 v=0
182700 On ch=3 n=86 v=0
182700 On ch=3 n=96 v=0
182700 On ch=3 n=98 v=0
182700 On ch=3 n=62 v=0
182880 On ch=3 n=26 v=127
182880 On ch=3 n=31 v=127
182880 On ch=3 n=61 v=127
182880 On ch=3 n=62 v=127
182880 On ch=3 n=73 v=127
182880 On ch=3 n=74 v=127
182880 On ch=3 n=85 v=127
182880 On ch=3 n=86 v=127
182880 On ch=3 n=97 v=127
182880 On ch=3 n=98 v=127
182940 On ch=3 n=26 v=0
182940 On ch=3 n=31 v=0
182940 On ch=3 n=61 v=0
182940 On ch=3 n=62 v=0
182940 On ch=3 n=73 v=0
182940 On ch=3 n=74 v=0
182940 On ch=3 n=85 v=0
182940 On ch=3 n=86 v=0
182940 On ch=3 n=97 v=0
182940 On ch=3 n=98 v=0
183120 On ch=3 n=24 v=127
183120 On ch=3 n=31 v=127
183120 On ch=3 n=74 v=127
183120 On ch=3 n=84 v=127
183120 On ch=3 n=86 v=127
183120 On ch=3 n=96 v=127
183120 On ch=3 n=98 v=127
183120 On ch=3 n=62 v=127
183180 On ch=3 n=24 v=0
183180 On ch=3 n=31 v=0
183180 On ch=3 n=74 v=0
183180 On ch=3 n=84 v=0
183180 On ch=3 n=86 v=0
183180 On ch=3 n=96 v=0
183180 On ch=3 n=98 v=0
183180 On ch=3 n=62 v=0
183356 On ch=3 n=120 v=0
183356 On ch=3 n=121 v=0
183356 On ch=3 n=122 v=0
183356 On ch=3 n=123 v=0
183356 On ch=3 n=124 v=0
183360 On ch=3 n=106 v=0
183360 On ch=3 n=24 v=127
183360 On ch=3 n=31 v=127
183360 On ch=3 n=62 v=127
183360 On ch=3 n=72 v=127
183360 On ch=3 n=74 v=127
183360 On ch=3 n=84 v=127
183360 On ch=3 n=86 v=127
183360 On ch=3 n=96 v=127
183360 On ch=3 n=98 v=127
183360 On ch=3 n=60 v=100
183420 On ch=3 n=24 v=0
183420 On ch=3 n=31 v=0
183420 On ch=3 n=62 v=0
183420 On ch=3 n=72 v=0
183420 On ch=3 n=74 v=0
183420 On ch=3 n=84 v=0
183420 On ch=3 n=86 v=0
183420 On ch=3 n=96 v=0
183420 On ch=3 n=98 v=0
183420 On ch=3 n=60 v=0
183600 On ch=3 n=31 v=127
183600 On ch=3 n=74 v=127
183600 On ch=3 n=86 v=127
183600 On ch=3 n=98 v=127
183600 On ch=3 n=62 v=127
183660 On ch=3 n=31 v=0
183660 On ch=3 n=74 v=0
183660 On ch=3 n=86 v=0
183660 On ch=3 n=98 v=0
183660 On ch=3 n=62 v=0
183840 On ch=3 n=24 v=127
183840 On ch=3 n=26 v=127
183840 On ch=3 n=31 v=127
183840 On ch=3 n=61 v=127
183840 On ch=3 n=62 v=127
183840 On ch=3 n=73 v=127
183840 On ch=3 n=74 v=127
183840 On ch=3 n=85 v=127
183840 On ch=3 n=86 v=127
183840 On ch=3 n=96 v=127
183840 On ch=3 n=97 v=127
183840 On ch=3 n=98 v=127
183900 On ch=3 n=24 v=0
183900 On ch=3 n=26 v=0
183900 On ch=3 n=31 v=0
183900 On ch=3 n=61 v=0
183900 On ch=3 n=62 v=0
183900 On ch=3 n=73 v=0
183900 On ch=3 n=74 v=0
183900 On ch=3 n=85 v=0
183900 On ch=3 n=86 v=0
183900 On ch=3 n=96 v=0
183900 On ch=3 n=97 v=0
183900 On ch=3 n=98 v=0
184080 On ch=3 n=31 v=127
184080 On ch=3 n=74 v=127
184080 On ch=3 n=86 v=127
184080 On ch=3 n=98 v=127
184080 On ch=3 n=62 v=127
184140 On ch=3 n=31 v=0
184140 On ch=3 n=74 v=0
184140 On ch=3 n=86 v=0
184140 On ch=3 n=98 v=0
184140 On ch=3 n=62 v=0
184320 On ch=3 n=24 v=127
184320 On ch=3 n=31 v=127
184320 On ch=3 n=62 v=127
184320 On ch=3 n=72 v=127
184320 On ch=3 n=74 v=127
184320 On ch=3 n=84 v=127
184320 On ch=3 n=86 v=127
184320 On ch=3 n=96 v=127
184320 On ch=3 n=98 v=127
184380 On ch=3 n=24 v=0
184380 On ch=3 n=31 v=0
184380 On ch=3 n=62 v=0
184380 On ch=3 n=72 v=0
184380 On ch=3 n=74 v=0
184380 On ch=3 n=84 v=0
184380 On ch=3 n=86 v=0
184380 On ch=3 n=96 v=0
184380 On ch=3 n=98 v=0
184560 On ch=3 n=24 v=127
184560 On ch=3 n=31 v=127
184560 On ch=3 n=72 v=127
184560 On ch=3 n=74 v=127
184560 On ch=3 n=84 v=127
184560 On ch=3 n=86 v=127
184560 On ch=3 n=96 v=127
184560 On ch=3 n=98 v=127
184560 On ch=3 n=62 v=127
184620 On ch=3 n=24 v=0
184620 On ch=3 n=31 v=0
184620 On ch=3 n=72 v=0
184620 On ch=3 n=74 v=0
184620 On ch=3 n=84 v=0
184620 On ch=3 n=86 v=0
184620 On ch=3 n=96 v=0
184620 On ch=3 n=98 v=0
184620 On ch=3 n=62 v=0
184800 On ch=3 n=26 v=127
184800 On ch=3 n=31 v=127
184800 On ch=3 n=61 v=127
184800 On ch=3 n=62 v=127
184800 On ch=3 n=73 v=127
184800 On ch=3 n=74 v=127
184800 On ch=3 n=85 v=127
184800 On ch=3 n=86 v=127
184800 On ch=3 n=97 v=127
184800 On ch=3 n=98 v=127
184860 On ch=3 n=26 v=0
184860 On ch=3 n=31 v=0
184860 On ch=3 n=61 v=0
184860 On ch=3 n=62 v=0
184860 On ch=3 n=73 v=0
184860 On ch=3 n=74 v=0
184860 On ch=3 n=85 v=0
184860 On ch=3 n=86 v=0
184860 On ch=3 n=97 v=0
184860 On ch=3 n=98 v=0
185040 On ch=3 n=24 v=127
185040 On ch=3 n=31 v=127
185040 On ch=3 n=74 v=127
185040 On ch=3 n=84 v=127
185040 On ch=3 n=86 v=127
185040 On ch=3 n=96 v=127
185040 On ch=3 n=98 v=127
185040 On ch=3 n=62 v=127
185100 On ch=3 n=24 v=0
185100 On ch=3 n=31 v=0
185100 On ch=3 n=74 v=0
185100 On ch=3 n=84 v=0
185100 On ch=3 n=86 v=0
185100 On ch=3 n=96 v=0
185100 On ch=3 n=98 v=0
185100 On ch=3 n=62 v=0
185280 On ch=3 n=24 v=127
185280 On ch=3 n=31 v=127
185280 On ch=3 n=62 v=127
185280 On ch=3 n=72 v=127
185280 On ch=3 n=74 v=127
185280 On ch=3 n=84 v=127
185280 On ch=3 n=86 v=127
185280 On ch=3 n=96 v=127
185280 On ch=3 n=98 v=127
185340 On ch=3 n=24 v=0
185340 On ch=3 n=31 v=0
185340 On ch=3 n=62 v=0
185340 On ch=3 n=72 v=0
185340 On ch=3 n=74 v=0
185340 On ch=3 n=84 v=0
185340 On ch=3 n=86 v=0
185340 On ch=3 n=96 v=0
185340 On ch=3 n=98 v=0
185520 On ch=3 n=31 v=127
185520 On ch=3 n=74 v=127
185520 On ch=3 n=86 v=127
185520 On ch=3 n=98 v=127
185520 On ch=3 n=62 v=127
185580 On ch=3 n=31 v=0
185580 On ch=3 n=74 v=0
185580 On ch=3 n=86 v=0
185580 On ch=3 n=98 v=0
185580 On ch=3 n=62 v=0
185760 On ch=3 n=24 v=127
185760 On ch=3 n=26 v=127
185760 On ch=3 n=31 v=127
185760 On ch=3 n=61 v=127
185760 On ch=3 n=62 v=127
185760 On ch=3 n=73 v=127
185760 On ch=3 n=74 v=127
185760 On ch=3 n=85 v=127
185760 On ch=3 n=86 v=127
185760 On ch=3 n=96 v=127
185760 On ch=3 n=97 v=127
185760 On ch=3 n=98 v=127
185820 On ch=3 n=24 v=0
185820 On ch=3 n=26 v=0
185820 On ch=3 n=31 v=0
185820 On ch=3 n=61 v=0
185820 On ch=3 n=62 v=0
185820 On ch=3 n=73 v=0
185820 On ch=3 n=74 v=0
185820 On ch=3 n=85 v=0
185820 On ch=3 n=86 v=0
185820 On ch=3 n=96 v=0
185820 On ch=3 n=97 v=0
185820 On ch=3 n=98 v=0
186000 On ch=3 n=31 v=127
186000 On ch=3 n=74 v=127
186000 On ch=3 n=86 v=127
186000 On ch=3 n=98 v=127
186000 On ch=3 n=62 v=127
186060 On ch=3 n=31 v=0
186060 On ch=3 n=74 v=0
186060 On ch=3 n=86 v=0
186060 On ch=3 n=98 v=0
186060 On ch=3 n=62 v=0
186240 On ch=3 n=24 v=127
186240 On ch=3 n=31 v=127
186240 On ch=3 n=62 v=127
186240 On ch=3 n=72 v=127
186240 On ch=3 n=74 v=127
186240 On ch=3 n=84 v=127
186240 On ch=3 n=86 v=127
186240 On ch=3 n=96 v=127
186240 On ch=3 n=98 v=127
186300 On ch=3 n=24 v=0
186300 On ch=3 n=31 v=0
186300 On ch=3 n=62 v=0
186300 On ch=3 n=72 v=0
186300 On ch=3 n=74 v=0
186300 On ch=3 n=84 v=0
186300 On ch=3 n=86 v=0
186300 On ch=3 n=96 v=0
186300 On ch=3 n=98 v=0
186480 On ch=3 n=24 v=127
186480 On ch=3 n=31 v=127
186480 On ch=3 n=72 v=127
186480 On ch=3 n=74 v=127
186480 On ch=3 n=84 v=127
186480 On ch=3 n=86 v=127
186480 On ch=3 n=96 v=127
186480 On ch=3 n=98 v=127
186480 On ch=3 n=62 v=127
186540 On ch=3 n=24 v=0
186540 On ch=3 n=31 v=0
186540 On ch=3 n=72 v=0
186540 On ch=3 n=74 v=0
186540 On ch=3 n=84 v=0
186540 On ch=3 n=86 v=0
186540 On ch=3 n=96 v=0
186540 On ch=3 n=98 v=0
186540 On ch=3 n=62 v=0
186720 On ch=3 n=26 v=127
186720 On ch=3 n=31 v=127
186720 On ch=3 n=61 v=127
186720 On ch=3 n=62 v=127
186720 On ch=3 n=73 v=127
186720 On ch=3 n=74 v=127
186720 On ch=3 n=85 v=127
186720 On ch=3 n=86 v=127
186720 On ch=3 n=97 v=127
186720 On ch=3 n=98 v=127
186780 On ch=3 n=26 v=0
186780 On ch=3 n=31 v=0
186780 On ch=3 n=61 v=0
186780 On ch=3 n=62 v=0
186780 On ch=3 n=73 v=0
186780 On ch=3 n=74 v=0
186780 On ch=3 n=85 v=0
186780 On ch=3 n=86 v=0
186780 On ch=3 n=97 v=0
186780 On ch=3 n=98 v=0
186960 On ch=3 n=24 v=127
186960 On ch=3 n=31 v=127
186960 On ch=3 n=74 v=127
186960 On ch=3 n=84 v=127
186960 On ch=3 n=86 v=127
186960 On ch=3 n=96 v=127
186960 On ch=3 n=98 v=127
186960 On ch=3 n=62 v=127
187020 On ch=3 n=24 v=0
187020 On ch=3 n=31 v=0
187020 On ch=3 n=74 v=0
187020 On ch=3 n=84 v=0
187020 On ch=3 n=86 v=0
187020 On ch=3 n=96 v=0
187020 On ch=3 n=98 v=0
187020 On ch=3 n=62 v=0
187200 On ch=3 n=105 v=0
187200 On ch=3 n=24 v=127
187200 On ch=3 n=31 v=127
187200 On ch=3 n=62 v=127
187200 On ch=3 n=72 v=127
187200 On ch=3 n=74 v=127
187200 On ch=3 n=84 v=127
187200 On ch=3 n=86 v=127
187200 On ch=3 n=96 v=127
187200 On ch=3 n=98 v=127
187200 On ch=3 n=106 v=100
187200 On ch=3 n=60 v=100
187260 On ch=3 n=24 v=0
187260 On ch=3 n=31 v=0
187260 On ch=3 n=62 v=0
187260 On ch=3 n=72 v=0
187260 On ch=3 n=74 v=0
187260 On ch=3 n=84 v=0
187260 On ch=3 n=86 v=0
187260 On ch=3 n=96 v=0
187260 On ch=3 n=98 v=0
187260 On ch=3 n=60 v=0
187440 On ch=3 n=31 v=127
187440 On ch=3 n=74 v=127
187440 On ch=3 n=86 v=127
187440 On ch=3 n=98 v=127
187440 On ch=3 n=62 v=127
187500 On ch=3 n=31 v=0
187500 On ch=3 n=74 v=0
187500 On ch=3 n=86 v=0
187500 On ch=3 n=98 v=0
187500 On ch=3 n=62 v=0
187680 On ch=3 n=24 v=127
187680 On ch=3 n=26 v=127
187680 On ch=3 n=31 v=127
187680 On ch=3 n=61 v=127
187680 On ch=3 n=62 v=127
187680 On ch=3 n=73 v=127
187680 On ch=3 n=74 v=127
187680 On ch=3 n=85 v=127
187680 On ch=3 n=86 v=127
187680 On ch=3 n=96 v=127
187680 On ch=3 n=97 v=127
187680 On ch=3 n=98 v=127
187740 On ch=3 n=24 v=0
187740 On ch=3 n=26 v=0
187740 On ch=3 n=31 v=0
187740 On ch=3 n=61 v=0
187740 On ch=3 n=62 v=0
187740 On ch=3 n=73 v=0
187740 On ch=3 n=74 v=0
187740 On ch=3 n=85 v=0
187740 On ch=3 n=86 v=0
187740 On ch=3 n=96 v=0
187740 On ch=3 n=97 v=0
187740 On ch=3 n=98 v=0
187920 On ch=3 n=31 v=127
187920 On ch=3 n=74 v=127
187920 On ch=3 n=86 v=127
187920 On ch=3 n=98 v=127
187920 On ch=3 n=62 v=127
187980 On ch=3 n=31 v=0
187980 On ch=3 n=74 v=0
187980 On ch=3 n=86 v=0
187980 On ch=3 n=98 v=0
187980 On ch=3 n=62 v=0
188160 On ch=3 n=24 v=127
188160 On ch=3 n=31 v=127
188160 On ch=3 n=62 v=127
188160 On ch=3 n=72 v=127
188160 On ch=3 n=74 v=127
188160 On ch=3 n=84 v=127
188160 On ch=3 n=86 v=127
188160 On ch=3 n=96 v=127
188160 On ch=3 n=98 v=127
188220 On ch=3 n=24 v=0
188220 On ch=3 n=31 v=0
188220 On ch=3 n=62 v=0
188220 On ch=3 n=72 v=0
188220 On ch=3 n=74 v=0
188220 On ch=3 n=84 v=0
188220 On ch=3 n=86 v=0
188220 On ch=3 n=96 v=0
188220 On ch=3 n=98 v=0
188400 On ch=3 n=24 v=127
188400 On ch=3 n=31 v=127
188400 On ch=3 n=72 v=127
188400 On ch=3 n=74 v=127
188400 On ch=3 n=84 v=127
188400 On ch=3 n=86 v=127
188400 On ch=3 n=96 v=127
188400 On ch=3 n=98 v=127
188400 On ch=3 n=62 v=127
188460 On ch=3 n=24 v=0
188460 On ch=3 n=31 v=0
188460 On ch=3 n=72 v=0
188460 On ch=3 n=74 v=0
188460 On ch=3 n=84 v=0
188460 On ch=3 n=86 v=0
188460 On ch=3 n=96 v=0
188460 On ch=3 n=98 v=0
188460 On ch=3 n=62 v=0
188640 On ch=3 n=26 v=127
188640 On ch=3 n=31 v=127
188640 On ch=3 n=61 v=127
188640 On ch=3 n=62 v=127
188640 On ch=3 n=73 v=127
188640 On ch=3 n=74 v=127
188640 On ch=3 n=85 v=127
188640 On ch=3 n=86 v=127
188640 On ch=3 n=97 v=127
188640 On ch=3 n=98 v=127
188700 On ch=3 n=26 v=0
188700 On ch=3 n=31 v=0
188700 On ch=3 n=61 v=0
188700 On ch=3 n=62 v=0
188700 On ch=3 n=73 v=0
188700 On ch=3 n=74 v=0
188700 On ch=3 n=85 v=0
188700 On ch=3 n=86 v=0
188700 On ch=3 n=97 v=0
188700 On ch=3 n=98 v=0
188880 On ch=3 n=24 v=127
188880 On ch=3 n=31 v=127
188880 On ch=3 n=74 v=127
188880 On ch=3 n=84 v=127
188880 On ch=3 n=86 v=127
188880 On ch=3 n=96 v=127
188880 On ch=3 n=98 v=127
188880 On ch=3 n=62 v=127
188940 On ch=3 n=24 v=0
188940 On ch=3 n=31 v=0
188940 On ch=3 n=74 v=0
188940 On ch=3 n=84 v=0
188940 On ch=3 n=86 v=0
188940 On ch=3 n=96 v=0
188940 On ch=3 n=98 v=0
188940 On ch=3 n=62 v=0
189120 On ch=3 n=24 v=127
189120 On ch=3 n=31 v=127
189120 On ch=3 n=62 v=127
189120 On ch=3 n=72 v=127
189120 On ch=3 n=74 v=127
189120 On ch=3 n=84 v=127
189120 On ch=3 n=86 v=127
189120 On ch=3 n=96 v=127
189120 On ch=3 n=98 v=127
189120 On ch=3 n=105 v=100
189180 On ch=3 n=24 v=0
189180 On ch=3 n=31 v=0
189180 On ch=3 n=62 v=0
189180 On ch=3 n=72 v=0
189180 On ch=3 n=74 v=0
189180 On ch=3 n=84 v=0
189180 On ch=3 n=86 v=0
189180 On ch=3 n=96 v=0
189180 On ch=3 n=98 v=0
189360 On ch=3 n=31 v=127
189360 On ch=3 n=74 v=127
189360 On ch=3 n=86 v=127
189360 On ch=3 n=98 v=127
189360 On ch=3 n=62 v=127
189420 On ch=3 n=31 v=0
189420 On ch=3 n=74 v=0
189420 On ch=3 n=86 v=0
189420 On ch=3 n=98 v=0
189420 On ch=3 n=62 v=0
189600 On ch=3 n=24 v=127
189600 On ch=3 n=26 v=127
189600 On ch=3 n=31 v=127
189600 On ch=3 n=61 v=127
189600 On ch=3 n=62 v=127
189600 On ch=3 n=73 v=127
189600 On ch=3 n=74 v=127
189600 On ch=3 n=85 v=127
189600 On ch=3 n=86 v=127
189600 On ch=3 n=96 v=127
189600 On ch=3 n=97 v=127
189600 On ch=3 n=98 v=127
189660 On ch=3 n=24 v=0
189660 On ch=3 n=26 v=0
189660 On ch=3 n=31 v=0
189660 On ch=3 n=61 v=0
189660 On ch=3 n=62 v=0
189660 On ch=3 n=73 v=0
189660 On ch=3 n=74 v=0
189660 On ch=3 n=85 v=0
189660 On ch=3 n=86 v=0
189660 On ch=3 n=96 v=0
189660 On ch=3 n=97 v=0
189660 On ch=3 n=98 v=0
189840 On ch=3 n=31 v=127
189840 On ch=3 n=74 v=127
189840 On ch=3 n=86 v=127
189840 On ch=3 n=98 v=127
189840 On ch=3 n=62 v=127
189900 On ch=3 n=31 v=0
189900 On ch=3 n=74 v=0
189900 On ch=3 n=86 v=0
189900 On ch=3 n=98 v=0
189900 On ch=3 n=62 v=0
190080 On ch=3 n=24 v=127
190080 On ch=3 n=31 v=127
190080 On ch=3 n=62 v=127
190080 On ch=3 n=72 v=127
190080 On ch=3 n=74 v=127
190080 On ch=3 n=84 v=127
190080 On ch=3 n=86 v=127
190080 On ch=3 n=96 v=127
190080 On ch=3 n=98 v=127
190080 On ch=3 n=120 v=127
190080 On ch=3 n=121 v=127
190080 On ch=3 n=122 v=127
190080 On ch=3 n=123 v=127
190080 On ch=3 n=124 v=127
190140 On ch=3 n=24 v=0
190140 On ch=3 n=31 v=0
190140 On ch=3 n=62 v=0
190140 On ch=3 n=72 v=0
190140 On ch=3 n=74 v=0
190140 On ch=3 n=84 v=0
190140 On ch=3 n=86 v=0
190140 On ch=3 n=96 v=0
190140 On ch=3 n=98 v=0
190320 On ch=3 n=24 v=127
190320 On ch=3 n=31 v=127
190320 On ch=3 n=72 v=127
190320 On ch=3 n=74 v=127
190320 On ch=3 n=84 v=127
190320 On ch=3 n=86 v=127
190320 On ch=3 n=96 v=127
190320 On ch=3 n=98 v=127
190320 On ch=3 n=62 v=127
190380 On ch=3 n=24 v=0
190380 On ch=3 n=31 v=0
190380 On ch=3 n=72 v=0
190380 On ch=3 n=74 v=0
190380 On ch=3 n=84 v=0
190380 On ch=3 n=86 v=0
190380 On ch=3 n=96 v=0
190380 On ch=3 n=98 v=0
190380 On ch=3 n=62 v=0
190560 On ch=3 n=26 v=127
190560 On ch=3 n=31 v=127
190560 On ch=3 n=61 v=127
190560 On ch=3 n=62 v=127
190560 On ch=3 n=73 v=127
190560 On ch=3 n=74 v=127
190560 On ch=3 n=85 v=127
190560 On ch=3 n=86 v=127
190560 On ch=3 n=97 v=127
190560 On ch=3 n=98 v=127
190620 On ch=3 n=26 v=0
190620 On ch=3 n=31 v=0
190620 On ch=3 n=61 v=0
190620 On ch=3 n=62 v=0
190620 On ch=3 n=73 v=0
190620 On ch=3 n=74 v=0
190620 On ch=3 n=85 v=0
190620 On ch=3 n=86 v=0
190620 On ch=3 n=97 v=0
190620 On ch=3 n=98 v=0
190800 On ch=3 n=24 v=127
190800 On ch=3 n=31 v=127
190800 On ch=3 n=74 v=127
190800 On ch=3 n=84 v=127
190800 On ch=3 n=86 v=127
190800 On ch=3 n=96 v=127
190800 On ch=3 n=98 v=127
190800 On ch=3 n=62 v=127
190860 On ch=3 n=24 v=0
190860 On ch=3 n=31 v=0
190860 On ch=3 n=74 v=0
190860 On ch=3 n=84 v=0
190860 On ch=3 n=86 v=0
190860 On ch=3 n=96 v=0
190860 On ch=3 n=98 v=0
190860 On ch=3 n=62 v=0
191036 On ch=3 n=120 v=0
191036 On ch=3 n=121 v=0
191036 On ch=3 n=122 v=0
191036 On ch=3 n=123 v=0
191036 On ch=3 n=124 v=0
191040 On ch=3 n=105 v=0
191040 On ch=3 n=24 v=127
191040 On ch=3 n=36 v=127
191040 On ch=3 n=64 v=127
191040 On ch=3 n=72 v=127
191040 On ch=3 n=76 v=127
191040 On ch=3 n=84 v=127
191040 On ch=3 n=88 v=127
191040 On ch=3 n=96 v=127
191040 On ch=3 n=100 v=127
191040 On ch=3 n=60 v=100
191100 On ch=3 n=24 v=0
191100 On ch=3 n=36 v=0
191100 On ch=3 n=64 v=0
191100 On ch=3 n=72 v=0
191100 On ch=3 n=76 v=0
191100 On ch=3 n=84 v=0
191100 On ch=3 n=88 v=0
191100 On ch=3 n=96 v=0
191100 On ch=3 n=100 v=0
191100 On ch=3 n=60 v=0
191520 On ch=3 n=24 v=127
191520 On ch=3 n=25 v=127
191520 On ch=3 n=26 v=127
191520 On ch=3 n=61 v=127
191520 On ch=3 n=73 v=127
191520 On ch=3 n=85 v=127
191520 On ch=3 n=96 v=127
191520 On ch=3 n=97 v=127
191580 On ch=3 n=24 v=0
191580 On ch=3 n=26 v=0
191580 On ch=3 n=61 v=0
191580 On ch=3 n=73 v=0
191580 On ch=3 n=85 v=0
191580 On ch=3 n=96 v=0
191580 On ch=3 n=97 v=0
191754 On ch=3 n=25 v=0
192000 On ch=3 n=24 v=127
192000 On ch=3 n=31 v=127
192000 On ch=3 n=62 v=127
192000 On ch=3 n=72 v=127
192000 On ch=3 n=74 v=127
192000 On ch=3 n=84 v=127
192000 On ch=3 n=86 v=127
192000 On ch=3 n=96 v=127
192000 On ch=3 n=98 v=127
192060 On ch=3 n=24 v=0
192060 On ch=3 n=31 v=0
192060 On ch=3 n=62 v=0
192060 On ch=3 n=72 v=0
192060 On ch=3 n=74 v=0
192060 On ch=3 n=84 v=0
192060 On ch=3 n=86 v=0
192060 On ch=3 n=96 v=0
192060 On ch=3 n=98 v=0
192240 On ch=3 n=24 v=127
192240 On ch=3 n=31 v=127
192240 On ch=3 n=72 v=127
192240 On ch=3 n=74 v=127
192240 On ch=3 n=84 v=127
192240 On ch=3 n=86 v=127
192240 On ch=3 n=96 v=127
192240 On ch=3 n=98 v=127
192240 On ch=3 n=62 v=127
192300 On ch=3 n=24 v=0
192300 On ch=3 n=31 v=0
192300 On ch=3 n=72 v=0
192300 On ch=3 n=74 v=0
192300 On ch=3 n=84 v=0
192300 On ch=3 n=86 v=0
192300 On ch=3 n=96 v=0
192300 On ch=3 n=98 v=0
192300 On ch=3 n=62 v=0
192480 On ch=3 n=26 v=127
192480 On ch=3 n=31 v=127
192480 On ch=3 n=61 v=127
192480 On ch=3 n=62 v=127
192480 On ch=3 n=73 v=127
192480 On ch=3 n=74 v=127
192480 On ch=3 n=85 v=127
192480 On ch=3 n=86 v=127
192480 On ch=3 n=97 v=127
192480 On ch=3 n=98 v=127
192540 On ch=3 n=26 v=0
192540 On ch=3 n=31 v=0
192540 On ch=3 n=61 v=0
192540 On ch=3 n=62 v=0
192540 On ch=3 n=73 v=0
192540 On ch=3 n=74 v=0
192540 On ch=3 n=85 v=0
192540 On ch=3 n=86 v=0
192540 On ch=3 n=97 v=0
192540 On ch=3 n=98 v=0
192720 On ch=3 n=24 v=127
192720 On ch=3 n=31 v=127
192720 On ch=3 n=74 v=127
192720 On ch=3 n=84 v=127
192720 On ch=3 n=86 v=127
192720 On ch=3 n=96 v=127
192720 On ch=3 n=98 v=127
192720 On ch=3 n=62 v=127
192780 On ch=3 n=24 v=0
192780 On ch=3 n=31 v=0
192780 On ch=3 n=74 v=0
192780 On ch=3 n=84 v=0
192780 On ch=3 n=86 v=0
192780 On ch=3 n=96 v=0
192780 On ch=3 n=98 v=0
192780 On ch=3 n=62 v=0
192960 On ch=3 n=24 v=127
192960 On ch=3 n=31 v=127
192960 On ch=3 n=62 v=127
192960 On ch=3 n=72 v=127
192960 On ch=3 n=74 v=127
192960 On ch=3 n=84 v=127
192960 On ch=3 n=86 v=127
192960 On ch=3 n=96 v=127
192960 On ch=3 n=98 v=127
193020 On ch=3 n=24 v=0
193020 On ch=3 n=31 v=0
193020 On ch=3 n=62 v=0
193020 On ch=3 n=72 v=0
193020 On ch=3 n=74 v=0
193020 On ch=3 n=84 v=0
193020 On ch=3 n=86 v=0
193020 On ch=3 n=96 v=0
193020 On ch=3 n=98 v=0
193200 On ch=3 n=31 v=127
193200 On ch=3 n=74 v=127
193200 On ch=3 n=86 v=127
193200 On ch=3 n=98 v=127
193200 On ch=3 n=62 v=127
193260 On ch=3 n=31 v=0
193260 On ch=3 n=74 v=0
193260 On ch=3 n=86 v=0
193260 On ch=3 n=98 v=0
193260 On ch=3 n=62 v=0
193440 On ch=3 n=24 v=127
193440 On ch=3 n=26 v=127
193440 On ch=3 n=31 v=127
193440 On ch=3 n=61 v=127
193440 On ch=3 n=62 v=127
193440 On ch=3 n=73 v=127
193440 On ch=3 n=74 v=127
193440 On ch=3 n=85 v=127
193440 On ch=3 n=86 v=127
193440 On ch=3 n=96 v=127
193440 On ch=3 n=97 v=127
193440 On ch=3 n=98 v=127
193500 On ch=3 n=24 v=0
193500 On ch=3 n=26 v=0
193500 On ch=3 n=31 v=0
193500 On ch=3 n=61 v=0
193500 On ch=3 n=62 v=0
193500 On ch=3 n=73 v=0
193500 On ch=3 n=74 v=0
193500 On ch=3 n=85 v=0
193500 On ch=3 n=86 v=0
193500 On ch=3 n=96 v=0
193500 On ch=3 n=97 v=0
193500 On ch=3 n=98 v=0
193680 On ch=3 n=31 v=127
193680 On ch=3 n=74 v=127
193680 On ch=3 n=86 v=127
193680 On ch=3 n=98 v=127
193680 On ch=3 n=62 v=127
193740 On ch=3 n=31 v=0
193740 On ch=3 n=74 v=0
193740 On ch=3 n=86 v=0
193740 On ch=3 n=98 v=0
193740 On ch=3 n=62 v=0
193920 On ch=3 n=24 v=127
193920 On ch=3 n=31 v=127
193920 On ch=3 n=62 v=127
193920 On ch=3 n=72 v=127
193920 On ch=3 n=74 v=127
193920 On ch=3 n=84 v=127
193920 On ch=3 n=86 v=127
193920 On ch=3 n=96 v=127
193920 On ch=3 n=98 v=127
193980 On ch=3 n=24 v=0
193980 On ch=3 n=31 v=0
193980 On ch=3 n=62 v=0
193980 On ch=3 n=72 v=0
193980 On ch=3 n=74 v=0
193980 On ch=3 n=84 v=0
193980 On ch=3 n=86 v=0
193980 On ch=3 n=96 v=0
193980 On ch=3 n=98 v=0
194160 On ch=3 n=24 v=127
194160 On ch=3 n=31 v=127
194160 On ch=3 n=72 v=127
194160 On ch=3 n=74 v=127
194160 On ch=3 n=84 v=127
194160 On ch=3 n=86 v=127
194160 On ch=3 n=96 v=127
194160 On ch=3 n=98 v=127
194160 On ch=3 n=62 v=127
194220 On ch=3 n=24 v=0
194220 On ch=3 n=31 v=0
194220 On ch=3 n=72 v=0
194220 On ch=3 n=74 v=0
194220 On ch=3 n=84 v=0
194220 On ch=3 n=86 v=0
194220 On ch=3 n=96 v=0
194220 On ch=3 n=98 v=0
194220 On ch=3 n=62 v=0
194400 On ch=3 n=26 v=127
194400 On ch=3 n=31 v=127
194400 On ch=3 n=61 v=127
194400 On ch=3 n=62 v=127
194400 On ch=3 n=73 v=127
194400 On ch=3 n=74 v=127
194400 On ch=3 n=85 v=127
194400 On ch=3 n=86 v=127
194400 On ch=3 n=97 v=127
194400 On ch=3 n=98 v=127
194460 On ch=3 n=26 v=0
194460 On ch=3 n=31 v=0
194460 On ch=3 n=61 v=0
194460 On ch=3 n=62 v=0
194460 On ch=3 n=73 v=0
194460 On ch=3 n=74 v=0
194460 On ch=3 n=85 v=0
194460 On ch=3 n=86 v=0
194460 On ch=3 n=97 v=0
194460 On ch=3 n=98 v=0
194640 On ch=3 n=24 v=127
194640 On ch=3 n=31 v=127
194640 On ch=3 n=74 v=127
194640 On ch=3 n=84 v=127
194640 On ch=3 n=86 v=127
194640 On ch=3 n=96 v=127
194640 On ch=3 n=98 v=127
194640 On ch=3 n=62 v=127
194700 On ch=3 n=24 v=0
194700 On ch=3 n=31 v=0
194700 On ch=3 n=74 v=0
194700 On ch=3 n=84 v=0
194700 On ch=3 n=86 v=0
194700 On ch=3 n=96 v=0
194700 On ch=3 n=98 v=0
194700 On ch=3 n=62 v=0
194880 On ch=3 n=106 v=0
194880 On ch=3 n=24 v=127
194880 On ch=3 n=31 v=127
194880 On ch=3 n=62 v=127
194880 On ch=3 n=72 v=127
194880 On ch=3 n=74 v=127
194880 On ch=3 n=84 v=127
194880 On ch=3 n=86 v=127
194880 On ch=3 n=96 v=127
194880 On ch=3 n=98 v=127
194880 On ch=3 n=105 v=100
194880 On ch=3 n=60 v=100
194940 On ch=3 n=24 v=0
194940 On ch=3 n=31 v=0
194940 On ch=3 n=62 v=0
194940 On ch=3 n=72 v=0
194940 On ch=3 n=74 v=0
194940 On ch=3 n=84 v=0
194940 On ch=3 n=86 v=0
194940 On ch=3 n=96 v=0
194940 On ch=3 n=98 v=0
194940 On ch=3 n=60 v=0
195120 On ch=3 n=31 v=127
195120 On ch=3 n=74 v=127
195120 On ch=3 n=86 v=127
195120 On ch=3 n=98 v=127
195120 On ch=3 n=62 v=127
195180 On ch=3 n=31 v=0
195180 On ch=3 n=74 v=0
195180 On ch=3 n=86 v=0
195180 On ch=3 n=98 v=0
195180 On ch=3 n=62 v=0
195360 On ch=3 n=24 v=127
195360 On ch=3 n=26 v=127
195360 On ch=3 n=31 v=127
195360 On ch=3 n=61 v=127
195360 On ch=3 n=62 v=127
195360 On ch=3 n=73 v=127
195360 On ch=3 n=74 v=127
195360 On ch=3 n=85 v=127
195360 On ch=3 n=86 v=127
195360 On ch=3 n=96 v=127
195360 On ch=3 n=97 v=127
195360 On ch=3 n=98 v=127
195420 On ch=3 n=24 v=0
195420 On ch=3 n=26 v=0
195420 On ch=3 n=31 v=0
195420 On ch=3 n=61 v=0
195420 On ch=3 n=62 v=0
195420 On ch=3 n=73 v=0
195420 On ch=3 n=74 v=0
195420 On ch=3 n=85 v=0
195420 On ch=3 n=86 v=0
195420 On ch=3 n=96 v=0
195420 On ch=3 n=97 v=0
195420 On ch=3 n=98 v=0
195600 On ch=3 n=31 v=127
195600 On ch=3 n=74 v=127
195600 On ch=3 n=86 v=127
195600 On ch=3 n=98 v=127
195600 On ch=3 n=62 v=127
195660 On ch=3 n=31 v=0
195660 On ch=3 n=74 v=0
195660 On ch=3 n=86 v=0
195660 On ch=3 n=98 v=0
195660 On ch=3 n=62 v=0
195840 On ch=3 n=24 v=127
195840 On ch=3 n=31 v=127
195840 On ch=3 n=62 v=127
195840 On ch=3 n=72 v=127
195840 On ch=3 n=74 v=127
195840 On ch=3 n=84 v=127
195840 On ch=3 n=86 v=127
195840 On ch=3 n=96 v=127
195840 On ch=3 n=98 v=127
195900 On ch=3 n=24 v=0
195900 On ch=3 n=31 v=0
195900 On ch=3 n=62 v=0
195900 On ch=3 n=72 v=0
195900 On ch=3 n=74 v=0
195900 On ch=3 n=84 v=0
195900 On ch=3 n=86 v=0
195900 On ch=3 n=96 v=0
195900 On ch=3 n=98 v=0
196080 On ch=3 n=24 v=127
196080 On ch=3 n=31 v=127
196080 On ch=3 n=72 v=127
196080 On ch=3 n=74 v=127
196080 On ch=3 n=84 v=127
196080 On ch=3 n=86 v=127
196080 On ch=3 n=96 v=127
196080 On ch=3 n=98 v=127
196080 On ch=3 n=62 v=127
196140 On ch=3 n=24 v=0
196140 On ch=3 n=31 v=0
196140 On ch=3 n=72 v=0
196140 On ch=3 n=74 v=0
196140 On ch=3 n=84 v=0
196140 On ch=3 n=86 v=0
196140 On ch=3 n=96 v=0
196140 On ch=3 n=98 v=0
196140 On ch=3 n=62 v=0
196320 On ch=3 n=26 v=127
196320 On ch=3 n=31 v=127
196320 On ch=3 n=61 v=127
196320 On ch=3 n=62 v=127
196320 On ch=3 n=73 v=127
196320 On ch=3 n=74 v=127
196320 On ch=3 n=85 v=127
196320 On ch=3 n=86 v=127
196320 On ch=3 n=97 v=127
196320 On ch=3 n=98 v=127
196380 On ch=3 n=26 v=0
196380 On ch=3 n=31 v=0
196380 On ch=3 n=61 v=0
196380 On ch=3 n=62 v=0
196380 On ch=3 n=73 v=0
196380 On ch=3 n=74 v=0
196380 On ch=3 n=85 v=0
196380 On ch=3 n=86 v=0
196380 On ch=3 n=97 v=0
196380 On ch=3 n=98 v=0
196560 On ch=3 n=24 v=127
196560 On ch=3 n=31 v=127
196560 On ch=3 n=74 v=127
196560 On ch=3 n=84 v=127
196560 On ch=3 n=86 v=127
196560 On ch=3 n=96 v=127
196560 On ch=3 n=98 v=127
196560 On ch=3 n=62 v=127
196620 On ch=3 n=24 v=0
196620 On ch=3 n=31 v=0
196620 On ch=3 n=74 v=0
196620 On ch=3 n=84 v=0
196620 On ch=3 n=86 v=0
196620 On ch=3 n=96 v=0
196620 On ch=3 n=98 v=0
196620 On ch=3 n=62 v=0
196800 On ch=3 n=24 v=127
196800 On ch=3 n=31 v=127
196800 On ch=3 n=62 v=127
196800 On ch=3 n=72 v=127
196800 On ch=3 n=74 v=127
196800 On ch=3 n=84 v=127
196800 On ch=3 n=86 v=127
196800 On ch=3 n=96 v=127
196800 On ch=3 n=98 v=127
196860 On ch=3 n=24 v=0
196860 On ch=3 n=31 v=0
196860 On ch=3 n=62 v=0
196860 On ch=3 n=72 v=0
196860 On ch=3 n=74 v=0
196860 On ch=3 n=84 v=0
196860 On ch=3 n=86 v=0
196860 On ch=3 n=96 v=0
196860 On ch=3 n=98 v=0
197040 On ch=3 n=31 v=127
197040 On ch=3 n=74 v=127
197040 On ch=3 n=86 v=127
197040 On ch=3 n=98 v=127
197040 On ch=3 n=62 v=127
197100 On ch=3 n=31 v=0
197100 On ch=3 n=74 v=0
197100 On ch=3 n=86 v=0
197100 On ch=3 n=98 v=0
197100 On ch=3 n=62 v=0
197280 On ch=3 n=24 v=127
197280 On ch=3 n=26 v=127
197280 On ch=3 n=31 v=127
197280 On ch=3 n=61 v=127
197280 On ch=3 n=62 v=127
197280 On ch=3 n=73 v=127
197280 On ch=3 n=74 v=127
197280 On ch=3 n=85 v=127
197280 On ch=3 n=86 v=127
197280 On ch=3 n=96 v=127
197280 On ch=3 n=97 v=127
197280 On ch=3 n=98 v=127
197340 On ch=3 n=24 v=0
197340 On ch=3 n=26 v=0
197340 On ch=3 n=31 v=0
197340 On ch=3 n=61 v=0
197340 On ch=3 n=62 v=0
197340 On ch=3 n=73 v=0
197340 On ch=3 n=74 v=0
197340 On ch=3 n=85 v=0
197340 On ch=3 n=86 v=0
197340 On ch=3 n=96 v=0
197340 On ch=3 n=97 v=0
197340 On ch=3 n=98 v=0
197520 On ch=3 n=27 v=127
197520 On ch=3 n=73 v=127
197520 On ch=3 n=85 v=127
197520 On ch=3 n=97 v=127
197520 On ch=3 n=120 v=127
197520 On ch=3 n=121 v=127
197520 On ch=3 n=122 v=127
197520 On ch=3 n=123 v=127
197520 On ch=3 n=124 v=127
197520 On ch=3 n=106 v=100
197580 On ch=3 n=27 v=0
197580 On ch=3 n=73 v=0
197580 On ch=3 n=85 v=0
197580 On ch=3 n=97 v=0
197640 On ch=3 n=26 v=127
197640 On ch=3 n=85 v=127
197640 On ch=3 n=97 v=127
197700 On ch=3 n=26 v=0
197700 On ch=3 n=85 v=0
197700 On ch=3 n=97 v=0
197760 On ch=3 n=24 v=127
197760 On ch=3 n=36 v=127
197760 On ch=3 n=64 v=127
197760 On ch=3 n=72 v=127
197760 On ch=3 n=76 v=127
197760 On ch=3 n=84 v=127
197760 On ch=3 n=88 v=127
197760 On ch=3 n=96 v=127
197760 On ch=3 n=100 v=127
197760 On ch=3 n=60 v=100
197820 On ch=3 n=24 v=0
197820 On ch=3 n=36 v=0
197820 On ch=3 n=64 v=0
197820 On ch=3 n=72 v=0
197820 On ch=3 n=76 v=0
197820 On ch=3 n=84 v=0
197820 On ch=3 n=88 v=0
197820 On ch=3 n=96 v=0
197820 On ch=3 n=100 v=0
197820 On ch=3 n=60 v=0
198000 On ch=3 n=46 v=127
198000 On ch=3 n=98 v=127
198000 On ch=3 n=110 v=127
198000 On ch=3 n=111 v=127
198000 On ch=3 n=112 v=127
198000 On ch=3 n=86 v=100
198000 On ch=3 n=74 v=100
198060 On ch=3 n=46 v=0
198060 On ch=3 n=98 v=0
198060 On ch=3 n=86 v=0
198060 On ch=3 n=74 v=0
198240 On ch=3 n=24 v=127
198240 On ch=3 n=48 v=127
198240 On ch=3 n=49 v=127
198240 On ch=3 n=96 v=127
198240 On ch=3 n=98 v=127
198240 On ch=3 n=99 v=127
198240 On ch=3 n=87 v=100
198240 On ch=3 n=75 v=100
198240 On ch=3 n=63 v=100
198300 On ch=3 n=24 v=0
198300 On ch=3 n=48 v=0
198300 On ch=3 n=49 v=0
198300 On ch=3 n=96 v=0
198300 On ch=3 n=98 v=0
198300 On ch=3 n=99 v=0
198300 On ch=3 n=87 v=0
198300 On ch=3 n=75 v=0
198300 On ch=3 n=63 v=0
198480 On ch=3 n=51 v=127
198480 On ch=3 n=100 v=127
198480 On ch=3 n=88 v=100
198540 On ch=3 n=51 v=0
198540 On ch=3 n=100 v=0
198540 On ch=3 n=88 v=0
198598 On ch=3 n=110 v=0
198598 On ch=3 n=111 v=0
198598 On ch=3 n=112 v=0
198716 On ch=3 n=120 v=0
198716 On ch=3 n=121 v=0
198716 On ch=3 n=122 v=0
198716 On ch=3 n=123 v=0
198716 On ch=3 n=124 v=0
198720 On ch=3 n=24 v=127
198720 On ch=3 n=38 v=127
198720 On ch=3 n=64 v=127
198720 On ch=3 n=72 v=127
198720 On ch=3 n=76 v=127
198720 On ch=3 n=84 v=127
198720 On ch=3 n=88 v=127
198720 On ch=3 n=96 v=127
198720 On ch=3 n=100 v=127
198720 On ch=3 n=60 v=100
198780 On ch=3 n=24 v=0
198780 On ch=3 n=38 v=0
198780 On ch=3 n=64 v=0
198780 On ch=3 n=72 v=0
198780 On ch=3 n=76 v=0
198780 On ch=3 n=84 v=0
198780 On ch=3 n=88 v=0
198780 On ch=3 n=96 v=0
198780 On ch=3 n=100 v=0
198780 On ch=3 n=60 v=0
199200 On ch=3 n=24 v=127
199200 On ch=3 n=25 v=127
199200 On ch=3 n=26 v=127
199200 On ch=3 n=61 v=127
199200 On ch=3 n=73 v=127
199200 On ch=3 n=85 v=127
199200 On ch=3 n=96 v=127
199200 On ch=3 n=97 v=127
199260 On ch=3 n=24 v=0
199260 On ch=3 n=26 v=0
199260 On ch=3 n=61 v=0
199260 On ch=3 n=73 v=0
199260 On ch=3 n=85 v=0
199260 On ch=3 n=96 v=0
199260 On ch=3 n=97 v=0
199434 On ch=3 n=25 v=0
199680 On ch=3 n=24 v=127
199680 On ch=3 n=31 v=127
199680 On ch=3 n=62 v=127
199680 On ch=3 n=72 v=127
199680 On ch=3 n=74 v=127
199680 On ch=3 n=84 v=127
199680 On ch=3 n=86 v=127
199680 On ch=3 n=96 v=127
199680 On ch=3 n=98 v=127
199740 On ch=3 n=24 v=0
199740 On ch=3 n=31 v=0
199740 On ch=3 n=62 v=0
199740 On ch=3 n=72 v=0
199740 On ch=3 n=74 v=0
199740 On ch=3 n=84 v=0
199740 On ch=3 n=86 v=0
199740 On ch=3 n=96 v=0
199740 On ch=3 n=98 v=0
199920 On ch=3 n=24 v=127
199920 On ch=3 n=31 v=127
199920 On ch=3 n=72 v=127
199920 On ch=3 n=74 v=127
199920 On ch=3 n=84 v=127
199920 On ch=3 n=86 v=127
199920 On ch=3 n=96 v=127
199920 On ch=3 n=98 v=127
199920 On ch=3 n=62 v=127
199980 On ch=3 n=24 v=0
199980 On ch=3 n=31 v=0
199980 On ch=3 n=72 v=0
199980 On ch=3 n=74 v=0
199980 On ch=3 n=84 v=0
199980 On ch=3 n=86 v=0
199980 On ch=3 n=96 v=0
199980 On ch=3 n=98 v=0
199980 On ch=3 n=62 v=0
200160 On ch=3 n=26 v=127
200160 On ch=3 n=31 v=127
200160 On ch=3 n=61 v=127
200160 On ch=3 n=62 v=127
200160 On ch=3 n=73 v=127
200160 On ch=3 n=74 v=127
200160 On ch=3 n=85 v=127
200160 On ch=3 n=86 v=127
200160 On ch=3 n=97 v=127
200160 On ch=3 n=98 v=127
200220 On ch=3 n=26 v=0
200220 On ch=3 n=31 v=0
200220 On ch=3 n=61 v=0
200220 On ch=3 n=62 v=0
200220 On ch=3 n=73 v=0
200220 On ch=3 n=74 v=0
200220 On ch=3 n=85 v=0
200220 On ch=3 n=86 v=0
200220 On ch=3 n=97 v=0
200220 On ch=3 n=98 v=0
200400 On ch=3 n=24 v=127
200400 On ch=3 n=31 v=127
200400 On ch=3 n=74 v=127
200400 On ch=3 n=84 v=127
200400 On ch=3 n=86 v=127
200400 On ch=3 n=96 v=127
200400 On ch=3 n=98 v=127
200400 On ch=3 n=62 v=127
200460 On ch=3 n=24 v=0
200460 On ch=3 n=31 v=0
200460 On ch=3 n=74 v=0
200460 On ch=3 n=84 v=0
200460 On ch=3 n=86 v=0
200460 On ch=3 n=96 v=0
200460 On ch=3 n=98 v=0
200460 On ch=3 n=62 v=0
200640 On ch=3 n=24 v=127
200640 On ch=3 n=31 v=127
200640 On ch=3 n=62 v=127
200640 On ch=3 n=72 v=127
200640 On ch=3 n=74 v=127
200640 On ch=3 n=84 v=127
200640 On ch=3 n=86 v=127
200640 On ch=3 n=96 v=127
200640 On ch=3 n=98 v=127
200700 On ch=3 n=24 v=0
200700 On ch=3 n=31 v=0
200700 On ch=3 n=62 v=0
200700 On ch=3 n=72 v=0
200700 On ch=3 n=74 v=0
200700 On ch=3 n=84 v=0
200700 On ch=3 n=86 v=0
200700 On ch=3 n=96 v=0
200700 On ch=3 n=98 v=0
200880 On ch=3 n=31 v=127
200880 On ch=3 n=74 v=127
200880 On ch=3 n=86 v=127
200880 On ch=3 n=98 v=127
200880 On ch=3 n=62 v=127
200940 On ch=3 n=31 v=0
200940 On ch=3 n=74 v=0
200940 On ch=3 n=86 v=0
200940 On ch=3 n=98 v=0
200940 On ch=3 n=62 v=0
201120 On ch=3 n=24 v=127
201120 On ch=3 n=26 v=127
201120 On ch=3 n=31 v=127
201120 On ch=3 n=61 v=127
201120 On ch=3 n=62 v=127
201120 On ch=3 n=73 v=127
201120 On ch=3 n=74 v=127
201120 On ch=3 n=85 v=127
201120 On ch=3 n=86 v=127
201120 On ch=3 n=96 v=127
201120 On ch=3 n=97 v=127
201120 On ch=3 n=98 v=127
201180 On ch=3 n=24 v=0
201180 On ch=3 n=26 v=0
201180 On ch=3 n=31 v=0
201180 On ch=3 n=61 v=0
201180 On ch=3 n=62 v=0
201180 On ch=3 n=73 v=0
201180 On ch=3 n=74 v=0
201180 On ch=3 n=85 v=0
201180 On ch=3 n=86 v=0
201180 On ch=3 n=96 v=0
201180 On ch=3 n=97 v=0
201180 On ch=3 n=98 v=0
201360 On ch=3 n=31 v=127
201360 On ch=3 n=74 v=127
201360 On ch=3 n=86 v=127
201360 On ch=3 n=98 v=127
201360 On ch=3 n=62 v=127
201420 On ch=3 n=31 v=0
201420 On ch=3 n=74 v=0
201420 On ch=3 n=86 v=0
201420 On ch=3 n=98 v=0
201420 On ch=3 n=62 v=0
201600 On ch=3 n=24 v=127
201600 On ch=3 n=31 v=127
201600 On ch=3 n=62 v=127
201600 On ch=3 n=72 v=127
201600 On ch=3 n=74 v=127
201600 On ch=3 n=84 v=127
201600 On ch=3 n=86 v=127
201600 On ch=3 n=96 v=127
201600 On ch=3 n=98 v=127
201660 On ch=3 n=24 v=0
201660 On ch=3 n=31 v=0
201660 On ch=3 n=62 v=0
201660 On ch=3 n=72 v=0
201660 On ch=3 n=74 v=0
201660 On ch=3 n=84 v=0
201660 On ch=3 n=86 v=0
201660 On ch=3 n=96 v=0
201660 On ch=3 n=98 v=0
201840 On ch=3 n=24 v=127
201840 On ch=3 n=31 v=127
201840 On ch=3 n=72 v=127
201840 On ch=3 n=74 v=127
201840 On ch=3 n=84 v=127
201840 On ch=3 n=86 v=127
201840 On ch=3 n=96 v=127
201840 On ch=3 n=98 v=127
201840 On ch=3 n=62 v=127
201900 On ch=3 n=24 v=0
201900 On ch=3 n=31 v=0
201900 On ch=3 n=72 v=0
201900 On ch=3 n=74 v=0
201900 On ch=3 n=84 v=0
201900 On ch=3 n=86 v=0
201900 On ch=3 n=96 v=0
201900 On ch=3 n=98 v=0
201900 On ch=3 n=62 v=0
202080 On ch=3 n=26 v=127
202080 On ch=3 n=31 v=127
202080 On ch=3 n=61 v=127
202080 On ch=3 n=62 v=127
202080 On ch=3 n=73 v=127
202080 On ch=3 n=74 v=127
202080 On ch=3 n=85 v=127
202080 On ch=3 n=86 v=127
202080 On ch=3 n=97 v=127
202080 On ch=3 n=98 v=127
202140 On ch=3 n=26 v=0
202140 On ch=3 n=31 v=0
202140 On ch=3 n=61 v=0
202140 On ch=3 n=62 v=0
202140 On ch=3 n=73 v=0
202140 On ch=3 n=74 v=0
202140 On ch=3 n=85 v=0
202140 On ch=3 n=86 v=0
202140 On ch=3 n=97 v=0
202140 On ch=3 n=98 v=0
202320 On ch=3 n=24 v=127
202320 On ch=3 n=31 v=127
202320 On ch=3 n=74 v=127
202320 On ch=3 n=84 v=127
202320 On ch=3 n=86 v=127
202320 On ch=3 n=96 v=127
202320 On ch=3 n=98 v=127
202320 On ch=3 n=62 v=127
202380 On ch=3 n=24 v=0
202380 On ch=3 n=31 v=0
202380 On ch=3 n=74 v=0
202380 On ch=3 n=84 v=0
202380 On ch=3 n=86 v=0
202380 On ch=3 n=96 v=0
202380 On ch=3 n=98 v=0
202380 On ch=3 n=62 v=0
202560 On ch=3 n=105 v=0
202560 On ch=3 n=24 v=127
202560 On ch=3 n=31 v=127
202560 On ch=3 n=62 v=127
202560 On ch=3 n=72 v=127
202560 On ch=3 n=74 v=127
202560 On ch=3 n=84 v=127
202560 On ch=3 n=86 v=127
202560 On ch=3 n=96 v=127
202560 On ch=3 n=98 v=127
202560 On ch=3 n=60 v=100
202620 On ch=3 n=24 v=0
202620 On ch=3 n=31 v=0
202620 On ch=3 n=62 v=0
202620 On ch=3 n=72 v=0
202620 On ch=3 n=74 v=0
202620 On ch=3 n=84 v=0
202620 On ch=3 n=86 v=0
202620 On ch=3 n=96 v=0
202620 On ch=3 n=98 v=0
202620 On ch=3 n=60 v=0
202800 On ch=3 n=31 v=127
202800 On ch=3 n=74 v=127
202800 On ch=3 n=86 v=127
202800 On ch=3 n=98 v=127
202800 On ch=3 n=62 v=127
202860 On ch=3 n=31 v=0
202860 On ch=3 n=74 v=0
202860 On ch=3 n=86 v=0
202860 On ch=3 n=98 v=0
202860 On ch=3 n=62 v=0
203040 On ch=3 n=24 v=127
203040 On ch=3 n=26 v=127
203040 On ch=3 n=31 v=127
203040 On ch=3 n=61 v=127
203040 On ch=3 n=62 v=127
203040 On ch=3 n=73 v=127
203040 On ch=3 n=74 v=127
203040 On ch=3 n=85 v=127
203040 On ch=3 n=86 v=127
203040 On ch=3 n=96 v=127
203040 On ch=3 n=97 v=127
203040 On ch=3 n=98 v=127
203100 On ch=3 n=24 v=0
203100 On ch=3 n=26 v=0
203100 On ch=3 n=31 v=0
203100 On ch=3 n=61 v=0
203100 On ch=3 n=62 v=0
203100 On ch=3 n=73 v=0
203100 On ch=3 n=74 v=0
203100 On ch=3 n=85 v=0
203100 On ch=3 n=86 v=0
203100 On ch=3 n=96 v=0
203100 On ch=3 n=97 v=0
203100 On ch=3 n=98 v=0
203280 On ch=3 n=31 v=127
203280 On ch=3 n=74 v=127
203280 On ch=3 n=86 v=127
203280 On ch=3 n=98 v=127
203280 On ch=3 n=62 v=127
203340 On ch=3 n=31 v=0
203340 On ch=3 n=74 v=0
203340 On ch=3 n=86 v=0
203340 On ch=3 n=98 v=0
203340 On ch=3 n=62 v=0
203520 On ch=3 n=24 v=127
203520 On ch=3 n=31 v=127
203520 On ch=3 n=62 v=127
203520 On ch=3 n=72 v=127
203520 On ch=3 n=74 v=127
203520 On ch=3 n=84 v=127
203520 On ch=3 n=86 v=127
203520 On ch=3 n=96 v=127
203520 On ch=3 n=98 v=127
203580 On ch=3 n=24 v=0
203580 On ch=3 n=31 v=0
203580 On ch=3 n=62 v=0
203580 On ch=3 n=72 v=0
203580 On ch=3 n=74 v=0
203580 On ch=3 n=84 v=0
203580 On ch=3 n=86 v=0
203580 On ch=3 n=96 v=0
203580 On ch=3 n=98 v=0
203760 On ch=3 n=24 v=127
203760 On ch=3 n=31 v=127
203760 On ch=3 n=72 v=127
203760 On ch=3 n=74 v=127
203760 On ch=3 n=84 v=127
203760 On ch=3 n=86 v=127
203760 On ch=3 n=96 v=127
203760 On ch=3 n=98 v=127
203760 On ch=3 n=62 v=127
203820 On ch=3 n=24 v=0
203820 On ch=3 n=31 v=0
203820 On ch=3 n=72 v=0
203820 On ch=3 n=74 v=0
203820 On ch=3 n=84 v=0
203820 On ch=3 n=86 v=0
203820 On ch=3 n=96 v=0
203820 On ch=3 n=98 v=0
203820 On ch=3 n=62 v=0
204000 On ch=3 n=26 v=127
204000 On ch=3 n=31 v=127
204000 On ch=3 n=61 v=127
204000 On ch=3 n=62 v=127
204000 On ch=3 n=73 v=127
204000 On ch=3 n=74 v=127
204000 On ch=3 n=85 v=127
204000 On ch=3 n=86 v=127
204000 On ch=3 n=97 v=127
204000 On ch=3 n=98 v=127
204060 On ch=3 n=26 v=0
204060 On ch=3 n=31 v=0
204060 On ch=3 n=61 v=0
204060 On ch=3 n=62 v=0
204060 On ch=3 n=73 v=0
204060 On ch=3 n=74 v=0
204060 On ch=3 n=85 v=0
204060 On ch=3 n=86 v=0
204060 On ch=3 n=97 v=0
204060 On ch=3 n=98 v=0
204240 On ch=3 n=24 v=127
204240 On ch=3 n=31 v=127
204240 On ch=3 n=74 v=127
204240 On ch=3 n=84 v=127
204240 On ch=3 n=86 v=127
204240 On ch=3 n=96 v=127
204240 On ch=3 n=98 v=127
204240 On ch=3 n=62 v=127
204300 On ch=3 n=24 v=0
204300 On ch=3 n=31 v=0
204300 On ch=3 n=74 v=0
204300 On ch=3 n=84 v=0
204300 On ch=3 n=86 v=0
204300 On ch=3 n=96 v=0
204300 On ch=3 n=98 v=0
204300 On ch=3 n=62 v=0
204480 On ch=3 n=24 v=127
204480 On ch=3 n=31 v=127
204480 On ch=3 n=62 v=127
204480 On ch=3 n=72 v=127
204480 On ch=3 n=74 v=127
204480 On ch=3 n=84 v=127
204480 On ch=3 n=86 v=127
204480 On ch=3 n=96 v=127
204480 On ch=3 n=98 v=127
204540 On ch=3 n=24 v=0
204540 On ch=3 n=31 v=0
204540 On ch=3 n=62 v=0
204540 On ch=3 n=72 v=0
204540 On ch=3 n=74 v=0
204540 On ch=3 n=84 v=0
204540 On ch=3 n=86 v=0
204540 On ch=3 n=96 v=0
204540 On ch=3 n=98 v=0
204720 On ch=3 n=31 v=127
204720 On ch=3 n=74 v=127
204720 On ch=3 n=86 v=127
204720 On ch=3 n=98 v=127
204720 On ch=3 n=62 v=127
204780 On ch=3 n=31 v=0
204780 On ch=3 n=74 v=0
204780 On ch=3 n=86 v=0
204780 On ch=3 n=98 v=0
204780 On ch=3 n=62 v=0
204960 On ch=3 n=24 v=127
204960 On ch=3 n=26 v=127
204960 On ch=3 n=31 v=127
204960 On ch=3 n=61 v=127
204960 On ch=3 n=62 v=127
204960 On ch=3 n=73 v=127
204960 On ch=3 n=74 v=127
204960 On ch=3 n=85 v=127
204960 On ch=3 n=86 v=127
204960 On ch=3 n=96 v=127
204960 On ch=3 n=97 v=127
204960 On ch=3 n=98 v=127
205020 On ch=3 n=24 v=0
205020 On ch=3 n=26 v=0
205020 On ch=3 n=31 v=0
205020 On ch=3 n=61 v=0
205020 On ch=3 n=62 v=0
205020 On ch=3 n=73 v=0
205020 On ch=3 n=74 v=0
205020 On ch=3 n=85 v=0
205020 On ch=3 n=86 v=0
205020 On ch=3 n=96 v=0
205020 On ch=3 n=97 v=0
205020 On ch=3 n=98 v=0
205200 On ch=3 n=27 v=127
205200 On ch=3 n=85 v=127
205200 On ch=3 n=97 v=127
205200 On ch=3 n=120 v=127
205200 On ch=3 n=121 v=127
205200 On ch=3 n=122 v=127
205200 On ch=3 n=123 v=127
205200 On ch=3 n=124 v=127
205200 On ch=3 n=105 v=100
205260 On ch=3 n=27 v=0
205260 On ch=3 n=85 v=0
205260 On ch=3 n=97 v=0
205320 On ch=3 n=26 v=127
205320 On ch=3 n=85 v=127
205320 On ch=3 n=97 v=127
205380 On ch=3 n=26 v=0
205380 On ch=3 n=85 v=0
205380 On ch=3 n=97 v=0
205440 On ch=3 n=24 v=127
205440 On ch=3 n=36 v=127
205440 On ch=3 n=60 v=127
205440 On ch=3 n=64 v=127
205440 On ch=3 n=72 v=127
205440 On ch=3 n=76 v=127
205440 On ch=3 n=84 v=127
205440 On ch=3 n=88 v=127
205440 On ch=3 n=96 v=127
205440 On ch=3 n=100 v=127
205500 On ch=3 n=24 v=0
205500 On ch=3 n=36 v=0
205500 On ch=3 n=60 v=0
205500 On ch=3 n=64 v=0
205500 On ch=3 n=72 v=0
205500 On ch=3 n=76 v=0
205500 On ch=3 n=84 v=0
205500 On ch=3 n=88 v=0
205500 On ch=3 n=96 v=0
205500 On ch=3 n=100 v=0
205560 On ch=3 n=110 v=127
205560 On ch=3 n=111 v=127
205680 On ch=3 n=46 v=127
205680 On ch=3 n=98 v=127
205740 On ch=3 n=46 v=0
205740 On ch=3 n=98 v=0
205920 On ch=3 n=24 v=127
205920 On ch=3 n=38 v=127
205920 On ch=3 n=60 v=127
205920 On ch=3 n=64 v=127
205920 On ch=3 n=72 v=127
205920 On ch=3 n=76 v=127
205920 On ch=3 n=84 v=127
205920 On ch=3 n=88 v=127
205920 On ch=3 n=96 v=127
205920 On ch=3 n=100 v=127
205980 On ch=3 n=24 v=0
205980 On ch=3 n=38 v=0
205980 On ch=3 n=60 v=0
205980 On ch=3 n=64 v=0
205980 On ch=3 n=72 v=0
205980 On ch=3 n=76 v=0
205980 On ch=3 n=84 v=0
205980 On ch=3 n=88 v=0
205980 On ch=3 n=96 v=0
205980 On ch=3 n=100 v=0
206160 On ch=3 n=48 v=127
206160 On ch=3 n=99 v=127
206220 On ch=3 n=48 v=0
206220 On ch=3 n=99 v=0
206278 On ch=3 n=110 v=0
206278 On ch=3 n=111 v=0
206396 On ch=3 n=120 v=0
206396 On ch=3 n=121 v=0
206396 On ch=3 n=122 v=0
206396 On ch=3 n=123 v=0
206396 On ch=3 n=124 v=0
206400 On ch=3 n=24 v=127
206400 On ch=3 n=38 v=127
206400 On ch=3 n=60 v=127
206400 On ch=3 n=64 v=127
206400 On ch=3 n=72 v=127
206400 On ch=3 n=76 v=127
206400 On ch=3 n=84 v=127
206400 On ch=3 n=88 v=127
206400 On ch=3 n=96 v=127
206400 On ch=3 n=100 v=127
206460 On ch=3 n=24 v=0
206460 On ch=3 n=38 v=0
206460 On ch=3 n=60 v=0
206460 On ch=3 n=64 v=0
206460 On ch=3 n=72 v=0
206460 On ch=3 n=76 v=0
206460 On ch=3 n=84 v=0
206460 On ch=3 n=88 v=0
206460 On ch=3 n=96 v=0
206460 On ch=3 n=100 v=0
206880 On ch=3 n=106 v=0
206880 On ch=3 n=24 v=127
206880 On ch=3 n=25 v=127
206880 On ch=3 n=26 v=127
206880 On ch=3 n=61 v=127
206880 On ch=3 n=73 v=127
206880 On ch=3 n=85 v=127
206880 On ch=3 n=96 v=127
206880 On ch=3 n=97 v=127
206940 On ch=3 n=24 v=0
206940 On ch=3 n=26 v=0
206940 On ch=3 n=61 v=0
206940 On ch=3 n=73 v=0
206940 On ch=3 n=85 v=0
206940 On ch=3 n=96 v=0
206940 On ch=3 n=97 v=0
207114 On ch=3 n=25 v=0
207360 On ch=3 n=31 v=127
207360 On ch=3 n=62 v=127
207360 On ch=3 n=72 v=127
207360 On ch=3 n=74 v=127
207360 On ch=3 n=84 v=127
207360 On ch=3 n=86 v=127
207360 On ch=3 n=96 v=127
207360 On ch=3 n=98 v=127
207420 On ch=3 n=31 v=0
207420 On ch=3 n=62 v=0
207420 On ch=3 n=72 v=0
207420 On ch=3 n=74 v=0
207420 On ch=3 n=84 v=0
207420 On ch=3 n=86 v=0
207420 On ch=3 n=96 v=0
207420 On ch=3 n=98 v=0
207600 On ch=3 n=24 v=127
207600 On ch=3 n=31 v=127
207600 On ch=3 n=72 v=127
207600 On ch=3 n=74 v=127
207600 On ch=3 n=84 v=127
207600 On ch=3 n=86 v=127
207600 On ch=3 n=96 v=127
207600 On ch=3 n=98 v=127
207600 On ch=3 n=62 v=127
207660 On ch=3 n=24 v=0
207660 On ch=3 n=31 v=0
207660 On ch=3 n=72 v=0
207660 On ch=3 n=74 v=0
207660 On ch=3 n=84 v=0
207660 On ch=3 n=86 v=0
207660 On ch=3 n=96 v=0
207660 On ch=3 n=98 v=0
207660 On ch=3 n=62 v=0
207840 On ch=3 n=26 v=127
207840 On ch=3 n=31 v=127
207840 On ch=3 n=61 v=127
207840 On ch=3 n=62 v=127
207840 On ch=3 n=73 v=127
207840 On ch=3 n=74 v=127
207840 On ch=3 n=85 v=127
207840 On ch=3 n=86 v=127
207840 On ch=3 n=97 v=127
207840 On ch=3 n=98 v=127
207900 On ch=3 n=26 v=0
207900 On ch=3 n=31 v=0
207900 On ch=3 n=61 v=0
207900 On ch=3 n=62 v=0
207900 On ch=3 n=73 v=0
207900 On ch=3 n=74 v=0
207900 On ch=3 n=85 v=0
207900 On ch=3 n=86 v=0
207900 On ch=3 n=97 v=0
207900 On ch=3 n=98 v=0
208080 On ch=3 n=24 v=127
208080 On ch=3 n=31 v=127
208080 On ch=3 n=74 v=127
208080 On ch=3 n=84 v=127
208080 On ch=3 n=86 v=127
208080 On ch=3 n=96 v=127
208080 On ch=3 n=98 v=127
208080 On ch=3 n=62 v=127
208140 On ch=3 n=24 v=0
208140 On ch=3 n=31 v=0
208140 On ch=3 n=74 v=0
208140 On ch=3 n=84 v=0
208140 On ch=3 n=86 v=0
208140 On ch=3 n=96 v=0
208140 On ch=3 n=98 v=0
208140 On ch=3 n=62 v=0
208320 On ch=3 n=24 v=127
208320 On ch=3 n=31 v=127
208320 On ch=3 n=62 v=127
208320 On ch=3 n=72 v=127
208320 On ch=3 n=74 v=127
208320 On ch=3 n=84 v=127
208320 On ch=3 n=86 v=127
208320 On ch=3 n=96 v=127
208320 On ch=3 n=98 v=127
208380 On ch=3 n=24 v=0
208380 On ch=3 n=31 v=0
208380 On ch=3 n=62 v=0
208380 On ch=3 n=72 v=0
208380 On ch=3 n=74 v=0
208380 On ch=3 n=84 v=0
208380 On ch=3 n=86 v=0
208380 On ch=3 n=96 v=0
208380 On ch=3 n=98 v=0
208560 On ch=3 n=31 v=127
208560 On ch=3 n=74 v=127
208560 On ch=3 n=86 v=127
208560 On ch=3 n=98 v=127
208560 On ch=3 n=62 v=127
208620 On ch=3 n=31 v=0
208620 On ch=3 n=74 v=0
208620 On ch=3 n=86 v=0
208620 On ch=3 n=98 v=0
208620 On ch=3 n=62 v=0
208800 On ch=3 n=24 v=127
208800 On ch=3 n=26 v=127
208800 On ch=3 n=31 v=127
208800 On ch=3 n=61 v=127
208800 On ch=3 n=62 v=127
208800 On ch=3 n=73 v=127
208800 On ch=3 n=74 v=127
208800 On ch=3 n=85 v=127
208800 On ch=3 n=86 v=127
208800 On ch=3 n=96 v=127
208800 On ch=3 n=97 v=127
208800 On ch=3 n=98 v=127
208860 On ch=3 n=24 v=0
208860 On ch=3 n=26 v=0
208860 On ch=3 n=31 v=0
208860 On ch=3 n=61 v=0
208860 On ch=3 n=62 v=0
208860 On ch=3 n=73 v=0
208860 On ch=3 n=74 v=0
208860 On ch=3 n=85 v=0
208860 On ch=3 n=86 v=0
208860 On ch=3 n=96 v=0
208860 On ch=3 n=97 v=0
208860 On ch=3 n=98 v=0
209040 On ch=3 n=31 v=127
209040 On ch=3 n=74 v=127
209040 On ch=3 n=86 v=127
209040 On ch=3 n=98 v=127
209040 On ch=3 n=62 v=127
209100 On ch=3 n=31 v=0
209100 On ch=3 n=74 v=0
209100 On ch=3 n=86 v=0
209100 On ch=3 n=98 v=0
209100 On ch=3 n=62 v=0
209280 On ch=3 n=24 v=127
209280 On ch=3 n=31 v=127
209280 On ch=3 n=62 v=127
209280 On ch=3 n=72 v=127
209280 On ch=3 n=74 v=127
209280 On ch=3 n=84 v=127
209280 On ch=3 n=86 v=127
209280 On ch=3 n=96 v=127
209280 On ch=3 n=98 v=127
209340 On ch=3 n=24 v=0
209340 On ch=3 n=31 v=0
209340 On ch=3 n=62 v=0
209340 On ch=3 n=72 v=0
209340 On ch=3 n=74 v=0
209340 On ch=3 n=84 v=0
209340 On ch=3 n=86 v=0
209340 On ch=3 n=96 v=0
209340 On ch=3 n=98 v=0
209520 On ch=3 n=24 v=127
209520 On ch=3 n=31 v=127
209520 On ch=3 n=72 v=127
209520 On ch=3 n=74 v=127
209520 On ch=3 n=84 v=127
209520 On ch=3 n=86 v=127
209520 On ch=3 n=96 v=127
209520 On ch=3 n=98 v=127
209520 On ch=3 n=62 v=127
209580 On ch=3 n=24 v=0
209580 On ch=3 n=31 v=0
209580 On ch=3 n=72 v=0
209580 On ch=3 n=74 v=0
209580 On ch=3 n=84 v=0
209580 On ch=3 n=86 v=0
209580 On ch=3 n=96 v=0
209580 On ch=3 n=98 v=0
209580 On ch=3 n=62 v=0
209760 On ch=3 n=24 v=127
209760 On ch=3 n=27 v=127
209760 On ch=3 n=61 v=127
209760 On ch=3 n=73 v=127
209760 On ch=3 n=85 v=127
209760 On ch=3 n=96 v=127
209760 On ch=3 n=97 v=127
209820 On ch=3 n=24 v=0
209820 On ch=3 n=27 v=0
209820 On ch=3 n=61 v=0
209820 On ch=3 n=73 v=0
209820 On ch=3 n=85 v=0
209820 On ch=3 n=96 v=0
209820 On ch=3 n=97 v=0
209880 On ch=3 n=26 v=127
209880 On ch=3 n=85 v=127
209880 On ch=3 n=97 v=127
209940 On ch=3 n=26 v=0
209940 On ch=3 n=85 v=0
209940 On ch=3 n=97 v=0
210000 On ch=3 n=24 v=127
210000 On ch=3 n=27 v=127
210000 On ch=3 n=73 v=127
210000 On ch=3 n=85 v=127
210000 On ch=3 n=96 v=127
210000 On ch=3 n=97 v=127
210060 On ch=3 n=24 v=0
210060 On ch=3 n=27 v=0
210060 On ch=3 n=73 v=0
210060 On ch=3 n=85 v=0
210060 On ch=3 n=96 v=0
210060 On ch=3 n=97 v=0
210120 On ch=3 n=26 v=127
210120 On ch=3 n=85 v=127
210120 On ch=3 n=97 v=127
210180 On ch=3 n=26 v=0
210180 On ch=3 n=85 v=0
210180 On ch=3 n=97 v=0
210240 On ch=3 n=105 v=0
210240 On ch=3 n=24 v=127
210240 On ch=3 n=36 v=127
210240 On ch=3 n=64 v=127
210240 On ch=3 n=72 v=127
210240 On ch=3 n=76 v=127
210240 On ch=3 n=84 v=127
210240 On ch=3 n=88 v=127
210240 On ch=3 n=96 v=127
210240 On ch=3 n=100 v=127
210240 On ch=3 n=106 v=100
210240 On ch=3 n=60 v=100
210300 On ch=3 n=24 v=0
210300 On ch=3 n=36 v=0
210300 On ch=3 n=64 v=0
210300 On ch=3 n=72 v=0
210300 On ch=3 n=76 v=0
210300 On ch=3 n=84 v=0
210300 On ch=3 n=88 v=0
210300 On ch=3 n=96 v=0
210300 On ch=3 n=100 v=0
210300 On ch=3 n=60 v=0
210480 On ch=3 n=24 v=127
210480 On ch=3 n=31 v=127
210480 On ch=3 n=84 v=127
210480 On ch=3 n=86 v=127
210480 On ch=3 n=96 v=127
210480 On ch=3 n=98 v=127
210540 On ch=3 n=24 v=0
210540 On ch=3 n=31 v=0
210540 On ch=3 n=84 v=0
210540 On ch=3 n=86 v=0
210540 On ch=3 n=96 v=0
210540 On ch=3 n=98 v=0
210720 On ch=3 n=26 v=127
210720 On ch=3 n=31 v=127
210720 On ch=3 n=61 v=127
210720 On ch=3 n=62 v=127
210720 On ch=3 n=73 v=127
210720 On ch=3 n=74 v=127
210720 On ch=3 n=85 v=127
210720 On ch=3 n=86 v=127
210720 On ch=3 n=97 v=127
210720 On ch=3 n=98 v=127
210780 On ch=3 n=26 v=0
210780 On ch=3 n=31 v=0
210780 On ch=3 n=61 v=0
210780 On ch=3 n=62 v=0
210780 On ch=3 n=73 v=0
210780 On ch=3 n=74 v=0
210780 On ch=3 n=85 v=0
210780 On ch=3 n=86 v=0
210780 On ch=3 n=97 v=0
210780 On ch=3 n=98 v=0
210960 On ch=3 n=31 v=127
210960 On ch=3 n=74 v=127
210960 On ch=3 n=86 v=127
210960 On ch=3 n=98 v=127
210960 On ch=3 n=62 v=127
211020 On ch=3 n=31 v=0
211020 On ch=3 n=74 v=0
211020 On ch=3 n=86 v=0
211020 On ch=3 n=98 v=0
211020 On ch=3 n=62 v=0
211200 On ch=3 n=24 v=127
211200 On ch=3 n=31 v=127
211200 On ch=3 n=62 v=127
211200 On ch=3 n=72 v=127
211200 On ch=3 n=74 v=127
211200 On ch=3 n=84 v=127
211200 On ch=3 n=86 v=127
211200 On ch=3 n=96 v=127
211200 On ch=3 n=98 v=127
211260 On ch=3 n=24 v=0
211260 On ch=3 n=31 v=0
211260 On ch=3 n=62 v=0
211260 On ch=3 n=72 v=0
211260 On ch=3 n=74 v=0
211260 On ch=3 n=84 v=0
211260 On ch=3 n=86 v=0
211260 On ch=3 n=96 v=0
211260 On ch=3 n=98 v=0
211440 On ch=3 n=24 v=127
211440 On ch=3 n=31 v=127
211440 On ch=3 n=72 v=127
211440 On ch=3 n=74 v=127
211440 On ch=3 n=84 v=127
211440 On ch=3 n=86 v=127
211440 On ch=3 n=96 v=127
211440 On ch=3 n=98 v=127
211440 On ch=3 n=62 v=127
211500 On ch=3 n=24 v=0
211500 On ch=3 n=31 v=0
211500 On ch=3 n=72 v=0
211500 On ch=3 n=74 v=0
211500 On ch=3 n=84 v=0
211500 On ch=3 n=86 v=0
211500 On ch=3 n=96 v=0
211500 On ch=3 n=98 v=0
211500 On ch=3 n=62 v=0
211680 On ch=3 n=26 v=127
211680 On ch=3 n=31 v=127
211680 On ch=3 n=61 v=127
211680 On ch=3 n=62 v=127
211680 On ch=3 n=73 v=127
211680 On ch=3 n=74 v=127
211680 On ch=3 n=85 v=127
211680 On ch=3 n=86 v=127
211680 On ch=3 n=97 v=127
211680 On ch=3 n=98 v=127
211740 On ch=3 n=26 v=0
211740 On ch=3 n=31 v=0
211740 On ch=3 n=61 v=0
211740 On ch=3 n=62 v=0
211740 On ch=3 n=73 v=0
211740 On ch=3 n=74 v=0
211740 On ch=3 n=85 v=0
211740 On ch=3 n=86 v=0
211740 On ch=3 n=97 v=0
211740 On ch=3 n=98 v=0
211920 On ch=3 n=31 v=127
211920 On ch=3 n=74 v=127
211920 On ch=3 n=86 v=127
211920 On ch=3 n=98 v=127
211920 On ch=3 n=62 v=127
211980 On ch=3 n=31 v=0
211980 On ch=3 n=74 v=0
211980 On ch=3 n=86 v=0
211980 On ch=3 n=98 v=0
211980 On ch=3 n=62 v=0
212160 On ch=3 n=24 v=127
212160 On ch=3 n=31 v=127
212160 On ch=3 n=62 v=127
212160 On ch=3 n=72 v=127
212160 On ch=3 n=74 v=127
212160 On ch=3 n=84 v=127
212160 On ch=3 n=86 v=127
212160 On ch=3 n=96 v=127
212160 On ch=3 n=98 v=127
212160 On ch=3 n=120 v=127
212160 On ch=3 n=121 v=127
212160 On ch=3 n=122 v=127
212160 On ch=3 n=123 v=127
212160 On ch=3 n=124 v=127
212220 On ch=3 n=24 v=0
212220 On ch=3 n=31 v=0
212220 On ch=3 n=62 v=0
212220 On ch=3 n=72 v=0
212220 On ch=3 n=74 v=0
212220 On ch=3 n=84 v=0
212220 On ch=3 n=86 v=0
212220 On ch=3 n=96 v=0
212220 On ch=3 n=98 v=0
212400 On ch=3 n=24 v=127
212400 On ch=3 n=31 v=127
212400 On ch=3 n=72 v=127
212400 On ch=3 n=74 v=127
212400 On ch=3 n=84 v=127
212400 On ch=3 n=86 v=127
212400 On ch=3 n=96 v=127
212400 On ch=3 n=98 v=127
212400 On ch=3 n=62 v=127
212460 On ch=3 n=24 v=0
212460 On ch=3 n=31 v=0
212460 On ch=3 n=72 v=0
212460 On ch=3 n=74 v=0
212460 On ch=3 n=84 v=0
212460 On ch=3 n=86 v=0
212460 On ch=3 n=96 v=0
212460 On ch=3 n=98 v=0
212460 On ch=3 n=62 v=0
212640 On ch=3 n=26 v=127
212640 On ch=3 n=31 v=127
212640 On ch=3 n=61 v=127
212640 On ch=3 n=62 v=127
212640 On ch=3 n=73 v=127
212640 On ch=3 n=74 v=127
212640 On ch=3 n=85 v=127
212640 On ch=3 n=86 v=127
212640 On ch=3 n=97 v=127
212640 On ch=3 n=98 v=127
212700 On ch=3 n=26 v=0
212700 On ch=3 n=31 v=0
212700 On ch=3 n=61 v=0
212700 On ch=3 n=62 v=0
212700 On ch=3 n=73 v=0
212700 On ch=3 n=74 v=0
212700 On ch=3 n=85 v=0
212700 On ch=3 n=86 v=0
212700 On ch=3 n=97 v=0
212700 On ch=3 n=98 v=0
212880 On ch=3 n=24 v=127
212880 On ch=3 n=31 v=127
212880 On ch=3 n=84 v=127
212880 On ch=3 n=86 v=127
212880 On ch=3 n=96 v=127
212880 On ch=3 n=98 v=127
212880 On ch=3 n=62 v=127
212880 On ch=3 n=72 v=127
212940 On ch=3 n=24 v=0
212940 On ch=3 n=31 v=0
212940 On ch=3 n=84 v=0
212940 On ch=3 n=86 v=0
212940 On ch=3 n=96 v=0
212940 On ch=3 n=98 v=0
212940 On ch=3 n=62 v=0
212940 On ch=3 n=72 v=0
213120 On ch=3 n=26 v=127
213120 On ch=3 n=31 v=127
213120 On ch=3 n=61 v=127
213120 On ch=3 n=62 v=127
213120 On ch=3 n=73 v=127
213120 On ch=3 n=74 v=127
213120 On ch=3 n=85 v=127
213120 On ch=3 n=86 v=127
213120 On ch=3 n=97 v=127
213120 On ch=3 n=98 v=127
213180 On ch=3 n=26 v=0
213180 On ch=3 n=31 v=0
213180 On ch=3 n=61 v=0
213180 On ch=3 n=62 v=0
213180 On ch=3 n=73 v=0
213180 On ch=3 n=74 v=0
213180 On ch=3 n=85 v=0
213180 On ch=3 n=86 v=0
213180 On ch=3 n=97 v=0
213180 On ch=3 n=98 v=0
213360 On ch=3 n=24 v=127
213360 On ch=3 n=31 v=127
213360 On ch=3 n=84 v=127
213360 On ch=3 n=86 v=127
213360 On ch=3 n=96 v=127
213360 On ch=3 n=98 v=127
213360 On ch=3 n=62 v=127
213360 On ch=3 n=72 v=127
213420 On ch=3 n=24 v=0
213420 On ch=3 n=31 v=0
213420 On ch=3 n=84 v=0
213420 On ch=3 n=86 v=0
213420 On ch=3 n=96 v=0
213420 On ch=3 n=98 v=0
213420 On ch=3 n=62 v=0
213420 On ch=3 n=72 v=0
213600 On ch=3 n=26 v=127
213600 On ch=3 n=31 v=127
213600 On ch=3 n=61 v=127
213600 On ch=3 n=62 v=127
213600 On ch=3 n=73 v=127
213600 On ch=3 n=74 v=127
213600 On ch=3 n=85 v=127
213600 On ch=3 n=86 v=127
213600 On ch=3 n=97 v=127
213600 On ch=3 n=98 v=127
213660 On ch=3 n=26 v=0
213660 On ch=3 n=31 v=0
213660 On ch=3 n=61 v=0
213660 On ch=3 n=62 v=0
213660 On ch=3 n=73 v=0
213660 On ch=3 n=74 v=0
213660 On ch=3 n=85 v=0
213660 On ch=3 n=86 v=0
213660 On ch=3 n=97 v=0
213660 On ch=3 n=98 v=0
213840 On ch=3 n=24 v=127
213840 On ch=3 n=31 v=127
213840 On ch=3 n=84 v=127
213840 On ch=3 n=86 v=127
213840 On ch=3 n=96 v=127
213840 On ch=3 n=98 v=127
213840 On ch=3 n=62 v=127
213840 On ch=3 n=72 v=127
213900 On ch=3 n=24 v=0
213900 On ch=3 n=31 v=0
213900 On ch=3 n=84 v=0
213900 On ch=3 n=86 v=0
213900 On ch=3 n=96 v=0
213900 On ch=3 n=98 v=0
213900 On ch=3 n=62 v=0
213900 On ch=3 n=72 v=0
213960 On ch=3 n=24 v=127
213960 On ch=3 n=96 v=127
214020 On ch=3 n=24 v=0
214020 On ch=3 n=96 v=0
214076 On ch=3 n=120 v=0
214076 On ch=3 n=121 v=0
214076 On ch=3 n=122 v=0
214076 On ch=3 n=123 v=0
214076 On ch=3 n=124 v=0
214080 On ch=3 n=26 v=127
214080 On ch=3 n=31 v=127
214080 On ch=3 n=61 v=127
214080 On ch=3 n=62 v=127
214080 On ch=3 n=73 v=127
214080 On ch=3 n=74 v=127
214080 On ch=3 n=85 v=127
214080 On ch=3 n=86 v=127
214080 On ch=3 n=97 v=127
214080 On ch=3 n=98 v=127
214080 On ch=3 n=105 v=100
214140 On ch=3 n=26 v=0
214140 On ch=3 n=31 v=0
214140 On ch=3 n=61 v=0
214140 On ch=3 n=62 v=0
214140 On ch=3 n=73 v=0
214140 On ch=3 n=74 v=0
214140 On ch=3 n=85 v=0
214140 On ch=3 n=86 v=0
214140 On ch=3 n=97 v=0
214140 On ch=3 n=98 v=0
214320 On ch=3 n=24 v=127
214320 On ch=3 n=31 v=127
214320 On ch=3 n=84 v=127
214320 On ch=3 n=86 v=127
214320 On ch=3 n=96 v=127
214320 On ch=3 n=98 v=127
214320 On ch=3 n=62 v=127
214320 On ch=3 n=72 v=127
214380 On ch=3 n=24 v=0
214380 On ch=3 n=31 v=0
214380 On ch=3 n=84 v=0
214380 On ch=3 n=86 v=0
214380 On ch=3 n=96 v=0
214380 On ch=3 n=98 v=0
214380 On ch=3 n=62 v=0
214380 On ch=3 n=72 v=0
214560 On ch=3 n=26 v=127
214560 On ch=3 n=31 v=127
214560 On ch=3 n=61 v=127
214560 On ch=3 n=62 v=127
214560 On ch=3 n=73 v=127
214560 On ch=3 n=74 v=127
214560 On ch=3 n=85 v=127
214560 On ch=3 n=86 v=127
214560 On ch=3 n=97 v=127
214560 On ch=3 n=98 v=127
214620 On ch=3 n=26 v=0
214620 On ch=3 n=31 v=0
214620 On ch=3 n=61 v=0
214620 On ch=3 n=62 v=0
214620 On ch=3 n=73 v=0
214620 On ch=3 n=74 v=0
214620 On ch=3 n=85 v=0
214620 On ch=3 n=86 v=0
214620 On ch=3 n=97 v=0
214620 On ch=3 n=98 v=0
214800 On ch=3 n=24 v=127
214800 On ch=3 n=31 v=127
214800 On ch=3 n=84 v=127
214800 On ch=3 n=86 v=127
214800 On ch=3 n=96 v=127
214800 On ch=3 n=98 v=127
214800 On ch=3 n=62 v=127
214800 On ch=3 n=72 v=127
214860 On ch=3 n=24 v=0
214860 On ch=3 n=31 v=0
214860 On ch=3 n=84 v=0
214860 On ch=3 n=86 v=0
214860 On ch=3 n=96 v=0
214860 On ch=3 n=98 v=0
214860 On ch=3 n=62 v=0
214860 On ch=3 n=72 v=0
215040 On ch=3 n=26 v=127
215040 On ch=3 n=31 v=127
215040 On ch=3 n=61 v=127
215040 On ch=3 n=62 v=127
215040 On ch=3 n=73 v=127
215040 On ch=3 n=74 v=127
215040 On ch=3 n=85 v=127
215040 On ch=3 n=86 v=127
215040 On ch=3 n=97 v=127
215040 On ch=3 n=98 v=127
215100 On ch=3 n=26 v=0
215100 On ch=3 n=31 v=0
215100 On ch=3 n=61 v=0
215100 On ch=3 n=62 v=0
215100 On ch=3 n=73 v=0
215100 On ch=3 n=74 v=0
215100 On ch=3 n=85 v=0
215100 On ch=3 n=86 v=0
215100 On ch=3 n=97 v=0
215100 On ch=3 n=98 v=0
215280 On ch=3 n=24 v=127
215280 On ch=3 n=31 v=127
215280 On ch=3 n=84 v=127
215280 On ch=3 n=86 v=127
215280 On ch=3 n=96 v=127
215280 On ch=3 n=98 v=127
215280 On ch=3 n=62 v=127
215280 On ch=3 n=72 v=127
215340 On ch=3 n=24 v=0
215340 On ch=3 n=31 v=0
215340 On ch=3 n=84 v=0
215340 On ch=3 n=86 v=0
215340 On ch=3 n=96 v=0
215340 On ch=3 n=98 v=0
215340 On ch=3 n=62 v=0
215340 On ch=3 n=72 v=0
215520 On ch=3 n=26 v=127
215520 On ch=3 n=31 v=127
215520 On ch=3 n=61 v=127
215520 On ch=3 n=62 v=127
215520 On ch=3 n=73 v=127
215520 On ch=3 n=74 v=127
215520 On ch=3 n=85 v=127
215520 On ch=3 n=86 v=127
215520 On ch=3 n=97 v=127
215520 On ch=3 n=98 v=127
215580 On ch=3 n=26 v=0
215580 On ch=3 n=31 v=0
215580 On ch=3 n=61 v=0
215580 On ch=3 n=62 v=0
215580 On ch=3 n=73 v=0
215580 On ch=3 n=74 v=0
215580 On ch=3 n=85 v=0
215580 On ch=3 n=86 v=0
215580 On ch=3 n=97 v=0
215580 On ch=3 n=98 v=0
215760 On ch=3 n=24 v=127
215760 On ch=3 n=31 v=127
215760 On ch=3 n=84 v=127
215760 On ch=3 n=86 v=127
215760 On ch=3 n=96 v=127
215760 On ch=3 n=98 v=127
215760 On ch=3 n=62 v=127
215760 On ch=3 n=72 v=127
215820 On ch=3 n=24 v=0
215820 On ch=3 n=31 v=0
215820 On ch=3 n=84 v=0
215820 On ch=3 n=86 v=0
215820 On ch=3 n=96 v=0
215820 On ch=3 n=98 v=0
215820 On ch=3 n=62 v=0
215820 On ch=3 n=72 v=0
215880 On ch=3 n=24 v=127
215880 On ch=3 n=96 v=127
215940 On ch=3 n=24 v=0
215940 On ch=3 n=96 v=0
216000 On ch=3 n=26 v=127
216000 On ch=3 n=31 v=127
216000 On ch=3 n=61 v=127
216000 On ch=3 n=62 v=127
216000 On ch=3 n=73 v=127
216000 On ch=3 n=74 v=127
216000 On ch=3 n=85 v=127
216000 On ch=3 n=86 v=127
216000 On ch=3 n=97 v=127
216000 On ch=3 n=98 v=127
216060 On ch=3 n=26 v=0
216060 On ch=3 n=31 v=0
216060 On ch=3 n=61 v=0
216060 On ch=3 n=62 v=0
216060 On ch=3 n=73 v=0
216060 On ch=3 n=74 v=0
216060 On ch=3 n=85 v=0
216060 On ch=3 n=86 v=0
216060 On ch=3 n=97 v=0
216060 On ch=3 n=98 v=0
216240 On ch=3 n=24 v=127
216240 On ch=3 n=31 v=127
216240 On ch=3 n=84 v=127
216240 On ch=3 n=86 v=127
216240 On ch=3 n=96 v=127
216240 On ch=3 n=98 v=127
216240 On ch=3 n=62 v=127
216240 On ch=3 n=72 v=127
216300 On ch=3 n=24 v=0
216300 On ch=3 n=31 v=0
216300 On ch=3 n=84 v=0
216300 On ch=3 n=86 v=0
216300 On ch=3 n=96 v=0
216300 On ch=3 n=98 v=0
216300 On ch=3 n=62 v=0
216300 On ch=3 n=72 v=0
216480 On ch=3 n=26 v=127
216480 On ch=3 n=31 v=127
216480 On ch=3 n=61 v=127
216480 On ch=3 n=62 v=127
216480 On ch=3 n=73 v=127
216480 On ch=3 n=74 v=127
216480 On ch=3 n=85 v=127
216480 On ch=3 n=86 v=127
216480 On ch=3 n=97 v=127
216480 On ch=3 n=98 v=127
216540 On ch=3 n=26 v=0
216540 On ch=3 n=31 v=0
216540 On ch=3 n=61 v=0
216540 On ch=3 n=62 v=0
216540 On ch=3 n=73 v=0
216540 On ch=3 n=74 v=0
216540 On ch=3 n=85 v=0
216540 On ch=3 n=86 v=0
216540 On ch=3 n=97 v=0
216540 On ch=3 n=98 v=0
216720 On ch=3 n=24 v=127
216720 On ch=3 n=31 v=127
216720 On ch=3 n=84 v=127
216720 On ch=3 n=86 v=127
216720 On ch=3 n=96 v=127
216720 On ch=3 n=98 v=127
216720 On ch=3 n=62 v=127
216720 On ch=3 n=72 v=127
216780 On ch=3 n=24 v=0
216780 On ch=3 n=31 v=0
216780 On ch=3 n=84 v=0
216780 On ch=3 n=86 v=0
216780 On ch=3 n=96 v=0
216780 On ch=3 n=98 v=0
216780 On ch=3 n=62 v=0
216780 On ch=3 n=72 v=0
216960 On ch=3 n=26 v=127
216960 On ch=3 n=31 v=127
216960 On ch=3 n=61 v=127
216960 On ch=3 n=62 v=127
216960 On ch=3 n=73 v=127
216960 On ch=3 n=74 v=127
216960 On ch=3 n=85 v=127
216960 On ch=3 n=86 v=127
216960 On ch=3 n=97 v=127
216960 On ch=3 n=98 v=127
216960 On ch=3 n=116 v=100
217020 On ch=3 n=26 v=0
217020 On ch=3 n=31 v=0
217020 On ch=3 n=61 v=0
217020 On ch=3 n=62 v=0
217020 On ch=3 n=73 v=0
217020 On ch=3 n=74 v=0
217020 On ch=3 n=85 v=0
217020 On ch=3 n=86 v=0
217020 On ch=3 n=97 v=0
217020 On ch=3 n=98 v=0
217200 On ch=3 n=24 v=127
217200 On ch=3 n=31 v=127
217200 On ch=3 n=84 v=127
217200 On ch=3 n=86 v=127
217200 On ch=3 n=96 v=127
217200 On ch=3 n=98 v=127
217200 On ch=3 n=62 v=127
217200 On ch=3 n=72 v=127
217260 On ch=3 n=24 v=0
217260 On ch=3 n=31 v=0
217260 On ch=3 n=84 v=0
217260 On ch=3 n=86 v=0
217260 On ch=3 n=96 v=0
217260 On ch=3 n=98 v=0
217260 On ch=3 n=62 v=0
217260 On ch=3 n=72 v=0
217440 On ch=3 n=24 v=127
217440 On ch=3 n=27 v=127
217440 On ch=3 n=73 v=127
217440 On ch=3 n=85 v=127
217440 On ch=3 n=96 v=127
217440 On ch=3 n=97 v=127
217440 On ch=3 n=61 v=100
217500 On ch=3 n=24 v=0
217500 On ch=3 n=27 v=0
217500 On ch=3 n=73 v=0
217500 On ch=3 n=85 v=0
217500 On ch=3 n=96 v=0
217500 On ch=3 n=97 v=0
217500 On ch=3 n=61 v=0
217560 On ch=3 n=26 v=127
217560 On ch=3 n=85 v=127
217560 On ch=3 n=97 v=127
217620 On ch=3 n=26 v=0
217620 On ch=3 n=85 v=0
217620 On ch=3 n=97 v=0
217680 On ch=3 n=24 v=127
217680 On ch=3 n=27 v=127
217680 On ch=3 n=73 v=127
217680 On ch=3 n=85 v=127
217680 On ch=3 n=96 v=127
217680 On ch=3 n=97 v=127
217740 On ch=3 n=24 v=0
217740 On ch=3 n=27 v=0
217740 On ch=3 n=73 v=0
217740 On ch=3 n=85 v=0
217740 On ch=3 n=96 v=0
217740 On ch=3 n=97 v=0
217800 On ch=3 n=26 v=127
217800 On ch=3 n=85 v=127
217800 On ch=3 n=97 v=127
217860 On ch=3 n=26 v=0
217860 On ch=3 n=85 v=0
217860 On ch=3 n=97 v=0
217920 On ch=3 n=24 v=127
217920 On ch=3 n=25 v=127
217920 On ch=3 n=36 v=127
217920 On ch=3 n=64 v=127
217920 On ch=3 n=72 v=127
217920 On ch=3 n=76 v=127
217920 On ch=3 n=84 v=127
217920 On ch=3 n=88 v=127
217920 On ch=3 n=96 v=127
217920 On ch=3 n=100 v=127
217920 On ch=3 n=60 v=100
217920 Meta Text "[idle_intense]"
217980 On ch=3 n=24 v=0
217980 On ch=3 n=36 v=0
217980 On ch=3 n=64 v=0
217980 On ch=3 n=72 v=0
217980 On ch=3 n=76 v=0
217980 On ch=3 n=84 v=0
217980 On ch=3 n=88 v=0
217980 On ch=3 n=96 v=0
217980 On ch=3 n=100 v=0
217980 On ch=3 n=60 v=0
218160 On ch=3 n=24 v=127
218160 On ch=3 n=37 v=127
218160 On ch=3 n=64 v=127
218160 On ch=3 n=72 v=127
218160 On ch=3 n=76 v=127
218160 On ch=3 n=84 v=127
218160 On ch=3 n=88 v=127
218160 On ch=3 n=96 v=127
218160 On ch=3 n=100 v=127
218160 On ch=3 n=60 v=100
218220 On ch=3 n=24 v=0
218220 On ch=3 n=37 v=0
218220 On ch=3 n=64 v=0
218220 On ch=3 n=72 v=0
218220 On ch=3 n=76 v=0
218220 On ch=3 n=84 v=0
218220 On ch=3 n=88 v=0
218220 On ch=3 n=96 v=0
218220 On ch=3 n=100 v=0
218220 On ch=3 n=60 v=0
218280 On ch=3 n=116 v=0
218394 On ch=3 n=25 v=0
240960 Meta Text "[intense]"
240960 On ch=3 n=27 v=127
240960 On ch=3 n=61 v=127
240960 On ch=3 n=62 v=127
240960 On ch=3 n=73 v=127
240960 On ch=3 n=74 v=127
240960 On ch=3 n=85 v=127
240960 On ch=3 n=86 v=127
240960 On ch=3 n=97 v=127
240960 On ch=3 n=98 v=127
240960 On ch=3 n=110 v=127
240960 On ch=3 n=111 v=127
240960 On ch=3 n=112 v=127
240981 On ch=3 n=26 v=127
241020 On ch=3 n=27 v=0
241020 On ch=3 n=61 v=0
241020 On ch=3 n=62 v=0
241020 On ch=3 n=73 v=0
241020 On ch=3 n=74 v=0
241020 On ch=3 n=85 v=0
241020 On ch=3 n=86 v=0
241020 On ch=3 n=97 v=0
241020 On ch=3 n=98 v=0
241041 On ch=3 n=26 v=0
241200 On ch=3 n=24 v=127
241200 On ch=3 n=72 v=127
241200 On ch=3 n=84 v=127
241200 On ch=3 n=96 v=127
241260 On ch=3 n=24 v=0
241260 On ch=3 n=72 v=0
241260 On ch=3 n=84 v=0
241260 On ch=3 n=96 v=0
241440 On ch=3 n=27 v=127
241440 On ch=3 n=61 v=127
241440 On ch=3 n=73 v=127
241440 On ch=3 n=85 v=127
241440 On ch=3 n=97 v=127
241500 On ch=3 n=27 v=0
241500 On ch=3 n=61 v=0
241500 On ch=3 n=73 v=0
241500 On ch=3 n=85 v=0
241500 On ch=3 n=97 v=0
241560 On ch=3 n=26 v=127
241560 On ch=3 n=85 v=127
241560 On ch=3 n=97 v=127
241620 On ch=3 n=26 v=0
241620 On ch=3 n=85 v=0
241620 On ch=3 n=97 v=0
241680 On ch=3 n=27 v=127
241680 On ch=3 n=85 v=127
241680 On ch=3 n=97 v=127
241740 On ch=3 n=27 v=0
241740 On ch=3 n=85 v=0
241740 On ch=3 n=97 v=0
241920 On ch=3 n=27 v=127
241920 On ch=3 n=61 v=127
241920 On ch=3 n=73 v=127
241920 On ch=3 n=85 v=127
241920 On ch=3 n=86 v=127
241920 On ch=3 n=97 v=127
241920 On ch=3 n=98 v=127
241920 On ch=3 n=116 v=100
241952 On ch=3 n=26 v=127
241980 On ch=3 n=27 v=0
241980 On ch=3 n=61 v=0
241980 On ch=3 n=73 v=0
241980 On ch=3 n=85 v=0
241980 On ch=3 n=86 v=0
241980 On ch=3 n=97 v=0
241980 On ch=3 n=98 v=0
242012 On ch=3 n=26 v=0
242160 On ch=3 n=24 v=127
242160 On ch=3 n=47 v=127
242160 On ch=3 n=74 v=127
242160 On ch=3 n=86 v=127
242160 On ch=3 n=96 v=127
242160 On ch=3 n=98 v=127
242220 On ch=3 n=24 v=0
242220 On ch=3 n=47 v=0
242220 On ch=3 n=74 v=0
242220 On ch=3 n=86 v=0
242220 On ch=3 n=96 v=0
242220 On ch=3 n=98 v=0
242400 On ch=3 n=24 v=127
242400 On ch=3 n=48 v=127
242400 On ch=3 n=49 v=127
242400 On ch=3 n=62 v=127
242400 On ch=3 n=75 v=127
242400 On ch=3 n=86 v=127
242400 On ch=3 n=87 v=127
242400 On ch=3 n=96 v=127
242400 On ch=3 n=98 v=127
242400 On ch=3 n=99 v=127
242460 On ch=3 n=24 v=0
242460 On ch=3 n=48 v=0
242460 On ch=3 n=49 v=0
242460 On ch=3 n=62 v=0
242460 On ch=3 n=75 v=0
242460 On ch=3 n=86 v=0
242460 On ch=3 n=87 v=0
242460 On ch=3 n=96 v=0
242460 On ch=3 n=98 v=0
242460 On ch=3 n=99 v=0
242640 On ch=3 n=24 v=127
242640 On ch=3 n=51 v=127
242640 On ch=3 n=76 v=127
242640 On ch=3 n=84 v=127
242640 On ch=3 n=88 v=127
242640 On ch=3 n=96 v=127
242640 On ch=3 n=100 v=127
242700 On ch=3 n=24 v=0
242700 On ch=3 n=51 v=0
242700 On ch=3 n=76 v=0
242700 On ch=3 n=84 v=0
242700 On ch=3 n=88 v=0
242700 On ch=3 n=96 v=0
242700 On ch=3 n=100 v=0
242758 On ch=3 n=110 v=0
242758 On ch=3 n=111 v=0
242758 On ch=3 n=112 v=0
242760 On ch=3 n=116 v=0
242880 On ch=3 n=106 v=0
242880 On ch=3 n=24 v=127
242880 On ch=3 n=34 v=127
242880 On ch=3 n=38 v=127
242880 On ch=3 n=60 v=127
242880 On ch=3 n=64 v=127
242880 On ch=3 n=72 v=127
242880 On ch=3 n=76 v=127
242880 On ch=3 n=84 v=127
242880 On ch=3 n=88 v=127
242880 On ch=3 n=96 v=127
242880 On ch=3 n=100 v=127
242940 On ch=3 n=24 v=0
242940 On ch=3 n=34 v=0
242940 On ch=3 n=38 v=0
242940 On ch=3 n=60 v=0
242940 On ch=3 n=64 v=0
242940 On ch=3 n=72 v=0
242940 On ch=3 n=76 v=0
242940 On ch=3 n=84 v=0
242940 On ch=3 n=88 v=0
242940 On ch=3 n=96 v=0
242940 On ch=3 n=100 v=0
243240 On ch=3 n=25 v=127
243354 On ch=3 n=25 v=0
243360 On ch=3 n=42 v=127
243360 On ch=3 n=63 v=127
243360 On ch=3 n=75 v=127
243360 On ch=3 n=87 v=127
243360 On ch=3 n=99 v=127
243420 On ch=3 n=42 v=0
243420 On ch=3 n=63 v=0
243420 On ch=3 n=75 v=0
243420 On ch=3 n=87 v=0
243420 On ch=3 n=99 v=0
243600 On ch=3 n=24 v=127
243600 On ch=3 n=42 v=127
243600 On ch=3 n=75 v=127
243600 On ch=3 n=84 v=127
243600 On ch=3 n=87 v=127
243600 On ch=3 n=96 v=127
243600 On ch=3 n=99 v=127
243600 On ch=3 n=72 v=100
243600 On ch=3 n=63 v=127
243660 On ch=3 n=24 v=0
243660 On ch=3 n=42 v=0
243660 On ch=3 n=75 v=0
243660 On ch=3 n=84 v=0
243660 On ch=3 n=87 v=0
243660 On ch=3 n=96 v=0
243660 On ch=3 n=99 v=0
243660 On ch=3 n=72 v=0
243660 On ch=3 n=63 v=0
243720 On ch=3 n=24 v=127
243720 On ch=3 n=25 v=127
243720 On ch=3 n=96 v=127
243780 On ch=3 n=24 v=0
243780 On ch=3 n=96 v=0
243834 On ch=3 n=25 v=0
243840 On ch=3 n=26 v=127
243840 On ch=3 n=42 v=127
243840 On ch=3 n=61 v=127
243840 On ch=3 n=63 v=127
243840 On ch=3 n=73 v=127
243840 On ch=3 n=75 v=127
243840 On ch=3 n=85 v=127
243840 On ch=3 n=87 v=127
243840 On ch=3 n=97 v=127
243840 On ch=3 n=99 v=127
243900 On ch=3 n=26 v=0
243900 On ch=3 n=42 v=0
243900 On ch=3 n=61 v=0
243900 On ch=3 n=63 v=0
243900 On ch=3 n=73 v=0
243900 On ch=3 n=75 v=0
243900 On ch=3 n=85 v=0
243900 On ch=3 n=87 v=0
243900 On ch=3 n=97 v=0
243900 On ch=3 n=99 v=0
244080 On ch=3 n=26 v=127
244080 On ch=3 n=42 v=127
244080 On ch=3 n=73 v=127
244080 On ch=3 n=75 v=127
244080 On ch=3 n=85 v=127
244080 On ch=3 n=87 v=127
244080 On ch=3 n=97 v=127
244080 On ch=3 n=99 v=127
244080 On ch=3 n=63 v=127
244140 On ch=3 n=26 v=0
244140 On ch=3 n=42 v=0
244140 On ch=3 n=73 v=0
244140 On ch=3 n=75 v=0
244140 On ch=3 n=85 v=0
244140 On ch=3 n=87 v=0
244140 On ch=3 n=97 v=0
244140 On ch=3 n=99 v=0
244140 On ch=3 n=63 v=0
244200 On ch=3 n=25 v=127
244314 On ch=3 n=25 v=0
244320 On ch=3 n=42 v=127
244320 On ch=3 n=63 v=127
244320 On ch=3 n=75 v=127
244320 On ch=3 n=87 v=127
244320 On ch=3 n=99 v=127
244380 On ch=3 n=42 v=0
244380 On ch=3 n=63 v=0
244380 On ch=3 n=75 v=0
244380 On ch=3 n=87 v=0
244380 On ch=3 n=99 v=0
244560 On ch=3 n=24 v=127
244560 On ch=3 n=42 v=127
244560 On ch=3 n=75 v=127
244560 On ch=3 n=84 v=127
244560 On ch=3 n=87 v=127
244560 On ch=3 n=96 v=127
244560 On ch=3 n=99 v=127
244560 On ch=3 n=63 v=127
244620 On ch=3 n=24 v=0
244620 On ch=3 n=42 v=0
244620 On ch=3 n=75 v=0
244620 On ch=3 n=84 v=0
244620 On ch=3 n=87 v=0
244620 On ch=3 n=96 v=0
244620 On ch=3 n=99 v=0
244620 On ch=3 n=63 v=0
244680 On ch=3 n=25 v=127
244794 On ch=3 n=25 v=0
244800 On ch=3 n=42 v=127
244800 On ch=3 n=63 v=127
244800 On ch=3 n=75 v=127
244800 On ch=3 n=87 v=127
244800 On ch=3 n=99 v=127
244860 On ch=3 n=42 v=0
244860 On ch=3 n=63 v=0
244860 On ch=3 n=75 v=0
244860 On ch=3 n=87 v=0
244860 On ch=3 n=99 v=0
245040 On ch=3 n=24 v=127
245040 On ch=3 n=42 v=127
245040 On ch=3 n=75 v=127
245040 On ch=3 n=84 v=127
245040 On ch=3 n=87 v=127
245040 On ch=3 n=96 v=127
245040 On ch=3 n=99 v=127
245040 On ch=3 n=72 v=100
245040 On ch=3 n=63 v=127
245100 On ch=3 n=24 v=0
245100 On ch=3 n=42 v=0
245100 On ch=3 n=75 v=0
245100 On ch=3 n=84 v=0
245100 On ch=3 n=87 v=0
245100 On ch=3 n=96 v=0
245100 On ch=3 n=99 v=0
245100 On ch=3 n=72 v=0
245100 On ch=3 n=63 v=0
245160 On ch=3 n=25 v=127
245274 On ch=3 n=25 v=0
245280 On ch=3 n=26 v=127
245280 On ch=3 n=42 v=127
245280 On ch=3 n=61 v=127
245280 On ch=3 n=63 v=127
245280 On ch=3 n=73 v=127
245280 On ch=3 n=75 v=127
245280 On ch=3 n=85 v=127
245280 On ch=3 n=87 v=127
245280 On ch=3 n=97 v=127
245280 On ch=3 n=99 v=127
245340 On ch=3 n=26 v=0
245340 On ch=3 n=42 v=0
245340 On ch=3 n=61 v=0
245340 On ch=3 n=63 v=0
245340 On ch=3 n=73 v=0
245340 On ch=3 n=75 v=0
245340 On ch=3 n=85 v=0
245340 On ch=3 n=87 v=0
245340 On ch=3 n=97 v=0
245340 On ch=3 n=99 v=0
245520 On ch=3 n=26 v=127
245520 On ch=3 n=42 v=127
245520 On ch=3 n=73 v=127
245520 On ch=3 n=75 v=127
245520 On ch=3 n=85 v=127
245520 On ch=3 n=87 v=127
245520 On ch=3 n=97 v=127
245520 On ch=3 n=99 v=127
245520 On ch=3 n=63 v=127
245580 On ch=3 n=26 v=0
245580 On ch=3 n=42 v=0
245580 On ch=3 n=73 v=0
245580 On ch=3 n=75 v=0
245580 On ch=3 n=85 v=0
245580 On ch=3 n=87 v=0
245580 On ch=3 n=97 v=0
245580 On ch=3 n=99 v=0
245580 On ch=3 n=63 v=0
245640 On ch=3 n=25 v=127
245754 On ch=3 n=25 v=0
245760 On ch=3 n=24 v=127
245760 On ch=3 n=42 v=127
245760 On ch=3 n=63 v=127
245760 On ch=3 n=75 v=127
245760 On ch=3 n=84 v=127
245760 On ch=3 n=87 v=127
245760 On ch=3 n=96 v=127
245760 On ch=3 n=99 v=127
245760 On ch=3 n=120 v=127
245760 On ch=3 n=121 v=127
245760 On ch=3 n=122 v=127
245760 On ch=3 n=123 v=127
245760 On ch=3 n=124 v=127
245760 On ch=3 n=72 v=100
245820 On ch=3 n=24 v=0
245820 On ch=3 n=42 v=0
245820 On ch=3 n=63 v=0
245820 On ch=3 n=75 v=0
245820 On ch=3 n=84 v=0
245820 On ch=3 n=87 v=0
245820 On ch=3 n=96 v=0
245820 On ch=3 n=99 v=0
245820 On ch=3 n=72 v=0
246000 On ch=3 n=24 v=127
246000 On ch=3 n=42 v=127
246000 On ch=3 n=75 v=127
246000 On ch=3 n=84 v=127
246000 On ch=3 n=87 v=127
246000 On ch=3 n=96 v=127
246000 On ch=3 n=99 v=127
246000 On ch=3 n=63 v=127
246060 On ch=3 n=24 v=0
246060 On ch=3 n=42 v=0
246060 On ch=3 n=75 v=0
246060 On ch=3 n=84 v=0
246060 On ch=3 n=87 v=0
246060 On ch=3 n=96 v=0
246060 On ch=3 n=99 v=0
246060 On ch=3 n=63 v=0
246120 On ch=3 n=25 v=127
246234 On ch=3 n=25 v=0
246240 On ch=3 n=24 v=127
246240 On ch=3 n=27 v=127
246240 On ch=3 n=61 v=127
246240 On ch=3 n=73 v=127
246240 On ch=3 n=85 v=127
246240 On ch=3 n=96 v=127
246240 On ch=3 n=97 v=127
246300 On ch=3 n=24 v=0
246300 On ch=3 n=27 v=0
246300 On ch=3 n=61 v=0
246300 On ch=3 n=73 v=0
246300 On ch=3 n=85 v=0
246300 On ch=3 n=96 v=0
246300 On ch=3 n=97 v=0
246360 On ch=3 n=26 v=127
246360 On ch=3 n=85 v=127
246360 On ch=3 n=97 v=127
246420 On ch=3 n=26 v=0
246420 On ch=3 n=85 v=0
246420 On ch=3 n=97 v=0
246480 On ch=3 n=24 v=127
246480 On ch=3 n=27 v=127
246480 On ch=3 n=73 v=127
246480 On ch=3 n=85 v=127
246480 On ch=3 n=96 v=127
246480 On ch=3 n=97 v=127
246540 On ch=3 n=24 v=0
246540 On ch=3 n=27 v=0
246540 On ch=3 n=73 v=0
246540 On ch=3 n=85 v=0
246540 On ch=3 n=96 v=0
246540 On ch=3 n=97 v=0
246716 On ch=3 n=120 v=0
246716 On ch=3 n=121 v=0
246716 On ch=3 n=122 v=0
246716 On ch=3 n=123 v=0
246716 On ch=3 n=124 v=0
246720 On ch=3 n=24 v=127
246720 On ch=3 n=25 v=127
246720 On ch=3 n=26 v=127
246720 On ch=3 n=36 v=127
246720 On ch=3 n=64 v=127
246720 On ch=3 n=72 v=127
246720 On ch=3 n=76 v=127
246720 On ch=3 n=84 v=127
246720 On ch=3 n=85 v=127
246720 On ch=3 n=88 v=127
246720 On ch=3 n=96 v=127
246720 On ch=3 n=97 v=127
246720 On ch=3 n=100 v=127
246720 On ch=3 n=106 v=100
246720 On ch=3 n=60 v=100
246780 On ch=3 n=24 v=0
246780 On ch=3 n=26 v=0
246780 On ch=3 n=36 v=0
246780 On ch=3 n=64 v=0
246780 On ch=3 n=72 v=0
246780 On ch=3 n=76 v=0
246780 On ch=3 n=84 v=0
246780 On ch=3 n=85 v=0
246780 On ch=3 n=88 v=0
246780 On ch=3 n=96 v=0
246780 On ch=3 n=97 v=0
246780 On ch=3 n=100 v=0
246780 On ch=3 n=60 v=0
246954 On ch=3 n=25 v=0
246960 On ch=3 n=105 v=0
246960 On ch=3 n=24 v=127
246960 On ch=3 n=96 v=127
247020 On ch=3 n=24 v=0
247020 On ch=3 n=96 v=0
247200 On ch=3 n=24 v=127
247200 On ch=3 n=25 v=127
247200 On ch=3 n=26 v=127
247200 On ch=3 n=42 v=127
247200 On ch=3 n=61 v=127
247200 On ch=3 n=63 v=127
247200 On ch=3 n=73 v=127
247200 On ch=3 n=75 v=127
247200 On ch=3 n=85 v=127
247200 On ch=3 n=87 v=127
247200 On ch=3 n=96 v=127
247200 On ch=3 n=97 v=127
247200 On ch=3 n=99 v=127
247260 On ch=3 n=24 v=0
247260 On ch=3 n=26 v=0
247260 On ch=3 n=42 v=0
247260 On ch=3 n=61 v=0
247260 On ch=3 n=63 v=0
247260 On ch=3 n=73 v=0
247260 On ch=3 n=75 v=0
247260 On ch=3 n=85 v=0
247260 On ch=3 n=87 v=0
247260 On ch=3 n=96 v=0
247260 On ch=3 n=97 v=0
247260 On ch=3 n=99 v=0
247434 On ch=3 n=25 v=0
247440 On ch=3 n=24 v=127
247440 On ch=3 n=42 v=127
247440 On ch=3 n=87 v=127
247440 On ch=3 n=96 v=127
247440 On ch=3 n=99 v=127
247440 On ch=3 n=72 v=127
247440 On ch=3 n=63 v=127
247440 On ch=3 n=84 v=100
247500 On ch=3 n=24 v=0
247500 On ch=3 n=42 v=0
247500 On ch=3 n=87 v=0
247500 On ch=3 n=96 v=0
247500 On ch=3 n=99 v=0
247500 On ch=3 n=72 v=0
247500 On ch=3 n=63 v=0
247500 On ch=3 n=84 v=0
247680 On ch=3 n=24 v=127
247680 On ch=3 n=25 v=127
247680 On ch=3 n=26 v=127
247680 On ch=3 n=42 v=127
247680 On ch=3 n=61 v=127
247680 On ch=3 n=63 v=127
247680 On ch=3 n=73 v=127
247680 On ch=3 n=75 v=127
247680 On ch=3 n=85 v=127
247680 On ch=3 n=87 v=127
247680 On ch=3 n=96 v=127
247680 On ch=3 n=97 v=127
247680 On ch=3 n=99 v=127
247740 On ch=3 n=24 v=0
247740 On ch=3 n=26 v=0
247740 On ch=3 n=42 v=0
247740 On ch=3 n=61 v=0
247740 On ch=3 n=63 v=0
247740 On ch=3 n=73 v=0
247740 On ch=3 n=75 v=0
247740 On ch=3 n=85 v=0
247740 On ch=3 n=87 v=0
247740 On ch=3 n=96 v=0
247740 On ch=3 n=97 v=0
247740 On ch=3 n=99 v=0
247914 On ch=3 n=25 v=0
247920 On ch=3 n=24 v=127
247920 On ch=3 n=42 v=127
247920 On ch=3 n=87 v=127
247920 On ch=3 n=96 v=127
247920 On ch=3 n=99 v=127
247920 On ch=3 n=72 v=127
247920 On ch=3 n=63 v=127
247920 On ch=3 n=84 v=100
247980 On ch=3 n=24 v=0
247980 On ch=3 n=42 v=0
247980 On ch=3 n=87 v=0
247980 On ch=3 n=96 v=0
247980 On ch=3 n=99 v=0
247980 On ch=3 n=72 v=0
247980 On ch=3 n=63 v=0
247980 On ch=3 n=84 v=0
248160 On ch=3 n=24 v=127
248160 On ch=3 n=25 v=127
248160 On ch=3 n=26 v=127
248160 On ch=3 n=42 v=127
248160 On ch=3 n=61 v=127
248160 On ch=3 n=63 v=127
248160 On ch=3 n=73 v=127
248160 On ch=3 n=75 v=127
248160 On ch=3 n=85 v=127
248160 On ch=3 n=87 v=127
248160 On ch=3 n=96 v=127
248160 On ch=3 n=97 v=127
248160 On ch=3 n=99 v=127
248220 On ch=3 n=24 v=0
248220 On ch=3 n=26 v=0
248220 On ch=3 n=42 v=0
248220 On ch=3 n=61 v=0
248220 On ch=3 n=63 v=0
248220 On ch=3 n=73 v=0
248220 On ch=3 n=75 v=0
248220 On ch=3 n=85 v=0
248220 On ch=3 n=87 v=0
248220 On ch=3 n=96 v=0
248220 On ch=3 n=97 v=0
248220 On ch=3 n=99 v=0
248394 On ch=3 n=25 v=0
248400 On ch=3 n=24 v=127
248400 On ch=3 n=42 v=127
248400 On ch=3 n=87 v=127
248400 On ch=3 n=96 v=127
248400 On ch=3 n=99 v=127
248400 On ch=3 n=72 v=127
248400 On ch=3 n=63 v=127
248400 On ch=3 n=84 v=100
248460 On ch=3 n=24 v=0
248460 On ch=3 n=42 v=0
248460 On ch=3 n=87 v=0
248460 On ch=3 n=96 v=0
248460 On ch=3 n=99 v=0
248460 On ch=3 n=72 v=0
248460 On ch=3 n=63 v=0
248460 On ch=3 n=84 v=0
248640 On ch=3 n=24 v=127
248640 On ch=3 n=25 v=127
248640 On ch=3 n=26 v=127
248640 On ch=3 n=42 v=127
248640 On ch=3 n=61 v=127
248640 On ch=3 n=63 v=127
248640 On ch=3 n=73 v=127
248640 On ch=3 n=75 v=127
248640 On ch=3 n=85 v=127
248640 On ch=3 n=87 v=127
248640 On ch=3 n=96 v=127
248640 On ch=3 n=97 v=127
248640 On ch=3 n=99 v=127
248700 On ch=3 n=24 v=0
248700 On ch=3 n=26 v=0
248700 On ch=3 n=42 v=0
248700 On ch=3 n=61 v=0
248700 On ch=3 n=63 v=0
248700 On ch=3 n=73 v=0
248700 On ch=3 n=75 v=0
248700 On ch=3 n=85 v=0
248700 On ch=3 n=87 v=0
248700 On ch=3 n=96 v=0
248700 On ch=3 n=97 v=0
248700 On ch=3 n=99 v=0
248874 On ch=3 n=25 v=0
248880 On ch=3 n=24 v=127
248880 On ch=3 n=42 v=127
248880 On ch=3 n=87 v=127
248880 On ch=3 n=96 v=127
248880 On ch=3 n=99 v=127
248880 On ch=3 n=72 v=127
248880 On ch=3 n=63 v=127
248880 On ch=3 n=84 v=100
248940 On ch=3 n=24 v=0
248940 On ch=3 n=42 v=0
248940 On ch=3 n=87 v=0
248940 On ch=3 n=96 v=0
248940 On ch=3 n=99 v=0
248940 On ch=3 n=72 v=0
248940 On ch=3 n=63 v=0
248940 On ch=3 n=84 v=0
249120 On ch=3 n=24 v=127
249120 On ch=3 n=25 v=127
249120 On ch=3 n=26 v=127
249120 On ch=3 n=42 v=127
249120 On ch=3 n=61 v=127
249120 On ch=3 n=63 v=127
249120 On ch=3 n=73 v=127
249120 On ch=3 n=75 v=127
249120 On ch=3 n=85 v=127
249120 On ch=3 n=87 v=127
249120 On ch=3 n=96 v=127
249120 On ch=3 n=97 v=127
249120 On ch=3 n=99 v=127
249180 On ch=3 n=24 v=0
249180 On ch=3 n=26 v=0
249180 On ch=3 n=42 v=0
249180 On ch=3 n=61 v=0
249180 On ch=3 n=63 v=0
249180 On ch=3 n=73 v=0
249180 On ch=3 n=75 v=0
249180 On ch=3 n=85 v=0
249180 On ch=3 n=87 v=0
249180 On ch=3 n=96 v=0
249180 On ch=3 n=97 v=0
249180 On ch=3 n=99 v=0
249354 On ch=3 n=25 v=0
249360 On ch=3 n=24 v=127
249360 On ch=3 n=42 v=127
249360 On ch=3 n=87 v=127
249360 On ch=3 n=96 v=127
249360 On ch=3 n=99 v=127
249360 On ch=3 n=72 v=127
249360 On ch=3 n=63 v=127
249360 On ch=3 n=84 v=100
249420 On ch=3 n=24 v=0
249420 On ch=3 n=42 v=0
249420 On ch=3 n=87 v=0
249420 On ch=3 n=96 v=0
249420 On ch=3 n=99 v=0
249420 On ch=3 n=72 v=0
249420 On ch=3 n=63 v=0
249420 On ch=3 n=84 v=0
249600 On ch=3 n=124 v=127
249600 On ch=3 n=123 v=127
249600 On ch=3 n=122 v=127
249600 On ch=3 n=121 v=127
249600 On ch=3 n=120 v=127
249600 On ch=3 n=99 v=127
249600 On ch=3 n=97 v=127
249600 On ch=3 n=96 v=127
249600 On ch=3 n=87 v=127
249600 On ch=3 n=85 v=127
249600 On ch=3 n=75 v=127
249600 On ch=3 n=73 v=127
249600 On ch=3 n=63 v=127
249600 On ch=3 n=61 v=127
249600 On ch=3 n=42 v=127
249600 On ch=3 n=26 v=127
249600 On ch=3 n=25 v=127
249600 On ch=3 n=24 v=127
249660 On ch=3 n=99 v=0
249660 On ch=3 n=97 v=0
249660 On ch=3 n=96 v=0
249660 On ch=3 n=87 v=0
249660 On ch=3 n=85 v=0
249660 On ch=3 n=75 v=0
249660 On ch=3 n=73 v=0
249660 On ch=3 n=63 v=0
249660 On ch=3 n=61 v=0
249660 On ch=3 n=42 v=0
249660 On ch=3 n=26 v=0
249660 On ch=3 n=24 v=0
249834 On ch=3 n=25 v=0
249840 On ch=3 n=24 v=127
249840 On ch=3 n=42 v=127
249840 On ch=3 n=87 v=127
249840 On ch=3 n=96 v=127
249840 On ch=3 n=99 v=127
249840 On ch=3 n=72 v=127
249840 On ch=3 n=63 v=127
249840 On ch=3 n=84 v=100
249900 On ch=3 n=24 v=0
249900 On ch=3 n=42 v=0
249900 On ch=3 n=87 v=0
249900 On ch=3 n=96 v=0
249900 On ch=3 n=99 v=0
249900 On ch=3 n=72 v=0
249900 On ch=3 n=63 v=0
249900 On ch=3 n=84 v=0
250080 On ch=3 n=24 v=127
250080 On ch=3 n=25 v=127
250080 On ch=3 n=27 v=127
250080 On ch=3 n=61 v=127
250080 On ch=3 n=73 v=127
250080 On ch=3 n=85 v=127
250080 On ch=3 n=96 v=127
250080 On ch=3 n=97 v=127
250140 On ch=3 n=24 v=0
250140 On ch=3 n=27 v=0
250140 On ch=3 n=61 v=0
250140 On ch=3 n=73 v=0
250140 On ch=3 n=85 v=0
250140 On ch=3 n=96 v=0
250140 On ch=3 n=97 v=0
250200 On ch=3 n=26 v=127
250200 On ch=3 n=85 v=127
250200 On ch=3 n=97 v=127
250260 On ch=3 n=26 v=0
250260 On ch=3 n=85 v=0
250260 On ch=3 n=97 v=0
250314 On ch=3 n=25 v=0
250320 On ch=3 n=24 v=127
250320 On ch=3 n=27 v=127
250320 On ch=3 n=73 v=127
250320 On ch=3 n=85 v=127
250320 On ch=3 n=96 v=127
250320 On ch=3 n=97 v=127
250320 On ch=3 n=61 v=100
250380 On ch=3 n=24 v=0
250380 On ch=3 n=27 v=0
250380 On ch=3 n=73 v=0
250380 On ch=3 n=85 v=0
250380 On ch=3 n=96 v=0
250380 On ch=3 n=97 v=0
250380 On ch=3 n=61 v=0
250440 On ch=3 n=26 v=127
250440 On ch=3 n=85 v=127
250440 On ch=3 n=97 v=127
250500 On ch=3 n=26 v=0
250500 On ch=3 n=85 v=0
250500 On ch=3 n=97 v=0
250556 On ch=3 n=124 v=0
250556 On ch=3 n=123 v=0
250556 On ch=3 n=122 v=0
250556 On ch=3 n=121 v=0
250556 On ch=3 n=120 v=0
250560 On ch=3 n=24 v=127
250560 On ch=3 n=38 v=127
250560 On ch=3 n=64 v=127
250560 On ch=3 n=72 v=127
250560 On ch=3 n=76 v=127
250560 On ch=3 n=84 v=127
250560 On ch=3 n=88 v=127
250560 On ch=3 n=96 v=127
250560 On ch=3 n=100 v=127
250560 On ch=3 n=105 v=100
250560 On ch=3 n=60 v=100
250560 Meta Text "[play]"
250620 On ch=3 n=24 v=0
250620 On ch=3 n=38 v=0
250620 On ch=3 n=64 v=0
250620 On ch=3 n=72 v=0
250620 On ch=3 n=76 v=0
250620 On ch=3 n=84 v=0
250620 On ch=3 n=88 v=0
250620 On ch=3 n=96 v=0
250620 On ch=3 n=100 v=0
250620 On ch=3 n=60 v=0
250800 On ch=3 n=106 v=0
251040 On ch=3 n=24 v=127
251040 On ch=3 n=25 v=127
251040 On ch=3 n=26 v=127
251040 On ch=3 n=61 v=127
251040 On ch=3 n=73 v=127
251040 On ch=3 n=85 v=127
251040 On ch=3 n=96 v=127
251040 On ch=3 n=97 v=127
251100 On ch=3 n=24 v=0
251100 On ch=3 n=26 v=0
251100 On ch=3 n=61 v=0
251100 On ch=3 n=73 v=0
251100 On ch=3 n=85 v=0
251100 On ch=3 n=96 v=0
251100 On ch=3 n=97 v=0
251274 On ch=3 n=25 v=0
251520 On ch=3 n=24 v=127
251520 On ch=3 n=31 v=127
251520 On ch=3 n=72 v=127
251520 On ch=3 n=74 v=127
251520 On ch=3 n=84 v=127
251520 On ch=3 n=86 v=127
251520 On ch=3 n=96 v=127
251520 On ch=3 n=98 v=127
251520 On ch=3 n=60 v=100
251580 On ch=3 n=24 v=0
251580 On ch=3 n=31 v=0
251580 On ch=3 n=72 v=0
251580 On ch=3 n=74 v=0
251580 On ch=3 n=84 v=0
251580 On ch=3 n=86 v=0
251580 On ch=3 n=96 v=0
251580 On ch=3 n=98 v=0
251580 On ch=3 n=60 v=0
251760 On ch=3 n=24 v=127
251760 On ch=3 n=31 v=127
251760 On ch=3 n=72 v=127
251760 On ch=3 n=74 v=127
251760 On ch=3 n=84 v=127
251760 On ch=3 n=86 v=127
251760 On ch=3 n=96 v=127
251760 On ch=3 n=98 v=127
251760 On ch=3 n=60 v=100
251820 On ch=3 n=24 v=0
251820 On ch=3 n=31 v=0
251820 On ch=3 n=72 v=0
251820 On ch=3 n=74 v=0
251820 On ch=3 n=84 v=0
251820 On ch=3 n=86 v=0
251820 On ch=3 n=96 v=0
251820 On ch=3 n=98 v=0
251820 On ch=3 n=60 v=0
252000 On ch=3 n=26 v=127
252000 On ch=3 n=31 v=127
252000 On ch=3 n=61 v=127
252000 On ch=3 n=73 v=127
252000 On ch=3 n=74 v=127
252000 On ch=3 n=85 v=127
252000 On ch=3 n=86 v=127
252000 On ch=3 n=97 v=127
252000 On ch=3 n=98 v=127
252060 On ch=3 n=26 v=0
252060 On ch=3 n=31 v=0
252060 On ch=3 n=61 v=0
252060 On ch=3 n=73 v=0
252060 On ch=3 n=74 v=0
252060 On ch=3 n=85 v=0
252060 On ch=3 n=86 v=0
252060 On ch=3 n=97 v=0
252060 On ch=3 n=98 v=0
252240 On ch=3 n=24 v=127
252240 On ch=3 n=31 v=127
252240 On ch=3 n=74 v=127
252240 On ch=3 n=84 v=127
252240 On ch=3 n=86 v=127
252240 On ch=3 n=96 v=127
252240 On ch=3 n=98 v=127
252300 On ch=3 n=24 v=0
252300 On ch=3 n=31 v=0
252300 On ch=3 n=74 v=0
252300 On ch=3 n=84 v=0
252300 On ch=3 n=86 v=0
252300 On ch=3 n=96 v=0
252300 On ch=3 n=98 v=0
252480 On ch=3 n=24 v=127
252480 On ch=3 n=31 v=127
252480 On ch=3 n=72 v=127
252480 On ch=3 n=74 v=127
252480 On ch=3 n=84 v=127
252480 On ch=3 n=86 v=127
252480 On ch=3 n=96 v=127
252480 On ch=3 n=98 v=127
252480 On ch=3 n=116 v=100
252480 On ch=3 n=60 v=100
252540 On ch=3 n=24 v=0
252540 On ch=3 n=31 v=0
252540 On ch=3 n=72 v=0
252540 On ch=3 n=74 v=0
252540 On ch=3 n=84 v=0
252540 On ch=3 n=86 v=0
252540 On ch=3 n=96 v=0
252540 On ch=3 n=98 v=0
252540 On ch=3 n=60 v=0
252720 On ch=3 n=31 v=127
252720 On ch=3 n=74 v=127
252720 On ch=3 n=86 v=127
252720 On ch=3 n=98 v=127
252780 On ch=3 n=31 v=0
252780 On ch=3 n=74 v=0
252780 On ch=3 n=86 v=0
252780 On ch=3 n=98 v=0
252960 On ch=3 n=24 v=127
252960 On ch=3 n=26 v=127
252960 On ch=3 n=31 v=127
252960 On ch=3 n=61 v=127
252960 On ch=3 n=73 v=127
252960 On ch=3 n=74 v=127
252960 On ch=3 n=85 v=127
252960 On ch=3 n=86 v=127
252960 On ch=3 n=96 v=127
252960 On ch=3 n=97 v=127
252960 On ch=3 n=98 v=127
253020 On ch=3 n=24 v=0
253020 On ch=3 n=26 v=0
253020 On ch=3 n=31 v=0
253020 On ch=3 n=61 v=0
253020 On ch=3 n=73 v=0
253020 On ch=3 n=74 v=0
253020 On ch=3 n=85 v=0
253020 On ch=3 n=86 v=0
253020 On ch=3 n=96 v=0
253020 On ch=3 n=97 v=0
253020 On ch=3 n=98 v=0
253200 On ch=3 n=31 v=127
253200 On ch=3 n=74 v=127
253200 On ch=3 n=86 v=127
253200 On ch=3 n=98 v=127
253260 On ch=3 n=31 v=0
253260 On ch=3 n=74 v=0
253260 On ch=3 n=86 v=0
253260 On ch=3 n=98 v=0
253440 On ch=3 n=24 v=127
253440 On ch=3 n=31 v=127
253440 On ch=3 n=72 v=127
253440 On ch=3 n=74 v=127
253440 On ch=3 n=84 v=127
253440 On ch=3 n=86 v=127
253440 On ch=3 n=96 v=127
253440 On ch=3 n=98 v=127
253440 On ch=3 n=60 v=100
253500 On ch=3 n=24 v=0
253500 On ch=3 n=31 v=0
253500 On ch=3 n=72 v=0
253500 On ch=3 n=74 v=0
253500 On ch=3 n=84 v=0
253500 On ch=3 n=86 v=0
253500 On ch=3 n=96 v=0
253500 On ch=3 n=98 v=0
253500 On ch=3 n=60 v=0
253680 On ch=3 n=24 v=127
253680 On ch=3 n=31 v=127
253680 On ch=3 n=72 v=127
253680 On ch=3 n=74 v=127
253680 On ch=3 n=84 v=127
253680 On ch=3 n=86 v=127
253680 On ch=3 n=96 v=127
253680 On ch=3 n=98 v=127
253680 On ch=3 n=60 v=100
253740 On ch=3 n=24 v=0
253740 On ch=3 n=31 v=0
253740 On ch=3 n=72 v=0
253740 On ch=3 n=74 v=0
253740 On ch=3 n=84 v=0
253740 On ch=3 n=86 v=0
253740 On ch=3 n=96 v=0
253740 On ch=3 n=98 v=0
253740 On ch=3 n=60 v=0
253920 On ch=3 n=26 v=127
253920 On ch=3 n=31 v=127
253920 On ch=3 n=61 v=127
253920 On ch=3 n=73 v=127
253920 On ch=3 n=74 v=127
253920 On ch=3 n=85 v=127
253920 On ch=3 n=86 v=127
253920 On ch=3 n=97 v=127
253920 On ch=3 n=98 v=127
253980 On ch=3 n=26 v=0
253980 On ch=3 n=31 v=0
253980 On ch=3 n=61 v=0
253980 On ch=3 n=73 v=0
253980 On ch=3 n=74 v=0
253980 On ch=3 n=85 v=0
253980 On ch=3 n=86 v=0
253980 On ch=3 n=97 v=0
253980 On ch=3 n=98 v=0
254160 On ch=3 n=24 v=127
254160 On ch=3 n=31 v=127
254160 On ch=3 n=74 v=127
254160 On ch=3 n=84 v=127
254160 On ch=3 n=86 v=127
254160 On ch=3 n=96 v=127
254160 On ch=3 n=98 v=127
254220 On ch=3 n=24 v=0
254220 On ch=3 n=31 v=0
254220 On ch=3 n=74 v=0
254220 On ch=3 n=84 v=0
254220 On ch=3 n=86 v=0
254220 On ch=3 n=96 v=0
254220 On ch=3 n=98 v=0
254400 On ch=3 n=116 v=0
254400 On ch=3 n=24 v=127
254400 On ch=3 n=31 v=127
254400 On ch=3 n=72 v=127
254400 On ch=3 n=74 v=127
254400 On ch=3 n=84 v=127
254400 On ch=3 n=86 v=127
254400 On ch=3 n=96 v=127
254400 On ch=3 n=98 v=127
254400 On ch=3 n=60 v=100
254460 On ch=3 n=24 v=0
254460 On ch=3 n=31 v=0
254460 On ch=3 n=72 v=0
254460 On ch=3 n=74 v=0
254460 On ch=3 n=84 v=0
254460 On ch=3 n=86 v=0
254460 On ch=3 n=96 v=0
254460 On ch=3 n=98 v=0
254460 On ch=3 n=60 v=0
254640 On ch=3 n=31 v=127
254640 On ch=3 n=74 v=127
254640 On ch=3 n=86 v=127
254640 On ch=3 n=98 v=127
254700 On ch=3 n=31 v=0
254700 On ch=3 n=74 v=0
254700 On ch=3 n=86 v=0
254700 On ch=3 n=98 v=0
254880 On ch=3 n=24 v=127
254880 On ch=3 n=26 v=127
254880 On ch=3 n=31 v=127
254880 On ch=3 n=61 v=127
254880 On ch=3 n=73 v=127
254880 On ch=3 n=74 v=127
254880 On ch=3 n=85 v=127
254880 On ch=3 n=86 v=127
254880 On ch=3 n=96 v=127
254880 On ch=3 n=97 v=127
254880 On ch=3 n=98 v=127
254940 On ch=3 n=24 v=0
254940 On ch=3 n=26 v=0
254940 On ch=3 n=31 v=0
254940 On ch=3 n=61 v=0
254940 On ch=3 n=73 v=0
254940 On ch=3 n=74 v=0
254940 On ch=3 n=85 v=0
254940 On ch=3 n=86 v=0
254940 On ch=3 n=96 v=0
254940 On ch=3 n=97 v=0
254940 On ch=3 n=98 v=0
255120 On ch=3 n=31 v=127
255120 On ch=3 n=74 v=127
255120 On ch=3 n=86 v=127
255120 On ch=3 n=98 v=127
255180 On ch=3 n=31 v=0
255180 On ch=3 n=74 v=0
255180 On ch=3 n=86 v=0
255180 On ch=3 n=98 v=0
255360 On ch=3 n=24 v=127
255360 On ch=3 n=31 v=127
255360 On ch=3 n=72 v=127
255360 On ch=3 n=74 v=127
255360 On ch=3 n=84 v=127
255360 On ch=3 n=86 v=127
255360 On ch=3 n=96 v=127
255360 On ch=3 n=98 v=127
255360 On ch=3 n=60 v=100
255420 On ch=3 n=24 v=0
255420 On ch=3 n=31 v=0
255420 On ch=3 n=72 v=0
255420 On ch=3 n=74 v=0
255420 On ch=3 n=84 v=0
255420 On ch=3 n=86 v=0
255420 On ch=3 n=96 v=0
255420 On ch=3 n=98 v=0
255420 On ch=3 n=60 v=0
255600 On ch=3 n=24 v=127
255600 On ch=3 n=31 v=127
255600 On ch=3 n=72 v=127
255600 On ch=3 n=74 v=127
255600 On ch=3 n=84 v=127
255600 On ch=3 n=86 v=127
255600 On ch=3 n=96 v=127
255600 On ch=3 n=98 v=127
255600 On ch=3 n=60 v=100
255660 On ch=3 n=24 v=0
255660 On ch=3 n=31 v=0
255660 On ch=3 n=72 v=0
255660 On ch=3 n=74 v=0
255660 On ch=3 n=84 v=0
255660 On ch=3 n=86 v=0
255660 On ch=3 n=96 v=0
255660 On ch=3 n=98 v=0
255660 On ch=3 n=60 v=0
255840 On ch=3 n=26 v=127
255840 On ch=3 n=31 v=127
255840 On ch=3 n=61 v=127
255840 On ch=3 n=73 v=127
255840 On ch=3 n=74 v=127
255840 On ch=3 n=85 v=127
255840 On ch=3 n=86 v=127
255840 On ch=3 n=97 v=127
255840 On ch=3 n=98 v=127
255900 On ch=3 n=26 v=0
255900 On ch=3 n=31 v=0
255900 On ch=3 n=61 v=0
255900 On ch=3 n=73 v=0
255900 On ch=3 n=74 v=0
255900 On ch=3 n=85 v=0
255900 On ch=3 n=86 v=0
255900 On ch=3 n=97 v=0
255900 On ch=3 n=98 v=0
256080 On ch=3 n=24 v=127
256080 On ch=3 n=31 v=127
256080 On ch=3 n=74 v=127
256080 On ch=3 n=84 v=127
256080 On ch=3 n=86 v=127
256080 On ch=3 n=96 v=127
256080 On ch=3 n=98 v=127
256140 On ch=3 n=24 v=0
256140 On ch=3 n=31 v=0
256140 On ch=3 n=74 v=0
256140 On ch=3 n=84 v=0
256140 On ch=3 n=86 v=0
256140 On ch=3 n=96 v=0
256140 On ch=3 n=98 v=0
256320 On ch=3 n=24 v=127
256320 On ch=3 n=31 v=127
256320 On ch=3 n=72 v=127
256320 On ch=3 n=74 v=127
256320 On ch=3 n=84 v=127
256320 On ch=3 n=86 v=127
256320 On ch=3 n=96 v=127
256320 On ch=3 n=98 v=127
256320 On ch=3 n=106 v=100
256320 On ch=3 n=60 v=100
256380 On ch=3 n=24 v=0
256380 On ch=3 n=31 v=0
256380 On ch=3 n=72 v=0
256380 On ch=3 n=74 v=0
256380 On ch=3 n=84 v=0
256380 On ch=3 n=86 v=0
256380 On ch=3 n=96 v=0
256380 On ch=3 n=98 v=0
256380 On ch=3 n=60 v=0
256560 On ch=3 n=31 v=127
256560 On ch=3 n=74 v=127
256560 On ch=3 n=86 v=127
256560 On ch=3 n=98 v=127
256620 On ch=3 n=31 v=0
256620 On ch=3 n=74 v=0
256620 On ch=3 n=86 v=0
256620 On ch=3 n=98 v=0
256800 On ch=3 n=24 v=127
256800 On ch=3 n=26 v=127
256800 On ch=3 n=31 v=127
256800 On ch=3 n=61 v=127
256800 On ch=3 n=73 v=127
256800 On ch=3 n=74 v=127
256800 On ch=3 n=85 v=127
256800 On ch=3 n=86 v=127
256800 On ch=3 n=96 v=127
256800 On ch=3 n=97 v=127
256800 On ch=3 n=98 v=127
256860 On ch=3 n=24 v=0
256860 On ch=3 n=26 v=0
256860 On ch=3 n=31 v=0
256860 On ch=3 n=61 v=0
256860 On ch=3 n=73 v=0
256860 On ch=3 n=74 v=0
256860 On ch=3 n=85 v=0
256860 On ch=3 n=86 v=0
256860 On ch=3 n=96 v=0
256860 On ch=3 n=97 v=0
256860 On ch=3 n=98 v=0
257040 On ch=3 n=31 v=127
257040 On ch=3 n=74 v=127
257040 On ch=3 n=86 v=127
257040 On ch=3 n=98 v=127
257100 On ch=3 n=31 v=0
257100 On ch=3 n=74 v=0
257100 On ch=3 n=86 v=0
257100 On ch=3 n=98 v=0
257280 On ch=3 n=24 v=127
257280 On ch=3 n=31 v=127
257280 On ch=3 n=72 v=127
257280 On ch=3 n=74 v=127
257280 On ch=3 n=84 v=127
257280 On ch=3 n=86 v=127
257280 On ch=3 n=96 v=127
257280 On ch=3 n=98 v=127
257280 On ch=3 n=120 v=127
257280 On ch=3 n=121 v=127
257280 On ch=3 n=122 v=127
257280 On ch=3 n=123 v=127
257280 On ch=3 n=124 v=127
257280 On ch=3 n=60 v=100
257340 On ch=3 n=24 v=0
257340 On ch=3 n=31 v=0
257340 On ch=3 n=72 v=0
257340 On ch=3 n=74 v=0
257340 On ch=3 n=84 v=0
257340 On ch=3 n=86 v=0
257340 On ch=3 n=96 v=0
257340 On ch=3 n=98 v=0
257340 On ch=3 n=60 v=0
257520 On ch=3 n=24 v=127
257520 On ch=3 n=31 v=127
257520 On ch=3 n=72 v=127
257520 On ch=3 n=74 v=127
257520 On ch=3 n=84 v=127
257520 On ch=3 n=86 v=127
257520 On ch=3 n=96 v=127
257520 On ch=3 n=98 v=127
257520 On ch=3 n=60 v=100
257580 On ch=3 n=24 v=0
257580 On ch=3 n=31 v=0
257580 On ch=3 n=72 v=0
257580 On ch=3 n=74 v=0
257580 On ch=3 n=84 v=0
257580 On ch=3 n=86 v=0
257580 On ch=3 n=96 v=0
257580 On ch=3 n=98 v=0
257580 On ch=3 n=60 v=0
257760 On ch=3 n=26 v=127
257760 On ch=3 n=31 v=127
257760 On ch=3 n=61 v=127
257760 On ch=3 n=73 v=127
257760 On ch=3 n=74 v=127
257760 On ch=3 n=85 v=127
257760 On ch=3 n=86 v=127
257760 On ch=3 n=97 v=127
257760 On ch=3 n=98 v=127
257820 On ch=3 n=26 v=0
257820 On ch=3 n=31 v=0
257820 On ch=3 n=61 v=0
257820 On ch=3 n=73 v=0
257820 On ch=3 n=74 v=0
257820 On ch=3 n=85 v=0
257820 On ch=3 n=86 v=0
257820 On ch=3 n=97 v=0
257820 On ch=3 n=98 v=0
258000 On ch=3 n=24 v=127
258000 On ch=3 n=31 v=127
258000 On ch=3 n=74 v=127
258000 On ch=3 n=84 v=127
258000 On ch=3 n=86 v=127
258000 On ch=3 n=96 v=127
258000 On ch=3 n=98 v=127
258060 On ch=3 n=24 v=0
258060 On ch=3 n=31 v=0
258060 On ch=3 n=74 v=0
258060 On ch=3 n=84 v=0
258060 On ch=3 n=86 v=0
258060 On ch=3 n=96 v=0
258060 On ch=3 n=98 v=0
258236 On ch=3 n=120 v=0
258236 On ch=3 n=121 v=0
258236 On ch=3 n=122 v=0
258236 On ch=3 n=123 v=0
258236 On ch=3 n=124 v=0
258240 On ch=3 n=105 v=0
258240 On ch=3 n=24 v=127
258240 On ch=3 n=36 v=127
258240 On ch=3 n=64 v=127
258240 On ch=3 n=72 v=127
258240 On ch=3 n=76 v=127
258240 On ch=3 n=84 v=127
258240 On ch=3 n=88 v=127
258240 On ch=3 n=96 v=127
258240 On ch=3 n=100 v=127
258240 On ch=3 n=60 v=100
258300 On ch=3 n=24 v=0
258300 On ch=3 n=36 v=0
258300 On ch=3 n=64 v=0
258300 On ch=3 n=72 v=0
258300 On ch=3 n=76 v=0
258300 On ch=3 n=84 v=0
258300 On ch=3 n=88 v=0
258300 On ch=3 n=96 v=0
258300 On ch=3 n=100 v=0
258300 On ch=3 n=60 v=0
258720 On ch=3 n=24 v=127
258720 On ch=3 n=25 v=127
258720 On ch=3 n=26 v=127
258720 On ch=3 n=61 v=127
258720 On ch=3 n=73 v=127
258720 On ch=3 n=85 v=127
258720 On ch=3 n=96 v=127
258720 On ch=3 n=97 v=127
258780 On ch=3 n=24 v=0
258780 On ch=3 n=26 v=0
258780 On ch=3 n=61 v=0
258780 On ch=3 n=73 v=0
258780 On ch=3 n=85 v=0
258780 On ch=3 n=96 v=0
258780 On ch=3 n=97 v=0
258954 On ch=3 n=25 v=0
259200 On ch=3 n=24 v=127
259200 On ch=3 n=31 v=127
259200 On ch=3 n=72 v=127
259200 On ch=3 n=74 v=127
259200 On ch=3 n=84 v=127
259200 On ch=3 n=86 v=127
259200 On ch=3 n=96 v=127
259200 On ch=3 n=98 v=127
259200 On ch=3 n=60 v=127
259260 On ch=3 n=24 v=0
259260 On ch=3 n=31 v=0
259260 On ch=3 n=72 v=0
259260 On ch=3 n=74 v=0
259260 On ch=3 n=84 v=0
259260 On ch=3 n=86 v=0
259260 On ch=3 n=96 v=0
259260 On ch=3 n=98 v=0
259260 On ch=3 n=60 v=0
259440 On ch=3 n=24 v=127
259440 On ch=3 n=31 v=127
259440 On ch=3 n=72 v=127
259440 On ch=3 n=74 v=127
259440 On ch=3 n=84 v=127
259440 On ch=3 n=86 v=127
259440 On ch=3 n=96 v=127
259440 On ch=3 n=98 v=127
259440 On ch=3 n=60 v=127
259500 On ch=3 n=24 v=0
259500 On ch=3 n=31 v=0
259500 On ch=3 n=72 v=0
259500 On ch=3 n=74 v=0
259500 On ch=3 n=84 v=0
259500 On ch=3 n=86 v=0
259500 On ch=3 n=96 v=0
259500 On ch=3 n=98 v=0
259500 On ch=3 n=60 v=0
259680 On ch=3 n=26 v=127
259680 On ch=3 n=31 v=127
259680 On ch=3 n=61 v=127
259680 On ch=3 n=73 v=127
259680 On ch=3 n=74 v=127
259680 On ch=3 n=85 v=127
259680 On ch=3 n=86 v=127
259680 On ch=3 n=97 v=127
259680 On ch=3 n=98 v=127
259740 On ch=3 n=26 v=0
259740 On ch=3 n=31 v=0
259740 On ch=3 n=61 v=0
259740 On ch=3 n=73 v=0
259740 On ch=3 n=74 v=0
259740 On ch=3 n=85 v=0
259740 On ch=3 n=86 v=0
259740 On ch=3 n=97 v=0
259740 On ch=3 n=98 v=0
259920 On ch=3 n=24 v=127
259920 On ch=3 n=31 v=127
259920 On ch=3 n=74 v=127
259920 On ch=3 n=84 v=127
259920 On ch=3 n=86 v=127
259920 On ch=3 n=96 v=127
259920 On ch=3 n=98 v=127
259980 On ch=3 n=24 v=0
259980 On ch=3 n=31 v=0
259980 On ch=3 n=74 v=0
259980 On ch=3 n=84 v=0
259980 On ch=3 n=86 v=0
259980 On ch=3 n=96 v=0
259980 On ch=3 n=98 v=0
260160 On ch=3 n=24 v=127
260160 On ch=3 n=31 v=127
260160 On ch=3 n=72 v=127
260160 On ch=3 n=74 v=127
260160 On ch=3 n=84 v=127
260160 On ch=3 n=86 v=127
260160 On ch=3 n=96 v=127
260160 On ch=3 n=98 v=127
260160 On ch=3 n=60 v=127
260220 On ch=3 n=24 v=0
260220 On ch=3 n=31 v=0
260220 On ch=3 n=72 v=0
260220 On ch=3 n=74 v=0
260220 On ch=3 n=84 v=0
260220 On ch=3 n=86 v=0
260220 On ch=3 n=96 v=0
260220 On ch=3 n=98 v=0
260220 On ch=3 n=60 v=0
260400 On ch=3 n=31 v=127
260400 On ch=3 n=74 v=127
260400 On ch=3 n=86 v=127
260400 On ch=3 n=98 v=127
260460 On ch=3 n=31 v=0
260460 On ch=3 n=74 v=0
260460 On ch=3 n=86 v=0
260460 On ch=3 n=98 v=0
260640 On ch=3 n=24 v=127
260640 On ch=3 n=26 v=127
260640 On ch=3 n=31 v=127
260640 On ch=3 n=61 v=127
260640 On ch=3 n=73 v=127
260640 On ch=3 n=74 v=127
260640 On ch=3 n=85 v=127
260640 On ch=3 n=86 v=127
260640 On ch=3 n=96 v=127
260640 On ch=3 n=97 v=127
260640 On ch=3 n=98 v=127
260700 On ch=3 n=24 v=0
260700 On ch=3 n=26 v=0
260700 On ch=3 n=31 v=0
260700 On ch=3 n=61 v=0
260700 On ch=3 n=73 v=0
260700 On ch=3 n=74 v=0
260700 On ch=3 n=85 v=0
260700 On ch=3 n=86 v=0
260700 On ch=3 n=96 v=0
260700 On ch=3 n=97 v=0
260700 On ch=3 n=98 v=0
260880 On ch=3 n=31 v=127
260880 On ch=3 n=74 v=127
260880 On ch=3 n=86 v=127
260880 On ch=3 n=98 v=127
260940 On ch=3 n=31 v=0
260940 On ch=3 n=74 v=0
260940 On ch=3 n=86 v=0
260940 On ch=3 n=98 v=0
261120 On ch=3 n=24 v=127
261120 On ch=3 n=31 v=127
261120 On ch=3 n=72 v=127
261120 On ch=3 n=74 v=127
261120 On ch=3 n=84 v=127
261120 On ch=3 n=86 v=127
261120 On ch=3 n=96 v=127
261120 On ch=3 n=98 v=127
261120 On ch=3 n=60 v=127
261180 On ch=3 n=24 v=0
261180 On ch=3 n=31 v=0
261180 On ch=3 n=72 v=0
261180 On ch=3 n=74 v=0
261180 On ch=3 n=84 v=0
261180 On ch=3 n=86 v=0
261180 On ch=3 n=96 v=0
261180 On ch=3 n=98 v=0
261180 On ch=3 n=60 v=0
261360 On ch=3 n=24 v=127
261360 On ch=3 n=31 v=127
261360 On ch=3 n=72 v=127
261360 On ch=3 n=74 v=127
261360 On ch=3 n=84 v=127
261360 On ch=3 n=86 v=127
261360 On ch=3 n=96 v=127
261360 On ch=3 n=98 v=127
261360 On ch=3 n=60 v=127
261420 On ch=3 n=24 v=0
261420 On ch=3 n=31 v=0
261420 On ch=3 n=72 v=0
261420 On ch=3 n=74 v=0
261420 On ch=3 n=84 v=0
261420 On ch=3 n=86 v=0
261420 On ch=3 n=96 v=0
261420 On ch=3 n=98 v=0
261420 On ch=3 n=60 v=0
261600 On ch=3 n=26 v=127
261600 On ch=3 n=31 v=127
261600 On ch=3 n=61 v=127
261600 On ch=3 n=73 v=127
261600 On ch=3 n=74 v=127
261600 On ch=3 n=85 v=127
261600 On ch=3 n=86 v=127
261600 On ch=3 n=97 v=127
261600 On ch=3 n=98 v=127
261660 On ch=3 n=26 v=0
261660 On ch=3 n=31 v=0
261660 On ch=3 n=61 v=0
261660 On ch=3 n=73 v=0
261660 On ch=3 n=74 v=0
261660 On ch=3 n=85 v=0
261660 On ch=3 n=86 v=0
261660 On ch=3 n=97 v=0
261660 On ch=3 n=98 v=0
261840 On ch=3 n=24 v=127
261840 On ch=3 n=31 v=127
261840 On ch=3 n=74 v=127
261840 On ch=3 n=84 v=127
261840 On ch=3 n=86 v=127
261840 On ch=3 n=96 v=127
261840 On ch=3 n=98 v=127
261900 On ch=3 n=24 v=0
261900 On ch=3 n=31 v=0
261900 On ch=3 n=74 v=0
261900 On ch=3 n=84 v=0
261900 On ch=3 n=86 v=0
261900 On ch=3 n=96 v=0
261900 On ch=3 n=98 v=0
262080 On ch=3 n=24 v=127
262080 On ch=3 n=31 v=127
262080 On ch=3 n=72 v=127
262080 On ch=3 n=74 v=127
262080 On ch=3 n=84 v=127
262080 On ch=3 n=86 v=127
262080 On ch=3 n=96 v=127
262080 On ch=3 n=98 v=127
262080 On ch=3 n=60 v=127
262140 On ch=3 n=24 v=0
262140 On ch=3 n=31 v=0
262140 On ch=3 n=72 v=0
262140 On ch=3 n=74 v=0
262140 On ch=3 n=84 v=0
262140 On ch=3 n=86 v=0
262140 On ch=3 n=96 v=0
262140 On ch=3 n=98 v=0
262140 On ch=3 n=60 v=0
262320 On ch=3 n=31 v=127
262320 On ch=3 n=74 v=127
262320 On ch=3 n=86 v=127
262320 On ch=3 n=98 v=127
262380 On ch=3 n=31 v=0
262380 On ch=3 n=74 v=0
262380 On ch=3 n=86 v=0
262380 On ch=3 n=98 v=0
262560 On ch=3 n=24 v=127
262560 On ch=3 n=26 v=127
262560 On ch=3 n=31 v=127
262560 On ch=3 n=61 v=127
262560 On ch=3 n=73 v=127
262560 On ch=3 n=74 v=127
262560 On ch=3 n=85 v=127
262560 On ch=3 n=86 v=127
262560 On ch=3 n=96 v=127
262560 On ch=3 n=97 v=127
262560 On ch=3 n=98 v=127
262620 On ch=3 n=24 v=0
262620 On ch=3 n=26 v=0
262620 On ch=3 n=31 v=0
262620 On ch=3 n=61 v=0
262620 On ch=3 n=73 v=0
262620 On ch=3 n=74 v=0
262620 On ch=3 n=85 v=0
262620 On ch=3 n=86 v=0
262620 On ch=3 n=96 v=0
262620 On ch=3 n=97 v=0
262620 On ch=3 n=98 v=0
262800 On ch=3 n=31 v=127
262800 On ch=3 n=74 v=127
262800 On ch=3 n=86 v=127
262800 On ch=3 n=98 v=127
262860 On ch=3 n=31 v=0
262860 On ch=3 n=74 v=0
262860 On ch=3 n=86 v=0
262860 On ch=3 n=98 v=0
263040 On ch=3 n=24 v=127
263040 On ch=3 n=31 v=127
263040 On ch=3 n=72 v=127
263040 On ch=3 n=74 v=127
263040 On ch=3 n=84 v=127
263040 On ch=3 n=86 v=127
263040 On ch=3 n=96 v=127
263040 On ch=3 n=98 v=127
263040 On ch=3 n=60 v=127
263100 On ch=3 n=24 v=0
263100 On ch=3 n=31 v=0
263100 On ch=3 n=72 v=0
263100 On ch=3 n=74 v=0
263100 On ch=3 n=84 v=0
263100 On ch=3 n=86 v=0
263100 On ch=3 n=96 v=0
263100 On ch=3 n=98 v=0
263100 On ch=3 n=60 v=0
263280 On ch=3 n=24 v=127
263280 On ch=3 n=31 v=127
263280 On ch=3 n=72 v=127
263280 On ch=3 n=74 v=127
263280 On ch=3 n=84 v=127
263280 On ch=3 n=86 v=127
263280 On ch=3 n=96 v=127
263280 On ch=3 n=98 v=127
263280 On ch=3 n=60 v=127
263340 On ch=3 n=24 v=0
263340 On ch=3 n=31 v=0
263340 On ch=3 n=72 v=0
263340 On ch=3 n=74 v=0
263340 On ch=3 n=84 v=0
263340 On ch=3 n=86 v=0
263340 On ch=3 n=96 v=0
263340 On ch=3 n=98 v=0
263340 On ch=3 n=60 v=0
263520 On ch=3 n=26 v=127
263520 On ch=3 n=31 v=127
263520 On ch=3 n=61 v=127
263520 On ch=3 n=73 v=127
263520 On ch=3 n=74 v=127
263520 On ch=3 n=85 v=127
263520 On ch=3 n=86 v=127
263520 On ch=3 n=97 v=127
263520 On ch=3 n=98 v=127
263580 On ch=3 n=26 v=0
263580 On ch=3 n=31 v=0
263580 On ch=3 n=61 v=0
263580 On ch=3 n=73 v=0
263580 On ch=3 n=74 v=0
263580 On ch=3 n=85 v=0
263580 On ch=3 n=86 v=0
263580 On ch=3 n=97 v=0
263580 On ch=3 n=98 v=0
263760 On ch=3 n=24 v=127
263760 On ch=3 n=31 v=127
263760 On ch=3 n=74 v=127
263760 On ch=3 n=84 v=127
263760 On ch=3 n=86 v=127
263760 On ch=3 n=96 v=127
263760 On ch=3 n=98 v=127
263820 On ch=3 n=24 v=0
263820 On ch=3 n=31 v=0
263820 On ch=3 n=74 v=0
263820 On ch=3 n=84 v=0
263820 On ch=3 n=86 v=0
263820 On ch=3 n=96 v=0
263820 On ch=3 n=98 v=0
264000 On ch=3 n=24 v=127
264000 On ch=3 n=31 v=127
264000 On ch=3 n=72 v=127
264000 On ch=3 n=74 v=127
264000 On ch=3 n=84 v=127
264000 On ch=3 n=86 v=127
264000 On ch=3 n=96 v=127
264000 On ch=3 n=98 v=127
264000 On ch=3 n=60 v=127
264000 On ch=3 n=105 v=100
264060 On ch=3 n=24 v=0
264060 On ch=3 n=31 v=0
264060 On ch=3 n=72 v=0
264060 On ch=3 n=74 v=0
264060 On ch=3 n=84 v=0
264060 On ch=3 n=86 v=0
264060 On ch=3 n=96 v=0
264060 On ch=3 n=98 v=0
264060 On ch=3 n=60 v=0
264240 On ch=3 n=31 v=127
264240 On ch=3 n=74 v=127
264240 On ch=3 n=86 v=127
264240 On ch=3 n=98 v=127
264300 On ch=3 n=31 v=0
264300 On ch=3 n=74 v=0
264300 On ch=3 n=86 v=0
264300 On ch=3 n=98 v=0
264480 On ch=3 n=24 v=127
264480 On ch=3 n=26 v=127
264480 On ch=3 n=31 v=127
264480 On ch=3 n=61 v=127
264480 On ch=3 n=73 v=127
264480 On ch=3 n=74 v=127
264480 On ch=3 n=85 v=127
264480 On ch=3 n=86 v=127
264480 On ch=3 n=96 v=127
264480 On ch=3 n=97 v=127
264480 On ch=3 n=98 v=127
264540 On ch=3 n=24 v=0
264540 On ch=3 n=26 v=0
264540 On ch=3 n=31 v=0
264540 On ch=3 n=61 v=0
264540 On ch=3 n=73 v=0
264540 On ch=3 n=74 v=0
264540 On ch=3 n=85 v=0
264540 On ch=3 n=86 v=0
264540 On ch=3 n=96 v=0
264540 On ch=3 n=97 v=0
264540 On ch=3 n=98 v=0
264720 On ch=3 n=31 v=127
264720 On ch=3 n=74 v=127
264720 On ch=3 n=86 v=127
264720 On ch=3 n=98 v=127
264780 On ch=3 n=31 v=0
264780 On ch=3 n=74 v=0
264780 On ch=3 n=86 v=0
264780 On ch=3 n=98 v=0
264960 On ch=3 n=24 v=127
264960 On ch=3 n=31 v=127
264960 On ch=3 n=72 v=127
264960 On ch=3 n=74 v=127
264960 On ch=3 n=84 v=127
264960 On ch=3 n=86 v=127
264960 On ch=3 n=96 v=127
264960 On ch=3 n=98 v=127
264960 On ch=3 n=120 v=127
264960 On ch=3 n=121 v=127
264960 On ch=3 n=122 v=127
264960 On ch=3 n=123 v=127
264960 On ch=3 n=124 v=127
264960 On ch=3 n=60 v=127
265020 On ch=3 n=24 v=0
265020 On ch=3 n=31 v=0
265020 On ch=3 n=72 v=0
265020 On ch=3 n=74 v=0
265020 On ch=3 n=84 v=0
265020 On ch=3 n=86 v=0
265020 On ch=3 n=96 v=0
265020 On ch=3 n=98 v=0
265020 On ch=3 n=60 v=0
265200 On ch=3 n=24 v=127
265200 On ch=3 n=31 v=127
265200 On ch=3 n=72 v=127
265200 On ch=3 n=74 v=127
265200 On ch=3 n=84 v=127
265200 On ch=3 n=86 v=127
265200 On ch=3 n=96 v=127
265200 On ch=3 n=98 v=127
265200 On ch=3 n=60 v=127
265260 On ch=3 n=24 v=0
265260 On ch=3 n=31 v=0
265260 On ch=3 n=72 v=0
265260 On ch=3 n=74 v=0
265260 On ch=3 n=84 v=0
265260 On ch=3 n=86 v=0
265260 On ch=3 n=96 v=0
265260 On ch=3 n=98 v=0
265260 On ch=3 n=60 v=0
265440 On ch=3 n=26 v=127
265440 On ch=3 n=31 v=127
265440 On ch=3 n=61 v=127
265440 On ch=3 n=73 v=127
265440 On ch=3 n=74 v=127
265440 On ch=3 n=85 v=127
265440 On ch=3 n=86 v=127
265440 On ch=3 n=97 v=127
265440 On ch=3 n=98 v=127
265500 On ch=3 n=26 v=0
265500 On ch=3 n=31 v=0
265500 On ch=3 n=61 v=0
265500 On ch=3 n=73 v=0
265500 On ch=3 n=74 v=0
265500 On ch=3 n=85 v=0
265500 On ch=3 n=86 v=0
265500 On ch=3 n=97 v=0
265500 On ch=3 n=98 v=0
265680 On ch=3 n=24 v=127
265680 On ch=3 n=31 v=127
265680 On ch=3 n=74 v=127
265680 On ch=3 n=84 v=127
265680 On ch=3 n=86 v=127
265680 On ch=3 n=96 v=127
265680 On ch=3 n=98 v=127
265740 On ch=3 n=24 v=0
265740 On ch=3 n=31 v=0
265740 On ch=3 n=74 v=0
265740 On ch=3 n=84 v=0
265740 On ch=3 n=86 v=0
265740 On ch=3 n=96 v=0
265740 On ch=3 n=98 v=0
265916 On ch=3 n=120 v=0
265916 On ch=3 n=121 v=0
265916 On ch=3 n=122 v=0
265916 On ch=3 n=123 v=0
265916 On ch=3 n=124 v=0
265920 On ch=3 n=106 v=0
265920 On ch=3 n=24 v=127
265920 On ch=3 n=31 v=127
265920 On ch=3 n=62 v=127
265920 On ch=3 n=72 v=127
265920 On ch=3 n=74 v=127
265920 On ch=3 n=84 v=127
265920 On ch=3 n=86 v=127
265920 On ch=3 n=96 v=127
265920 On ch=3 n=98 v=127
265920 On ch=3 n=60 v=100
265980 On ch=3 n=24 v=0
265980 On ch=3 n=31 v=0
265980 On ch=3 n=62 v=0
265980 On ch=3 n=72 v=0
265980 On ch=3 n=74 v=0
265980 On ch=3 n=84 v=0
265980 On ch=3 n=86 v=0
265980 On ch=3 n=96 v=0
265980 On ch=3 n=98 v=0
265980 On ch=3 n=60 v=0
266160 On ch=3 n=31 v=127
266160 On ch=3 n=74 v=127
266160 On ch=3 n=86 v=127
266160 On ch=3 n=98 v=127
266160 On ch=3 n=62 v=127
266220 On ch=3 n=31 v=0
266220 On ch=3 n=74 v=0
266220 On ch=3 n=86 v=0
266220 On ch=3 n=98 v=0
266220 On ch=3 n=62 v=0
266400 On ch=3 n=24 v=127
266400 On ch=3 n=26 v=127
266400 On ch=3 n=31 v=127
266400 On ch=3 n=61 v=127
266400 On ch=3 n=62 v=127
266400 On ch=3 n=73 v=127
266400 On ch=3 n=74 v=127
266400 On ch=3 n=85 v=127
266400 On ch=3 n=86 v=127
266400 On ch=3 n=96 v=127
266400 On ch=3 n=97 v=127
266400 On ch=3 n=98 v=127
266460 On ch=3 n=24 v=0
266460 On ch=3 n=26 v=0
266460 On ch=3 n=31 v=0
266460 On ch=3 n=61 v=0
266460 On ch=3 n=62 v=0
266460 On ch=3 n=73 v=0
266460 On ch=3 n=74 v=0
266460 On ch=3 n=85 v=0
266460 On ch=3 n=86 v=0
266460 On ch=3 n=96 v=0
266460 On ch=3 n=97 v=0
266460 On ch=3 n=98 v=0
266640 On ch=3 n=31 v=127
266640 On ch=3 n=74 v=127
266640 On ch=3 n=86 v=127
266640 On ch=3 n=98 v=127
266640 On ch=3 n=62 v=127
266700 On ch=3 n=31 v=0
266700 On ch=3 n=74 v=0
266700 On ch=3 n=86 v=0
266700 On ch=3 n=98 v=0
266700 On ch=3 n=62 v=0
266880 On ch=3 n=24 v=127
266880 On ch=3 n=31 v=127
266880 On ch=3 n=62 v=127
266880 On ch=3 n=72 v=127
266880 On ch=3 n=74 v=127
266880 On ch=3 n=84 v=127
266880 On ch=3 n=86 v=127
266880 On ch=3 n=96 v=127
266880 On ch=3 n=98 v=127
266940 On ch=3 n=24 v=0
266940 On ch=3 n=31 v=0
266940 On ch=3 n=62 v=0
266940 On ch=3 n=72 v=0
266940 On ch=3 n=74 v=0
266940 On ch=3 n=84 v=0
266940 On ch=3 n=86 v=0
266940 On ch=3 n=96 v=0
266940 On ch=3 n=98 v=0
267120 On ch=3 n=24 v=127
267120 On ch=3 n=31 v=127
267120 On ch=3 n=72 v=127
267120 On ch=3 n=74 v=127
267120 On ch=3 n=84 v=127
267120 On ch=3 n=86 v=127
267120 On ch=3 n=96 v=127
267120 On ch=3 n=98 v=127
267120 On ch=3 n=62 v=127
267180 On ch=3 n=24 v=0
267180 On ch=3 n=31 v=0
267180 On ch=3 n=72 v=0
267180 On ch=3 n=74 v=0
267180 On ch=3 n=84 v=0
267180 On ch=3 n=86 v=0
267180 On ch=3 n=96 v=0
267180 On ch=3 n=98 v=0
267180 On ch=3 n=62 v=0
267360 On ch=3 n=26 v=127
267360 On ch=3 n=31 v=127
267360 On ch=3 n=61 v=127
267360 On ch=3 n=62 v=127
267360 On ch=3 n=73 v=127
267360 On ch=3 n=74 v=127
267360 On ch=3 n=85 v=127
267360 On ch=3 n=86 v=127
267360 On ch=3 n=97 v=127
267360 On ch=3 n=98 v=127
267420 On ch=3 n=26 v=0
267420 On ch=3 n=31 v=0
267420 On ch=3 n=61 v=0
267420 On ch=3 n=62 v=0
267420 On ch=3 n=73 v=0
267420 On ch=3 n=74 v=0
267420 On ch=3 n=85 v=0
267420 On ch=3 n=86 v=0
267420 On ch=3 n=97 v=0
267420 On ch=3 n=98 v=0
267600 On ch=3 n=24 v=127
267600 On ch=3 n=31 v=127
267600 On ch=3 n=74 v=127
267600 On ch=3 n=84 v=127
267600 On ch=3 n=86 v=127
267600 On ch=3 n=96 v=127
267600 On ch=3 n=98 v=127
267600 On ch=3 n=62 v=127
267660 On ch=3 n=24 v=0
267660 On ch=3 n=31 v=0
267660 On ch=3 n=74 v=0
267660 On ch=3 n=84 v=0
267660 On ch=3 n=86 v=0
267660 On ch=3 n=96 v=0
267660 On ch=3 n=98 v=0
267660 On ch=3 n=62 v=0
267840 On ch=3 n=24 v=127
267840 On ch=3 n=31 v=127
267840 On ch=3 n=62 v=127
267840 On ch=3 n=72 v=127
267840 On ch=3 n=74 v=127
267840 On ch=3 n=84 v=127
267840 On ch=3 n=86 v=127
267840 On ch=3 n=96 v=127
267840 On ch=3 n=98 v=127
267900 On ch=3 n=24 v=0
267900 On ch=3 n=31 v=0
267900 On ch=3 n=62 v=0
267900 On ch=3 n=72 v=0
267900 On ch=3 n=74 v=0
267900 On ch=3 n=84 v=0
267900 On ch=3 n=86 v=0
267900 On ch=3 n=96 v=0
267900 On ch=3 n=98 v=0
268080 On ch=3 n=31 v=127
268080 On ch=3 n=74 v=127
268080 On ch=3 n=86 v=127
268080 On ch=3 n=98 v=127
268080 On ch=3 n=62 v=127
268140 On ch=3 n=31 v=0
268140 On ch=3 n=74 v=0
268140 On ch=3 n=86 v=0
268140 On ch=3 n=98 v=0
268140 On ch=3 n=62 v=0
268320 On ch=3 n=24 v=127
268320 On ch=3 n=26 v=127
268320 On ch=3 n=31 v=127
268320 On ch=3 n=61 v=127
268320 On ch=3 n=62 v=127
268320 On ch=3 n=73 v=127
268320 On ch=3 n=74 v=127
268320 On ch=3 n=85 v=127
268320 On ch=3 n=86 v=127
268320 On ch=3 n=96 v=127
268320 On ch=3 n=97 v=127
268320 On ch=3 n=98 v=127
268380 On ch=3 n=24 v=0
268380 On ch=3 n=26 v=0
268380 On ch=3 n=31 v=0
268380 On ch=3 n=61 v=0
268380 On ch=3 n=62 v=0
268380 On ch=3 n=73 v=0
268380 On ch=3 n=74 v=0
268380 On ch=3 n=85 v=0
268380 On ch=3 n=86 v=0
268380 On ch=3 n=96 v=0
268380 On ch=3 n=97 v=0
268380 On ch=3 n=98 v=0
268560 On ch=3 n=31 v=127
268560 On ch=3 n=74 v=127
268560 On ch=3 n=86 v=127
268560 On ch=3 n=98 v=127
268560 On ch=3 n=62 v=127
268620 On ch=3 n=31 v=0
268620 On ch=3 n=74 v=0
268620 On ch=3 n=86 v=0
268620 On ch=3 n=98 v=0
268620 On ch=3 n=62 v=0
268800 On ch=3 n=24 v=127
268800 On ch=3 n=31 v=127
268800 On ch=3 n=62 v=127
268800 On ch=3 n=72 v=127
268800 On ch=3 n=74 v=127
268800 On ch=3 n=84 v=127
268800 On ch=3 n=86 v=127
268800 On ch=3 n=96 v=127
268800 On ch=3 n=98 v=127
268860 On ch=3 n=24 v=0
268860 On ch=3 n=31 v=0
268860 On ch=3 n=62 v=0
268860 On ch=3 n=72 v=0
268860 On ch=3 n=74 v=0
268860 On ch=3 n=84 v=0
268860 On ch=3 n=86 v=0
268860 On ch=3 n=96 v=0
268860 On ch=3 n=98 v=0
269040 On ch=3 n=24 v=127
269040 On ch=3 n=31 v=127
269040 On ch=3 n=72 v=127
269040 On ch=3 n=74 v=127
269040 On ch=3 n=84 v=127
269040 On ch=3 n=86 v=127
269040 On ch=3 n=96 v=127
269040 On ch=3 n=98 v=127
269040 On ch=3 n=62 v=127
269100 On ch=3 n=24 v=0
269100 On ch=3 n=31 v=0
269100 On ch=3 n=72 v=0
269100 On ch=3 n=74 v=0
269100 On ch=3 n=84 v=0
269100 On ch=3 n=86 v=0
269100 On ch=3 n=96 v=0
269100 On ch=3 n=98 v=0
269100 On ch=3 n=62 v=0
269280 On ch=3 n=26 v=127
269280 On ch=3 n=31 v=127
269280 On ch=3 n=61 v=127
269280 On ch=3 n=62 v=127
269280 On ch=3 n=73 v=127
269280 On ch=3 n=74 v=127
269280 On ch=3 n=85 v=127
269280 On ch=3 n=86 v=127
269280 On ch=3 n=97 v=127
269280 On ch=3 n=98 v=127
269340 On ch=3 n=26 v=0
269340 On ch=3 n=31 v=0
269340 On ch=3 n=61 v=0
269340 On ch=3 n=62 v=0
269340 On ch=3 n=73 v=0
269340 On ch=3 n=74 v=0
269340 On ch=3 n=85 v=0
269340 On ch=3 n=86 v=0
269340 On ch=3 n=97 v=0
269340 On ch=3 n=98 v=0
269520 On ch=3 n=24 v=127
269520 On ch=3 n=31 v=127
269520 On ch=3 n=74 v=127
269520 On ch=3 n=84 v=127
269520 On ch=3 n=86 v=127
269520 On ch=3 n=96 v=127
269520 On ch=3 n=98 v=127
269520 On ch=3 n=62 v=127
269580 On ch=3 n=24 v=0
269580 On ch=3 n=31 v=0
269580 On ch=3 n=74 v=0
269580 On ch=3 n=84 v=0
269580 On ch=3 n=86 v=0
269580 On ch=3 n=96 v=0
269580 On ch=3 n=98 v=0
269580 On ch=3 n=62 v=0
269760 On ch=3 n=105 v=0
269760 On ch=3 n=24 v=127
269760 On ch=3 n=31 v=127
269760 On ch=3 n=62 v=127
269760 On ch=3 n=72 v=127
269760 On ch=3 n=74 v=127
269760 On ch=3 n=84 v=127
269760 On ch=3 n=86 v=127
269760 On ch=3 n=96 v=127
269760 On ch=3 n=98 v=127
269760 On ch=3 n=106 v=100
269760 On ch=3 n=60 v=100
269820 On ch=3 n=24 v=0
269820 On ch=3 n=31 v=0
269820 On ch=3 n=62 v=0
269820 On ch=3 n=72 v=0
269820 On ch=3 n=74 v=0
269820 On ch=3 n=84 v=0
269820 On ch=3 n=86 v=0
269820 On ch=3 n=96 v=0
269820 On ch=3 n=98 v=0
269820 On ch=3 n=60 v=0
270000 On ch=3 n=31 v=127
270000 On ch=3 n=74 v=127
270000 On ch=3 n=86 v=127
270000 On ch=3 n=98 v=127
270000 On ch=3 n=62 v=127
270060 On ch=3 n=31 v=0
270060 On ch=3 n=74 v=0
270060 On ch=3 n=86 v=0
270060 On ch=3 n=98 v=0
270060 On ch=3 n=62 v=0
270240 On ch=3 n=24 v=127
270240 On ch=3 n=26 v=127
270240 On ch=3 n=31 v=127
270240 On ch=3 n=61 v=127
270240 On ch=3 n=62 v=127
270240 On ch=3 n=73 v=127
270240 On ch=3 n=74 v=127
270240 On ch=3 n=85 v=127
270240 On ch=3 n=86 v=127
270240 On ch=3 n=96 v=127
270240 On ch=3 n=97 v=127
270240 On ch=3 n=98 v=127
270300 On ch=3 n=24 v=0
270300 On ch=3 n=26 v=0
270300 On ch=3 n=31 v=0
270300 On ch=3 n=61 v=0
270300 On ch=3 n=62 v=0
270300 On ch=3 n=73 v=0
270300 On ch=3 n=74 v=0
270300 On ch=3 n=85 v=0
270300 On ch=3 n=86 v=0
270300 On ch=3 n=96 v=0
270300 On ch=3 n=97 v=0
270300 On ch=3 n=98 v=0
270480 On ch=3 n=31 v=127
270480 On ch=3 n=74 v=127
270480 On ch=3 n=86 v=127
270480 On ch=3 n=98 v=127
270480 On ch=3 n=62 v=127
270540 On ch=3 n=31 v=0
270540 On ch=3 n=74 v=0
270540 On ch=3 n=86 v=0
270540 On ch=3 n=98 v=0
270540 On ch=3 n=62 v=0
270720 On ch=3 n=24 v=127
270720 On ch=3 n=31 v=127
270720 On ch=3 n=62 v=127
270720 On ch=3 n=72 v=127
270720 On ch=3 n=74 v=127
270720 On ch=3 n=84 v=127
270720 On ch=3 n=86 v=127
270720 On ch=3 n=96 v=127
270720 On ch=3 n=98 v=127
270780 On ch=3 n=24 v=0
270780 On ch=3 n=31 v=0
270780 On ch=3 n=62 v=0
270780 On ch=3 n=72 v=0
270780 On ch=3 n=74 v=0
270780 On ch=3 n=84 v=0
270780 On ch=3 n=86 v=0
270780 On ch=3 n=96 v=0
270780 On ch=3 n=98 v=0
270960 On ch=3 n=24 v=127
270960 On ch=3 n=31 v=127
270960 On ch=3 n=72 v=127
270960 On ch=3 n=74 v=127
270960 On ch=3 n=84 v=127
270960 On ch=3 n=86 v=127
270960 On ch=3 n=96 v=127
270960 On ch=3 n=98 v=127
270960 On ch=3 n=62 v=127
271020 On ch=3 n=24 v=0
271020 On ch=3 n=31 v=0
271020 On ch=3 n=72 v=0
271020 On ch=3 n=74 v=0
271020 On ch=3 n=84 v=0
271020 On ch=3 n=86 v=0
271020 On ch=3 n=96 v=0
271020 On ch=3 n=98 v=0
271020 On ch=3 n=62 v=0
271200 On ch=3 n=26 v=127
271200 On ch=3 n=31 v=127
271200 On ch=3 n=61 v=127
271200 On ch=3 n=62 v=127
271200 On ch=3 n=73 v=127
271200 On ch=3 n=74 v=127
271200 On ch=3 n=85 v=127
271200 On ch=3 n=86 v=127
271200 On ch=3 n=97 v=127
271200 On ch=3 n=98 v=127
271260 On ch=3 n=26 v=0
271260 On ch=3 n=31 v=0
271260 On ch=3 n=61 v=0
271260 On ch=3 n=62 v=0
271260 On ch=3 n=73 v=0
271260 On ch=3 n=74 v=0
271260 On ch=3 n=85 v=0
271260 On ch=3 n=86 v=0
271260 On ch=3 n=97 v=0
271260 On ch=3 n=98 v=0
271440 On ch=3 n=24 v=127
271440 On ch=3 n=31 v=127
271440 On ch=3 n=74 v=127
271440 On ch=3 n=84 v=127
271440 On ch=3 n=86 v=127
271440 On ch=3 n=96 v=127
271440 On ch=3 n=98 v=127
271440 On ch=3 n=62 v=127
271500 On ch=3 n=24 v=0
271500 On ch=3 n=31 v=0
271500 On ch=3 n=74 v=0
271500 On ch=3 n=84 v=0
271500 On ch=3 n=86 v=0
271500 On ch=3 n=96 v=0
271500 On ch=3 n=98 v=0
271500 On ch=3 n=62 v=0
271680 On ch=3 n=24 v=127
271680 On ch=3 n=31 v=127
271680 On ch=3 n=62 v=127
271680 On ch=3 n=72 v=127
271680 On ch=3 n=74 v=127
271680 On ch=3 n=84 v=127
271680 On ch=3 n=86 v=127
271680 On ch=3 n=96 v=127
271680 On ch=3 n=98 v=127
271680 On ch=3 n=105 v=100
271740 On ch=3 n=24 v=0
271740 On ch=3 n=31 v=0
271740 On ch=3 n=62 v=0
271740 On ch=3 n=72 v=0
271740 On ch=3 n=74 v=0
271740 On ch=3 n=84 v=0
271740 On ch=3 n=86 v=0
271740 On ch=3 n=96 v=0
271740 On ch=3 n=98 v=0
271920 On ch=3 n=31 v=127
271920 On ch=3 n=74 v=127
271920 On ch=3 n=86 v=127
271920 On ch=3 n=98 v=127
271920 On ch=3 n=62 v=127
271980 On ch=3 n=31 v=0
271980 On ch=3 n=74 v=0
271980 On ch=3 n=86 v=0
271980 On ch=3 n=98 v=0
271980 On ch=3 n=62 v=0
272160 On ch=3 n=24 v=127
272160 On ch=3 n=26 v=127
272160 On ch=3 n=31 v=127
272160 On ch=3 n=61 v=127
272160 On ch=3 n=62 v=127
272160 On ch=3 n=73 v=127
272160 On ch=3 n=74 v=127
272160 On ch=3 n=85 v=127
272160 On ch=3 n=86 v=127
272160 On ch=3 n=96 v=127
272160 On ch=3 n=97 v=127
272160 On ch=3 n=98 v=127
272220 On ch=3 n=24 v=0
272220 On ch=3 n=26 v=0
272220 On ch=3 n=31 v=0
272220 On ch=3 n=61 v=0
272220 On ch=3 n=62 v=0
272220 On ch=3 n=73 v=0
272220 On ch=3 n=74 v=0
272220 On ch=3 n=85 v=0
272220 On ch=3 n=86 v=0
272220 On ch=3 n=96 v=0
272220 On ch=3 n=97 v=0
272220 On ch=3 n=98 v=0
272400 On ch=3 n=31 v=127
272400 On ch=3 n=74 v=127
272400 On ch=3 n=86 v=127
272400 On ch=3 n=98 v=127
272400 On ch=3 n=62 v=127
272460 On ch=3 n=31 v=0
272460 On ch=3 n=74 v=0
272460 On ch=3 n=86 v=0
272460 On ch=3 n=98 v=0
272460 On ch=3 n=62 v=0
272640 On ch=3 n=24 v=127
272640 On ch=3 n=31 v=127
272640 On ch=3 n=62 v=127
272640 On ch=3 n=72 v=127
272640 On ch=3 n=74 v=127
272640 On ch=3 n=84 v=127
272640 On ch=3 n=86 v=127
272640 On ch=3 n=96 v=127
272640 On ch=3 n=98 v=127
272640 On ch=3 n=120 v=127
272640 On ch=3 n=121 v=127
272640 On ch=3 n=122 v=127
272640 On ch=3 n=123 v=127
272640 On ch=3 n=124 v=127
272700 On ch=3 n=24 v=0
272700 On ch=3 n=31 v=0
272700 On ch=3 n=62 v=0
272700 On ch=3 n=72 v=0
272700 On ch=3 n=74 v=0
272700 On ch=3 n=84 v=0
272700 On ch=3 n=86 v=0
272700 On ch=3 n=96 v=0
272700 On ch=3 n=98 v=0
272880 On ch=3 n=24 v=127
272880 On ch=3 n=31 v=127
272880 On ch=3 n=72 v=127
272880 On ch=3 n=74 v=127
272880 On ch=3 n=84 v=127
272880 On ch=3 n=86 v=127
272880 On ch=3 n=96 v=127
272880 On ch=3 n=98 v=127
272880 On ch=3 n=62 v=127
272940 On ch=3 n=24 v=0
272940 On ch=3 n=31 v=0
272940 On ch=3 n=72 v=0
272940 On ch=3 n=74 v=0
272940 On ch=3 n=84 v=0
272940 On ch=3 n=86 v=0
272940 On ch=3 n=96 v=0
272940 On ch=3 n=98 v=0
272940 On ch=3 n=62 v=0
273120 On ch=3 n=26 v=127
273120 On ch=3 n=31 v=127
273120 On ch=3 n=73 v=127
273120 On ch=3 n=74 v=127
273120 On ch=3 n=85 v=127
273120 On ch=3 n=86 v=127
273120 On ch=3 n=97 v=127
273120 On ch=3 n=98 v=127
273120 On ch=3 n=62 v=100
273120 On ch=3 n=61 v=127
273180 On ch=3 n=26 v=0
273180 On ch=3 n=31 v=0
273180 On ch=3 n=73 v=0
273180 On ch=3 n=74 v=0
273180 On ch=3 n=85 v=0
273180 On ch=3 n=86 v=0
273180 On ch=3 n=97 v=0
273180 On ch=3 n=98 v=0
273180 On ch=3 n=62 v=0
273180 On ch=3 n=61 v=0
273360 On ch=3 n=24 v=127
273360 On ch=3 n=31 v=127
273360 On ch=3 n=74 v=127
273360 On ch=3 n=84 v=127
273360 On ch=3 n=86 v=127
273360 On ch=3 n=96 v=127
273360 On ch=3 n=98 v=127
273360 On ch=3 n=62 v=127
273420 On ch=3 n=24 v=0
273420 On ch=3 n=31 v=0
273420 On ch=3 n=74 v=0
273420 On ch=3 n=84 v=0
273420 On ch=3 n=86 v=0
273420 On ch=3 n=96 v=0
273420 On ch=3 n=98 v=0
273420 On ch=3 n=62 v=0
273596 On ch=3 n=120 v=0
273596 On ch=3 n=121 v=0
273596 On ch=3 n=122 v=0
273596 On ch=3 n=123 v=0
273596 On ch=3 n=124 v=0
273600 On ch=3 n=105 v=0
273600 On ch=3 n=24 v=127
273600 On ch=3 n=38 v=127
273600 On ch=3 n=72 v=127
273600 On ch=3 n=76 v=127
273600 On ch=3 n=84 v=127
273600 On ch=3 n=88 v=127
273600 On ch=3 n=96 v=127
273600 On ch=3 n=100 v=127
273600 On ch=3 n=64 v=127
273600 On ch=3 n=60 v=100
273660 On ch=3 n=24 v=0
273660 On ch=3 n=38 v=0
273660 On ch=3 n=72 v=0
273660 On ch=3 n=76 v=0
273660 On ch=3 n=84 v=0
273660 On ch=3 n=88 v=0
273660 On ch=3 n=96 v=0
273660 On ch=3 n=100 v=0
273660 On ch=3 n=64 v=0
273660 On ch=3 n=60 v=0
274080 On ch=3 n=24 v=127
274080 On ch=3 n=25 v=127
274080 On ch=3 n=26 v=127
274080 On ch=3 n=73 v=127
274080 On ch=3 n=85 v=127
274080 On ch=3 n=96 v=127
274080 On ch=3 n=97 v=127
274080 On ch=3 n=61 v=127
274140 On ch=3 n=24 v=0
274140 On ch=3 n=26 v=0
274140 On ch=3 n=73 v=0
274140 On ch=3 n=85 v=0
274140 On ch=3 n=96 v=0
274140 On ch=3 n=97 v=0
274140 On ch=3 n=61 v=0
274314 On ch=3 n=25 v=0
274560 On ch=3 n=24 v=127
274560 On ch=3 n=31 v=127
274560 On ch=3 n=62 v=127
274560 On ch=3 n=72 v=127
274560 On ch=3 n=74 v=127
274560 On ch=3 n=84 v=127
274560 On ch=3 n=86 v=127
274560 On ch=3 n=96 v=127
274560 On ch=3 n=98 v=127
274620 On ch=3 n=24 v=0
274620 On ch=3 n=31 v=0
274620 On ch=3 n=62 v=0
274620 On ch=3 n=72 v=0
274620 On ch=3 n=74 v=0
274620 On ch=3 n=84 v=0
274620 On ch=3 n=86 v=0
274620 On ch=3 n=96 v=0
274620 On ch=3 n=98 v=0
274800 On ch=3 n=24 v=127
274800 On ch=3 n=31 v=127
274800 On ch=3 n=72 v=127
274800 On ch=3 n=74 v=127
274800 On ch=3 n=84 v=127
274800 On ch=3 n=86 v=127
274800 On ch=3 n=96 v=127
274800 On ch=3 n=98 v=127
274800 On ch=3 n=62 v=127
274860 On ch=3 n=24 v=0
274860 On ch=3 n=31 v=0
274860 On ch=3 n=72 v=0
274860 On ch=3 n=74 v=0
274860 On ch=3 n=84 v=0
274860 On ch=3 n=86 v=0
274860 On ch=3 n=96 v=0
274860 On ch=3 n=98 v=0
274860 On ch=3 n=62 v=0
275040 On ch=3 n=26 v=127
275040 On ch=3 n=31 v=127
275040 On ch=3 n=61 v=127
275040 On ch=3 n=62 v=127
275040 On ch=3 n=73 v=127
275040 On ch=3 n=74 v=127
275040 On ch=3 n=85 v=127
275040 On ch=3 n=86 v=127
275040 On ch=3 n=97 v=127
275040 On ch=3 n=98 v=127
275100 On ch=3 n=26 v=0
275100 On ch=3 n=31 v=0
275100 On ch=3 n=61 v=0
275100 On ch=3 n=62 v=0
275100 On ch=3 n=73 v=0
275100 On ch=3 n=74 v=0
275100 On ch=3 n=85 v=0
275100 On ch=3 n=86 v=0
275100 On ch=3 n=97 v=0
275100 On ch=3 n=98 v=0
275280 On ch=3 n=24 v=127
275280 On ch=3 n=31 v=127
275280 On ch=3 n=74 v=127
275280 On ch=3 n=84 v=127
275280 On ch=3 n=86 v=127
275280 On ch=3 n=96 v=127
275280 On ch=3 n=98 v=127
275280 On ch=3 n=62 v=127
275340 On ch=3 n=24 v=0
275340 On ch=3 n=31 v=0
275340 On ch=3 n=74 v=0
275340 On ch=3 n=84 v=0
275340 On ch=3 n=86 v=0
275340 On ch=3 n=96 v=0
275340 On ch=3 n=98 v=0
275340 On ch=3 n=62 v=0
275520 On ch=3 n=24 v=127
275520 On ch=3 n=31 v=127
275520 On ch=3 n=62 v=127
275520 On ch=3 n=72 v=127
275520 On ch=3 n=74 v=127
275520 On ch=3 n=84 v=127
275520 On ch=3 n=86 v=127
275520 On ch=3 n=96 v=127
275520 On ch=3 n=98 v=127
275580 On ch=3 n=24 v=0
275580 On ch=3 n=31 v=0
275580 On ch=3 n=62 v=0
275580 On ch=3 n=72 v=0
275580 On ch=3 n=74 v=0
275580 On ch=3 n=84 v=0
275580 On ch=3 n=86 v=0
275580 On ch=3 n=96 v=0
275580 On ch=3 n=98 v=0
275760 On ch=3 n=31 v=127
275760 On ch=3 n=74 v=127
275760 On ch=3 n=86 v=127
275760 On ch=3 n=98 v=127
275760 On ch=3 n=62 v=127
275820 On ch=3 n=31 v=0
275820 On ch=3 n=74 v=0
275820 On ch=3 n=86 v=0
275820 On ch=3 n=98 v=0
275820 On ch=3 n=62 v=0
276000 On ch=3 n=24 v=127
276000 On ch=3 n=26 v=127
276000 On ch=3 n=31 v=127
276000 On ch=3 n=61 v=127
276000 On ch=3 n=62 v=127
276000 On ch=3 n=73 v=127
276000 On ch=3 n=74 v=127
276000 On ch=3 n=85 v=127
276000 On ch=3 n=86 v=127
276000 On ch=3 n=96 v=127
276000 On ch=3 n=97 v=127
276000 On ch=3 n=98 v=127
276060 On ch=3 n=24 v=0
276060 On ch=3 n=26 v=0
276060 On ch=3 n=31 v=0
276060 On ch=3 n=61 v=0
276060 On ch=3 n=62 v=0
276060 On ch=3 n=73 v=0
276060 On ch=3 n=74 v=0
276060 On ch=3 n=85 v=0
276060 On ch=3 n=86 v=0
276060 On ch=3 n=96 v=0
276060 On ch=3 n=97 v=0
276060 On ch=3 n=98 v=0
276240 On ch=3 n=31 v=127
276240 On ch=3 n=74 v=127
276240 On ch=3 n=86 v=127
276240 On ch=3 n=98 v=127
276240 On ch=3 n=62 v=127
276300 On ch=3 n=31 v=0
276300 On ch=3 n=74 v=0
276300 On ch=3 n=86 v=0
276300 On ch=3 n=98 v=0
276300 On ch=3 n=62 v=0
276480 On ch=3 n=24 v=127
276480 On ch=3 n=31 v=127
276480 On ch=3 n=62 v=127
276480 On ch=3 n=72 v=127
276480 On ch=3 n=74 v=127
276480 On ch=3 n=84 v=127
276480 On ch=3 n=86 v=127
276480 On ch=3 n=96 v=127
276480 On ch=3 n=98 v=127
276540 On ch=3 n=24 v=0
276540 On ch=3 n=31 v=0
276540 On ch=3 n=62 v=0
276540 On ch=3 n=72 v=0
276540 On ch=3 n=74 v=0
276540 On ch=3 n=84 v=0
276540 On ch=3 n=86 v=0
276540 On ch=3 n=96 v=0
276540 On ch=3 n=98 v=0
276720 On ch=3 n=24 v=127
276720 On ch=3 n=31 v=127
276720 On ch=3 n=72 v=127
276720 On ch=3 n=74 v=127
276720 On ch=3 n=84 v=127
276720 On ch=3 n=86 v=127
276720 On ch=3 n=96 v=127
276720 On ch=3 n=98 v=127
276720 On ch=3 n=62 v=127
276780 On ch=3 n=24 v=0
276780 On ch=3 n=31 v=0
276780 On ch=3 n=72 v=0
276780 On ch=3 n=74 v=0
276780 On ch=3 n=84 v=0
276780 On ch=3 n=86 v=0
276780 On ch=3 n=96 v=0
276780 On ch=3 n=98 v=0
276780 On ch=3 n=62 v=0
276960 On ch=3 n=26 v=127
276960 On ch=3 n=31 v=127
276960 On ch=3 n=61 v=127
276960 On ch=3 n=62 v=127
276960 On ch=3 n=73 v=127
276960 On ch=3 n=74 v=127
276960 On ch=3 n=85 v=127
276960 On ch=3 n=86 v=127
276960 On ch=3 n=97 v=127
276960 On ch=3 n=98 v=127
277020 On ch=3 n=26 v=0
277020 On ch=3 n=31 v=0
277020 On ch=3 n=61 v=0
277020 On ch=3 n=62 v=0
277020 On ch=3 n=73 v=0
277020 On ch=3 n=74 v=0
277020 On ch=3 n=85 v=0
277020 On ch=3 n=86 v=0
277020 On ch=3 n=97 v=0
277020 On ch=3 n=98 v=0
277200 On ch=3 n=24 v=127
277200 On ch=3 n=31 v=127
277200 On ch=3 n=74 v=127
277200 On ch=3 n=84 v=127
277200 On ch=3 n=86 v=127
277200 On ch=3 n=96 v=127
277200 On ch=3 n=98 v=127
277200 On ch=3 n=62 v=127
277260 On ch=3 n=24 v=0
277260 On ch=3 n=31 v=0
277260 On ch=3 n=74 v=0
277260 On ch=3 n=84 v=0
277260 On ch=3 n=86 v=0
277260 On ch=3 n=96 v=0
277260 On ch=3 n=98 v=0
277260 On ch=3 n=62 v=0
277440 On ch=3 n=106 v=0
277440 On ch=3 n=24 v=127
277440 On ch=3 n=31 v=127
277440 On ch=3 n=62 v=127
277440 On ch=3 n=72 v=127
277440 On ch=3 n=74 v=127
277440 On ch=3 n=84 v=127
277440 On ch=3 n=86 v=127
277440 On ch=3 n=96 v=127
277440 On ch=3 n=98 v=127
277440 On ch=3 n=105 v=100
277440 On ch=3 n=60 v=100
277500 On ch=3 n=24 v=0
277500 On ch=3 n=31 v=0
277500 On ch=3 n=62 v=0
277500 On ch=3 n=72 v=0
277500 On ch=3 n=74 v=0
277500 On ch=3 n=84 v=0
277500 On ch=3 n=86 v=0
277500 On ch=3 n=96 v=0
277500 On ch=3 n=98 v=0
277500 On ch=3 n=60 v=0
277680 On ch=3 n=31 v=127
277680 On ch=3 n=74 v=127
277680 On ch=3 n=86 v=127
277680 On ch=3 n=98 v=127
277680 On ch=3 n=62 v=127
277740 On ch=3 n=31 v=0
277740 On ch=3 n=74 v=0
277740 On ch=3 n=86 v=0
277740 On ch=3 n=98 v=0
277740 On ch=3 n=62 v=0
277920 On ch=3 n=24 v=127
277920 On ch=3 n=26 v=127
277920 On ch=3 n=31 v=127
277920 On ch=3 n=61 v=127
277920 On ch=3 n=62 v=127
277920 On ch=3 n=73 v=127
277920 On ch=3 n=74 v=127
277920 On ch=3 n=85 v=127
277920 On ch=3 n=86 v=127
277920 On ch=3 n=96 v=127
277920 On ch=3 n=97 v=127
277920 On ch=3 n=98 v=127
277980 On ch=3 n=24 v=0
277980 On ch=3 n=26 v=0
277980 On ch=3 n=31 v=0
277980 On ch=3 n=61 v=0
277980 On ch=3 n=62 v=0
277980 On ch=3 n=73 v=0
277980 On ch=3 n=74 v=0
277980 On ch=3 n=85 v=0
277980 On ch=3 n=86 v=0
277980 On ch=3 n=96 v=0
277980 On ch=3 n=97 v=0
277980 On ch=3 n=98 v=0
278160 On ch=3 n=31 v=127
278160 On ch=3 n=74 v=127
278160 On ch=3 n=86 v=127
278160 On ch=3 n=98 v=127
278160 On ch=3 n=62 v=127
278220 On ch=3 n=31 v=0
278220 On ch=3 n=74 v=0
278220 On ch=3 n=86 v=0
278220 On ch=3 n=98 v=0
278220 On ch=3 n=62 v=0
278400 On ch=3 n=24 v=127
278400 On ch=3 n=31 v=127
278400 On ch=3 n=62 v=127
278400 On ch=3 n=72 v=127
278400 On ch=3 n=74 v=127
278400 On ch=3 n=84 v=127
278400 On ch=3 n=86 v=127
278400 On ch=3 n=96 v=127
278400 On ch=3 n=98 v=127
278460 On ch=3 n=24 v=0
278460 On ch=3 n=31 v=0
278460 On ch=3 n=62 v=0
278460 On ch=3 n=72 v=0
278460 On ch=3 n=74 v=0
278460 On ch=3 n=84 v=0
278460 On ch=3 n=86 v=0
278460 On ch=3 n=96 v=0
278460 On ch=3 n=98 v=0
278640 On ch=3 n=24 v=127
278640 On ch=3 n=31 v=127
278640 On ch=3 n=72 v=127
278640 On ch=3 n=74 v=127
278640 On ch=3 n=84 v=127
278640 On ch=3 n=86 v=127
278640 On ch=3 n=96 v=127
278640 On ch=3 n=98 v=127
278640 On ch=3 n=62 v=127
278700 On ch=3 n=24 v=0
278700 On ch=3 n=31 v=0
278700 On ch=3 n=72 v=0
278700 On ch=3 n=74 v=0
278700 On ch=3 n=84 v=0
278700 On ch=3 n=86 v=0
278700 On ch=3 n=96 v=0
278700 On ch=3 n=98 v=0
278700 On ch=3 n=62 v=0
278880 On ch=3 n=26 v=127
278880 On ch=3 n=31 v=127
278880 On ch=3 n=61 v=127
278880 On ch=3 n=62 v=127
278880 On ch=3 n=73 v=127
278880 On ch=3 n=74 v=127
278880 On ch=3 n=85 v=127
278880 On ch=3 n=86 v=127
278880 On ch=3 n=97 v=127
278880 On ch=3 n=98 v=127
278940 On ch=3 n=26 v=0
278940 On ch=3 n=31 v=0
278940 On ch=3 n=61 v=0
278940 On ch=3 n=62 v=0
278940 On ch=3 n=73 v=0
278940 On ch=3 n=74 v=0
278940 On ch=3 n=85 v=0
278940 On ch=3 n=86 v=0
278940 On ch=3 n=97 v=0
278940 On ch=3 n=98 v=0
279120 On ch=3 n=24 v=127
279120 On ch=3 n=31 v=127
279120 On ch=3 n=74 v=127
279120 On ch=3 n=84 v=127
279120 On ch=3 n=86 v=127
279120 On ch=3 n=96 v=127
279120 On ch=3 n=98 v=127
279120 On ch=3 n=62 v=127
279180 On ch=3 n=24 v=0
279180 On ch=3 n=31 v=0
279180 On ch=3 n=74 v=0
279180 On ch=3 n=84 v=0
279180 On ch=3 n=86 v=0
279180 On ch=3 n=96 v=0
279180 On ch=3 n=98 v=0
279180 On ch=3 n=62 v=0
279360 On ch=3 n=24 v=127
279360 On ch=3 n=31 v=127
279360 On ch=3 n=62 v=127
279360 On ch=3 n=72 v=127
279360 On ch=3 n=74 v=127
279360 On ch=3 n=84 v=127
279360 On ch=3 n=86 v=127
279360 On ch=3 n=96 v=127
279360 On ch=3 n=98 v=127
279420 On ch=3 n=24 v=0
279420 On ch=3 n=31 v=0
279420 On ch=3 n=62 v=0
279420 On ch=3 n=72 v=0
279420 On ch=3 n=74 v=0
279420 On ch=3 n=84 v=0
279420 On ch=3 n=86 v=0
279420 On ch=3 n=96 v=0
279420 On ch=3 n=98 v=0
279600 On ch=3 n=31 v=127
279600 On ch=3 n=74 v=127
279600 On ch=3 n=86 v=127
279600 On ch=3 n=98 v=127
279600 On ch=3 n=62 v=127
279660 On ch=3 n=31 v=0
279660 On ch=3 n=74 v=0
279660 On ch=3 n=86 v=0
279660 On ch=3 n=98 v=0
279660 On ch=3 n=62 v=0
279840 On ch=3 n=24 v=127
279840 On ch=3 n=26 v=127
279840 On ch=3 n=31 v=127
279840 On ch=3 n=61 v=127
279840 On ch=3 n=73 v=127
279840 On ch=3 n=85 v=127
279840 On ch=3 n=86 v=127
279840 On ch=3 n=96 v=127
279840 On ch=3 n=97 v=127
279840 On ch=3 n=98 v=127
279900 On ch=3 n=24 v=0
279900 On ch=3 n=26 v=0
279900 On ch=3 n=31 v=0
279900 On ch=3 n=61 v=0
279900 On ch=3 n=73 v=0
279900 On ch=3 n=85 v=0
279900 On ch=3 n=86 v=0
279900 On ch=3 n=96 v=0
279900 On ch=3 n=97 v=0
279900 On ch=3 n=98 v=0
280080 On ch=3 n=27 v=127
280080 On ch=3 n=73 v=127
280080 On ch=3 n=85 v=127
280080 On ch=3 n=97 v=127
280080 On ch=3 n=120 v=127
280080 On ch=3 n=121 v=127
280080 On ch=3 n=122 v=127
280080 On ch=3 n=123 v=127
280080 On ch=3 n=124 v=127
280080 On ch=3 n=106 v=100
280080 On ch=3 n=61 v=127
280140 On ch=3 n=27 v=0
280140 On ch=3 n=73 v=0
280140 On ch=3 n=85 v=0
280140 On ch=3 n=97 v=0
280140 On ch=3 n=61 v=0
280200 On ch=3 n=26 v=127
280200 On ch=3 n=85 v=127
280200 On ch=3 n=97 v=127
280260 On ch=3 n=26 v=0
280260 On ch=3 n=85 v=0
280260 On ch=3 n=97 v=0
280320 On ch=3 n=24 v=127
280320 On ch=3 n=36 v=127
280320 On ch=3 n=60 v=127
280320 On ch=3 n=64 v=127
280320 On ch=3 n=72 v=127
280320 On ch=3 n=76 v=127
280320 On ch=3 n=84 v=127
280320 On ch=3 n=88 v=127
280320 On ch=3 n=96 v=127
280320 On ch=3 n=100 v=127
280380 On ch=3 n=24 v=0
280380 On ch=3 n=36 v=0
280380 On ch=3 n=60 v=0
280380 On ch=3 n=64 v=0
280380 On ch=3 n=72 v=0
280380 On ch=3 n=76 v=0
280380 On ch=3 n=84 v=0
280380 On ch=3 n=88 v=0
280380 On ch=3 n=96 v=0
280380 On ch=3 n=100 v=0
280560 On ch=3 n=27 v=127
280560 On ch=3 n=85 v=127
280560 On ch=3 n=97 v=127
280560 On ch=3 n=73 v=100
280620 On ch=3 n=27 v=0
280620 On ch=3 n=85 v=0
280620 On ch=3 n=97 v=0
280620 On ch=3 n=73 v=0
280680 On ch=3 n=26 v=127
280680 On ch=3 n=85 v=127
280680 On ch=3 n=97 v=127
280740 On ch=3 n=26 v=0
280740 On ch=3 n=85 v=0
280740 On ch=3 n=97 v=0
280800 On ch=3 n=24 v=127
280800 On ch=3 n=38 v=127
280800 On ch=3 n=60 v=127
280800 On ch=3 n=64 v=127
280800 On ch=3 n=72 v=127
280800 On ch=3 n=76 v=127
280800 On ch=3 n=84 v=127
280800 On ch=3 n=88 v=127
280800 On ch=3 n=96 v=127
280800 On ch=3 n=100 v=127
280860 On ch=3 n=24 v=0
280860 On ch=3 n=38 v=0
280860 On ch=3 n=60 v=0
280860 On ch=3 n=64 v=0
280860 On ch=3 n=72 v=0
280860 On ch=3 n=76 v=0
280860 On ch=3 n=84 v=0
280860 On ch=3 n=88 v=0
280860 On ch=3 n=96 v=0
280860 On ch=3 n=100 v=0
281040 On ch=3 n=27 v=127
281040 On ch=3 n=85 v=127
281040 On ch=3 n=97 v=127
281040 On ch=3 n=73 v=100
281100 On ch=3 n=27 v=0
281100 On ch=3 n=85 v=0
281100 On ch=3 n=97 v=0
281100 On ch=3 n=73 v=0
281160 On ch=3 n=26 v=127
281160 On ch=3 n=85 v=127
281160 On ch=3 n=97 v=127
281220 On ch=3 n=26 v=0
281220 On ch=3 n=85 v=0
281220 On ch=3 n=97 v=0
281276 On ch=3 n=120 v=0
281276 On ch=3 n=121 v=0
281276 On ch=3 n=122 v=0
281276 On ch=3 n=123 v=0
281276 On ch=3 n=124 v=0
281280 On ch=3 n=24 v=127
281280 On ch=3 n=42 v=127
281280 On ch=3 n=60 v=127
281280 On ch=3 n=64 v=127
281280 On ch=3 n=72 v=127
281280 On ch=3 n=76 v=127
281280 On ch=3 n=84 v=127
281280 On ch=3 n=88 v=127
281280 On ch=3 n=96 v=127
281280 On ch=3 n=100 v=127
281340 On ch=3 n=24 v=0
281340 On ch=3 n=42 v=0
281340 On ch=3 n=60 v=0
281340 On ch=3 n=64 v=0
281340 On ch=3 n=72 v=0
281340 On ch=3 n=76 v=0
281340 On ch=3 n=84 v=0
281340 On ch=3 n=88 v=0
281340 On ch=3 n=96 v=0
281340 On ch=3 n=100 v=0
281520 On ch=3 n=106 v=0
281760 On ch=3 n=24 v=127
281760 On ch=3 n=25 v=127
281760 On ch=3 n=26 v=127
281760 On ch=3 n=61 v=127
281760 On ch=3 n=73 v=127
281760 On ch=3 n=85 v=127
281760 On ch=3 n=96 v=127
281760 On ch=3 n=97 v=127
281820 On ch=3 n=24 v=0
281820 On ch=3 n=26 v=0
281820 On ch=3 n=61 v=0
281820 On ch=3 n=73 v=0
281820 On ch=3 n=85 v=0
281820 On ch=3 n=96 v=0
281820 On ch=3 n=97 v=0
281994 On ch=3 n=25 v=0
282240 On ch=3 n=24 v=127
282240 On ch=3 n=31 v=127
282240 On ch=3 n=62 v=127
282240 On ch=3 n=72 v=127
282240 On ch=3 n=74 v=127
282240 On ch=3 n=84 v=127
282240 On ch=3 n=86 v=127
282240 On ch=3 n=96 v=127
282240 On ch=3 n=98 v=127
282300 On ch=3 n=24 v=0
282300 On ch=3 n=31 v=0
282300 On ch=3 n=62 v=0
282300 On ch=3 n=72 v=0
282300 On ch=3 n=74 v=0
282300 On ch=3 n=84 v=0
282300 On ch=3 n=86 v=0
282300 On ch=3 n=96 v=0
282300 On ch=3 n=98 v=0
282480 On ch=3 n=24 v=127
282480 On ch=3 n=31 v=127
282480 On ch=3 n=72 v=127
282480 On ch=3 n=74 v=127
282480 On ch=3 n=84 v=127
282480 On ch=3 n=86 v=127
282480 On ch=3 n=96 v=127
282480 On ch=3 n=98 v=127
282480 On ch=3 n=62 v=127
282540 On ch=3 n=24 v=0
282540 On ch=3 n=31 v=0
282540 On ch=3 n=72 v=0
282540 On ch=3 n=74 v=0
282540 On ch=3 n=84 v=0
282540 On ch=3 n=86 v=0
282540 On ch=3 n=96 v=0
282540 On ch=3 n=98 v=0
282540 On ch=3 n=62 v=0
282720 On ch=3 n=26 v=127
282720 On ch=3 n=31 v=127
282720 On ch=3 n=61 v=127
282720 On ch=3 n=62 v=127
282720 On ch=3 n=73 v=127
282720 On ch=3 n=74 v=127
282720 On ch=3 n=85 v=127
282720 On ch=3 n=86 v=127
282720 On ch=3 n=97 v=127
282720 On ch=3 n=98 v=127
282780 On ch=3 n=26 v=0
282780 On ch=3 n=31 v=0
282780 On ch=3 n=61 v=0
282780 On ch=3 n=62 v=0
282780 On ch=3 n=73 v=0
282780 On ch=3 n=74 v=0
282780 On ch=3 n=85 v=0
282780 On ch=3 n=86 v=0
282780 On ch=3 n=97 v=0
282780 On ch=3 n=98 v=0
282960 On ch=3 n=24 v=127
282960 On ch=3 n=31 v=127
282960 On ch=3 n=74 v=127
282960 On ch=3 n=84 v=127
282960 On ch=3 n=86 v=127
282960 On ch=3 n=96 v=127
282960 On ch=3 n=98 v=127
282960 On ch=3 n=62 v=127
283020 On ch=3 n=24 v=0
283020 On ch=3 n=31 v=0
283020 On ch=3 n=74 v=0
283020 On ch=3 n=84 v=0
283020 On ch=3 n=86 v=0
283020 On ch=3 n=96 v=0
283020 On ch=3 n=98 v=0
283020 On ch=3 n=62 v=0
283200 On ch=3 n=24 v=127
283200 On ch=3 n=31 v=127
283200 On ch=3 n=62 v=127
283200 On ch=3 n=72 v=127
283200 On ch=3 n=74 v=127
283200 On ch=3 n=84 v=127
283200 On ch=3 n=86 v=127
283200 On ch=3 n=96 v=127
283200 On ch=3 n=98 v=127
283260 On ch=3 n=24 v=0
283260 On ch=3 n=31 v=0
283260 On ch=3 n=62 v=0
283260 On ch=3 n=72 v=0
283260 On ch=3 n=74 v=0
283260 On ch=3 n=84 v=0
283260 On ch=3 n=86 v=0
283260 On ch=3 n=96 v=0
283260 On ch=3 n=98 v=0
283440 On ch=3 n=31 v=127
283440 On ch=3 n=74 v=127
283440 On ch=3 n=86 v=127
283440 On ch=3 n=98 v=127
283440 On ch=3 n=62 v=127
283500 On ch=3 n=31 v=0
283500 On ch=3 n=74 v=0
283500 On ch=3 n=86 v=0
283500 On ch=3 n=98 v=0
283500 On ch=3 n=62 v=0
283680 On ch=3 n=24 v=127
283680 On ch=3 n=26 v=127
283680 On ch=3 n=31 v=127
283680 On ch=3 n=61 v=127
283680 On ch=3 n=62 v=127
283680 On ch=3 n=73 v=127
283680 On ch=3 n=74 v=127
283680 On ch=3 n=85 v=127
283680 On ch=3 n=86 v=127
283680 On ch=3 n=96 v=127
283680 On ch=3 n=97 v=127
283680 On ch=3 n=98 v=127
283740 On ch=3 n=24 v=0
283740 On ch=3 n=26 v=0
283740 On ch=3 n=31 v=0
283740 On ch=3 n=61 v=0
283740 On ch=3 n=62 v=0
283740 On ch=3 n=73 v=0
283740 On ch=3 n=74 v=0
283740 On ch=3 n=85 v=0
283740 On ch=3 n=86 v=0
283740 On ch=3 n=96 v=0
283740 On ch=3 n=97 v=0
283740 On ch=3 n=98 v=0
283920 On ch=3 n=31 v=127
283920 On ch=3 n=74 v=127
283920 On ch=3 n=86 v=127
283920 On ch=3 n=98 v=127
283920 On ch=3 n=62 v=127
283980 On ch=3 n=31 v=0
283980 On ch=3 n=74 v=0
283980 On ch=3 n=86 v=0
283980 On ch=3 n=98 v=0
283980 On ch=3 n=62 v=0
284160 On ch=3 n=24 v=127
284160 On ch=3 n=31 v=127
284160 On ch=3 n=62 v=127
284160 On ch=3 n=72 v=127
284160 On ch=3 n=74 v=127
284160 On ch=3 n=84 v=127
284160 On ch=3 n=86 v=127
284160 On ch=3 n=96 v=127
284160 On ch=3 n=98 v=127
284220 On ch=3 n=24 v=0
284220 On ch=3 n=31 v=0
284220 On ch=3 n=62 v=0
284220 On ch=3 n=72 v=0
284220 On ch=3 n=74 v=0
284220 On ch=3 n=84 v=0
284220 On ch=3 n=86 v=0
284220 On ch=3 n=96 v=0
284220 On ch=3 n=98 v=0
284400 On ch=3 n=24 v=127
284400 On ch=3 n=31 v=127
284400 On ch=3 n=72 v=127
284400 On ch=3 n=74 v=127
284400 On ch=3 n=84 v=127
284400 On ch=3 n=86 v=127
284400 On ch=3 n=96 v=127
284400 On ch=3 n=98 v=127
284400 On ch=3 n=62 v=127
284460 On ch=3 n=24 v=0
284460 On ch=3 n=31 v=0
284460 On ch=3 n=72 v=0
284460 On ch=3 n=74 v=0
284460 On ch=3 n=84 v=0
284460 On ch=3 n=86 v=0
284460 On ch=3 n=96 v=0
284460 On ch=3 n=98 v=0
284460 On ch=3 n=62 v=0
284640 On ch=3 n=26 v=127
284640 On ch=3 n=31 v=127
284640 On ch=3 n=61 v=127
284640 On ch=3 n=62 v=127
284640 On ch=3 n=73 v=127
284640 On ch=3 n=74 v=127
284640 On ch=3 n=85 v=127
284640 On ch=3 n=86 v=127
284640 On ch=3 n=97 v=127
284640 On ch=3 n=98 v=127
284700 On ch=3 n=26 v=0
284700 On ch=3 n=31 v=0
284700 On ch=3 n=61 v=0
284700 On ch=3 n=62 v=0
284700 On ch=3 n=73 v=0
284700 On ch=3 n=74 v=0
284700 On ch=3 n=85 v=0
284700 On ch=3 n=86 v=0
284700 On ch=3 n=97 v=0
284700 On ch=3 n=98 v=0
284880 On ch=3 n=24 v=127
284880 On ch=3 n=31 v=127
284880 On ch=3 n=74 v=127
284880 On ch=3 n=84 v=127
284880 On ch=3 n=86 v=127
284880 On ch=3 n=96 v=127
284880 On ch=3 n=98 v=127
284880 On ch=3 n=62 v=127
284940 On ch=3 n=24 v=0
284940 On ch=3 n=31 v=0
284940 On ch=3 n=74 v=0
284940 On ch=3 n=84 v=0
284940 On ch=3 n=86 v=0
284940 On ch=3 n=96 v=0
284940 On ch=3 n=98 v=0
284940 On ch=3 n=62 v=0
285120 On ch=3 n=105 v=0
285120 On ch=3 n=24 v=127
285120 On ch=3 n=31 v=127
285120 On ch=3 n=62 v=127
285120 On ch=3 n=72 v=127
285120 On ch=3 n=74 v=127
285120 On ch=3 n=84 v=127
285120 On ch=3 n=86 v=127
285120 On ch=3 n=96 v=127
285120 On ch=3 n=98 v=127
285120 On ch=3 n=106 v=100
285120 On ch=3 n=60 v=100
285180 On ch=3 n=24 v=0
285180 On ch=3 n=31 v=0
285180 On ch=3 n=62 v=0
285180 On ch=3 n=72 v=0
285180 On ch=3 n=74 v=0
285180 On ch=3 n=84 v=0
285180 On ch=3 n=86 v=0
285180 On ch=3 n=96 v=0
285180 On ch=3 n=98 v=0
285180 On ch=3 n=60 v=0
285360 On ch=3 n=31 v=127
285360 On ch=3 n=74 v=127
285360 On ch=3 n=86 v=127
285360 On ch=3 n=98 v=127
285360 On ch=3 n=62 v=127
285420 On ch=3 n=31 v=0
285420 On ch=3 n=74 v=0
285420 On ch=3 n=86 v=0
285420 On ch=3 n=98 v=0
285420 On ch=3 n=62 v=0
285600 On ch=3 n=24 v=127
285600 On ch=3 n=26 v=127
285600 On ch=3 n=31 v=127
285600 On ch=3 n=61 v=127
285600 On ch=3 n=62 v=127
285600 On ch=3 n=73 v=127
285600 On ch=3 n=74 v=127
285600 On ch=3 n=85 v=127
285600 On ch=3 n=86 v=127
285600 On ch=3 n=96 v=127
285600 On ch=3 n=97 v=127
285600 On ch=3 n=98 v=127
285660 On ch=3 n=24 v=0
285660 On ch=3 n=26 v=0
285660 On ch=3 n=31 v=0
285660 On ch=3 n=61 v=0
285660 On ch=3 n=62 v=0
285660 On ch=3 n=73 v=0
285660 On ch=3 n=74 v=0
285660 On ch=3 n=85 v=0
285660 On ch=3 n=86 v=0
285660 On ch=3 n=96 v=0
285660 On ch=3 n=97 v=0
285660 On ch=3 n=98 v=0
285840 On ch=3 n=31 v=127
285840 On ch=3 n=74 v=127
285840 On ch=3 n=86 v=127
285840 On ch=3 n=98 v=127
285840 On ch=3 n=62 v=127
285900 On ch=3 n=31 v=0
285900 On ch=3 n=74 v=0
285900 On ch=3 n=86 v=0
285900 On ch=3 n=98 v=0
285900 On ch=3 n=62 v=0
286080 On ch=3 n=24 v=127
286080 On ch=3 n=31 v=127
286080 On ch=3 n=62 v=127
286080 On ch=3 n=72 v=127
286080 On ch=3 n=74 v=127
286080 On ch=3 n=84 v=127
286080 On ch=3 n=86 v=127
286080 On ch=3 n=96 v=127
286080 On ch=3 n=98 v=127
286140 On ch=3 n=24 v=0
286140 On ch=3 n=31 v=0
286140 On ch=3 n=62 v=0
286140 On ch=3 n=72 v=0
286140 On ch=3 n=74 v=0
286140 On ch=3 n=84 v=0
286140 On ch=3 n=86 v=0
286140 On ch=3 n=96 v=0
286140 On ch=3 n=98 v=0
286320 On ch=3 n=24 v=127
286320 On ch=3 n=31 v=127
286320 On ch=3 n=72 v=127
286320 On ch=3 n=74 v=127
286320 On ch=3 n=84 v=127
286320 On ch=3 n=86 v=127
286320 On ch=3 n=96 v=127
286320 On ch=3 n=98 v=127
286320 On ch=3 n=62 v=127
286380 On ch=3 n=24 v=0
286380 On ch=3 n=31 v=0
286380 On ch=3 n=72 v=0
286380 On ch=3 n=74 v=0
286380 On ch=3 n=84 v=0
286380 On ch=3 n=86 v=0
286380 On ch=3 n=96 v=0
286380 On ch=3 n=98 v=0
286380 On ch=3 n=62 v=0
286560 On ch=3 n=26 v=127
286560 On ch=3 n=31 v=127
286560 On ch=3 n=61 v=127
286560 On ch=3 n=62 v=127
286560 On ch=3 n=73 v=127
286560 On ch=3 n=74 v=127
286560 On ch=3 n=85 v=127
286560 On ch=3 n=86 v=127
286560 On ch=3 n=97 v=127
286560 On ch=3 n=98 v=127
286620 On ch=3 n=26 v=0
286620 On ch=3 n=31 v=0
286620 On ch=3 n=61 v=0
286620 On ch=3 n=62 v=0
286620 On ch=3 n=73 v=0
286620 On ch=3 n=74 v=0
286620 On ch=3 n=85 v=0
286620 On ch=3 n=86 v=0
286620 On ch=3 n=97 v=0
286620 On ch=3 n=98 v=0
286800 On ch=3 n=24 v=127
286800 On ch=3 n=31 v=127
286800 On ch=3 n=74 v=127
286800 On ch=3 n=84 v=127
286800 On ch=3 n=86 v=127
286800 On ch=3 n=96 v=127
286800 On ch=3 n=98 v=127
286800 On ch=3 n=62 v=127
286860 On ch=3 n=24 v=0
286860 On ch=3 n=31 v=0
286860 On ch=3 n=74 v=0
286860 On ch=3 n=84 v=0
286860 On ch=3 n=86 v=0
286860 On ch=3 n=96 v=0
286860 On ch=3 n=98 v=0
286860 On ch=3 n=62 v=0
287040 On ch=3 n=24 v=127
287040 On ch=3 n=31 v=127
287040 On ch=3 n=62 v=127
287040 On ch=3 n=72 v=127
287040 On ch=3 n=74 v=127
287040 On ch=3 n=84 v=127
287040 On ch=3 n=86 v=127
287040 On ch=3 n=96 v=127
287040 On ch=3 n=98 v=127
287100 On ch=3 n=24 v=0
287100 On ch=3 n=31 v=0
287100 On ch=3 n=62 v=0
287100 On ch=3 n=72 v=0
287100 On ch=3 n=74 v=0
287100 On ch=3 n=84 v=0
287100 On ch=3 n=86 v=0
287100 On ch=3 n=96 v=0
287100 On ch=3 n=98 v=0
287280 On ch=3 n=31 v=127
287280 On ch=3 n=74 v=127
287280 On ch=3 n=86 v=127
287280 On ch=3 n=98 v=127
287280 On ch=3 n=62 v=127
287340 On ch=3 n=31 v=0
287340 On ch=3 n=74 v=0
287340 On ch=3 n=86 v=0
287340 On ch=3 n=98 v=0
287340 On ch=3 n=62 v=0
287520 On ch=3 n=24 v=127
287520 On ch=3 n=26 v=127
287520 On ch=3 n=31 v=127
287520 On ch=3 n=61 v=127
287520 On ch=3 n=62 v=127
287520 On ch=3 n=73 v=127
287520 On ch=3 n=74 v=127
287520 On ch=3 n=85 v=127
287520 On ch=3 n=86 v=127
287520 On ch=3 n=96 v=127
287520 On ch=3 n=97 v=127
287520 On ch=3 n=98 v=127
287580 On ch=3 n=24 v=0
287580 On ch=3 n=26 v=0
287580 On ch=3 n=31 v=0
287580 On ch=3 n=61 v=0
287580 On ch=3 n=62 v=0
287580 On ch=3 n=73 v=0
287580 On ch=3 n=74 v=0
287580 On ch=3 n=85 v=0
287580 On ch=3 n=86 v=0
287580 On ch=3 n=96 v=0
287580 On ch=3 n=97 v=0
287580 On ch=3 n=98 v=0
287760 On ch=3 n=27 v=127
287760 On ch=3 n=73 v=127
287760 On ch=3 n=85 v=127
287760 On ch=3 n=97 v=127
287760 On ch=3 n=120 v=127
287760 On ch=3 n=121 v=127
287760 On ch=3 n=122 v=127
287760 On ch=3 n=123 v=127
287760 On ch=3 n=124 v=127
287760 On ch=3 n=105 v=100
287820 On ch=3 n=27 v=0
287820 On ch=3 n=73 v=0
287820 On ch=3 n=85 v=0
287820 On ch=3 n=97 v=0
287880 On ch=3 n=26 v=127
287880 On ch=3 n=85 v=127
287880 On ch=3 n=97 v=127
287940 On ch=3 n=26 v=0
287940 On ch=3 n=85 v=0
287940 On ch=3 n=97 v=0
288000 On ch=3 n=24 v=127
288000 On ch=3 n=36 v=127
288000 On ch=3 n=60 v=127
288000 On ch=3 n=64 v=127
288000 On ch=3 n=72 v=127
288000 On ch=3 n=76 v=127
288000 On ch=3 n=84 v=127
288000 On ch=3 n=88 v=127
288000 On ch=3 n=96 v=127
288000 On ch=3 n=100 v=127
288060 On ch=3 n=24 v=0
288060 On ch=3 n=36 v=0
288060 On ch=3 n=60 v=0
288060 On ch=3 n=64 v=0
288060 On ch=3 n=72 v=0
288060 On ch=3 n=76 v=0
288060 On ch=3 n=84 v=0
288060 On ch=3 n=88 v=0
288060 On ch=3 n=96 v=0
288060 On ch=3 n=100 v=0
288120 On ch=3 n=110 v=127
288120 On ch=3 n=111 v=127
288120 On ch=3 n=112 v=127
288240 On ch=3 n=47 v=127
288240 On ch=3 n=98 v=127
288240 On ch=3 n=86 v=100
288300 On ch=3 n=47 v=0
288300 On ch=3 n=98 v=0
288300 On ch=3 n=86 v=0
288480 On ch=3 n=24 v=127
288480 On ch=3 n=49 v=127
288480 On ch=3 n=96 v=127
288480 On ch=3 n=99 v=127
288480 On ch=3 n=87 v=100
288480 On ch=3 n=75 v=100
288480 On ch=3 n=63 v=100
288540 On ch=3 n=24 v=0
288540 On ch=3 n=49 v=0
288540 On ch=3 n=96 v=0
288540 On ch=3 n=99 v=0
288540 On ch=3 n=87 v=0
288540 On ch=3 n=75 v=0
288540 On ch=3 n=63 v=0
288720 On ch=3 n=48 v=127
288720 On ch=3 n=51 v=127
288720 On ch=3 n=100 v=127
288720 On ch=3 n=88 v=100
288720 On ch=3 n=75 v=100
288780 On ch=3 n=48 v=0
288780 On ch=3 n=51 v=0
288780 On ch=3 n=100 v=0
288780 On ch=3 n=88 v=0
288780 On ch=3 n=75 v=0
288838 On ch=3 n=110 v=0
288838 On ch=3 n=111 v=0
288838 On ch=3 n=112 v=0
288956 On ch=3 n=120 v=0
288956 On ch=3 n=121 v=0
288956 On ch=3 n=122 v=0
288956 On ch=3 n=123 v=0
288956 On ch=3 n=124 v=0
288960 On ch=3 n=24 v=127
288960 On ch=3 n=34 v=127
288960 On ch=3 n=38 v=127
288960 On ch=3 n=60 v=127
288960 On ch=3 n=64 v=127
288960 On ch=3 n=72 v=127
288960 On ch=3 n=76 v=127
288960 On ch=3 n=84 v=127
288960 On ch=3 n=88 v=127
288960 On ch=3 n=96 v=127
288960 On ch=3 n=100 v=127
289020 On ch=3 n=24 v=0
289020 On ch=3 n=34 v=0
289020 On ch=3 n=38 v=0
289020 On ch=3 n=60 v=0
289020 On ch=3 n=64 v=0
289020 On ch=3 n=72 v=0
289020 On ch=3 n=76 v=0
289020 On ch=3 n=84 v=0
289020 On ch=3 n=88 v=0
289020 On ch=3 n=96 v=0
289020 On ch=3 n=100 v=0
289200 On ch=3 n=105 v=0
289440 On ch=3 n=24 v=127
289440 On ch=3 n=25 v=127
289440 On ch=3 n=26 v=127
289440 On ch=3 n=61 v=127
289440 On ch=3 n=73 v=127
289440 On ch=3 n=85 v=127
289440 On ch=3 n=96 v=127
289440 On ch=3 n=97 v=127
289500 On ch=3 n=24 v=0
289500 On ch=3 n=26 v=0
289500 On ch=3 n=61 v=0
289500 On ch=3 n=73 v=0
289500 On ch=3 n=85 v=0
289500 On ch=3 n=96 v=0
289500 On ch=3 n=97 v=0
289674 On ch=3 n=25 v=0
289920 On ch=3 n=24 v=127
289920 On ch=3 n=31 v=127
289920 On ch=3 n=62 v=127
289920 On ch=3 n=72 v=127
289920 On ch=3 n=74 v=127
289920 On ch=3 n=84 v=127
289920 On ch=3 n=86 v=127
289920 On ch=3 n=96 v=127
289920 On ch=3 n=98 v=127
289980 On ch=3 n=24 v=0
289980 On ch=3 n=31 v=0
289980 On ch=3 n=62 v=0
289980 On ch=3 n=72 v=0
289980 On ch=3 n=74 v=0
289980 On ch=3 n=84 v=0
289980 On ch=3 n=86 v=0
289980 On ch=3 n=96 v=0
289980 On ch=3 n=98 v=0
290160 On ch=3 n=24 v=127
290160 On ch=3 n=31 v=127
290160 On ch=3 n=72 v=127
290160 On ch=3 n=74 v=127
290160 On ch=3 n=84 v=127
290160 On ch=3 n=86 v=127
290160 On ch=3 n=96 v=127
290160 On ch=3 n=98 v=127
290160 On ch=3 n=62 v=127
290220 On ch=3 n=24 v=0
290220 On ch=3 n=31 v=0
290220 On ch=3 n=72 v=0
290220 On ch=3 n=74 v=0
290220 On ch=3 n=84 v=0
290220 On ch=3 n=86 v=0
290220 On ch=3 n=96 v=0
290220 On ch=3 n=98 v=0
290220 On ch=3 n=62 v=0
290400 On ch=3 n=26 v=127
290400 On ch=3 n=31 v=127
290400 On ch=3 n=61 v=127
290400 On ch=3 n=62 v=127
290400 On ch=3 n=73 v=127
290400 On ch=3 n=74 v=127
290400 On ch=3 n=85 v=127
290400 On ch=3 n=86 v=127
290400 On ch=3 n=97 v=127
290400 On ch=3 n=98 v=127
290460 On ch=3 n=26 v=0
290460 On ch=3 n=31 v=0
290460 On ch=3 n=61 v=0
290460 On ch=3 n=62 v=0
290460 On ch=3 n=73 v=0
290460 On ch=3 n=74 v=0
290460 On ch=3 n=85 v=0
290460 On ch=3 n=86 v=0
290460 On ch=3 n=97 v=0
290460 On ch=3 n=98 v=0
290640 On ch=3 n=24 v=127
290640 On ch=3 n=31 v=127
290640 On ch=3 n=74 v=127
290640 On ch=3 n=84 v=127
290640 On ch=3 n=86 v=127
290640 On ch=3 n=96 v=127
290640 On ch=3 n=98 v=127
290640 On ch=3 n=62 v=127
290700 On ch=3 n=24 v=0
290700 On ch=3 n=31 v=0
290700 On ch=3 n=74 v=0
290700 On ch=3 n=84 v=0
290700 On ch=3 n=86 v=0
290700 On ch=3 n=96 v=0
290700 On ch=3 n=98 v=0
290700 On ch=3 n=62 v=0
290880 On ch=3 n=24 v=127
290880 On ch=3 n=31 v=127
290880 On ch=3 n=62 v=127
290880 On ch=3 n=72 v=127
290880 On ch=3 n=74 v=127
290880 On ch=3 n=84 v=127
290880 On ch=3 n=86 v=127
290880 On ch=3 n=96 v=127
290880 On ch=3 n=98 v=127
290940 On ch=3 n=24 v=0
290940 On ch=3 n=31 v=0
290940 On ch=3 n=62 v=0
290940 On ch=3 n=72 v=0
290940 On ch=3 n=74 v=0
290940 On ch=3 n=84 v=0
290940 On ch=3 n=86 v=0
290940 On ch=3 n=96 v=0
290940 On ch=3 n=98 v=0
291120 On ch=3 n=31 v=127
291120 On ch=3 n=74 v=127
291120 On ch=3 n=86 v=127
291120 On ch=3 n=98 v=127
291120 On ch=3 n=62 v=127
291180 On ch=3 n=31 v=0
291180 On ch=3 n=74 v=0
291180 On ch=3 n=86 v=0
291180 On ch=3 n=98 v=0
291180 On ch=3 n=62 v=0
291360 On ch=3 n=24 v=127
291360 On ch=3 n=26 v=127
291360 On ch=3 n=31 v=127
291360 On ch=3 n=61 v=127
291360 On ch=3 n=62 v=127
291360 On ch=3 n=73 v=127
291360 On ch=3 n=74 v=127
291360 On ch=3 n=85 v=127
291360 On ch=3 n=86 v=127
291360 On ch=3 n=96 v=127
291360 On ch=3 n=97 v=127
291360 On ch=3 n=98 v=127
291420 On ch=3 n=24 v=0
291420 On ch=3 n=26 v=0
291420 On ch=3 n=31 v=0
291420 On ch=3 n=61 v=0
291420 On ch=3 n=62 v=0
291420 On ch=3 n=73 v=0
291420 On ch=3 n=74 v=0
291420 On ch=3 n=85 v=0
291420 On ch=3 n=86 v=0
291420 On ch=3 n=96 v=0
291420 On ch=3 n=97 v=0
291420 On ch=3 n=98 v=0
291600 On ch=3 n=31 v=127
291600 On ch=3 n=74 v=127
291600 On ch=3 n=86 v=127
291600 On ch=3 n=98 v=127
291600 On ch=3 n=62 v=127
291660 On ch=3 n=31 v=0
291660 On ch=3 n=74 v=0
291660 On ch=3 n=86 v=0
291660 On ch=3 n=98 v=0
291660 On ch=3 n=62 v=0
291840 On ch=3 n=24 v=127
291840 On ch=3 n=31 v=127
291840 On ch=3 n=62 v=127
291840 On ch=3 n=72 v=127
291840 On ch=3 n=74 v=127
291840 On ch=3 n=84 v=127
291840 On ch=3 n=86 v=127
291840 On ch=3 n=96 v=127
291840 On ch=3 n=98 v=127
291900 On ch=3 n=24 v=0
291900 On ch=3 n=31 v=0
291900 On ch=3 n=62 v=0
291900 On ch=3 n=72 v=0
291900 On ch=3 n=74 v=0
291900 On ch=3 n=84 v=0
291900 On ch=3 n=86 v=0
291900 On ch=3 n=96 v=0
291900 On ch=3 n=98 v=0
292080 On ch=3 n=24 v=127
292080 On ch=3 n=31 v=127
292080 On ch=3 n=72 v=127
292080 On ch=3 n=74 v=127
292080 On ch=3 n=84 v=127
292080 On ch=3 n=86 v=127
292080 On ch=3 n=96 v=127
292080 On ch=3 n=98 v=127
292080 On ch=3 n=62 v=127
292140 On ch=3 n=24 v=0
292140 On ch=3 n=31 v=0
292140 On ch=3 n=72 v=0
292140 On ch=3 n=74 v=0
292140 On ch=3 n=84 v=0
292140 On ch=3 n=86 v=0
292140 On ch=3 n=96 v=0
292140 On ch=3 n=98 v=0
292140 On ch=3 n=62 v=0
292320 On ch=3 n=24 v=127
292320 On ch=3 n=27 v=127
292320 On ch=3 n=61 v=127
292320 On ch=3 n=62 v=127
292320 On ch=3 n=73 v=127
292320 On ch=3 n=85 v=127
292320 On ch=3 n=96 v=127
292320 On ch=3 n=97 v=127
292380 On ch=3 n=24 v=0
292380 On ch=3 n=27 v=0
292380 On ch=3 n=61 v=0
292380 On ch=3 n=62 v=0
292380 On ch=3 n=73 v=0
292380 On ch=3 n=85 v=0
292380 On ch=3 n=96 v=0
292380 On ch=3 n=97 v=0
292440 On ch=3 n=26 v=127
292440 On ch=3 n=85 v=127
292440 On ch=3 n=97 v=127
292500 On ch=3 n=26 v=0
292500 On ch=3 n=85 v=0
292500 On ch=3 n=97 v=0
292560 On ch=3 n=24 v=127
292560 On ch=3 n=27 v=127
292560 On ch=3 n=73 v=127
292560 On ch=3 n=85 v=127
292560 On ch=3 n=96 v=127
292560 On ch=3 n=97 v=127
292560 On ch=3 n=62 v=127
292620 On ch=3 n=24 v=0
292620 On ch=3 n=27 v=0
292620 On ch=3 n=73 v=0
292620 On ch=3 n=85 v=0
292620 On ch=3 n=96 v=0
292620 On ch=3 n=97 v=0
292620 On ch=3 n=62 v=0
292680 On ch=3 n=26 v=127
292680 On ch=3 n=85 v=127
292680 On ch=3 n=97 v=127
292740 On ch=3 n=26 v=0
292740 On ch=3 n=85 v=0
292740 On ch=3 n=97 v=0
292800 On ch=3 n=24 v=127
292800 On ch=3 n=36 v=127
292800 On ch=3 n=64 v=127
292800 On ch=3 n=72 v=127
292800 On ch=3 n=76 v=127
292800 On ch=3 n=84 v=127
292800 On ch=3 n=88 v=127
292800 On ch=3 n=96 v=127
292800 On ch=3 n=100 v=127
292800 On ch=3 n=105 v=100
292800 On ch=3 n=60 v=100
292800 On ch=3 n=116 v=100
292860 On ch=3 n=24 v=0
292860 On ch=3 n=36 v=0
292860 On ch=3 n=64 v=0
292860 On ch=3 n=72 v=0
292860 On ch=3 n=76 v=0
292860 On ch=3 n=84 v=0
292860 On ch=3 n=88 v=0
292860 On ch=3 n=96 v=0
292860 On ch=3 n=100 v=0
292860 On ch=3 n=60 v=0
293040 On ch=3 n=24 v=127
293040 On ch=3 n=31 v=127
293040 On ch=3 n=72 v=127
293040 On ch=3 n=74 v=127
293040 On ch=3 n=84 v=127
293040 On ch=3 n=86 v=127
293040 On ch=3 n=96 v=127
293040 On ch=3 n=98 v=127
293100 On ch=3 n=24 v=0
293100 On ch=3 n=31 v=0
293100 On ch=3 n=72 v=0
293100 On ch=3 n=74 v=0
293100 On ch=3 n=84 v=0
293100 On ch=3 n=86 v=0
293100 On ch=3 n=96 v=0
293100 On ch=3 n=98 v=0
293280 On ch=3 n=26 v=127
293280 On ch=3 n=31 v=127
293280 On ch=3 n=61 v=127
293280 On ch=3 n=62 v=127
293280 On ch=3 n=73 v=127
293280 On ch=3 n=74 v=127
293280 On ch=3 n=85 v=127
293280 On ch=3 n=86 v=127
293280 On ch=3 n=97 v=127
293280 On ch=3 n=98 v=127
293340 On ch=3 n=26 v=0
293340 On ch=3 n=31 v=0
293340 On ch=3 n=61 v=0
293340 On ch=3 n=62 v=0
293340 On ch=3 n=73 v=0
293340 On ch=3 n=74 v=0
293340 On ch=3 n=85 v=0
293340 On ch=3 n=86 v=0
293340 On ch=3 n=97 v=0
293340 On ch=3 n=98 v=0
293520 On ch=3 n=31 v=127
293520 On ch=3 n=74 v=127
293520 On ch=3 n=86 v=127
293520 On ch=3 n=98 v=127
293520 On ch=3 n=62 v=127
293580 On ch=3 n=31 v=0
293580 On ch=3 n=74 v=0
293580 On ch=3 n=86 v=0
293580 On ch=3 n=98 v=0
293580 On ch=3 n=62 v=0
293760 On ch=3 n=24 v=127
293760 On ch=3 n=31 v=127
293760 On ch=3 n=62 v=127
293760 On ch=3 n=72 v=127
293760 On ch=3 n=74 v=127
293760 On ch=3 n=84 v=127
293760 On ch=3 n=86 v=127
293760 On ch=3 n=96 v=127
293760 On ch=3 n=98 v=127
293820 On ch=3 n=24 v=0
293820 On ch=3 n=31 v=0
293820 On ch=3 n=62 v=0
293820 On ch=3 n=72 v=0
293820 On ch=3 n=74 v=0
293820 On ch=3 n=84 v=0
293820 On ch=3 n=86 v=0
293820 On ch=3 n=96 v=0
293820 On ch=3 n=98 v=0
294000 On ch=3 n=24 v=127
294000 On ch=3 n=31 v=127
294000 On ch=3 n=72 v=127
294000 On ch=3 n=74 v=127
294000 On ch=3 n=84 v=127
294000 On ch=3 n=86 v=127
294000 On ch=3 n=96 v=127
294000 On ch=3 n=98 v=127
294000 On ch=3 n=62 v=127
294060 On ch=3 n=24 v=0
294060 On ch=3 n=31 v=0
294060 On ch=3 n=72 v=0
294060 On ch=3 n=74 v=0
294060 On ch=3 n=84 v=0
294060 On ch=3 n=86 v=0
294060 On ch=3 n=96 v=0
294060 On ch=3 n=98 v=0
294060 On ch=3 n=62 v=0
294240 On ch=3 n=26 v=127
294240 On ch=3 n=31 v=127
294240 On ch=3 n=61 v=127
294240 On ch=3 n=62 v=127
294240 On ch=3 n=73 v=127
294240 On ch=3 n=74 v=127
294240 On ch=3 n=85 v=127
294240 On ch=3 n=86 v=127
294240 On ch=3 n=97 v=127
294240 On ch=3 n=98 v=127
294300 On ch=3 n=26 v=0
294300 On ch=3 n=31 v=0
294300 On ch=3 n=61 v=0
294300 On ch=3 n=62 v=0
294300 On ch=3 n=73 v=0
294300 On ch=3 n=74 v=0
294300 On ch=3 n=85 v=0
294300 On ch=3 n=86 v=0
294300 On ch=3 n=97 v=0
294300 On ch=3 n=98 v=0
294480 On ch=3 n=31 v=127
294480 On ch=3 n=74 v=127
294480 On ch=3 n=86 v=127
294480 On ch=3 n=98 v=127
294480 On ch=3 n=62 v=127
294540 On ch=3 n=31 v=0
294540 On ch=3 n=74 v=0
294540 On ch=3 n=86 v=0
294540 On ch=3 n=98 v=0
294540 On ch=3 n=62 v=0
294720 On ch=3 n=116 v=0
294720 On ch=3 n=24 v=127
294720 On ch=3 n=31 v=127
294720 On ch=3 n=62 v=127
294720 On ch=3 n=72 v=127
294720 On ch=3 n=74 v=127
294720 On ch=3 n=84 v=127
294720 On ch=3 n=86 v=127
294720 On ch=3 n=96 v=127
294720 On ch=3 n=98 v=127
294720 On ch=3 n=120 v=127
294720 On ch=3 n=121 v=127
294720 On ch=3 n=122 v=127
294720 On ch=3 n=123 v=127
294720 On ch=3 n=124 v=127
294780 On ch=3 n=24 v=0
294780 On ch=3 n=31 v=0
294780 On ch=3 n=62 v=0
294780 On ch=3 n=72 v=0
294780 On ch=3 n=74 v=0
294780 On ch=3 n=84 v=0
294780 On ch=3 n=86 v=0
294780 On ch=3 n=96 v=0
294780 On ch=3 n=98 v=0
294960 On ch=3 n=24 v=127
294960 On ch=3 n=31 v=127
294960 On ch=3 n=72 v=127
294960 On ch=3 n=74 v=127
294960 On ch=3 n=84 v=127
294960 On ch=3 n=86 v=127
294960 On ch=3 n=96 v=127
294960 On ch=3 n=98 v=127
294960 On ch=3 n=62 v=127
295020 On ch=3 n=24 v=0
295020 On ch=3 n=31 v=0
295020 On ch=3 n=72 v=0
295020 On ch=3 n=74 v=0
295020 On ch=3 n=84 v=0
295020 On ch=3 n=86 v=0
295020 On ch=3 n=96 v=0
295020 On ch=3 n=98 v=0
295020 On ch=3 n=62 v=0
295200 On ch=3 n=26 v=127
295200 On ch=3 n=31 v=127
295200 On ch=3 n=61 v=127
295200 On ch=3 n=62 v=127
295200 On ch=3 n=73 v=127
295200 On ch=3 n=74 v=127
295200 On ch=3 n=85 v=127
295200 On ch=3 n=86 v=127
295200 On ch=3 n=97 v=127
295200 On ch=3 n=98 v=127
295260 On ch=3 n=26 v=0
295260 On ch=3 n=31 v=0
295260 On ch=3 n=61 v=0
295260 On ch=3 n=62 v=0
295260 On ch=3 n=73 v=0
295260 On ch=3 n=74 v=0
295260 On ch=3 n=85 v=0
295260 On ch=3 n=86 v=0
295260 On ch=3 n=97 v=0
295260 On ch=3 n=98 v=0
295440 On ch=3 n=24 v=127
295440 On ch=3 n=31 v=127
295440 On ch=3 n=84 v=127
295440 On ch=3 n=86 v=127
295440 On ch=3 n=96 v=127
295440 On ch=3 n=98 v=127
295440 On ch=3 n=62 v=127
295440 On ch=3 n=72 v=127
295500 On ch=3 n=24 v=0
295500 On ch=3 n=31 v=0
295500 On ch=3 n=84 v=0
295500 On ch=3 n=86 v=0
295500 On ch=3 n=96 v=0
295500 On ch=3 n=98 v=0
295500 On ch=3 n=62 v=0
295500 On ch=3 n=72 v=0
295680 On ch=3 n=26 v=127
295680 On ch=3 n=31 v=127
295680 On ch=3 n=61 v=127
295680 On ch=3 n=62 v=127
295680 On ch=3 n=73 v=127
295680 On ch=3 n=74 v=127
295680 On ch=3 n=85 v=127
295680 On ch=3 n=86 v=127
295680 On ch=3 n=97 v=127
295680 On ch=3 n=98 v=127
295740 On ch=3 n=26 v=0
295740 On ch=3 n=31 v=0
295740 On ch=3 n=61 v=0
295740 On ch=3 n=62 v=0
295740 On ch=3 n=73 v=0
295740 On ch=3 n=74 v=0
295740 On ch=3 n=85 v=0
295740 On ch=3 n=86 v=0
295740 On ch=3 n=97 v=0
295740 On ch=3 n=98 v=0
295920 On ch=3 n=24 v=127
295920 On ch=3 n=31 v=127
295920 On ch=3 n=84 v=127
295920 On ch=3 n=86 v=127
295920 On ch=3 n=96 v=127
295920 On ch=3 n=98 v=127
295920 On ch=3 n=62 v=127
295920 On ch=3 n=72 v=127
295980 On ch=3 n=24 v=0
295980 On ch=3 n=31 v=0
295980 On ch=3 n=84 v=0
295980 On ch=3 n=86 v=0
295980 On ch=3 n=96 v=0
295980 On ch=3 n=98 v=0
295980 On ch=3 n=62 v=0
295980 On ch=3 n=72 v=0
296160 On ch=3 n=26 v=127
296160 On ch=3 n=31 v=127
296160 On ch=3 n=61 v=127
296160 On ch=3 n=62 v=127
296160 On ch=3 n=73 v=127
296160 On ch=3 n=74 v=127
296160 On ch=3 n=85 v=127
296160 On ch=3 n=86 v=127
296160 On ch=3 n=97 v=127
296160 On ch=3 n=98 v=127
296220 On ch=3 n=26 v=0
296220 On ch=3 n=31 v=0
296220 On ch=3 n=61 v=0
296220 On ch=3 n=62 v=0
296220 On ch=3 n=73 v=0
296220 On ch=3 n=74 v=0
296220 On ch=3 n=85 v=0
296220 On ch=3 n=86 v=0
296220 On ch=3 n=97 v=0
296220 On ch=3 n=98 v=0
296400 On ch=3 n=24 v=127
296400 On ch=3 n=31 v=127
296400 On ch=3 n=84 v=127
296400 On ch=3 n=86 v=127
296400 On ch=3 n=96 v=127
296400 On ch=3 n=98 v=127
296400 On ch=3 n=62 v=127
296400 On ch=3 n=72 v=127
296460 On ch=3 n=24 v=0
296460 On ch=3 n=31 v=0
296460 On ch=3 n=84 v=0
296460 On ch=3 n=86 v=0
296460 On ch=3 n=96 v=0
296460 On ch=3 n=98 v=0
296460 On ch=3 n=62 v=0
296460 On ch=3 n=72 v=0
296520 On ch=3 n=24 v=127
296520 On ch=3 n=96 v=127
296580 On ch=3 n=24 v=0
296580 On ch=3 n=96 v=0
296636 On ch=3 n=120 v=0
296636 On ch=3 n=121 v=0
296636 On ch=3 n=122 v=0
296636 On ch=3 n=123 v=0
296636 On ch=3 n=124 v=0
296640 On ch=3 n=26 v=127
296640 On ch=3 n=31 v=127
296640 On ch=3 n=61 v=127
296640 On ch=3 n=62 v=127
296640 On ch=3 n=73 v=127
296640 On ch=3 n=74 v=127
296640 On ch=3 n=85 v=127
296640 On ch=3 n=86 v=127
296640 On ch=3 n=97 v=127
296640 On ch=3 n=98 v=127
296700 On ch=3 n=26 v=0
296700 On ch=3 n=31 v=0
296700 On ch=3 n=61 v=0
296700 On ch=3 n=62 v=0
296700 On ch=3 n=73 v=0
296700 On ch=3 n=74 v=0
296700 On ch=3 n=85 v=0
296700 On ch=3 n=86 v=0
296700 On ch=3 n=97 v=0
296700 On ch=3 n=98 v=0
296880 On ch=3 n=24 v=127
296880 On ch=3 n=31 v=127
296880 On ch=3 n=84 v=127
296880 On ch=3 n=86 v=127
296880 On ch=3 n=96 v=127
296880 On ch=3 n=98 v=127
296880 On ch=3 n=62 v=127
296880 On ch=3 n=72 v=127
296940 On ch=3 n=24 v=0
296940 On ch=3 n=31 v=0
296940 On ch=3 n=84 v=0
296940 On ch=3 n=86 v=0
296940 On ch=3 n=96 v=0
296940 On ch=3 n=98 v=0
296940 On ch=3 n=62 v=0
296940 On ch=3 n=72 v=0
297120 On ch=3 n=26 v=127
297120 On ch=3 n=31 v=127
297120 On ch=3 n=61 v=127
297120 On ch=3 n=62 v=127
297120 On ch=3 n=73 v=127
297120 On ch=3 n=74 v=127
297120 On ch=3 n=85 v=127
297120 On ch=3 n=86 v=127
297120 On ch=3 n=97 v=127
297120 On ch=3 n=98 v=127
297180 On ch=3 n=26 v=0
297180 On ch=3 n=31 v=0
297180 On ch=3 n=61 v=0
297180 On ch=3 n=62 v=0
297180 On ch=3 n=73 v=0
297180 On ch=3 n=74 v=0
297180 On ch=3 n=85 v=0
297180 On ch=3 n=86 v=0
297180 On ch=3 n=97 v=0
297180 On ch=3 n=98 v=0
297360 On ch=3 n=24 v=127
297360 On ch=3 n=31 v=127
297360 On ch=3 n=84 v=127
297360 On ch=3 n=86 v=127
297360 On ch=3 n=96 v=127
297360 On ch=3 n=98 v=127
297360 On ch=3 n=62 v=127
297360 On ch=3 n=72 v=127
297420 On ch=3 n=24 v=0
297420 On ch=3 n=31 v=0
297420 On ch=3 n=84 v=0
297420 On ch=3 n=86 v=0
297420 On ch=3 n=96 v=0
297420 On ch=3 n=98 v=0
297420 On ch=3 n=62 v=0
297420 On ch=3 n=72 v=0
297600 On ch=3 n=26 v=127
297600 On ch=3 n=31 v=127
297600 On ch=3 n=61 v=127
297600 On ch=3 n=62 v=127
297600 On ch=3 n=73 v=127
297600 On ch=3 n=74 v=127
297600 On ch=3 n=85 v=127
297600 On ch=3 n=86 v=127
297600 On ch=3 n=97 v=127
297600 On ch=3 n=98 v=127
297660 On ch=3 n=26 v=0
297660 On ch=3 n=31 v=0
297660 On ch=3 n=61 v=0
297660 On ch=3 n=62 v=0
297660 On ch=3 n=73 v=0
297660 On ch=3 n=74 v=0
297660 On ch=3 n=85 v=0
297660 On ch=3 n=86 v=0
297660 On ch=3 n=97 v=0
297660 On ch=3 n=98 v=0
297840 On ch=3 n=24 v=127
297840 On ch=3 n=31 v=127
297840 On ch=3 n=84 v=127
297840 On ch=3 n=86 v=127
297840 On ch=3 n=96 v=127
297840 On ch=3 n=98 v=127
297840 On ch=3 n=62 v=127
297840 On ch=3 n=72 v=127
297900 On ch=3 n=24 v=0
297900 On ch=3 n=31 v=0
297900 On ch=3 n=84 v=0
297900 On ch=3 n=86 v=0
297900 On ch=3 n=96 v=0
297900 On ch=3 n=98 v=0
297900 On ch=3 n=62 v=0
297900 On ch=3 n=72 v=0
298080 On ch=3 n=26 v=127
298080 On ch=3 n=31 v=127
298080 On ch=3 n=61 v=127
298080 On ch=3 n=62 v=127
298080 On ch=3 n=73 v=127
298080 On ch=3 n=74 v=127
298080 On ch=3 n=85 v=127
298080 On ch=3 n=86 v=127
298080 On ch=3 n=97 v=127
298080 On ch=3 n=98 v=127
298140 On ch=3 n=26 v=0
298140 On ch=3 n=31 v=0
298140 On ch=3 n=61 v=0
298140 On ch=3 n=62 v=0
298140 On ch=3 n=73 v=0
298140 On ch=3 n=74 v=0
298140 On ch=3 n=85 v=0
298140 On ch=3 n=86 v=0
298140 On ch=3 n=97 v=0
298140 On ch=3 n=98 v=0
298320 On ch=3 n=24 v=127
298320 On ch=3 n=31 v=127
298320 On ch=3 n=84 v=127
298320 On ch=3 n=86 v=127
298320 On ch=3 n=96 v=127
298320 On ch=3 n=98 v=127
298320 On ch=3 n=62 v=127
298320 On ch=3 n=72 v=127
298380 On ch=3 n=24 v=0
298380 On ch=3 n=31 v=0
298380 On ch=3 n=84 v=0
298380 On ch=3 n=86 v=0
298380 On ch=3 n=96 v=0
298380 On ch=3 n=98 v=0
298380 On ch=3 n=62 v=0
298380 On ch=3 n=72 v=0
298440 On ch=3 n=24 v=127
298440 On ch=3 n=96 v=127
298500 On ch=3 n=24 v=0
298500 On ch=3 n=96 v=0
298560 On ch=3 n=26 v=127
298560 On ch=3 n=31 v=127
298560 On ch=3 n=61 v=127
298560 On ch=3 n=62 v=127
298560 On ch=3 n=73 v=127
298560 On ch=3 n=74 v=127
298560 On ch=3 n=85 v=127
298560 On ch=3 n=86 v=127
298560 On ch=3 n=97 v=127
298560 On ch=3 n=98 v=127
298620 On ch=3 n=26 v=0
298620 On ch=3 n=31 v=0
298620 On ch=3 n=61 v=0
298620 On ch=3 n=62 v=0
298620 On ch=3 n=73 v=0
298620 On ch=3 n=74 v=0
298620 On ch=3 n=85 v=0
298620 On ch=3 n=86 v=0
298620 On ch=3 n=97 v=0
298620 On ch=3 n=98 v=0
298800 On ch=3 n=24 v=127
298800 On ch=3 n=31 v=127
298800 On ch=3 n=84 v=127
298800 On ch=3 n=86 v=127
298800 On ch=3 n=96 v=127
298800 On ch=3 n=98 v=127
298800 On ch=3 n=62 v=127
298800 On ch=3 n=72 v=127
298860 On ch=3 n=24 v=0
298860 On ch=3 n=31 v=0
298860 On ch=3 n=84 v=0
298860 On ch=3 n=86 v=0
298860 On ch=3 n=96 v=0
298860 On ch=3 n=98 v=0
298860 On ch=3 n=62 v=0
298860 On ch=3 n=72 v=0
299040 On ch=3 n=26 v=127
299040 On ch=3 n=31 v=127
299040 On ch=3 n=61 v=127
299040 On ch=3 n=62 v=127
299040 On ch=3 n=73 v=127
299040 On ch=3 n=74 v=127
299040 On ch=3 n=85 v=127
299040 On ch=3 n=86 v=127
299040 On ch=3 n=97 v=127
299040 On ch=3 n=98 v=127
299100 On ch=3 n=26 v=0
299100 On ch=3 n=31 v=0
299100 On ch=3 n=61 v=0
299100 On ch=3 n=62 v=0
299100 On ch=3 n=73 v=0
299100 On ch=3 n=74 v=0
299100 On ch=3 n=85 v=0
299100 On ch=3 n=86 v=0
299100 On ch=3 n=97 v=0
299100 On ch=3 n=98 v=0
299280 On ch=3 n=24 v=127
299280 On ch=3 n=31 v=127
299280 On ch=3 n=84 v=127
299280 On ch=3 n=86 v=127
299280 On ch=3 n=96 v=127
299280 On ch=3 n=98 v=127
299280 On ch=3 n=62 v=127
299280 On ch=3 n=72 v=127
299340 On ch=3 n=24 v=0
299340 On ch=3 n=31 v=0
299340 On ch=3 n=84 v=0
299340 On ch=3 n=86 v=0
299340 On ch=3 n=96 v=0
299340 On ch=3 n=98 v=0
299340 On ch=3 n=62 v=0
299340 On ch=3 n=72 v=0
299520 On ch=3 n=26 v=127
299520 On ch=3 n=31 v=127
299520 On ch=3 n=61 v=127
299520 On ch=3 n=62 v=127
299520 On ch=3 n=73 v=127
299520 On ch=3 n=74 v=127
299520 On ch=3 n=85 v=127
299520 On ch=3 n=86 v=127
299520 On ch=3 n=97 v=127
299520 On ch=3 n=98 v=127
299580 On ch=3 n=26 v=0
299580 On ch=3 n=31 v=0
299580 On ch=3 n=61 v=0
299580 On ch=3 n=62 v=0
299580 On ch=3 n=73 v=0
299580 On ch=3 n=74 v=0
299580 On ch=3 n=85 v=0
299580 On ch=3 n=86 v=0
299580 On ch=3 n=97 v=0
299580 On ch=3 n=98 v=0
299760 On ch=3 n=24 v=127
299760 On ch=3 n=31 v=127
299760 On ch=3 n=84 v=127
299760 On ch=3 n=86 v=127
299760 On ch=3 n=96 v=127
299760 On ch=3 n=98 v=127
299760 On ch=3 n=62 v=127
299760 On ch=3 n=72 v=127
299820 On ch=3 n=24 v=0
299820 On ch=3 n=31 v=0
299820 On ch=3 n=84 v=0
299820 On ch=3 n=86 v=0
299820 On ch=3 n=96 v=0
299820 On ch=3 n=98 v=0
299820 On ch=3 n=62 v=0
299820 On ch=3 n=72 v=0
300000 On ch=3 n=24 v=127
300000 On ch=3 n=27 v=127
300000 On ch=3 n=61 v=127
300000 On ch=3 n=62 v=127
300000 On ch=3 n=73 v=127
300000 On ch=3 n=85 v=127
300000 On ch=3 n=96 v=127
300000 On ch=3 n=97 v=127
300000 On ch=3 n=116 v=100
300060 On ch=3 n=24 v=0
300060 On ch=3 n=27 v=0
300060 On ch=3 n=61 v=0
300060 On ch=3 n=62 v=0
300060 On ch=3 n=73 v=0
300060 On ch=3 n=85 v=0
300060 On ch=3 n=96 v=0
300060 On ch=3 n=97 v=0
300120 On ch=3 n=26 v=127
300120 On ch=3 n=85 v=127
300120 On ch=3 n=97 v=127
300180 On ch=3 n=26 v=0
300180 On ch=3 n=85 v=0
300180 On ch=3 n=97 v=0
300240 On ch=3 n=24 v=127
300240 On ch=3 n=27 v=127
300240 On ch=3 n=73 v=127
300240 On ch=3 n=85 v=127
300240 On ch=3 n=96 v=127
300240 On ch=3 n=97 v=127
300240 On ch=3 n=62 v=127
300300 On ch=3 n=24 v=0
300300 On ch=3 n=27 v=0
300300 On ch=3 n=73 v=0
300300 On ch=3 n=85 v=0
300300 On ch=3 n=96 v=0
300300 On ch=3 n=97 v=0
300300 On ch=3 n=62 v=0
300360 On ch=3 n=26 v=127
300360 On ch=3 n=85 v=127
300360 On ch=3 n=97 v=127
300420 On ch=3 n=26 v=0
300420 On ch=3 n=85 v=0
300420 On ch=3 n=97 v=0
300480 On ch=3 n=24 v=127
300480 On ch=3 n=25 v=127
300480 On ch=3 n=36 v=127
300480 On ch=3 n=64 v=127
300480 On ch=3 n=72 v=127
300480 On ch=3 n=76 v=127
300480 On ch=3 n=84 v=127
300480 On ch=3 n=88 v=127
300480 On ch=3 n=96 v=127
300480 On ch=3 n=100 v=127
300480 On ch=3 n=60 v=100
300540 On ch=3 n=24 v=0
300540 On ch=3 n=36 v=0
300540 On ch=3 n=64 v=0
300540 On ch=3 n=72 v=0
300540 On ch=3 n=76 v=0
300540 On ch=3 n=84 v=0
300540 On ch=3 n=88 v=0
300540 On ch=3 n=96 v=0
300540 On ch=3 n=100 v=0
300540 On ch=3 n=60 v=0
300720 On ch=3 n=24 v=127
300720 On ch=3 n=37 v=127
300720 On ch=3 n=64 v=127
300720 On ch=3 n=72 v=127
300720 On ch=3 n=76 v=127
300720 On ch=3 n=84 v=127
300720 On ch=3 n=88 v=127
300720 On ch=3 n=96 v=127
300720 On ch=3 n=100 v=127
300720 On ch=3 n=60 v=100
300780 On ch=3 n=24 v=0
300780 On ch=3 n=37 v=0
300780 On ch=3 n=64 v=0
300780 On ch=3 n=72 v=0
300780 On ch=3 n=76 v=0
300780 On ch=3 n=84 v=0
300780 On ch=3 n=88 v=0
300780 On ch=3 n=96 v=0
300780 On ch=3 n=100 v=0
300780 On ch=3 n=60 v=0
300840 On ch=3 n=116 v=0
300954 On ch=3 n=25 v=0
300960 Meta Text "[idle_intense]"
323520 Meta Text "[intense]"
323520 On ch=3 n=27 v=127
323520 On ch=3 n=61 v=127
323520 On ch=3 n=73 v=127
323520 On ch=3 n=85 v=127
323520 On ch=3 n=86 v=127
323520 On ch=3 n=97 v=127
323520 On ch=3 n=98 v=127
323520 On ch=3 n=110 v=127
323520 On ch=3 n=111 v=127
323520 On ch=3 n=120 v=127
323520 On ch=3 n=121 v=127
323520 On ch=3 n=122 v=127
323520 On ch=3 n=123 v=127
323520 On ch=3 n=124 v=127
323553 On ch=3 n=26 v=127
323580 On ch=3 n=27 v=0
323580 On ch=3 n=61 v=0
323580 On ch=3 n=73 v=0
323580 On ch=3 n=85 v=0
323580 On ch=3 n=86 v=0
323580 On ch=3 n=97 v=0
323580 On ch=3 n=98 v=0
323613 On ch=3 n=26 v=0
323760 On ch=3 n=46 v=127
323760 On ch=3 n=74 v=127
323760 On ch=3 n=86 v=127
323760 On ch=3 n=98 v=127
323760 On ch=3 n=62 v=100
323820 On ch=3 n=46 v=0
323820 On ch=3 n=74 v=0
323820 On ch=3 n=86 v=0
323820 On ch=3 n=98 v=0
323820 On ch=3 n=62 v=0
324000 On ch=3 n=49 v=127
324000 On ch=3 n=75 v=127
324000 On ch=3 n=87 v=127
324000 On ch=3 n=99 v=127
324000 On ch=3 n=63 v=127
324060 On ch=3 n=49 v=0
324060 On ch=3 n=75 v=0
324060 On ch=3 n=87 v=0
324060 On ch=3 n=99 v=0
324060 On ch=3 n=63 v=0
324240 On ch=3 n=27 v=127
324240 On ch=3 n=73 v=127
324240 On ch=3 n=85 v=127
324240 On ch=3 n=97 v=127
324300 On ch=3 n=27 v=0
324300 On ch=3 n=73 v=0
324300 On ch=3 n=85 v=0
324300 On ch=3 n=97 v=0
324360 On ch=3 n=26 v=127
324360 On ch=3 n=85 v=127
324360 On ch=3 n=97 v=127
324420 On ch=3 n=26 v=0
324420 On ch=3 n=85 v=0
324420 On ch=3 n=97 v=0
324480 On ch=3 n=27 v=127
324480 On ch=3 n=61 v=127
324480 On ch=3 n=73 v=127
324480 On ch=3 n=85 v=127
324480 On ch=3 n=97 v=127
324540 On ch=3 n=27 v=0
324540 On ch=3 n=61 v=0
324540 On ch=3 n=73 v=0
324540 On ch=3 n=85 v=0
324540 On ch=3 n=97 v=0
324600 On ch=3 n=26 v=127
324600 On ch=3 n=97 v=127
324660 On ch=3 n=26 v=0
324660 On ch=3 n=97 v=0
324720 On ch=3 n=47 v=127
324720 On ch=3 n=87 v=127
324720 On ch=3 n=99 v=127
324780 On ch=3 n=47 v=0
324780 On ch=3 n=87 v=0
324780 On ch=3 n=99 v=0
324958 On ch=3 n=110 v=0
324958 On ch=3 n=111 v=0
324960 On ch=3 n=24 v=127
324960 On ch=3 n=38 v=127
324960 On ch=3 n=64 v=127
324960 On ch=3 n=72 v=127
324960 On ch=3 n=76 v=127
324960 On ch=3 n=84 v=127
324960 On ch=3 n=88 v=127
324960 On ch=3 n=96 v=127
324960 On ch=3 n=100 v=127
324960 On ch=3 n=60 v=100
325020 On ch=3 n=24 v=0
325020 On ch=3 n=38 v=0
325020 On ch=3 n=64 v=0
325020 On ch=3 n=72 v=0
325020 On ch=3 n=76 v=0
325020 On ch=3 n=84 v=0
325020 On ch=3 n=88 v=0
325020 On ch=3 n=96 v=0
325020 On ch=3 n=100 v=0
325020 On ch=3 n=60 v=0
325200 On ch=3 n=24 v=127
325200 On ch=3 n=34 v=127
325200 On ch=3 n=72 v=127
325200 On ch=3 n=76 v=127
325200 On ch=3 n=84 v=127
325200 On ch=3 n=88 v=127
325200 On ch=3 n=96 v=127
325200 On ch=3 n=99 v=127
325260 On ch=3 n=24 v=0
325260 On ch=3 n=34 v=0
325260 On ch=3 n=72 v=0
325260 On ch=3 n=76 v=0
325260 On ch=3 n=84 v=0
325260 On ch=3 n=88 v=0
325260 On ch=3 n=96 v=0
325260 On ch=3 n=99 v=0
325436 On ch=3 n=120 v=0
325436 On ch=3 n=121 v=0
325436 On ch=3 n=122 v=0
325436 On ch=3 n=123 v=0
325436 On ch=3 n=124 v=0
325440 On ch=3 n=106 v=0
325440 On ch=3 n=24 v=127
325440 On ch=3 n=38 v=127
325440 On ch=3 n=60 v=127
325440 On ch=3 n=64 v=127
325440 On ch=3 n=72 v=127
325440 On ch=3 n=76 v=127
325440 On ch=3 n=84 v=127
325440 On ch=3 n=88 v=127
325440 On ch=3 n=96 v=127
325440 On ch=3 n=100 v=127
325500 On ch=3 n=24 v=0
325500 On ch=3 n=38 v=0
325500 On ch=3 n=60 v=0
325500 On ch=3 n=64 v=0
325500 On ch=3 n=72 v=0
325500 On ch=3 n=76 v=0
325500 On ch=3 n=84 v=0
325500 On ch=3 n=88 v=0
325500 On ch=3 n=96 v=0
325500 On ch=3 n=100 v=0
325680 On ch=3 n=42 v=127
325680 On ch=3 n=87 v=127
325680 On ch=3 n=99 v=127
325740 On ch=3 n=42 v=0
325740 On ch=3 n=87 v=0
325740 On ch=3 n=99 v=0
325800 On ch=3 n=25 v=127
325914 On ch=3 n=25 v=0
325920 On ch=3 n=42 v=127
325920 On ch=3 n=63 v=127
325920 On ch=3 n=75 v=127
325920 On ch=3 n=87 v=127
325920 On ch=3 n=99 v=127
325980 On ch=3 n=42 v=0
325980 On ch=3 n=63 v=0
325980 On ch=3 n=75 v=0
325980 On ch=3 n=87 v=0
325980 On ch=3 n=99 v=0
326160 On ch=3 n=24 v=127
326160 On ch=3 n=42 v=127
326160 On ch=3 n=75 v=127
326160 On ch=3 n=84 v=127
326160 On ch=3 n=87 v=127
326160 On ch=3 n=96 v=127
326160 On ch=3 n=99 v=127
326160 On ch=3 n=63 v=127
326160 On ch=3 n=72 v=100
326220 On ch=3 n=24 v=0
326220 On ch=3 n=42 v=0
326220 On ch=3 n=75 v=0
326220 On ch=3 n=84 v=0
326220 On ch=3 n=87 v=0
326220 On ch=3 n=96 v=0
326220 On ch=3 n=99 v=0
326220 On ch=3 n=63 v=0
326220 On ch=3 n=72 v=0
326280 On ch=3 n=24 v=127
326280 On ch=3 n=25 v=127
326280 On ch=3 n=96 v=127
326340 On ch=3 n=24 v=0
326340 On ch=3 n=96 v=0
326394 On ch=3 n=25 v=0
326400 On ch=3 n=26 v=127
326400 On ch=3 n=42 v=127
326400 On ch=3 n=61 v=127
326400 On ch=3 n=63 v=127
326400 On ch=3 n=73 v=127
326400 On ch=3 n=75 v=127
326400 On ch=3 n=85 v=127
326400 On ch=3 n=87 v=127
326400 On ch=3 n=97 v=127
326400 On ch=3 n=99 v=127
326460 On ch=3 n=26 v=0
326460 On ch=3 n=42 v=0
326460 On ch=3 n=61 v=0
326460 On ch=3 n=63 v=0
326460 On ch=3 n=73 v=0
326460 On ch=3 n=75 v=0
326460 On ch=3 n=85 v=0
326460 On ch=3 n=87 v=0
326460 On ch=3 n=97 v=0
326460 On ch=3 n=99 v=0
326640 On ch=3 n=26 v=127
326640 On ch=3 n=42 v=127
326640 On ch=3 n=73 v=127
326640 On ch=3 n=75 v=127
326640 On ch=3 n=85 v=127
326640 On ch=3 n=87 v=127
326640 On ch=3 n=97 v=127
326640 On ch=3 n=99 v=127
326640 On ch=3 n=63 v=127
326640 On ch=3 n=61 v=100
326700 On ch=3 n=26 v=0
326700 On ch=3 n=42 v=0
326700 On ch=3 n=73 v=0
326700 On ch=3 n=75 v=0
326700 On ch=3 n=85 v=0
326700 On ch=3 n=87 v=0
326700 On ch=3 n=97 v=0
326700 On ch=3 n=99 v=0
326700 On ch=3 n=63 v=0
326700 On ch=3 n=61 v=0
326760 On ch=3 n=25 v=127
326874 On ch=3 n=25 v=0
326880 On ch=3 n=42 v=127
326880 On ch=3 n=63 v=127
326880 On ch=3 n=75 v=127
326880 On ch=3 n=87 v=127
326880 On ch=3 n=99 v=127
326940 On ch=3 n=42 v=0
326940 On ch=3 n=63 v=0
326940 On ch=3 n=75 v=0
326940 On ch=3 n=87 v=0
326940 On ch=3 n=99 v=0
327120 On ch=3 n=24 v=127
327120 On ch=3 n=42 v=127
327120 On ch=3 n=75 v=127
327120 On ch=3 n=84 v=127
327120 On ch=3 n=87 v=127
327120 On ch=3 n=96 v=127
327120 On ch=3 n=99 v=127
327120 On ch=3 n=63 v=127
327180 On ch=3 n=24 v=0
327180 On ch=3 n=42 v=0
327180 On ch=3 n=75 v=0
327180 On ch=3 n=84 v=0
327180 On ch=3 n=87 v=0
327180 On ch=3 n=96 v=0
327180 On ch=3 n=99 v=0
327180 On ch=3 n=63 v=0
327240 On ch=3 n=25 v=127
327354 On ch=3 n=25 v=0
327360 On ch=3 n=42 v=127
327360 On ch=3 n=63 v=127
327360 On ch=3 n=75 v=127
327360 On ch=3 n=87 v=127
327360 On ch=3 n=99 v=127
327420 On ch=3 n=42 v=0
327420 On ch=3 n=63 v=0
327420 On ch=3 n=75 v=0
327420 On ch=3 n=87 v=0
327420 On ch=3 n=99 v=0
327600 On ch=3 n=24 v=127
327600 On ch=3 n=42 v=127
327600 On ch=3 n=75 v=127
327600 On ch=3 n=84 v=127
327600 On ch=3 n=87 v=127
327600 On ch=3 n=96 v=127
327600 On ch=3 n=99 v=127
327600 On ch=3 n=63 v=127
327600 On ch=3 n=72 v=100
327660 On ch=3 n=24 v=0
327660 On ch=3 n=42 v=0
327660 On ch=3 n=75 v=0
327660 On ch=3 n=84 v=0
327660 On ch=3 n=87 v=0
327660 On ch=3 n=96 v=0
327660 On ch=3 n=99 v=0
327660 On ch=3 n=63 v=0
327660 On ch=3 n=72 v=0
327720 On ch=3 n=25 v=127
327834 On ch=3 n=25 v=0
327840 On ch=3 n=26 v=127
327840 On ch=3 n=42 v=127
327840 On ch=3 n=61 v=127
327840 On ch=3 n=63 v=127
327840 On ch=3 n=73 v=127
327840 On ch=3 n=75 v=127
327840 On ch=3 n=85 v=127
327840 On ch=3 n=87 v=127
327840 On ch=3 n=97 v=127
327840 On ch=3 n=99 v=127
327900 On ch=3 n=26 v=0
327900 On ch=3 n=42 v=0
327900 On ch=3 n=61 v=0
327900 On ch=3 n=63 v=0
327900 On ch=3 n=73 v=0
327900 On ch=3 n=75 v=0
327900 On ch=3 n=85 v=0
327900 On ch=3 n=87 v=0
327900 On ch=3 n=97 v=0
327900 On ch=3 n=99 v=0
328080 On ch=3 n=26 v=127
328080 On ch=3 n=42 v=127
328080 On ch=3 n=73 v=127
328080 On ch=3 n=75 v=127
328080 On ch=3 n=85 v=127
328080 On ch=3 n=87 v=127
328080 On ch=3 n=97 v=127
328080 On ch=3 n=99 v=127
328080 On ch=3 n=63 v=127
328080 On ch=3 n=61 v=100
328140 On ch=3 n=26 v=0
328140 On ch=3 n=42 v=0
328140 On ch=3 n=73 v=0
328140 On ch=3 n=75 v=0
328140 On ch=3 n=85 v=0
328140 On ch=3 n=87 v=0
328140 On ch=3 n=97 v=0
328140 On ch=3 n=99 v=0
328140 On ch=3 n=63 v=0
328140 On ch=3 n=61 v=0
328200 On ch=3 n=25 v=127
328314 On ch=3 n=25 v=0
328320 On ch=3 n=24 v=127
328320 On ch=3 n=42 v=127
328320 On ch=3 n=63 v=127
328320 On ch=3 n=75 v=127
328320 On ch=3 n=84 v=127
328320 On ch=3 n=87 v=127
328320 On ch=3 n=96 v=127
328320 On ch=3 n=99 v=127
328320 On ch=3 n=72 v=100
328380 On ch=3 n=24 v=0
328380 On ch=3 n=42 v=0
328380 On ch=3 n=63 v=0
328380 On ch=3 n=75 v=0
328380 On ch=3 n=84 v=0
328380 On ch=3 n=87 v=0
328380 On ch=3 n=96 v=0
328380 On ch=3 n=99 v=0
328380 On ch=3 n=72 v=0
328560 On ch=3 n=24 v=127
328560 On ch=3 n=42 v=127
328560 On ch=3 n=75 v=127
328560 On ch=3 n=84 v=127
328560 On ch=3 n=87 v=127
328560 On ch=3 n=96 v=127
328560 On ch=3 n=99 v=127
328560 On ch=3 n=63 v=127
328620 On ch=3 n=24 v=0
328620 On ch=3 n=42 v=0
328620 On ch=3 n=75 v=0
328620 On ch=3 n=84 v=0
328620 On ch=3 n=87 v=0
328620 On ch=3 n=96 v=0
328620 On ch=3 n=99 v=0
328620 On ch=3 n=63 v=0
328680 On ch=3 n=25 v=127
328794 On ch=3 n=25 v=0
328800 On ch=3 n=27 v=127
328800 On ch=3 n=61 v=127
328800 On ch=3 n=73 v=127
328800 On ch=3 n=85 v=127
328800 On ch=3 n=97 v=127
328860 On ch=3 n=27 v=0
328860 On ch=3 n=61 v=0
328860 On ch=3 n=73 v=0
328860 On ch=3 n=85 v=0
328860 On ch=3 n=97 v=0
328920 On ch=3 n=26 v=127
328920 On ch=3 n=85 v=127
328920 On ch=3 n=97 v=127
328980 On ch=3 n=26 v=0
328980 On ch=3 n=85 v=0
328980 On ch=3 n=97 v=0
329040 On ch=3 n=27 v=127
329040 On ch=3 n=73 v=127
329040 On ch=3 n=85 v=127
329040 On ch=3 n=97 v=127
329040 On ch=3 n=61 v=100
329100 On ch=3 n=27 v=0
329100 On ch=3 n=73 v=0
329100 On ch=3 n=85 v=0
329100 On ch=3 n=97 v=0
329100 On ch=3 n=61 v=0
329280 On ch=3 n=105 v=0
329280 On ch=3 n=24 v=127
329280 On ch=3 n=25 v=127
329280 On ch=3 n=26 v=127
329280 On ch=3 n=38 v=127
329280 On ch=3 n=64 v=127
329280 On ch=3 n=72 v=127
329280 On ch=3 n=76 v=127
329280 On ch=3 n=84 v=127
329280 On ch=3 n=85 v=127
329280 On ch=3 n=88 v=127
329280 On ch=3 n=96 v=127
329280 On ch=3 n=97 v=127
329280 On ch=3 n=100 v=127
329280 On ch=3 n=106 v=100
329280 On ch=3 n=116 v=100
329280 On ch=3 n=60 v=100
329340 On ch=3 n=24 v=0
329340 On ch=3 n=26 v=0
329340 On ch=3 n=38 v=0
329340 On ch=3 n=64 v=0
329340 On ch=3 n=72 v=0
329340 On ch=3 n=76 v=0
329340 On ch=3 n=84 v=0
329340 On ch=3 n=85 v=0
329340 On ch=3 n=88 v=0
329340 On ch=3 n=96 v=0
329340 On ch=3 n=97 v=0
329340 On ch=3 n=100 v=0
329340 On ch=3 n=60 v=0
329514 On ch=3 n=25 v=0
329520 On ch=3 n=24 v=127
329520 On ch=3 n=42 v=127
329520 On ch=3 n=87 v=127
329520 On ch=3 n=96 v=127
329520 On ch=3 n=99 v=127
329580 On ch=3 n=24 v=0
329580 On ch=3 n=42 v=0
329580 On ch=3 n=87 v=0
329580 On ch=3 n=96 v=0
329580 On ch=3 n=99 v=0
329760 On ch=3 n=24 v=127
329760 On ch=3 n=25 v=127
329760 On ch=3 n=26 v=127
329760 On ch=3 n=42 v=127
329760 On ch=3 n=61 v=127
329760 On ch=3 n=63 v=127
329760 On ch=3 n=73 v=127
329760 On ch=3 n=75 v=127
329760 On ch=3 n=85 v=127
329760 On ch=3 n=87 v=127
329760 On ch=3 n=96 v=127
329760 On ch=3 n=97 v=127
329760 On ch=3 n=99 v=127
329820 On ch=3 n=24 v=0
329820 On ch=3 n=26 v=0
329820 On ch=3 n=42 v=0
329820 On ch=3 n=61 v=0
329820 On ch=3 n=63 v=0
329820 On ch=3 n=73 v=0
329820 On ch=3 n=75 v=0
329820 On ch=3 n=85 v=0
329820 On ch=3 n=87 v=0
329820 On ch=3 n=96 v=0
329820 On ch=3 n=97 v=0
329820 On ch=3 n=99 v=0
329994 On ch=3 n=25 v=0
330000 On ch=3 n=24 v=127
330000 On ch=3 n=42 v=127
330000 On ch=3 n=84 v=127
330000 On ch=3 n=87 v=127
330000 On ch=3 n=96 v=127
330000 On ch=3 n=99 v=127
330000 On ch=3 n=72 v=127
330000 On ch=3 n=63 v=127
330060 On ch=3 n=24 v=0
330060 On ch=3 n=42 v=0
330060 On ch=3 n=84 v=0
330060 On ch=3 n=87 v=0
330060 On ch=3 n=96 v=0
330060 On ch=3 n=99 v=0
330060 On ch=3 n=72 v=0
330060 On ch=3 n=63 v=0
330240 On ch=3 n=24 v=127
330240 On ch=3 n=25 v=127
330240 On ch=3 n=26 v=127
330240 On ch=3 n=42 v=127
330240 On ch=3 n=61 v=127
330240 On ch=3 n=63 v=127
330240 On ch=3 n=73 v=127
330240 On ch=3 n=75 v=127
330240 On ch=3 n=85 v=127
330240 On ch=3 n=87 v=127
330240 On ch=3 n=96 v=127
330240 On ch=3 n=97 v=127
330240 On ch=3 n=99 v=127
330300 On ch=3 n=24 v=0
330300 On ch=3 n=26 v=0
330300 On ch=3 n=42 v=0
330300 On ch=3 n=61 v=0
330300 On ch=3 n=63 v=0
330300 On ch=3 n=73 v=0
330300 On ch=3 n=75 v=0
330300 On ch=3 n=85 v=0
330300 On ch=3 n=87 v=0
330300 On ch=3 n=96 v=0
330300 On ch=3 n=97 v=0
330300 On ch=3 n=99 v=0
330474 On ch=3 n=25 v=0
330480 On ch=3 n=24 v=127
330480 On ch=3 n=42 v=127
330480 On ch=3 n=84 v=127
330480 On ch=3 n=87 v=127
330480 On ch=3 n=96 v=127
330480 On ch=3 n=99 v=127
330480 On ch=3 n=72 v=127
330480 On ch=3 n=63 v=127
330540 On ch=3 n=24 v=0
330540 On ch=3 n=42 v=0
330540 On ch=3 n=84 v=0
330540 On ch=3 n=87 v=0
330540 On ch=3 n=96 v=0
330540 On ch=3 n=99 v=0
330540 On ch=3 n=72 v=0
330540 On ch=3 n=63 v=0
330720 On ch=3 n=24 v=127
330720 On ch=3 n=25 v=127
330720 On ch=3 n=26 v=127
330720 On ch=3 n=42 v=127
330720 On ch=3 n=61 v=127
330720 On ch=3 n=63 v=127
330720 On ch=3 n=73 v=127
330720 On ch=3 n=75 v=127
330720 On ch=3 n=85 v=127
330720 On ch=3 n=87 v=127
330720 On ch=3 n=96 v=127
330720 On ch=3 n=97 v=127
330720 On ch=3 n=99 v=127
330780 On ch=3 n=24 v=0
330780 On ch=3 n=26 v=0
330780 On ch=3 n=42 v=0
330780 On ch=3 n=61 v=0
330780 On ch=3 n=63 v=0
330780 On ch=3 n=73 v=0
330780 On ch=3 n=75 v=0
330780 On ch=3 n=85 v=0
330780 On ch=3 n=87 v=0
330780 On ch=3 n=96 v=0
330780 On ch=3 n=97 v=0
330780 On ch=3 n=99 v=0
330954 On ch=3 n=25 v=0
330960 On ch=3 n=24 v=127
330960 On ch=3 n=42 v=127
330960 On ch=3 n=84 v=127
330960 On ch=3 n=87 v=127
330960 On ch=3 n=96 v=127
330960 On ch=3 n=99 v=127
330960 On ch=3 n=72 v=127
330960 On ch=3 n=63 v=127
331020 On ch=3 n=24 v=0
331020 On ch=3 n=42 v=0
331020 On ch=3 n=84 v=0
331020 On ch=3 n=87 v=0
331020 On ch=3 n=96 v=0
331020 On ch=3 n=99 v=0
331020 On ch=3 n=72 v=0
331020 On ch=3 n=63 v=0
331200 On ch=3 n=116 v=0
331200 On ch=3 n=24 v=127
331200 On ch=3 n=25 v=127
331200 On ch=3 n=26 v=127
331200 On ch=3 n=42 v=127
331200 On ch=3 n=61 v=127
331200 On ch=3 n=63 v=127
331200 On ch=3 n=73 v=127
331200 On ch=3 n=75 v=127
331200 On ch=3 n=85 v=127
331200 On ch=3 n=87 v=127
331200 On ch=3 n=96 v=127
331200 On ch=3 n=97 v=127
331200 On ch=3 n=99 v=127
331260 On ch=3 n=24 v=0
331260 On ch=3 n=26 v=0
331260 On ch=3 n=42 v=0
331260 On ch=3 n=61 v=0
331260 On ch=3 n=63 v=0
331260 On ch=3 n=73 v=0
331260 On ch=3 n=75 v=0
331260 On ch=3 n=85 v=0
331260 On ch=3 n=87 v=0
331260 On ch=3 n=96 v=0
331260 On ch=3 n=97 v=0
331260 On ch=3 n=99 v=0
331434 On ch=3 n=25 v=0
331440 On ch=3 n=24 v=127
331440 On ch=3 n=42 v=127
331440 On ch=3 n=84 v=127
331440 On ch=3 n=87 v=127
331440 On ch=3 n=96 v=127
331440 On ch=3 n=99 v=127
331440 On ch=3 n=72 v=127
331440 On ch=3 n=63 v=127
331500 On ch=3 n=24 v=0
331500 On ch=3 n=42 v=0
331500 On ch=3 n=84 v=0
331500 On ch=3 n=87 v=0
331500 On ch=3 n=96 v=0
331500 On ch=3 n=99 v=0
331500 On ch=3 n=72 v=0
331500 On ch=3 n=63 v=0
331680 On ch=3 n=24 v=127
331680 On ch=3 n=25 v=127
331680 On ch=3 n=26 v=127
331680 On ch=3 n=42 v=127
331680 On ch=3 n=61 v=127
331680 On ch=3 n=63 v=127
331680 On ch=3 n=73 v=127
331680 On ch=3 n=75 v=127
331680 On ch=3 n=85 v=127
331680 On ch=3 n=87 v=127
331680 On ch=3 n=96 v=127
331680 On ch=3 n=97 v=127
331680 On ch=3 n=99 v=127
331740 On ch=3 n=24 v=0
331740 On ch=3 n=26 v=0
331740 On ch=3 n=42 v=0
331740 On ch=3 n=61 v=0
331740 On ch=3 n=63 v=0
331740 On ch=3 n=73 v=0
331740 On ch=3 n=75 v=0
331740 On ch=3 n=85 v=0
331740 On ch=3 n=87 v=0
331740 On ch=3 n=96 v=0
331740 On ch=3 n=97 v=0
331740 On ch=3 n=99 v=0
331914 On ch=3 n=25 v=0
331920 On ch=3 n=24 v=127
331920 On ch=3 n=42 v=127
331920 On ch=3 n=84 v=127
331920 On ch=3 n=87 v=127
331920 On ch=3 n=96 v=127
331920 On ch=3 n=99 v=127
331920 On ch=3 n=72 v=127
331920 On ch=3 n=63 v=127
331980 On ch=3 n=24 v=0
331980 On ch=3 n=42 v=0
331980 On ch=3 n=84 v=0
331980 On ch=3 n=87 v=0
331980 On ch=3 n=96 v=0
331980 On ch=3 n=99 v=0
331980 On ch=3 n=72 v=0
331980 On ch=3 n=63 v=0
332160 On ch=3 n=24 v=127
332160 On ch=3 n=25 v=127
332160 On ch=3 n=26 v=127
332160 On ch=3 n=42 v=127
332160 On ch=3 n=61 v=127
332160 On ch=3 n=63 v=127
332160 On ch=3 n=73 v=127
332160 On ch=3 n=75 v=127
332160 On ch=3 n=85 v=127
332160 On ch=3 n=87 v=127
332160 On ch=3 n=96 v=127
332160 On ch=3 n=97 v=127
332160 On ch=3 n=99 v=127
332220 On ch=3 n=24 v=0
332220 On ch=3 n=26 v=0
332220 On ch=3 n=42 v=0
332220 On ch=3 n=61 v=0
332220 On ch=3 n=63 v=0
332220 On ch=3 n=73 v=0
332220 On ch=3 n=75 v=0
332220 On ch=3 n=85 v=0
332220 On ch=3 n=87 v=0
332220 On ch=3 n=96 v=0
332220 On ch=3 n=97 v=0
332220 On ch=3 n=99 v=0
332394 On ch=3 n=25 v=0
332400 On ch=3 n=24 v=127
332400 On ch=3 n=42 v=127
332400 On ch=3 n=84 v=127
332400 On ch=3 n=87 v=127
332400 On ch=3 n=96 v=127
332400 On ch=3 n=99 v=127
332400 On ch=3 n=72 v=127
332400 On ch=3 n=63 v=127
332460 On ch=3 n=24 v=0
332460 On ch=3 n=42 v=0
332460 On ch=3 n=84 v=0
332460 On ch=3 n=87 v=0
332460 On ch=3 n=96 v=0
332460 On ch=3 n=99 v=0
332460 On ch=3 n=72 v=0
332460 On ch=3 n=63 v=0
332640 On ch=3 n=24 v=127
332640 On ch=3 n=25 v=127
332640 On ch=3 n=27 v=127
332640 On ch=3 n=61 v=127
332640 On ch=3 n=63 v=127
332640 On ch=3 n=73 v=127
332640 On ch=3 n=85 v=127
332640 On ch=3 n=96 v=127
332640 On ch=3 n=97 v=127
332700 On ch=3 n=24 v=0
332700 On ch=3 n=27 v=0
332700 On ch=3 n=61 v=0
332700 On ch=3 n=63 v=0
332700 On ch=3 n=73 v=0
332700 On ch=3 n=85 v=0
332700 On ch=3 n=96 v=0
332700 On ch=3 n=97 v=0
332760 On ch=3 n=26 v=127
332760 On ch=3 n=85 v=127
332760 On ch=3 n=97 v=127
332820 On ch=3 n=26 v=0
332820 On ch=3 n=85 v=0
332820 On ch=3 n=97 v=0
332874 On ch=3 n=25 v=0
332880 On ch=3 n=24 v=127
332880 On ch=3 n=27 v=127
332880 On ch=3 n=73 v=127
332880 On ch=3 n=85 v=127
332880 On ch=3 n=96 v=127
332880 On ch=3 n=97 v=127
332940 On ch=3 n=24 v=0
332940 On ch=3 n=27 v=0
332940 On ch=3 n=73 v=0
332940 On ch=3 n=85 v=0
332940 On ch=3 n=96 v=0
332940 On ch=3 n=97 v=0
333000 On ch=3 n=26 v=127
333000 On ch=3 n=85 v=127
333000 On ch=3 n=97 v=127
333060 On ch=3 n=26 v=0
333060 On ch=3 n=85 v=0
333060 On ch=3 n=97 v=0
333120 On ch=3 n=24 v=127
333120 On ch=3 n=25 v=127
333120 On ch=3 n=38 v=127
333120 On ch=3 n=64 v=127
333120 On ch=3 n=72 v=127
333120 On ch=3 n=76 v=127
333120 On ch=3 n=84 v=127
333120 On ch=3 n=88 v=127
333120 On ch=3 n=96 v=127
333120 On ch=3 n=100 v=127
333120 On ch=3 n=105 v=100
333120 On ch=3 n=116 v=100
333120 On ch=3 n=60 v=100
333120 Meta Text "[play]"
333180 On ch=3 n=24 v=0
333180 On ch=3 n=38 v=0
333180 On ch=3 n=64 v=0
333180 On ch=3 n=72 v=0
333180 On ch=3 n=76 v=0
333180 On ch=3 n=84 v=0
333180 On ch=3 n=88 v=0
333180 On ch=3 n=96 v=0
333180 On ch=3 n=100 v=0
333180 On ch=3 n=60 v=0
333354 On ch=3 n=25 v=0
333600 On ch=3 n=24 v=127
333600 On ch=3 n=25 v=127
333600 On ch=3 n=34 v=127
333600 On ch=3 n=38 v=127
333600 On ch=3 n=64 v=127
333600 On ch=3 n=72 v=127
333600 On ch=3 n=76 v=127
333600 On ch=3 n=84 v=127
333600 On ch=3 n=88 v=127
333600 On ch=3 n=96 v=127
333600 On ch=3 n=100 v=127
333600 On ch=3 n=60 v=100
333660 On ch=3 n=24 v=0
333660 On ch=3 n=34 v=0
333660 On ch=3 n=38 v=0
333660 On ch=3 n=64 v=0
333660 On ch=3 n=72 v=0
333660 On ch=3 n=76 v=0
333660 On ch=3 n=84 v=0
333660 On ch=3 n=88 v=0
333660 On ch=3 n=96 v=0
333660 On ch=3 n=100 v=0
333660 On ch=3 n=60 v=0
333720 On ch=3 n=116 v=0
333834 On ch=3 n=25 v=0
335040 On ch=3 n=106 v=0
335040 On ch=3 n=24 v=127
335040 On ch=3 n=38 v=127
335040 On ch=3 n=64 v=127
335040 On ch=3 n=72 v=127
335040 On ch=3 n=76 v=127
335040 On ch=3 n=84 v=127
335040 On ch=3 n=88 v=127
335040 On ch=3 n=96 v=127
335040 On ch=3 n=100 v=127
335040 On ch=3 n=60 v=100
335100 On ch=3 n=24 v=0
335100 On ch=3 n=38 v=0
335100 On ch=3 n=64 v=0
335100 On ch=3 n=72 v=0
335100 On ch=3 n=76 v=0
335100 On ch=3 n=84 v=0
335100 On ch=3 n=88 v=0
335100 On ch=3 n=96 v=0
335100 On ch=3 n=100 v=0
335100 On ch=3 n=60 v=0
335280 On ch=3 n=24 v=127
335280 On ch=3 n=42 v=127
335280 On ch=3 n=84 v=127
335280 On ch=3 n=88 v=127
335280 On ch=3 n=96 v=127
335280 On ch=3 n=100 v=127
335340 On ch=3 n=24 v=0
335340 On ch=3 n=42 v=0
335340 On ch=3 n=84 v=0
335340 On ch=3 n=88 v=0
335340 On ch=3 n=96 v=0
335340 On ch=3 n=100 v=0
335520 On ch=3 n=26 v=127
335520 On ch=3 n=27 v=127
335520 On ch=3 n=61 v=127
335520 On ch=3 n=73 v=127
335520 On ch=3 n=85 v=127
335520 On ch=3 n=86 v=127
335520 On ch=3 n=97 v=127
335520 On ch=3 n=98 v=127
335520 On ch=3 n=110 v=127
335580 On ch=3 n=26 v=0
335580 On ch=3 n=27 v=0
335580 On ch=3 n=61 v=0
335580 On ch=3 n=73 v=0
335580 On ch=3 n=85 v=0
335580 On ch=3 n=86 v=0
335580 On ch=3 n=97 v=0
335580 On ch=3 n=98 v=0
335638 On ch=3 n=110 v=0
335760 On ch=3 n=24 v=127
335760 On ch=3 n=38 v=127
335760 On ch=3 n=64 v=127
335760 On ch=3 n=72 v=127
335760 On ch=3 n=76 v=127
335760 On ch=3 n=84 v=127
335760 On ch=3 n=88 v=127
335760 On ch=3 n=96 v=127
335760 On ch=3 n=100 v=127
335820 On ch=3 n=24 v=0
335820 On ch=3 n=38 v=0
335820 On ch=3 n=64 v=0
335820 On ch=3 n=72 v=0
335820 On ch=3 n=76 v=0
335820 On ch=3 n=84 v=0
335820 On ch=3 n=88 v=0
335820 On ch=3 n=96 v=0
335820 On ch=3 n=100 v=0
336000 On ch=3 n=120 v=127
336000 On ch=3 n=121 v=127
336000 On ch=3 n=122 v=127
336000 On ch=3 n=123 v=127
336000 On ch=3 n=124 v=127
336240 On ch=3 n=24 v=127
336240 On ch=3 n=84 v=127
336240 On ch=3 n=96 v=127
336300 On ch=3 n=24 v=0
336300 On ch=3 n=84 v=0
336300 On ch=3 n=96 v=0
336480 On ch=3 n=27 v=127
336480 On ch=3 n=73 v=127
336480 On ch=3 n=85 v=127
336480 On ch=3 n=97 v=127
336540 On ch=3 n=27 v=0
336540 On ch=3 n=73 v=0
336540 On ch=3 n=85 v=0
336540 On ch=3 n=97 v=0
336600 On ch=3 n=26 v=127
336600 On ch=3 n=85 v=127
336600 On ch=3 n=97 v=127
336660 On ch=3 n=26 v=0
336660 On ch=3 n=85 v=0
336660 On ch=3 n=97 v=0
336720 On ch=3 n=27 v=127
336720 On ch=3 n=73 v=127
336720 On ch=3 n=85 v=127
336720 On ch=3 n=97 v=127
336780 On ch=3 n=27 v=0
336780 On ch=3 n=73 v=0
336780 On ch=3 n=85 v=0
336780 On ch=3 n=97 v=0
336840 On ch=3 n=26 v=127
336840 On ch=3 n=85 v=127
336840 On ch=3 n=97 v=127
336900 On ch=3 n=26 v=0
336900 On ch=3 n=85 v=0
336900 On ch=3 n=97 v=0
336956 On ch=3 n=120 v=0
336956 On ch=3 n=121 v=0
336956 On ch=3 n=122 v=0
336956 On ch=3 n=123 v=0
336956 On ch=3 n=124 v=0
336960 On ch=3 n=24 v=127
336960 On ch=3 n=25 v=127
336960 On ch=3 n=38 v=127
336960 On ch=3 n=64 v=127
336960 On ch=3 n=72 v=127
336960 On ch=3 n=76 v=127
336960 On ch=3 n=84 v=127
336960 On ch=3 n=88 v=127
336960 On ch=3 n=96 v=127
336960 On ch=3 n=100 v=127
336960 On ch=3 n=106 v=100
336960 On ch=3 n=60 v=100
337020 On ch=3 n=24 v=0
337020 On ch=3 n=38 v=0
337020 On ch=3 n=64 v=0
337020 On ch=3 n=72 v=0
337020 On ch=3 n=76 v=0
337020 On ch=3 n=84 v=0
337020 On ch=3 n=88 v=0
337020 On ch=3 n=96 v=0
337020 On ch=3 n=100 v=0
337020 On ch=3 n=60 v=0
337194 On ch=3 n=25 v=0
337440 On ch=3 n=24 v=127
337440 On ch=3 n=25 v=127
337440 On ch=3 n=34 v=127
337440 On ch=3 n=64 v=127
337440 On ch=3 n=72 v=127
337440 On ch=3 n=76 v=127
337440 On ch=3 n=84 v=127
337440 On ch=3 n=88 v=127
337440 On ch=3 n=96 v=127
337440 On ch=3 n=100 v=127
337440 On ch=3 n=60 v=100
337500 On ch=3 n=24 v=0
337500 On ch=3 n=34 v=0
337500 On ch=3 n=64 v=0
337500 On ch=3 n=72 v=0
337500 On ch=3 n=76 v=0
337500 On ch=3 n=84 v=0
337500 On ch=3 n=88 v=0
337500 On ch=3 n=96 v=0
337500 On ch=3 n=100 v=0
337500 On ch=3 n=60 v=0
337674 On ch=3 n=25 v=0
338880 On ch=3 n=105 v=0
338880 On ch=3 n=24 v=127
338880 On ch=3 n=38 v=127
338880 On ch=3 n=64 v=127
338880 On ch=3 n=72 v=127
338880 On ch=3 n=76 v=127
338880 On ch=3 n=84 v=127
338880 On ch=3 n=88 v=127
338880 On ch=3 n=96 v=127
338880 On ch=3 n=100 v=127
338880 On ch=3 n=60 v=100
338940 On ch=3 n=24 v=0
338940 On ch=3 n=38 v=0
338940 On ch=3 n=64 v=0
338940 On ch=3 n=72 v=0
338940 On ch=3 n=76 v=0
338940 On ch=3 n=84 v=0
338940 On ch=3 n=88 v=0
338940 On ch=3 n=96 v=0
338940 On ch=3 n=100 v=0
338940 On ch=3 n=60 v=0
339120 On ch=3 n=24 v=127
339120 On ch=3 n=42 v=127
339120 On ch=3 n=84 v=127
339120 On ch=3 n=88 v=127
339120 On ch=3 n=96 v=127
339120 On ch=3 n=100 v=127
339180 On ch=3 n=24 v=0
339180 On ch=3 n=42 v=0
339180 On ch=3 n=84 v=0
339180 On ch=3 n=88 v=0
339180 On ch=3 n=96 v=0
339180 On ch=3 n=100 v=0
339360 On ch=3 n=26 v=127
339360 On ch=3 n=27 v=127
339360 On ch=3 n=61 v=127
339360 On ch=3 n=73 v=127
339360 On ch=3 n=85 v=127
339360 On ch=3 n=86 v=127
339360 On ch=3 n=97 v=127
339360 On ch=3 n=98 v=127
339360 On ch=3 n=110 v=127
339420 On ch=3 n=26 v=0
339420 On ch=3 n=27 v=0
339420 On ch=3 n=61 v=0
339420 On ch=3 n=73 v=0
339420 On ch=3 n=85 v=0
339420 On ch=3 n=86 v=0
339420 On ch=3 n=97 v=0
339420 On ch=3 n=98 v=0
339478 On ch=3 n=110 v=0
339600 On ch=3 n=24 v=127
339600 On ch=3 n=38 v=127
339600 On ch=3 n=64 v=127
339600 On ch=3 n=72 v=127
339600 On ch=3 n=76 v=127
339600 On ch=3 n=84 v=127
339600 On ch=3 n=88 v=127
339600 On ch=3 n=96 v=127
339600 On ch=3 n=100 v=127
339660 On ch=3 n=24 v=0
339660 On ch=3 n=38 v=0
339660 On ch=3 n=64 v=0
339660 On ch=3 n=72 v=0
339660 On ch=3 n=76 v=0
339660 On ch=3 n=84 v=0
339660 On ch=3 n=88 v=0
339660 On ch=3 n=96 v=0
339660 On ch=3 n=100 v=0
339840 On ch=3 n=120 v=127
339840 On ch=3 n=121 v=127
339840 On ch=3 n=122 v=127
339840 On ch=3 n=123 v=127
339840 On ch=3 n=124 v=127
340080 On ch=3 n=24 v=127
340080 On ch=3 n=84 v=127
340080 On ch=3 n=96 v=127
340140 On ch=3 n=24 v=0
340140 On ch=3 n=84 v=0
340140 On ch=3 n=96 v=0
340320 On ch=3 n=27 v=127
340320 On ch=3 n=73 v=127
340320 On ch=3 n=85 v=127
340320 On ch=3 n=97 v=127
340320 On ch=3 n=61 v=100
340380 On ch=3 n=27 v=0
340380 On ch=3 n=73 v=0
340380 On ch=3 n=85 v=0
340380 On ch=3 n=97 v=0
340380 On ch=3 n=61 v=0
340440 On ch=3 n=26 v=127
340440 On ch=3 n=85 v=127
340440 On ch=3 n=97 v=127
340500 On ch=3 n=26 v=0
340500 On ch=3 n=85 v=0
340500 On ch=3 n=97 v=0
340560 On ch=3 n=27 v=127
340560 On ch=3 n=73 v=127
340560 On ch=3 n=85 v=127
340560 On ch=3 n=97 v=127
340620 On ch=3 n=27 v=0
340620 On ch=3 n=73 v=0
340620 On ch=3 n=85 v=0
340620 On ch=3 n=97 v=0
340680 On ch=3 n=26 v=127
340680 On ch=3 n=85 v=127
340680 On ch=3 n=97 v=127
340740 On ch=3 n=26 v=0
340740 On ch=3 n=85 v=0
340740 On ch=3 n=97 v=0
340796 On ch=3 n=120 v=0
340796 On ch=3 n=121 v=0
340796 On ch=3 n=122 v=0
340796 On ch=3 n=123 v=0
340796 On ch=3 n=124 v=0
340800 On ch=3 n=106 v=0
340800 On ch=3 n=24 v=127
340800 On ch=3 n=38 v=127
340800 On ch=3 n=64 v=127
340800 On ch=3 n=72 v=127
340800 On ch=3 n=76 v=127
340800 On ch=3 n=84 v=127
340800 On ch=3 n=88 v=127
340800 On ch=3 n=96 v=127
340800 On ch=3 n=100 v=127
340800 On ch=3 n=105 v=100
340800 On ch=3 n=60 v=100
340860 On ch=3 n=24 v=0
340860 On ch=3 n=38 v=0
340860 On ch=3 n=64 v=0
340860 On ch=3 n=72 v=0
340860 On ch=3 n=76 v=0
340860 On ch=3 n=84 v=0
340860 On ch=3 n=88 v=0
340860 On ch=3 n=96 v=0
340860 On ch=3 n=100 v=0
340860 On ch=3 n=60 v=0
341040 On ch=3 n=24 v=127
341040 On ch=3 n=42 v=127
341040 On ch=3 n=84 v=127
341040 On ch=3 n=87 v=127
341040 On ch=3 n=96 v=127
341040 On ch=3 n=99 v=127
341040 On ch=3 n=75 v=100
341040 On ch=3 n=63 v=100
341100 On ch=3 n=24 v=0
341100 On ch=3 n=42 v=0
341100 On ch=3 n=84 v=0
341100 On ch=3 n=87 v=0
341100 On ch=3 n=96 v=0
341100 On ch=3 n=99 v=0
341100 On ch=3 n=75 v=0
341100 On ch=3 n=63 v=0
341160 On ch=3 n=25 v=127
341274 On ch=3 n=25 v=0
341280 On ch=3 n=26 v=127
341280 On ch=3 n=42 v=127
341280 On ch=3 n=61 v=127
341280 On ch=3 n=63 v=127
341280 On ch=3 n=73 v=127
341280 On ch=3 n=75 v=127
341280 On ch=3 n=85 v=127
341280 On ch=3 n=87 v=127
341280 On ch=3 n=97 v=127
341280 On ch=3 n=99 v=127
341340 On ch=3 n=26 v=0
341340 On ch=3 n=42 v=0
341340 On ch=3 n=61 v=0
341340 On ch=3 n=63 v=0
341340 On ch=3 n=73 v=0
341340 On ch=3 n=75 v=0
341340 On ch=3 n=85 v=0
341340 On ch=3 n=87 v=0
341340 On ch=3 n=97 v=0
341340 On ch=3 n=99 v=0
341520 On ch=3 n=42 v=127
341520 On ch=3 n=75 v=127
341520 On ch=3 n=87 v=127
341520 On ch=3 n=99 v=127
341520 On ch=3 n=63 v=127
341580 On ch=3 n=42 v=0
341580 On ch=3 n=75 v=0
341580 On ch=3 n=87 v=0
341580 On ch=3 n=99 v=0
341580 On ch=3 n=63 v=0
341640 On ch=3 n=25 v=127
341754 On ch=3 n=25 v=0
341760 On ch=3 n=24 v=127
341760 On ch=3 n=42 v=127
341760 On ch=3 n=63 v=127
341760 On ch=3 n=72 v=127
341760 On ch=3 n=75 v=127
341760 On ch=3 n=84 v=127
341760 On ch=3 n=87 v=127
341760 On ch=3 n=96 v=127
341760 On ch=3 n=99 v=127
341820 On ch=3 n=24 v=0
341820 On ch=3 n=42 v=0
341820 On ch=3 n=63 v=0
341820 On ch=3 n=72 v=0
341820 On ch=3 n=75 v=0
341820 On ch=3 n=84 v=0
341820 On ch=3 n=87 v=0
341820 On ch=3 n=96 v=0
341820 On ch=3 n=99 v=0
342000 On ch=3 n=24 v=127
342000 On ch=3 n=42 v=127
342000 On ch=3 n=72 v=127
342000 On ch=3 n=75 v=127
342000 On ch=3 n=84 v=127
342000 On ch=3 n=87 v=127
342000 On ch=3 n=96 v=127
342000 On ch=3 n=99 v=127
342000 On ch=3 n=63 v=127
342060 On ch=3 n=24 v=0
342060 On ch=3 n=42 v=0
342060 On ch=3 n=72 v=0
342060 On ch=3 n=75 v=0
342060 On ch=3 n=84 v=0
342060 On ch=3 n=87 v=0
342060 On ch=3 n=96 v=0
342060 On ch=3 n=99 v=0
342060 On ch=3 n=63 v=0
342120 On ch=3 n=25 v=127
342234 On ch=3 n=25 v=0
342240 On ch=3 n=26 v=127
342240 On ch=3 n=42 v=127
342240 On ch=3 n=61 v=127
342240 On ch=3 n=63 v=127
342240 On ch=3 n=73 v=127
342240 On ch=3 n=75 v=127
342240 On ch=3 n=85 v=127
342240 On ch=3 n=87 v=127
342240 On ch=3 n=97 v=127
342240 On ch=3 n=99 v=127
342300 On ch=3 n=26 v=0
342300 On ch=3 n=42 v=0
342300 On ch=3 n=61 v=0
342300 On ch=3 n=63 v=0
342300 On ch=3 n=73 v=0
342300 On ch=3 n=75 v=0
342300 On ch=3 n=85 v=0
342300 On ch=3 n=87 v=0
342300 On ch=3 n=97 v=0
342300 On ch=3 n=99 v=0
342480 On ch=3 n=42 v=127
342480 On ch=3 n=75 v=127
342480 On ch=3 n=87 v=127
342480 On ch=3 n=99 v=127
342480 On ch=3 n=63 v=127
342540 On ch=3 n=42 v=0
342540 On ch=3 n=75 v=0
342540 On ch=3 n=87 v=0
342540 On ch=3 n=99 v=0
342540 On ch=3 n=63 v=0
342600 On ch=3 n=25 v=127
342714 On ch=3 n=25 v=0
342720 On ch=3 n=24 v=127
342720 On ch=3 n=42 v=127
342720 On ch=3 n=63 v=127
342720 On ch=3 n=72 v=127
342720 On ch=3 n=75 v=127
342720 On ch=3 n=84 v=127
342720 On ch=3 n=87 v=127
342720 On ch=3 n=96 v=127
342720 On ch=3 n=99 v=127
342780 On ch=3 n=24 v=0
342780 On ch=3 n=42 v=0
342780 On ch=3 n=63 v=0
342780 On ch=3 n=72 v=0
342780 On ch=3 n=75 v=0
342780 On ch=3 n=84 v=0
342780 On ch=3 n=87 v=0
342780 On ch=3 n=96 v=0
342780 On ch=3 n=99 v=0
342960 On ch=3 n=24 v=127
342960 On ch=3 n=42 v=127
342960 On ch=3 n=72 v=127
342960 On ch=3 n=75 v=127
342960 On ch=3 n=84 v=127
342960 On ch=3 n=87 v=127
342960 On ch=3 n=96 v=127
342960 On ch=3 n=99 v=127
342960 On ch=3 n=63 v=127
343020 On ch=3 n=24 v=0
343020 On ch=3 n=42 v=0
343020 On ch=3 n=72 v=0
343020 On ch=3 n=75 v=0
343020 On ch=3 n=84 v=0
343020 On ch=3 n=87 v=0
343020 On ch=3 n=96 v=0
343020 On ch=3 n=99 v=0
343020 On ch=3 n=63 v=0
343080 On ch=3 n=25 v=127
343194 On ch=3 n=25 v=0
343200 On ch=3 n=26 v=127
343200 On ch=3 n=42 v=127
343200 On ch=3 n=61 v=127
343200 On ch=3 n=63 v=127
343200 On ch=3 n=73 v=127
343200 On ch=3 n=75 v=127
343200 On ch=3 n=85 v=127
343200 On ch=3 n=87 v=127
343200 On ch=3 n=97 v=127
343200 On ch=3 n=99 v=127
343260 On ch=3 n=26 v=0
343260 On ch=3 n=42 v=0
343260 On ch=3 n=61 v=0
343260 On ch=3 n=63 v=0
343260 On ch=3 n=73 v=0
343260 On ch=3 n=75 v=0
343260 On ch=3 n=85 v=0
343260 On ch=3 n=87 v=0
343260 On ch=3 n=97 v=0
343260 On ch=3 n=99 v=0
343440 On ch=3 n=42 v=127
343440 On ch=3 n=75 v=127
343440 On ch=3 n=87 v=127
343440 On ch=3 n=99 v=127
343440 On ch=3 n=63 v=127
343500 On ch=3 n=42 v=0
343500 On ch=3 n=75 v=0
343500 On ch=3 n=87 v=0
343500 On ch=3 n=99 v=0
343500 On ch=3 n=63 v=0
343560 On ch=3 n=25 v=127
343674 On ch=3 n=25 v=0
343680 On ch=3 n=24 v=127
343680 On ch=3 n=42 v=127
343680 On ch=3 n=63 v=127
343680 On ch=3 n=72 v=127
343680 On ch=3 n=75 v=127
343680 On ch=3 n=84 v=127
343680 On ch=3 n=87 v=127
343680 On ch=3 n=96 v=127
343680 On ch=3 n=99 v=127
343740 On ch=3 n=24 v=0
343740 On ch=3 n=42 v=0
343740 On ch=3 n=63 v=0
343740 On ch=3 n=72 v=0
343740 On ch=3 n=75 v=0
343740 On ch=3 n=84 v=0
343740 On ch=3 n=87 v=0
343740 On ch=3 n=96 v=0
343740 On ch=3 n=99 v=0
343920 On ch=3 n=24 v=127
343920 On ch=3 n=42 v=127
343920 On ch=3 n=72 v=127
343920 On ch=3 n=75 v=127
343920 On ch=3 n=84 v=127
343920 On ch=3 n=87 v=127
343920 On ch=3 n=96 v=127
343920 On ch=3 n=99 v=127
343920 On ch=3 n=63 v=127
343980 On ch=3 n=24 v=0
343980 On ch=3 n=42 v=0
343980 On ch=3 n=72 v=0
343980 On ch=3 n=75 v=0
343980 On ch=3 n=84 v=0
343980 On ch=3 n=87 v=0
343980 On ch=3 n=96 v=0
343980 On ch=3 n=99 v=0
343980 On ch=3 n=63 v=0
344040 On ch=3 n=25 v=127
344154 On ch=3 n=25 v=0
344160 On ch=3 n=26 v=127
344160 On ch=3 n=42 v=127
344160 On ch=3 n=61 v=127
344160 On ch=3 n=63 v=127
344160 On ch=3 n=73 v=127
344160 On ch=3 n=75 v=127
344160 On ch=3 n=85 v=127
344160 On ch=3 n=87 v=127
344160 On ch=3 n=97 v=127
344160 On ch=3 n=99 v=127
344220 On ch=3 n=26 v=0
344220 On ch=3 n=42 v=0
344220 On ch=3 n=61 v=0
344220 On ch=3 n=63 v=0
344220 On ch=3 n=73 v=0
344220 On ch=3 n=75 v=0
344220 On ch=3 n=85 v=0
344220 On ch=3 n=87 v=0
344220 On ch=3 n=97 v=0
344220 On ch=3 n=99 v=0
344400 On ch=3 n=42 v=127
344400 On ch=3 n=75 v=127
344400 On ch=3 n=87 v=127
344400 On ch=3 n=99 v=127
344400 On ch=3 n=63 v=127
344460 On ch=3 n=42 v=0
344460 On ch=3 n=75 v=0
344460 On ch=3 n=87 v=0
344460 On ch=3 n=99 v=0
344460 On ch=3 n=63 v=0
344520 On ch=3 n=25 v=127
344634 On ch=3 n=25 v=0
344640 On ch=3 n=105 v=0
344640 On ch=3 n=24 v=127
344640 On ch=3 n=42 v=127
344640 On ch=3 n=63 v=127
344640 On ch=3 n=72 v=127
344640 On ch=3 n=75 v=127
344640 On ch=3 n=84 v=127
344640 On ch=3 n=87 v=127
344640 On ch=3 n=96 v=127
344640 On ch=3 n=99 v=127
344640 On ch=3 n=106 v=100
344640 On ch=3 n=60 v=100
344700 On ch=3 n=24 v=0
344700 On ch=3 n=42 v=0
344700 On ch=3 n=63 v=0
344700 On ch=3 n=72 v=0
344700 On ch=3 n=75 v=0
344700 On ch=3 n=84 v=0
344700 On ch=3 n=87 v=0
344700 On ch=3 n=96 v=0
344700 On ch=3 n=99 v=0
344700 On ch=3 n=60 v=0
344880 On ch=3 n=24 v=127
344880 On ch=3 n=42 v=127
344880 On ch=3 n=72 v=127
344880 On ch=3 n=75 v=127
344880 On ch=3 n=84 v=127
344880 On ch=3 n=87 v=127
344880 On ch=3 n=96 v=127
344880 On ch=3 n=99 v=127
344880 On ch=3 n=63 v=127
344940 On ch=3 n=24 v=0
344940 On ch=3 n=42 v=0
344940 On ch=3 n=72 v=0
344940 On ch=3 n=75 v=0
344940 On ch=3 n=84 v=0
344940 On ch=3 n=87 v=0
344940 On ch=3 n=96 v=0
344940 On ch=3 n=99 v=0
344940 On ch=3 n=63 v=0
345000 On ch=3 n=25 v=127
345114 On ch=3 n=25 v=0
345120 On ch=3 n=26 v=127
345120 On ch=3 n=42 v=127
345120 On ch=3 n=61 v=127
345120 On ch=3 n=63 v=127
345120 On ch=3 n=73 v=127
345120 On ch=3 n=75 v=127
345120 On ch=3 n=85 v=127
345120 On ch=3 n=87 v=127
345120 On ch=3 n=97 v=127
345120 On ch=3 n=99 v=127
345180 On ch=3 n=26 v=0
345180 On ch=3 n=42 v=0
345180 On ch=3 n=61 v=0
345180 On ch=3 n=63 v=0
345180 On ch=3 n=73 v=0
345180 On ch=3 n=75 v=0
345180 On ch=3 n=85 v=0
345180 On ch=3 n=87 v=0
345180 On ch=3 n=97 v=0
345180 On ch=3 n=99 v=0
345360 On ch=3 n=42 v=127
345360 On ch=3 n=75 v=127
345360 On ch=3 n=87 v=127
345360 On ch=3 n=99 v=127
345360 On ch=3 n=63 v=127
345420 On ch=3 n=42 v=0
345420 On ch=3 n=75 v=0
345420 On ch=3 n=87 v=0
345420 On ch=3 n=99 v=0
345420 On ch=3 n=63 v=0
345480 On ch=3 n=25 v=127
345594 On ch=3 n=25 v=0
345600 On ch=3 n=24 v=127
345600 On ch=3 n=42 v=127
345600 On ch=3 n=63 v=127
345600 On ch=3 n=72 v=127
345600 On ch=3 n=75 v=127
345600 On ch=3 n=84 v=127
345600 On ch=3 n=87 v=127
345600 On ch=3 n=96 v=127
345600 On ch=3 n=99 v=127
345660 On ch=3 n=24 v=0
345660 On ch=3 n=42 v=0
345660 On ch=3 n=63 v=0
345660 On ch=3 n=72 v=0
345660 On ch=3 n=75 v=0
345660 On ch=3 n=84 v=0
345660 On ch=3 n=87 v=0
345660 On ch=3 n=96 v=0
345660 On ch=3 n=99 v=0
345840 On ch=3 n=24 v=127
345840 On ch=3 n=42 v=127
345840 On ch=3 n=72 v=127
345840 On ch=3 n=75 v=127
345840 On ch=3 n=84 v=127
345840 On ch=3 n=87 v=127
345840 On ch=3 n=96 v=127
345840 On ch=3 n=99 v=127
345840 On ch=3 n=63 v=127
345900 On ch=3 n=24 v=0
345900 On ch=3 n=42 v=0
345900 On ch=3 n=72 v=0
345900 On ch=3 n=75 v=0
345900 On ch=3 n=84 v=0
345900 On ch=3 n=87 v=0
345900 On ch=3 n=96 v=0
345900 On ch=3 n=99 v=0
345900 On ch=3 n=63 v=0
345960 On ch=3 n=25 v=127
346074 On ch=3 n=25 v=0
346080 On ch=3 n=26 v=127
346080 On ch=3 n=42 v=127
346080 On ch=3 n=61 v=127
346080 On ch=3 n=63 v=127
346080 On ch=3 n=73 v=127
346080 On ch=3 n=75 v=127
346080 On ch=3 n=85 v=127
346080 On ch=3 n=87 v=127
346080 On ch=3 n=97 v=127
346080 On ch=3 n=99 v=127
346140 On ch=3 n=26 v=0
346140 On ch=3 n=42 v=0
346140 On ch=3 n=61 v=0
346140 On ch=3 n=63 v=0
346140 On ch=3 n=73 v=0
346140 On ch=3 n=75 v=0
346140 On ch=3 n=85 v=0
346140 On ch=3 n=87 v=0
346140 On ch=3 n=97 v=0
346140 On ch=3 n=99 v=0
346320 On ch=3 n=42 v=127
346320 On ch=3 n=75 v=127
346320 On ch=3 n=87 v=127
346320 On ch=3 n=99 v=127
346320 On ch=3 n=63 v=127
346380 On ch=3 n=42 v=0
346380 On ch=3 n=75 v=0
346380 On ch=3 n=87 v=0
346380 On ch=3 n=99 v=0
346380 On ch=3 n=63 v=0
346440 On ch=3 n=25 v=127
346554 On ch=3 n=25 v=0
346560 On ch=3 n=24 v=127
346560 On ch=3 n=42 v=127
346560 On ch=3 n=63 v=127
346560 On ch=3 n=72 v=127
346560 On ch=3 n=75 v=127
346560 On ch=3 n=84 v=127
346560 On ch=3 n=87 v=127
346560 On ch=3 n=96 v=127
346560 On ch=3 n=99 v=127
346620 On ch=3 n=24 v=0
346620 On ch=3 n=42 v=0
346620 On ch=3 n=63 v=0
346620 On ch=3 n=72 v=0
346620 On ch=3 n=75 v=0
346620 On ch=3 n=84 v=0
346620 On ch=3 n=87 v=0
346620 On ch=3 n=96 v=0
346620 On ch=3 n=99 v=0
346800 On ch=3 n=24 v=127
346800 On ch=3 n=42 v=127
346800 On ch=3 n=72 v=127
346800 On ch=3 n=75 v=127
346800 On ch=3 n=84 v=127
346800 On ch=3 n=87 v=127
346800 On ch=3 n=96 v=127
346800 On ch=3 n=99 v=127
346800 On ch=3 n=63 v=127
346860 On ch=3 n=24 v=0
346860 On ch=3 n=42 v=0
346860 On ch=3 n=72 v=0
346860 On ch=3 n=75 v=0
346860 On ch=3 n=84 v=0
346860 On ch=3 n=87 v=0
346860 On ch=3 n=96 v=0
346860 On ch=3 n=99 v=0
346860 On ch=3 n=63 v=0
346920 On ch=3 n=25 v=127
347034 On ch=3 n=25 v=0
347040 On ch=3 n=26 v=127
347040 On ch=3 n=42 v=127
347040 On ch=3 n=61 v=127
347040 On ch=3 n=63 v=127
347040 On ch=3 n=73 v=127
347040 On ch=3 n=75 v=127
347040 On ch=3 n=85 v=127
347040 On ch=3 n=87 v=127
347040 On ch=3 n=97 v=127
347040 On ch=3 n=99 v=127
347100 On ch=3 n=26 v=0
347100 On ch=3 n=42 v=0
347100 On ch=3 n=61 v=0
347100 On ch=3 n=63 v=0
347100 On ch=3 n=73 v=0
347100 On ch=3 n=75 v=0
347100 On ch=3 n=85 v=0
347100 On ch=3 n=87 v=0
347100 On ch=3 n=97 v=0
347100 On ch=3 n=99 v=0
347280 On ch=3 n=42 v=127
347280 On ch=3 n=75 v=127
347280 On ch=3 n=87 v=127
347280 On ch=3 n=99 v=127
347280 On ch=3 n=63 v=127
347340 On ch=3 n=42 v=0
347340 On ch=3 n=75 v=0
347340 On ch=3 n=87 v=0
347340 On ch=3 n=99 v=0
347340 On ch=3 n=63 v=0
347400 On ch=3 n=25 v=127
347514 On ch=3 n=25 v=0
347520 On ch=3 n=24 v=127
347520 On ch=3 n=42 v=127
347520 On ch=3 n=63 v=127
347520 On ch=3 n=72 v=127
347520 On ch=3 n=75 v=127
347520 On ch=3 n=84 v=127
347520 On ch=3 n=87 v=127
347520 On ch=3 n=96 v=127
347520 On ch=3 n=99 v=127
347520 On ch=3 n=120 v=127
347520 On ch=3 n=121 v=127
347520 On ch=3 n=122 v=127
347520 On ch=3 n=123 v=127
347520 On ch=3 n=124 v=127
347580 On ch=3 n=24 v=0
347580 On ch=3 n=42 v=0
347580 On ch=3 n=63 v=0
347580 On ch=3 n=72 v=0
347580 On ch=3 n=75 v=0
347580 On ch=3 n=84 v=0
347580 On ch=3 n=87 v=0
347580 On ch=3 n=96 v=0
347580 On ch=3 n=99 v=0
347760 On ch=3 n=24 v=127
347760 On ch=3 n=42 v=127
347760 On ch=3 n=72 v=127
347760 On ch=3 n=75 v=127
347760 On ch=3 n=84 v=127
347760 On ch=3 n=87 v=127
347760 On ch=3 n=96 v=127
347760 On ch=3 n=99 v=127
347760 On ch=3 n=63 v=127
347820 On ch=3 n=24 v=0
347820 On ch=3 n=42 v=0
347820 On ch=3 n=72 v=0
347820 On ch=3 n=75 v=0
347820 On ch=3 n=84 v=0
347820 On ch=3 n=87 v=0
347820 On ch=3 n=96 v=0
347820 On ch=3 n=99 v=0
347820 On ch=3 n=63 v=0
347880 On ch=3 n=25 v=127
347994 On ch=3 n=25 v=0
348000 On ch=3 n=26 v=127
348000 On ch=3 n=42 v=127
348000 On ch=3 n=61 v=127
348000 On ch=3 n=63 v=127
348000 On ch=3 n=73 v=127
348000 On ch=3 n=75 v=127
348000 On ch=3 n=85 v=127
348000 On ch=3 n=87 v=127
348000 On ch=3 n=97 v=127
348000 On ch=3 n=99 v=127
348060 On ch=3 n=26 v=0
348060 On ch=3 n=42 v=0
348060 On ch=3 n=61 v=0
348060 On ch=3 n=63 v=0
348060 On ch=3 n=73 v=0
348060 On ch=3 n=75 v=0
348060 On ch=3 n=85 v=0
348060 On ch=3 n=87 v=0
348060 On ch=3 n=97 v=0
348060 On ch=3 n=99 v=0
348240 On ch=3 n=42 v=127
348240 On ch=3 n=75 v=127
348240 On ch=3 n=87 v=127
348240 On ch=3 n=99 v=127
348240 On ch=3 n=63 v=127
348300 On ch=3 n=42 v=0
348300 On ch=3 n=75 v=0
348300 On ch=3 n=87 v=0
348300 On ch=3 n=99 v=0
348300 On ch=3 n=63 v=0
348360 On ch=3 n=25 v=127
348474 On ch=3 n=25 v=0
348476 On ch=3 n=120 v=0
348476 On ch=3 n=121 v=0
348476 On ch=3 n=122 v=0
348476 On ch=3 n=123 v=0
348476 On ch=3 n=124 v=0
348480 On ch=3 n=106 v=0
348480 On ch=3 n=24 v=127
348480 On ch=3 n=42 v=127
348480 On ch=3 n=63 v=127
348480 On ch=3 n=72 v=127
348480 On ch=3 n=75 v=127
348480 On ch=3 n=84 v=127
348480 On ch=3 n=87 v=127
348480 On ch=3 n=96 v=127
348480 On ch=3 n=99 v=127
348480 On ch=3 n=105 v=100
348480 On ch=3 n=60 v=100
348540 On ch=3 n=24 v=0
348540 On ch=3 n=42 v=0
348540 On ch=3 n=63 v=0
348540 On ch=3 n=72 v=0
348540 On ch=3 n=75 v=0
348540 On ch=3 n=84 v=0
348540 On ch=3 n=87 v=0
348540 On ch=3 n=96 v=0
348540 On ch=3 n=99 v=0
348540 On ch=3 n=60 v=0
348720 On ch=3 n=24 v=127
348720 On ch=3 n=42 v=127
348720 On ch=3 n=72 v=127
348720 On ch=3 n=75 v=127
348720 On ch=3 n=84 v=127
348720 On ch=3 n=87 v=127
348720 On ch=3 n=96 v=127
348720 On ch=3 n=99 v=127
348720 On ch=3 n=63 v=127
348780 On ch=3 n=24 v=0
348780 On ch=3 n=42 v=0
348780 On ch=3 n=72 v=0
348780 On ch=3 n=75 v=0
348780 On ch=3 n=84 v=0
348780 On ch=3 n=87 v=0
348780 On ch=3 n=96 v=0
348780 On ch=3 n=99 v=0
348780 On ch=3 n=63 v=0
348840 On ch=3 n=25 v=127
348954 On ch=3 n=25 v=0
348960 On ch=3 n=26 v=127
348960 On ch=3 n=42 v=127
348960 On ch=3 n=61 v=127
348960 On ch=3 n=63 v=127
348960 On ch=3 n=73 v=127
348960 On ch=3 n=75 v=127
348960 On ch=3 n=85 v=127
348960 On ch=3 n=87 v=127
348960 On ch=3 n=97 v=127
348960 On ch=3 n=99 v=127
349020 On ch=3 n=26 v=0
349020 On ch=3 n=42 v=0
349020 On ch=3 n=61 v=0
349020 On ch=3 n=63 v=0
349020 On ch=3 n=73 v=0
349020 On ch=3 n=75 v=0
349020 On ch=3 n=85 v=0
349020 On ch=3 n=87 v=0
349020 On ch=3 n=97 v=0
349020 On ch=3 n=99 v=0
349200 On ch=3 n=42 v=127
349200 On ch=3 n=75 v=127
349200 On ch=3 n=87 v=127
349200 On ch=3 n=99 v=127
349200 On ch=3 n=63 v=127
349260 On ch=3 n=42 v=0
349260 On ch=3 n=75 v=0
349260 On ch=3 n=87 v=0
349260 On ch=3 n=99 v=0
349260 On ch=3 n=63 v=0
349320 On ch=3 n=25 v=127
349434 On ch=3 n=25 v=0
349440 On ch=3 n=24 v=127
349440 On ch=3 n=42 v=127
349440 On ch=3 n=63 v=127
349440 On ch=3 n=72 v=127
349440 On ch=3 n=75 v=127
349440 On ch=3 n=84 v=127
349440 On ch=3 n=87 v=127
349440 On ch=3 n=96 v=127
349440 On ch=3 n=99 v=127
349500 On ch=3 n=24 v=0
349500 On ch=3 n=42 v=0
349500 On ch=3 n=63 v=0
349500 On ch=3 n=72 v=0
349500 On ch=3 n=75 v=0
349500 On ch=3 n=84 v=0
349500 On ch=3 n=87 v=0
349500 On ch=3 n=96 v=0
349500 On ch=3 n=99 v=0
349680 On ch=3 n=24 v=127
349680 On ch=3 n=42 v=127
349680 On ch=3 n=72 v=127
349680 On ch=3 n=75 v=127
349680 On ch=3 n=84 v=127
349680 On ch=3 n=87 v=127
349680 On ch=3 n=96 v=127
349680 On ch=3 n=99 v=127
349680 On ch=3 n=63 v=127
349740 On ch=3 n=24 v=0
349740 On ch=3 n=42 v=0
349740 On ch=3 n=72 v=0
349740 On ch=3 n=75 v=0
349740 On ch=3 n=84 v=0
349740 On ch=3 n=87 v=0
349740 On ch=3 n=96 v=0
349740 On ch=3 n=99 v=0
349740 On ch=3 n=63 v=0
349800 On ch=3 n=25 v=127
349914 On ch=3 n=25 v=0
349920 On ch=3 n=26 v=127
349920 On ch=3 n=42 v=127
349920 On ch=3 n=61 v=127
349920 On ch=3 n=63 v=127
349920 On ch=3 n=73 v=127
349920 On ch=3 n=75 v=127
349920 On ch=3 n=85 v=127
349920 On ch=3 n=87 v=127
349920 On ch=3 n=97 v=127
349920 On ch=3 n=99 v=127
349980 On ch=3 n=26 v=0
349980 On ch=3 n=42 v=0
349980 On ch=3 n=61 v=0
349980 On ch=3 n=63 v=0
349980 On ch=3 n=73 v=0
349980 On ch=3 n=75 v=0
349980 On ch=3 n=85 v=0
349980 On ch=3 n=87 v=0
349980 On ch=3 n=97 v=0
349980 On ch=3 n=99 v=0
350160 On ch=3 n=42 v=127
350160 On ch=3 n=75 v=127
350160 On ch=3 n=87 v=127
350160 On ch=3 n=99 v=127
350160 On ch=3 n=63 v=127
350220 On ch=3 n=42 v=0
350220 On ch=3 n=75 v=0
350220 On ch=3 n=87 v=0
350220 On ch=3 n=99 v=0
350220 On ch=3 n=63 v=0
350280 On ch=3 n=25 v=127
350394 On ch=3 n=25 v=0
350400 On ch=3 n=24 v=127
350400 On ch=3 n=42 v=127
350400 On ch=3 n=63 v=127
350400 On ch=3 n=72 v=127
350400 On ch=3 n=75 v=127
350400 On ch=3 n=84 v=127
350400 On ch=3 n=87 v=127
350400 On ch=3 n=96 v=127
350400 On ch=3 n=99 v=127
350460 On ch=3 n=24 v=0
350460 On ch=3 n=42 v=0
350460 On ch=3 n=63 v=0
350460 On ch=3 n=72 v=0
350460 On ch=3 n=75 v=0
350460 On ch=3 n=84 v=0
350460 On ch=3 n=87 v=0
350460 On ch=3 n=96 v=0
350460 On ch=3 n=99 v=0
350640 On ch=3 n=24 v=127
350640 On ch=3 n=42 v=127
350640 On ch=3 n=72 v=127
350640 On ch=3 n=75 v=127
350640 On ch=3 n=84 v=127
350640 On ch=3 n=87 v=127
350640 On ch=3 n=96 v=127
350640 On ch=3 n=99 v=127
350640 On ch=3 n=63 v=127
350700 On ch=3 n=24 v=0
350700 On ch=3 n=42 v=0
350700 On ch=3 n=72 v=0
350700 On ch=3 n=75 v=0
350700 On ch=3 n=84 v=0
350700 On ch=3 n=87 v=0
350700 On ch=3 n=96 v=0
350700 On ch=3 n=99 v=0
350700 On ch=3 n=63 v=0
350760 On ch=3 n=25 v=127
350874 On ch=3 n=25 v=0
350880 On ch=3 n=26 v=127
350880 On ch=3 n=42 v=127
350880 On ch=3 n=61 v=127
350880 On ch=3 n=63 v=127
350880 On ch=3 n=73 v=127
350880 On ch=3 n=75 v=127
350880 On ch=3 n=85 v=127
350880 On ch=3 n=87 v=127
350880 On ch=3 n=97 v=127
350880 On ch=3 n=99 v=127
350940 On ch=3 n=26 v=0
350940 On ch=3 n=42 v=0
350940 On ch=3 n=61 v=0
350940 On ch=3 n=63 v=0
350940 On ch=3 n=73 v=0
350940 On ch=3 n=75 v=0
350940 On ch=3 n=85 v=0
350940 On ch=3 n=87 v=0
350940 On ch=3 n=97 v=0
350940 On ch=3 n=99 v=0
351120 On ch=3 n=42 v=127
351120 On ch=3 n=75 v=127
351120 On ch=3 n=87 v=127
351120 On ch=3 n=99 v=127
351120 On ch=3 n=63 v=127
351180 On ch=3 n=42 v=0
351180 On ch=3 n=75 v=0
351180 On ch=3 n=87 v=0
351180 On ch=3 n=99 v=0
351180 On ch=3 n=63 v=0
351240 On ch=3 n=25 v=127
351354 On ch=3 n=25 v=0
351360 On ch=3 n=24 v=127
351360 On ch=3 n=42 v=127
351360 On ch=3 n=63 v=127
351360 On ch=3 n=72 v=127
351360 On ch=3 n=75 v=127
351360 On ch=3 n=84 v=127
351360 On ch=3 n=87 v=127
351360 On ch=3 n=96 v=127
351360 On ch=3 n=99 v=127
351420 On ch=3 n=24 v=0
351420 On ch=3 n=42 v=0
351420 On ch=3 n=63 v=0
351420 On ch=3 n=72 v=0
351420 On ch=3 n=75 v=0
351420 On ch=3 n=84 v=0
351420 On ch=3 n=87 v=0
351420 On ch=3 n=96 v=0
351420 On ch=3 n=99 v=0
351600 On ch=3 n=24 v=127
351600 On ch=3 n=42 v=127
351600 On ch=3 n=72 v=127
351600 On ch=3 n=75 v=127
351600 On ch=3 n=84 v=127
351600 On ch=3 n=87 v=127
351600 On ch=3 n=96 v=127
351600 On ch=3 n=99 v=127
351600 On ch=3 n=63 v=127
351660 On ch=3 n=24 v=0
351660 On ch=3 n=42 v=0
351660 On ch=3 n=72 v=0
351660 On ch=3 n=75 v=0
351660 On ch=3 n=84 v=0
351660 On ch=3 n=87 v=0
351660 On ch=3 n=96 v=0
351660 On ch=3 n=99 v=0
351660 On ch=3 n=63 v=0
351720 On ch=3 n=25 v=127
351834 On ch=3 n=25 v=0
351840 On ch=3 n=26 v=127
351840 On ch=3 n=42 v=127
351840 On ch=3 n=61 v=127
351840 On ch=3 n=63 v=127
351840 On ch=3 n=73 v=127
351840 On ch=3 n=75 v=127
351840 On ch=3 n=85 v=127
351840 On ch=3 n=87 v=127
351840 On ch=3 n=97 v=127
351840 On ch=3 n=99 v=127
351900 On ch=3 n=26 v=0
351900 On ch=3 n=42 v=0
351900 On ch=3 n=61 v=0
351900 On ch=3 n=63 v=0
351900 On ch=3 n=73 v=0
351900 On ch=3 n=75 v=0
351900 On ch=3 n=85 v=0
351900 On ch=3 n=87 v=0
351900 On ch=3 n=97 v=0
351900 On ch=3 n=99 v=0
352080 On ch=3 n=42 v=127
352080 On ch=3 n=75 v=127
352080 On ch=3 n=87 v=127
352080 On ch=3 n=99 v=127
352080 On ch=3 n=63 v=127
352140 On ch=3 n=42 v=0
352140 On ch=3 n=75 v=0
352140 On ch=3 n=87 v=0
352140 On ch=3 n=99 v=0
352140 On ch=3 n=63 v=0
352200 On ch=3 n=25 v=127
352314 On ch=3 n=25 v=0
352320 On ch=3 n=24 v=127
352320 On ch=3 n=42 v=127
352320 On ch=3 n=63 v=127
352320 On ch=3 n=72 v=127
352320 On ch=3 n=75 v=127
352320 On ch=3 n=84 v=127
352320 On ch=3 n=87 v=127
352320 On ch=3 n=96 v=127
352320 On ch=3 n=99 v=127
352320 On ch=3 n=106 v=100
352320 On ch=3 n=116 v=100
352320 On ch=3 n=60 v=100
352380 On ch=3 n=24 v=0
352380 On ch=3 n=42 v=0
352380 On ch=3 n=63 v=0
352380 On ch=3 n=72 v=0
352380 On ch=3 n=75 v=0
352380 On ch=3 n=84 v=0
352380 On ch=3 n=87 v=0
352380 On ch=3 n=96 v=0
352380 On ch=3 n=99 v=0
352380 On ch=3 n=60 v=0
352560 On ch=3 n=24 v=127
352560 On ch=3 n=42 v=127
352560 On ch=3 n=72 v=127
352560 On ch=3 n=75 v=127
352560 On ch=3 n=84 v=127
352560 On ch=3 n=87 v=127
352560 On ch=3 n=96 v=127
352560 On ch=3 n=99 v=127
352560 On ch=3 n=63 v=127
352620 On ch=3 n=24 v=0
352620 On ch=3 n=42 v=0
352620 On ch=3 n=72 v=0
352620 On ch=3 n=75 v=0
352620 On ch=3 n=84 v=0
352620 On ch=3 n=87 v=0
352620 On ch=3 n=96 v=0
352620 On ch=3 n=99 v=0
352620 On ch=3 n=63 v=0
352680 On ch=3 n=25 v=127
352794 On ch=3 n=25 v=0
352800 On ch=3 n=26 v=127
352800 On ch=3 n=42 v=127
352800 On ch=3 n=61 v=127
352800 On ch=3 n=63 v=127
352800 On ch=3 n=73 v=127
352800 On ch=3 n=75 v=127
352800 On ch=3 n=85 v=127
352800 On ch=3 n=87 v=127
352800 On ch=3 n=97 v=127
352800 On ch=3 n=99 v=127
352860 On ch=3 n=26 v=0
352860 On ch=3 n=42 v=0
352860 On ch=3 n=61 v=0
352860 On ch=3 n=63 v=0
352860 On ch=3 n=73 v=0
352860 On ch=3 n=75 v=0
352860 On ch=3 n=85 v=0
352860 On ch=3 n=87 v=0
352860 On ch=3 n=97 v=0
352860 On ch=3 n=99 v=0
353040 On ch=3 n=42 v=127
353040 On ch=3 n=75 v=127
353040 On ch=3 n=87 v=127
353040 On ch=3 n=99 v=127
353040 On ch=3 n=63 v=127
353100 On ch=3 n=42 v=0
353100 On ch=3 n=75 v=0
353100 On ch=3 n=87 v=0
353100 On ch=3 n=99 v=0
353100 On ch=3 n=63 v=0
353160 On ch=3 n=25 v=127
353274 On ch=3 n=25 v=0
353280 On ch=3 n=24 v=127
353280 On ch=3 n=42 v=127
353280 On ch=3 n=63 v=127
353280 On ch=3 n=72 v=127
353280 On ch=3 n=75 v=127
353280 On ch=3 n=84 v=127
353280 On ch=3 n=87 v=127
353280 On ch=3 n=96 v=127
353280 On ch=3 n=99 v=127
353340 On ch=3 n=24 v=0
353340 On ch=3 n=42 v=0
353340 On ch=3 n=63 v=0
353340 On ch=3 n=72 v=0
353340 On ch=3 n=75 v=0
353340 On ch=3 n=84 v=0
353340 On ch=3 n=87 v=0
353340 On ch=3 n=96 v=0
353340 On ch=3 n=99 v=0
353520 On ch=3 n=24 v=127
353520 On ch=3 n=42 v=127
353520 On ch=3 n=72 v=127
353520 On ch=3 n=75 v=127
353520 On ch=3 n=84 v=127
353520 On ch=3 n=87 v=127
353520 On ch=3 n=96 v=127
353520 On ch=3 n=99 v=127
353520 On ch=3 n=63 v=127
353580 On ch=3 n=24 v=0
353580 On ch=3 n=42 v=0
353580 On ch=3 n=72 v=0
353580 On ch=3 n=75 v=0
353580 On ch=3 n=84 v=0
353580 On ch=3 n=87 v=0
353580 On ch=3 n=96 v=0
353580 On ch=3 n=99 v=0
353580 On ch=3 n=63 v=0
353640 On ch=3 n=25 v=127
353754 On ch=3 n=25 v=0
353760 On ch=3 n=26 v=127
353760 On ch=3 n=42 v=127
353760 On ch=3 n=61 v=127
353760 On ch=3 n=63 v=127
353760 On ch=3 n=73 v=127
353760 On ch=3 n=75 v=127
353760 On ch=3 n=85 v=127
353760 On ch=3 n=87 v=127
353760 On ch=3 n=97 v=127
353760 On ch=3 n=99 v=127
353820 On ch=3 n=26 v=0
353820 On ch=3 n=42 v=0
353820 On ch=3 n=61 v=0
353820 On ch=3 n=63 v=0
353820 On ch=3 n=73 v=0
353820 On ch=3 n=75 v=0
353820 On ch=3 n=85 v=0
353820 On ch=3 n=87 v=0
353820 On ch=3 n=97 v=0
353820 On ch=3 n=99 v=0
354000 On ch=3 n=42 v=127
354000 On ch=3 n=75 v=127
354000 On ch=3 n=87 v=127
354000 On ch=3 n=99 v=127
354000 On ch=3 n=63 v=127
354060 On ch=3 n=42 v=0
354060 On ch=3 n=75 v=0
354060 On ch=3 n=87 v=0
354060 On ch=3 n=99 v=0
354060 On ch=3 n=63 v=0
354120 On ch=3 n=25 v=127
354234 On ch=3 n=25 v=0
354240 On ch=3 n=116 v=0
354240 On ch=3 n=24 v=127
354240 On ch=3 n=42 v=127
354240 On ch=3 n=63 v=127
354240 On ch=3 n=72 v=127
354240 On ch=3 n=75 v=127
354240 On ch=3 n=84 v=127
354240 On ch=3 n=87 v=127
354240 On ch=3 n=96 v=127
354240 On ch=3 n=99 v=127
354300 On ch=3 n=24 v=0
354300 On ch=3 n=42 v=0
354300 On ch=3 n=63 v=0
354300 On ch=3 n=72 v=0
354300 On ch=3 n=75 v=0
354300 On ch=3 n=84 v=0
354300 On ch=3 n=87 v=0
354300 On ch=3 n=96 v=0
354300 On ch=3 n=99 v=0
354480 On ch=3 n=24 v=127
354480 On ch=3 n=42 v=127
354480 On ch=3 n=72 v=127
354480 On ch=3 n=75 v=127
354480 On ch=3 n=84 v=127
354480 On ch=3 n=87 v=127
354480 On ch=3 n=96 v=127
354480 On ch=3 n=99 v=127
354480 On ch=3 n=63 v=127
354540 On ch=3 n=24 v=0
354540 On ch=3 n=42 v=0
354540 On ch=3 n=72 v=0
354540 On ch=3 n=75 v=0
354540 On ch=3 n=84 v=0
354540 On ch=3 n=87 v=0
354540 On ch=3 n=96 v=0
354540 On ch=3 n=99 v=0
354540 On ch=3 n=63 v=0
354600 On ch=3 n=25 v=127
354714 On ch=3 n=25 v=0
354720 On ch=3 n=26 v=127
354720 On ch=3 n=42 v=127
354720 On ch=3 n=61 v=127
354720 On ch=3 n=63 v=127
354720 On ch=3 n=73 v=127
354720 On ch=3 n=75 v=127
354720 On ch=3 n=85 v=127
354720 On ch=3 n=87 v=127
354720 On ch=3 n=97 v=127
354720 On ch=3 n=99 v=127
354780 On ch=3 n=26 v=0
354780 On ch=3 n=42 v=0
354780 On ch=3 n=61 v=0
354780 On ch=3 n=63 v=0
354780 On ch=3 n=73 v=0
354780 On ch=3 n=75 v=0
354780 On ch=3 n=85 v=0
354780 On ch=3 n=87 v=0
354780 On ch=3 n=97 v=0
354780 On ch=3 n=99 v=0
354960 On ch=3 n=42 v=127
354960 On ch=3 n=75 v=127
354960 On ch=3 n=87 v=127
354960 On ch=3 n=99 v=127
354960 On ch=3 n=63 v=127
355020 On ch=3 n=42 v=0
355020 On ch=3 n=75 v=0
355020 On ch=3 n=87 v=0
355020 On ch=3 n=99 v=0
355020 On ch=3 n=63 v=0
355080 On ch=3 n=25 v=127
355194 On ch=3 n=25 v=0
355200 On ch=3 n=24 v=127
355200 On ch=3 n=42 v=127
355200 On ch=3 n=63 v=127
355200 On ch=3 n=72 v=127
355200 On ch=3 n=75 v=127
355200 On ch=3 n=84 v=127
355200 On ch=3 n=87 v=127
355200 On ch=3 n=96 v=127
355200 On ch=3 n=99 v=127
355200 On ch=3 n=120 v=127
355200 On ch=3 n=121 v=127
355200 On ch=3 n=122 v=127
355200 On ch=3 n=123 v=127
355200 On ch=3 n=124 v=127
355260 On ch=3 n=24 v=0
355260 On ch=3 n=42 v=0
355260 On ch=3 n=63 v=0
355260 On ch=3 n=72 v=0
355260 On ch=3 n=75 v=0
355260 On ch=3 n=84 v=0
355260 On ch=3 n=87 v=0
355260 On ch=3 n=96 v=0
355260 On ch=3 n=99 v=0
355440 On ch=3 n=24 v=127
355440 On ch=3 n=42 v=127
355440 On ch=3 n=72 v=127
355440 On ch=3 n=75 v=127
355440 On ch=3 n=84 v=127
355440 On ch=3 n=87 v=127
355440 On ch=3 n=96 v=127
355440 On ch=3 n=99 v=127
355440 On ch=3 n=63 v=127
355500 On ch=3 n=24 v=0
355500 On ch=3 n=42 v=0
355500 On ch=3 n=72 v=0
355500 On ch=3 n=75 v=0
355500 On ch=3 n=84 v=0
355500 On ch=3 n=87 v=0
355500 On ch=3 n=96 v=0
355500 On ch=3 n=99 v=0
355500 On ch=3 n=63 v=0
355560 On ch=3 n=25 v=127
355674 On ch=3 n=25 v=0
355680 On ch=3 n=24 v=127
355680 On ch=3 n=27 v=127
355680 On ch=3 n=61 v=127
355680 On ch=3 n=73 v=127
355680 On ch=3 n=85 v=127
355680 On ch=3 n=96 v=127
355680 On ch=3 n=97 v=127
355740 On ch=3 n=24 v=0
355740 On ch=3 n=27 v=0
355740 On ch=3 n=61 v=0
355740 On ch=3 n=73 v=0
355740 On ch=3 n=85 v=0
355740 On ch=3 n=96 v=0
355740 On ch=3 n=97 v=0
355800 On ch=3 n=26 v=127
355800 On ch=3 n=85 v=127
355800 On ch=3 n=97 v=127
355860 On ch=3 n=26 v=0
355860 On ch=3 n=85 v=0
355860 On ch=3 n=97 v=0
355920 On ch=3 n=24 v=127
355920 On ch=3 n=27 v=127
355920 On ch=3 n=73 v=127
355920 On ch=3 n=85 v=127
355920 On ch=3 n=96 v=127
355920 On ch=3 n=97 v=127
355980 On ch=3 n=24 v=0
355980 On ch=3 n=27 v=0
355980 On ch=3 n=73 v=0
355980 On ch=3 n=85 v=0
355980 On ch=3 n=96 v=0
355980 On ch=3 n=97 v=0
356040 On ch=3 n=25 v=127
356040 On ch=3 n=26 v=127
356040 On ch=3 n=85 v=127
356040 On ch=3 n=97 v=127
356100 On ch=3 n=26 v=0
356100 On ch=3 n=85 v=0
356100 On ch=3 n=97 v=0
356154 On ch=3 n=25 v=0
356156 On ch=3 n=120 v=0
356156 On ch=3 n=121 v=0
356156 On ch=3 n=122 v=0
356156 On ch=3 n=123 v=0
356156 On ch=3 n=124 v=0
356160 On ch=3 n=105 v=0
356160 On ch=3 n=24 v=127
356160 On ch=3 n=38 v=127
356160 On ch=3 n=64 v=127
356160 On ch=3 n=72 v=127
356160 On ch=3 n=76 v=127
356160 On ch=3 n=84 v=127
356160 On ch=3 n=88 v=127
356160 On ch=3 n=96 v=127
356160 On ch=3 n=100 v=127
356160 On ch=3 n=60 v=100
356220 On ch=3 n=24 v=0
356220 On ch=3 n=38 v=0
356220 On ch=3 n=64 v=0
356220 On ch=3 n=72 v=0
356220 On ch=3 n=76 v=0
356220 On ch=3 n=84 v=0
356220 On ch=3 n=88 v=0
356220 On ch=3 n=96 v=0
356220 On ch=3 n=100 v=0
356220 On ch=3 n=60 v=0
356400 On ch=3 n=24 v=127
356400 On ch=3 n=42 v=127
356400 On ch=3 n=84 v=127
356400 On ch=3 n=87 v=127
356400 On ch=3 n=96 v=127
356400 On ch=3 n=99 v=127
356400 On ch=3 n=75 v=100
356400 On ch=3 n=63 v=100
356460 On ch=3 n=24 v=0
356460 On ch=3 n=42 v=0
356460 On ch=3 n=84 v=0
356460 On ch=3 n=87 v=0
356460 On ch=3 n=96 v=0
356460 On ch=3 n=99 v=0
356460 On ch=3 n=75 v=0
356460 On ch=3 n=63 v=0
356520 On ch=3 n=25 v=127
356634 On ch=3 n=25 v=0
356640 On ch=3 n=26 v=127
356640 On ch=3 n=42 v=127
356640 On ch=3 n=61 v=127
356640 On ch=3 n=63 v=127
356640 On ch=3 n=73 v=127
356640 On ch=3 n=75 v=127
356640 On ch=3 n=85 v=127
356640 On ch=3 n=87 v=127
356640 On ch=3 n=97 v=127
356640 On ch=3 n=99 v=127
356700 On ch=3 n=26 v=0
356700 On ch=3 n=42 v=0
356700 On ch=3 n=61 v=0
356700 On ch=3 n=63 v=0
356700 On ch=3 n=73 v=0
356700 On ch=3 n=75 v=0
356700 On ch=3 n=85 v=0
356700 On ch=3 n=87 v=0
356700 On ch=3 n=97 v=0
356700 On ch=3 n=99 v=0
356880 On ch=3 n=42 v=127
356880 On ch=3 n=75 v=127
356880 On ch=3 n=87 v=127
356880 On ch=3 n=99 v=127
356880 On ch=3 n=63 v=127
356940 On ch=3 n=42 v=0
356940 On ch=3 n=75 v=0
356940 On ch=3 n=87 v=0
356940 On ch=3 n=99 v=0
356940 On ch=3 n=63 v=0
357000 On ch=3 n=25 v=127
357114 On ch=3 n=25 v=0
357120 On ch=3 n=24 v=127
357120 On ch=3 n=42 v=127
357120 On ch=3 n=63 v=127
357120 On ch=3 n=72 v=127
357120 On ch=3 n=75 v=127
357120 On ch=3 n=84 v=127
357120 On ch=3 n=87 v=127
357120 On ch=3 n=96 v=127
357120 On ch=3 n=99 v=127
357180 On ch=3 n=24 v=0
357180 On ch=3 n=42 v=0
357180 On ch=3 n=63 v=0
357180 On ch=3 n=72 v=0
357180 On ch=3 n=75 v=0
357180 On ch=3 n=84 v=0
357180 On ch=3 n=87 v=0
357180 On ch=3 n=96 v=0
357180 On ch=3 n=99 v=0
357360 On ch=3 n=24 v=127
357360 On ch=3 n=42 v=127
357360 On ch=3 n=72 v=127
357360 On ch=3 n=75 v=127
357360 On ch=3 n=84 v=127
357360 On ch=3 n=87 v=127
357360 On ch=3 n=96 v=127
357360 On ch=3 n=99 v=127
357360 On ch=3 n=63 v=127
357420 On ch=3 n=24 v=0
357420 On ch=3 n=42 v=0
357420 On ch=3 n=72 v=0
357420 On ch=3 n=75 v=0
357420 On ch=3 n=84 v=0
357420 On ch=3 n=87 v=0
357420 On ch=3 n=96 v=0
357420 On ch=3 n=99 v=0
357420 On ch=3 n=63 v=0
357480 On ch=3 n=25 v=127
357594 On ch=3 n=25 v=0
357600 On ch=3 n=26 v=127
357600 On ch=3 n=42 v=127
357600 On ch=3 n=61 v=127
357600 On ch=3 n=63 v=127
357600 On ch=3 n=73 v=127
357600 On ch=3 n=75 v=127
357600 On ch=3 n=85 v=127
357600 On ch=3 n=87 v=127
357600 On ch=3 n=97 v=127
357600 On ch=3 n=99 v=127
357660 On ch=3 n=26 v=0
357660 On ch=3 n=42 v=0
357660 On ch=3 n=61 v=0
357660 On ch=3 n=63 v=0
357660 On ch=3 n=73 v=0
357660 On ch=3 n=75 v=0
357660 On ch=3 n=85 v=0
357660 On ch=3 n=87 v=0
357660 On ch=3 n=97 v=0
357660 On ch=3 n=99 v=0
357840 On ch=3 n=42 v=127
357840 On ch=3 n=75 v=127
357840 On ch=3 n=87 v=127
357840 On ch=3 n=99 v=127
357840 On ch=3 n=63 v=127
357900 On ch=3 n=42 v=0
357900 On ch=3 n=75 v=0
357900 On ch=3 n=87 v=0
357900 On ch=3 n=99 v=0
357900 On ch=3 n=63 v=0
357960 On ch=3 n=25 v=127
358074 On ch=3 n=25 v=0
358080 On ch=3 n=24 v=127
358080 On ch=3 n=42 v=127
358080 On ch=3 n=63 v=127
358080 On ch=3 n=72 v=127
358080 On ch=3 n=75 v=127
358080 On ch=3 n=84 v=127
358080 On ch=3 n=87 v=127
358080 On ch=3 n=96 v=127
358080 On ch=3 n=99 v=127
358140 On ch=3 n=24 v=0
358140 On ch=3 n=42 v=0
358140 On ch=3 n=63 v=0
358140 On ch=3 n=72 v=0
358140 On ch=3 n=75 v=0
358140 On ch=3 n=84 v=0
358140 On ch=3 n=87 v=0
358140 On ch=3 n=96 v=0
358140 On ch=3 n=99 v=0
358320 On ch=3 n=24 v=127
358320 On ch=3 n=42 v=127
358320 On ch=3 n=72 v=127
358320 On ch=3 n=75 v=127
358320 On ch=3 n=84 v=127
358320 On ch=3 n=87 v=127
358320 On ch=3 n=96 v=127
358320 On ch=3 n=99 v=127
358320 On ch=3 n=63 v=127
358380 On ch=3 n=24 v=0
358380 On ch=3 n=42 v=0
358380 On ch=3 n=72 v=0
358380 On ch=3 n=75 v=0
358380 On ch=3 n=84 v=0
358380 On ch=3 n=87 v=0
358380 On ch=3 n=96 v=0
358380 On ch=3 n=99 v=0
358380 On ch=3 n=63 v=0
358440 On ch=3 n=25 v=127
358554 On ch=3 n=25 v=0
358560 On ch=3 n=26 v=127
358560 On ch=3 n=42 v=127
358560 On ch=3 n=61 v=127
358560 On ch=3 n=63 v=127
358560 On ch=3 n=73 v=127
358560 On ch=3 n=75 v=127
358560 On ch=3 n=85 v=127
358560 On ch=3 n=87 v=127
358560 On ch=3 n=97 v=127
358560 On ch=3 n=99 v=127
358620 On ch=3 n=26 v=0
358620 On ch=3 n=42 v=0
358620 On ch=3 n=61 v=0
358620 On ch=3 n=63 v=0
358620 On ch=3 n=73 v=0
358620 On ch=3 n=75 v=0
358620 On ch=3 n=85 v=0
358620 On ch=3 n=87 v=0
358620 On ch=3 n=97 v=0
358620 On ch=3 n=99 v=0
358800 On ch=3 n=42 v=127
358800 On ch=3 n=75 v=127
358800 On ch=3 n=87 v=127
358800 On ch=3 n=99 v=127
358800 On ch=3 n=63 v=127
358860 On ch=3 n=42 v=0
358860 On ch=3 n=75 v=0
358860 On ch=3 n=87 v=0
358860 On ch=3 n=99 v=0
358860 On ch=3 n=63 v=0
358920 On ch=3 n=25 v=127
359034 On ch=3 n=25 v=0
359040 On ch=3 n=24 v=127
359040 On ch=3 n=42 v=127
359040 On ch=3 n=63 v=127
359040 On ch=3 n=72 v=127
359040 On ch=3 n=75 v=127
359040 On ch=3 n=84 v=127
359040 On ch=3 n=87 v=127
359040 On ch=3 n=96 v=127
359040 On ch=3 n=99 v=127
359100 On ch=3 n=24 v=0
359100 On ch=3 n=42 v=0
359100 On ch=3 n=63 v=0
359100 On ch=3 n=72 v=0
359100 On ch=3 n=75 v=0
359100 On ch=3 n=84 v=0
359100 On ch=3 n=87 v=0
359100 On ch=3 n=96 v=0
359100 On ch=3 n=99 v=0
359280 On ch=3 n=24 v=127
359280 On ch=3 n=42 v=127
359280 On ch=3 n=72 v=127
359280 On ch=3 n=75 v=127
359280 On ch=3 n=84 v=127
359280 On ch=3 n=87 v=127
359280 On ch=3 n=96 v=127
359280 On ch=3 n=99 v=127
359280 On ch=3 n=63 v=127
359340 On ch=3 n=24 v=0
359340 On ch=3 n=42 v=0
359340 On ch=3 n=72 v=0
359340 On ch=3 n=75 v=0
359340 On ch=3 n=84 v=0
359340 On ch=3 n=87 v=0
359340 On ch=3 n=96 v=0
359340 On ch=3 n=99 v=0
359340 On ch=3 n=63 v=0
359400 On ch=3 n=25 v=127
359514 On ch=3 n=25 v=0
359520 On ch=3 n=26 v=127
359520 On ch=3 n=42 v=127
359520 On ch=3 n=61 v=127
359520 On ch=3 n=63 v=127
359520 On ch=3 n=73 v=127
359520 On ch=3 n=75 v=127
359520 On ch=3 n=85 v=127
359520 On ch=3 n=87 v=127
359520 On ch=3 n=97 v=127
359520 On ch=3 n=99 v=127
359580 On ch=3 n=26 v=0
359580 On ch=3 n=42 v=0
359580 On ch=3 n=61 v=0
359580 On ch=3 n=63 v=0
359580 On ch=3 n=73 v=0
359580 On ch=3 n=75 v=0
359580 On ch=3 n=85 v=0
359580 On ch=3 n=87 v=0
359580 On ch=3 n=97 v=0
359580 On ch=3 n=99 v=0
359760 On ch=3 n=42 v=127
359760 On ch=3 n=75 v=127
359760 On ch=3 n=87 v=127
359760 On ch=3 n=99 v=127
359760 On ch=3 n=63 v=127
359820 On ch=3 n=42 v=0
359820 On ch=3 n=75 v=0
359820 On ch=3 n=87 v=0
359820 On ch=3 n=99 v=0
359820 On ch=3 n=63 v=0
359880 On ch=3 n=25 v=127
359994 On ch=3 n=25 v=0
360000 On ch=3 n=106 v=0
360000 On ch=3 n=24 v=127
360000 On ch=3 n=42 v=127
360000 On ch=3 n=63 v=127
360000 On ch=3 n=72 v=127
360000 On ch=3 n=75 v=127
360000 On ch=3 n=84 v=127
360000 On ch=3 n=87 v=127
360000 On ch=3 n=96 v=127
360000 On ch=3 n=99 v=127
360000 On ch=3 n=105 v=100
360000 On ch=3 n=60 v=100
360060 On ch=3 n=24 v=0
360060 On ch=3 n=42 v=0
360060 On ch=3 n=63 v=0
360060 On ch=3 n=72 v=0
360060 On ch=3 n=75 v=0
360060 On ch=3 n=84 v=0
360060 On ch=3 n=87 v=0
360060 On ch=3 n=96 v=0
360060 On ch=3 n=99 v=0
360060 On ch=3 n=60 v=0
360240 On ch=3 n=24 v=127
360240 On ch=3 n=42 v=127
360240 On ch=3 n=72 v=127
360240 On ch=3 n=75 v=127
360240 On ch=3 n=84 v=127
360240 On ch=3 n=87 v=127
360240 On ch=3 n=96 v=127
360240 On ch=3 n=99 v=127
360240 On ch=3 n=63 v=127
360300 On ch=3 n=24 v=0
360300 On ch=3 n=42 v=0
360300 On ch=3 n=72 v=0
360300 On ch=3 n=75 v=0
360300 On ch=3 n=84 v=0
360300 On ch=3 n=87 v=0
360300 On ch=3 n=96 v=0
360300 On ch=3 n=99 v=0
360300 On ch=3 n=63 v=0
360360 On ch=3 n=25 v=127
360474 On ch=3 n=25 v=0
360480 On ch=3 n=26 v=127
360480 On ch=3 n=42 v=127
360480 On ch=3 n=61 v=127
360480 On ch=3 n=63 v=127
360480 On ch=3 n=73 v=127
360480 On ch=3 n=75 v=127
360480 On ch=3 n=85 v=127
360480 On ch=3 n=87 v=127
360480 On ch=3 n=97 v=127
360480 On ch=3 n=99 v=127
360540 On ch=3 n=26 v=0
360540 On ch=3 n=42 v=0
360540 On ch=3 n=61 v=0
360540 On ch=3 n=63 v=0
360540 On ch=3 n=73 v=0
360540 On ch=3 n=75 v=0
360540 On ch=3 n=85 v=0
360540 On ch=3 n=87 v=0
360540 On ch=3 n=97 v=0
360540 On ch=3 n=99 v=0
360720 On ch=3 n=42 v=127
360720 On ch=3 n=75 v=127
360720 On ch=3 n=87 v=127
360720 On ch=3 n=99 v=127
360720 On ch=3 n=63 v=127
360780 On ch=3 n=42 v=0
360780 On ch=3 n=75 v=0
360780 On ch=3 n=87 v=0
360780 On ch=3 n=99 v=0
360780 On ch=3 n=63 v=0
360840 On ch=3 n=25 v=127
360954 On ch=3 n=25 v=0
360960 On ch=3 n=24 v=127
360960 On ch=3 n=42 v=127
360960 On ch=3 n=63 v=127
360960 On ch=3 n=72 v=127
360960 On ch=3 n=75 v=127
360960 On ch=3 n=84 v=127
360960 On ch=3 n=87 v=127
360960 On ch=3 n=96 v=127
360960 On ch=3 n=99 v=127
361020 On ch=3 n=24 v=0
361020 On ch=3 n=42 v=0
361020 On ch=3 n=63 v=0
361020 On ch=3 n=72 v=0
361020 On ch=3 n=75 v=0
361020 On ch=3 n=84 v=0
361020 On ch=3 n=87 v=0
361020 On ch=3 n=96 v=0
361020 On ch=3 n=99 v=0
361200 On ch=3 n=24 v=127
361200 On ch=3 n=42 v=127
361200 On ch=3 n=72 v=127
361200 On ch=3 n=75 v=127
361200 On ch=3 n=84 v=127
361200 On ch=3 n=87 v=127
361200 On ch=3 n=96 v=127
361200 On ch=3 n=99 v=127
361200 On ch=3 n=63 v=127
361260 On ch=3 n=24 v=0
361260 On ch=3 n=42 v=0
361260 On ch=3 n=72 v=0
361260 On ch=3 n=75 v=0
361260 On ch=3 n=84 v=0
361260 On ch=3 n=87 v=0
361260 On ch=3 n=96 v=0
361260 On ch=3 n=99 v=0
361260 On ch=3 n=63 v=0
361320 On ch=3 n=25 v=127
361434 On ch=3 n=25 v=0
361440 On ch=3 n=26 v=127
361440 On ch=3 n=42 v=127
361440 On ch=3 n=61 v=127
361440 On ch=3 n=63 v=127
361440 On ch=3 n=73 v=127
361440 On ch=3 n=75 v=127
361440 On ch=3 n=85 v=127
361440 On ch=3 n=87 v=127
361440 On ch=3 n=97 v=127
361440 On ch=3 n=99 v=127
361500 On ch=3 n=26 v=0
361500 On ch=3 n=42 v=0
361500 On ch=3 n=61 v=0
361500 On ch=3 n=63 v=0
361500 On ch=3 n=73 v=0
361500 On ch=3 n=75 v=0
361500 On ch=3 n=85 v=0
361500 On ch=3 n=87 v=0
361500 On ch=3 n=97 v=0
361500 On ch=3 n=99 v=0
361680 On ch=3 n=42 v=127
361680 On ch=3 n=75 v=127
361680 On ch=3 n=87 v=127
361680 On ch=3 n=99 v=127
361680 On ch=3 n=63 v=127
361740 On ch=3 n=42 v=0
361740 On ch=3 n=75 v=0
361740 On ch=3 n=87 v=0
361740 On ch=3 n=99 v=0
361740 On ch=3 n=63 v=0
361800 On ch=3 n=25 v=127
361914 On ch=3 n=25 v=0
361920 On ch=3 n=24 v=127
361920 On ch=3 n=42 v=127
361920 On ch=3 n=63 v=127
361920 On ch=3 n=72 v=127
361920 On ch=3 n=75 v=127
361920 On ch=3 n=84 v=127
361920 On ch=3 n=87 v=127
361920 On ch=3 n=96 v=127
361920 On ch=3 n=99 v=127
361980 On ch=3 n=24 v=0
361980 On ch=3 n=42 v=0
361980 On ch=3 n=63 v=0
361980 On ch=3 n=72 v=0
361980 On ch=3 n=75 v=0
361980 On ch=3 n=84 v=0
361980 On ch=3 n=87 v=0
361980 On ch=3 n=96 v=0
361980 On ch=3 n=99 v=0
362160 On ch=3 n=24 v=127
362160 On ch=3 n=42 v=127
362160 On ch=3 n=72 v=127
362160 On ch=3 n=75 v=127
362160 On ch=3 n=84 v=127
362160 On ch=3 n=87 v=127
362160 On ch=3 n=96 v=127
362160 On ch=3 n=99 v=127
362160 On ch=3 n=63 v=127
362220 On ch=3 n=24 v=0
362220 On ch=3 n=42 v=0
362220 On ch=3 n=72 v=0
362220 On ch=3 n=75 v=0
362220 On ch=3 n=84 v=0
362220 On ch=3 n=87 v=0
362220 On ch=3 n=96 v=0
362220 On ch=3 n=99 v=0
362220 On ch=3 n=63 v=0
362280 On ch=3 n=25 v=127
362394 On ch=3 n=25 v=0
362400 On ch=3 n=26 v=127
362400 On ch=3 n=42 v=127
362400 On ch=3 n=61 v=127
362400 On ch=3 n=63 v=127
362400 On ch=3 n=73 v=127
362400 On ch=3 n=75 v=127
362400 On ch=3 n=85 v=127
362400 On ch=3 n=87 v=127
362400 On ch=3 n=97 v=127
362400 On ch=3 n=99 v=127
362460 On ch=3 n=26 v=0
362460 On ch=3 n=42 v=0
362460 On ch=3 n=61 v=0
362460 On ch=3 n=63 v=0
362460 On ch=3 n=73 v=0
362460 On ch=3 n=75 v=0
362460 On ch=3 n=85 v=0
362460 On ch=3 n=87 v=0
362460 On ch=3 n=97 v=0
362460 On ch=3 n=99 v=0
362640 On ch=3 n=42 v=127
362640 On ch=3 n=75 v=127
362640 On ch=3 n=87 v=127
362640 On ch=3 n=99 v=127
362640 On ch=3 n=63 v=127
362700 On ch=3 n=42 v=0
362700 On ch=3 n=75 v=0
362700 On ch=3 n=87 v=0
362700 On ch=3 n=99 v=0
362700 On ch=3 n=63 v=0
362760 On ch=3 n=25 v=127
362874 On ch=3 n=25 v=0
362880 On ch=3 n=24 v=127
362880 On ch=3 n=42 v=127
362880 On ch=3 n=63 v=127
362880 On ch=3 n=72 v=127
362880 On ch=3 n=75 v=127
362880 On ch=3 n=84 v=127
362880 On ch=3 n=87 v=127
362880 On ch=3 n=96 v=127
362880 On ch=3 n=99 v=127
362940 On ch=3 n=24 v=0
362940 On ch=3 n=42 v=0
362940 On ch=3 n=63 v=0
362940 On ch=3 n=72 v=0
362940 On ch=3 n=75 v=0
362940 On ch=3 n=84 v=0
362940 On ch=3 n=87 v=0
362940 On ch=3 n=96 v=0
362940 On ch=3 n=99 v=0
363120 On ch=3 n=24 v=127
363120 On ch=3 n=42 v=127
363120 On ch=3 n=72 v=127
363120 On ch=3 n=75 v=127
363120 On ch=3 n=84 v=127
363120 On ch=3 n=87 v=127
363120 On ch=3 n=96 v=127
363120 On ch=3 n=99 v=127
363120 On ch=3 n=63 v=127
363180 On ch=3 n=24 v=0
363180 On ch=3 n=42 v=0
363180 On ch=3 n=72 v=0
363180 On ch=3 n=75 v=0
363180 On ch=3 n=84 v=0
363180 On ch=3 n=87 v=0
363180 On ch=3 n=96 v=0
363180 On ch=3 n=99 v=0
363180 On ch=3 n=63 v=0
363240 On ch=3 n=25 v=127
363354 On ch=3 n=25 v=0
363360 On ch=3 n=26 v=127
363360 On ch=3 n=42 v=127
363360 On ch=3 n=61 v=127
363360 On ch=3 n=63 v=127
363360 On ch=3 n=73 v=127
363360 On ch=3 n=75 v=127
363360 On ch=3 n=85 v=127
363360 On ch=3 n=87 v=127
363360 On ch=3 n=97 v=127
363360 On ch=3 n=99 v=127
363420 On ch=3 n=26 v=0
363420 On ch=3 n=42 v=0
363420 On ch=3 n=61 v=0
363420 On ch=3 n=63 v=0
363420 On ch=3 n=73 v=0
363420 On ch=3 n=75 v=0
363420 On ch=3 n=85 v=0
363420 On ch=3 n=87 v=0
363420 On ch=3 n=97 v=0
363420 On ch=3 n=99 v=0
363600 On ch=3 n=42 v=127
363600 On ch=3 n=75 v=127
363600 On ch=3 n=87 v=127
363600 On ch=3 n=99 v=127
363600 On ch=3 n=63 v=127
363660 On ch=3 n=42 v=0
363660 On ch=3 n=75 v=0
363660 On ch=3 n=87 v=0
363660 On ch=3 n=99 v=0
363660 On ch=3 n=63 v=0
363720 On ch=3 n=25 v=127
363834 On ch=3 n=25 v=0
363840 On ch=3 n=105 v=0
363840 On ch=3 n=24 v=127
363840 On ch=3 n=42 v=127
363840 On ch=3 n=63 v=127
363840 On ch=3 n=72 v=127
363840 On ch=3 n=75 v=127
363840 On ch=3 n=84 v=127
363840 On ch=3 n=87 v=127
363840 On ch=3 n=96 v=127
363840 On ch=3 n=99 v=127
363840 On ch=3 n=106 v=100
363840 On ch=3 n=60 v=100
363900 On ch=3 n=24 v=0
363900 On ch=3 n=42 v=0
363900 On ch=3 n=63 v=0
363900 On ch=3 n=72 v=0
363900 On ch=3 n=75 v=0
363900 On ch=3 n=84 v=0
363900 On ch=3 n=87 v=0
363900 On ch=3 n=96 v=0
363900 On ch=3 n=99 v=0
363900 On ch=3 n=60 v=0
364080 On ch=3 n=24 v=127
364080 On ch=3 n=42 v=127
364080 On ch=3 n=72 v=127
364080 On ch=3 n=75 v=127
364080 On ch=3 n=84 v=127
364080 On ch=3 n=87 v=127
364080 On ch=3 n=96 v=127
364080 On ch=3 n=99 v=127
364080 On ch=3 n=63 v=127
364140 On ch=3 n=24 v=0
364140 On ch=3 n=42 v=0
364140 On ch=3 n=72 v=0
364140 On ch=3 n=75 v=0
364140 On ch=3 n=84 v=0
364140 On ch=3 n=87 v=0
364140 On ch=3 n=96 v=0
364140 On ch=3 n=99 v=0
364140 On ch=3 n=63 v=0
364200 On ch=3 n=25 v=127
364314 On ch=3 n=25 v=0
364320 On ch=3 n=26 v=127
364320 On ch=3 n=42 v=127
364320 On ch=3 n=61 v=127
364320 On ch=3 n=63 v=127
364320 On ch=3 n=73 v=127
364320 On ch=3 n=75 v=127
364320 On ch=3 n=85 v=127
364320 On ch=3 n=87 v=127
364320 On ch=3 n=97 v=127
364320 On ch=3 n=99 v=127
364380 On ch=3 n=26 v=0
364380 On ch=3 n=42 v=0
364380 On ch=3 n=61 v=0
364380 On ch=3 n=63 v=0
364380 On ch=3 n=73 v=0
364380 On ch=3 n=75 v=0
364380 On ch=3 n=85 v=0
364380 On ch=3 n=87 v=0
364380 On ch=3 n=97 v=0
364380 On ch=3 n=99 v=0
364560 On ch=3 n=42 v=127
364560 On ch=3 n=75 v=127
364560 On ch=3 n=87 v=127
364560 On ch=3 n=99 v=127
364560 On ch=3 n=63 v=127
364620 On ch=3 n=42 v=0
364620 On ch=3 n=75 v=0
364620 On ch=3 n=87 v=0
364620 On ch=3 n=99 v=0
364620 On ch=3 n=63 v=0
364680 On ch=3 n=25 v=127
364794 On ch=3 n=25 v=0
364800 On ch=3 n=24 v=127
364800 On ch=3 n=42 v=127
364800 On ch=3 n=63 v=127
364800 On ch=3 n=72 v=127
364800 On ch=3 n=75 v=127
364800 On ch=3 n=84 v=127
364800 On ch=3 n=87 v=127
364800 On ch=3 n=96 v=127
364800 On ch=3 n=99 v=127
364860 On ch=3 n=24 v=0
364860 On ch=3 n=42 v=0
364860 On ch=3 n=63 v=0
364860 On ch=3 n=72 v=0
364860 On ch=3 n=75 v=0
364860 On ch=3 n=84 v=0
364860 On ch=3 n=87 v=0
364860 On ch=3 n=96 v=0
364860 On ch=3 n=99 v=0
365040 On ch=3 n=24 v=127
365040 On ch=3 n=42 v=127
365040 On ch=3 n=72 v=127
365040 On ch=3 n=75 v=127
365040 On ch=3 n=84 v=127
365040 On ch=3 n=87 v=127
365040 On ch=3 n=96 v=127
365040 On ch=3 n=99 v=127
365040 On ch=3 n=63 v=127
365100 On ch=3 n=24 v=0
365100 On ch=3 n=42 v=0
365100 On ch=3 n=72 v=0
365100 On ch=3 n=75 v=0
365100 On ch=3 n=84 v=0
365100 On ch=3 n=87 v=0
365100 On ch=3 n=96 v=0
365100 On ch=3 n=99 v=0
365100 On ch=3 n=63 v=0
365160 On ch=3 n=25 v=127
365274 On ch=3 n=25 v=0
365280 On ch=3 n=26 v=127
365280 On ch=3 n=42 v=127
365280 On ch=3 n=61 v=127
365280 On ch=3 n=63 v=127
365280 On ch=3 n=73 v=127
365280 On ch=3 n=75 v=127
365280 On ch=3 n=85 v=127
365280 On ch=3 n=87 v=127
365280 On ch=3 n=97 v=127
365280 On ch=3 n=99 v=127
365340 On ch=3 n=26 v=0
365340 On ch=3 n=42 v=0
365340 On ch=3 n=61 v=0
365340 On ch=3 n=63 v=0
365340 On ch=3 n=73 v=0
365340 On ch=3 n=75 v=0
365340 On ch=3 n=85 v=0
365340 On ch=3 n=87 v=0
365340 On ch=3 n=97 v=0
365340 On ch=3 n=99 v=0
365520 On ch=3 n=42 v=127
365520 On ch=3 n=75 v=127
365520 On ch=3 n=87 v=127
365520 On ch=3 n=99 v=127
365520 On ch=3 n=63 v=127
365580 On ch=3 n=42 v=0
365580 On ch=3 n=75 v=0
365580 On ch=3 n=87 v=0
365580 On ch=3 n=99 v=0
365580 On ch=3 n=63 v=0
365640 On ch=3 n=25 v=127
365754 On ch=3 n=25 v=0
365760 On ch=3 n=24 v=127
365760 On ch=3 n=42 v=127
365760 On ch=3 n=63 v=127
365760 On ch=3 n=72 v=127
365760 On ch=3 n=75 v=127
365760 On ch=3 n=84 v=127
365760 On ch=3 n=87 v=127
365760 On ch=3 n=96 v=127
365760 On ch=3 n=99 v=127
365820 On ch=3 n=24 v=0
365820 On ch=3 n=42 v=0
365820 On ch=3 n=63 v=0
365820 On ch=3 n=72 v=0
365820 On ch=3 n=75 v=0
365820 On ch=3 n=84 v=0
365820 On ch=3 n=87 v=0
365820 On ch=3 n=96 v=0
365820 On ch=3 n=99 v=0
366000 On ch=3 n=24 v=127
366000 On ch=3 n=42 v=127
366000 On ch=3 n=72 v=127
366000 On ch=3 n=75 v=127
366000 On ch=3 n=84 v=127
366000 On ch=3 n=87 v=127
366000 On ch=3 n=96 v=127
366000 On ch=3 n=99 v=127
366000 On ch=3 n=63 v=127
366060 On ch=3 n=24 v=0
366060 On ch=3 n=42 v=0
366060 On ch=3 n=72 v=0
366060 On ch=3 n=75 v=0
366060 On ch=3 n=84 v=0
366060 On ch=3 n=87 v=0
366060 On ch=3 n=96 v=0
366060 On ch=3 n=99 v=0
366060 On ch=3 n=63 v=0
366120 On ch=3 n=25 v=127
366234 On ch=3 n=25 v=0
366240 On ch=3 n=26 v=127
366240 On ch=3 n=42 v=127
366240 On ch=3 n=61 v=127
366240 On ch=3 n=63 v=127
366240 On ch=3 n=73 v=127
366240 On ch=3 n=75 v=127
366240 On ch=3 n=85 v=127
366240 On ch=3 n=87 v=127
366240 On ch=3 n=97 v=127
366240 On ch=3 n=99 v=127
366300 On ch=3 n=26 v=0
366300 On ch=3 n=42 v=0
366300 On ch=3 n=61 v=0
366300 On ch=3 n=63 v=0
366300 On ch=3 n=73 v=0
366300 On ch=3 n=75 v=0
366300 On ch=3 n=85 v=0
366300 On ch=3 n=87 v=0
366300 On ch=3 n=97 v=0
366300 On ch=3 n=99 v=0
366480 On ch=3 n=42 v=127
366480 On ch=3 n=75 v=127
366480 On ch=3 n=87 v=127
366480 On ch=3 n=99 v=127
366480 On ch=3 n=63 v=127
366540 On ch=3 n=42 v=0
366540 On ch=3 n=75 v=0
366540 On ch=3 n=87 v=0
366540 On ch=3 n=99 v=0
366540 On ch=3 n=63 v=0
366600 On ch=3 n=25 v=127
366714 On ch=3 n=25 v=0
366720 On ch=3 n=24 v=127
366720 On ch=3 n=42 v=127
366720 On ch=3 n=63 v=127
366720 On ch=3 n=72 v=127
366720 On ch=3 n=75 v=127
366720 On ch=3 n=84 v=127
366720 On ch=3 n=87 v=127
366720 On ch=3 n=96 v=127
366720 On ch=3 n=99 v=127
366780 On ch=3 n=24 v=0
366780 On ch=3 n=42 v=0
366780 On ch=3 n=63 v=0
366780 On ch=3 n=72 v=0
366780 On ch=3 n=75 v=0
366780 On ch=3 n=84 v=0
366780 On ch=3 n=87 v=0
366780 On ch=3 n=96 v=0
366780 On ch=3 n=99 v=0
366960 On ch=3 n=24 v=127
366960 On ch=3 n=42 v=127
366960 On ch=3 n=72 v=127
366960 On ch=3 n=75 v=127
366960 On ch=3 n=84 v=127
366960 On ch=3 n=87 v=127
366960 On ch=3 n=96 v=127
366960 On ch=3 n=99 v=127
366960 On ch=3 n=63 v=127
367020 On ch=3 n=24 v=0
367020 On ch=3 n=42 v=0
367020 On ch=3 n=72 v=0
367020 On ch=3 n=75 v=0
367020 On ch=3 n=84 v=0
367020 On ch=3 n=87 v=0
367020 On ch=3 n=96 v=0
367020 On ch=3 n=99 v=0
367020 On ch=3 n=63 v=0
367080 On ch=3 n=25 v=127
367194 On ch=3 n=25 v=0
367200 On ch=3 n=26 v=127
367200 On ch=3 n=42 v=127
367200 On ch=3 n=61 v=127
367200 On ch=3 n=63 v=127
367200 On ch=3 n=73 v=127
367200 On ch=3 n=75 v=127
367200 On ch=3 n=85 v=127
367200 On ch=3 n=87 v=127
367200 On ch=3 n=97 v=127
367200 On ch=3 n=99 v=127
367260 On ch=3 n=26 v=0
367260 On ch=3 n=42 v=0
367260 On ch=3 n=61 v=0
367260 On ch=3 n=63 v=0
367260 On ch=3 n=73 v=0
367260 On ch=3 n=75 v=0
367260 On ch=3 n=85 v=0
367260 On ch=3 n=87 v=0
367260 On ch=3 n=97 v=0
367260 On ch=3 n=99 v=0
367440 On ch=3 n=42 v=127
367440 On ch=3 n=75 v=127
367440 On ch=3 n=87 v=127
367440 On ch=3 n=99 v=127
367440 On ch=3 n=63 v=127
367500 On ch=3 n=42 v=0
367500 On ch=3 n=75 v=0
367500 On ch=3 n=87 v=0
367500 On ch=3 n=99 v=0
367500 On ch=3 n=63 v=0
367560 On ch=3 n=25 v=127
367674 On ch=3 n=25 v=0
367680 On ch=3 n=24 v=127
367680 On ch=3 n=42 v=127
367680 On ch=3 n=63 v=127
367680 On ch=3 n=72 v=127
367680 On ch=3 n=75 v=127
367680 On ch=3 n=84 v=127
367680 On ch=3 n=87 v=127
367680 On ch=3 n=96 v=127
367680 On ch=3 n=99 v=127
367680 On ch=3 n=105 v=100
367680 On ch=3 n=60 v=100
367740 On ch=3 n=24 v=0
367740 On ch=3 n=42 v=0
367740 On ch=3 n=63 v=0
367740 On ch=3 n=72 v=0
367740 On ch=3 n=75 v=0
367740 On ch=3 n=84 v=0
367740 On ch=3 n=87 v=0
367740 On ch=3 n=96 v=0
367740 On ch=3 n=99 v=0
367740 On ch=3 n=60 v=0
367920 On ch=3 n=24 v=127
367920 On ch=3 n=42 v=127
367920 On ch=3 n=72 v=127
367920 On ch=3 n=75 v=127
367920 On ch=3 n=84 v=127
367920 On ch=3 n=87 v=127
367920 On ch=3 n=96 v=127
367920 On ch=3 n=99 v=127
367920 On ch=3 n=63 v=127
367980 On ch=3 n=24 v=0
367980 On ch=3 n=42 v=0
367980 On ch=3 n=72 v=0
367980 On ch=3 n=75 v=0
367980 On ch=3 n=84 v=0
367980 On ch=3 n=87 v=0
367980 On ch=3 n=96 v=0
367980 On ch=3 n=99 v=0
367980 On ch=3 n=63 v=0
368160 On ch=3 n=25 v=127
368160 On ch=3 n=26 v=127
368160 On ch=3 n=42 v=127
368160 On ch=3 n=61 v=127
368160 On ch=3 n=63 v=127
368160 On ch=3 n=73 v=127
368160 On ch=3 n=75 v=127
368160 On ch=3 n=85 v=127
368160 On ch=3 n=87 v=127
368160 On ch=3 n=97 v=127
368160 On ch=3 n=99 v=127
368220 On ch=3 n=26 v=0
368220 On ch=3 n=42 v=0
368220 On ch=3 n=61 v=0
368220 On ch=3 n=63 v=0
368220 On ch=3 n=73 v=0
368220 On ch=3 n=75 v=0
368220 On ch=3 n=85 v=0
368220 On ch=3 n=87 v=0
368220 On ch=3 n=97 v=0
368220 On ch=3 n=99 v=0
368394 On ch=3 n=25 v=0
368400 On ch=3 n=24 v=127
368400 On ch=3 n=42 v=127
368400 On ch=3 n=84 v=127
368400 On ch=3 n=87 v=127
368400 On ch=3 n=96 v=127
368400 On ch=3 n=99 v=127
368400 On ch=3 n=63 v=127
368400 On ch=3 n=72 v=127
368460 On ch=3 n=24 v=0
368460 On ch=3 n=42 v=0
368460 On ch=3 n=84 v=0
368460 On ch=3 n=87 v=0
368460 On ch=3 n=96 v=0
368460 On ch=3 n=99 v=0
368460 On ch=3 n=63 v=0
368460 On ch=3 n=72 v=0
368640 On ch=3 n=24 v=127
368640 On ch=3 n=25 v=127
368640 On ch=3 n=26 v=127
368640 On ch=3 n=42 v=127
368640 On ch=3 n=61 v=127
368640 On ch=3 n=63 v=127
368640 On ch=3 n=73 v=127
368640 On ch=3 n=75 v=127
368640 On ch=3 n=85 v=127
368640 On ch=3 n=87 v=127
368640 On ch=3 n=96 v=127
368640 On ch=3 n=97 v=127
368640 On ch=3 n=99 v=127
368700 On ch=3 n=24 v=0
368700 On ch=3 n=26 v=0
368700 On ch=3 n=42 v=0
368700 On ch=3 n=61 v=0
368700 On ch=3 n=63 v=0
368700 On ch=3 n=73 v=0
368700 On ch=3 n=75 v=0
368700 On ch=3 n=85 v=0
368700 On ch=3 n=87 v=0
368700 On ch=3 n=96 v=0
368700 On ch=3 n=97 v=0
368700 On ch=3 n=99 v=0
368874 On ch=3 n=25 v=0
368880 On ch=3 n=24 v=127
368880 On ch=3 n=42 v=127
368880 On ch=3 n=84 v=127
368880 On ch=3 n=87 v=127
368880 On ch=3 n=96 v=127
368880 On ch=3 n=99 v=127
368880 On ch=3 n=63 v=127
368880 On ch=3 n=72 v=127
368940 On ch=3 n=24 v=0
368940 On ch=3 n=42 v=0
368940 On ch=3 n=84 v=0
368940 On ch=3 n=87 v=0
368940 On ch=3 n=96 v=0
368940 On ch=3 n=99 v=0
368940 On ch=3 n=63 v=0
368940 On ch=3 n=72 v=0
369120 On ch=3 n=24 v=127
369120 On ch=3 n=25 v=127
369120 On ch=3 n=26 v=127
369120 On ch=3 n=42 v=127
369120 On ch=3 n=61 v=127
369120 On ch=3 n=63 v=127
369120 On ch=3 n=73 v=127
369120 On ch=3 n=75 v=127
369120 On ch=3 n=85 v=127
369120 On ch=3 n=87 v=127
369120 On ch=3 n=96 v=127
369120 On ch=3 n=97 v=127
369120 On ch=3 n=99 v=127
369180 On ch=3 n=24 v=0
369180 On ch=3 n=26 v=0
369180 On ch=3 n=42 v=0
369180 On ch=3 n=61 v=0
369180 On ch=3 n=63 v=0
369180 On ch=3 n=73 v=0
369180 On ch=3 n=75 v=0
369180 On ch=3 n=85 v=0
369180 On ch=3 n=87 v=0
369180 On ch=3 n=96 v=0
369180 On ch=3 n=97 v=0
369180 On ch=3 n=99 v=0
369354 On ch=3 n=25 v=0
369360 On ch=3 n=24 v=127
369360 On ch=3 n=42 v=127
369360 On ch=3 n=84 v=127
369360 On ch=3 n=87 v=127
369360 On ch=3 n=96 v=127
369360 On ch=3 n=99 v=127
369360 On ch=3 n=63 v=127
369360 On ch=3 n=72 v=127
369420 On ch=3 n=24 v=0
369420 On ch=3 n=42 v=0
369420 On ch=3 n=84 v=0
369420 On ch=3 n=87 v=0
369420 On ch=3 n=96 v=0
369420 On ch=3 n=99 v=0
369420 On ch=3 n=63 v=0
369420 On ch=3 n=72 v=0
369600 On ch=3 n=124 v=127
369600 On ch=3 n=123 v=127
369600 On ch=3 n=122 v=127
369600 On ch=3 n=121 v=127
369600 On ch=3 n=120 v=127
369600 On ch=3 n=99 v=127
369600 On ch=3 n=97 v=127
369600 On ch=3 n=96 v=127
369600 On ch=3 n=87 v=127
369600 On ch=3 n=85 v=127
369600 On ch=3 n=75 v=127
369600 On ch=3 n=73 v=127
369600 On ch=3 n=63 v=127
369600 On ch=3 n=61 v=127
369600 On ch=3 n=42 v=127
369600 On ch=3 n=26 v=127
369600 On ch=3 n=25 v=127
369600 On ch=3 n=24 v=127
369660 On ch=3 n=99 v=0
369660 On ch=3 n=97 v=0
369660 On ch=3 n=96 v=0
369660 On ch=3 n=87 v=0
369660 On ch=3 n=85 v=0
369660 On ch=3 n=75 v=0
369660 On ch=3 n=73 v=0
369660 On ch=3 n=63 v=0
369660 On ch=3 n=61 v=0
369660 On ch=3 n=42 v=0
369660 On ch=3 n=26 v=0
369660 On ch=3 n=24 v=0
369834 On ch=3 n=25 v=0
369840 On ch=3 n=24 v=127
369840 On ch=3 n=42 v=127
369840 On ch=3 n=84 v=127
369840 On ch=3 n=87 v=127
369840 On ch=3 n=96 v=127
369840 On ch=3 n=99 v=127
369840 On ch=3 n=63 v=127
369840 On ch=3 n=72 v=127
369900 On ch=3 n=24 v=0
369900 On ch=3 n=42 v=0
369900 On ch=3 n=84 v=0
369900 On ch=3 n=87 v=0
369900 On ch=3 n=96 v=0
369900 On ch=3 n=99 v=0
369900 On ch=3 n=63 v=0
369900 On ch=3 n=72 v=0
370080 On ch=3 n=24 v=127
370080 On ch=3 n=25 v=127
370080 On ch=3 n=26 v=127
370080 On ch=3 n=42 v=127
370080 On ch=3 n=61 v=127
370080 On ch=3 n=63 v=127
370080 On ch=3 n=73 v=127
370080 On ch=3 n=75 v=127
370080 On ch=3 n=85 v=127
370080 On ch=3 n=87 v=127
370080 On ch=3 n=96 v=127
370080 On ch=3 n=97 v=127
370080 On ch=3 n=99 v=127
370140 On ch=3 n=24 v=0
370140 On ch=3 n=26 v=0
370140 On ch=3 n=42 v=0
370140 On ch=3 n=61 v=0
370140 On ch=3 n=63 v=0
370140 On ch=3 n=73 v=0
370140 On ch=3 n=75 v=0
370140 On ch=3 n=85 v=0
370140 On ch=3 n=87 v=0
370140 On ch=3 n=96 v=0
370140 On ch=3 n=97 v=0
370140 On ch=3 n=99 v=0
370314 On ch=3 n=25 v=0
370320 On ch=3 n=24 v=127
370320 On ch=3 n=42 v=127
370320 On ch=3 n=84 v=127
370320 On ch=3 n=87 v=127
370320 On ch=3 n=96 v=127
370320 On ch=3 n=99 v=127
370320 On ch=3 n=63 v=127
370320 On ch=3 n=72 v=127
370380 On ch=3 n=24 v=0
370380 On ch=3 n=42 v=0
370380 On ch=3 n=84 v=0
370380 On ch=3 n=87 v=0
370380 On ch=3 n=96 v=0
370380 On ch=3 n=99 v=0
370380 On ch=3 n=63 v=0
370380 On ch=3 n=72 v=0
370560 On ch=3 n=24 v=127
370560 On ch=3 n=25 v=127
370560 On ch=3 n=26 v=127
370560 On ch=3 n=42 v=127
370560 On ch=3 n=61 v=127
370560 On ch=3 n=63 v=127
370560 On ch=3 n=73 v=127
370560 On ch=3 n=75 v=127
370560 On ch=3 n=85 v=127
370560 On ch=3 n=87 v=127
370560 On ch=3 n=96 v=127
370560 On ch=3 n=97 v=127
370560 On ch=3 n=99 v=127
370620 On ch=3 n=24 v=0
370620 On ch=3 n=26 v=0
370620 On ch=3 n=42 v=0
370620 On ch=3 n=61 v=0
370620 On ch=3 n=63 v=0
370620 On ch=3 n=73 v=0
370620 On ch=3 n=75 v=0
370620 On ch=3 n=85 v=0
370620 On ch=3 n=87 v=0
370620 On ch=3 n=96 v=0
370620 On ch=3 n=97 v=0
370620 On ch=3 n=99 v=0
370794 On ch=3 n=25 v=0
370800 On ch=3 n=24 v=127
370800 On ch=3 n=42 v=127
370800 On ch=3 n=84 v=127
370800 On ch=3 n=87 v=127
370800 On ch=3 n=96 v=127
370800 On ch=3 n=99 v=127
370860 On ch=3 n=24 v=0
370860 On ch=3 n=42 v=0
370860 On ch=3 n=84 v=0
370860 On ch=3 n=87 v=0
370860 On ch=3 n=96 v=0
370860 On ch=3 n=99 v=0
371040 On ch=3 n=24 v=127
371040 On ch=3 n=46 v=127
371040 On ch=3 n=49 v=127
371040 On ch=3 n=62 v=127
371040 On ch=3 n=74 v=127
371040 On ch=3 n=86 v=127
371040 On ch=3 n=87 v=127
371040 On ch=3 n=96 v=127
371040 On ch=3 n=98 v=127
371040 On ch=3 n=99 v=127
371040 On ch=3 n=110 v=127
371040 On ch=3 n=111 v=127
371100 On ch=3 n=24 v=0
371100 On ch=3 n=46 v=0
371100 On ch=3 n=49 v=0
371100 On ch=3 n=62 v=0
371100 On ch=3 n=74 v=0
371100 On ch=3 n=86 v=0
371100 On ch=3 n=87 v=0
371100 On ch=3 n=96 v=0
371100 On ch=3 n=98 v=0
371100 On ch=3 n=99 v=0
371280 On ch=3 n=24 v=127
371280 On ch=3 n=25 v=127
371280 On ch=3 n=48 v=127
371280 On ch=3 n=51 v=127
371280 On ch=3 n=75 v=127
371280 On ch=3 n=87 v=127
371280 On ch=3 n=88 v=127
371280 On ch=3 n=96 v=127
371280 On ch=3 n=99 v=127
371280 On ch=3 n=100 v=127
371340 On ch=3 n=24 v=0
371340 On ch=3 n=48 v=0
371340 On ch=3 n=51 v=0
371340 On ch=3 n=75 v=0
371340 On ch=3 n=87 v=0
371340 On ch=3 n=88 v=0
371340 On ch=3 n=96 v=0
371340 On ch=3 n=99 v=0
371340 On ch=3 n=100 v=0
371398 On ch=3 n=110 v=0
371398 On ch=3 n=111 v=0
371514 On ch=3 n=25 v=0
371520 On ch=3 n=24 v=127
371520 On ch=3 n=38 v=127
371520 On ch=3 n=60 v=127
371520 On ch=3 n=64 v=127
371520 On ch=3 n=72 v=127
371520 On ch=3 n=76 v=127
371520 On ch=3 n=84 v=127
371520 On ch=3 n=88 v=127
371520 On ch=3 n=96 v=127
371520 On ch=3 n=100 v=127
371580 On ch=3 n=24 v=0
371580 On ch=3 n=38 v=0
371580 On ch=3 n=60 v=0
371580 On ch=3 n=64 v=0
371580 On ch=3 n=72 v=0
371580 On ch=3 n=76 v=0
371580 On ch=3 n=84 v=0
371580 On ch=3 n=88 v=0
371580 On ch=3 n=96 v=0
371580 On ch=3 n=100 v=0
371756 On ch=3 n=124 v=0
371756 On ch=3 n=123 v=0
371756 On ch=3 n=122 v=0
371756 On ch=3 n=121 v=0
371756 On ch=3 n=120 v=0
374760 On ch=3 n=110 v=127
374760 On ch=3 n=111 v=127
374880 On ch=3 n=24 v=127
374880 On ch=3 n=46 v=127
374880 On ch=3 n=49 v=127
374880 On ch=3 n=62 v=127
374880 On ch=3 n=74 v=127
374880 On ch=3 n=86 v=127
374880 On ch=3 n=87 v=127
374880 On ch=3 n=96 v=127
374880 On ch=3 n=98 v=127
374880 On ch=3 n=99 v=127
374880 On ch=3 n=116 v=100
374940 On ch=3 n=24 v=0
374940 On ch=3 n=46 v=0
374940 On ch=3 n=49 v=0
374940 On ch=3 n=62 v=0
374940 On ch=3 n=74 v=0
374940 On ch=3 n=86 v=0
374940 On ch=3 n=87 v=0
374940 On ch=3 n=96 v=0
374940 On ch=3 n=98 v=0
374940 On ch=3 n=99 v=0
375120 On ch=3 n=24 v=127
375120 On ch=3 n=48 v=127
375120 On ch=3 n=51 v=127
375120 On ch=3 n=75 v=127
375120 On ch=3 n=87 v=127
375120 On ch=3 n=88 v=127
375120 On ch=3 n=96 v=127
375120 On ch=3 n=99 v=127
375120 On ch=3 n=100 v=127
375180 On ch=3 n=24 v=0
375180 On ch=3 n=48 v=0
375180 On ch=3 n=51 v=0
375180 On ch=3 n=75 v=0
375180 On ch=3 n=87 v=0
375180 On ch=3 n=88 v=0
375180 On ch=3 n=96 v=0
375180 On ch=3 n=99 v=0
375180 On ch=3 n=100 v=0
375238 On ch=3 n=110 v=0
375238 On ch=3 n=111 v=0
375360 On ch=3 n=24 v=127
375360 On ch=3 n=34 v=127
375360 On ch=3 n=38 v=127
375360 On ch=3 n=60 v=127
375360 On ch=3 n=64 v=127
375360 On ch=3 n=72 v=127
375360 On ch=3 n=76 v=127
375360 On ch=3 n=84 v=127
375360 On ch=3 n=88 v=127
375360 On ch=3 n=96 v=127
375360 On ch=3 n=100 v=127
375420 On ch=3 n=24 v=0
375420 On ch=3 n=34 v=0
375420 On ch=3 n=38 v=0
375420 On ch=3 n=60 v=0
375420 On ch=3 n=64 v=0
375420 On ch=3 n=72 v=0
375420 On ch=3 n=76 v=0
375420 On ch=3 n=84 v=0
375420 On ch=3 n=88 v=0
375420 On ch=3 n=96 v=0
375420 On ch=3 n=100 v=0
375480 On ch=3 n=116 v=0
377280 On ch=3 n=106 v=0
377280 On ch=3 n=26 v=127
377280 On ch=3 n=61 v=127
377280 On ch=3 n=73 v=127
377280 On ch=3 n=85 v=127
377280 On ch=3 n=97 v=127
377280 On ch=3 n=110 v=127
377280 On ch=3 n=111 v=127
377280 On ch=3 n=120 v=127
377280 On ch=3 n=121 v=127
377280 On ch=3 n=122 v=127
377280 On ch=3 n=123 v=127
377280 On ch=3 n=124 v=127
377340 On ch=3 n=26 v=0
377340 On ch=3 n=61 v=0
377340 On ch=3 n=73 v=0
377340 On ch=3 n=85 v=0
377340 On ch=3 n=97 v=0
377520 On ch=3 n=46 v=127
377520 On ch=3 n=74 v=127
377520 On ch=3 n=86 v=127
377520 On ch=3 n=98 v=127
377520 On ch=3 n=62 v=100
377580 On ch=3 n=46 v=0
377580 On ch=3 n=74 v=0
377580 On ch=3 n=86 v=0
377580 On ch=3 n=98 v=0
377580 On ch=3 n=62 v=0
377760 On ch=3 n=27 v=127
377760 On ch=3 n=61 v=127
377760 On ch=3 n=73 v=127
377760 On ch=3 n=85 v=127
377760 On ch=3 n=97 v=127
377820 On ch=3 n=27 v=0
377820 On ch=3 n=61 v=0
377820 On ch=3 n=73 v=0
377820 On ch=3 n=85 v=0
377820 On ch=3 n=97 v=0
377880 On ch=3 n=26 v=127
377880 On ch=3 n=85 v=127
377880 On ch=3 n=97 v=127
377940 On ch=3 n=26 v=0
377940 On ch=3 n=85 v=0
377940 On ch=3 n=97 v=0
378000 On ch=3 n=27 v=127
378000 On ch=3 n=85 v=127
378000 On ch=3 n=97 v=127
378060 On ch=3 n=27 v=0
378060 On ch=3 n=85 v=0
378060 On ch=3 n=97 v=0
378120 On ch=3 n=26 v=127
378120 On ch=3 n=97 v=127
378180 On ch=3 n=26 v=0
378180 On ch=3 n=97 v=0
378240 On ch=3 n=47 v=127
378240 On ch=3 n=62 v=127
378240 On ch=3 n=74 v=127
378240 On ch=3 n=86 v=127
378240 On ch=3 n=98 v=127
378240 On ch=3 n=106 v=100
378300 On ch=3 n=47 v=0
378300 On ch=3 n=62 v=0
378300 On ch=3 n=74 v=0
378300 On ch=3 n=86 v=0
378300 On ch=3 n=98 v=0
378480 On ch=3 n=105 v=0
378480 On ch=3 n=48 v=127
378480 On ch=3 n=75 v=127
378480 On ch=3 n=87 v=127
378480 On ch=3 n=99 v=127
378540 On ch=3 n=48 v=0
378540 On ch=3 n=75 v=0
378540 On ch=3 n=87 v=0
378540 On ch=3 n=99 v=0
378598 On ch=3 n=110 v=0
378598 On ch=3 n=111 v=0
378716 On ch=3 n=120 v=0
378716 On ch=3 n=121 v=0
378716 On ch=3 n=122 v=0
378716 On ch=3 n=123 v=0
378716 On ch=3 n=124 v=0
378720 On ch=3 n=24 v=127
378720 On ch=3 n=38 v=127
378720 On ch=3 n=64 v=127
378720 On ch=3 n=76 v=127
378720 On ch=3 n=84 v=127
378720 On ch=3 n=88 v=127
378720 On ch=3 n=96 v=127
378720 On ch=3 n=100 v=127
378720 On ch=3 n=60 v=100
378720 On ch=3 n=72 v=100
378780 On ch=3 n=24 v=0
378780 On ch=3 n=38 v=0
378780 On ch=3 n=64 v=0
378780 On ch=3 n=76 v=0
378780 On ch=3 n=84 v=0
378780 On ch=3 n=88 v=0
378780 On ch=3 n=96 v=0
378780 On ch=3 n=100 v=0
378780 On ch=3 n=60 v=0
378780 On ch=3 n=72 v=0
378960 On ch=3 n=24 v=127
378960 On ch=3 n=34 v=127
378960 On ch=3 n=76 v=127
378960 On ch=3 n=84 v=127
378960 On ch=3 n=88 v=127
378960 On ch=3 n=96 v=127
378960 On ch=3 n=99 v=127
378960 On ch=3 n=72 v=100
379020 On ch=3 n=24 v=0
379020 On ch=3 n=34 v=0
379020 On ch=3 n=76 v=0
379020 On ch=3 n=84 v=0
379020 On ch=3 n=88 v=0
379020 On ch=3 n=96 v=0
379020 On ch=3 n=99 v=0
379020 On ch=3 n=72 v=0
379200 On ch=3 n=24 v=127
379200 On ch=3 n=38 v=127
379200 On ch=3 n=60 v=127
379200 On ch=3 n=64 v=127
379200 On ch=3 n=72 v=127
379200 On ch=3 n=76 v=127
379200 On ch=3 n=84 v=127
379200 On ch=3 n=88 v=127
379200 On ch=3 n=96 v=127
379200 On ch=3 n=100 v=127
379200 On ch=3 n=105 v=100
379260 On ch=3 n=24 v=0
379260 On ch=3 n=38 v=0
379260 On ch=3 n=60 v=0
379260 On ch=3 n=64 v=0
379260 On ch=3 n=72 v=0
379260 On ch=3 n=76 v=0
379260 On ch=3 n=84 v=0
379260 On ch=3 n=88 v=0
379260 On ch=3 n=96 v=0
379260 On ch=3 n=100 v=0
381120 On ch=3 n=120 v=127
381120 On ch=3 n=121 v=127
381120 On ch=3 n=122 v=127
381120 On ch=3 n=123 v=127
381120 On ch=3 n=124 v=127
381600 On ch=3 n=27 v=127
381600 On ch=3 n=61 v=127
381600 On ch=3 n=73 v=127
381600 On ch=3 n=85 v=127
381600 On ch=3 n=97 v=127
381660 On ch=3 n=27 v=0
381660 On ch=3 n=61 v=0
381660 On ch=3 n=73 v=0
381660 On ch=3 n=85 v=0
381660 On ch=3 n=97 v=0
381720 On ch=3 n=26 v=127
381720 On ch=3 n=85 v=127
381720 On ch=3 n=97 v=127
381780 On ch=3 n=26 v=0
381780 On ch=3 n=85 v=0
381780 On ch=3 n=97 v=0
381840 On ch=3 n=27 v=127
381840 On ch=3 n=73 v=127
381840 On ch=3 n=85 v=127
381840 On ch=3 n=97 v=127
381900 On ch=3 n=27 v=0
381900 On ch=3 n=73 v=0
381900 On ch=3 n=85 v=0
381900 On ch=3 n=97 v=0
381960 On ch=3 n=26 v=127
381960 On ch=3 n=85 v=127
381960 On ch=3 n=97 v=127
382020 On ch=3 n=26 v=0
382020 On ch=3 n=85 v=0
382020 On ch=3 n=97 v=0
382080 On ch=3 n=27 v=127
382080 On ch=3 n=61 v=127
382080 On ch=3 n=73 v=127
382080 On ch=3 n=85 v=127
382080 On ch=3 n=97 v=127
382140 On ch=3 n=27 v=0
382140 On ch=3 n=61 v=0
382140 On ch=3 n=73 v=0
382140 On ch=3 n=85 v=0
382140 On ch=3 n=97 v=0
382200 On ch=3 n=26 v=127
382200 On ch=3 n=85 v=127
382200 On ch=3 n=97 v=127
382260 On ch=3 n=26 v=0
382260 On ch=3 n=85 v=0
382260 On ch=3 n=97 v=0
382320 On ch=3 n=27 v=127
382320 On ch=3 n=73 v=127
382320 On ch=3 n=85 v=127
382320 On ch=3 n=97 v=127
382380 On ch=3 n=27 v=0
382380 On ch=3 n=73 v=0
382380 On ch=3 n=85 v=0
382380 On ch=3 n=97 v=0
382556 On ch=3 n=120 v=0
382556 On ch=3 n=121 v=0
382556 On ch=3 n=122 v=0
382556 On ch=3 n=123 v=0
382556 On ch=3 n=124 v=0
382560 On ch=3 n=24 v=127
382560 On ch=3 n=38 v=127
382560 On ch=3 n=64 v=127
382560 On ch=3 n=76 v=127
382560 On ch=3 n=84 v=127
382560 On ch=3 n=88 v=127
382560 On ch=3 n=96 v=127
382560 On ch=3 n=100 v=127
382560 On ch=3 n=72 v=100
382560 On ch=3 n=60 v=100
382620 On ch=3 n=24 v=0
382620 On ch=3 n=38 v=0
382620 On ch=3 n=64 v=0
382620 On ch=3 n=76 v=0
382620 On ch=3 n=84 v=0
382620 On ch=3 n=88 v=0
382620 On ch=3 n=96 v=0
382620 On ch=3 n=100 v=0
382620 On ch=3 n=72 v=0
382620 On ch=3 n=60 v=0
382800 On ch=3 n=24 v=127
382800 On ch=3 n=34 v=127
382800 On ch=3 n=76 v=127
382800 On ch=3 n=84 v=127
382800 On ch=3 n=88 v=127
382800 On ch=3 n=96 v=127
382800 On ch=3 n=100 v=127
382800 On ch=3 n=72 v=100
382860 On ch=3 n=24 v=0
382860 On ch=3 n=34 v=0
382860 On ch=3 n=76 v=0
382860 On ch=3 n=84 v=0
382860 On ch=3 n=88 v=0
382860 On ch=3 n=96 v=0
382860 On ch=3 n=100 v=0
382860 On ch=3 n=72 v=0
383040 On ch=3 n=24 v=127
383040 On ch=3 n=26 v=127
383040 On ch=3 n=38 v=127
383040 On ch=3 n=64 v=127
383040 On ch=3 n=72 v=127
383040 On ch=3 n=76 v=127
383040 On ch=3 n=85 v=127
383040 On ch=3 n=88 v=127
383040 On ch=3 n=96 v=127
383040 On ch=3 n=97 v=127
383040 On ch=3 n=100 v=127
383040 On ch=3 n=60 v=100
383100 On ch=3 n=24 v=0
383100 On ch=3 n=26 v=0
383100 On ch=3 n=38 v=0
383100 On ch=3 n=64 v=0
383100 On ch=3 n=72 v=0
383100 On ch=3 n=76 v=0
383100 On ch=3 n=85 v=0
383100 On ch=3 n=88 v=0
383100 On ch=3 n=96 v=0
383100 On ch=3 n=97 v=0
383100 On ch=3 n=100 v=0
383100 On ch=3 n=60 v=0
383280 On ch=3 n=24 v=127
383280 On ch=3 n=42 v=127
383280 On ch=3 n=84 v=127
383280 On ch=3 n=87 v=127
383280 On ch=3 n=96 v=127
383280 On ch=3 n=99 v=127
383340 On ch=3 n=24 v=0
383340 On ch=3 n=42 v=0
383340 On ch=3 n=84 v=0
383340 On ch=3 n=87 v=0
383340 On ch=3 n=96 v=0
383340 On ch=3 n=99 v=0
383520 On ch=3 n=24 v=127
383520 On ch=3 n=25 v=127
383520 On ch=3 n=26 v=127
383520 On ch=3 n=42 v=127
383520 On ch=3 n=61 v=127
383520 On ch=3 n=63 v=127
383520 On ch=3 n=73 v=127
383520 On ch=3 n=75 v=127
383520 On ch=3 n=85 v=127
383520 On ch=3 n=87 v=127
383520 On ch=3 n=96 v=127
383520 On ch=3 n=97 v=127
383520 On ch=3 n=99 v=127
383580 On ch=3 n=24 v=0
383580 On ch=3 n=26 v=0
383580 On ch=3 n=42 v=0
383580 On ch=3 n=61 v=0
383580 On ch=3 n=63 v=0
383580 On ch=3 n=73 v=0
383580 On ch=3 n=75 v=0
383580 On ch=3 n=85 v=0
383580 On ch=3 n=87 v=0
383580 On ch=3 n=96 v=0
383580 On ch=3 n=97 v=0
383580 On ch=3 n=99 v=0
383754 On ch=3 n=25 v=0
383760 On ch=3 n=24 v=127
383760 On ch=3 n=42 v=127
383760 On ch=3 n=84 v=127
383760 On ch=3 n=87 v=127
383760 On ch=3 n=96 v=127
383760 On ch=3 n=99 v=127
383760 On ch=3 n=63 v=127
383760 On ch=3 n=72 v=127
383820 On ch=3 n=24 v=0
383820 On ch=3 n=42 v=0
383820 On ch=3 n=84 v=0
383820 On ch=3 n=87 v=0
383820 On ch=3 n=96 v=0
383820 On ch=3 n=99 v=0
383820 On ch=3 n=63 v=0
383820 On ch=3 n=72 v=0
384000 On ch=3 n=24 v=127
384000 On ch=3 n=25 v=127
384000 On ch=3 n=26 v=127
384000 On ch=3 n=42 v=127
384000 On ch=3 n=61 v=127
384000 On ch=3 n=63 v=127
384000 On ch=3 n=73 v=127
384000 On ch=3 n=75 v=127
384000 On ch=3 n=85 v=127
384000 On ch=3 n=87 v=127
384000 On ch=3 n=96 v=127
384000 On ch=3 n=97 v=127
384000 On ch=3 n=99 v=127
384060 On ch=3 n=24 v=0
384060 On ch=3 n=26 v=0
384060 On ch=3 n=42 v=0
384060 On ch=3 n=61 v=0
384060 On ch=3 n=63 v=0
384060 On ch=3 n=73 v=0
384060 On ch=3 n=75 v=0
384060 On ch=3 n=85 v=0
384060 On ch=3 n=87 v=0
384060 On ch=3 n=96 v=0
384060 On ch=3 n=97 v=0
384060 On ch=3 n=99 v=0
384234 On ch=3 n=25 v=0
384240 On ch=3 n=24 v=127
384240 On ch=3 n=42 v=127
384240 On ch=3 n=84 v=127
384240 On ch=3 n=87 v=127
384240 On ch=3 n=96 v=127
384240 On ch=3 n=99 v=127
384240 On ch=3 n=63 v=127
384240 On ch=3 n=72 v=127
384300 On ch=3 n=24 v=0
384300 On ch=3 n=42 v=0
384300 On ch=3 n=84 v=0
384300 On ch=3 n=87 v=0
384300 On ch=3 n=96 v=0
384300 On ch=3 n=99 v=0
384300 On ch=3 n=63 v=0
384300 On ch=3 n=72 v=0
384480 On ch=3 n=24 v=127
384480 On ch=3 n=25 v=127
384480 On ch=3 n=26 v=127
384480 On ch=3 n=42 v=127
384480 On ch=3 n=61 v=127
384480 On ch=3 n=63 v=127
384480 On ch=3 n=73 v=127
384480 On ch=3 n=75 v=127
384480 On ch=3 n=85 v=127
384480 On ch=3 n=87 v=127
384480 On ch=3 n=96 v=127
384480 On ch=3 n=97 v=127
384480 On ch=3 n=99 v=127
384540 On ch=3 n=24 v=0
384540 On ch=3 n=26 v=0
384540 On ch=3 n=42 v=0
384540 On ch=3 n=61 v=0
384540 On ch=3 n=63 v=0
384540 On ch=3 n=73 v=0
384540 On ch=3 n=75 v=0
384540 On ch=3 n=85 v=0
384540 On ch=3 n=87 v=0
384540 On ch=3 n=96 v=0
384540 On ch=3 n=97 v=0
384540 On ch=3 n=99 v=0
384714 On ch=3 n=25 v=0
384720 On ch=3 n=24 v=127
384720 On ch=3 n=42 v=127
384720 On ch=3 n=84 v=127
384720 On ch=3 n=87 v=127
384720 On ch=3 n=96 v=127
384720 On ch=3 n=99 v=127
384720 On ch=3 n=63 v=127
384720 On ch=3 n=72 v=127
384780 On ch=3 n=24 v=0
384780 On ch=3 n=42 v=0
384780 On ch=3 n=84 v=0
384780 On ch=3 n=87 v=0
384780 On ch=3 n=96 v=0
384780 On ch=3 n=99 v=0
384780 On ch=3 n=63 v=0
384780 On ch=3 n=72 v=0
384960 On ch=3 n=24 v=127
384960 On ch=3 n=25 v=127
384960 On ch=3 n=26 v=127
384960 On ch=3 n=42 v=127
384960 On ch=3 n=61 v=127
384960 On ch=3 n=63 v=127
384960 On ch=3 n=73 v=127
384960 On ch=3 n=75 v=127
384960 On ch=3 n=85 v=127
384960 On ch=3 n=87 v=127
384960 On ch=3 n=96 v=127
384960 On ch=3 n=97 v=127
384960 On ch=3 n=99 v=127
385020 On ch=3 n=24 v=0
385020 On ch=3 n=26 v=0
385020 On ch=3 n=42 v=0
385020 On ch=3 n=61 v=0
385020 On ch=3 n=63 v=0
385020 On ch=3 n=73 v=0
385020 On ch=3 n=75 v=0
385020 On ch=3 n=85 v=0
385020 On ch=3 n=87 v=0
385020 On ch=3 n=96 v=0
385020 On ch=3 n=97 v=0
385020 On ch=3 n=99 v=0
385194 On ch=3 n=25 v=0
385200 On ch=3 n=24 v=127
385200 On ch=3 n=42 v=127
385200 On ch=3 n=84 v=127
385200 On ch=3 n=87 v=127
385200 On ch=3 n=96 v=127
385200 On ch=3 n=99 v=127
385200 On ch=3 n=63 v=127
385200 On ch=3 n=72 v=127
385260 On ch=3 n=24 v=0
385260 On ch=3 n=42 v=0
385260 On ch=3 n=84 v=0
385260 On ch=3 n=87 v=0
385260 On ch=3 n=96 v=0
385260 On ch=3 n=99 v=0
385260 On ch=3 n=63 v=0
385260 On ch=3 n=72 v=0
385440 On ch=3 n=24 v=127
385440 On ch=3 n=25 v=127
385440 On ch=3 n=26 v=127
385440 On ch=3 n=42 v=127
385440 On ch=3 n=61 v=127
385440 On ch=3 n=63 v=127
385440 On ch=3 n=73 v=127
385440 On ch=3 n=75 v=127
385440 On ch=3 n=85 v=127
385440 On ch=3 n=87 v=127
385440 On ch=3 n=96 v=127
385440 On ch=3 n=97 v=127
385440 On ch=3 n=99 v=127
385500 On ch=3 n=24 v=0
385500 On ch=3 n=26 v=0
385500 On ch=3 n=42 v=0
385500 On ch=3 n=61 v=0
385500 On ch=3 n=63 v=0
385500 On ch=3 n=73 v=0
385500 On ch=3 n=75 v=0
385500 On ch=3 n=85 v=0
385500 On ch=3 n=87 v=0
385500 On ch=3 n=96 v=0
385500 On ch=3 n=97 v=0
385500 On ch=3 n=99 v=0
385674 On ch=3 n=25 v=0
385680 On ch=3 n=24 v=127
385680 On ch=3 n=42 v=127
385680 On ch=3 n=84 v=127
385680 On ch=3 n=87 v=127
385680 On ch=3 n=96 v=127
385680 On ch=3 n=99 v=127
385680 On ch=3 n=63 v=127
385680 On ch=3 n=72 v=127
385740 On ch=3 n=24 v=0
385740 On ch=3 n=42 v=0
385740 On ch=3 n=84 v=0
385740 On ch=3 n=87 v=0
385740 On ch=3 n=96 v=0
385740 On ch=3 n=99 v=0
385740 On ch=3 n=63 v=0
385740 On ch=3 n=72 v=0
385920 On ch=3 n=24 v=127
385920 On ch=3 n=25 v=127
385920 On ch=3 n=26 v=127
385920 On ch=3 n=42 v=127
385920 On ch=3 n=61 v=127
385920 On ch=3 n=63 v=127
385920 On ch=3 n=73 v=127
385920 On ch=3 n=75 v=127
385920 On ch=3 n=85 v=127
385920 On ch=3 n=87 v=127
385920 On ch=3 n=96 v=127
385920 On ch=3 n=97 v=127
385920 On ch=3 n=99 v=127
385980 On ch=3 n=24 v=0
385980 On ch=3 n=26 v=0
385980 On ch=3 n=42 v=0
385980 On ch=3 n=61 v=0
385980 On ch=3 n=63 v=0
385980 On ch=3 n=73 v=0
385980 On ch=3 n=75 v=0
385980 On ch=3 n=85 v=0
385980 On ch=3 n=87 v=0
385980 On ch=3 n=96 v=0
385980 On ch=3 n=97 v=0
385980 On ch=3 n=99 v=0
386154 On ch=3 n=25 v=0
386160 On ch=3 n=24 v=127
386160 On ch=3 n=42 v=127
386160 On ch=3 n=84 v=127
386160 On ch=3 n=87 v=127
386160 On ch=3 n=96 v=127
386160 On ch=3 n=99 v=127
386160 On ch=3 n=63 v=127
386160 On ch=3 n=72 v=127
386220 On ch=3 n=24 v=0
386220 On ch=3 n=42 v=0
386220 On ch=3 n=84 v=0
386220 On ch=3 n=87 v=0
386220 On ch=3 n=96 v=0
386220 On ch=3 n=99 v=0
386220 On ch=3 n=63 v=0
386220 On ch=3 n=72 v=0
386400 On ch=3 n=24 v=127
386400 On ch=3 n=27 v=127
386400 On ch=3 n=61 v=127
386400 On ch=3 n=73 v=127
386400 On ch=3 n=85 v=127
386400 On ch=3 n=96 v=127
386400 On ch=3 n=97 v=127
386460 On ch=3 n=24 v=0
386460 On ch=3 n=27 v=0
386460 On ch=3 n=61 v=0
386460 On ch=3 n=73 v=0
386460 On ch=3 n=85 v=0
386460 On ch=3 n=96 v=0
386460 On ch=3 n=97 v=0
386520 On ch=3 n=26 v=127
386520 On ch=3 n=85 v=127
386520 On ch=3 n=97 v=127
386580 On ch=3 n=26 v=0
386580 On ch=3 n=85 v=0
386580 On ch=3 n=97 v=0
386640 On ch=3 n=24 v=127
386640 On ch=3 n=27 v=127
386640 On ch=3 n=73 v=127
386640 On ch=3 n=85 v=127
386640 On ch=3 n=96 v=127
386640 On ch=3 n=97 v=127
386640 On ch=3 n=61 v=100
386700 On ch=3 n=24 v=0
386700 On ch=3 n=27 v=0
386700 On ch=3 n=73 v=0
386700 On ch=3 n=85 v=0
386700 On ch=3 n=96 v=0
386700 On ch=3 n=97 v=0
386700 On ch=3 n=61 v=0
386760 On ch=3 n=26 v=127
386760 On ch=3 n=85 v=127
386760 On ch=3 n=97 v=127
386820 On ch=3 n=26 v=0
386820 On ch=3 n=85 v=0
386820 On ch=3 n=97 v=0
386880 On ch=3 n=24 v=127
386880 On ch=3 n=36 v=127
386880 On ch=3 n=64 v=127
386880 On ch=3 n=72 v=127
386880 On ch=3 n=76 v=127
386880 On ch=3 n=84 v=127
386880 On ch=3 n=88 v=127
386880 On ch=3 n=96 v=127
386880 On ch=3 n=100 v=127
386880 On ch=3 n=60 v=100
386940 On ch=3 n=24 v=0
386940 On ch=3 n=36 v=0
386940 On ch=3 n=64 v=0
386940 On ch=3 n=72 v=0
386940 On ch=3 n=76 v=0
386940 On ch=3 n=84 v=0
386940 On ch=3 n=88 v=0
386940 On ch=3 n=96 v=0
386940 On ch=3 n=100 v=0
386940 On ch=3 n=60 v=0
387120 On ch=3 n=106 v=0
387240 On ch=3 n=25 v=127
387354 On ch=3 n=25 v=0
387360 On ch=3 n=24 v=127
387360 On ch=3 n=26 v=127
387360 On ch=3 n=38 v=127
387360 On ch=3 n=61 v=127
387360 On ch=3 n=63 v=127
387360 On ch=3 n=73 v=127
387360 On ch=3 n=75 v=127
387360 On ch=3 n=85 v=127
387360 On ch=3 n=88 v=127
387360 On ch=3 n=96 v=127
387360 On ch=3 n=97 v=127
387360 On ch=3 n=100 v=127
387420 On ch=3 n=24 v=0
387420 On ch=3 n=26 v=0
387420 On ch=3 n=38 v=0
387420 On ch=3 n=61 v=0
387420 On ch=3 n=63 v=0
387420 On ch=3 n=73 v=0
387420 On ch=3 n=75 v=0
387420 On ch=3 n=85 v=0
387420 On ch=3 n=88 v=0
387420 On ch=3 n=96 v=0
387420 On ch=3 n=97 v=0
387420 On ch=3 n=100 v=0
387600 On ch=3 n=42 v=127
387600 On ch=3 n=75 v=127
387600 On ch=3 n=87 v=127
387600 On ch=3 n=99 v=127
387600 On ch=3 n=63 v=127
387660 On ch=3 n=42 v=0
387660 On ch=3 n=75 v=0
387660 On ch=3 n=87 v=0
387660 On ch=3 n=99 v=0
387660 On ch=3 n=63 v=0
387720 On ch=3 n=25 v=127
387834 On ch=3 n=25 v=0
387840 On ch=3 n=24 v=127
387840 On ch=3 n=42 v=127
387840 On ch=3 n=63 v=127
387840 On ch=3 n=72 v=127
387840 On ch=3 n=75 v=127
387840 On ch=3 n=84 v=127
387840 On ch=3 n=87 v=127
387840 On ch=3 n=96 v=127
387840 On ch=3 n=99 v=127
387900 On ch=3 n=24 v=0
387900 On ch=3 n=42 v=0
387900 On ch=3 n=63 v=0
387900 On ch=3 n=72 v=0
387900 On ch=3 n=75 v=0
387900 On ch=3 n=84 v=0
387900 On ch=3 n=87 v=0
387900 On ch=3 n=96 v=0
387900 On ch=3 n=99 v=0
388080 On ch=3 n=24 v=127
388080 On ch=3 n=42 v=127
388080 On ch=3 n=72 v=127
388080 On ch=3 n=75 v=127
388080 On ch=3 n=84 v=127
388080 On ch=3 n=87 v=127
388080 On ch=3 n=96 v=127
388080 On ch=3 n=99 v=127
388080 On ch=3 n=63 v=127
388140 On ch=3 n=24 v=0
388140 On ch=3 n=42 v=0
388140 On ch=3 n=72 v=0
388140 On ch=3 n=75 v=0
388140 On ch=3 n=84 v=0
388140 On ch=3 n=87 v=0
388140 On ch=3 n=96 v=0
388140 On ch=3 n=99 v=0
388140 On ch=3 n=63 v=0
388200 On ch=3 n=25 v=127
388314 On ch=3 n=25 v=0
388320 On ch=3 n=26 v=127
388320 On ch=3 n=42 v=127
388320 On ch=3 n=61 v=127
388320 On ch=3 n=63 v=127
388320 On ch=3 n=73 v=127
388320 On ch=3 n=75 v=127
388320 On ch=3 n=85 v=127
388320 On ch=3 n=87 v=127
388320 On ch=3 n=97 v=127
388320 On ch=3 n=99 v=127
388380 On ch=3 n=26 v=0
388380 On ch=3 n=42 v=0
388380 On ch=3 n=61 v=0
388380 On ch=3 n=63 v=0
388380 On ch=3 n=73 v=0
388380 On ch=3 n=75 v=0
388380 On ch=3 n=85 v=0
388380 On ch=3 n=87 v=0
388380 On ch=3 n=97 v=0
388380 On ch=3 n=99 v=0
388560 On ch=3 n=24 v=127
388560 On ch=3 n=42 v=127
388560 On ch=3 n=75 v=127
388560 On ch=3 n=84 v=127
388560 On ch=3 n=87 v=127
388560 On ch=3 n=96 v=127
388560 On ch=3 n=99 v=127
388560 On ch=3 n=63 v=127
388620 On ch=3 n=24 v=0
388620 On ch=3 n=42 v=0
388620 On ch=3 n=75 v=0
388620 On ch=3 n=84 v=0
388620 On ch=3 n=87 v=0
388620 On ch=3 n=96 v=0
388620 On ch=3 n=99 v=0
388620 On ch=3 n=63 v=0
388680 On ch=3 n=25 v=127
388794 On ch=3 n=25 v=0
388800 On ch=3 n=24 v=127
388800 On ch=3 n=42 v=127
388800 On ch=3 n=63 v=127
388800 On ch=3 n=72 v=127
388800 On ch=3 n=75 v=127
388800 On ch=3 n=84 v=127
388800 On ch=3 n=87 v=127
388800 On ch=3 n=96 v=127
388800 On ch=3 n=99 v=127
388800 On ch=3 n=106 v=100
388860 On ch=3 n=24 v=0
388860 On ch=3 n=42 v=0
388860 On ch=3 n=63 v=0
388860 On ch=3 n=72 v=0
388860 On ch=3 n=75 v=0
388860 On ch=3 n=84 v=0
388860 On ch=3 n=87 v=0
388860 On ch=3 n=96 v=0
388860 On ch=3 n=99 v=0
389040 On ch=3 n=42 v=127
389040 On ch=3 n=75 v=127
389040 On ch=3 n=87 v=127
389040 On ch=3 n=99 v=127
389040 On ch=3 n=63 v=127
389100 On ch=3 n=42 v=0
389100 On ch=3 n=75 v=0
389100 On ch=3 n=87 v=0
389100 On ch=3 n=99 v=0
389100 On ch=3 n=63 v=0
389160 On ch=3 n=25 v=127
389274 On ch=3 n=25 v=0
389280 On ch=3 n=24 v=127
389280 On ch=3 n=26 v=127
389280 On ch=3 n=42 v=127
389280 On ch=3 n=61 v=127
389280 On ch=3 n=63 v=127
389280 On ch=3 n=73 v=127
389280 On ch=3 n=75 v=127
389280 On ch=3 n=85 v=127
389280 On ch=3 n=87 v=127
389280 On ch=3 n=96 v=127
389280 On ch=3 n=97 v=127
389280 On ch=3 n=99 v=127
389340 On ch=3 n=24 v=0
389340 On ch=3 n=26 v=0
389340 On ch=3 n=42 v=0
389340 On ch=3 n=61 v=0
389340 On ch=3 n=63 v=0
389340 On ch=3 n=73 v=0
389340 On ch=3 n=75 v=0
389340 On ch=3 n=85 v=0
389340 On ch=3 n=87 v=0
389340 On ch=3 n=96 v=0
389340 On ch=3 n=97 v=0
389340 On ch=3 n=99 v=0
389520 On ch=3 n=42 v=127
389520 On ch=3 n=75 v=127
389520 On ch=3 n=87 v=127
389520 On ch=3 n=99 v=127
389520 On ch=3 n=63 v=127
389580 On ch=3 n=42 v=0
389580 On ch=3 n=75 v=0
389580 On ch=3 n=87 v=0
389580 On ch=3 n=99 v=0
389580 On ch=3 n=63 v=0
389640 On ch=3 n=25 v=127
389754 On ch=3 n=25 v=0
389760 On ch=3 n=24 v=127
389760 On ch=3 n=42 v=127
389760 On ch=3 n=63 v=127
389760 On ch=3 n=72 v=127
389760 On ch=3 n=75 v=127
389760 On ch=3 n=84 v=127
389760 On ch=3 n=87 v=127
389760 On ch=3 n=96 v=127
389760 On ch=3 n=99 v=127
389820 On ch=3 n=24 v=0
389820 On ch=3 n=42 v=0
389820 On ch=3 n=63 v=0
389820 On ch=3 n=72 v=0
389820 On ch=3 n=75 v=0
389820 On ch=3 n=84 v=0
389820 On ch=3 n=87 v=0
389820 On ch=3 n=96 v=0
389820 On ch=3 n=99 v=0
390000 On ch=3 n=24 v=127
390000 On ch=3 n=42 v=127
390000 On ch=3 n=72 v=127
390000 On ch=3 n=75 v=127
390000 On ch=3 n=84 v=127
390000 On ch=3 n=87 v=127
390000 On ch=3 n=96 v=127
390000 On ch=3 n=99 v=127
390000 On ch=3 n=63 v=127
390060 On ch=3 n=24 v=0
390060 On ch=3 n=42 v=0
390060 On ch=3 n=72 v=0
390060 On ch=3 n=75 v=0
390060 On ch=3 n=84 v=0
390060 On ch=3 n=87 v=0
390060 On ch=3 n=96 v=0
390060 On ch=3 n=99 v=0
390060 On ch=3 n=63 v=0
390120 On ch=3 n=25 v=127
390234 On ch=3 n=25 v=0
390240 On ch=3 n=26 v=127
390240 On ch=3 n=42 v=127
390240 On ch=3 n=61 v=127
390240 On ch=3 n=63 v=127
390240 On ch=3 n=73 v=127
390240 On ch=3 n=75 v=127
390240 On ch=3 n=85 v=127
390240 On ch=3 n=87 v=127
390240 On ch=3 n=97 v=127
390240 On ch=3 n=99 v=127
390300 On ch=3 n=26 v=0
390300 On ch=3 n=42 v=0
390300 On ch=3 n=61 v=0
390300 On ch=3 n=63 v=0
390300 On ch=3 n=73 v=0
390300 On ch=3 n=75 v=0
390300 On ch=3 n=85 v=0
390300 On ch=3 n=87 v=0
390300 On ch=3 n=97 v=0
390300 On ch=3 n=99 v=0
390480 On ch=3 n=24 v=127
390480 On ch=3 n=42 v=127
390480 On ch=3 n=75 v=127
390480 On ch=3 n=84 v=127
390480 On ch=3 n=87 v=127
390480 On ch=3 n=96 v=127
390480 On ch=3 n=99 v=127
390480 On ch=3 n=63 v=127
390540 On ch=3 n=24 v=0
390540 On ch=3 n=42 v=0
390540 On ch=3 n=75 v=0
390540 On ch=3 n=84 v=0
390540 On ch=3 n=87 v=0
390540 On ch=3 n=96 v=0
390540 On ch=3 n=99 v=0
390540 On ch=3 n=63 v=0
390600 On ch=3 n=25 v=127
390714 On ch=3 n=25 v=0
390720 On ch=3 n=105 v=0
390720 On ch=3 n=24 v=127
390720 On ch=3 n=42 v=127
390720 On ch=3 n=63 v=127
390720 On ch=3 n=72 v=127
390720 On ch=3 n=75 v=127
390720 On ch=3 n=84 v=127
390720 On ch=3 n=87 v=127
390720 On ch=3 n=96 v=127
390720 On ch=3 n=99 v=127
390720 On ch=3 n=60 v=100
390780 On ch=3 n=24 v=0
390780 On ch=3 n=42 v=0
390780 On ch=3 n=63 v=0
390780 On ch=3 n=72 v=0
390780 On ch=3 n=75 v=0
390780 On ch=3 n=84 v=0
390780 On ch=3 n=87 v=0
390780 On ch=3 n=96 v=0
390780 On ch=3 n=99 v=0
390780 On ch=3 n=60 v=0
390960 On ch=3 n=42 v=127
390960 On ch=3 n=75 v=127
390960 On ch=3 n=87 v=127
390960 On ch=3 n=99 v=127
390960 On ch=3 n=63 v=127
391020 On ch=3 n=42 v=0
391020 On ch=3 n=75 v=0
391020 On ch=3 n=87 v=0
391020 On ch=3 n=99 v=0
391020 On ch=3 n=63 v=0
391080 On ch=3 n=25 v=127
391194 On ch=3 n=25 v=0
391200 On ch=3 n=24 v=127
391200 On ch=3 n=26 v=127
391200 On ch=3 n=42 v=127
391200 On ch=3 n=61 v=127
391200 On ch=3 n=63 v=127
391200 On ch=3 n=73 v=127
391200 On ch=3 n=75 v=127
391200 On ch=3 n=85 v=127
391200 On ch=3 n=87 v=127
391200 On ch=3 n=96 v=127
391200 On ch=3 n=97 v=127
391200 On ch=3 n=99 v=127
391260 On ch=3 n=24 v=0
391260 On ch=3 n=26 v=0
391260 On ch=3 n=42 v=0
391260 On ch=3 n=61 v=0
391260 On ch=3 n=63 v=0
391260 On ch=3 n=73 v=0
391260 On ch=3 n=75 v=0
391260 On ch=3 n=85 v=0
391260 On ch=3 n=87 v=0
391260 On ch=3 n=96 v=0
391260 On ch=3 n=97 v=0
391260 On ch=3 n=99 v=0
391440 On ch=3 n=42 v=127
391440 On ch=3 n=75 v=127
391440 On ch=3 n=87 v=127
391440 On ch=3 n=99 v=127
391440 On ch=3 n=63 v=127
391500 On ch=3 n=42 v=0
391500 On ch=3 n=75 v=0
391500 On ch=3 n=87 v=0
391500 On ch=3 n=99 v=0
391500 On ch=3 n=63 v=0
391560 On ch=3 n=25 v=127
391674 On ch=3 n=25 v=0
391680 On ch=3 n=24 v=127
391680 On ch=3 n=42 v=127
391680 On ch=3 n=63 v=127
391680 On ch=3 n=72 v=127
391680 On ch=3 n=75 v=127
391680 On ch=3 n=84 v=127
391680 On ch=3 n=87 v=127
391680 On ch=3 n=96 v=127
391680 On ch=3 n=99 v=127
391740 On ch=3 n=24 v=0
391740 On ch=3 n=42 v=0
391740 On ch=3 n=63 v=0
391740 On ch=3 n=72 v=0
391740 On ch=3 n=75 v=0
391740 On ch=3 n=84 v=0
391740 On ch=3 n=87 v=0
391740 On ch=3 n=96 v=0
391740 On ch=3 n=99 v=0
391920 On ch=3 n=24 v=127
391920 On ch=3 n=42 v=127
391920 On ch=3 n=72 v=127
391920 On ch=3 n=75 v=127
391920 On ch=3 n=84 v=127
391920 On ch=3 n=87 v=127
391920 On ch=3 n=96 v=127
391920 On ch=3 n=99 v=127
391920 On ch=3 n=63 v=127
391980 On ch=3 n=24 v=0
391980 On ch=3 n=42 v=0
391980 On ch=3 n=72 v=0
391980 On ch=3 n=75 v=0
391980 On ch=3 n=84 v=0
391980 On ch=3 n=87 v=0
391980 On ch=3 n=96 v=0
391980 On ch=3 n=99 v=0
391980 On ch=3 n=63 v=0
392040 On ch=3 n=25 v=127
392154 On ch=3 n=25 v=0
392160 On ch=3 n=26 v=127
392160 On ch=3 n=42 v=127
392160 On ch=3 n=61 v=127
392160 On ch=3 n=63 v=127
392160 On ch=3 n=73 v=127
392160 On ch=3 n=75 v=127
392160 On ch=3 n=85 v=127
392160 On ch=3 n=87 v=127
392160 On ch=3 n=97 v=127
392160 On ch=3 n=99 v=127
392220 On ch=3 n=26 v=0
392220 On ch=3 n=42 v=0
392220 On ch=3 n=61 v=0
392220 On ch=3 n=63 v=0
392220 On ch=3 n=73 v=0
392220 On ch=3 n=75 v=0
392220 On ch=3 n=85 v=0
392220 On ch=3 n=87 v=0
392220 On ch=3 n=97 v=0
392220 On ch=3 n=99 v=0
392400 On ch=3 n=24 v=127
392400 On ch=3 n=42 v=127
392400 On ch=3 n=75 v=127
392400 On ch=3 n=84 v=127
392400 On ch=3 n=87 v=127
392400 On ch=3 n=96 v=127
392400 On ch=3 n=99 v=127
392400 On ch=3 n=63 v=127
392460 On ch=3 n=24 v=0
392460 On ch=3 n=42 v=0
392460 On ch=3 n=75 v=0
392460 On ch=3 n=84 v=0
392460 On ch=3 n=87 v=0
392460 On ch=3 n=96 v=0
392460 On ch=3 n=99 v=0
392460 On ch=3 n=63 v=0
392520 On ch=3 n=25 v=127
392634 On ch=3 n=25 v=0
392640 On ch=3 n=24 v=127
392640 On ch=3 n=42 v=127
392640 On ch=3 n=63 v=127
392640 On ch=3 n=72 v=127
392640 On ch=3 n=75 v=127
392640 On ch=3 n=84 v=127
392640 On ch=3 n=87 v=127
392640 On ch=3 n=96 v=127
392640 On ch=3 n=99 v=127
392640 On ch=3 n=105 v=100
392700 On ch=3 n=24 v=0
392700 On ch=3 n=42 v=0
392700 On ch=3 n=63 v=0
392700 On ch=3 n=72 v=0
392700 On ch=3 n=75 v=0
392700 On ch=3 n=84 v=0
392700 On ch=3 n=87 v=0
392700 On ch=3 n=96 v=0
392700 On ch=3 n=99 v=0
392880 On ch=3 n=42 v=127
392880 On ch=3 n=75 v=127
392880 On ch=3 n=87 v=127
392880 On ch=3 n=99 v=127
392880 On ch=3 n=63 v=127
392940 On ch=3 n=42 v=0
392940 On ch=3 n=75 v=0
392940 On ch=3 n=87 v=0
392940 On ch=3 n=99 v=0
392940 On ch=3 n=63 v=0
393000 On ch=3 n=25 v=127
393114 On ch=3 n=25 v=0
393120 On ch=3 n=124 v=127
393120 On ch=3 n=123 v=127
393120 On ch=3 n=122 v=127
393120 On ch=3 n=121 v=127
393120 On ch=3 n=120 v=127
393120 On ch=3 n=99 v=127
393120 On ch=3 n=97 v=127
393120 On ch=3 n=96 v=127
393120 On ch=3 n=87 v=127
393120 On ch=3 n=85 v=127
393120 On ch=3 n=75 v=127
393120 On ch=3 n=73 v=127
393120 On ch=3 n=63 v=127
393120 On ch=3 n=61 v=127
393120 On ch=3 n=42 v=127
393120 On ch=3 n=26 v=127
393120 On ch=3 n=24 v=127
393180 On ch=3 n=99 v=0
393180 On ch=3 n=97 v=0
393180 On ch=3 n=96 v=0
393180 On ch=3 n=87 v=0
393180 On ch=3 n=85 v=0
393180 On ch=3 n=75 v=0
393180 On ch=3 n=73 v=0
393180 On ch=3 n=63 v=0
393180 On ch=3 n=61 v=0
393180 On ch=3 n=42 v=0
393180 On ch=3 n=26 v=0
393180 On ch=3 n=24 v=0
393360 On ch=3 n=42 v=127
393360 On ch=3 n=75 v=127
393360 On ch=3 n=87 v=127
393360 On ch=3 n=99 v=127
393360 On ch=3 n=63 v=127
393420 On ch=3 n=42 v=0
393420 On ch=3 n=75 v=0
393420 On ch=3 n=87 v=0
393420 On ch=3 n=99 v=0
393420 On ch=3 n=63 v=0
393480 On ch=3 n=25 v=127
393594 On ch=3 n=25 v=0
393600 On ch=3 n=24 v=127
393600 On ch=3 n=42 v=127
393600 On ch=3 n=63 v=127
393600 On ch=3 n=72 v=127
393600 On ch=3 n=75 v=127
393600 On ch=3 n=84 v=127
393600 On ch=3 n=87 v=127
393600 On ch=3 n=96 v=127
393600 On ch=3 n=99 v=127
393660 On ch=3 n=24 v=0
393660 On ch=3 n=42 v=0
393660 On ch=3 n=63 v=0
393660 On ch=3 n=72 v=0
393660 On ch=3 n=75 v=0
393660 On ch=3 n=84 v=0
393660 On ch=3 n=87 v=0
393660 On ch=3 n=96 v=0
393660 On ch=3 n=99 v=0
393840 On ch=3 n=24 v=127
393840 On ch=3 n=42 v=127
393840 On ch=3 n=72 v=127
393840 On ch=3 n=75 v=127
393840 On ch=3 n=84 v=127
393840 On ch=3 n=87 v=127
393840 On ch=3 n=96 v=127
393840 On ch=3 n=99 v=127
393840 On ch=3 n=63 v=127
393900 On ch=3 n=24 v=0
393900 On ch=3 n=42 v=0
393900 On ch=3 n=72 v=0
393900 On ch=3 n=75 v=0
393900 On ch=3 n=84 v=0
393900 On ch=3 n=87 v=0
393900 On ch=3 n=96 v=0
393900 On ch=3 n=99 v=0
393900 On ch=3 n=63 v=0
393960 On ch=3 n=25 v=127
394074 On ch=3 n=25 v=0
394080 On ch=3 n=26 v=127
394080 On ch=3 n=42 v=127
394080 On ch=3 n=61 v=127
394080 On ch=3 n=63 v=127
394080 On ch=3 n=73 v=127
394080 On ch=3 n=75 v=127
394080 On ch=3 n=85 v=127
394080 On ch=3 n=87 v=127
394080 On ch=3 n=97 v=127
394080 On ch=3 n=99 v=127
394140 On ch=3 n=26 v=0
394140 On ch=3 n=42 v=0
394140 On ch=3 n=61 v=0
394140 On ch=3 n=63 v=0
394140 On ch=3 n=73 v=0
394140 On ch=3 n=75 v=0
394140 On ch=3 n=85 v=0
394140 On ch=3 n=87 v=0
394140 On ch=3 n=97 v=0
394140 On ch=3 n=99 v=0
394320 On ch=3 n=24 v=127
394320 On ch=3 n=42 v=127
394320 On ch=3 n=75 v=127
394320 On ch=3 n=84 v=127
394320 On ch=3 n=87 v=127
394320 On ch=3 n=96 v=127
394320 On ch=3 n=99 v=127
394320 On ch=3 n=63 v=127
394380 On ch=3 n=24 v=0
394380 On ch=3 n=42 v=0
394380 On ch=3 n=75 v=0
394380 On ch=3 n=84 v=0
394380 On ch=3 n=87 v=0
394380 On ch=3 n=96 v=0
394380 On ch=3 n=99 v=0
394380 On ch=3 n=63 v=0
394440 On ch=3 n=25 v=127
394554 On ch=3 n=25 v=0
394556 On ch=3 n=124 v=0
394556 On ch=3 n=123 v=0
394556 On ch=3 n=122 v=0
394556 On ch=3 n=121 v=0
394556 On ch=3 n=120 v=0
394560 On ch=3 n=106 v=0
394560 On ch=3 n=24 v=127
394560 On ch=3 n=38 v=127
394560 On ch=3 n=60 v=127
394560 On ch=3 n=64 v=127
394560 On ch=3 n=72 v=127
394560 On ch=3 n=76 v=127
394560 On ch=3 n=84 v=127
394560 On ch=3 n=88 v=127
394560 On ch=3 n=96 v=127
394560 On ch=3 n=100 v=127
394620 On ch=3 n=24 v=0
394620 On ch=3 n=38 v=0
394620 On ch=3 n=60 v=0
394620 On ch=3 n=64 v=0
394620 On ch=3 n=72 v=0
394620 On ch=3 n=76 v=0
394620 On ch=3 n=84 v=0
394620 On ch=3 n=88 v=0
394620 On ch=3 n=96 v=0
394620 On ch=3 n=100 v=0
394920 On ch=3 n=25 v=127
395034 On ch=3 n=25 v=0
395040 On ch=3 n=24 v=127
395040 On ch=3 n=26 v=127
395040 On ch=3 n=42 v=127
395040 On ch=3 n=61 v=127
395040 On ch=3 n=63 v=127
395040 On ch=3 n=73 v=127
395040 On ch=3 n=75 v=127
395040 On ch=3 n=85 v=127
395040 On ch=3 n=87 v=127
395040 On ch=3 n=96 v=127
395040 On ch=3 n=97 v=127
395040 On ch=3 n=99 v=127
395100 On ch=3 n=24 v=0
395100 On ch=3 n=26 v=0
395100 On ch=3 n=42 v=0
395100 On ch=3 n=61 v=0
395100 On ch=3 n=63 v=0
395100 On ch=3 n=73 v=0
395100 On ch=3 n=75 v=0
395100 On ch=3 n=85 v=0
395100 On ch=3 n=87 v=0
395100 On ch=3 n=96 v=0
395100 On ch=3 n=97 v=0
395100 On ch=3 n=99 v=0
395280 On ch=3 n=42 v=127
395280 On ch=3 n=75 v=127
395280 On ch=3 n=87 v=127
395280 On ch=3 n=99 v=127
395280 On ch=3 n=63 v=127
395340 On ch=3 n=42 v=0
395340 On ch=3 n=75 v=0
395340 On ch=3 n=87 v=0
395340 On ch=3 n=99 v=0
395340 On ch=3 n=63 v=0
395400 On ch=3 n=25 v=127
395514 On ch=3 n=25 v=0
395520 On ch=3 n=24 v=127
395520 On ch=3 n=42 v=127
395520 On ch=3 n=63 v=127
395520 On ch=3 n=72 v=127
395520 On ch=3 n=75 v=127
395520 On ch=3 n=84 v=127
395520 On ch=3 n=87 v=127
395520 On ch=3 n=96 v=127
395520 On ch=3 n=99 v=127
395580 On ch=3 n=24 v=0
395580 On ch=3 n=42 v=0
395580 On ch=3 n=63 v=0
395580 On ch=3 n=72 v=0
395580 On ch=3 n=75 v=0
395580 On ch=3 n=84 v=0
395580 On ch=3 n=87 v=0
395580 On ch=3 n=96 v=0
395580 On ch=3 n=99 v=0
395760 On ch=3 n=24 v=127
395760 On ch=3 n=42 v=127
395760 On ch=3 n=72 v=127
395760 On ch=3 n=75 v=127
395760 On ch=3 n=84 v=127
395760 On ch=3 n=87 v=127
395760 On ch=3 n=96 v=127
395760 On ch=3 n=99 v=127
395760 On ch=3 n=63 v=127
395820 On ch=3 n=24 v=0
395820 On ch=3 n=42 v=0
395820 On ch=3 n=72 v=0
395820 On ch=3 n=75 v=0
395820 On ch=3 n=84 v=0
395820 On ch=3 n=87 v=0
395820 On ch=3 n=96 v=0
395820 On ch=3 n=99 v=0
395820 On ch=3 n=63 v=0
395880 On ch=3 n=25 v=127
395994 On ch=3 n=25 v=0
396000 On ch=3 n=26 v=127
396000 On ch=3 n=42 v=127
396000 On ch=3 n=61 v=127
396000 On ch=3 n=63 v=127
396000 On ch=3 n=73 v=127
396000 On ch=3 n=75 v=127
396000 On ch=3 n=85 v=127
396000 On ch=3 n=87 v=127
396000 On ch=3 n=97 v=127
396000 On ch=3 n=99 v=127
396060 On ch=3 n=26 v=0
396060 On ch=3 n=42 v=0
396060 On ch=3 n=61 v=0
396060 On ch=3 n=63 v=0
396060 On ch=3 n=73 v=0
396060 On ch=3 n=75 v=0
396060 On ch=3 n=85 v=0
396060 On ch=3 n=87 v=0
396060 On ch=3 n=97 v=0
396060 On ch=3 n=99 v=0
396240 On ch=3 n=24 v=127
396240 On ch=3 n=42 v=127
396240 On ch=3 n=75 v=127
396240 On ch=3 n=84 v=127
396240 On ch=3 n=87 v=127
396240 On ch=3 n=96 v=127
396240 On ch=3 n=99 v=127
396240 On ch=3 n=63 v=127
396300 On ch=3 n=24 v=0
396300 On ch=3 n=42 v=0
396300 On ch=3 n=75 v=0
396300 On ch=3 n=84 v=0
396300 On ch=3 n=87 v=0
396300 On ch=3 n=96 v=0
396300 On ch=3 n=99 v=0
396300 On ch=3 n=63 v=0
396360 On ch=3 n=25 v=127
396474 On ch=3 n=25 v=0
396480 On ch=3 n=24 v=127
396480 On ch=3 n=42 v=127
396480 On ch=3 n=63 v=127
396480 On ch=3 n=72 v=127
396480 On ch=3 n=75 v=127
396480 On ch=3 n=84 v=127
396480 On ch=3 n=87 v=127
396480 On ch=3 n=96 v=127
396480 On ch=3 n=99 v=127
396480 On ch=3 n=106 v=100
396540 On ch=3 n=24 v=0
396540 On ch=3 n=42 v=0
396540 On ch=3 n=63 v=0
396540 On ch=3 n=72 v=0
396540 On ch=3 n=75 v=0
396540 On ch=3 n=84 v=0
396540 On ch=3 n=87 v=0
396540 On ch=3 n=96 v=0
396540 On ch=3 n=99 v=0
396720 On ch=3 n=42 v=127
396720 On ch=3 n=75 v=127
396720 On ch=3 n=87 v=127
396720 On ch=3 n=99 v=127
396720 On ch=3 n=63 v=127
396780 On ch=3 n=42 v=0
396780 On ch=3 n=75 v=0
396780 On ch=3 n=87 v=0
396780 On ch=3 n=99 v=0
396780 On ch=3 n=63 v=0
396840 On ch=3 n=25 v=127
396954 On ch=3 n=25 v=0
396960 On ch=3 n=24 v=127
396960 On ch=3 n=26 v=127
396960 On ch=3 n=42 v=127
396960 On ch=3 n=61 v=127
396960 On ch=3 n=63 v=127
396960 On ch=3 n=73 v=127
396960 On ch=3 n=75 v=127
396960 On ch=3 n=85 v=127
396960 On ch=3 n=87 v=127
396960 On ch=3 n=96 v=127
396960 On ch=3 n=97 v=127
396960 On ch=3 n=99 v=127
397020 On ch=3 n=24 v=0
397020 On ch=3 n=26 v=0
397020 On ch=3 n=42 v=0
397020 On ch=3 n=61 v=0
397020 On ch=3 n=63 v=0
397020 On ch=3 n=73 v=0
397020 On ch=3 n=75 v=0
397020 On ch=3 n=85 v=0
397020 On ch=3 n=87 v=0
397020 On ch=3 n=96 v=0
397020 On ch=3 n=97 v=0
397020 On ch=3 n=99 v=0
397200 On ch=3 n=42 v=127
397200 On ch=3 n=75 v=127
397200 On ch=3 n=87 v=127
397200 On ch=3 n=99 v=127
397200 On ch=3 n=63 v=127
397260 On ch=3 n=42 v=0
397260 On ch=3 n=75 v=0
397260 On ch=3 n=87 v=0
397260 On ch=3 n=99 v=0
397260 On ch=3 n=63 v=0
397320 On ch=3 n=25 v=127
397434 On ch=3 n=25 v=0
397440 On ch=3 n=24 v=127
397440 On ch=3 n=42 v=127
397440 On ch=3 n=63 v=127
397440 On ch=3 n=72 v=127
397440 On ch=3 n=75 v=127
397440 On ch=3 n=84 v=127
397440 On ch=3 n=87 v=127
397440 On ch=3 n=96 v=127
397440 On ch=3 n=99 v=127
397500 On ch=3 n=24 v=0
397500 On ch=3 n=42 v=0
397500 On ch=3 n=63 v=0
397500 On ch=3 n=72 v=0
397500 On ch=3 n=75 v=0
397500 On ch=3 n=84 v=0
397500 On ch=3 n=87 v=0
397500 On ch=3 n=96 v=0
397500 On ch=3 n=99 v=0
397680 On ch=3 n=24 v=127
397680 On ch=3 n=42 v=127
397680 On ch=3 n=72 v=127
397680 On ch=3 n=75 v=127
397680 On ch=3 n=84 v=127
397680 On ch=3 n=87 v=127
397680 On ch=3 n=96 v=127
397680 On ch=3 n=99 v=127
397680 On ch=3 n=63 v=127
397740 On ch=3 n=24 v=0
397740 On ch=3 n=42 v=0
397740 On ch=3 n=72 v=0
397740 On ch=3 n=75 v=0
397740 On ch=3 n=84 v=0
397740 On ch=3 n=87 v=0
397740 On ch=3 n=96 v=0
397740 On ch=3 n=99 v=0
397740 On ch=3 n=63 v=0
397800 On ch=3 n=25 v=127
397914 On ch=3 n=25 v=0
397920 On ch=3 n=26 v=127
397920 On ch=3 n=42 v=127
397920 On ch=3 n=61 v=127
397920 On ch=3 n=63 v=127
397920 On ch=3 n=73 v=127
397920 On ch=3 n=75 v=127
397920 On ch=3 n=85 v=127
397920 On ch=3 n=87 v=127
397920 On ch=3 n=97 v=127
397920 On ch=3 n=99 v=127
397980 On ch=3 n=26 v=0
397980 On ch=3 n=42 v=0
397980 On ch=3 n=61 v=0
397980 On ch=3 n=63 v=0
397980 On ch=3 n=73 v=0
397980 On ch=3 n=75 v=0
397980 On ch=3 n=85 v=0
397980 On ch=3 n=87 v=0
397980 On ch=3 n=97 v=0
397980 On ch=3 n=99 v=0
398160 On ch=3 n=24 v=127
398160 On ch=3 n=42 v=127
398160 On ch=3 n=75 v=127
398160 On ch=3 n=84 v=127
398160 On ch=3 n=87 v=127
398160 On ch=3 n=96 v=127
398160 On ch=3 n=99 v=127
398160 On ch=3 n=63 v=127
398220 On ch=3 n=24 v=0
398220 On ch=3 n=42 v=0
398220 On ch=3 n=75 v=0
398220 On ch=3 n=84 v=0
398220 On ch=3 n=87 v=0
398220 On ch=3 n=96 v=0
398220 On ch=3 n=99 v=0
398220 On ch=3 n=63 v=0
398280 On ch=3 n=25 v=127
398394 On ch=3 n=25 v=0
398400 On ch=3 n=105 v=0
398400 On ch=3 n=24 v=127
398400 On ch=3 n=42 v=127
398400 On ch=3 n=63 v=127
398400 On ch=3 n=72 v=127
398400 On ch=3 n=75 v=127
398400 On ch=3 n=84 v=127
398400 On ch=3 n=87 v=127
398400 On ch=3 n=96 v=127
398400 On ch=3 n=99 v=127
398400 On ch=3 n=60 v=100
398460 On ch=3 n=24 v=0
398460 On ch=3 n=42 v=0
398460 On ch=3 n=63 v=0
398460 On ch=3 n=72 v=0
398460 On ch=3 n=75 v=0
398460 On ch=3 n=84 v=0
398460 On ch=3 n=87 v=0
398460 On ch=3 n=96 v=0
398460 On ch=3 n=99 v=0
398460 On ch=3 n=60 v=0
398640 On ch=3 n=42 v=127
398640 On ch=3 n=75 v=127
398640 On ch=3 n=87 v=127
398640 On ch=3 n=99 v=127
398640 On ch=3 n=63 v=127
398700 On ch=3 n=42 v=0
398700 On ch=3 n=75 v=0
398700 On ch=3 n=87 v=0
398700 On ch=3 n=99 v=0
398700 On ch=3 n=63 v=0
398760 On ch=3 n=25 v=127
398874 On ch=3 n=25 v=0
398880 On ch=3 n=24 v=127
398880 On ch=3 n=26 v=127
398880 On ch=3 n=42 v=127
398880 On ch=3 n=61 v=127
398880 On ch=3 n=63 v=127
398880 On ch=3 n=73 v=127
398880 On ch=3 n=75 v=127
398880 On ch=3 n=85 v=127
398880 On ch=3 n=87 v=127
398880 On ch=3 n=96 v=127
398880 On ch=3 n=97 v=127
398880 On ch=3 n=99 v=127
398940 On ch=3 n=24 v=0
398940 On ch=3 n=26 v=0
398940 On ch=3 n=42 v=0
398940 On ch=3 n=61 v=0
398940 On ch=3 n=63 v=0
398940 On ch=3 n=73 v=0
398940 On ch=3 n=75 v=0
398940 On ch=3 n=85 v=0
398940 On ch=3 n=87 v=0
398940 On ch=3 n=96 v=0
398940 On ch=3 n=97 v=0
398940 On ch=3 n=99 v=0
399120 On ch=3 n=42 v=127
399120 On ch=3 n=75 v=127
399120 On ch=3 n=87 v=127
399120 On ch=3 n=99 v=127
399120 On ch=3 n=63 v=127
399180 On ch=3 n=42 v=0
399180 On ch=3 n=75 v=0
399180 On ch=3 n=87 v=0
399180 On ch=3 n=99 v=0
399180 On ch=3 n=63 v=0
399240 On ch=3 n=25 v=127
399354 On ch=3 n=25 v=0
399360 On ch=3 n=24 v=127
399360 On ch=3 n=42 v=127
399360 On ch=3 n=63 v=127
399360 On ch=3 n=72 v=127
399360 On ch=3 n=75 v=127
399360 On ch=3 n=84 v=127
399360 On ch=3 n=87 v=127
399360 On ch=3 n=96 v=127
399360 On ch=3 n=99 v=127
399420 On ch=3 n=24 v=0
399420 On ch=3 n=42 v=0
399420 On ch=3 n=63 v=0
399420 On ch=3 n=72 v=0
399420 On ch=3 n=75 v=0
399420 On ch=3 n=84 v=0
399420 On ch=3 n=87 v=0
399420 On ch=3 n=96 v=0
399420 On ch=3 n=99 v=0
399600 On ch=3 n=24 v=127
399600 On ch=3 n=42 v=127
399600 On ch=3 n=72 v=127
399600 On ch=3 n=75 v=127
399600 On ch=3 n=84 v=127
399600 On ch=3 n=87 v=127
399600 On ch=3 n=96 v=127
399600 On ch=3 n=99 v=127
399600 On ch=3 n=63 v=127
399660 On ch=3 n=24 v=0
399660 On ch=3 n=42 v=0
399660 On ch=3 n=72 v=0
399660 On ch=3 n=75 v=0
399660 On ch=3 n=84 v=0
399660 On ch=3 n=87 v=0
399660 On ch=3 n=96 v=0
399660 On ch=3 n=99 v=0
399660 On ch=3 n=63 v=0
399720 On ch=3 n=25 v=127
399834 On ch=3 n=25 v=0
399840 On ch=3 n=26 v=127
399840 On ch=3 n=42 v=127
399840 On ch=3 n=61 v=127
399840 On ch=3 n=63 v=127
399840 On ch=3 n=73 v=127
399840 On ch=3 n=75 v=127
399840 On ch=3 n=85 v=127
399840 On ch=3 n=87 v=127
399840 On ch=3 n=97 v=127
399840 On ch=3 n=99 v=127
399900 On ch=3 n=26 v=0
399900 On ch=3 n=42 v=0
399900 On ch=3 n=61 v=0
399900 On ch=3 n=63 v=0
399900 On ch=3 n=73 v=0
399900 On ch=3 n=75 v=0
399900 On ch=3 n=85 v=0
399900 On ch=3 n=87 v=0
399900 On ch=3 n=97 v=0
399900 On ch=3 n=99 v=0
400080 On ch=3 n=24 v=127
400080 On ch=3 n=42 v=127
400080 On ch=3 n=75 v=127
400080 On ch=3 n=84 v=127
400080 On ch=3 n=87 v=127
400080 On ch=3 n=96 v=127
400080 On ch=3 n=99 v=127
400080 On ch=3 n=63 v=127
400140 On ch=3 n=24 v=0
400140 On ch=3 n=42 v=0
400140 On ch=3 n=75 v=0
400140 On ch=3 n=84 v=0
400140 On ch=3 n=87 v=0
400140 On ch=3 n=96 v=0
400140 On ch=3 n=99 v=0
400140 On ch=3 n=63 v=0
400200 On ch=3 n=25 v=127
400314 On ch=3 n=25 v=0
400320 On ch=3 n=24 v=127
400320 On ch=3 n=42 v=127
400320 On ch=3 n=63 v=127
400320 On ch=3 n=72 v=127
400320 On ch=3 n=75 v=127
400320 On ch=3 n=84 v=127
400320 On ch=3 n=87 v=127
400320 On ch=3 n=96 v=127
400320 On ch=3 n=99 v=127
400380 On ch=3 n=24 v=0
400380 On ch=3 n=42 v=0
400380 On ch=3 n=63 v=0
400380 On ch=3 n=72 v=0
400380 On ch=3 n=75 v=0
400380 On ch=3 n=84 v=0
400380 On ch=3 n=87 v=0
400380 On ch=3 n=96 v=0
400380 On ch=3 n=99 v=0
400560 On ch=3 n=42 v=127
400560 On ch=3 n=75 v=127
400560 On ch=3 n=87 v=127
400560 On ch=3 n=99 v=127
400560 On ch=3 n=63 v=127
400620 On ch=3 n=42 v=0
400620 On ch=3 n=75 v=0
400620 On ch=3 n=87 v=0
400620 On ch=3 n=99 v=0
400620 On ch=3 n=63 v=0
400680 On ch=3 n=25 v=127
400794 On ch=3 n=25 v=0
400800 On ch=3 n=24 v=127
400800 On ch=3 n=26 v=127
400800 On ch=3 n=42 v=127
400800 On ch=3 n=61 v=127
400800 On ch=3 n=63 v=127
400800 On ch=3 n=73 v=127
400800 On ch=3 n=75 v=127
400800 On ch=3 n=85 v=127
400800 On ch=3 n=87 v=127
400800 On ch=3 n=96 v=127
400800 On ch=3 n=97 v=127
400800 On ch=3 n=99 v=127
400860 On ch=3 n=24 v=0
400860 On ch=3 n=26 v=0
400860 On ch=3 n=42 v=0
400860 On ch=3 n=61 v=0
400860 On ch=3 n=63 v=0
400860 On ch=3 n=73 v=0
400860 On ch=3 n=75 v=0
400860 On ch=3 n=85 v=0
400860 On ch=3 n=87 v=0
400860 On ch=3 n=96 v=0
400860 On ch=3 n=97 v=0
400860 On ch=3 n=99 v=0
401040 On ch=3 n=27 v=127
401040 On ch=3 n=85 v=127
401040 On ch=3 n=97 v=127
401040 On ch=3 n=120 v=127
401040 On ch=3 n=121 v=127
401040 On ch=3 n=122 v=127
401040 On ch=3 n=123 v=127
401040 On ch=3 n=124 v=127
401040 On ch=3 n=105 v=100
401040 On ch=3 n=73 v=100
401100 On ch=3 n=27 v=0
401100 On ch=3 n=85 v=0
401100 On ch=3 n=97 v=0
401100 On ch=3 n=73 v=0
401160 On ch=3 n=25 v=127
401160 On ch=3 n=26 v=127
401160 On ch=3 n=85 v=127
401160 On ch=3 n=97 v=127
401220 On ch=3 n=26 v=0
401220 On ch=3 n=85 v=0
401220 On ch=3 n=97 v=0
401274 On ch=3 n=25 v=0
401280 On ch=3 n=24 v=127
401280 On ch=3 n=38 v=127
401280 On ch=3 n=60 v=127
401280 On ch=3 n=64 v=127
401280 On ch=3 n=72 v=127
401280 On ch=3 n=76 v=127
401280 On ch=3 n=84 v=127
401280 On ch=3 n=88 v=127
401280 On ch=3 n=96 v=127
401280 On ch=3 n=100 v=127
401340 On ch=3 n=24 v=0
401340 On ch=3 n=38 v=0
401340 On ch=3 n=60 v=0
401340 On ch=3 n=64 v=0
401340 On ch=3 n=72 v=0
401340 On ch=3 n=76 v=0
401340 On ch=3 n=84 v=0
401340 On ch=3 n=88 v=0
401340 On ch=3 n=96 v=0
401340 On ch=3 n=100 v=0
401520 On ch=3 n=27 v=127
401520 On ch=3 n=85 v=127
401520 On ch=3 n=97 v=127
401520 On ch=3 n=73 v=100
401580 On ch=3 n=27 v=0
401580 On ch=3 n=85 v=0
401580 On ch=3 n=97 v=0
401580 On ch=3 n=73 v=0
401640 On ch=3 n=25 v=127
401640 On ch=3 n=26 v=127
401640 On ch=3 n=85 v=127
401640 On ch=3 n=97 v=127
401700 On ch=3 n=26 v=0
401700 On ch=3 n=85 v=0
401700 On ch=3 n=97 v=0
401754 On ch=3 n=25 v=0
401760 On ch=3 n=24 v=127
401760 On ch=3 n=36 v=127
401760 On ch=3 n=60 v=127
401760 On ch=3 n=64 v=127
401760 On ch=3 n=72 v=127
401760 On ch=3 n=76 v=127
401760 On ch=3 n=84 v=127
401760 On ch=3 n=88 v=127
401760 On ch=3 n=96 v=127
401760 On ch=3 n=99 v=127
401820 On ch=3 n=24 v=0
401820 On ch=3 n=36 v=0
401820 On ch=3 n=60 v=0
401820 On ch=3 n=64 v=0
401820 On ch=3 n=72 v=0
401820 On ch=3 n=76 v=0
401820 On ch=3 n=84 v=0
401820 On ch=3 n=88 v=0
401820 On ch=3 n=96 v=0
401820 On ch=3 n=99 v=0
402000 On ch=3 n=27 v=127
402000 On ch=3 n=85 v=127
402000 On ch=3 n=97 v=127
402000 On ch=3 n=73 v=100
402060 On ch=3 n=27 v=0
402060 On ch=3 n=85 v=0
402060 On ch=3 n=97 v=0
402060 On ch=3 n=73 v=0
402120 On ch=3 n=25 v=127
402120 On ch=3 n=26 v=127
402120 On ch=3 n=85 v=127
402120 On ch=3 n=97 v=127
402180 On ch=3 n=26 v=0
402180 On ch=3 n=85 v=0
402180 On ch=3 n=97 v=0
402234 On ch=3 n=25 v=0
402236 On ch=3 n=120 v=0
402236 On ch=3 n=121 v=0
402236 On ch=3 n=122 v=0
402236 On ch=3 n=123 v=0
402236 On ch=3 n=124 v=0
402240 On ch=3 n=106 v=0
402240 On ch=3 n=24 v=127
402240 On ch=3 n=38 v=127
402240 On ch=3 n=60 v=127
402240 On ch=3 n=64 v=127
402240 On ch=3 n=72 v=127
402240 On ch=3 n=76 v=127
402240 On ch=3 n=84 v=127
402240 On ch=3 n=88 v=127
402240 On ch=3 n=96 v=127
402240 On ch=3 n=100 v=127
402300 On ch=3 n=24 v=0
402300 On ch=3 n=38 v=0
402300 On ch=3 n=60 v=0
402300 On ch=3 n=64 v=0
402300 On ch=3 n=72 v=0
402300 On ch=3 n=76 v=0
402300 On ch=3 n=84 v=0
402300 On ch=3 n=88 v=0
402300 On ch=3 n=96 v=0
402300 On ch=3 n=100 v=0
402600 On ch=3 n=25 v=127
402714 On ch=3 n=25 v=0
402720 On ch=3 n=24 v=127
402720 On ch=3 n=26 v=127
402720 On ch=3 n=42 v=127
402720 On ch=3 n=61 v=127
402720 On ch=3 n=63 v=127
402720 On ch=3 n=73 v=127
402720 On ch=3 n=75 v=127
402720 On ch=3 n=85 v=127
402720 On ch=3 n=87 v=127
402720 On ch=3 n=96 v=127
402720 On ch=3 n=97 v=127
402720 On ch=3 n=99 v=127
402780 On ch=3 n=24 v=0
402780 On ch=3 n=26 v=0
402780 On ch=3 n=42 v=0
402780 On ch=3 n=61 v=0
402780 On ch=3 n=63 v=0
402780 On ch=3 n=73 v=0
402780 On ch=3 n=75 v=0
402780 On ch=3 n=85 v=0
402780 On ch=3 n=87 v=0
402780 On ch=3 n=96 v=0
402780 On ch=3 n=97 v=0
402780 On ch=3 n=99 v=0
402960 On ch=3 n=42 v=127
402960 On ch=3 n=75 v=127
402960 On ch=3 n=87 v=127
402960 On ch=3 n=99 v=127
402960 On ch=3 n=63 v=127
403020 On ch=3 n=42 v=0
403020 On ch=3 n=75 v=0
403020 On ch=3 n=87 v=0
403020 On ch=3 n=99 v=0
403020 On ch=3 n=63 v=0
403080 On ch=3 n=25 v=127
403194 On ch=3 n=25 v=0
403200 On ch=3 n=24 v=127
403200 On ch=3 n=42 v=127
403200 On ch=3 n=63 v=127
403200 On ch=3 n=72 v=127
403200 On ch=3 n=75 v=127
403200 On ch=3 n=84 v=127
403200 On ch=3 n=87 v=127
403200 On ch=3 n=96 v=127
403200 On ch=3 n=99 v=127
403260 On ch=3 n=24 v=0
403260 On ch=3 n=42 v=0
403260 On ch=3 n=63 v=0
403260 On ch=3 n=72 v=0
403260 On ch=3 n=75 v=0
403260 On ch=3 n=84 v=0
403260 On ch=3 n=87 v=0
403260 On ch=3 n=96 v=0
403260 On ch=3 n=99 v=0
403440 On ch=3 n=24 v=127
403440 On ch=3 n=42 v=127
403440 On ch=3 n=72 v=127
403440 On ch=3 n=75 v=127
403440 On ch=3 n=84 v=127
403440 On ch=3 n=87 v=127
403440 On ch=3 n=96 v=127
403440 On ch=3 n=99 v=127
403440 On ch=3 n=63 v=127
403500 On ch=3 n=24 v=0
403500 On ch=3 n=42 v=0
403500 On ch=3 n=72 v=0
403500 On ch=3 n=75 v=0
403500 On ch=3 n=84 v=0
403500 On ch=3 n=87 v=0
403500 On ch=3 n=96 v=0
403500 On ch=3 n=99 v=0
403500 On ch=3 n=63 v=0
403560 On ch=3 n=25 v=127
403674 On ch=3 n=25 v=0
403680 On ch=3 n=26 v=127
403680 On ch=3 n=42 v=127
403680 On ch=3 n=61 v=127
403680 On ch=3 n=63 v=127
403680 On ch=3 n=73 v=127
403680 On ch=3 n=75 v=127
403680 On ch=3 n=85 v=127
403680 On ch=3 n=87 v=127
403680 On ch=3 n=97 v=127
403680 On ch=3 n=99 v=127
403740 On ch=3 n=26 v=0
403740 On ch=3 n=42 v=0
403740 On ch=3 n=61 v=0
403740 On ch=3 n=63 v=0
403740 On ch=3 n=73 v=0
403740 On ch=3 n=75 v=0
403740 On ch=3 n=85 v=0
403740 On ch=3 n=87 v=0
403740 On ch=3 n=97 v=0
403740 On ch=3 n=99 v=0
403920 On ch=3 n=24 v=127
403920 On ch=3 n=42 v=127
403920 On ch=3 n=75 v=127
403920 On ch=3 n=84 v=127
403920 On ch=3 n=87 v=127
403920 On ch=3 n=96 v=127
403920 On ch=3 n=99 v=127
403920 On ch=3 n=63 v=127
403980 On ch=3 n=24 v=0
403980 On ch=3 n=42 v=0
403980 On ch=3 n=75 v=0
403980 On ch=3 n=84 v=0
403980 On ch=3 n=87 v=0
403980 On ch=3 n=96 v=0
403980 On ch=3 n=99 v=0
403980 On ch=3 n=63 v=0
404040 On ch=3 n=25 v=127
404154 On ch=3 n=25 v=0
404160 On ch=3 n=24 v=127
404160 On ch=3 n=42 v=127
404160 On ch=3 n=63 v=127
404160 On ch=3 n=72 v=127
404160 On ch=3 n=75 v=127
404160 On ch=3 n=84 v=127
404160 On ch=3 n=87 v=127
404160 On ch=3 n=96 v=127
404160 On ch=3 n=99 v=127
404160 On ch=3 n=106 v=100
404220 On ch=3 n=24 v=0
404220 On ch=3 n=42 v=0
404220 On ch=3 n=63 v=0
404220 On ch=3 n=72 v=0
404220 On ch=3 n=75 v=0
404220 On ch=3 n=84 v=0
404220 On ch=3 n=87 v=0
404220 On ch=3 n=96 v=0
404220 On ch=3 n=99 v=0
404400 On ch=3 n=42 v=127
404400 On ch=3 n=75 v=127
404400 On ch=3 n=87 v=127
404400 On ch=3 n=99 v=127
404400 On ch=3 n=63 v=127
404460 On ch=3 n=42 v=0
404460 On ch=3 n=75 v=0
404460 On ch=3 n=87 v=0
404460 On ch=3 n=99 v=0
404460 On ch=3 n=63 v=0
404520 On ch=3 n=25 v=127
404634 On ch=3 n=25 v=0
404640 On ch=3 n=24 v=127
404640 On ch=3 n=26 v=127
404640 On ch=3 n=42 v=127
404640 On ch=3 n=61 v=127
404640 On ch=3 n=63 v=127
404640 On ch=3 n=73 v=127
404640 On ch=3 n=75 v=127
404640 On ch=3 n=85 v=127
404640 On ch=3 n=87 v=127
404640 On ch=3 n=96 v=127
404640 On ch=3 n=97 v=127
404640 On ch=3 n=99 v=127
404700 On ch=3 n=24 v=0
404700 On ch=3 n=26 v=0
404700 On ch=3 n=42 v=0
404700 On ch=3 n=61 v=0
404700 On ch=3 n=63 v=0
404700 On ch=3 n=73 v=0
404700 On ch=3 n=75 v=0
404700 On ch=3 n=85 v=0
404700 On ch=3 n=87 v=0
404700 On ch=3 n=96 v=0
404700 On ch=3 n=97 v=0
404700 On ch=3 n=99 v=0
404880 On ch=3 n=42 v=127
404880 On ch=3 n=75 v=127
404880 On ch=3 n=87 v=127
404880 On ch=3 n=99 v=127
404880 On ch=3 n=63 v=127
404940 On ch=3 n=42 v=0
404940 On ch=3 n=75 v=0
404940 On ch=3 n=87 v=0
404940 On ch=3 n=99 v=0
404940 On ch=3 n=63 v=0
405000 On ch=3 n=25 v=127
405114 On ch=3 n=25 v=0
405120 On ch=3 n=24 v=127
405120 On ch=3 n=42 v=127
405120 On ch=3 n=63 v=127
405120 On ch=3 n=72 v=127
405120 On ch=3 n=75 v=127
405120 On ch=3 n=84 v=127
405120 On ch=3 n=87 v=127
405120 On ch=3 n=96 v=127
405120 On ch=3 n=99 v=127
405180 On ch=3 n=24 v=0
405180 On ch=3 n=42 v=0
405180 On ch=3 n=63 v=0
405180 On ch=3 n=72 v=0
405180 On ch=3 n=75 v=0
405180 On ch=3 n=84 v=0
405180 On ch=3 n=87 v=0
405180 On ch=3 n=96 v=0
405180 On ch=3 n=99 v=0
405360 On ch=3 n=24 v=127
405360 On ch=3 n=42 v=127
405360 On ch=3 n=72 v=127
405360 On ch=3 n=75 v=127
405360 On ch=3 n=84 v=127
405360 On ch=3 n=87 v=127
405360 On ch=3 n=96 v=127
405360 On ch=3 n=99 v=127
405360 On ch=3 n=63 v=127
405420 On ch=3 n=24 v=0
405420 On ch=3 n=42 v=0
405420 On ch=3 n=72 v=0
405420 On ch=3 n=75 v=0
405420 On ch=3 n=84 v=0
405420 On ch=3 n=87 v=0
405420 On ch=3 n=96 v=0
405420 On ch=3 n=99 v=0
405420 On ch=3 n=63 v=0
405480 On ch=3 n=25 v=127
405594 On ch=3 n=25 v=0
405600 On ch=3 n=26 v=127
405600 On ch=3 n=42 v=127
405600 On ch=3 n=61 v=127
405600 On ch=3 n=63 v=127
405600 On ch=3 n=73 v=127
405600 On ch=3 n=75 v=127
405600 On ch=3 n=85 v=127
405600 On ch=3 n=87 v=127
405600 On ch=3 n=97 v=127
405600 On ch=3 n=99 v=127
405660 On ch=3 n=26 v=0
405660 On ch=3 n=42 v=0
405660 On ch=3 n=61 v=0
405660 On ch=3 n=63 v=0
405660 On ch=3 n=73 v=0
405660 On ch=3 n=75 v=0
405660 On ch=3 n=85 v=0
405660 On ch=3 n=87 v=0
405660 On ch=3 n=97 v=0
405660 On ch=3 n=99 v=0
405840 On ch=3 n=24 v=127
405840 On ch=3 n=42 v=127
405840 On ch=3 n=75 v=127
405840 On ch=3 n=84 v=127
405840 On ch=3 n=87 v=127
405840 On ch=3 n=96 v=127
405840 On ch=3 n=99 v=127
405840 On ch=3 n=63 v=127
405900 On ch=3 n=24 v=0
405900 On ch=3 n=42 v=0
405900 On ch=3 n=75 v=0
405900 On ch=3 n=84 v=0
405900 On ch=3 n=87 v=0
405900 On ch=3 n=96 v=0
405900 On ch=3 n=99 v=0
405900 On ch=3 n=63 v=0
405960 On ch=3 n=25 v=127
406074 On ch=3 n=25 v=0
406080 On ch=3 n=105 v=0
406080 On ch=3 n=24 v=127
406080 On ch=3 n=42 v=127
406080 On ch=3 n=63 v=127
406080 On ch=3 n=72 v=127
406080 On ch=3 n=75 v=127
406080 On ch=3 n=84 v=127
406080 On ch=3 n=87 v=127
406080 On ch=3 n=96 v=127
406080 On ch=3 n=99 v=127
406080 On ch=3 n=60 v=100
406140 On ch=3 n=24 v=0
406140 On ch=3 n=42 v=0
406140 On ch=3 n=63 v=0
406140 On ch=3 n=72 v=0
406140 On ch=3 n=75 v=0
406140 On ch=3 n=84 v=0
406140 On ch=3 n=87 v=0
406140 On ch=3 n=96 v=0
406140 On ch=3 n=99 v=0
406140 On ch=3 n=60 v=0
406320 On ch=3 n=42 v=127
406320 On ch=3 n=75 v=127
406320 On ch=3 n=87 v=127
406320 On ch=3 n=99 v=127
406320 On ch=3 n=63 v=127
406380 On ch=3 n=42 v=0
406380 On ch=3 n=75 v=0
406380 On ch=3 n=87 v=0
406380 On ch=3 n=99 v=0
406380 On ch=3 n=63 v=0
406440 On ch=3 n=25 v=127
406554 On ch=3 n=25 v=0
406560 On ch=3 n=24 v=127
406560 On ch=3 n=26 v=127
406560 On ch=3 n=42 v=127
406560 On ch=3 n=61 v=127
406560 On ch=3 n=63 v=127
406560 On ch=3 n=73 v=127
406560 On ch=3 n=75 v=127
406560 On ch=3 n=85 v=127
406560 On ch=3 n=87 v=127
406560 On ch=3 n=96 v=127
406560 On ch=3 n=97 v=127
406560 On ch=3 n=99 v=127
406620 On ch=3 n=24 v=0
406620 On ch=3 n=26 v=0
406620 On ch=3 n=42 v=0
406620 On ch=3 n=61 v=0
406620 On ch=3 n=63 v=0
406620 On ch=3 n=73 v=0
406620 On ch=3 n=75 v=0
406620 On ch=3 n=85 v=0
406620 On ch=3 n=87 v=0
406620 On ch=3 n=96 v=0
406620 On ch=3 n=97 v=0
406620 On ch=3 n=99 v=0
406800 On ch=3 n=42 v=127
406800 On ch=3 n=75 v=127
406800 On ch=3 n=87 v=127
406800 On ch=3 n=99 v=127
406800 On ch=3 n=63 v=127
406860 On ch=3 n=42 v=0
406860 On ch=3 n=75 v=0
406860 On ch=3 n=87 v=0
406860 On ch=3 n=99 v=0
406860 On ch=3 n=63 v=0
406920 On ch=3 n=25 v=127
407034 On ch=3 n=25 v=0
407040 On ch=3 n=24 v=127
407040 On ch=3 n=42 v=127
407040 On ch=3 n=63 v=127
407040 On ch=3 n=72 v=127
407040 On ch=3 n=75 v=127
407040 On ch=3 n=84 v=127
407040 On ch=3 n=87 v=127
407040 On ch=3 n=96 v=127
407040 On ch=3 n=99 v=127
407100 On ch=3 n=24 v=0
407100 On ch=3 n=42 v=0
407100 On ch=3 n=63 v=0
407100 On ch=3 n=72 v=0
407100 On ch=3 n=75 v=0
407100 On ch=3 n=84 v=0
407100 On ch=3 n=87 v=0
407100 On ch=3 n=96 v=0
407100 On ch=3 n=99 v=0
407280 On ch=3 n=24 v=127
407280 On ch=3 n=42 v=127
407280 On ch=3 n=72 v=127
407280 On ch=3 n=75 v=127
407280 On ch=3 n=84 v=127
407280 On ch=3 n=87 v=127
407280 On ch=3 n=96 v=127
407280 On ch=3 n=99 v=127
407280 On ch=3 n=63 v=127
407340 On ch=3 n=24 v=0
407340 On ch=3 n=42 v=0
407340 On ch=3 n=72 v=0
407340 On ch=3 n=75 v=0
407340 On ch=3 n=84 v=0
407340 On ch=3 n=87 v=0
407340 On ch=3 n=96 v=0
407340 On ch=3 n=99 v=0
407340 On ch=3 n=63 v=0
407400 On ch=3 n=25 v=127
407514 On ch=3 n=25 v=0
407520 On ch=3 n=26 v=127
407520 On ch=3 n=42 v=127
407520 On ch=3 n=61 v=127
407520 On ch=3 n=63 v=127
407520 On ch=3 n=73 v=127
407520 On ch=3 n=75 v=127
407520 On ch=3 n=85 v=127
407520 On ch=3 n=87 v=127
407520 On ch=3 n=97 v=127
407520 On ch=3 n=99 v=127
407580 On ch=3 n=26 v=0
407580 On ch=3 n=42 v=0
407580 On ch=3 n=61 v=0
407580 On ch=3 n=63 v=0
407580 On ch=3 n=73 v=0
407580 On ch=3 n=75 v=0
407580 On ch=3 n=85 v=0
407580 On ch=3 n=87 v=0
407580 On ch=3 n=97 v=0
407580 On ch=3 n=99 v=0
407760 On ch=3 n=24 v=127
407760 On ch=3 n=42 v=127
407760 On ch=3 n=75 v=127
407760 On ch=3 n=84 v=127
407760 On ch=3 n=87 v=127
407760 On ch=3 n=96 v=127
407760 On ch=3 n=99 v=127
407760 On ch=3 n=63 v=127
407820 On ch=3 n=24 v=0
407820 On ch=3 n=42 v=0
407820 On ch=3 n=75 v=0
407820 On ch=3 n=84 v=0
407820 On ch=3 n=87 v=0
407820 On ch=3 n=96 v=0
407820 On ch=3 n=99 v=0
407820 On ch=3 n=63 v=0
407880 On ch=3 n=25 v=127
407994 On ch=3 n=25 v=0
408000 On ch=3 n=24 v=127
408000 On ch=3 n=42 v=127
408000 On ch=3 n=63 v=127
408000 On ch=3 n=72 v=127
408000 On ch=3 n=75 v=127
408000 On ch=3 n=84 v=127
408000 On ch=3 n=87 v=127
408000 On ch=3 n=96 v=127
408000 On ch=3 n=99 v=127
408000 On ch=3 n=105 v=100
408060 On ch=3 n=24 v=0
408060 On ch=3 n=42 v=0
408060 On ch=3 n=63 v=0
408060 On ch=3 n=72 v=0
408060 On ch=3 n=75 v=0
408060 On ch=3 n=84 v=0
408060 On ch=3 n=87 v=0
408060 On ch=3 n=96 v=0
408060 On ch=3 n=99 v=0
408240 On ch=3 n=42 v=127
408240 On ch=3 n=75 v=127
408240 On ch=3 n=87 v=127
408240 On ch=3 n=99 v=127
408240 On ch=3 n=63 v=127
408300 On ch=3 n=42 v=0
408300 On ch=3 n=75 v=0
408300 On ch=3 n=87 v=0
408300 On ch=3 n=99 v=0
408300 On ch=3 n=63 v=0
408360 On ch=3 n=25 v=127
408474 On ch=3 n=25 v=0
408480 On ch=3 n=24 v=127
408480 On ch=3 n=26 v=127
408480 On ch=3 n=42 v=127
408480 On ch=3 n=61 v=127
408480 On ch=3 n=63 v=127
408480 On ch=3 n=73 v=127
408480 On ch=3 n=75 v=127
408480 On ch=3 n=85 v=127
408480 On ch=3 n=87 v=127
408480 On ch=3 n=96 v=127
408480 On ch=3 n=97 v=127
408480 On ch=3 n=99 v=127
408540 On ch=3 n=24 v=0
408540 On ch=3 n=26 v=0
408540 On ch=3 n=42 v=0
408540 On ch=3 n=61 v=0
408540 On ch=3 n=63 v=0
408540 On ch=3 n=73 v=0
408540 On ch=3 n=75 v=0
408540 On ch=3 n=85 v=0
408540 On ch=3 n=87 v=0
408540 On ch=3 n=96 v=0
408540 On ch=3 n=97 v=0
408540 On ch=3 n=99 v=0
408720 On ch=3 n=27 v=127
408720 On ch=3 n=85 v=127
408720 On ch=3 n=97 v=127
408720 On ch=3 n=73 v=100
408780 On ch=3 n=27 v=0
408780 On ch=3 n=85 v=0
408780 On ch=3 n=97 v=0
408780 On ch=3 n=73 v=0
408840 On ch=3 n=25 v=127
408840 On ch=3 n=26 v=127
408840 On ch=3 n=85 v=127
408840 On ch=3 n=97 v=127
408900 On ch=3 n=26 v=0
408900 On ch=3 n=85 v=0
408900 On ch=3 n=97 v=0
408954 On ch=3 n=25 v=0
408960 On ch=3 n=24 v=127
408960 On ch=3 n=47 v=127
408960 On ch=3 n=60 v=127
408960 On ch=3 n=64 v=127
408960 On ch=3 n=72 v=127
408960 On ch=3 n=76 v=127
408960 On ch=3 n=84 v=127
408960 On ch=3 n=88 v=127
408960 On ch=3 n=96 v=127
408960 On ch=3 n=100 v=127
408960 On ch=3 n=116 v=100
409020 On ch=3 n=24 v=0
409020 On ch=3 n=47 v=0
409020 On ch=3 n=60 v=0
409020 On ch=3 n=64 v=0
409020 On ch=3 n=72 v=0
409020 On ch=3 n=76 v=0
409020 On ch=3 n=84 v=0
409020 On ch=3 n=88 v=0
409020 On ch=3 n=96 v=0
409020 On ch=3 n=100 v=0
409200 On ch=3 n=48 v=127
409200 On ch=3 n=98 v=127
409200 On ch=3 n=110 v=127
409200 On ch=3 n=111 v=127
409200 On ch=3 n=112 v=127
409200 On ch=3 n=86 v=100
409260 On ch=3 n=48 v=0
409260 On ch=3 n=98 v=0
409260 On ch=3 n=86 v=0
409320 On ch=3 n=25 v=127
409434 On ch=3 n=25 v=0
409440 On ch=3 n=24 v=127
409440 On ch=3 n=49 v=127
409440 On ch=3 n=96 v=127
409440 On ch=3 n=99 v=127
409440 On ch=3 n=87 v=100
409440 On ch=3 n=75 v=100
409440 On ch=3 n=63 v=100
409500 On ch=3 n=24 v=0
409500 On ch=3 n=49 v=0
409500 On ch=3 n=96 v=0
409500 On ch=3 n=99 v=0
409500 On ch=3 n=87 v=0
409500 On ch=3 n=75 v=0
409500 On ch=3 n=63 v=0
409680 On ch=3 n=48 v=127
409680 On ch=3 n=50 v=127
409680 On ch=3 n=98 v=127
409680 On ch=3 n=100 v=127
409680 On ch=3 n=88 v=100
409680 On ch=3 n=75 v=100
409740 On ch=3 n=48 v=0
409740 On ch=3 n=50 v=0
409740 On ch=3 n=98 v=0
409740 On ch=3 n=100 v=0
409740 On ch=3 n=88 v=0
409740 On ch=3 n=75 v=0
409798 On ch=3 n=110 v=0
409798 On ch=3 n=111 v=0
409798 On ch=3 n=112 v=0
409800 On ch=3 n=25 v=127
409914 On ch=3 n=25 v=0
409920 On ch=3 n=24 v=127
409920 On ch=3 n=38 v=127
409920 On ch=3 n=60 v=127
409920 On ch=3 n=64 v=127
409920 On ch=3 n=72 v=127
409920 On ch=3 n=76 v=127
409920 On ch=3 n=84 v=127
409920 On ch=3 n=88 v=127
409920 On ch=3 n=96 v=127
409920 On ch=3 n=100 v=127
409980 On ch=3 n=24 v=0
409980 On ch=3 n=38 v=0
409980 On ch=3 n=60 v=0
409980 On ch=3 n=64 v=0
409980 On ch=3 n=72 v=0
409980 On ch=3 n=76 v=0
409980 On ch=3 n=84 v=0
409980 On ch=3 n=88 v=0
409980 On ch=3 n=96 v=0
409980 On ch=3 n=100 v=0
410040 On ch=3 n=106 v=0
410040 On ch=3 n=116 v=0
410280 On ch=3 n=25 v=127
410394 On ch=3 n=25 v=0
410400 On ch=3 n=24 v=127
410400 On ch=3 n=26 v=127
410400 On ch=3 n=42 v=127
410400 On ch=3 n=61 v=127
410400 On ch=3 n=63 v=127
410400 On ch=3 n=73 v=127
410400 On ch=3 n=75 v=127
410400 On ch=3 n=85 v=127
410400 On ch=3 n=87 v=127
410400 On ch=3 n=97 v=127
410400 On ch=3 n=99 v=127
410460 On ch=3 n=24 v=0
410460 On ch=3 n=26 v=0
410460 On ch=3 n=42 v=0
410460 On ch=3 n=61 v=0
410460 On ch=3 n=63 v=0
410460 On ch=3 n=73 v=0
410460 On ch=3 n=75 v=0
410460 On ch=3 n=85 v=0
410460 On ch=3 n=87 v=0
410460 On ch=3 n=97 v=0
410460 On ch=3 n=99 v=0
410640 On ch=3 n=42 v=127
410640 On ch=3 n=75 v=127
410640 On ch=3 n=87 v=127
410640 On ch=3 n=99 v=127
410640 On ch=3 n=63 v=127
410700 On ch=3 n=42 v=0
410700 On ch=3 n=75 v=0
410700 On ch=3 n=87 v=0
410700 On ch=3 n=99 v=0
410700 On ch=3 n=63 v=0
410760 On ch=3 n=25 v=127
410874 On ch=3 n=25 v=0
410880 On ch=3 n=24 v=127
410880 On ch=3 n=42 v=127
410880 On ch=3 n=63 v=127
410880 On ch=3 n=72 v=127
410880 On ch=3 n=75 v=127
410880 On ch=3 n=84 v=127
410880 On ch=3 n=87 v=127
410880 On ch=3 n=96 v=127
410880 On ch=3 n=99 v=127
410940 On ch=3 n=24 v=0
410940 On ch=3 n=42 v=0
410940 On ch=3 n=63 v=0
410940 On ch=3 n=72 v=0
410940 On ch=3 n=75 v=0
410940 On ch=3 n=84 v=0
410940 On ch=3 n=87 v=0
410940 On ch=3 n=96 v=0
410940 On ch=3 n=99 v=0
411120 On ch=3 n=42 v=127
411120 On ch=3 n=72 v=127
411120 On ch=3 n=75 v=127
411120 On ch=3 n=84 v=127
411120 On ch=3 n=87 v=127
411120 On ch=3 n=96 v=127
411120 On ch=3 n=99 v=127
411120 On ch=3 n=63 v=127
411180 On ch=3 n=42 v=0
411180 On ch=3 n=72 v=0
411180 On ch=3 n=75 v=0
411180 On ch=3 n=84 v=0
411180 On ch=3 n=87 v=0
411180 On ch=3 n=96 v=0
411180 On ch=3 n=99 v=0
411180 On ch=3 n=63 v=0
411240 On ch=3 n=25 v=127
411354 On ch=3 n=25 v=0
411360 On ch=3 n=24 v=127
411360 On ch=3 n=26 v=127
411360 On ch=3 n=42 v=127
411360 On ch=3 n=61 v=127
411360 On ch=3 n=63 v=127
411360 On ch=3 n=73 v=127
411360 On ch=3 n=75 v=127
411360 On ch=3 n=85 v=127
411360 On ch=3 n=87 v=127
411360 On ch=3 n=97 v=127
411360 On ch=3 n=99 v=127
411420 On ch=3 n=24 v=0
411420 On ch=3 n=26 v=0
411420 On ch=3 n=42 v=0
411420 On ch=3 n=61 v=0
411420 On ch=3 n=63 v=0
411420 On ch=3 n=73 v=0
411420 On ch=3 n=75 v=0
411420 On ch=3 n=85 v=0
411420 On ch=3 n=87 v=0
411420 On ch=3 n=97 v=0
411420 On ch=3 n=99 v=0
411600 On ch=3 n=42 v=127
411600 On ch=3 n=75 v=127
411600 On ch=3 n=84 v=127
411600 On ch=3 n=87 v=127
411600 On ch=3 n=96 v=127
411600 On ch=3 n=99 v=127
411600 On ch=3 n=63 v=127
411660 On ch=3 n=42 v=0
411660 On ch=3 n=75 v=0
411660 On ch=3 n=84 v=0
411660 On ch=3 n=87 v=0
411660 On ch=3 n=96 v=0
411660 On ch=3 n=99 v=0
411660 On ch=3 n=63 v=0
411720 On ch=3 n=25 v=127
411834 On ch=3 n=25 v=0
411840 On ch=3 n=24 v=127
411840 On ch=3 n=42 v=127
411840 On ch=3 n=63 v=127
411840 On ch=3 n=72 v=127
411840 On ch=3 n=75 v=127
411840 On ch=3 n=84 v=127
411840 On ch=3 n=87 v=127
411840 On ch=3 n=96 v=127
411840 On ch=3 n=99 v=127
411840 On ch=3 n=106 v=100
411900 On ch=3 n=24 v=0
411900 On ch=3 n=42 v=0
411900 On ch=3 n=63 v=0
411900 On ch=3 n=72 v=0
411900 On ch=3 n=75 v=0
411900 On ch=3 n=84 v=0
411900 On ch=3 n=87 v=0
411900 On ch=3 n=96 v=0
411900 On ch=3 n=99 v=0
412080 On ch=3 n=42 v=127
412080 On ch=3 n=75 v=127
412080 On ch=3 n=87 v=127
412080 On ch=3 n=99 v=127
412080 On ch=3 n=63 v=127
412140 On ch=3 n=42 v=0
412140 On ch=3 n=75 v=0
412140 On ch=3 n=87 v=0
412140 On ch=3 n=99 v=0
412140 On ch=3 n=63 v=0
412200 On ch=3 n=25 v=127
412314 On ch=3 n=25 v=0
412320 On ch=3 n=24 v=127
412320 On ch=3 n=26 v=127
412320 On ch=3 n=42 v=127
412320 On ch=3 n=61 v=127
412320 On ch=3 n=63 v=127
412320 On ch=3 n=73 v=127
412320 On ch=3 n=75 v=127
412320 On ch=3 n=85 v=127
412320 On ch=3 n=87 v=127
412320 On ch=3 n=97 v=127
412320 On ch=3 n=99 v=127
412320 On ch=3 n=120 v=127
412320 On ch=3 n=121 v=127
412320 On ch=3 n=122 v=127
412320 On ch=3 n=123 v=127
412320 On ch=3 n=124 v=127
412380 On ch=3 n=24 v=0
412380 On ch=3 n=26 v=0
412380 On ch=3 n=42 v=0
412380 On ch=3 n=61 v=0
412380 On ch=3 n=63 v=0
412380 On ch=3 n=73 v=0
412380 On ch=3 n=75 v=0
412380 On ch=3 n=85 v=0
412380 On ch=3 n=87 v=0
412380 On ch=3 n=97 v=0
412380 On ch=3 n=99 v=0
412560 On ch=3 n=42 v=127
412560 On ch=3 n=75 v=127
412560 On ch=3 n=87 v=127
412560 On ch=3 n=99 v=127
412560 On ch=3 n=63 v=127
412620 On ch=3 n=42 v=0
412620 On ch=3 n=75 v=0
412620 On ch=3 n=87 v=0
412620 On ch=3 n=99 v=0
412620 On ch=3 n=63 v=0
412680 On ch=3 n=25 v=127
412794 On ch=3 n=25 v=0
412800 On ch=3 n=24 v=127
412800 On ch=3 n=42 v=127
412800 On ch=3 n=63 v=127
412800 On ch=3 n=72 v=127
412800 On ch=3 n=75 v=127
412800 On ch=3 n=84 v=127
412800 On ch=3 n=87 v=127
412800 On ch=3 n=96 v=127
412800 On ch=3 n=99 v=127
412860 On ch=3 n=24 v=0
412860 On ch=3 n=42 v=0
412860 On ch=3 n=63 v=0
412860 On ch=3 n=72 v=0
412860 On ch=3 n=75 v=0
412860 On ch=3 n=84 v=0
412860 On ch=3 n=87 v=0
412860 On ch=3 n=96 v=0
412860 On ch=3 n=99 v=0
413040 On ch=3 n=24 v=127
413040 On ch=3 n=42 v=127
413040 On ch=3 n=72 v=127
413040 On ch=3 n=75 v=127
413040 On ch=3 n=84 v=127
413040 On ch=3 n=87 v=127
413040 On ch=3 n=96 v=127
413040 On ch=3 n=99 v=127
413040 On ch=3 n=63 v=127
413100 On ch=3 n=24 v=0
413100 On ch=3 n=42 v=0
413100 On ch=3 n=72 v=0
413100 On ch=3 n=75 v=0
413100 On ch=3 n=84 v=0
413100 On ch=3 n=87 v=0
413100 On ch=3 n=96 v=0
413100 On ch=3 n=99 v=0
413100 On ch=3 n=63 v=0
413160 On ch=3 n=25 v=127
413274 On ch=3 n=25 v=0
413280 On ch=3 n=24 v=127
413280 On ch=3 n=27 v=127
413280 On ch=3 n=61 v=127
413280 On ch=3 n=73 v=127
413280 On ch=3 n=85 v=127
413280 On ch=3 n=97 v=127
413340 On ch=3 n=24 v=0
413340 On ch=3 n=27 v=0
413340 On ch=3 n=61 v=0
413340 On ch=3 n=73 v=0
413340 On ch=3 n=85 v=0
413340 On ch=3 n=97 v=0
413400 On ch=3 n=26 v=127
413400 On ch=3 n=85 v=127
413400 On ch=3 n=97 v=127
413460 On ch=3 n=26 v=0
413460 On ch=3 n=85 v=0
413460 On ch=3 n=97 v=0
413520 On ch=3 n=24 v=127
413520 On ch=3 n=27 v=127
413520 On ch=3 n=73 v=127
413520 On ch=3 n=85 v=127
413520 On ch=3 n=97 v=127
413520 On ch=3 n=61 v=100
413580 On ch=3 n=24 v=0
413580 On ch=3 n=27 v=0
413580 On ch=3 n=73 v=0
413580 On ch=3 n=85 v=0
413580 On ch=3 n=97 v=0
413580 On ch=3 n=61 v=0
413640 On ch=3 n=25 v=127
413640 On ch=3 n=26 v=127
413640 On ch=3 n=85 v=127
413640 On ch=3 n=97 v=127
413700 On ch=3 n=26 v=0
413700 On ch=3 n=85 v=0
413700 On ch=3 n=97 v=0
413754 On ch=3 n=25 v=0
413756 On ch=3 n=120 v=0
413756 On ch=3 n=121 v=0
413756 On ch=3 n=122 v=0
413756 On ch=3 n=123 v=0
413756 On ch=3 n=124 v=0
413760 On ch=3 n=24 v=127
413760 On ch=3 n=36 v=127
413760 On ch=3 n=60 v=127
413760 On ch=3 n=64 v=127
413760 On ch=3 n=72 v=127
413760 On ch=3 n=76 v=127
413760 On ch=3 n=84 v=127
413760 On ch=3 n=88 v=127
413760 On ch=3 n=96 v=127
413760 On ch=3 n=100 v=127
413820 On ch=3 n=24 v=0
413820 On ch=3 n=36 v=0
413820 On ch=3 n=60 v=0
413820 On ch=3 n=64 v=0
413820 On ch=3 n=72 v=0
413820 On ch=3 n=76 v=0
413820 On ch=3 n=84 v=0
413820 On ch=3 n=88 v=0
413820 On ch=3 n=96 v=0
413820 On ch=3 n=100 v=0
414000 On ch=3 n=105 v=0
414000 On ch=3 n=24 v=127
414000 On ch=3 n=31 v=127
414000 On ch=3 n=84 v=127
414000 On ch=3 n=86 v=127
414000 On ch=3 n=96 v=127
414000 On ch=3 n=98 v=127
414060 On ch=3 n=24 v=0
414060 On ch=3 n=31 v=0
414060 On ch=3 n=84 v=0
414060 On ch=3 n=86 v=0
414060 On ch=3 n=96 v=0
414060 On ch=3 n=98 v=0
414240 On ch=3 n=26 v=127
414240 On ch=3 n=31 v=127
414240 On ch=3 n=61 v=127
414240 On ch=3 n=62 v=127
414240 On ch=3 n=73 v=127
414240 On ch=3 n=74 v=127
414240 On ch=3 n=85 v=127
414240 On ch=3 n=86 v=127
414240 On ch=3 n=97 v=127
414240 On ch=3 n=98 v=127
414300 On ch=3 n=26 v=0
414300 On ch=3 n=31 v=0
414300 On ch=3 n=61 v=0
414300 On ch=3 n=62 v=0
414300 On ch=3 n=73 v=0
414300 On ch=3 n=74 v=0
414300 On ch=3 n=85 v=0
414300 On ch=3 n=86 v=0
414300 On ch=3 n=97 v=0
414300 On ch=3 n=98 v=0
414480 On ch=3 n=31 v=127
414480 On ch=3 n=74 v=127
414480 On ch=3 n=86 v=127
414480 On ch=3 n=98 v=127
414480 On ch=3 n=62 v=127
414540 On ch=3 n=31 v=0
414540 On ch=3 n=74 v=0
414540 On ch=3 n=86 v=0
414540 On ch=3 n=98 v=0
414540 On ch=3 n=62 v=0
414720 On ch=3 n=24 v=127
414720 On ch=3 n=31 v=127
414720 On ch=3 n=62 v=127
414720 On ch=3 n=72 v=127
414720 On ch=3 n=74 v=127
414720 On ch=3 n=84 v=127
414720 On ch=3 n=86 v=127
414720 On ch=3 n=96 v=127
414720 On ch=3 n=98 v=127
414780 On ch=3 n=24 v=0
414780 On ch=3 n=31 v=0
414780 On ch=3 n=62 v=0
414780 On ch=3 n=72 v=0
414780 On ch=3 n=74 v=0
414780 On ch=3 n=84 v=0
414780 On ch=3 n=86 v=0
414780 On ch=3 n=96 v=0
414780 On ch=3 n=98 v=0
414960 On ch=3 n=24 v=127
414960 On ch=3 n=31 v=127
414960 On ch=3 n=72 v=127
414960 On ch=3 n=74 v=127
414960 On ch=3 n=84 v=127
414960 On ch=3 n=86 v=127
414960 On ch=3 n=96 v=127
414960 On ch=3 n=98 v=127
414960 On ch=3 n=62 v=127
415020 On ch=3 n=24 v=0
415020 On ch=3 n=31 v=0
415020 On ch=3 n=72 v=0
415020 On ch=3 n=74 v=0
415020 On ch=3 n=84 v=0
415020 On ch=3 n=86 v=0
415020 On ch=3 n=96 v=0
415020 On ch=3 n=98 v=0
415020 On ch=3 n=62 v=0
415200 On ch=3 n=26 v=127
415200 On ch=3 n=31 v=127
415200 On ch=3 n=61 v=127
415200 On ch=3 n=62 v=127
415200 On ch=3 n=73 v=127
415200 On ch=3 n=74 v=127
415200 On ch=3 n=85 v=127
415200 On ch=3 n=86 v=127
415200 On ch=3 n=97 v=127
415200 On ch=3 n=98 v=127
415260 On ch=3 n=26 v=0
415260 On ch=3 n=31 v=0
415260 On ch=3 n=61 v=0
415260 On ch=3 n=62 v=0
415260 On ch=3 n=73 v=0
415260 On ch=3 n=74 v=0
415260 On ch=3 n=85 v=0
415260 On ch=3 n=86 v=0
415260 On ch=3 n=97 v=0
415260 On ch=3 n=98 v=0
415440 On ch=3 n=31 v=127
415440 On ch=3 n=74 v=127
415440 On ch=3 n=86 v=127
415440 On ch=3 n=98 v=127
415440 On ch=3 n=62 v=127
415500 On ch=3 n=31 v=0
415500 On ch=3 n=74 v=0
415500 On ch=3 n=86 v=0
415500 On ch=3 n=98 v=0
415500 On ch=3 n=62 v=0
415680 On ch=3 n=106 v=0
415680 On ch=3 n=24 v=127
415680 On ch=3 n=31 v=127
415680 On ch=3 n=62 v=127
415680 On ch=3 n=72 v=127
415680 On ch=3 n=74 v=127
415680 On ch=3 n=84 v=127
415680 On ch=3 n=86 v=127
415680 On ch=3 n=96 v=127
415680 On ch=3 n=98 v=127
415680 On ch=3 n=105 v=100
415740 On ch=3 n=24 v=0
415740 On ch=3 n=31 v=0
415740 On ch=3 n=62 v=0
415740 On ch=3 n=72 v=0
415740 On ch=3 n=74 v=0
415740 On ch=3 n=84 v=0
415740 On ch=3 n=86 v=0
415740 On ch=3 n=96 v=0
415740 On ch=3 n=98 v=0
415920 On ch=3 n=24 v=127
415920 On ch=3 n=31 v=127
415920 On ch=3 n=72 v=127
415920 On ch=3 n=74 v=127
415920 On ch=3 n=84 v=127
415920 On ch=3 n=86 v=127
415920 On ch=3 n=96 v=127
415920 On ch=3 n=98 v=127
415920 On ch=3 n=62 v=127
415980 On ch=3 n=24 v=0
415980 On ch=3 n=31 v=0
415980 On ch=3 n=72 v=0
415980 On ch=3 n=74 v=0
415980 On ch=3 n=84 v=0
415980 On ch=3 n=86 v=0
415980 On ch=3 n=96 v=0
415980 On ch=3 n=98 v=0
415980 On ch=3 n=62 v=0
416160 On ch=3 n=26 v=127
416160 On ch=3 n=31 v=127
416160 On ch=3 n=61 v=127
416160 On ch=3 n=62 v=127
416160 On ch=3 n=73 v=127
416160 On ch=3 n=74 v=127
416160 On ch=3 n=85 v=127
416160 On ch=3 n=86 v=127
416160 On ch=3 n=97 v=127
416160 On ch=3 n=98 v=127
416220 On ch=3 n=26 v=0
416220 On ch=3 n=31 v=0
416220 On ch=3 n=61 v=0
416220 On ch=3 n=62 v=0
416220 On ch=3 n=73 v=0
416220 On ch=3 n=74 v=0
416220 On ch=3 n=85 v=0
416220 On ch=3 n=86 v=0
416220 On ch=3 n=97 v=0
416220 On ch=3 n=98 v=0
416400 On ch=3 n=24 v=127
416400 On ch=3 n=31 v=127
416400 On ch=3 n=84 v=127
416400 On ch=3 n=86 v=127
416400 On ch=3 n=96 v=127
416400 On ch=3 n=98 v=127
416400 On ch=3 n=72 v=127
416400 On ch=3 n=62 v=127
416460 On ch=3 n=24 v=0
416460 On ch=3 n=31 v=0
416460 On ch=3 n=84 v=0
416460 On ch=3 n=86 v=0
416460 On ch=3 n=96 v=0
416460 On ch=3 n=98 v=0
416460 On ch=3 n=72 v=0
416460 On ch=3 n=62 v=0
416640 On ch=3 n=26 v=127
416640 On ch=3 n=31 v=127
416640 On ch=3 n=61 v=127
416640 On ch=3 n=62 v=127
416640 On ch=3 n=73 v=127
416640 On ch=3 n=74 v=127
416640 On ch=3 n=85 v=127
416640 On ch=3 n=86 v=127
416640 On ch=3 n=97 v=127
416640 On ch=3 n=98 v=127
416700 On ch=3 n=26 v=0
416700 On ch=3 n=31 v=0
416700 On ch=3 n=61 v=0
416700 On ch=3 n=62 v=0
416700 On ch=3 n=73 v=0
416700 On ch=3 n=74 v=0
416700 On ch=3 n=85 v=0
416700 On ch=3 n=86 v=0
416700 On ch=3 n=97 v=0
416700 On ch=3 n=98 v=0
416880 On ch=3 n=24 v=127
416880 On ch=3 n=31 v=127
416880 On ch=3 n=84 v=127
416880 On ch=3 n=86 v=127
416880 On ch=3 n=96 v=127
416880 On ch=3 n=98 v=127
416880 On ch=3 n=72 v=127
416880 On ch=3 n=62 v=127
416940 On ch=3 n=24 v=0
416940 On ch=3 n=31 v=0
416940 On ch=3 n=84 v=0
416940 On ch=3 n=86 v=0
416940 On ch=3 n=96 v=0
416940 On ch=3 n=98 v=0
416940 On ch=3 n=72 v=0
416940 On ch=3 n=62 v=0
417120 On ch=3 n=26 v=127
417120 On ch=3 n=31 v=127
417120 On ch=3 n=61 v=127
417120 On ch=3 n=62 v=127
417120 On ch=3 n=73 v=127
417120 On ch=3 n=74 v=127
417120 On ch=3 n=85 v=127
417120 On ch=3 n=86 v=127
417120 On ch=3 n=97 v=127
417120 On ch=3 n=98 v=127
417180 On ch=3 n=26 v=0
417180 On ch=3 n=31 v=0
417180 On ch=3 n=61 v=0
417180 On ch=3 n=62 v=0
417180 On ch=3 n=73 v=0
417180 On ch=3 n=74 v=0
417180 On ch=3 n=85 v=0
417180 On ch=3 n=86 v=0
417180 On ch=3 n=97 v=0
417180 On ch=3 n=98 v=0
417360 On ch=3 n=24 v=127
417360 On ch=3 n=31 v=127
417360 On ch=3 n=84 v=127
417360 On ch=3 n=86 v=127
417360 On ch=3 n=96 v=127
417360 On ch=3 n=98 v=127
417360 On ch=3 n=72 v=127
417360 On ch=3 n=62 v=127
417420 On ch=3 n=24 v=0
417420 On ch=3 n=31 v=0
417420 On ch=3 n=84 v=0
417420 On ch=3 n=86 v=0
417420 On ch=3 n=96 v=0
417420 On ch=3 n=98 v=0
417420 On ch=3 n=72 v=0
417420 On ch=3 n=62 v=0
417480 On ch=3 n=24 v=127
417480 On ch=3 n=96 v=127
417540 On ch=3 n=24 v=0
417540 On ch=3 n=96 v=0
417600 On ch=3 n=26 v=127
417600 On ch=3 n=31 v=127
417600 On ch=3 n=61 v=127
417600 On ch=3 n=62 v=127
417600 On ch=3 n=73 v=127
417600 On ch=3 n=74 v=127
417600 On ch=3 n=85 v=127
417600 On ch=3 n=86 v=127
417600 On ch=3 n=97 v=127
417600 On ch=3 n=98 v=127
417600 On ch=3 n=116 v=100
417600 On ch=3 n=106 v=100
417660 On ch=3 n=26 v=0
417660 On ch=3 n=31 v=0
417660 On ch=3 n=61 v=0
417660 On ch=3 n=62 v=0
417660 On ch=3 n=73 v=0
417660 On ch=3 n=74 v=0
417660 On ch=3 n=85 v=0
417660 On ch=3 n=86 v=0
417660 On ch=3 n=97 v=0
417660 On ch=3 n=98 v=0
417840 On ch=3 n=24 v=127
417840 On ch=3 n=31 v=127
417840 On ch=3 n=84 v=127
417840 On ch=3 n=86 v=127
417840 On ch=3 n=96 v=127
417840 On ch=3 n=98 v=127
417840 On ch=3 n=72 v=127
417840 On ch=3 n=62 v=127
417900 On ch=3 n=24 v=0
417900 On ch=3 n=31 v=0
417900 On ch=3 n=84 v=0
417900 On ch=3 n=86 v=0
417900 On ch=3 n=96 v=0
417900 On ch=3 n=98 v=0
417900 On ch=3 n=72 v=0
417900 On ch=3 n=62 v=0
418080 On ch=3 n=26 v=127
418080 On ch=3 n=31 v=127
418080 On ch=3 n=61 v=127
418080 On ch=3 n=62 v=127
418080 On ch=3 n=73 v=127
418080 On ch=3 n=74 v=127
418080 On ch=3 n=85 v=127
418080 On ch=3 n=86 v=127
418080 On ch=3 n=97 v=127
418080 On ch=3 n=98 v=127
418140 On ch=3 n=26 v=0
418140 On ch=3 n=31 v=0
418140 On ch=3 n=61 v=0
418140 On ch=3 n=62 v=0
418140 On ch=3 n=73 v=0
418140 On ch=3 n=74 v=0
418140 On ch=3 n=85 v=0
418140 On ch=3 n=86 v=0
418140 On ch=3 n=97 v=0
418140 On ch=3 n=98 v=0
418320 On ch=3 n=24 v=127
418320 On ch=3 n=31 v=127
418320 On ch=3 n=84 v=127
418320 On ch=3 n=86 v=127
418320 On ch=3 n=96 v=127
418320 On ch=3 n=98 v=127
418320 On ch=3 n=72 v=127
418320 On ch=3 n=62 v=127
418380 On ch=3 n=24 v=0
418380 On ch=3 n=31 v=0
418380 On ch=3 n=84 v=0
418380 On ch=3 n=86 v=0
418380 On ch=3 n=96 v=0
418380 On ch=3 n=98 v=0
418380 On ch=3 n=72 v=0
418380 On ch=3 n=62 v=0
418560 On ch=3 n=26 v=127
418560 On ch=3 n=31 v=127
418560 On ch=3 n=61 v=127
418560 On ch=3 n=62 v=127
418560 On ch=3 n=73 v=127
418560 On ch=3 n=74 v=127
418560 On ch=3 n=85 v=127
418560 On ch=3 n=86 v=127
418560 On ch=3 n=97 v=127
418560 On ch=3 n=98 v=127
418620 On ch=3 n=26 v=0
418620 On ch=3 n=31 v=0
418620 On ch=3 n=61 v=0
418620 On ch=3 n=62 v=0
418620 On ch=3 n=73 v=0
418620 On ch=3 n=74 v=0
418620 On ch=3 n=85 v=0
418620 On ch=3 n=86 v=0
418620 On ch=3 n=97 v=0
418620 On ch=3 n=98 v=0
418800 On ch=3 n=24 v=127
418800 On ch=3 n=31 v=127
418800 On ch=3 n=84 v=127
418800 On ch=3 n=86 v=127
418800 On ch=3 n=96 v=127
418800 On ch=3 n=98 v=127
418800 On ch=3 n=72 v=127
418800 On ch=3 n=62 v=127
418860 On ch=3 n=24 v=0
418860 On ch=3 n=31 v=0
418860 On ch=3 n=84 v=0
418860 On ch=3 n=86 v=0
418860 On ch=3 n=96 v=0
418860 On ch=3 n=98 v=0
418860 On ch=3 n=72 v=0
418860 On ch=3 n=62 v=0
419040 On ch=3 n=26 v=127
419040 On ch=3 n=31 v=127
419040 On ch=3 n=61 v=127
419040 On ch=3 n=62 v=127
419040 On ch=3 n=73 v=127
419040 On ch=3 n=74 v=127
419040 On ch=3 n=85 v=127
419040 On ch=3 n=86 v=127
419040 On ch=3 n=97 v=127
419040 On ch=3 n=98 v=127
419100 On ch=3 n=26 v=0
419100 On ch=3 n=31 v=0
419100 On ch=3 n=61 v=0
419100 On ch=3 n=62 v=0
419100 On ch=3 n=73 v=0
419100 On ch=3 n=74 v=0
419100 On ch=3 n=85 v=0
419100 On ch=3 n=86 v=0
419100 On ch=3 n=97 v=0
419100 On ch=3 n=98 v=0
419280 On ch=3 n=24 v=127
419280 On ch=3 n=31 v=127
419280 On ch=3 n=84 v=127
419280 On ch=3 n=86 v=127
419280 On ch=3 n=96 v=127
419280 On ch=3 n=98 v=127
419280 On ch=3 n=72 v=127
419280 On ch=3 n=62 v=127
419340 On ch=3 n=24 v=0
419340 On ch=3 n=31 v=0
419340 On ch=3 n=84 v=0
419340 On ch=3 n=86 v=0
419340 On ch=3 n=96 v=0
419340 On ch=3 n=98 v=0
419340 On ch=3 n=72 v=0
419340 On ch=3 n=62 v=0
419520 On ch=3 n=116 v=0
419520 On ch=3 n=26 v=127
419520 On ch=3 n=31 v=127
419520 On ch=3 n=61 v=127
419520 On ch=3 n=62 v=127
419520 On ch=3 n=73 v=127
419520 On ch=3 n=74 v=127
419520 On ch=3 n=85 v=127
419520 On ch=3 n=86 v=127
419520 On ch=3 n=97 v=127
419520 On ch=3 n=98 v=127
419580 On ch=3 n=26 v=0
419580 On ch=3 n=31 v=0
419580 On ch=3 n=61 v=0
419580 On ch=3 n=62 v=0
419580 On ch=3 n=73 v=0
419580 On ch=3 n=74 v=0
419580 On ch=3 n=85 v=0
419580 On ch=3 n=86 v=0
419580 On ch=3 n=97 v=0
419580 On ch=3 n=98 v=0
419760 On ch=3 n=24 v=127
419760 On ch=3 n=31 v=127
419760 On ch=3 n=84 v=127
419760 On ch=3 n=86 v=127
419760 On ch=3 n=96 v=127
419760 On ch=3 n=98 v=127
419760 On ch=3 n=72 v=127
419760 On ch=3 n=62 v=127
419820 On ch=3 n=24 v=0
419820 On ch=3 n=31 v=0
419820 On ch=3 n=84 v=0
419820 On ch=3 n=86 v=0
419820 On ch=3 n=96 v=0
419820 On ch=3 n=98 v=0
419820 On ch=3 n=72 v=0
419820 On ch=3 n=62 v=0
419880 On ch=3 n=24 v=127
419880 On ch=3 n=96 v=127
419940 On ch=3 n=24 v=0
419940 On ch=3 n=96 v=0
420000 On ch=3 n=26 v=127
420000 On ch=3 n=31 v=127
420000 On ch=3 n=61 v=127
420000 On ch=3 n=62 v=127
420000 On ch=3 n=73 v=127
420000 On ch=3 n=74 v=127
420000 On ch=3 n=85 v=127
420000 On ch=3 n=86 v=127
420000 On ch=3 n=97 v=127
420000 On ch=3 n=98 v=127
420060 On ch=3 n=26 v=0
420060 On ch=3 n=31 v=0
420060 On ch=3 n=61 v=0
420060 On ch=3 n=62 v=0
420060 On ch=3 n=73 v=0
420060 On ch=3 n=74 v=0
420060 On ch=3 n=85 v=0
420060 On ch=3 n=86 v=0
420060 On ch=3 n=97 v=0
420060 On ch=3 n=98 v=0
420240 On ch=3 n=24 v=127
420240 On ch=3 n=31 v=127
420240 On ch=3 n=84 v=127
420240 On ch=3 n=86 v=127
420240 On ch=3 n=96 v=127
420240 On ch=3 n=98 v=127
420240 On ch=3 n=72 v=127
420240 On ch=3 n=62 v=127
420300 On ch=3 n=24 v=0
420300 On ch=3 n=31 v=0
420300 On ch=3 n=84 v=0
420300 On ch=3 n=86 v=0
420300 On ch=3 n=96 v=0
420300 On ch=3 n=98 v=0
420300 On ch=3 n=72 v=0
420300 On ch=3 n=62 v=0
420480 On ch=3 n=26 v=127
420480 On ch=3 n=31 v=127
420480 On ch=3 n=61 v=127
420480 On ch=3 n=62 v=127
420480 On ch=3 n=73 v=127
420480 On ch=3 n=74 v=127
420480 On ch=3 n=85 v=127
420480 On ch=3 n=86 v=127
420480 On ch=3 n=97 v=127
420480 On ch=3 n=98 v=127
420540 On ch=3 n=26 v=0
420540 On ch=3 n=31 v=0
420540 On ch=3 n=61 v=0
420540 On ch=3 n=62 v=0
420540 On ch=3 n=73 v=0
420540 On ch=3 n=74 v=0
420540 On ch=3 n=85 v=0
420540 On ch=3 n=86 v=0
420540 On ch=3 n=97 v=0
420540 On ch=3 n=98 v=0
420720 On ch=3 n=24 v=127
420720 On ch=3 n=31 v=127
420720 On ch=3 n=84 v=127
420720 On ch=3 n=86 v=127
420720 On ch=3 n=96 v=127
420720 On ch=3 n=98 v=127
420720 On ch=3 n=72 v=127
420720 On ch=3 n=62 v=127
420780 On ch=3 n=24 v=0
420780 On ch=3 n=31 v=0
420780 On ch=3 n=84 v=0
420780 On ch=3 n=86 v=0
420780 On ch=3 n=96 v=0
420780 On ch=3 n=98 v=0
420780 On ch=3 n=72 v=0
420780 On ch=3 n=62 v=0
420960 On ch=3 n=24 v=127
420960 On ch=3 n=27 v=127
420960 On ch=3 n=61 v=127
420960 On ch=3 n=73 v=127
420960 On ch=3 n=85 v=127
420960 On ch=3 n=96 v=127
420960 On ch=3 n=97 v=127
421020 On ch=3 n=24 v=0
421020 On ch=3 n=27 v=0
421020 On ch=3 n=61 v=0
421020 On ch=3 n=73 v=0
421020 On ch=3 n=85 v=0
421020 On ch=3 n=96 v=0
421020 On ch=3 n=97 v=0
421080 On ch=3 n=26 v=127
421080 On ch=3 n=85 v=127
421080 On ch=3 n=97 v=127
421140 On ch=3 n=26 v=0
421140 On ch=3 n=85 v=0
421140 On ch=3 n=97 v=0
421200 On ch=3 n=24 v=127
421200 On ch=3 n=27 v=127
421200 On ch=3 n=73 v=127
421200 On ch=3 n=85 v=127
421200 On ch=3 n=96 v=127
421200 On ch=3 n=97 v=127
421260 On ch=3 n=24 v=0
421260 On ch=3 n=27 v=0
421260 On ch=3 n=73 v=0
421260 On ch=3 n=85 v=0
421260 On ch=3 n=96 v=0
421260 On ch=3 n=97 v=0
421320 On ch=3 n=26 v=127
421320 On ch=3 n=85 v=127
421320 On ch=3 n=97 v=127
421380 On ch=3 n=26 v=0
421380 On ch=3 n=85 v=0
421380 On ch=3 n=97 v=0
421440 On ch=3 n=24 v=127
421440 On ch=3 n=25 v=127
421440 On ch=3 n=36 v=127
421440 On ch=3 n=60 v=127
421440 On ch=3 n=64 v=127
421440 On ch=3 n=72 v=127
421440 On ch=3 n=76 v=127
421440 On ch=3 n=84 v=127
421440 On ch=3 n=88 v=127
421440 On ch=3 n=96 v=127
421440 On ch=3 n=100 v=127
421500 On ch=3 n=24 v=0
421500 On ch=3 n=36 v=0
421500 On ch=3 n=60 v=0
421500 On ch=3 n=64 v=0
421500 On ch=3 n=72 v=0
421500 On ch=3 n=76 v=0
421500 On ch=3 n=84 v=0
421500 On ch=3 n=88 v=0
421500 On ch=3 n=96 v=0
421500 On ch=3 n=100 v=0
421680 On ch=3 n=24 v=127
421680 On ch=3 n=37 v=127
421680 On ch=3 n=60 v=127
421680 On ch=3 n=64 v=127
421680 On ch=3 n=72 v=127
421680 On ch=3 n=76 v=127
421680 On ch=3 n=84 v=127
421680 On ch=3 n=88 v=127
421680 On ch=3 n=96 v=127
421680 On ch=3 n=100 v=127
421740 On ch=3 n=24 v=0
421740 On ch=3 n=37 v=0
421740 On ch=3 n=60 v=0
421740 On ch=3 n=64 v=0
421740 On ch=3 n=72 v=0
421740 On ch=3 n=76 v=0
421740 On ch=3 n=84 v=0
421740 On ch=3 n=88 v=0
421740 On ch=3 n=96 v=0
421740 On ch=3 n=100 v=0
421914 On ch=3 n=25 v=0
423360 Meta Text "[idle_intense]"
427200 Meta Text "[play]"
427200 On ch=3 n=27 v=127
427200 On ch=3 n=61 v=127
427200 On ch=3 n=73 v=127
427200 On ch=3 n=85 v=127
427200 On ch=3 n=97 v=127
427200 On ch=3 n=110 v=127
427200 On ch=3 n=111 v=127
427200 On ch=3 n=112 v=127
427200 On ch=3 n=120 v=127
427200 On ch=3 n=121 v=127
427200 On ch=3 n=122 v=127
427200 On ch=3 n=123 v=127
427200 On ch=3 n=124 v=127
427260 On ch=3 n=27 v=0
427260 On ch=3 n=61 v=0
427260 On ch=3 n=73 v=0
427260 On ch=3 n=85 v=0
427260 On ch=3 n=97 v=0
427320 On ch=3 n=26 v=127
427320 On ch=3 n=85 v=127
427320 On ch=3 n=97 v=127
427380 On ch=3 n=26 v=0
427380 On ch=3 n=85 v=0
427380 On ch=3 n=97 v=0
427440 On ch=3 n=47 v=127
427440 On ch=3 n=74 v=127
427440 On ch=3 n=86 v=127
427440 On ch=3 n=98 v=127
427440 On ch=3 n=62 v=100
427500 On ch=3 n=47 v=0
427500 On ch=3 n=74 v=0
427500 On ch=3 n=86 v=0
427500 On ch=3 n=98 v=0
427500 On ch=3 n=62 v=0
427680 On ch=3 n=48 v=127
427680 On ch=3 n=63 v=127
427680 On ch=3 n=75 v=127
427680 On ch=3 n=87 v=127
427680 On ch=3 n=99 v=127
427740 On ch=3 n=48 v=0
427740 On ch=3 n=63 v=0
427740 On ch=3 n=75 v=0
427740 On ch=3 n=87 v=0
427740 On ch=3 n=99 v=0
427920 On ch=3 n=51 v=127
427920 On ch=3 n=76 v=127
427920 On ch=3 n=88 v=127
427920 On ch=3 n=100 v=127
427980 On ch=3 n=51 v=0
427980 On ch=3 n=76 v=0
427980 On ch=3 n=88 v=0
427980 On ch=3 n=100 v=0
428038 On ch=3 n=110 v=0
428038 On ch=3 n=111 v=0
428038 On ch=3 n=112 v=0
428160 On ch=3 n=27 v=127
428160 On ch=3 n=61 v=127
428160 On ch=3 n=73 v=127
428160 On ch=3 n=85 v=127
428160 On ch=3 n=97 v=127
428220 On ch=3 n=27 v=0
428220 On ch=3 n=61 v=0
428220 On ch=3 n=73 v=0
428220 On ch=3 n=85 v=0
428220 On ch=3 n=97 v=0
428280 On ch=3 n=26 v=127
428280 On ch=3 n=85 v=127
428280 On ch=3 n=97 v=127
428340 On ch=3 n=26 v=0
428340 On ch=3 n=85 v=0
428340 On ch=3 n=97 v=0
428400 On ch=3 n=27 v=127
428400 On ch=3 n=73 v=127
428400 On ch=3 n=85 v=127
428400 On ch=3 n=97 v=127
428400 On ch=3 n=61 v=100
428460 On ch=3 n=27 v=0
428460 On ch=3 n=73 v=0
428460 On ch=3 n=85 v=0
428460 On ch=3 n=97 v=0
428460 On ch=3 n=61 v=0
428520 On ch=3 n=26 v=127
428520 On ch=3 n=85 v=127
428520 On ch=3 n=97 v=127
428580 On ch=3 n=26 v=0
428580 On ch=3 n=85 v=0
428580 On ch=3 n=97 v=0
428640 On ch=3 n=27 v=127
428640 On ch=3 n=61 v=127
428640 On ch=3 n=73 v=127
428640 On ch=3 n=85 v=127
428640 On ch=3 n=97 v=127
428700 On ch=3 n=27 v=0
428700 On ch=3 n=61 v=0
428700 On ch=3 n=73 v=0
428700 On ch=3 n=85 v=0
428700 On ch=3 n=97 v=0
428760 On ch=3 n=26 v=127
428760 On ch=3 n=85 v=127
428760 On ch=3 n=97 v=127
428820 On ch=3 n=26 v=0
428820 On ch=3 n=85 v=0
428820 On ch=3 n=97 v=0
428880 On ch=3 n=27 v=127
428880 On ch=3 n=73 v=127
428880 On ch=3 n=85 v=127
428880 On ch=3 n=97 v=127
428880 On ch=3 n=61 v=100
428940 On ch=3 n=27 v=0
428940 On ch=3 n=73 v=0
428940 On ch=3 n=85 v=0
428940 On ch=3 n=97 v=0
428940 On ch=3 n=61 v=0
429000 On ch=3 n=26 v=127
429000 On ch=3 n=85 v=127
429000 On ch=3 n=97 v=127
429060 On ch=3 n=26 v=0
429060 On ch=3 n=85 v=0
429060 On ch=3 n=97 v=0
429116 On ch=3 n=120 v=0
429116 On ch=3 n=121 v=0
429116 On ch=3 n=122 v=0
429116 On ch=3 n=123 v=0
429116 On ch=3 n=124 v=0
429120 On ch=3 n=105 v=0
429120 On ch=3 n=24 v=127
429120 On ch=3 n=38 v=127
429120 On ch=3 n=64 v=127
429120 On ch=3 n=72 v=127
429120 On ch=3 n=76 v=127
429120 On ch=3 n=84 v=127
429120 On ch=3 n=88 v=127
429120 On ch=3 n=96 v=127
429120 On ch=3 n=100 v=127
429120 On ch=3 n=60 v=100
429180 On ch=3 n=24 v=0
429180 On ch=3 n=38 v=0
429180 On ch=3 n=64 v=0
429180 On ch=3 n=72 v=0
429180 On ch=3 n=76 v=0
429180 On ch=3 n=84 v=0
429180 On ch=3 n=88 v=0
429180 On ch=3 n=96 v=0
429180 On ch=3 n=100 v=0
429180 On ch=3 n=60 v=0
429360 On ch=3 n=24 v=127
429360 On ch=3 n=42 v=127
429360 On ch=3 n=84 v=127
429360 On ch=3 n=87 v=127
429360 On ch=3 n=96 v=127
429360 On ch=3 n=99 v=127
429360 On ch=3 n=63 v=100
429420 On ch=3 n=24 v=0
429420 On ch=3 n=42 v=0
429420 On ch=3 n=84 v=0
429420 On ch=3 n=87 v=0
429420 On ch=3 n=96 v=0
429420 On ch=3 n=99 v=0
429420 On ch=3 n=63 v=0
429480 On ch=3 n=25 v=127
429594 On ch=3 n=25 v=0
429600 On ch=3 n=26 v=127
429600 On ch=3 n=42 v=127
429600 On ch=3 n=61 v=127
429600 On ch=3 n=63 v=127
429600 On ch=3 n=73 v=127
429600 On ch=3 n=75 v=127
429600 On ch=3 n=85 v=127
429600 On ch=3 n=87 v=127
429600 On ch=3 n=97 v=127
429600 On ch=3 n=99 v=127
429660 On ch=3 n=26 v=0
429660 On ch=3 n=42 v=0
429660 On ch=3 n=61 v=0
429660 On ch=3 n=63 v=0
429660 On ch=3 n=73 v=0
429660 On ch=3 n=75 v=0
429660 On ch=3 n=85 v=0
429660 On ch=3 n=87 v=0
429660 On ch=3 n=97 v=0
429660 On ch=3 n=99 v=0
429840 On ch=3 n=42 v=127
429840 On ch=3 n=75 v=127
429840 On ch=3 n=87 v=127
429840 On ch=3 n=99 v=127
429840 On ch=3 n=63 v=127
429900 On ch=3 n=42 v=0
429900 On ch=3 n=75 v=0
429900 On ch=3 n=87 v=0
429900 On ch=3 n=99 v=0
429900 On ch=3 n=63 v=0
429960 On ch=3 n=25 v=127
430074 On ch=3 n=25 v=0
430080 On ch=3 n=24 v=127
430080 On ch=3 n=42 v=127
430080 On ch=3 n=63 v=127
430080 On ch=3 n=72 v=127
430080 On ch=3 n=75 v=127
430080 On ch=3 n=84 v=127
430080 On ch=3 n=87 v=127
430080 On ch=3 n=96 v=127
430080 On ch=3 n=99 v=127
430140 On ch=3 n=24 v=0
430140 On ch=3 n=42 v=0
430140 On ch=3 n=63 v=0
430140 On ch=3 n=72 v=0
430140 On ch=3 n=75 v=0
430140 On ch=3 n=84 v=0
430140 On ch=3 n=87 v=0
430140 On ch=3 n=96 v=0
430140 On ch=3 n=99 v=0
430320 On ch=3 n=24 v=127
430320 On ch=3 n=42 v=127
430320 On ch=3 n=72 v=127
430320 On ch=3 n=75 v=127
430320 On ch=3 n=84 v=127
430320 On ch=3 n=87 v=127
430320 On ch=3 n=96 v=127
430320 On ch=3 n=99 v=127
430320 On ch=3 n=63 v=127
430380 On ch=3 n=24 v=0
430380 On ch=3 n=42 v=0
430380 On ch=3 n=72 v=0
430380 On ch=3 n=75 v=0
430380 On ch=3 n=84 v=0
430380 On ch=3 n=87 v=0
430380 On ch=3 n=96 v=0
430380 On ch=3 n=99 v=0
430380 On ch=3 n=63 v=0
430440 On ch=3 n=25 v=127
430554 On ch=3 n=25 v=0
430560 On ch=3 n=26 v=127
430560 On ch=3 n=42 v=127
430560 On ch=3 n=61 v=127
430560 On ch=3 n=63 v=127
430560 On ch=3 n=73 v=127
430560 On ch=3 n=75 v=127
430560 On ch=3 n=85 v=127
430560 On ch=3 n=87 v=127
430560 On ch=3 n=97 v=127
430560 On ch=3 n=99 v=127
430620 On ch=3 n=26 v=0
430620 On ch=3 n=42 v=0
430620 On ch=3 n=61 v=0
430620 On ch=3 n=63 v=0
430620 On ch=3 n=73 v=0
430620 On ch=3 n=75 v=0
430620 On ch=3 n=85 v=0
430620 On ch=3 n=87 v=0
430620 On ch=3 n=97 v=0
430620 On ch=3 n=99 v=0
430800 On ch=3 n=42 v=127
430800 On ch=3 n=75 v=127
430800 On ch=3 n=87 v=127
430800 On ch=3 n=99 v=127
430800 On ch=3 n=63 v=127
430860 On ch=3 n=42 v=0
430860 On ch=3 n=75 v=0
430860 On ch=3 n=87 v=0
430860 On ch=3 n=99 v=0
430860 On ch=3 n=63 v=0
430920 On ch=3 n=25 v=127
431034 On ch=3 n=25 v=0
431040 On ch=3 n=24 v=127
431040 On ch=3 n=42 v=127
431040 On ch=3 n=63 v=127
431040 On ch=3 n=72 v=127
431040 On ch=3 n=75 v=127
431040 On ch=3 n=84 v=127
431040 On ch=3 n=87 v=127
431040 On ch=3 n=96 v=127
431040 On ch=3 n=99 v=127
431100 On ch=3 n=24 v=0
431100 On ch=3 n=42 v=0
431100 On ch=3 n=63 v=0
431100 On ch=3 n=72 v=0
431100 On ch=3 n=75 v=0
431100 On ch=3 n=84 v=0
431100 On ch=3 n=87 v=0
431100 On ch=3 n=96 v=0
431100 On ch=3 n=99 v=0
431280 On ch=3 n=24 v=127
431280 On ch=3 n=42 v=127
431280 On ch=3 n=72 v=127
431280 On ch=3 n=75 v=127
431280 On ch=3 n=84 v=127
431280 On ch=3 n=87 v=127
431280 On ch=3 n=96 v=127
431280 On ch=3 n=99 v=127
431280 On ch=3 n=63 v=127
431340 On ch=3 n=24 v=0
431340 On ch=3 n=42 v=0
431340 On ch=3 n=72 v=0
431340 On ch=3 n=75 v=0
431340 On ch=3 n=84 v=0
431340 On ch=3 n=87 v=0
431340 On ch=3 n=96 v=0
431340 On ch=3 n=99 v=0
431340 On ch=3 n=63 v=0
431400 On ch=3 n=25 v=127
431514 On ch=3 n=25 v=0
431520 On ch=3 n=26 v=127
431520 On ch=3 n=42 v=127
431520 On ch=3 n=61 v=127
431520 On ch=3 n=63 v=127
431520 On ch=3 n=73 v=127
431520 On ch=3 n=75 v=127
431520 On ch=3 n=85 v=127
431520 On ch=3 n=87 v=127
431520 On ch=3 n=97 v=127
431520 On ch=3 n=99 v=127
431580 On ch=3 n=26 v=0
431580 On ch=3 n=42 v=0
431580 On ch=3 n=61 v=0
431580 On ch=3 n=63 v=0
431580 On ch=3 n=73 v=0
431580 On ch=3 n=75 v=0
431580 On ch=3 n=85 v=0
431580 On ch=3 n=87 v=0
431580 On ch=3 n=97 v=0
431580 On ch=3 n=99 v=0
431760 On ch=3 n=42 v=127
431760 On ch=3 n=75 v=127
431760 On ch=3 n=87 v=127
431760 On ch=3 n=99 v=127
431760 On ch=3 n=63 v=127
431820 On ch=3 n=42 v=0
431820 On ch=3 n=75 v=0
431820 On ch=3 n=87 v=0
431820 On ch=3 n=99 v=0
431820 On ch=3 n=63 v=0
431880 On ch=3 n=25 v=127
431994 On ch=3 n=25 v=0
432000 On ch=3 n=24 v=127
432000 On ch=3 n=42 v=127
432000 On ch=3 n=63 v=127
432000 On ch=3 n=72 v=127
432000 On ch=3 n=75 v=127
432000 On ch=3 n=84 v=127
432000 On ch=3 n=87 v=127
432000 On ch=3 n=96 v=127
432000 On ch=3 n=99 v=127
432000 On ch=3 n=105 v=100
432000 On ch=3 n=116 v=100
432060 On ch=3 n=24 v=0
432060 On ch=3 n=42 v=0
432060 On ch=3 n=63 v=0
432060 On ch=3 n=72 v=0
432060 On ch=3 n=75 v=0
432060 On ch=3 n=84 v=0
432060 On ch=3 n=87 v=0
432060 On ch=3 n=96 v=0
432060 On ch=3 n=99 v=0
432240 On ch=3 n=24 v=127
432240 On ch=3 n=42 v=127
432240 On ch=3 n=72 v=127
432240 On ch=3 n=75 v=127
432240 On ch=3 n=84 v=127
432240 On ch=3 n=87 v=127
432240 On ch=3 n=96 v=127
432240 On ch=3 n=99 v=127
432240 On ch=3 n=63 v=127
432300 On ch=3 n=24 v=0
432300 On ch=3 n=42 v=0
432300 On ch=3 n=72 v=0
432300 On ch=3 n=75 v=0
432300 On ch=3 n=84 v=0
432300 On ch=3 n=87 v=0
432300 On ch=3 n=96 v=0
432300 On ch=3 n=99 v=0
432300 On ch=3 n=63 v=0
432360 On ch=3 n=25 v=127
432474 On ch=3 n=25 v=0
432480 On ch=3 n=26 v=127
432480 On ch=3 n=42 v=127
432480 On ch=3 n=73 v=127
432480 On ch=3 n=85 v=127
432480 On ch=3 n=97 v=127
432480 On ch=3 n=61 v=127
432540 On ch=3 n=26 v=0
432540 On ch=3 n=42 v=0
432540 On ch=3 n=73 v=0
432540 On ch=3 n=85 v=0
432540 On ch=3 n=97 v=0
432540 On ch=3 n=61 v=0
432600 On ch=3 n=24 v=127
432600 On ch=3 n=38 v=127
432600 On ch=3 n=76 v=127
432600 On ch=3 n=84 v=127
432600 On ch=3 n=88 v=127
432600 On ch=3 n=96 v=127
432600 On ch=3 n=100 v=127
432660 On ch=3 n=24 v=0
432660 On ch=3 n=38 v=0
432660 On ch=3 n=76 v=0
432660 On ch=3 n=84 v=0
432660 On ch=3 n=88 v=0
432660 On ch=3 n=96 v=0
432660 On ch=3 n=100 v=0
432840 On ch=3 n=25 v=127
432954 On ch=3 n=25 v=0
432960 On ch=3 n=106 v=0
432960 On ch=3 n=116 v=0
432960 On ch=3 n=24 v=127
432960 On ch=3 n=42 v=127
432960 On ch=3 n=63 v=127
432960 On ch=3 n=72 v=127
432960 On ch=3 n=75 v=127
432960 On ch=3 n=84 v=127
432960 On ch=3 n=87 v=127
432960 On ch=3 n=96 v=127
432960 On ch=3 n=99 v=127
432960 On ch=3 n=60 v=100
433020 On ch=3 n=24 v=0
433020 On ch=3 n=42 v=0
433020 On ch=3 n=63 v=0
433020 On ch=3 n=72 v=0
433020 On ch=3 n=75 v=0
433020 On ch=3 n=84 v=0
433020 On ch=3 n=87 v=0
433020 On ch=3 n=96 v=0
433020 On ch=3 n=99 v=0
433020 On ch=3 n=60 v=0
433200 On ch=3 n=24 v=127
433200 On ch=3 n=42 v=127
433200 On ch=3 n=72 v=127
433200 On ch=3 n=75 v=127
433200 On ch=3 n=84 v=127
433200 On ch=3 n=87 v=127
433200 On ch=3 n=96 v=127
433200 On ch=3 n=99 v=127
433200 On ch=3 n=63 v=127
433260 On ch=3 n=24 v=0
433260 On ch=3 n=42 v=0
433260 On ch=3 n=72 v=0
433260 On ch=3 n=75 v=0
433260 On ch=3 n=84 v=0
433260 On ch=3 n=87 v=0
433260 On ch=3 n=96 v=0
433260 On ch=3 n=99 v=0
433260 On ch=3 n=63 v=0
433320 On ch=3 n=25 v=127
433434 On ch=3 n=25 v=0
433440 On ch=3 n=26 v=127
433440 On ch=3 n=42 v=127
433440 On ch=3 n=61 v=127
433440 On ch=3 n=63 v=127
433440 On ch=3 n=73 v=127
433440 On ch=3 n=75 v=127
433440 On ch=3 n=85 v=127
433440 On ch=3 n=87 v=127
433440 On ch=3 n=97 v=127
433440 On ch=3 n=99 v=127
433500 On ch=3 n=26 v=0
433500 On ch=3 n=42 v=0
433500 On ch=3 n=61 v=0
433500 On ch=3 n=63 v=0
433500 On ch=3 n=73 v=0
433500 On ch=3 n=75 v=0
433500 On ch=3 n=85 v=0
433500 On ch=3 n=87 v=0
433500 On ch=3 n=97 v=0
433500 On ch=3 n=99 v=0
433680 On ch=3 n=42 v=127
433680 On ch=3 n=75 v=127
433680 On ch=3 n=87 v=127
433680 On ch=3 n=99 v=127
433680 On ch=3 n=63 v=127
433740 On ch=3 n=42 v=0
433740 On ch=3 n=75 v=0
433740 On ch=3 n=87 v=0
433740 On ch=3 n=99 v=0
433740 On ch=3 n=63 v=0
433800 On ch=3 n=25 v=127
433914 On ch=3 n=25 v=0
433920 On ch=3 n=24 v=127
433920 On ch=3 n=42 v=127
433920 On ch=3 n=63 v=127
433920 On ch=3 n=72 v=127
433920 On ch=3 n=75 v=127
433920 On ch=3 n=84 v=127
433920 On ch=3 n=87 v=127
433920 On ch=3 n=96 v=127
433920 On ch=3 n=99 v=127
433980 On ch=3 n=24 v=0
433980 On ch=3 n=42 v=0
433980 On ch=3 n=63 v=0
433980 On ch=3 n=72 v=0
433980 On ch=3 n=75 v=0
433980 On ch=3 n=84 v=0
433980 On ch=3 n=87 v=0
433980 On ch=3 n=96 v=0
433980 On ch=3 n=99 v=0
434160 On ch=3 n=24 v=127
434160 On ch=3 n=42 v=127
434160 On ch=3 n=72 v=127
434160 On ch=3 n=75 v=127
434160 On ch=3 n=84 v=127
434160 On ch=3 n=87 v=127
434160 On ch=3 n=96 v=127
434160 On ch=3 n=99 v=127
434160 On ch=3 n=63 v=127
434220 On ch=3 n=24 v=0
434220 On ch=3 n=42 v=0
434220 On ch=3 n=72 v=0
434220 On ch=3 n=75 v=0
434220 On ch=3 n=84 v=0
434220 On ch=3 n=87 v=0
434220 On ch=3 n=96 v=0
434220 On ch=3 n=99 v=0
434220 On ch=3 n=63 v=0
434400 On ch=3 n=97 v=100
434400 On ch=3 n=85 v=100
434400 On ch=3 n=87 v=100
434400 On ch=3 n=99 v=100
434400 On ch=3 n=73 v=100
434400 On ch=3 n=75 v=100
434400 On ch=3 n=63 v=100
434400 On ch=3 n=61 v=100
434460 On ch=3 n=97 v=0
434460 On ch=3 n=85 v=0
434460 On ch=3 n=87 v=0
434460 On ch=3 n=99 v=0
434460 On ch=3 n=73 v=0
434460 On ch=3 n=75 v=0
434460 On ch=3 n=63 v=0
434460 On ch=3 n=61 v=0
434640 On ch=3 n=42 v=127
434640 On ch=3 n=75 v=127
434640 On ch=3 n=87 v=127
434640 On ch=3 n=99 v=127
434640 On ch=3 n=63 v=100
434700 On ch=3 n=42 v=0
434700 On ch=3 n=75 v=0
434700 On ch=3 n=87 v=0
434700 On ch=3 n=99 v=0
434700 On ch=3 n=63 v=0
434760 On ch=3 n=25 v=127
434874 On ch=3 n=25 v=0
434880 On ch=3 n=24 v=127
434880 On ch=3 n=42 v=127
434880 On ch=3 n=63 v=127
434880 On ch=3 n=72 v=127
434880 On ch=3 n=75 v=127
434880 On ch=3 n=84 v=127
434880 On ch=3 n=87 v=127
434880 On ch=3 n=96 v=127
434880 On ch=3 n=99 v=127
434940 On ch=3 n=24 v=0
434940 On ch=3 n=42 v=0
434940 On ch=3 n=63 v=0
434940 On ch=3 n=72 v=0
434940 On ch=3 n=75 v=0
434940 On ch=3 n=84 v=0
434940 On ch=3 n=87 v=0
434940 On ch=3 n=96 v=0
434940 On ch=3 n=99 v=0
435120 On ch=3 n=24 v=127
435120 On ch=3 n=42 v=127
435120 On ch=3 n=72 v=127
435120 On ch=3 n=75 v=127
435120 On ch=3 n=84 v=127
435120 On ch=3 n=87 v=127
435120 On ch=3 n=96 v=127
435120 On ch=3 n=99 v=127
435120 On ch=3 n=63 v=127
435180 On ch=3 n=24 v=0
435180 On ch=3 n=42 v=0
435180 On ch=3 n=72 v=0
435180 On ch=3 n=75 v=0
435180 On ch=3 n=84 v=0
435180 On ch=3 n=87 v=0
435180 On ch=3 n=96 v=0
435180 On ch=3 n=99 v=0
435180 On ch=3 n=63 v=0
435240 On ch=3 n=25 v=127
435354 On ch=3 n=25 v=0
435360 On ch=3 n=26 v=127
435360 On ch=3 n=42 v=127
435360 On ch=3 n=61 v=127
435360 On ch=3 n=63 v=127
435360 On ch=3 n=73 v=127
435360 On ch=3 n=75 v=127
435360 On ch=3 n=85 v=127
435360 On ch=3 n=87 v=127
435360 On ch=3 n=97 v=127
435360 On ch=3 n=99 v=127
435420 On ch=3 n=26 v=0
435420 On ch=3 n=42 v=0
435420 On ch=3 n=61 v=0
435420 On ch=3 n=63 v=0
435420 On ch=3 n=73 v=0
435420 On ch=3 n=75 v=0
435420 On ch=3 n=85 v=0
435420 On ch=3 n=87 v=0
435420 On ch=3 n=97 v=0
435420 On ch=3 n=99 v=0
435600 On ch=3 n=42 v=127
435600 On ch=3 n=75 v=127
435600 On ch=3 n=87 v=127
435600 On ch=3 n=99 v=127
435600 On ch=3 n=63 v=127
435660 On ch=3 n=42 v=0
435660 On ch=3 n=75 v=0
435660 On ch=3 n=87 v=0
435660 On ch=3 n=99 v=0
435660 On ch=3 n=63 v=0
435720 On ch=3 n=25 v=127
435834 On ch=3 n=25 v=0
435840 On ch=3 n=24 v=127
435840 On ch=3 n=42 v=127
435840 On ch=3 n=63 v=127
435840 On ch=3 n=72 v=127
435840 On ch=3 n=75 v=127
435840 On ch=3 n=84 v=127
435840 On ch=3 n=87 v=127
435840 On ch=3 n=96 v=127
435840 On ch=3 n=99 v=127
435840 On ch=3 n=106 v=100
435900 On ch=3 n=24 v=0
435900 On ch=3 n=42 v=0
435900 On ch=3 n=63 v=0
435900 On ch=3 n=72 v=0
435900 On ch=3 n=75 v=0
435900 On ch=3 n=84 v=0
435900 On ch=3 n=87 v=0
435900 On ch=3 n=96 v=0
435900 On ch=3 n=99 v=0
436080 On ch=3 n=24 v=127
436080 On ch=3 n=42 v=127
436080 On ch=3 n=72 v=127
436080 On ch=3 n=75 v=127
436080 On ch=3 n=84 v=127
436080 On ch=3 n=87 v=127
436080 On ch=3 n=96 v=127
436080 On ch=3 n=99 v=127
436080 On ch=3 n=63 v=127
436140 On ch=3 n=24 v=0
436140 On ch=3 n=42 v=0
436140 On ch=3 n=72 v=0
436140 On ch=3 n=75 v=0
436140 On ch=3 n=84 v=0
436140 On ch=3 n=87 v=0
436140 On ch=3 n=96 v=0
436140 On ch=3 n=99 v=0
436140 On ch=3 n=63 v=0
436200 On ch=3 n=25 v=127
436314 On ch=3 n=25 v=0
436320 On ch=3 n=26 v=127
436320 On ch=3 n=42 v=127
436320 On ch=3 n=61 v=127
436320 On ch=3 n=73 v=127
436320 On ch=3 n=85 v=127
436320 On ch=3 n=97 v=127
436380 On ch=3 n=26 v=0
436380 On ch=3 n=42 v=0
436380 On ch=3 n=61 v=0
436380 On ch=3 n=73 v=0
436380 On ch=3 n=85 v=0
436380 On ch=3 n=97 v=0
436440 On ch=3 n=24 v=127
436440 On ch=3 n=38 v=127
436440 On ch=3 n=76 v=127
436440 On ch=3 n=84 v=127
436440 On ch=3 n=88 v=127
436440 On ch=3 n=96 v=127
436440 On ch=3 n=100 v=127
436500 On ch=3 n=24 v=0
436500 On ch=3 n=38 v=0
436500 On ch=3 n=76 v=0
436500 On ch=3 n=84 v=0
436500 On ch=3 n=88 v=0
436500 On ch=3 n=96 v=0
436500 On ch=3 n=100 v=0
436680 On ch=3 n=25 v=127
436794 On ch=3 n=25 v=0
436800 On ch=3 n=24 v=127
436800 On ch=3 n=36 v=127
436800 On ch=3 n=64 v=127
436800 On ch=3 n=72 v=127
436800 On ch=3 n=84 v=127
436800 On ch=3 n=96 v=127
436800 On ch=3 n=100 v=127
436800 On ch=3 n=120 v=127
436800 On ch=3 n=121 v=127
436800 On ch=3 n=122 v=127
436800 On ch=3 n=123 v=127
436800 On ch=3 n=124 v=127
436800 On ch=3 n=88 v=100
436800 On ch=3 n=76 v=100
436800 On ch=3 n=60 v=100
436860 On ch=3 n=24 v=0
436860 On ch=3 n=36 v=0
436860 On ch=3 n=64 v=0
436860 On ch=3 n=72 v=0
436860 On ch=3 n=84 v=0
436860 On ch=3 n=96 v=0
436860 On ch=3 n=100 v=0
436860 On ch=3 n=88 v=0
436860 On ch=3 n=76 v=0
436860 On ch=3 n=60 v=0
437040 On ch=3 n=24 v=127
437040 On ch=3 n=36 v=127
437040 On ch=3 n=72 v=127
437040 On ch=3 n=84 v=127
437040 On ch=3 n=96 v=127
437040 On ch=3 n=100 v=127
437040 On ch=3 n=88 v=100
437040 On ch=3 n=76 v=100
437100 On ch=3 n=24 v=0
437100 On ch=3 n=36 v=0
437100 On ch=3 n=72 v=0
437100 On ch=3 n=84 v=0
437100 On ch=3 n=96 v=0
437100 On ch=3 n=100 v=0
437100 On ch=3 n=88 v=0
437100 On ch=3 n=76 v=0
437280 On ch=3 n=27 v=127
437280 On ch=3 n=61 v=127
437280 On ch=3 n=73 v=127
437280 On ch=3 n=85 v=127
437280 On ch=3 n=97 v=127
437340 On ch=3 n=27 v=0
437340 On ch=3 n=61 v=0
437340 On ch=3 n=73 v=0
437340 On ch=3 n=85 v=0
437340 On ch=3 n=97 v=0
437400 On ch=3 n=26 v=127
437400 On ch=3 n=85 v=127
437400 On ch=3 n=97 v=127
437460 On ch=3 n=26 v=0
437460 On ch=3 n=85 v=0
437460 On ch=3 n=97 v=0
437520 On ch=3 n=27 v=127
437520 On ch=3 n=85 v=127
437520 On ch=3 n=97 v=127
437580 On ch=3 n=27 v=0
437580 On ch=3 n=85 v=0
437580 On ch=3 n=97 v=0
437640 On ch=3 n=26 v=127
437640 On ch=3 n=85 v=127
437640 On ch=3 n=97 v=127
437700 On ch=3 n=26 v=0
437700 On ch=3 n=85 v=0
437700 On ch=3 n=97 v=0
437760 On ch=3 n=24 v=127
437760 On ch=3 n=36 v=127
437760 On ch=3 n=64 v=127
437760 On ch=3 n=72 v=127
437760 On ch=3 n=84 v=127
437760 On ch=3 n=96 v=127
437760 On ch=3 n=100 v=127
437760 On ch=3 n=88 v=100
437760 On ch=3 n=76 v=100
437760 On ch=3 n=60 v=100
437820 On ch=3 n=24 v=0
437820 On ch=3 n=36 v=0
437820 On ch=3 n=64 v=0
437820 On ch=3 n=72 v=0
437820 On ch=3 n=84 v=0
437820 On ch=3 n=96 v=0
437820 On ch=3 n=100 v=0
437820 On ch=3 n=88 v=0
437820 On ch=3 n=76 v=0
437820 On ch=3 n=60 v=0
438000 On ch=3 n=24 v=127
438000 On ch=3 n=36 v=127
438000 On ch=3 n=72 v=127
438000 On ch=3 n=84 v=127
438000 On ch=3 n=96 v=127
438000 On ch=3 n=100 v=127
438000 On ch=3 n=88 v=100
438000 On ch=3 n=76 v=100
438060 On ch=3 n=24 v=0
438060 On ch=3 n=36 v=0
438060 On ch=3 n=72 v=0
438060 On ch=3 n=84 v=0
438060 On ch=3 n=96 v=0
438060 On ch=3 n=100 v=0
438060 On ch=3 n=88 v=0
438060 On ch=3 n=76 v=0
438240 On ch=3 n=27 v=127
438240 On ch=3 n=61 v=127
438240 On ch=3 n=73 v=127
438240 On ch=3 n=85 v=127
438240 On ch=3 n=97 v=127
438300 On ch=3 n=27 v=0
438300 On ch=3 n=61 v=0
438300 On ch=3 n=73 v=0
438300 On ch=3 n=85 v=0
438300 On ch=3 n=97 v=0
438360 On ch=3 n=26 v=127
438360 On ch=3 n=85 v=127
438360 On ch=3 n=97 v=127
438420 On ch=3 n=26 v=0
438420 On ch=3 n=85 v=0
438420 On ch=3 n=97 v=0
438480 On ch=3 n=27 v=127
438480 On ch=3 n=85 v=127
438480 On ch=3 n=97 v=127
438540 On ch=3 n=27 v=0
438540 On ch=3 n=85 v=0
438540 On ch=3 n=97 v=0
438600 On ch=3 n=26 v=127
438600 On ch=3 n=85 v=127
438600 On ch=3 n=97 v=127
438660 On ch=3 n=26 v=0
438660 On ch=3 n=85 v=0
438660 On ch=3 n=97 v=0
438716 On ch=3 n=120 v=0
438716 On ch=3 n=121 v=0
438716 On ch=3 n=122 v=0
438716 On ch=3 n=123 v=0
438716 On ch=3 n=124 v=0
438720 On ch=3 n=24 v=127
438720 On ch=3 n=42 v=127
438720 On ch=3 n=63 v=127
438720 On ch=3 n=72 v=127
438720 On ch=3 n=75 v=127
438720 On ch=3 n=84 v=127
438720 On ch=3 n=87 v=127
438720 On ch=3 n=96 v=127
438720 On ch=3 n=99 v=127
438780 On ch=3 n=24 v=0
438780 On ch=3 n=42 v=0
438780 On ch=3 n=63 v=0
438780 On ch=3 n=72 v=0
438780 On ch=3 n=75 v=0
438780 On ch=3 n=84 v=0
438780 On ch=3 n=87 v=0
438780 On ch=3 n=96 v=0
438780 On ch=3 n=99 v=0
438960 On ch=3 n=105 v=0
438960 On ch=3 n=24 v=127
438960 On ch=3 n=42 v=127
438960 On ch=3 n=72 v=127
438960 On ch=3 n=75 v=127
438960 On ch=3 n=84 v=127
438960 On ch=3 n=87 v=127
438960 On ch=3 n=96 v=127
438960 On ch=3 n=99 v=127
438960 On ch=3 n=63 v=127
439020 On ch=3 n=24 v=0
439020 On ch=3 n=42 v=0
439020 On ch=3 n=72 v=0
439020 On ch=3 n=75 v=0
439020 On ch=3 n=84 v=0
439020 On ch=3 n=87 v=0
439020 On ch=3 n=96 v=0
439020 On ch=3 n=99 v=0
439020 On ch=3 n=63 v=0
439080 On ch=3 n=25 v=127
439194 On ch=3 n=25 v=0
439200 On ch=3 n=26 v=127
439200 On ch=3 n=42 v=127
439200 On ch=3 n=61 v=127
439200 On ch=3 n=63 v=127
439200 On ch=3 n=73 v=127
439200 On ch=3 n=75 v=127
439200 On ch=3 n=85 v=127
439200 On ch=3 n=87 v=127
439200 On ch=3 n=97 v=127
439200 On ch=3 n=99 v=127
439260 On ch=3 n=26 v=0
439260 On ch=3 n=42 v=0
439260 On ch=3 n=61 v=0
439260 On ch=3 n=63 v=0
439260 On ch=3 n=73 v=0
439260 On ch=3 n=75 v=0
439260 On ch=3 n=85 v=0
439260 On ch=3 n=87 v=0
439260 On ch=3 n=97 v=0
439260 On ch=3 n=99 v=0
439440 On ch=3 n=42 v=127
439440 On ch=3 n=75 v=127
439440 On ch=3 n=87 v=127
439440 On ch=3 n=99 v=127
439440 On ch=3 n=63 v=127
439500 On ch=3 n=42 v=0
439500 On ch=3 n=75 v=0
439500 On ch=3 n=87 v=0
439500 On ch=3 n=99 v=0
439500 On ch=3 n=63 v=0
439560 On ch=3 n=25 v=127
439560 On ch=3 n=26 v=127
439560 On ch=3 n=97 v=127
439620 On ch=3 n=26 v=0
439620 On ch=3 n=97 v=0
439674 On ch=3 n=25 v=0
439680 On ch=3 n=24 v=127
439680 On ch=3 n=42 v=127
439680 On ch=3 n=63 v=127
439680 On ch=3 n=72 v=127
439680 On ch=3 n=75 v=127
439680 On ch=3 n=84 v=127
439680 On ch=3 n=87 v=127
439680 On ch=3 n=96 v=127
439680 On ch=3 n=99 v=127
439740 On ch=3 n=24 v=0
439740 On ch=3 n=42 v=0
439740 On ch=3 n=63 v=0
439740 On ch=3 n=72 v=0
439740 On ch=3 n=75 v=0
439740 On ch=3 n=84 v=0
439740 On ch=3 n=87 v=0
439740 On ch=3 n=96 v=0
439740 On ch=3 n=99 v=0
439920 On ch=3 n=24 v=127
439920 On ch=3 n=42 v=127
439920 On ch=3 n=72 v=127
439920 On ch=3 n=75 v=127
439920 On ch=3 n=84 v=127
439920 On ch=3 n=87 v=127
439920 On ch=3 n=96 v=127
439920 On ch=3 n=99 v=127
439920 On ch=3 n=63 v=127
439980 On ch=3 n=24 v=0
439980 On ch=3 n=42 v=0
439980 On ch=3 n=72 v=0
439980 On ch=3 n=75 v=0
439980 On ch=3 n=84 v=0
439980 On ch=3 n=87 v=0
439980 On ch=3 n=96 v=0
439980 On ch=3 n=99 v=0
439980 On ch=3 n=63 v=0
440040 On ch=3 n=25 v=127
440154 On ch=3 n=25 v=0
440160 On ch=3 n=26 v=127
440160 On ch=3 n=42 v=127
440160 On ch=3 n=61 v=127
440160 On ch=3 n=73 v=127
440160 On ch=3 n=85 v=127
440160 On ch=3 n=97 v=127
440220 On ch=3 n=26 v=0
440220 On ch=3 n=42 v=0
440220 On ch=3 n=61 v=0
440220 On ch=3 n=73 v=0
440220 On ch=3 n=85 v=0
440220 On ch=3 n=97 v=0
440280 On ch=3 n=24 v=127
440280 On ch=3 n=38 v=127
440280 On ch=3 n=76 v=127
440280 On ch=3 n=84 v=127
440280 On ch=3 n=88 v=127
440280 On ch=3 n=96 v=127
440280 On ch=3 n=100 v=127
440340 On ch=3 n=24 v=0
440340 On ch=3 n=38 v=0
440340 On ch=3 n=76 v=0
440340 On ch=3 n=84 v=0
440340 On ch=3 n=88 v=0
440340 On ch=3 n=96 v=0
440340 On ch=3 n=100 v=0
440520 On ch=3 n=25 v=127
440634 On ch=3 n=25 v=0
440640 On ch=3 n=24 v=127
440640 On ch=3 n=34 v=127
440640 On ch=3 n=64 v=127
440640 On ch=3 n=72 v=127
440640 On ch=3 n=84 v=127
440640 On ch=3 n=96 v=127
440640 On ch=3 n=100 v=127
440640 On ch=3 n=88 v=100
440640 On ch=3 n=76 v=100
440640 On ch=3 n=105 v=100
440640 On ch=3 n=60 v=100
440700 On ch=3 n=24 v=0
440700 On ch=3 n=34 v=0
440700 On ch=3 n=64 v=0
440700 On ch=3 n=72 v=0
440700 On ch=3 n=84 v=0
440700 On ch=3 n=96 v=0
440700 On ch=3 n=100 v=0
440700 On ch=3 n=88 v=0
440700 On ch=3 n=76 v=0
440700 On ch=3 n=60 v=0
440880 On ch=3 n=24 v=127
440880 On ch=3 n=38 v=127
440880 On ch=3 n=72 v=127
440880 On ch=3 n=84 v=127
440880 On ch=3 n=96 v=127
440880 On ch=3 n=100 v=127
440880 On ch=3 n=88 v=100
440880 On ch=3 n=76 v=100
440940 On ch=3 n=24 v=0
440940 On ch=3 n=38 v=0
440940 On ch=3 n=72 v=0
440940 On ch=3 n=84 v=0
440940 On ch=3 n=96 v=0
440940 On ch=3 n=100 v=0
440940 On ch=3 n=88 v=0
440940 On ch=3 n=76 v=0
441120 On ch=3 n=27 v=127
441120 On ch=3 n=61 v=127
441120 On ch=3 n=73 v=127
441120 On ch=3 n=85 v=127
441120 On ch=3 n=97 v=127
441180 On ch=3 n=27 v=0
441180 On ch=3 n=61 v=0
441180 On ch=3 n=73 v=0
441180 On ch=3 n=85 v=0
441180 On ch=3 n=97 v=0
441240 On ch=3 n=26 v=127
441240 On ch=3 n=85 v=127
441240 On ch=3 n=97 v=127
441300 On ch=3 n=26 v=0
441300 On ch=3 n=85 v=0
441300 On ch=3 n=97 v=0
441360 On ch=3 n=27 v=127
441360 On ch=3 n=85 v=127
441360 On ch=3 n=97 v=127
441420 On ch=3 n=27 v=0
441420 On ch=3 n=85 v=0
441420 On ch=3 n=97 v=0
441480 On ch=3 n=26 v=127
441480 On ch=3 n=85 v=127
441480 On ch=3 n=97 v=127
441540 On ch=3 n=26 v=0
441540 On ch=3 n=85 v=0
441540 On ch=3 n=97 v=0
441600 On ch=3 n=24 v=127
441600 On ch=3 n=38 v=127
441600 On ch=3 n=64 v=127
441600 On ch=3 n=72 v=127
441600 On ch=3 n=84 v=127
441600 On ch=3 n=96 v=127
441600 On ch=3 n=100 v=127
441600 On ch=3 n=88 v=100
441600 On ch=3 n=76 v=100
441600 On ch=3 n=60 v=100
441660 On ch=3 n=24 v=0
441660 On ch=3 n=38 v=0
441660 On ch=3 n=64 v=0
441660 On ch=3 n=72 v=0
441660 On ch=3 n=84 v=0
441660 On ch=3 n=96 v=0
441660 On ch=3 n=100 v=0
441660 On ch=3 n=88 v=0
441660 On ch=3 n=76 v=0
441660 On ch=3 n=60 v=0
441840 On ch=3 n=24 v=127
441840 On ch=3 n=34 v=127
441840 On ch=3 n=72 v=127
441840 On ch=3 n=84 v=127
441840 On ch=3 n=96 v=127
441840 On ch=3 n=100 v=127
441840 On ch=3 n=88 v=100
441840 On ch=3 n=76 v=100
441900 On ch=3 n=24 v=0
441900 On ch=3 n=34 v=0
441900 On ch=3 n=72 v=0
441900 On ch=3 n=84 v=0
441900 On ch=3 n=96 v=0
441900 On ch=3 n=100 v=0
441900 On ch=3 n=88 v=0
441900 On ch=3 n=76 v=0
442080 On ch=3 n=27 v=127
442080 On ch=3 n=61 v=127
442080 On ch=3 n=73 v=127
442080 On ch=3 n=85 v=127
442080 On ch=3 n=97 v=127
442140 On ch=3 n=27 v=0
442140 On ch=3 n=61 v=0
442140 On ch=3 n=73 v=0
442140 On ch=3 n=85 v=0
442140 On ch=3 n=97 v=0
442200 On ch=3 n=26 v=127
442200 On ch=3 n=85 v=127
442200 On ch=3 n=97 v=127
442260 On ch=3 n=26 v=0
442260 On ch=3 n=85 v=0
442260 On ch=3 n=97 v=0
442320 On ch=3 n=27 v=127
442320 On ch=3 n=85 v=127
442320 On ch=3 n=97 v=127
442380 On ch=3 n=27 v=0
442380 On ch=3 n=85 v=0
442380 On ch=3 n=97 v=0
442440 On ch=3 n=26 v=127
442440 On ch=3 n=85 v=127
442440 On ch=3 n=97 v=127
442500 On ch=3 n=26 v=0
442500 On ch=3 n=85 v=0
442500 On ch=3 n=97 v=0
442560 On ch=3 n=24 v=127
442560 On ch=3 n=42 v=127
442560 On ch=3 n=63 v=127
442560 On ch=3 n=72 v=127
442560 On ch=3 n=75 v=127
442560 On ch=3 n=84 v=127
442560 On ch=3 n=87 v=127
442560 On ch=3 n=96 v=127
442560 On ch=3 n=99 v=127
442620 On ch=3 n=24 v=0
442620 On ch=3 n=42 v=0
442620 On ch=3 n=63 v=0
442620 On ch=3 n=72 v=0
442620 On ch=3 n=75 v=0
442620 On ch=3 n=84 v=0
442620 On ch=3 n=87 v=0
442620 On ch=3 n=96 v=0
442620 On ch=3 n=99 v=0
442800 On ch=3 n=106 v=0
442800 On ch=3 n=24 v=127
442800 On ch=3 n=42 v=127
442800 On ch=3 n=72 v=127
442800 On ch=3 n=75 v=127
442800 On ch=3 n=84 v=127
442800 On ch=3 n=87 v=127
442800 On ch=3 n=96 v=127
442800 On ch=3 n=99 v=127
442800 On ch=3 n=63 v=127
442860 On ch=3 n=24 v=0
442860 On ch=3 n=42 v=0
442860 On ch=3 n=72 v=0
442860 On ch=3 n=75 v=0
442860 On ch=3 n=84 v=0
442860 On ch=3 n=87 v=0
442860 On ch=3 n=96 v=0
442860 On ch=3 n=99 v=0
442860 On ch=3 n=63 v=0
442920 On ch=3 n=25 v=127
443034 On ch=3 n=25 v=0
443040 On ch=3 n=26 v=127
443040 On ch=3 n=42 v=127
443040 On ch=3 n=61 v=127
443040 On ch=3 n=63 v=127
443040 On ch=3 n=73 v=127
443040 On ch=3 n=75 v=127
443040 On ch=3 n=85 v=127
443040 On ch=3 n=87 v=127
443040 On ch=3 n=97 v=127
443040 On ch=3 n=99 v=127
443100 On ch=3 n=26 v=0
443100 On ch=3 n=42 v=0
443100 On ch=3 n=61 v=0
443100 On ch=3 n=63 v=0
443100 On ch=3 n=73 v=0
443100 On ch=3 n=75 v=0
443100 On ch=3 n=85 v=0
443100 On ch=3 n=87 v=0
443100 On ch=3 n=97 v=0
443100 On ch=3 n=99 v=0
443280 On ch=3 n=42 v=127
443280 On ch=3 n=75 v=127
443280 On ch=3 n=87 v=127
443280 On ch=3 n=99 v=127
443280 On ch=3 n=63 v=127
443340 On ch=3 n=42 v=0
443340 On ch=3 n=75 v=0
443340 On ch=3 n=87 v=0
443340 On ch=3 n=99 v=0
443340 On ch=3 n=63 v=0
443400 On ch=3 n=25 v=127
443400 On ch=3 n=26 v=127
443400 On ch=3 n=97 v=127
443460 On ch=3 n=26 v=0
443460 On ch=3 n=97 v=0
443514 On ch=3 n=25 v=0
443520 On ch=3 n=24 v=127
443520 On ch=3 n=42 v=127
443520 On ch=3 n=63 v=127
443520 On ch=3 n=72 v=127
443520 On ch=3 n=75 v=127
443520 On ch=3 n=84 v=127
443520 On ch=3 n=87 v=127
443520 On ch=3 n=96 v=127
443520 On ch=3 n=99 v=127
443580 On ch=3 n=24 v=0
443580 On ch=3 n=42 v=0
443580 On ch=3 n=63 v=0
443580 On ch=3 n=72 v=0
443580 On ch=3 n=75 v=0
443580 On ch=3 n=84 v=0
443580 On ch=3 n=87 v=0
443580 On ch=3 n=96 v=0
443580 On ch=3 n=99 v=0
443760 On ch=3 n=24 v=127
443760 On ch=3 n=42 v=127
443760 On ch=3 n=72 v=127
443760 On ch=3 n=75 v=127
443760 On ch=3 n=84 v=127
443760 On ch=3 n=87 v=127
443760 On ch=3 n=96 v=127
443760 On ch=3 n=99 v=127
443760 On ch=3 n=63 v=127
443820 On ch=3 n=24 v=0
443820 On ch=3 n=42 v=0
443820 On ch=3 n=72 v=0
443820 On ch=3 n=75 v=0
443820 On ch=3 n=84 v=0
443820 On ch=3 n=87 v=0
443820 On ch=3 n=96 v=0
443820 On ch=3 n=99 v=0
443820 On ch=3 n=63 v=0
443880 On ch=3 n=25 v=127
443994 On ch=3 n=25 v=0
444000 On ch=3 n=26 v=127
444000 On ch=3 n=42 v=127
444000 On ch=3 n=61 v=127
444000 On ch=3 n=73 v=127
444000 On ch=3 n=85 v=127
444000 On ch=3 n=87 v=127
444000 On ch=3 n=97 v=127
444000 On ch=3 n=99 v=127
444060 On ch=3 n=26 v=0
444060 On ch=3 n=42 v=0
444060 On ch=3 n=61 v=0
444060 On ch=3 n=73 v=0
444060 On ch=3 n=85 v=0
444060 On ch=3 n=87 v=0
444060 On ch=3 n=97 v=0
444060 On ch=3 n=99 v=0
444120 On ch=3 n=24 v=127
444120 On ch=3 n=38 v=127
444120 On ch=3 n=76 v=127
444120 On ch=3 n=84 v=127
444120 On ch=3 n=88 v=127
444120 On ch=3 n=96 v=127
444120 On ch=3 n=100 v=127
444180 On ch=3 n=24 v=0
444180 On ch=3 n=38 v=0
444180 On ch=3 n=76 v=0
444180 On ch=3 n=84 v=0
444180 On ch=3 n=88 v=0
444180 On ch=3 n=96 v=0
444180 On ch=3 n=100 v=0
444360 On ch=3 n=25 v=127
444474 On ch=3 n=25 v=0
444480 On ch=3 n=24 v=127
444480 On ch=3 n=36 v=127
444480 On ch=3 n=64 v=127
444480 On ch=3 n=72 v=127
444480 On ch=3 n=84 v=127
444480 On ch=3 n=96 v=127
444480 On ch=3 n=100 v=127
444480 On ch=3 n=88 v=100
444480 On ch=3 n=76 v=100
444480 On ch=3 n=106 v=100
444480 On ch=3 n=60 v=100
444540 On ch=3 n=24 v=0
444540 On ch=3 n=36 v=0
444540 On ch=3 n=64 v=0
444540 On ch=3 n=72 v=0
444540 On ch=3 n=84 v=0
444540 On ch=3 n=96 v=0
444540 On ch=3 n=100 v=0
444540 On ch=3 n=88 v=0
444540 On ch=3 n=76 v=0
444540 On ch=3 n=60 v=0
444720 On ch=3 n=24 v=127
444720 On ch=3 n=36 v=127
444720 On ch=3 n=72 v=127
444720 On ch=3 n=84 v=127
444720 On ch=3 n=96 v=127
444720 On ch=3 n=100 v=127
444720 On ch=3 n=88 v=100
444720 On ch=3 n=76 v=100
444780 On ch=3 n=24 v=0
444780 On ch=3 n=36 v=0
444780 On ch=3 n=72 v=0
444780 On ch=3 n=84 v=0
444780 On ch=3 n=96 v=0
444780 On ch=3 n=100 v=0
444780 On ch=3 n=88 v=0
444780 On ch=3 n=76 v=0
444960 On ch=3 n=27 v=127
444960 On ch=3 n=61 v=127
444960 On ch=3 n=73 v=127
444960 On ch=3 n=85 v=127
444960 On ch=3 n=97 v=127
444960 Meta Text "[intense]"
445020 On ch=3 n=27 v=0
445020 On ch=3 n=61 v=0
445020 On ch=3 n=73 v=0
445020 On ch=3 n=85 v=0
445020 On ch=3 n=97 v=0
445080 On ch=3 n=26 v=127
445080 On ch=3 n=85 v=127
445080 On ch=3 n=97 v=127
445140 On ch=3 n=26 v=0
445140 On ch=3 n=85 v=0
445140 On ch=3 n=97 v=0
445200 On ch=3 n=27 v=127
445200 On ch=3 n=85 v=127
445200 On ch=3 n=97 v=127
445260 On ch=3 n=27 v=0
445260 On ch=3 n=85 v=0
445260 On ch=3 n=97 v=0
445320 On ch=3 n=26 v=127
445320 On ch=3 n=85 v=127
445320 On ch=3 n=97 v=127
445380 On ch=3 n=26 v=0
445380 On ch=3 n=85 v=0
445380 On ch=3 n=97 v=0
445440 On ch=3 n=24 v=127
445440 On ch=3 n=36 v=127
445440 On ch=3 n=64 v=127
445440 On ch=3 n=72 v=127
445440 On ch=3 n=84 v=127
445440 On ch=3 n=96 v=127
445440 On ch=3 n=100 v=127
445440 On ch=3 n=88 v=100
445440 On ch=3 n=76 v=100
445440 On ch=3 n=60 v=100
445500 On ch=3 n=24 v=0
445500 On ch=3 n=36 v=0
445500 On ch=3 n=64 v=0
445500 On ch=3 n=72 v=0
445500 On ch=3 n=84 v=0
445500 On ch=3 n=96 v=0
445500 On ch=3 n=100 v=0
445500 On ch=3 n=88 v=0
445500 On ch=3 n=76 v=0
445500 On ch=3 n=60 v=0
445680 On ch=3 n=24 v=127
445680 On ch=3 n=36 v=127
445680 On ch=3 n=72 v=127
445680 On ch=3 n=84 v=127
445680 On ch=3 n=96 v=127
445680 On ch=3 n=100 v=127
445680 On ch=3 n=88 v=100
445680 On ch=3 n=76 v=100
445740 On ch=3 n=24 v=0
445740 On ch=3 n=36 v=0
445740 On ch=3 n=72 v=0
445740 On ch=3 n=84 v=0
445740 On ch=3 n=96 v=0
445740 On ch=3 n=100 v=0
445740 On ch=3 n=88 v=0
445740 On ch=3 n=76 v=0
445920 On ch=3 n=27 v=127
445920 On ch=3 n=61 v=127
445920 On ch=3 n=73 v=127
445920 On ch=3 n=85 v=127
445920 On ch=3 n=97 v=127
445980 On ch=3 n=27 v=0
445980 On ch=3 n=61 v=0
445980 On ch=3 n=73 v=0
445980 On ch=3 n=85 v=0
445980 On ch=3 n=97 v=0
446040 On ch=3 n=26 v=127
446040 On ch=3 n=85 v=127
446040 On ch=3 n=97 v=127
446100 On ch=3 n=26 v=0
446100 On ch=3 n=85 v=0
446100 On ch=3 n=97 v=0
446160 On ch=3 n=27 v=127
446160 On ch=3 n=85 v=127
446160 On ch=3 n=97 v=127
446220 On ch=3 n=27 v=0
446220 On ch=3 n=85 v=0
446220 On ch=3 n=97 v=0
446280 On ch=3 n=26 v=127
446280 On ch=3 n=85 v=127
446280 On ch=3 n=97 v=127
446340 On ch=3 n=26 v=0
446340 On ch=3 n=85 v=0
446340 On ch=3 n=97 v=0
446400 On ch=3 n=24 v=127
446400 On ch=3 n=42 v=127
446400 On ch=3 n=63 v=127
446400 On ch=3 n=72 v=127
446400 On ch=3 n=75 v=127
446400 On ch=3 n=84 v=127
446400 On ch=3 n=87 v=127
446400 On ch=3 n=96 v=127
446400 On ch=3 n=99 v=127
446460 On ch=3 n=24 v=0
446460 On ch=3 n=42 v=0
446460 On ch=3 n=63 v=0
446460 On ch=3 n=72 v=0
446460 On ch=3 n=75 v=0
446460 On ch=3 n=84 v=0
446460 On ch=3 n=87 v=0
446460 On ch=3 n=96 v=0
446460 On ch=3 n=99 v=0
446640 On ch=3 n=105 v=0
446640 On ch=3 n=24 v=127
446640 On ch=3 n=42 v=127
446640 On ch=3 n=72 v=127
446640 On ch=3 n=75 v=127
446640 On ch=3 n=84 v=127
446640 On ch=3 n=87 v=127
446640 On ch=3 n=96 v=127
446640 On ch=3 n=99 v=127
446640 On ch=3 n=63 v=127
446700 On ch=3 n=24 v=0
446700 On ch=3 n=42 v=0
446700 On ch=3 n=72 v=0
446700 On ch=3 n=75 v=0
446700 On ch=3 n=84 v=0
446700 On ch=3 n=87 v=0
446700 On ch=3 n=96 v=0
446700 On ch=3 n=99 v=0
446700 On ch=3 n=63 v=0
446760 On ch=3 n=25 v=127
446874 On ch=3 n=25 v=0
446880 On ch=3 n=26 v=127
446880 On ch=3 n=42 v=127
446880 On ch=3 n=61 v=127
446880 On ch=3 n=63 v=127
446880 On ch=3 n=73 v=127
446880 On ch=3 n=75 v=127
446880 On ch=3 n=85 v=127
446880 On ch=3 n=87 v=127
446880 On ch=3 n=97 v=127
446880 On ch=3 n=99 v=127
446940 On ch=3 n=26 v=0
446940 On ch=3 n=42 v=0
446940 On ch=3 n=61 v=0
446940 On ch=3 n=63 v=0
446940 On ch=3 n=73 v=0
446940 On ch=3 n=75 v=0
446940 On ch=3 n=85 v=0
446940 On ch=3 n=87 v=0
446940 On ch=3 n=97 v=0
446940 On ch=3 n=99 v=0
447120 On ch=3 n=42 v=127
447120 On ch=3 n=75 v=127
447120 On ch=3 n=87 v=127
447120 On ch=3 n=99 v=127
447120 On ch=3 n=63 v=127
447180 On ch=3 n=42 v=0
447180 On ch=3 n=75 v=0
447180 On ch=3 n=87 v=0
447180 On ch=3 n=99 v=0
447180 On ch=3 n=63 v=0
447240 On ch=3 n=25 v=127
447240 On ch=3 n=26 v=127
447240 On ch=3 n=97 v=127
447300 On ch=3 n=26 v=0
447300 On ch=3 n=97 v=0
447354 On ch=3 n=25 v=0
447360 On ch=3 n=24 v=127
447360 On ch=3 n=42 v=127
447360 On ch=3 n=63 v=127
447360 On ch=3 n=72 v=127
447360 On ch=3 n=75 v=127
447360 On ch=3 n=84 v=127
447360 On ch=3 n=87 v=127
447360 On ch=3 n=96 v=127
447360 On ch=3 n=99 v=127
447420 On ch=3 n=24 v=0
447420 On ch=3 n=42 v=0
447420 On ch=3 n=63 v=0
447420 On ch=3 n=72 v=0
447420 On ch=3 n=75 v=0
447420 On ch=3 n=84 v=0
447420 On ch=3 n=87 v=0
447420 On ch=3 n=96 v=0
447420 On ch=3 n=99 v=0
447600 On ch=3 n=24 v=127
447600 On ch=3 n=42 v=127
447600 On ch=3 n=72 v=127
447600 On ch=3 n=75 v=127
447600 On ch=3 n=84 v=127
447600 On ch=3 n=87 v=127
447600 On ch=3 n=96 v=127
447600 On ch=3 n=99 v=127
447600 On ch=3 n=63 v=127
447660 On ch=3 n=24 v=0
447660 On ch=3 n=42 v=0
447660 On ch=3 n=72 v=0
447660 On ch=3 n=75 v=0
447660 On ch=3 n=84 v=0
447660 On ch=3 n=87 v=0
447660 On ch=3 n=96 v=0
447660 On ch=3 n=99 v=0
447660 On ch=3 n=63 v=0
447720 On ch=3 n=25 v=127
447834 On ch=3 n=25 v=0
447840 On ch=3 n=26 v=127
447840 On ch=3 n=42 v=127
447840 On ch=3 n=61 v=127
447840 On ch=3 n=73 v=127
447840 On ch=3 n=85 v=127
447840 On ch=3 n=97 v=127
447900 On ch=3 n=26 v=0
447900 On ch=3 n=42 v=0
447900 On ch=3 n=61 v=0
447900 On ch=3 n=73 v=0
447900 On ch=3 n=85 v=0
447900 On ch=3 n=97 v=0
447960 On ch=3 n=24 v=127
447960 On ch=3 n=38 v=127
447960 On ch=3 n=76 v=127
447960 On ch=3 n=84 v=127
447960 On ch=3 n=88 v=127
447960 On ch=3 n=96 v=127
447960 On ch=3 n=100 v=127
448020 On ch=3 n=24 v=0
448020 On ch=3 n=38 v=0
448020 On ch=3 n=76 v=0
448020 On ch=3 n=84 v=0
448020 On ch=3 n=88 v=0
448020 On ch=3 n=96 v=0
448020 On ch=3 n=100 v=0
448200 On ch=3 n=25 v=127
448314 On ch=3 n=25 v=0
448320 On ch=3 n=24 v=127
448320 On ch=3 n=38 v=127
448320 On ch=3 n=120 v=127
448320 On ch=3 n=121 v=127
448320 On ch=3 n=122 v=127
448320 On ch=3 n=123 v=127
448320 On ch=3 n=124 v=127
448320 On ch=3 n=64 v=127
448320 On ch=3 n=72 v=127
448320 On ch=3 n=84 v=127
448320 On ch=3 n=96 v=127
448320 On ch=3 n=100 v=127
448320 On ch=3 n=88 v=100
448320 On ch=3 n=76 v=100
448320 On ch=3 n=105 v=100
448320 On ch=3 n=60 v=100
448380 On ch=3 n=24 v=0
448380 On ch=3 n=38 v=0
448380 On ch=3 n=64 v=0
448380 On ch=3 n=72 v=0
448380 On ch=3 n=84 v=0
448380 On ch=3 n=96 v=0
448380 On ch=3 n=100 v=0
448380 On ch=3 n=88 v=0
448380 On ch=3 n=76 v=0
448380 On ch=3 n=60 v=0
448560 On ch=3 n=24 v=127
448560 On ch=3 n=36 v=127
448560 On ch=3 n=72 v=127
448560 On ch=3 n=84 v=127
448560 On ch=3 n=96 v=127
448560 On ch=3 n=100 v=127
448560 On ch=3 n=88 v=100
448560 On ch=3 n=76 v=100
448620 On ch=3 n=24 v=0
448620 On ch=3 n=36 v=0
448620 On ch=3 n=72 v=0
448620 On ch=3 n=84 v=0
448620 On ch=3 n=96 v=0
448620 On ch=3 n=100 v=0
448620 On ch=3 n=88 v=0
448620 On ch=3 n=76 v=0
448800 On ch=3 n=27 v=127
448800 On ch=3 n=61 v=127
448800 On ch=3 n=73 v=127
448800 On ch=3 n=85 v=127
448800 On ch=3 n=97 v=127
448860 On ch=3 n=27 v=0
448860 On ch=3 n=61 v=0
448860 On ch=3 n=73 v=0
448860 On ch=3 n=85 v=0
448860 On ch=3 n=97 v=0
448920 On ch=3 n=26 v=127
448920 On ch=3 n=85 v=127
448920 On ch=3 n=97 v=127
448980 On ch=3 n=26 v=0
448980 On ch=3 n=85 v=0
448980 On ch=3 n=97 v=0
449040 On ch=3 n=27 v=127
449040 On ch=3 n=85 v=127
449040 On ch=3 n=97 v=127
449100 On ch=3 n=27 v=0
449100 On ch=3 n=85 v=0
449100 On ch=3 n=97 v=0
449160 On ch=3 n=26 v=127
449160 On ch=3 n=85 v=127
449160 On ch=3 n=97 v=127
449220 On ch=3 n=26 v=0
449220 On ch=3 n=85 v=0
449220 On ch=3 n=97 v=0
449280 On ch=3 n=24 v=127
449280 On ch=3 n=36 v=127
449280 On ch=3 n=64 v=127
449280 On ch=3 n=72 v=127
449280 On ch=3 n=84 v=127
449280 On ch=3 n=96 v=127
449280 On ch=3 n=100 v=127
449280 On ch=3 n=88 v=100
449280 On ch=3 n=76 v=100
449280 On ch=3 n=60 v=100
449340 On ch=3 n=24 v=0
449340 On ch=3 n=36 v=0
449340 On ch=3 n=64 v=0
449340 On ch=3 n=72 v=0
449340 On ch=3 n=84 v=0
449340 On ch=3 n=96 v=0
449340 On ch=3 n=100 v=0
449340 On ch=3 n=88 v=0
449340 On ch=3 n=76 v=0
449340 On ch=3 n=60 v=0
449520 On ch=3 n=24 v=127
449520 On ch=3 n=38 v=127
449520 On ch=3 n=72 v=127
449520 On ch=3 n=84 v=127
449520 On ch=3 n=96 v=127
449520 On ch=3 n=100 v=127
449520 On ch=3 n=88 v=100
449520 On ch=3 n=76 v=100
449580 On ch=3 n=24 v=0
449580 On ch=3 n=38 v=0
449580 On ch=3 n=72 v=0
449580 On ch=3 n=84 v=0
449580 On ch=3 n=96 v=0
449580 On ch=3 n=100 v=0
449580 On ch=3 n=88 v=0
449580 On ch=3 n=76 v=0
449760 On ch=3 n=27 v=127
449760 On ch=3 n=73 v=127
449760 On ch=3 n=85 v=127
449760 On ch=3 n=97 v=127
449760 On ch=3 n=61 v=127
449820 On ch=3 n=27 v=0
449820 On ch=3 n=73 v=0
449820 On ch=3 n=85 v=0
449820 On ch=3 n=97 v=0
449820 On ch=3 n=61 v=0
449880 On ch=3 n=26 v=127
449880 On ch=3 n=85 v=127
449880 On ch=3 n=97 v=127
449940 On ch=3 n=26 v=0
449940 On ch=3 n=85 v=0
449940 On ch=3 n=97 v=0
450000 On ch=3 n=27 v=127
450000 On ch=3 n=85 v=127
450000 On ch=3 n=97 v=127
450060 On ch=3 n=27 v=0
450060 On ch=3 n=85 v=0
450060 On ch=3 n=97 v=0
450120 On ch=3 n=26 v=127
450120 On ch=3 n=85 v=127
450120 On ch=3 n=97 v=127
450180 On ch=3 n=26 v=0
450180 On ch=3 n=85 v=0
450180 On ch=3 n=97 v=0
450236 On ch=3 n=120 v=0
450236 On ch=3 n=121 v=0
450236 On ch=3 n=122 v=0
450236 On ch=3 n=123 v=0
450236 On ch=3 n=124 v=0
450240 On ch=3 n=24 v=127
450240 On ch=3 n=42 v=127
450240 On ch=3 n=63 v=127
450240 On ch=3 n=72 v=127
450240 On ch=3 n=75 v=127
450240 On ch=3 n=84 v=127
450240 On ch=3 n=87 v=127
450240 On ch=3 n=96 v=127
450240 On ch=3 n=99 v=127
450300 On ch=3 n=24 v=0
450300 On ch=3 n=42 v=0
450300 On ch=3 n=63 v=0
450300 On ch=3 n=72 v=0
450300 On ch=3 n=75 v=0
450300 On ch=3 n=84 v=0
450300 On ch=3 n=87 v=0
450300 On ch=3 n=96 v=0
450300 On ch=3 n=99 v=0
450480 On ch=3 n=106 v=0
450480 On ch=3 n=24 v=127
450480 On ch=3 n=42 v=127
450480 On ch=3 n=72 v=127
450480 On ch=3 n=75 v=127
450480 On ch=3 n=84 v=127
450480 On ch=3 n=87 v=127
450480 On ch=3 n=96 v=127
450480 On ch=3 n=99 v=127
450480 On ch=3 n=63 v=100
450540 On ch=3 n=24 v=0
450540 On ch=3 n=42 v=0
450540 On ch=3 n=72 v=0
450540 On ch=3 n=75 v=0
450540 On ch=3 n=84 v=0
450540 On ch=3 n=87 v=0
450540 On ch=3 n=96 v=0
450540 On ch=3 n=99 v=0
450540 On ch=3 n=63 v=0
450600 On ch=3 n=25 v=127
450714 On ch=3 n=25 v=0
450720 On ch=3 n=26 v=127
450720 On ch=3 n=42 v=127
450720 On ch=3 n=61 v=127
450720 On ch=3 n=63 v=127
450720 On ch=3 n=73 v=127
450720 On ch=3 n=75 v=127
450720 On ch=3 n=85 v=127
450720 On ch=3 n=87 v=127
450720 On ch=3 n=97 v=127
450720 On ch=3 n=99 v=127
450780 On ch=3 n=26 v=0
450780 On ch=3 n=42 v=0
450780 On ch=3 n=61 v=0
450780 On ch=3 n=63 v=0
450780 On ch=3 n=73 v=0
450780 On ch=3 n=75 v=0
450780 On ch=3 n=85 v=0
450780 On ch=3 n=87 v=0
450780 On ch=3 n=97 v=0
450780 On ch=3 n=99 v=0
450960 On ch=3 n=42 v=127
450960 On ch=3 n=75 v=127
450960 On ch=3 n=87 v=127
450960 On ch=3 n=99 v=127
450960 On ch=3 n=63 v=100
451020 On ch=3 n=42 v=0
451020 On ch=3 n=75 v=0
451020 On ch=3 n=87 v=0
451020 On ch=3 n=99 v=0
451020 On ch=3 n=63 v=0
451080 On ch=3 n=25 v=127
451080 On ch=3 n=26 v=127
451080 On ch=3 n=97 v=127
451140 On ch=3 n=26 v=0
451140 On ch=3 n=97 v=0
451194 On ch=3 n=25 v=0
451200 On ch=3 n=24 v=127
451200 On ch=3 n=42 v=127
451200 On ch=3 n=63 v=127
451200 On ch=3 n=72 v=127
451200 On ch=3 n=75 v=127
451200 On ch=3 n=84 v=127
451200 On ch=3 n=87 v=127
451200 On ch=3 n=96 v=127
451200 On ch=3 n=99 v=127
451260 On ch=3 n=24 v=0
451260 On ch=3 n=42 v=0
451260 On ch=3 n=63 v=0
451260 On ch=3 n=72 v=0
451260 On ch=3 n=75 v=0
451260 On ch=3 n=84 v=0
451260 On ch=3 n=87 v=0
451260 On ch=3 n=96 v=0
451260 On ch=3 n=99 v=0
451440 On ch=3 n=24 v=127
451440 On ch=3 n=42 v=127
451440 On ch=3 n=72 v=127
451440 On ch=3 n=75 v=127
451440 On ch=3 n=84 v=127
451440 On ch=3 n=87 v=127
451440 On ch=3 n=96 v=127
451440 On ch=3 n=99 v=127
451440 On ch=3 n=63 v=100
451500 On ch=3 n=24 v=0
451500 On ch=3 n=42 v=0
451500 On ch=3 n=72 v=0
451500 On ch=3 n=75 v=0
451500 On ch=3 n=84 v=0
451500 On ch=3 n=87 v=0
451500 On ch=3 n=96 v=0
451500 On ch=3 n=99 v=0
451500 On ch=3 n=63 v=0
451560 On ch=3 n=25 v=127
451674 On ch=3 n=25 v=0
451680 On ch=3 n=26 v=127
451680 On ch=3 n=42 v=127
451680 On ch=3 n=61 v=127
451680 On ch=3 n=73 v=127
451680 On ch=3 n=85 v=127
451680 On ch=3 n=97 v=127
451740 On ch=3 n=26 v=0
451740 On ch=3 n=42 v=0
451740 On ch=3 n=61 v=0
451740 On ch=3 n=73 v=0
451740 On ch=3 n=85 v=0
451740 On ch=3 n=97 v=0
451800 On ch=3 n=24 v=127
451800 On ch=3 n=38 v=127
451800 On ch=3 n=76 v=127
451800 On ch=3 n=84 v=127
451800 On ch=3 n=88 v=127
451800 On ch=3 n=96 v=127
451800 On ch=3 n=100 v=127
451860 On ch=3 n=24 v=0
451860 On ch=3 n=38 v=0
451860 On ch=3 n=76 v=0
451860 On ch=3 n=84 v=0
451860 On ch=3 n=88 v=0
451860 On ch=3 n=96 v=0
451860 On ch=3 n=100 v=0
452040 On ch=3 n=25 v=127
452154 On ch=3 n=25 v=0
452160 On ch=3 n=105 v=0
452160 On ch=3 n=24 v=127
452160 On ch=3 n=34 v=127
452160 On ch=3 n=96 v=127
452160 On ch=3 n=100 v=127
452160 On ch=3 n=64 v=127
452160 On ch=3 n=72 v=127
452160 On ch=3 n=84 v=127
452160 On ch=3 n=88 v=100
452160 On ch=3 n=76 v=100
452160 On ch=3 n=106 v=100
452160 On ch=3 n=60 v=100
452220 On ch=3 n=24 v=0
452220 On ch=3 n=34 v=0
452220 On ch=3 n=96 v=0
452220 On ch=3 n=100 v=0
452220 On ch=3 n=64 v=0
452220 On ch=3 n=72 v=0
452220 On ch=3 n=84 v=0
452220 On ch=3 n=88 v=0
452220 On ch=3 n=76 v=0
452220 On ch=3 n=60 v=0
452400 On ch=3 n=24 v=127
452400 On ch=3 n=38 v=127
452400 On ch=3 n=96 v=127
452400 On ch=3 n=100 v=127
452400 On ch=3 n=72 v=127
452400 On ch=3 n=84 v=127
452400 On ch=3 n=88 v=100
452400 On ch=3 n=76 v=100
452460 On ch=3 n=24 v=0
452460 On ch=3 n=38 v=0
452460 On ch=3 n=96 v=0
452460 On ch=3 n=100 v=0
452460 On ch=3 n=72 v=0
452460 On ch=3 n=84 v=0
452460 On ch=3 n=88 v=0
452460 On ch=3 n=76 v=0
452640 On ch=3 n=24 v=127
452640 On ch=3 n=27 v=127
452640 On ch=3 n=96 v=127
452640 On ch=3 n=97 v=127
452640 On ch=3 n=61 v=127
452640 On ch=3 n=73 v=127
452640 On ch=3 n=85 v=127
452700 On ch=3 n=24 v=0
452700 On ch=3 n=27 v=0
452700 On ch=3 n=96 v=0
452700 On ch=3 n=97 v=0
452700 On ch=3 n=61 v=0
452700 On ch=3 n=73 v=0
452700 On ch=3 n=85 v=0
452760 On ch=3 n=26 v=127
452760 On ch=3 n=97 v=127
452760 On ch=3 n=85 v=127
452820 On ch=3 n=26 v=0
452820 On ch=3 n=97 v=0
452820 On ch=3 n=85 v=0
452880 On ch=3 n=24 v=127
452880 On ch=3 n=27 v=127
452880 On ch=3 n=96 v=127
452880 On ch=3 n=97 v=127
452880 On ch=3 n=85 v=127
452940 On ch=3 n=24 v=0
452940 On ch=3 n=27 v=0
452940 On ch=3 n=96 v=0
452940 On ch=3 n=97 v=0
452940 On ch=3 n=85 v=0
453000 On ch=3 n=26 v=127
453000 On ch=3 n=97 v=127
453000 On ch=3 n=85 v=127
453060 On ch=3 n=26 v=0
453060 On ch=3 n=97 v=0
453060 On ch=3 n=85 v=0
453120 On ch=3 n=106 v=0
453120 On ch=3 n=24 v=127
453120 On ch=3 n=38 v=127
453120 On ch=3 n=96 v=127
453120 On ch=3 n=100 v=127
453120 On ch=3 n=64 v=127
453120 On ch=3 n=72 v=127
453120 On ch=3 n=84 v=127
453120 On ch=3 n=88 v=100
453120 On ch=3 n=76 v=100
453120 On ch=3 n=105 v=100
453120 On ch=3 n=60 v=100
453180 On ch=3 n=24 v=0
453180 On ch=3 n=38 v=0
453180 On ch=3 n=96 v=0
453180 On ch=3 n=100 v=0
453180 On ch=3 n=64 v=0
453180 On ch=3 n=72 v=0
453180 On ch=3 n=84 v=0
453180 On ch=3 n=88 v=0
453180 On ch=3 n=76 v=0
453180 On ch=3 n=60 v=0
453360 On ch=3 n=24 v=127
453360 On ch=3 n=34 v=127
453360 On ch=3 n=96 v=127
453360 On ch=3 n=100 v=127
453360 On ch=3 n=72 v=127
453360 On ch=3 n=84 v=127
453360 On ch=3 n=88 v=100
453360 On ch=3 n=76 v=100
453420 On ch=3 n=24 v=0
453420 On ch=3 n=34 v=0
453420 On ch=3 n=96 v=0
453420 On ch=3 n=100 v=0
453420 On ch=3 n=72 v=0
453420 On ch=3 n=84 v=0
453420 On ch=3 n=88 v=0
453420 On ch=3 n=76 v=0
453600 On ch=3 n=24 v=127
453600 On ch=3 n=27 v=127
453600 On ch=3 n=96 v=127
453600 On ch=3 n=97 v=127
453600 On ch=3 n=61 v=127
453600 On ch=3 n=73 v=127
453600 On ch=3 n=85 v=127
453660 On ch=3 n=24 v=0
453660 On ch=3 n=27 v=0
453660 On ch=3 n=96 v=0
453660 On ch=3 n=97 v=0
453660 On ch=3 n=61 v=0
453660 On ch=3 n=73 v=0
453660 On ch=3 n=85 v=0
453720 On ch=3 n=26 v=127
453720 On ch=3 n=97 v=127
453720 On ch=3 n=85 v=127
453780 On ch=3 n=26 v=0
453780 On ch=3 n=97 v=0
453780 On ch=3 n=85 v=0
453840 On ch=3 n=24 v=127
453840 On ch=3 n=27 v=127
453840 On ch=3 n=96 v=127
453840 On ch=3 n=97 v=127
453840 On ch=3 n=85 v=127
453900 On ch=3 n=24 v=0
453900 On ch=3 n=27 v=0
453900 On ch=3 n=96 v=0
453900 On ch=3 n=97 v=0
453900 On ch=3 n=85 v=0
453960 On ch=3 n=26 v=127
453960 On ch=3 n=97 v=127
453960 On ch=3 n=85 v=127
454020 On ch=3 n=26 v=0
454020 On ch=3 n=97 v=0
454020 On ch=3 n=85 v=0
454080 On ch=3 n=24 v=127
454080 On ch=3 n=42 v=127
454080 On ch=3 n=63 v=127
454080 On ch=3 n=72 v=127
454080 On ch=3 n=75 v=127
454080 On ch=3 n=84 v=127
454080 On ch=3 n=87 v=127
454080 On ch=3 n=96 v=127
454080 On ch=3 n=99 v=127
454080 On ch=3 n=106 v=100
454140 On ch=3 n=24 v=0
454140 On ch=3 n=42 v=0
454140 On ch=3 n=63 v=0
454140 On ch=3 n=72 v=0
454140 On ch=3 n=75 v=0
454140 On ch=3 n=84 v=0
454140 On ch=3 n=87 v=0
454140 On ch=3 n=96 v=0
454140 On ch=3 n=99 v=0
454320 On ch=3 n=24 v=127
454320 On ch=3 n=42 v=127
454320 On ch=3 n=72 v=127
454320 On ch=3 n=75 v=127
454320 On ch=3 n=84 v=127
454320 On ch=3 n=87 v=127
454320 On ch=3 n=96 v=127
454320 On ch=3 n=99 v=127
454320 On ch=3 n=63 v=100
454380 On ch=3 n=24 v=0
454380 On ch=3 n=42 v=0
454380 On ch=3 n=72 v=0
454380 On ch=3 n=75 v=0
454380 On ch=3 n=84 v=0
454380 On ch=3 n=87 v=0
454380 On ch=3 n=96 v=0
454380 On ch=3 n=99 v=0
454380 On ch=3 n=63 v=0
454440 On ch=3 n=25 v=127
454554 On ch=3 n=25 v=0
454560 On ch=3 n=26 v=127
454560 On ch=3 n=42 v=127
454560 On ch=3 n=61 v=127
454560 On ch=3 n=63 v=127
454560 On ch=3 n=73 v=127
454560 On ch=3 n=75 v=127
454560 On ch=3 n=85 v=127
454560 On ch=3 n=87 v=127
454560 On ch=3 n=97 v=127
454560 On ch=3 n=99 v=127
454620 On ch=3 n=26 v=0
454620 On ch=3 n=42 v=0
454620 On ch=3 n=61 v=0
454620 On ch=3 n=63 v=0
454620 On ch=3 n=73 v=0
454620 On ch=3 n=75 v=0
454620 On ch=3 n=85 v=0
454620 On ch=3 n=87 v=0
454620 On ch=3 n=97 v=0
454620 On ch=3 n=99 v=0
454800 On ch=3 n=42 v=127
454800 On ch=3 n=63 v=127
454800 On ch=3 n=75 v=127
454800 On ch=3 n=87 v=127
454800 On ch=3 n=99 v=127
454860 On ch=3 n=42 v=0
454860 On ch=3 n=63 v=0
454860 On ch=3 n=75 v=0
454860 On ch=3 n=87 v=0
454860 On ch=3 n=99 v=0
454920 On ch=3 n=25 v=127
454920 On ch=3 n=26 v=127
454920 On ch=3 n=97 v=127
454980 On ch=3 n=26 v=0
454980 On ch=3 n=97 v=0
455034 On ch=3 n=25 v=0
455040 On ch=3 n=24 v=127
455040 On ch=3 n=42 v=127
455040 On ch=3 n=63 v=127
455040 On ch=3 n=72 v=127
455040 On ch=3 n=75 v=127
455040 On ch=3 n=84 v=127
455040 On ch=3 n=87 v=127
455040 On ch=3 n=96 v=127
455040 On ch=3 n=99 v=127
455100 On ch=3 n=24 v=0
455100 On ch=3 n=42 v=0
455100 On ch=3 n=63 v=0
455100 On ch=3 n=72 v=0
455100 On ch=3 n=75 v=0
455100 On ch=3 n=84 v=0
455100 On ch=3 n=87 v=0
455100 On ch=3 n=96 v=0
455100 On ch=3 n=99 v=0
455280 On ch=3 n=24 v=127
455280 On ch=3 n=42 v=127
455280 On ch=3 n=72 v=127
455280 On ch=3 n=75 v=127
455280 On ch=3 n=84 v=127
455280 On ch=3 n=87 v=127
455280 On ch=3 n=96 v=127
455280 On ch=3 n=99 v=127
455280 On ch=3 n=63 v=100
455340 On ch=3 n=24 v=0
455340 On ch=3 n=42 v=0
455340 On ch=3 n=72 v=0
455340 On ch=3 n=75 v=0
455340 On ch=3 n=84 v=0
455340 On ch=3 n=87 v=0
455340 On ch=3 n=96 v=0
455340 On ch=3 n=99 v=0
455340 On ch=3 n=63 v=0
455400 On ch=3 n=25 v=127
455514 On ch=3 n=25 v=0
455520 On ch=3 n=26 v=127
455520 On ch=3 n=42 v=127
455520 On ch=3 n=61 v=127
455520 On ch=3 n=73 v=127
455520 On ch=3 n=85 v=127
455520 On ch=3 n=97 v=127
455580 On ch=3 n=26 v=0
455580 On ch=3 n=42 v=0
455580 On ch=3 n=61 v=0
455580 On ch=3 n=73 v=0
455580 On ch=3 n=85 v=0
455580 On ch=3 n=97 v=0
455640 On ch=3 n=24 v=127
455640 On ch=3 n=38 v=127
455640 On ch=3 n=76 v=127
455640 On ch=3 n=84 v=127
455640 On ch=3 n=88 v=127
455640 On ch=3 n=96 v=127
455640 On ch=3 n=100 v=127
455700 On ch=3 n=24 v=0
455700 On ch=3 n=38 v=0
455700 On ch=3 n=76 v=0
455700 On ch=3 n=84 v=0
455700 On ch=3 n=88 v=0
455700 On ch=3 n=96 v=0
455700 On ch=3 n=100 v=0
455880 On ch=3 n=25 v=127
455994 On ch=3 n=25 v=0
456000 On ch=3 n=106 v=0
456000 On ch=3 n=24 v=127
456000 On ch=3 n=36 v=127
456000 On ch=3 n=96 v=127
456000 On ch=3 n=100 v=127
456000 On ch=3 n=64 v=127
456000 On ch=3 n=72 v=127
456000 On ch=3 n=84 v=127
456000 On ch=3 n=88 v=100
456000 On ch=3 n=76 v=100
456000 On ch=3 n=60 v=100
456060 On ch=3 n=24 v=0
456060 On ch=3 n=36 v=0
456060 On ch=3 n=96 v=0
456060 On ch=3 n=100 v=0
456060 On ch=3 n=64 v=0
456060 On ch=3 n=72 v=0
456060 On ch=3 n=84 v=0
456060 On ch=3 n=88 v=0
456060 On ch=3 n=76 v=0
456060 On ch=3 n=60 v=0
456240 On ch=3 n=24 v=127
456240 On ch=3 n=34 v=127
456240 On ch=3 n=96 v=127
456240 On ch=3 n=100 v=127
456240 On ch=3 n=72 v=127
456240 On ch=3 n=84 v=127
456240 On ch=3 n=88 v=100
456240 On ch=3 n=76 v=100
456300 On ch=3 n=24 v=0
456300 On ch=3 n=34 v=0
456300 On ch=3 n=96 v=0
456300 On ch=3 n=100 v=0
456300 On ch=3 n=72 v=0
456300 On ch=3 n=84 v=0
456300 On ch=3 n=88 v=0
456300 On ch=3 n=76 v=0
456480 On ch=3 n=24 v=127
456480 On ch=3 n=27 v=127
456480 On ch=3 n=96 v=127
456480 On ch=3 n=97 v=127
456480 On ch=3 n=61 v=127
456480 On ch=3 n=73 v=127
456480 On ch=3 n=85 v=127
456540 On ch=3 n=24 v=0
456540 On ch=3 n=27 v=0
456540 On ch=3 n=96 v=0
456540 On ch=3 n=97 v=0
456540 On ch=3 n=61 v=0
456540 On ch=3 n=73 v=0
456540 On ch=3 n=85 v=0
456600 On ch=3 n=26 v=127
456600 On ch=3 n=97 v=127
456600 On ch=3 n=85 v=127
456660 On ch=3 n=26 v=0
456660 On ch=3 n=97 v=0
456660 On ch=3 n=85 v=0
456720 On ch=3 n=24 v=127
456720 On ch=3 n=27 v=127
456720 On ch=3 n=96 v=127
456720 On ch=3 n=97 v=127
456720 On ch=3 n=85 v=127
456780 On ch=3 n=24 v=0
456780 On ch=3 n=27 v=0
456780 On ch=3 n=96 v=0
456780 On ch=3 n=97 v=0
456780 On ch=3 n=85 v=0
456840 On ch=3 n=26 v=127
456840 On ch=3 n=97 v=127
456840 On ch=3 n=85 v=127
456900 On ch=3 n=26 v=0
456900 On ch=3 n=97 v=0
456900 On ch=3 n=85 v=0
456960 On ch=3 n=105 v=0
456960 On ch=3 n=24 v=127
456960 On ch=3 n=36 v=127
456960 On ch=3 n=96 v=127
456960 On ch=3 n=100 v=127
456960 On ch=3 n=64 v=127
456960 On ch=3 n=72 v=127
456960 On ch=3 n=84 v=127
456960 On ch=3 n=88 v=100
456960 On ch=3 n=76 v=100
456960 On ch=3 n=106 v=100
456960 On ch=3 n=60 v=100
457020 On ch=3 n=24 v=0
457020 On ch=3 n=36 v=0
457020 On ch=3 n=96 v=0
457020 On ch=3 n=100 v=0
457020 On ch=3 n=64 v=0
457020 On ch=3 n=72 v=0
457020 On ch=3 n=84 v=0
457020 On ch=3 n=88 v=0
457020 On ch=3 n=76 v=0
457020 On ch=3 n=60 v=0
457200 On ch=3 n=24 v=127
457200 On ch=3 n=34 v=127
457200 On ch=3 n=96 v=127
457200 On ch=3 n=100 v=127
457200 On ch=3 n=72 v=127
457200 On ch=3 n=84 v=127
457200 On ch=3 n=88 v=100
457200 On ch=3 n=76 v=100
457260 On ch=3 n=24 v=0
457260 On ch=3 n=34 v=0
457260 On ch=3 n=96 v=0
457260 On ch=3 n=100 v=0
457260 On ch=3 n=72 v=0
457260 On ch=3 n=84 v=0
457260 On ch=3 n=88 v=0
457260 On ch=3 n=76 v=0
457440 On ch=3 n=24 v=127
457440 On ch=3 n=27 v=127
457440 On ch=3 n=96 v=127
457440 On ch=3 n=97 v=127
457440 On ch=3 n=61 v=127
457440 On ch=3 n=73 v=127
457440 On ch=3 n=85 v=127
457500 On ch=3 n=24 v=0
457500 On ch=3 n=27 v=0
457500 On ch=3 n=96 v=0
457500 On ch=3 n=97 v=0
457500 On ch=3 n=61 v=0
457500 On ch=3 n=73 v=0
457500 On ch=3 n=85 v=0
457560 On ch=3 n=26 v=127
457560 On ch=3 n=97 v=127
457560 On ch=3 n=85 v=127
457620 On ch=3 n=26 v=0
457620 On ch=3 n=97 v=0
457620 On ch=3 n=85 v=0
457680 On ch=3 n=24 v=127
457680 On ch=3 n=27 v=127
457680 On ch=3 n=96 v=127
457680 On ch=3 n=97 v=127
457680 On ch=3 n=85 v=127
457740 On ch=3 n=24 v=0
457740 On ch=3 n=27 v=0
457740 On ch=3 n=96 v=0
457740 On ch=3 n=97 v=0
457740 On ch=3 n=85 v=0
457800 On ch=3 n=26 v=127
457800 On ch=3 n=97 v=127
457800 On ch=3 n=85 v=127
457860 On ch=3 n=26 v=0
457860 On ch=3 n=97 v=0
457860 On ch=3 n=85 v=0
457920 On ch=3 n=24 v=127
457920 On ch=3 n=42 v=127
457920 On ch=3 n=63 v=127
457920 On ch=3 n=72 v=127
457920 On ch=3 n=75 v=127
457920 On ch=3 n=84 v=127
457920 On ch=3 n=87 v=127
457920 On ch=3 n=96 v=127
457920 On ch=3 n=99 v=127
457920 On ch=3 n=105 v=100
457980 On ch=3 n=24 v=0
457980 On ch=3 n=42 v=0
457980 On ch=3 n=63 v=0
457980 On ch=3 n=72 v=0
457980 On ch=3 n=75 v=0
457980 On ch=3 n=84 v=0
457980 On ch=3 n=87 v=0
457980 On ch=3 n=96 v=0
457980 On ch=3 n=99 v=0
458160 On ch=3 n=24 v=127
458160 On ch=3 n=42 v=127
458160 On ch=3 n=72 v=127
458160 On ch=3 n=75 v=127
458160 On ch=3 n=84 v=127
458160 On ch=3 n=87 v=127
458160 On ch=3 n=96 v=127
458160 On ch=3 n=99 v=127
458160 On ch=3 n=63 v=100
458220 On ch=3 n=24 v=0
458220 On ch=3 n=42 v=0
458220 On ch=3 n=72 v=0
458220 On ch=3 n=75 v=0
458220 On ch=3 n=84 v=0
458220 On ch=3 n=87 v=0
458220 On ch=3 n=96 v=0
458220 On ch=3 n=99 v=0
458220 On ch=3 n=63 v=0
458280 On ch=3 n=25 v=127
458394 On ch=3 n=25 v=0
458400 On ch=3 n=26 v=127
458400 On ch=3 n=42 v=127
458400 On ch=3 n=61 v=127
458400 On ch=3 n=63 v=127
458400 On ch=3 n=73 v=127
458400 On ch=3 n=75 v=127
458400 On ch=3 n=85 v=127
458400 On ch=3 n=87 v=127
458400 On ch=3 n=97 v=127
458400 On ch=3 n=99 v=127
458460 On ch=3 n=26 v=0
458460 On ch=3 n=42 v=0
458460 On ch=3 n=61 v=0
458460 On ch=3 n=63 v=0
458460 On ch=3 n=73 v=0
458460 On ch=3 n=75 v=0
458460 On ch=3 n=85 v=0
458460 On ch=3 n=87 v=0
458460 On ch=3 n=97 v=0
458460 On ch=3 n=99 v=0
458640 On ch=3 n=42 v=127
458640 On ch=3 n=63 v=127
458640 On ch=3 n=75 v=127
458640 On ch=3 n=87 v=127
458640 On ch=3 n=99 v=127
458700 On ch=3 n=42 v=0
458700 On ch=3 n=63 v=0
458700 On ch=3 n=75 v=0
458700 On ch=3 n=87 v=0
458700 On ch=3 n=99 v=0
458760 On ch=3 n=25 v=127
458760 On ch=3 n=26 v=127
458760 On ch=3 n=97 v=127
458820 On ch=3 n=26 v=0
458820 On ch=3 n=97 v=0
458874 On ch=3 n=25 v=0
458880 On ch=3 n=24 v=127
458880 On ch=3 n=42 v=127
458880 On ch=3 n=63 v=127
458880 On ch=3 n=72 v=127
458880 On ch=3 n=75 v=127
458880 On ch=3 n=84 v=127
458880 On ch=3 n=87 v=127
458880 On ch=3 n=96 v=127
458880 On ch=3 n=99 v=127
458940 On ch=3 n=24 v=0
458940 On ch=3 n=42 v=0
458940 On ch=3 n=63 v=0
458940 On ch=3 n=72 v=0
458940 On ch=3 n=75 v=0
458940 On ch=3 n=84 v=0
458940 On ch=3 n=87 v=0
458940 On ch=3 n=96 v=0
458940 On ch=3 n=99 v=0
459120 On ch=3 n=24 v=127
459120 On ch=3 n=42 v=127
459120 On ch=3 n=72 v=127
459120 On ch=3 n=75 v=127
459120 On ch=3 n=84 v=127
459120 On ch=3 n=87 v=127
459120 On ch=3 n=96 v=127
459120 On ch=3 n=99 v=127
459120 On ch=3 n=63 v=100
459180 On ch=3 n=24 v=0
459180 On ch=3 n=42 v=0
459180 On ch=3 n=72 v=0
459180 On ch=3 n=75 v=0
459180 On ch=3 n=84 v=0
459180 On ch=3 n=87 v=0
459180 On ch=3 n=96 v=0
459180 On ch=3 n=99 v=0
459180 On ch=3 n=63 v=0
459240 On ch=3 n=25 v=127
459354 On ch=3 n=25 v=0
459360 On ch=3 n=26 v=127
459360 On ch=3 n=42 v=127
459360 On ch=3 n=61 v=127
459360 On ch=3 n=73 v=127
459360 On ch=3 n=85 v=127
459360 On ch=3 n=97 v=127
459420 On ch=3 n=26 v=0
459420 On ch=3 n=42 v=0
459420 On ch=3 n=61 v=0
459420 On ch=3 n=73 v=0
459420 On ch=3 n=85 v=0
459420 On ch=3 n=97 v=0
459480 On ch=3 n=24 v=127
459480 On ch=3 n=38 v=127
459480 On ch=3 n=76 v=127
459480 On ch=3 n=84 v=127
459480 On ch=3 n=88 v=127
459480 On ch=3 n=96 v=127
459480 On ch=3 n=100 v=127
459540 On ch=3 n=24 v=0
459540 On ch=3 n=38 v=0
459540 On ch=3 n=76 v=0
459540 On ch=3 n=84 v=0
459540 On ch=3 n=88 v=0
459540 On ch=3 n=96 v=0
459540 On ch=3 n=100 v=0
459720 On ch=3 n=25 v=127
459834 On ch=3 n=25 v=0
459840 On ch=3 n=24 v=127
459840 On ch=3 n=36 v=127
459840 On ch=3 n=120 v=127
459840 On ch=3 n=121 v=127
459840 On ch=3 n=122 v=127
459840 On ch=3 n=123 v=127
459840 On ch=3 n=124 v=127
459840 On ch=3 n=96 v=127
459840 On ch=3 n=100 v=127
459840 On ch=3 n=64 v=127
459840 On ch=3 n=72 v=127
459840 On ch=3 n=84 v=127
459840 On ch=3 n=88 v=100
459840 On ch=3 n=76 v=100
459840 On ch=3 n=60 v=100
459900 On ch=3 n=24 v=0
459900 On ch=3 n=36 v=0
459900 On ch=3 n=96 v=0
459900 On ch=3 n=100 v=0
459900 On ch=3 n=64 v=0
459900 On ch=3 n=72 v=0
459900 On ch=3 n=84 v=0
459900 On ch=3 n=88 v=0
459900 On ch=3 n=76 v=0
459900 On ch=3 n=60 v=0
460080 On ch=3 n=24 v=127
460080 On ch=3 n=34 v=127
460080 On ch=3 n=96 v=127
460080 On ch=3 n=100 v=127
460080 On ch=3 n=72 v=127
460080 On ch=3 n=84 v=127
460080 On ch=3 n=88 v=100
460080 On ch=3 n=76 v=100
460140 On ch=3 n=24 v=0
460140 On ch=3 n=34 v=0
460140 On ch=3 n=96 v=0
460140 On ch=3 n=100 v=0
460140 On ch=3 n=72 v=0
460140 On ch=3 n=84 v=0
460140 On ch=3 n=88 v=0
460140 On ch=3 n=76 v=0
460320 On ch=3 n=24 v=127
460320 On ch=3 n=27 v=127
460320 On ch=3 n=96 v=127
460320 On ch=3 n=97 v=127
460320 On ch=3 n=61 v=127
460320 On ch=3 n=73 v=127
460320 On ch=3 n=85 v=127
460380 On ch=3 n=24 v=0
460380 On ch=3 n=27 v=0
460380 On ch=3 n=96 v=0
460380 On ch=3 n=97 v=0
460380 On ch=3 n=61 v=0
460380 On ch=3 n=73 v=0
460380 On ch=3 n=85 v=0
460440 On ch=3 n=26 v=127
460440 On ch=3 n=97 v=127
460440 On ch=3 n=85 v=127
460500 On ch=3 n=26 v=0
460500 On ch=3 n=97 v=0
460500 On ch=3 n=85 v=0
460560 On ch=3 n=24 v=127
460560 On ch=3 n=27 v=127
460560 On ch=3 n=96 v=127
460560 On ch=3 n=97 v=127
460560 On ch=3 n=85 v=127
460620 On ch=3 n=24 v=0
460620 On ch=3 n=27 v=0
460620 On ch=3 n=96 v=0
460620 On ch=3 n=97 v=0
460620 On ch=3 n=85 v=0
460680 On ch=3 n=26 v=127
460680 On ch=3 n=97 v=127
460680 On ch=3 n=85 v=127
460740 On ch=3 n=26 v=0
460740 On ch=3 n=97 v=0
460740 On ch=3 n=85 v=0
460800 On ch=3 n=24 v=127
460800 On ch=3 n=36 v=127
460800 On ch=3 n=96 v=127
460800 On ch=3 n=100 v=127
460800 On ch=3 n=64 v=127
460800 On ch=3 n=72 v=127
460800 On ch=3 n=84 v=127
460800 On ch=3 n=88 v=100
460800 On ch=3 n=76 v=100
460800 On ch=3 n=60 v=100
460860 On ch=3 n=24 v=0
460860 On ch=3 n=36 v=0
460860 On ch=3 n=96 v=0
460860 On ch=3 n=100 v=0
460860 On ch=3 n=64 v=0
460860 On ch=3 n=72 v=0
460860 On ch=3 n=84 v=0
460860 On ch=3 n=88 v=0
460860 On ch=3 n=76 v=0
460860 On ch=3 n=60 v=0
461040 On ch=3 n=24 v=127
461040 On ch=3 n=34 v=127
461040 On ch=3 n=96 v=127
461040 On ch=3 n=100 v=127
461040 On ch=3 n=72 v=127
461040 On ch=3 n=84 v=127
461040 On ch=3 n=88 v=100
461040 On ch=3 n=76 v=100
461100 On ch=3 n=24 v=0
461100 On ch=3 n=34 v=0
461100 On ch=3 n=96 v=0
461100 On ch=3 n=100 v=0
461100 On ch=3 n=72 v=0
461100 On ch=3 n=84 v=0
461100 On ch=3 n=88 v=0
461100 On ch=3 n=76 v=0
461280 On ch=3 n=24 v=127
461280 On ch=3 n=27 v=127
461280 On ch=3 n=96 v=127
461280 On ch=3 n=97 v=127
461280 On ch=3 n=61 v=127
461280 On ch=3 n=73 v=127
461280 On ch=3 n=85 v=127
461340 On ch=3 n=24 v=0
461340 On ch=3 n=27 v=0
461340 On ch=3 n=96 v=0
461340 On ch=3 n=97 v=0
461340 On ch=3 n=61 v=0
461340 On ch=3 n=73 v=0
461340 On ch=3 n=85 v=0
461400 On ch=3 n=26 v=127
461400 On ch=3 n=97 v=127
461400 On ch=3 n=85 v=127
461460 On ch=3 n=26 v=0
461460 On ch=3 n=97 v=0
461460 On ch=3 n=85 v=0
461520 On ch=3 n=24 v=127
461520 On ch=3 n=27 v=127
461520 On ch=3 n=96 v=127
461520 On ch=3 n=97 v=127
461520 On ch=3 n=85 v=127
461580 On ch=3 n=24 v=0
461580 On ch=3 n=27 v=0
461580 On ch=3 n=96 v=0
461580 On ch=3 n=97 v=0
461580 On ch=3 n=85 v=0
461640 On ch=3 n=26 v=127
461640 On ch=3 n=97 v=127
461640 On ch=3 n=85 v=127
461700 On ch=3 n=26 v=0
461700 On ch=3 n=97 v=0
461700 On ch=3 n=85 v=0
461756 On ch=3 n=120 v=0
461756 On ch=3 n=121 v=0
461756 On ch=3 n=122 v=0
461756 On ch=3 n=123 v=0
461756 On ch=3 n=124 v=0
461760 On ch=3 n=24 v=127
461760 On ch=3 n=42 v=127
461760 On ch=3 n=63 v=127
461760 On ch=3 n=72 v=127
461760 On ch=3 n=75 v=127
461760 On ch=3 n=84 v=127
461760 On ch=3 n=87 v=127
461760 On ch=3 n=96 v=127
461760 On ch=3 n=99 v=127
461820 On ch=3 n=24 v=0
461820 On ch=3 n=42 v=0
461820 On ch=3 n=63 v=0
461820 On ch=3 n=72 v=0
461820 On ch=3 n=75 v=0
461820 On ch=3 n=84 v=0
461820 On ch=3 n=87 v=0
461820 On ch=3 n=96 v=0
461820 On ch=3 n=99 v=0
462000 On ch=3 n=106 v=0
462000 On ch=3 n=24 v=127
462000 On ch=3 n=42 v=127
462000 On ch=3 n=72 v=127
462000 On ch=3 n=75 v=127
462000 On ch=3 n=84 v=127
462000 On ch=3 n=87 v=127
462000 On ch=3 n=96 v=127
462000 On ch=3 n=99 v=127
462000 On ch=3 n=63 v=100
462060 On ch=3 n=24 v=0
462060 On ch=3 n=42 v=0
462060 On ch=3 n=72 v=0
462060 On ch=3 n=75 v=0
462060 On ch=3 n=84 v=0
462060 On ch=3 n=87 v=0
462060 On ch=3 n=96 v=0
462060 On ch=3 n=99 v=0
462060 On ch=3 n=63 v=0
462120 On ch=3 n=25 v=127
462234 On ch=3 n=25 v=0
462240 On ch=3 n=26 v=127
462240 On ch=3 n=42 v=127
462240 On ch=3 n=61 v=127
462240 On ch=3 n=63 v=127
462240 On ch=3 n=73 v=127
462240 On ch=3 n=75 v=127
462240 On ch=3 n=85 v=127
462240 On ch=3 n=87 v=127
462240 On ch=3 n=97 v=127
462240 On ch=3 n=99 v=127
462300 On ch=3 n=26 v=0
462300 On ch=3 n=42 v=0
462300 On ch=3 n=61 v=0
462300 On ch=3 n=63 v=0
462300 On ch=3 n=73 v=0
462300 On ch=3 n=75 v=0
462300 On ch=3 n=85 v=0
462300 On ch=3 n=87 v=0
462300 On ch=3 n=97 v=0
462300 On ch=3 n=99 v=0
462480 On ch=3 n=42 v=127
462480 On ch=3 n=63 v=127
462480 On ch=3 n=75 v=127
462480 On ch=3 n=87 v=127
462480 On ch=3 n=99 v=127
462540 On ch=3 n=42 v=0
462540 On ch=3 n=63 v=0
462540 On ch=3 n=75 v=0
462540 On ch=3 n=87 v=0
462540 On ch=3 n=99 v=0
462600 On ch=3 n=25 v=127
462600 On ch=3 n=26 v=127
462600 On ch=3 n=97 v=127
462660 On ch=3 n=26 v=0
462660 On ch=3 n=97 v=0
462714 On ch=3 n=25 v=0
462720 On ch=3 n=24 v=127
462720 On ch=3 n=42 v=127
462720 On ch=3 n=63 v=127
462720 On ch=3 n=72 v=127
462720 On ch=3 n=75 v=127
462720 On ch=3 n=84 v=127
462720 On ch=3 n=87 v=127
462720 On ch=3 n=96 v=127
462720 On ch=3 n=99 v=127
462780 On ch=3 n=24 v=0
462780 On ch=3 n=42 v=0
462780 On ch=3 n=63 v=0
462780 On ch=3 n=72 v=0
462780 On ch=3 n=75 v=0
462780 On ch=3 n=84 v=0
462780 On ch=3 n=87 v=0
462780 On ch=3 n=96 v=0
462780 On ch=3 n=99 v=0
462960 On ch=3 n=24 v=127
462960 On ch=3 n=42 v=127
462960 On ch=3 n=72 v=127
462960 On ch=3 n=75 v=127
462960 On ch=3 n=84 v=127
462960 On ch=3 n=87 v=127
462960 On ch=3 n=96 v=127
462960 On ch=3 n=99 v=127
462960 On ch=3 n=63 v=100
463020 On ch=3 n=24 v=0
463020 On ch=3 n=42 v=0
463020 On ch=3 n=72 v=0
463020 On ch=3 n=75 v=0
463020 On ch=3 n=84 v=0
463020 On ch=3 n=87 v=0
463020 On ch=3 n=96 v=0
463020 On ch=3 n=99 v=0
463020 On ch=3 n=63 v=0
463080 On ch=3 n=25 v=127
463194 On ch=3 n=25 v=0
463200 On ch=3 n=26 v=127
463200 On ch=3 n=42 v=127
463200 On ch=3 n=61 v=127
463200 On ch=3 n=73 v=127
463200 On ch=3 n=85 v=127
463200 On ch=3 n=97 v=127
463260 On ch=3 n=26 v=0
463260 On ch=3 n=42 v=0
463260 On ch=3 n=61 v=0
463260 On ch=3 n=73 v=0
463260 On ch=3 n=85 v=0
463260 On ch=3 n=97 v=0
463320 On ch=3 n=24 v=127
463320 On ch=3 n=38 v=127
463320 On ch=3 n=76 v=127
463320 On ch=3 n=84 v=127
463320 On ch=3 n=88 v=127
463320 On ch=3 n=96 v=127
463320 On ch=3 n=100 v=127
463380 On ch=3 n=24 v=0
463380 On ch=3 n=38 v=0
463380 On ch=3 n=76 v=0
463380 On ch=3 n=84 v=0
463380 On ch=3 n=88 v=0
463380 On ch=3 n=96 v=0
463380 On ch=3 n=100 v=0
463560 On ch=3 n=25 v=127
463674 On ch=3 n=25 v=0
463680 On ch=3 n=105 v=0
463680 On ch=3 n=24 v=127
463680 On ch=3 n=34 v=127
463680 On ch=3 n=96 v=127
463680 On ch=3 n=100 v=127
463680 On ch=3 n=64 v=127
463680 On ch=3 n=72 v=127
463680 On ch=3 n=84 v=127
463680 On ch=3 n=88 v=100
463680 On ch=3 n=76 v=100
463680 On ch=3 n=106 v=100
463680 On ch=3 n=60 v=100
463740 On ch=3 n=24 v=0
463740 On ch=3 n=34 v=0
463740 On ch=3 n=96 v=0
463740 On ch=3 n=100 v=0
463740 On ch=3 n=64 v=0
463740 On ch=3 n=72 v=0
463740 On ch=3 n=84 v=0
463740 On ch=3 n=88 v=0
463740 On ch=3 n=76 v=0
463740 On ch=3 n=60 v=0
463920 On ch=3 n=24 v=127
463920 On ch=3 n=36 v=127
463920 On ch=3 n=96 v=127
463920 On ch=3 n=100 v=127
463920 On ch=3 n=72 v=127
463920 On ch=3 n=84 v=127
463920 On ch=3 n=88 v=100
463920 On ch=3 n=76 v=100
463980 On ch=3 n=24 v=0
463980 On ch=3 n=36 v=0
463980 On ch=3 n=96 v=0
463980 On ch=3 n=100 v=0
463980 On ch=3 n=72 v=0
463980 On ch=3 n=84 v=0
463980 On ch=3 n=88 v=0
463980 On ch=3 n=76 v=0
464160 On ch=3 n=24 v=127
464160 On ch=3 n=27 v=127
464160 On ch=3 n=96 v=127
464160 On ch=3 n=97 v=127
464160 On ch=3 n=61 v=127
464160 On ch=3 n=73 v=127
464160 On ch=3 n=85 v=127
464220 On ch=3 n=24 v=0
464220 On ch=3 n=27 v=0
464220 On ch=3 n=96 v=0
464220 On ch=3 n=97 v=0
464220 On ch=3 n=61 v=0
464220 On ch=3 n=73 v=0
464220 On ch=3 n=85 v=0
464280 On ch=3 n=26 v=127
464280 On ch=3 n=97 v=127
464280 On ch=3 n=85 v=127
464340 On ch=3 n=26 v=0
464340 On ch=3 n=97 v=0
464340 On ch=3 n=85 v=0
464400 On ch=3 n=24 v=127
464400 On ch=3 n=27 v=127
464400 On ch=3 n=96 v=127
464400 On ch=3 n=97 v=127
464400 On ch=3 n=85 v=127
464460 On ch=3 n=24 v=0
464460 On ch=3 n=27 v=0
464460 On ch=3 n=96 v=0
464460 On ch=3 n=97 v=0
464460 On ch=3 n=85 v=0
464520 On ch=3 n=26 v=127
464520 On ch=3 n=97 v=127
464520 On ch=3 n=85 v=127
464580 On ch=3 n=26 v=0
464580 On ch=3 n=97 v=0
464580 On ch=3 n=85 v=0
464640 On ch=3 n=106 v=0
464640 On ch=3 n=24 v=127
464640 On ch=3 n=36 v=127
464640 On ch=3 n=96 v=127
464640 On ch=3 n=100 v=127
464640 On ch=3 n=64 v=127
464640 On ch=3 n=72 v=127
464640 On ch=3 n=84 v=127
464640 On ch=3 n=88 v=100
464640 On ch=3 n=76 v=100
464640 On ch=3 n=105 v=100
464640 On ch=3 n=60 v=100
464700 On ch=3 n=24 v=0
464700 On ch=3 n=36 v=0
464700 On ch=3 n=96 v=0
464700 On ch=3 n=100 v=0
464700 On ch=3 n=64 v=0
464700 On ch=3 n=72 v=0
464700 On ch=3 n=84 v=0
464700 On ch=3 n=88 v=0
464700 On ch=3 n=76 v=0
464700 On ch=3 n=60 v=0
464880 On ch=3 n=24 v=127
464880 On ch=3 n=36 v=127
464880 On ch=3 n=96 v=127
464880 On ch=3 n=100 v=127
464880 On ch=3 n=72 v=127
464880 On ch=3 n=84 v=127
464880 On ch=3 n=88 v=100
464880 On ch=3 n=76 v=100
464940 On ch=3 n=24 v=0
464940 On ch=3 n=36 v=0
464940 On ch=3 n=96 v=0
464940 On ch=3 n=100 v=0
464940 On ch=3 n=72 v=0
464940 On ch=3 n=84 v=0
464940 On ch=3 n=88 v=0
464940 On ch=3 n=76 v=0
465000 On ch=3 n=26 v=127
465000 On ch=3 n=97 v=100
465060 On ch=3 n=26 v=0
465060 On ch=3 n=97 v=0
465120 On ch=3 n=24 v=127
465120 On ch=3 n=27 v=127
465120 On ch=3 n=96 v=127
465120 On ch=3 n=97 v=127
465120 On ch=3 n=61 v=127
465120 On ch=3 n=73 v=127
465120 On ch=3 n=85 v=127
465180 On ch=3 n=24 v=0
465180 On ch=3 n=27 v=0
465180 On ch=3 n=96 v=0
465180 On ch=3 n=97 v=0
465180 On ch=3 n=61 v=0
465180 On ch=3 n=73 v=0
465180 On ch=3 n=85 v=0
465240 On ch=3 n=26 v=127
465240 On ch=3 n=97 v=127
465240 On ch=3 n=85 v=127
465300 On ch=3 n=26 v=0
465300 On ch=3 n=97 v=0
465300 On ch=3 n=85 v=0
465360 On ch=3 n=24 v=127
465360 On ch=3 n=27 v=127
465360 On ch=3 n=96 v=127
465360 On ch=3 n=97 v=127
465360 On ch=3 n=85 v=127
465420 On ch=3 n=24 v=0
465420 On ch=3 n=27 v=0
465420 On ch=3 n=96 v=0
465420 On ch=3 n=97 v=0
465420 On ch=3 n=85 v=0
465480 On ch=3 n=26 v=127
465480 On ch=3 n=97 v=127
465480 On ch=3 n=85 v=127
465540 On ch=3 n=26 v=0
465540 On ch=3 n=97 v=0
465540 On ch=3 n=85 v=0
465600 On ch=3 n=24 v=127
465600 On ch=3 n=42 v=127
465600 On ch=3 n=63 v=127
465600 On ch=3 n=72 v=127
465600 On ch=3 n=75 v=127
465600 On ch=3 n=84 v=127
465600 On ch=3 n=87 v=127
465600 On ch=3 n=96 v=127
465600 On ch=3 n=99 v=127
465600 On ch=3 n=106 v=100
465660 On ch=3 n=24 v=0
465660 On ch=3 n=42 v=0
465660 On ch=3 n=63 v=0
465660 On ch=3 n=72 v=0
465660 On ch=3 n=75 v=0
465660 On ch=3 n=84 v=0
465660 On ch=3 n=87 v=0
465660 On ch=3 n=96 v=0
465660 On ch=3 n=99 v=0
465840 On ch=3 n=24 v=127
465840 On ch=3 n=42 v=127
465840 On ch=3 n=72 v=127
465840 On ch=3 n=75 v=127
465840 On ch=3 n=84 v=127
465840 On ch=3 n=87 v=127
465840 On ch=3 n=96 v=127
465840 On ch=3 n=99 v=127
465840 On ch=3 n=63 v=100
465900 On ch=3 n=24 v=0
465900 On ch=3 n=42 v=0
465900 On ch=3 n=72 v=0
465900 On ch=3 n=75 v=0
465900 On ch=3 n=84 v=0
465900 On ch=3 n=87 v=0
465900 On ch=3 n=96 v=0
465900 On ch=3 n=99 v=0
465900 On ch=3 n=63 v=0
465960 On ch=3 n=25 v=127
466074 On ch=3 n=25 v=0
466080 On ch=3 n=26 v=127
466080 On ch=3 n=42 v=127
466080 On ch=3 n=61 v=127
466080 On ch=3 n=63 v=127
466080 On ch=3 n=73 v=127
466080 On ch=3 n=75 v=127
466080 On ch=3 n=85 v=127
466080 On ch=3 n=87 v=127
466080 On ch=3 n=97 v=127
466080 On ch=3 n=99 v=127
466140 On ch=3 n=26 v=0
466140 On ch=3 n=42 v=0
466140 On ch=3 n=61 v=0
466140 On ch=3 n=63 v=0
466140 On ch=3 n=73 v=0
466140 On ch=3 n=75 v=0
466140 On ch=3 n=85 v=0
466140 On ch=3 n=87 v=0
466140 On ch=3 n=97 v=0
466140 On ch=3 n=99 v=0
466320 On ch=3 n=42 v=127
466320 On ch=3 n=63 v=127
466320 On ch=3 n=75 v=127
466320 On ch=3 n=87 v=127
466320 On ch=3 n=99 v=127
466380 On ch=3 n=42 v=0
466380 On ch=3 n=63 v=0
466380 On ch=3 n=75 v=0
466380 On ch=3 n=87 v=0
466380 On ch=3 n=99 v=0
466440 On ch=3 n=25 v=127
466440 On ch=3 n=26 v=127
466440 On ch=3 n=97 v=127
466500 On ch=3 n=26 v=0
466500 On ch=3 n=97 v=0
466554 On ch=3 n=25 v=0
466560 On ch=3 n=24 v=127
466560 On ch=3 n=42 v=127
466560 On ch=3 n=63 v=127
466560 On ch=3 n=72 v=127
466560 On ch=3 n=75 v=127
466560 On ch=3 n=84 v=127
466560 On ch=3 n=87 v=127
466560 On ch=3 n=96 v=127
466560 On ch=3 n=99 v=127
466620 On ch=3 n=24 v=0
466620 On ch=3 n=42 v=0
466620 On ch=3 n=63 v=0
466620 On ch=3 n=72 v=0
466620 On ch=3 n=75 v=0
466620 On ch=3 n=84 v=0
466620 On ch=3 n=87 v=0
466620 On ch=3 n=96 v=0
466620 On ch=3 n=99 v=0
466800 On ch=3 n=24 v=127
466800 On ch=3 n=42 v=127
466800 On ch=3 n=72 v=127
466800 On ch=3 n=75 v=127
466800 On ch=3 n=84 v=127
466800 On ch=3 n=87 v=127
466800 On ch=3 n=96 v=127
466800 On ch=3 n=99 v=127
466800 On ch=3 n=63 v=100
466860 On ch=3 n=24 v=0
466860 On ch=3 n=42 v=0
466860 On ch=3 n=72 v=0
466860 On ch=3 n=75 v=0
466860 On ch=3 n=84 v=0
466860 On ch=3 n=87 v=0
466860 On ch=3 n=96 v=0
466860 On ch=3 n=99 v=0
466860 On ch=3 n=63 v=0
466920 On ch=3 n=25 v=127
467034 On ch=3 n=25 v=0
467040 On ch=3 n=26 v=127
467040 On ch=3 n=42 v=127
467040 On ch=3 n=61 v=127
467040 On ch=3 n=73 v=127
467040 On ch=3 n=85 v=127
467040 On ch=3 n=97 v=127
467100 On ch=3 n=26 v=0
467100 On ch=3 n=42 v=0
467100 On ch=3 n=61 v=0
467100 On ch=3 n=73 v=0
467100 On ch=3 n=85 v=0
467100 On ch=3 n=97 v=0
467160 On ch=3 n=24 v=127
467160 On ch=3 n=38 v=127
467160 On ch=3 n=76 v=127
467160 On ch=3 n=84 v=127
467160 On ch=3 n=88 v=127
467160 On ch=3 n=96 v=127
467160 On ch=3 n=100 v=127
467220 On ch=3 n=24 v=0
467220 On ch=3 n=38 v=0
467220 On ch=3 n=76 v=0
467220 On ch=3 n=84 v=0
467220 On ch=3 n=88 v=0
467220 On ch=3 n=96 v=0
467220 On ch=3 n=100 v=0
467400 On ch=3 n=25 v=127
467400 On ch=3 n=26 v=127
467400 On ch=3 n=97 v=100
467460 On ch=3 n=26 v=0
467460 On ch=3 n=97 v=0
467514 On ch=3 n=25 v=0
467520 On ch=3 n=106 v=0
467520 On ch=3 n=24 v=127
467520 On ch=3 n=36 v=127
467520 On ch=3 n=96 v=127
467520 On ch=3 n=100 v=127
467520 On ch=3 n=64 v=127
467520 On ch=3 n=72 v=127
467520 On ch=3 n=84 v=127
467520 On ch=3 n=88 v=100
467520 On ch=3 n=76 v=100
467520 On ch=3 n=60 v=100
467580 On ch=3 n=24 v=0
467580 On ch=3 n=36 v=0
467580 On ch=3 n=96 v=0
467580 On ch=3 n=100 v=0
467580 On ch=3 n=64 v=0
467580 On ch=3 n=72 v=0
467580 On ch=3 n=84 v=0
467580 On ch=3 n=88 v=0
467580 On ch=3 n=76 v=0
467580 On ch=3 n=60 v=0
467760 On ch=3 n=24 v=127
467760 On ch=3 n=36 v=127
467760 On ch=3 n=96 v=127
467760 On ch=3 n=100 v=127
467760 On ch=3 n=72 v=127
467760 On ch=3 n=84 v=127
467760 On ch=3 n=88 v=100
467760 On ch=3 n=76 v=100
467820 On ch=3 n=24 v=0
467820 On ch=3 n=36 v=0
467820 On ch=3 n=96 v=0
467820 On ch=3 n=100 v=0
467820 On ch=3 n=72 v=0
467820 On ch=3 n=84 v=0
467820 On ch=3 n=88 v=0
467820 On ch=3 n=76 v=0
468000 On ch=3 n=24 v=127
468000 On ch=3 n=27 v=127
468000 On ch=3 n=96 v=127
468000 On ch=3 n=97 v=127
468000 On ch=3 n=61 v=127
468000 On ch=3 n=73 v=127
468000 On ch=3 n=85 v=127
468060 On ch=3 n=24 v=0
468060 On ch=3 n=27 v=0
468060 On ch=3 n=96 v=0
468060 On ch=3 n=97 v=0
468060 On ch=3 n=61 v=0
468060 On ch=3 n=73 v=0
468060 On ch=3 n=85 v=0
468120 On ch=3 n=26 v=127
468120 On ch=3 n=97 v=127
468120 On ch=3 n=85 v=127
468180 On ch=3 n=26 v=0
468180 On ch=3 n=97 v=0
468180 On ch=3 n=85 v=0
468240 On ch=3 n=24 v=127
468240 On ch=3 n=27 v=127
468240 On ch=3 n=96 v=127
468240 On ch=3 n=97 v=127
468240 On ch=3 n=85 v=127
468300 On ch=3 n=24 v=0
468300 On ch=3 n=27 v=0
468300 On ch=3 n=96 v=0
468300 On ch=3 n=97 v=0
468300 On ch=3 n=85 v=0
468360 On ch=3 n=25 v=127
468360 On ch=3 n=26 v=127
468360 On ch=3 n=97 v=127
468360 On ch=3 n=85 v=127
468420 On ch=3 n=26 v=0
468420 On ch=3 n=97 v=0
468420 On ch=3 n=85 v=0
468474 On ch=3 n=25 v=0
468480 On ch=3 n=105 v=0
468480 On ch=3 n=24 v=127
468480 On ch=3 n=38 v=127
468480 On ch=3 n=96 v=127
468480 On ch=3 n=100 v=127
468480 On ch=3 n=64 v=127
468480 On ch=3 n=72 v=127
468480 On ch=3 n=84 v=127
468480 On ch=3 n=88 v=100
468480 On ch=3 n=76 v=100
468480 On ch=3 n=106 v=100
468480 On ch=3 n=60 v=100
468540 On ch=3 n=24 v=0
468540 On ch=3 n=38 v=0
468540 On ch=3 n=96 v=0
468540 On ch=3 n=100 v=0
468540 On ch=3 n=64 v=0
468540 On ch=3 n=72 v=0
468540 On ch=3 n=84 v=0
468540 On ch=3 n=88 v=0
468540 On ch=3 n=76 v=0
468540 On ch=3 n=60 v=0
468600 On ch=3 n=26 v=127
468600 On ch=3 n=97 v=100
468660 On ch=3 n=26 v=0
468660 On ch=3 n=97 v=0
468720 On ch=3 n=24 v=127
468720 On ch=3 n=36 v=127
468720 On ch=3 n=96 v=127
468720 On ch=3 n=100 v=127
468720 On ch=3 n=72 v=127
468720 On ch=3 n=84 v=127
468720 On ch=3 n=88 v=100
468720 On ch=3 n=76 v=100
468780 On ch=3 n=24 v=0
468780 On ch=3 n=36 v=0
468780 On ch=3 n=96 v=0
468780 On ch=3 n=100 v=0
468780 On ch=3 n=72 v=0
468780 On ch=3 n=84 v=0
468780 On ch=3 n=88 v=0
468780 On ch=3 n=76 v=0
468840 On ch=3 n=25 v=127
468840 On ch=3 n=26 v=127
468840 On ch=3 n=97 v=100
468900 On ch=3 n=26 v=0
468900 On ch=3 n=97 v=0
468954 On ch=3 n=25 v=0
468960 On ch=3 n=24 v=127
468960 On ch=3 n=27 v=127
468960 On ch=3 n=96 v=127
468960 On ch=3 n=97 v=127
468960 On ch=3 n=61 v=127
468960 On ch=3 n=73 v=127
468960 On ch=3 n=85 v=127
469020 On ch=3 n=24 v=0
469020 On ch=3 n=27 v=0
469020 On ch=3 n=96 v=0
469020 On ch=3 n=97 v=0
469020 On ch=3 n=61 v=0
469020 On ch=3 n=73 v=0
469020 On ch=3 n=85 v=0
469080 On ch=3 n=26 v=127
469080 On ch=3 n=97 v=127
469080 On ch=3 n=85 v=127
469140 On ch=3 n=26 v=0
469140 On ch=3 n=97 v=0
469140 On ch=3 n=85 v=0
469200 On ch=3 n=24 v=127
469200 On ch=3 n=27 v=127
469200 On ch=3 n=96 v=127
469200 On ch=3 n=97 v=127
469200 On ch=3 n=85 v=127
469260 On ch=3 n=24 v=0
469260 On ch=3 n=27 v=0
469260 On ch=3 n=96 v=0
469260 On ch=3 n=97 v=0
469260 On ch=3 n=85 v=0
469320 On ch=3 n=25 v=127
469320 On ch=3 n=26 v=127
469320 On ch=3 n=97 v=127
469320 On ch=3 n=85 v=127
469380 On ch=3 n=26 v=0
469380 On ch=3 n=97 v=0
469380 On ch=3 n=85 v=0
469434 On ch=3 n=25 v=0
469440 On ch=3 n=24 v=127
469440 On ch=3 n=36 v=127
469440 On ch=3 n=60 v=127
469440 On ch=3 n=72 v=127
469440 On ch=3 n=84 v=127
469440 On ch=3 n=96 v=127
469440 On ch=3 n=100 v=127
469440 On ch=3 n=88 v=100
469440 On ch=3 n=105 v=100
469500 On ch=3 n=24 v=0
469500 On ch=3 n=36 v=0
469500 On ch=3 n=60 v=0
469500 On ch=3 n=72 v=0
469500 On ch=3 n=84 v=0
469500 On ch=3 n=96 v=0
469500 On ch=3 n=100 v=0
469500 On ch=3 n=88 v=0
469560 On ch=3 n=26 v=127
469560 On ch=3 n=97 v=127
469620 On ch=3 n=26 v=0
469620 On ch=3 n=97 v=0
469680 On ch=3 n=24 v=127
469680 On ch=3 n=38 v=127
469680 On ch=3 n=72 v=127
469680 On ch=3 n=84 v=127
469680 On ch=3 n=96 v=127
469680 On ch=3 n=100 v=127
469680 On ch=3 n=88 v=100
469740 On ch=3 n=24 v=0
469740 On ch=3 n=38 v=0
469740 On ch=3 n=72 v=0
469740 On ch=3 n=84 v=0
469740 On ch=3 n=96 v=0
469740 On ch=3 n=100 v=0
469740 On ch=3 n=88 v=0
469800 On ch=3 n=25 v=127
469800 On ch=3 n=26 v=127
469800 On ch=3 n=97 v=127
469860 On ch=3 n=26 v=0
469860 On ch=3 n=97 v=0
469914 On ch=3 n=25 v=0
469920 On ch=3 n=24 v=127
469920 On ch=3 n=27 v=127
469920 On ch=3 n=61 v=127
469920 On ch=3 n=73 v=127
469920 On ch=3 n=85 v=127
469920 On ch=3 n=96 v=127
469920 On ch=3 n=97 v=127
469980 On ch=3 n=24 v=0
469980 On ch=3 n=27 v=0
469980 On ch=3 n=61 v=0
469980 On ch=3 n=73 v=0
469980 On ch=3 n=85 v=0
469980 On ch=3 n=96 v=0
469980 On ch=3 n=97 v=0
470040 On ch=3 n=26 v=127
470040 On ch=3 n=85 v=127
470040 On ch=3 n=97 v=127
470100 On ch=3 n=26 v=0
470100 On ch=3 n=85 v=0
470100 On ch=3 n=97 v=0
470160 On ch=3 n=24 v=127
470160 On ch=3 n=27 v=127
470160 On ch=3 n=73 v=127
470160 On ch=3 n=85 v=127
470160 On ch=3 n=96 v=127
470160 On ch=3 n=97 v=127
470160 On ch=3 n=61 v=100
470220 On ch=3 n=24 v=0
470220 On ch=3 n=27 v=0
470220 On ch=3 n=73 v=0
470220 On ch=3 n=85 v=0
470220 On ch=3 n=96 v=0
470220 On ch=3 n=97 v=0
470220 On ch=3 n=61 v=0
470280 On ch=3 n=25 v=127
470280 On ch=3 n=26 v=127
470280 On ch=3 n=85 v=127
470280 On ch=3 n=97 v=127
470340 On ch=3 n=26 v=0
470340 On ch=3 n=85 v=0
470340 On ch=3 n=97 v=0
470394 On ch=3 n=25 v=0
470400 On ch=3 n=24 v=127
470400 On ch=3 n=27 v=127
470400 On ch=3 n=61 v=127
470400 On ch=3 n=73 v=127
470400 On ch=3 n=85 v=127
470400 On ch=3 n=96 v=127
470400 On ch=3 n=97 v=127
470460 On ch=3 n=24 v=0
470460 On ch=3 n=27 v=0
470460 On ch=3 n=61 v=0
470460 On ch=3 n=73 v=0
470460 On ch=3 n=85 v=0
470460 On ch=3 n=96 v=0
470460 On ch=3 n=97 v=0
470520 On ch=3 n=25 v=127
470520 On ch=3 n=26 v=127
470520 On ch=3 n=85 v=127
470520 On ch=3 n=97 v=127
470580 On ch=3 n=26 v=0
470580 On ch=3 n=85 v=0
470580 On ch=3 n=97 v=0
470634 On ch=3 n=25 v=0
470640 On ch=3 n=24 v=127
470640 On ch=3 n=47 v=127
470640 On ch=3 n=74 v=127
470640 On ch=3 n=86 v=127
470640 On ch=3 n=96 v=127
470640 On ch=3 n=98 v=127
470640 On ch=3 n=62 v=100
470700 On ch=3 n=24 v=0
470700 On ch=3 n=47 v=0
470700 On ch=3 n=74 v=0
470700 On ch=3 n=86 v=0
470700 On ch=3 n=96 v=0
470700 On ch=3 n=98 v=0
470700 On ch=3 n=62 v=0
470760 On ch=3 n=25 v=127
470760 On ch=3 n=46 v=127
470760 On ch=3 n=86 v=127
470760 On ch=3 n=98 v=127
470760 On ch=3 n=110 v=127
470760 On ch=3 n=111 v=127
470760 On ch=3 n=112 v=127
470820 On ch=3 n=46 v=0
470820 On ch=3 n=86 v=0
470820 On ch=3 n=98 v=0
470874 On ch=3 n=25 v=0
470880 On ch=3 n=24 v=127
470880 On ch=3 n=49 v=127
470880 On ch=3 n=63 v=127
470880 On ch=3 n=75 v=127
470880 On ch=3 n=87 v=127
470880 On ch=3 n=96 v=127
470880 On ch=3 n=99 v=127
470940 On ch=3 n=24 v=0
470940 On ch=3 n=49 v=0
470940 On ch=3 n=63 v=0
470940 On ch=3 n=75 v=0
470940 On ch=3 n=87 v=0
470940 On ch=3 n=96 v=0
470940 On ch=3 n=99 v=0
471000 On ch=3 n=25 v=127
471000 On ch=3 n=48 v=127
471000 On ch=3 n=87 v=127
471000 On ch=3 n=99 v=127
471060 On ch=3 n=48 v=0
471060 On ch=3 n=87 v=0
471060 On ch=3 n=99 v=0
471114 On ch=3 n=25 v=0
471120 On ch=3 n=24 v=127
471120 On ch=3 n=51 v=127
471120 On ch=3 n=76 v=127
471120 On ch=3 n=88 v=127
471120 On ch=3 n=96 v=127
471120 On ch=3 n=100 v=127
471180 On ch=3 n=24 v=0
471180 On ch=3 n=51 v=0
471180 On ch=3 n=76 v=0
471180 On ch=3 n=88 v=0
471180 On ch=3 n=96 v=0
471180 On ch=3 n=100 v=0
471240 On ch=3 n=25 v=127
471240 On ch=3 n=50 v=127
471240 On ch=3 n=88 v=127
471240 On ch=3 n=100 v=127
471300 On ch=3 n=50 v=0
471300 On ch=3 n=88 v=0
471300 On ch=3 n=100 v=0
471354 On ch=3 n=25 v=0
471358 On ch=3 n=110 v=0
471358 On ch=3 n=111 v=0
471358 On ch=3 n=112 v=0
471360 On ch=3 n=24 v=127
471360 On ch=3 n=38 v=127
471360 On ch=3 n=60 v=127
471360 On ch=3 n=64 v=127
471360 On ch=3 n=72 v=127
471360 On ch=3 n=76 v=127
471360 On ch=3 n=84 v=127
471360 On ch=3 n=88 v=127
471360 On ch=3 n=96 v=127
471360 On ch=3 n=100 v=127
471420 On ch=3 n=24 v=0
471420 On ch=3 n=38 v=0
471420 On ch=3 n=60 v=0
471420 On ch=3 n=64 v=0
471420 On ch=3 n=72 v=0
471420 On ch=3 n=76 v=0
471420 On ch=3 n=84 v=0
471420 On ch=3 n=88 v=0
471420 On ch=3 n=96 v=0
471420 On ch=3 n=100 v=0
471840 On ch=3 n=24 v=127
471840 On ch=3 n=38 v=127
471840 On ch=3 n=60 v=127
471840 On ch=3 n=64 v=127
471840 On ch=3 n=72 v=127
471840 On ch=3 n=76 v=127
471840 On ch=3 n=84 v=127
471840 On ch=3 n=88 v=127
471840 On ch=3 n=96 v=127
471840 On ch=3 n=100 v=127
471840 On ch=3 n=34 v=100
471900 On ch=3 n=24 v=0
471900 On ch=3 n=38 v=0
471900 On ch=3 n=60 v=0
471900 On ch=3 n=64 v=0
471900 On ch=3 n=72 v=0
471900 On ch=3 n=76 v=0
471900 On ch=3 n=84 v=0
471900 On ch=3 n=88 v=0
471900 On ch=3 n=96 v=0
471900 On ch=3 n=100 v=0
471960 On ch=3 n=34 v=0
471960 Meta Text "[play]"
472080 On ch=3 n=120 v=100
472080 On ch=3 n=121 v=100
472080 On ch=3 n=122 v=100
472080 On ch=3 n=123 v=100
472080 On ch=3 n=124 v=100
472165 On ch=3 n=39 v=100
472285 On ch=3 n=39 v=0
472347 On ch=3 n=35 v=100
472467 On ch=3 n=35 v=0
472475 On ch=3 n=39 v=100
472595 On ch=3 n=39 v=0
472633 On ch=3 n=35 v=100
472753 On ch=3 n=35 v=0
472791 On ch=3 n=39 v=100
472911 On ch=3 n=39 v=0
472969 On ch=3 n=35 v=100
473089 On ch=3 n=35 v=0
473162 On ch=3 n=39 v=100
473167 On ch=3 n=24 v=100
473282 On ch=3 n=39 v=0
473287 On ch=3 n=24 v=0
473304 On ch=3 n=35 v=100
473424 On ch=3 n=35 v=0
473474 On ch=3 n=39 v=100
473594 On ch=3 n=39 v=0
473611 On ch=3 n=35 v=100
473731 On ch=3 n=35 v=0
473768 On ch=3 n=39 v=100
473888 On ch=3 n=39 v=0
473937 On ch=3 n=35 v=100
474057 On ch=3 n=35 v=0
474081 On ch=3 n=39 v=100
474201 On ch=3 n=39 v=0
474250 On ch=3 n=35 v=100
474370 On ch=3 n=35 v=0
474432 On ch=3 n=39 v=100
474552 On ch=3 n=39 v=0
474595 On ch=3 n=35 v=100
474715 On ch=3 n=35 v=0
474732 On ch=3 n=39 v=100
474852 On ch=3 n=39 v=0
474920 On ch=3 n=35 v=100
475040 On ch=3 n=35 v=0
475077 On ch=3 n=39 v=100
475197 On ch=3 n=39 v=0
475252 On ch=3 n=35 v=100
475372 On ch=3 n=35 v=0
475415 On ch=3 n=39 v=100
475535 On ch=3 n=39 v=0
475578 On ch=3 n=35 v=100
475698 On ch=3 n=35 v=0
475760 On ch=3 n=39 v=100
475880 On ch=3 n=39 v=0
475935 On ch=3 n=35 v=100
476055 On ch=3 n=35 v=0
476117 On ch=3 n=39 v=100
476237 On ch=3 n=39 v=0
476242 On ch=3 n=35 v=100
476362 On ch=3 n=35 v=0
476411 On ch=3 n=39 v=100
476531 On ch=3 n=39 v=0
476574 On ch=3 n=35 v=100
476694 On ch=3 n=35 v=0
476787 On ch=3 n=39 v=100
476907 On ch=3 n=39 v=0
476962 On ch=3 n=35 v=100
477082 On ch=3 n=35 v=0
477137 On ch=3 n=38 v=100
477257 On ch=3 n=38 v=0
477468 On ch=3 n=39 v=100
477588 On ch=3 n=39 v=0
477703 On ch=3 n=39 v=100
477823 On ch=3 n=39 v=0
477848 On ch=3 n=35 v=100
477968 On ch=3 n=35 v=0
478000 On ch=3 n=39 v=100
478120 On ch=3 n=39 v=0
478214 On ch=3 n=39 v=100
478334 On ch=3 n=39 v=0
478393 On ch=3 n=35 v=100
478513 On ch=3 n=35 v=0
478517 On ch=3 n=39 v=100
478637 On ch=3 n=39 v=0
478697 On ch=3 n=39 v=100
478817 On ch=3 n=39 v=0
478883 On ch=3 n=35 v=100
479003 On ch=3 n=35 v=0
479070 On ch=3 n=39 v=100
479190 On ch=3 n=39 v=0
479270 On ch=3 n=39 v=100
479390 On ch=3 n=39 v=0
479422 On ch=3 n=35 v=100
479542 On ch=3 n=35 v=0
479629 On ch=3 n=39 v=100
479749 On ch=3 n=39 v=0
479816 On ch=3 n=39 v=100
479936 On ch=3 n=39 v=0
479988 On ch=3 n=35 v=100
480108 On ch=3 n=35 v=0
480161 On ch=3 n=39 v=100
480281 On ch=3 n=39 v=0
480361 On ch=3 n=39 v=100
480481 On ch=3 n=39 v=0
480589 On ch=3 n=34 v=100
480665 On ch=3 n=38 v=100
480709 On ch=3 n=34 v=0
480785 On ch=3 n=38 v=0
481190 On ch=3 n=39 v=100
481310 On ch=3 n=39 v=0
481390 On ch=3 n=35 v=100
481510 On ch=3 n=35 v=0
481549 On ch=3 n=39 v=100
481669 On ch=3 n=39 v=0
481714 On ch=3 n=35 v=100
481834 On ch=3 n=35 v=0
481852 On ch=3 n=39 v=100
481972 On ch=3 n=39 v=0
482046 On ch=3 n=35 v=100
482166 On ch=3 n=35 v=0
482218 On ch=3 n=39 v=100
482338 On ch=3 n=39 v=0
482412 On ch=3 n=35 v=100
482532 On ch=3 n=35 v=0
482577 On ch=3 n=39 v=100
482697 On ch=3 n=39 v=0
482729 On ch=3 n=35 v=100
482849 On ch=3 n=35 v=0
482868 On ch=3 n=39 v=100
482950 On ch=3 n=24 v=100
482988 On ch=3 n=39 v=0
483033 On ch=3 n=35 v=100
483070 On ch=3 n=24 v=0
483153 On ch=3 n=35 v=0
483192 On ch=3 n=39 v=100
483312 On ch=3 n=39 v=0
483365 On ch=3 n=35 v=100
483485 On ch=3 n=35 v=0
483530 On ch=3 n=39 v=100
483650 On ch=3 n=39 v=0
483744 On ch=3 n=35 v=100
483864 On ch=3 n=35 v=0
483972 On ch=3 n=39 v=100
484092 On ch=3 n=39 v=0
484173 On ch=3 n=35 v=100
484293 On ch=3 n=35 v=0
484414 On ch=3 n=39 v=100
484534 On ch=3 n=39 v=0
484628 On ch=3 n=38 v=100
484628 On ch=3 n=34 v=100
484748 On ch=3 n=38 v=0
484748 On ch=3 n=34 v=0
485940 On ch=3 n=37 v=100
486037 On ch=3 n=35 v=100
486060 On ch=3 n=37 v=0
486127 On ch=3 n=37 v=100
486157 On ch=3 n=35 v=0
486216 On ch=3 n=34 v=100
486247 On ch=3 n=37 v=0
486299 On ch=3 n=36 v=100
486336 On ch=3 n=34 v=0
486419 On ch=3 n=36 v=0
487259 On ch=3 n=42 v=100
487379 On ch=3 n=42 v=0
487452 On ch=3 n=42 v=100
487524 On ch=3 n=42 v=0
487542 On ch=3 n=42 v=100
487572 On ch=3 n=42 v=0
487943 On ch=3 n=42 v=100
488063 On ch=3 n=42 v=0
488219 On ch=3 n=42 v=100
488339 On ch=3 n=42 v=0
488398 On ch=3 n=42 v=100
488492 On ch=3 n=42 v=0
488526 On ch=3 n=42 v=100
488620 On ch=3 n=42 v=0
488661 On ch=3 n=42 v=100
488729 On ch=3 n=42 v=0
488744 On ch=3 n=42 v=100
488781 On ch=3 n=42 v=0
488868 On ch=3 n=42 v=100
488988 On ch=3 n=42 v=0
489082 On ch=3 n=42 v=100
489145 On ch=3 n=42 v=0
489179 On ch=3 n=42 v=100
489202 On ch=3 n=42 v=0
489427 On ch=3 n=42 v=100
489547 On ch=3 n=42 v=0
489779 On ch=3 n=39 v=100
489899 On ch=3 n=39 v=0
489938 On ch=3 n=35 v=100
490058 On ch=3 n=35 v=0
490125 On ch=3 n=39 v=100
490245 On ch=3 n=39 v=0
490629 On ch=3 n=35 v=100
490749 On ch=3 n=35 v=0
490988 On ch=3 n=39 v=100
491108 On ch=3 n=39 v=0
491243 On ch=3 n=35 v=100
491363 On ch=3 n=35 v=0
491485 On ch=3 n=39 v=100
491605 On ch=3 n=39 v=0
491623 On ch=3 n=35 v=100
491740 On ch=3 n=39 v=100
491743 On ch=3 n=35 v=0
491860 On ch=3 n=39 v=0
491885 On ch=3 n=35 v=100
492003 On ch=3 n=39 v=100
492005 On ch=3 n=35 v=0
492123 On ch=3 n=39 v=0
492162 On ch=3 n=35 v=100
492282 On ch=3 n=35 v=0
492307 On ch=3 n=39 v=100
492427 On ch=3 n=39 v=0
492438 On ch=3 n=35 v=100
492558 On ch=3 n=35 v=0
492742 On ch=3 n=38 v=100
492862 On ch=3 n=38 v=0
493101 On ch=3 n=47 v=100
493158 On ch=3 n=47 v=0
493204 On ch=3 n=46 v=100
493261 On ch=3 n=46 v=0
493287 On ch=3 n=47 v=100
493344 On ch=3 n=47 v=0
493577 On ch=3 n=49 v=100
493634 On ch=3 n=49 v=0
493667 On ch=3 n=48 v=100
493724 On ch=3 n=48 v=0
493770 On ch=3 n=49 v=100
493827 On ch=3 n=49 v=0
493920 On ch=3 n=120 v=0
493920 On ch=3 n=121 v=0
493920 On ch=3 n=122 v=0
493920 On ch=3 n=123 v=0
493920 On ch=3 n=124 v=0
494400 On ch=3 n=100 v=100
494400 On ch=3 n=88 v=100
494400 On ch=3 n=76 v=100
494400 On ch=3 n=64 v=100
494447 On ch=3 n=41 v=100
494460 On ch=3 n=100 v=0
494460 On ch=3 n=88 v=0
494460 On ch=3 n=76 v=0
494460 On ch=3 n=64 v=0
494567 On ch=3 n=41 v=0
494880 On ch=3 n=106 v=0
494880 On ch=3 n=105 v=0
495120 Meta Text "[idle_realtime]"
495120 Meta TrkEnd
TrkEnd
MTrk
0 Meta TrkName "PART BASS"
4080 On ch=4 n=43 v=100
11760 On ch=4 n=43 v=0
12960 On ch=4 n=46 v=100
18720 On ch=4 n=106 v=100
18720 On ch=4 n=105 v=100
19200 Meta Text "[play]"
19200 On ch=4 n=97 v=100
19200 On ch=4 n=85 v=100
19200 On ch=4 n=73 v=100
19200 On ch=4 n=61 v=100
19316 On ch=4 n=97 v=0
19316 On ch=4 n=85 v=0
19316 On ch=4 n=73 v=0
19316 On ch=4 n=61 v=0
21120 On ch=4 n=97 v=100
21120 On ch=4 n=85 v=100
21120 On ch=4 n=73 v=100
21120 On ch=4 n=61 v=100
21236 On ch=4 n=97 v=0
21236 On ch=4 n=85 v=0
21236 On ch=4 n=73 v=0
21236 On ch=4 n=61 v=0
23040 On ch=4 n=116 v=100
23040 On ch=4 n=97 v=100
23040 On ch=4 n=85 v=100
23040 On ch=4 n=73 v=100
23040 On ch=4 n=61 v=100
23160 On ch=4 n=116 v=0
30720 Meta Text "[idle]"
31196 On ch=4 n=97 v=0
31196 On ch=4 n=85 v=0
31196 On ch=4 n=73 v=0
31196 On ch=4 n=61 v=0
36720 On ch=4 n=46 v=0
36720 On ch=4 n=105 v=0
37440 On ch=4 n=55 v=100
37920 On ch=4 n=55 v=0
37920 Meta Text "[mellow]"
37920 On ch=4 n=100 v=100
37920 On ch=4 n=88 v=100
37920 On ch=4 n=75 v=100
37920 On ch=4 n=62 v=100
38040 On ch=4 n=100 v=0
38040 On ch=4 n=88 v=0
38040 On ch=4 n=75 v=0
38040 On ch=4 n=62 v=0
38400 On ch=4 n=46 v=100
38400 On ch=4 n=98 v=100
38400 On ch=4 n=86 v=100
38400 On ch=4 n=73 v=100
38400 On ch=4 n=61 v=100
38516 On ch=4 n=73 v=0
38516 On ch=4 n=61 v=0
38520 On ch=4 n=98 v=0
38520 On ch=4 n=86 v=0
38696 On ch=4 n=46 v=0
38880 On ch=4 n=48 v=100
38880 On ch=4 n=99 v=100
38880 On ch=4 n=87 v=100
38880 On ch=4 n=74 v=100
38996 On ch=4 n=74 v=0
39000 On ch=4 n=99 v=0
39000 On ch=4 n=87 v=0
39176 On ch=4 n=48 v=0
39360 On ch=4 n=49 v=100
39360 On ch=4 n=100 v=100
39360 On ch=4 n=88 v=100
39360 On ch=4 n=75 v=100
39360 On ch=4 n=62 v=100
39476 On ch=4 n=75 v=0
39476 On ch=4 n=62 v=0
39480 On ch=4 n=100 v=0
39480 On ch=4 n=88 v=0
39656 On ch=4 n=49 v=0
39840 On ch=4 n=48 v=100
39840 On ch=4 n=99 v=100
39840 On ch=4 n=87 v=100
39840 On ch=4 n=74 v=100
39956 On ch=4 n=74 v=0
39960 On ch=4 n=99 v=0
39960 On ch=4 n=87 v=0
40136 On ch=4 n=48 v=0
40320 On ch=4 n=46 v=100
40320 On ch=4 n=99 v=100
40320 On ch=4 n=87 v=100
40320 On ch=4 n=74 v=100
40320 On ch=4 n=61 v=100
40435 On ch=4 n=74 v=0
40435 On ch=4 n=61 v=0
40440 On ch=4 n=99 v=0
40440 On ch=4 n=87 v=0
40615 On ch=4 n=46 v=0
40800 On ch=4 n=44 v=100
40800 On ch=4 n=98 v=100
40800 On ch=4 n=86 v=100
40800 On ch=4 n=73 v=100
40915 On ch=4 n=73 v=0
40920 On ch=4 n=98 v=0
40920 On ch=4 n=86 v=0
41095 On ch=4 n=44 v=0
41280 On ch=4 n=43 v=100
41280 On ch=4 n=97 v=100
41280 On ch=4 n=85 v=100
41280 On ch=4 n=73 v=100
41280 On ch=4 n=60 v=100
41395 On ch=4 n=73 v=0
41395 On ch=4 n=60 v=0
41400 On ch=4 n=97 v=0
41400 On ch=4 n=85 v=0
41575 On ch=4 n=43 v=0
41760 On ch=4 n=41 v=100
41760 On ch=4 n=96 v=100
41760 On ch=4 n=84 v=100
41760 On ch=4 n=72 v=100
41875 On ch=4 n=72 v=0
41880 On ch=4 n=96 v=0
41880 On ch=4 n=84 v=0
42055 On ch=4 n=41 v=0
42240 On ch=4 n=48 v=100
42240 On ch=4 n=98 v=100
42240 On ch=4 n=86 v=100
42240 On ch=4 n=74 v=100
42240 On ch=4 n=62 v=100
42356 On ch=4 n=74 v=0
42356 On ch=4 n=62 v=0
42360 On ch=4 n=98 v=0
42360 On ch=4 n=86 v=0
42536 On ch=4 n=48 v=0
42720 On ch=4 n=49 v=100
42720 On ch=4 n=99 v=100
42720 On ch=4 n=87 v=100
42720 On ch=4 n=75 v=100
42836 On ch=4 n=75 v=0
42840 On ch=4 n=99 v=0
42840 On ch=4 n=87 v=0
43016 On ch=4 n=49 v=0
43200 On ch=4 n=46 v=100
43200 On ch=4 n=97 v=100
43200 On ch=4 n=85 v=100
43200 On ch=4 n=73 v=100
43200 On ch=4 n=61 v=100
43316 On ch=4 n=73 v=0
43316 On ch=4 n=61 v=0
43320 On ch=4 n=97 v=0
43320 On ch=4 n=85 v=0
43496 On ch=4 n=46 v=0
43680 On ch=4 n=51 v=100
43680 On ch=4 n=99 v=100
43680 On ch=4 n=87 v=100
43680 On ch=4 n=74 v=100
43796 On ch=4 n=74 v=0
43800 On ch=4 n=99 v=0
43800 On ch=4 n=87 v=0
43976 On ch=4 n=51 v=0
44160 On ch=4 n=53 v=100
44160 On ch=4 n=100 v=100
44160 On ch=4 n=88 v=100
44160 On ch=4 n=75 v=100
44160 On ch=4 n=62 v=100
44280 On ch=4 n=100 v=0
44280 On ch=4 n=88 v=0
44280 On ch=4 n=75 v=0
44280 On ch=4 n=62 v=0
44640 On ch=4 n=96 v=100
44640 On ch=4 n=84 v=100
44640 On ch=4 n=72 v=100
44760 On ch=4 n=96 v=0
44760 On ch=4 n=84 v=0
44760 On ch=4 n=72 v=0
45120 On ch=4 n=100 v=100
45120 On ch=4 n=88 v=100
45120 On ch=4 n=75 v=100
45120 On ch=4 n=62 v=100
45240 On ch=4 n=100 v=0
45240 On ch=4 n=88 v=0
45240 On ch=4 n=75 v=0
45240 On ch=4 n=62 v=0
45280 On ch=4 n=100 v=100
45400 On ch=4 n=100 v=0
45440 On ch=4 n=100 v=100
45560 On ch=4 n=100 v=0
45600 On ch=4 n=100 v=100
45600 On ch=4 n=88 v=100
45600 On ch=4 n=75 v=100
45720 On ch=4 n=100 v=0
45720 On ch=4 n=88 v=0
45720 On ch=4 n=75 v=0
45896 On ch=4 n=53 v=0
46080 Meta Text "[play]"
46080 On ch=4 n=46 v=100
46080 On ch=4 n=105 v=100
46080 On ch=4 n=116 v=100
46080 On ch=4 n=98 v=100
46080 On ch=4 n=86 v=100
46080 On ch=4 n=73 v=100
46080 On ch=4 n=61 v=100
46196 On ch=4 n=73 v=0
46196 On ch=4 n=61 v=0
46200 On ch=4 n=98 v=0
46200 On ch=4 n=86 v=0
46376 On ch=4 n=46 v=0
46560 On ch=4 n=48 v=100
46560 On ch=4 n=99 v=100
46560 On ch=4 n=87 v=100
46560 On ch=4 n=74 v=100
46676 On ch=4 n=74 v=0
46680 On ch=4 n=99 v=0
46680 On ch=4 n=87 v=0
46856 On ch=4 n=48 v=0
47040 On ch=4 n=49 v=100
47040 On ch=4 n=100 v=100
47040 On ch=4 n=88 v=100
47040 On ch=4 n=75 v=100
47040 On ch=4 n=62 v=100
47156 On ch=4 n=75 v=0
47156 On ch=4 n=62 v=0
47160 On ch=4 n=100 v=0
47160 On ch=4 n=88 v=0
47336 On ch=4 n=49 v=0
47520 On ch=4 n=48 v=100
47520 On ch=4 n=99 v=100
47520 On ch=4 n=87 v=100
47520 On ch=4 n=74 v=100
47636 On ch=4 n=74 v=0
47640 On ch=4 n=99 v=0
47640 On ch=4 n=87 v=0
47816 On ch=4 n=48 v=0
48000 On ch=4 n=46 v=100
48000 On ch=4 n=99 v=100
48000 On ch=4 n=87 v=100
48000 On ch=4 n=74 v=100
48000 On ch=4 n=61 v=100
48115 On ch=4 n=74 v=0
48115 On ch=4 n=61 v=0
48120 On ch=4 n=99 v=0
48120 On ch=4 n=87 v=0
48295 On ch=4 n=46 v=0
48480 On ch=4 n=44 v=100
48480 On ch=4 n=98 v=100
48480 On ch=4 n=86 v=100
48480 On ch=4 n=73 v=100
48595 On ch=4 n=73 v=0
48600 On ch=4 n=98 v=0
48600 On ch=4 n=86 v=0
48775 On ch=4 n=44 v=0
48960 On ch=4 n=43 v=100
48960 On ch=4 n=97 v=100
48960 On ch=4 n=85 v=100
48960 On ch=4 n=73 v=100
48960 On ch=4 n=60 v=100
49075 On ch=4 n=73 v=0
49075 On ch=4 n=60 v=0
49080 On ch=4 n=97 v=0
49080 On ch=4 n=85 v=0
49255 On ch=4 n=43 v=0
49440 On ch=4 n=41 v=100
49440 On ch=4 n=96 v=100
49440 On ch=4 n=84 v=100
49440 On ch=4 n=72 v=100
49555 On ch=4 n=72 v=0
49560 On ch=4 n=96 v=0
49560 On ch=4 n=84 v=0
49735 On ch=4 n=41 v=0
49920 On ch=4 n=116 v=0
49920 On ch=4 n=48 v=100
49920 On ch=4 n=98 v=100
49920 On ch=4 n=86 v=100
49920 On ch=4 n=74 v=100
49920 On ch=4 n=62 v=100
50036 On ch=4 n=74 v=0
50036 On ch=4 n=62 v=0
50040 On ch=4 n=98 v=0
50040 On ch=4 n=86 v=0
50216 On ch=4 n=48 v=0
50400 On ch=4 n=49 v=100
50400 On ch=4 n=99 v=100
50400 On ch=4 n=87 v=100
50400 On ch=4 n=75 v=100
50516 On ch=4 n=75 v=0
50520 On ch=4 n=99 v=0
50520 On ch=4 n=87 v=0
50696 On ch=4 n=49 v=0
50880 On ch=4 n=46 v=100
50880 On ch=4 n=97 v=100
50880 On ch=4 n=85 v=100
50880 On ch=4 n=73 v=100
50880 On ch=4 n=61 v=100
50996 On ch=4 n=73 v=0
50996 On ch=4 n=61 v=0
51000 On ch=4 n=97 v=0
51000 On ch=4 n=85 v=0
51176 On ch=4 n=46 v=0
51360 On ch=4 n=51 v=100
51360 On ch=4 n=99 v=100
51360 On ch=4 n=87 v=100
51360 On ch=4 n=74 v=100
51476 On ch=4 n=74 v=0
51480 On ch=4 n=99 v=0
51480 On ch=4 n=87 v=0
51656 On ch=4 n=51 v=0
51840 On ch=4 n=53 v=100
51840 On ch=4 n=100 v=100
51840 On ch=4 n=88 v=100
51840 On ch=4 n=75 v=100
51840 On ch=4 n=62 v=100
51960 On ch=4 n=100 v=0
51960 On ch=4 n=88 v=0
51960 On ch=4 n=75 v=0
51960 On ch=4 n=62 v=0
52320 On ch=4 n=100 v=100
52320 On ch=4 n=88 v=100
52320 On ch=4 n=75 v=100
52440 On ch=4 n=100 v=0
52440 On ch=4 n=88 v=0
52440 On ch=4 n=75 v=0
52480 On ch=4 n=100 v=100
52600 On ch=4 n=100 v=0
52640 On ch=4 n=100 v=100
52760 On ch=4 n=100 v=0
52800 On ch=4 n=96 v=100
52800 On ch=4 n=84 v=100
52800 On ch=4 n=72 v=100
52800 On ch=4 n=62 v=100
52920 On ch=4 n=96 v=0
52920 On ch=4 n=84 v=0
52920 On ch=4 n=72 v=0
52920 On ch=4 n=62 v=0
53280 On ch=4 n=100 v=100
53280 On ch=4 n=88 v=100
53280 On ch=4 n=75 v=100
53400 On ch=4 n=100 v=0
53400 On ch=4 n=88 v=0
53400 On ch=4 n=75 v=0
53576 On ch=4 n=53 v=0
53756 On ch=4 n=106 v=0
53760 On ch=4 n=46 v=100
53760 On ch=4 n=98 v=100
53760 On ch=4 n=86 v=100
53760 On ch=4 n=73 v=100
53760 On ch=4 n=61 v=100
53876 On ch=4 n=73 v=0
53876 On ch=4 n=61 v=0
53880 On ch=4 n=98 v=0
53880 On ch=4 n=86 v=0
54056 On ch=4 n=46 v=0
54240 On ch=4 n=48 v=100
54240 On ch=4 n=99 v=100
54240 On ch=4 n=87 v=100
54240 On ch=4 n=74 v=100
54356 On ch=4 n=74 v=0
54360 On ch=4 n=99 v=0
54360 On ch=4 n=87 v=0
54536 On ch=4 n=48 v=0
54720 On ch=4 n=46 v=100
54720 On ch=4 n=98 v=100
54720 On ch=4 n=86 v=100
54720 On ch=4 n=73 v=100
54720 On ch=4 n=61 v=100
54836 On ch=4 n=73 v=0
54836 On ch=4 n=61 v=0
54840 On ch=4 n=98 v=0
54840 On ch=4 n=86 v=0
54880 On ch=4 n=98 v=100
55000 On ch=4 n=98 v=0
55016 On ch=4 n=46 v=0
55040 On ch=4 n=98 v=100
55160 On ch=4 n=98 v=0
55200 On ch=4 n=48 v=100
55200 On ch=4 n=99 v=100
55200 On ch=4 n=87 v=100
55200 On ch=4 n=74 v=100
55316 On ch=4 n=74 v=0
55320 On ch=4 n=99 v=0
55320 On ch=4 n=87 v=0
55496 On ch=4 n=48 v=0
55680 On ch=4 n=49 v=100
55680 On ch=4 n=100 v=100
55680 On ch=4 n=88 v=100
55680 On ch=4 n=75 v=100
55680 On ch=4 n=62 v=100
55796 On ch=4 n=75 v=0
55796 On ch=4 n=62 v=0
55800 On ch=4 n=100 v=0
55800 On ch=4 n=88 v=0
55976 On ch=4 n=49 v=0
56160 On ch=4 n=44 v=100
56160 On ch=4 n=97 v=100
56160 On ch=4 n=85 v=100
56160 On ch=4 n=73 v=100
56276 On ch=4 n=73 v=0
56280 On ch=4 n=97 v=0
56280 On ch=4 n=85 v=0
56456 On ch=4 n=44 v=0
56640 On ch=4 n=49 v=100
56640 On ch=4 n=100 v=100
56640 On ch=4 n=88 v=100
56640 On ch=4 n=75 v=100
56640 On ch=4 n=62 v=100
56756 On ch=4 n=75 v=0
56756 On ch=4 n=62 v=0
56760 On ch=4 n=100 v=0
56760 On ch=4 n=88 v=0
56800 On ch=4 n=100 v=100
56920 On ch=4 n=100 v=0
56936 On ch=4 n=49 v=0
56960 On ch=4 n=100 v=100
57080 On ch=4 n=100 v=0
57120 On ch=4 n=44 v=100
57120 On ch=4 n=97 v=100
57120 On ch=4 n=85 v=100
57120 On ch=4 n=73 v=100
57236 On ch=4 n=73 v=0
57240 On ch=4 n=97 v=0
57240 On ch=4 n=85 v=0
57416 On ch=4 n=44 v=0
57596 On ch=4 n=105 v=0
57600 On ch=4 n=49 v=100
57600 On ch=4 n=106 v=100
57600 On ch=4 n=100 v=100
57600 On ch=4 n=88 v=100
57600 On ch=4 n=75 v=100
57600 On ch=4 n=62 v=100
57715 On ch=4 n=75 v=0
57715 On ch=4 n=62 v=0
57720 On ch=4 n=100 v=0
57720 On ch=4 n=88 v=0
57895 On ch=4 n=49 v=0
58080 On ch=4 n=44 v=100
58080 On ch=4 n=97 v=100
58080 On ch=4 n=85 v=100
58080 On ch=4 n=73 v=100
58195 On ch=4 n=73 v=0
58200 On ch=4 n=97 v=0
58200 On ch=4 n=85 v=0
58375 On ch=4 n=44 v=0
58560 On ch=4 n=46 v=100
58560 On ch=4 n=98 v=100
58560 On ch=4 n=86 v=100
58560 On ch=4 n=74 v=100
58560 On ch=4 n=61 v=100
58675 On ch=4 n=74 v=0
58675 On ch=4 n=61 v=0
58680 On ch=4 n=98 v=0
58680 On ch=4 n=86 v=0
58855 On ch=4 n=46 v=0
59040 On ch=4 n=41 v=100
59040 On ch=4 n=96 v=100
59040 On ch=4 n=84 v=100
59040 On ch=4 n=72 v=100
59155 On ch=4 n=72 v=0
59160 On ch=4 n=96 v=0
59160 On ch=4 n=84 v=0
59335 On ch=4 n=41 v=0
59520 On ch=4 n=42 v=100
59520 On ch=4 n=116 v=100
59520 On ch=4 n=97 v=100
59520 On ch=4 n=85 v=100
59520 On ch=4 n=73 v=100
59520 On ch=4 n=60 v=100
59636 On ch=4 n=73 v=0
59636 On ch=4 n=60 v=0
59640 On ch=4 n=97 v=0
59640 On ch=4 n=85 v=0
59816 On ch=4 n=42 v=0
60000 On ch=4 n=49 v=100
60000 On ch=4 n=98 v=100
60000 On ch=4 n=86 v=100
60000 On ch=4 n=73 v=100
60116 On ch=4 n=73 v=0
60120 On ch=4 n=98 v=0
60120 On ch=4 n=86 v=0
60296 On ch=4 n=49 v=0
60480 On ch=4 n=51 v=100
60480 On ch=4 n=99 v=100
60480 On ch=4 n=87 v=100
60480 On ch=4 n=74 v=100
60480 On ch=4 n=61 v=100
60596 On ch=4 n=74 v=0
60596 On ch=4 n=61 v=0
60600 On ch=4 n=99 v=0
60600 On ch=4 n=87 v=0
60776 On ch=4 n=51 v=0
60960 On ch=4 n=53 v=100
60960 On ch=4 n=100 v=100
60960 On ch=4 n=88 v=100
60960 On ch=4 n=75 v=100
61076 On ch=4 n=75 v=0
61080 On ch=4 n=100 v=0
61080 On ch=4 n=88 v=0
61256 On ch=4 n=53 v=0
61440 On ch=4 n=46 v=100
61440 On ch=4 n=98 v=100
61440 On ch=4 n=86 v=100
61440 On ch=4 n=74 v=100
61440 On ch=4 n=61 v=100
61560 On ch=4 n=116 v=0
62636 On ch=4 n=74 v=0
62636 On ch=4 n=61 v=0
62696 On ch=4 n=46 v=0
62760 On ch=4 n=98 v=0
62760 On ch=4 n=86 v=0
62880 On ch=4 n=44 v=100
62880 On ch=4 n=105 v=100
62880 On ch=4 n=97 v=100
62880 On ch=4 n=85 v=100
62880 On ch=4 n=73 v=100
62996 On ch=4 n=73 v=0
63000 On ch=4 n=97 v=0
63000 On ch=4 n=85 v=0
63176 On ch=4 n=44 v=0
63360 On ch=4 n=49 v=100
63360 On ch=4 n=100 v=100
63360 On ch=4 n=88 v=100
63360 On ch=4 n=75 v=100
63360 On ch=4 n=62 v=100
64556 On ch=4 n=75 v=0
64556 On ch=4 n=62 v=0
64616 On ch=4 n=49 v=0
64680 On ch=4 n=100 v=0
64680 On ch=4 n=88 v=0
64800 On ch=4 n=44 v=100
64800 On ch=4 n=97 v=100
64800 On ch=4 n=85 v=100
64800 On ch=4 n=73 v=100
64916 On ch=4 n=73 v=0
64920 On ch=4 n=97 v=0
64920 On ch=4 n=85 v=0
65096 On ch=4 n=44 v=0
65280 On ch=4 n=46 v=100
65280 On ch=4 n=98 v=100
65280 On ch=4 n=86 v=100
65280 On ch=4 n=74 v=100
65280 On ch=4 n=61 v=100
66476 On ch=4 n=74 v=0
66476 On ch=4 n=61 v=0
66536 On ch=4 n=46 v=0
66600 On ch=4 n=98 v=0
66600 On ch=4 n=86 v=0
66720 On ch=4 n=48 v=100
66720 On ch=4 n=99 v=100
66720 On ch=4 n=87 v=100
66720 On ch=4 n=74 v=100
66836 On ch=4 n=74 v=0
66840 On ch=4 n=99 v=0
66840 On ch=4 n=87 v=0
67016 On ch=4 n=48 v=0
67200 On ch=4 n=49 v=100
67200 On ch=4 n=100 v=100
67200 On ch=4 n=88 v=100
67200 On ch=4 n=75 v=100
67200 On ch=4 n=62 v=100
68396 On ch=4 n=106 v=0
68396 On ch=4 n=75 v=0
68396 On ch=4 n=62 v=0
68456 On ch=4 n=49 v=0
68520 On ch=4 n=100 v=0
68520 On ch=4 n=88 v=0
68640 On ch=4 n=44 v=100
68640 On ch=4 n=97 v=100
68640 On ch=4 n=85 v=100
68640 On ch=4 n=73 v=100
68756 On ch=4 n=73 v=0
68760 On ch=4 n=97 v=0
68760 On ch=4 n=85 v=0
68936 On ch=4 n=44 v=0
69120 On ch=4 n=46 v=100
69120 On ch=4 n=98 v=100
69120 On ch=4 n=86 v=100
69120 On ch=4 n=74 v=100
69120 On ch=4 n=61 v=100
69236 On ch=4 n=74 v=0
69236 On ch=4 n=61 v=0
69240 On ch=4 n=98 v=0
69240 On ch=4 n=86 v=0
69416 On ch=4 n=46 v=0
69600 On ch=4 n=44 v=100
69600 On ch=4 n=97 v=100
69600 On ch=4 n=85 v=100
69600 On ch=4 n=73 v=100
69716 On ch=4 n=73 v=0
69720 On ch=4 n=97 v=0
69720 On ch=4 n=85 v=0
69896 On ch=4 n=44 v=0
70080 On ch=4 n=49 v=100
70080 On ch=4 n=100 v=100
70080 On ch=4 n=88 v=100
70080 On ch=4 n=75 v=100
70080 On ch=4 n=62 v=100
70196 On ch=4 n=75 v=0
70196 On ch=4 n=62 v=0
70200 On ch=4 n=100 v=0
70200 On ch=4 n=88 v=0
70376 On ch=4 n=49 v=0
70560 On ch=4 n=44 v=100
70560 On ch=4 n=97 v=100
70560 On ch=4 n=85 v=100
70560 On ch=4 n=73 v=100
70676 On ch=4 n=73 v=0
70680 On ch=4 n=97 v=0
70680 On ch=4 n=85 v=0
70856 On ch=4 n=44 v=0
71040 On ch=4 n=46 v=100
71040 On ch=4 n=98 v=100
71040 On ch=4 n=86 v=100
71040 On ch=4 n=74 v=100
71040 On ch=4 n=61 v=100
71156 On ch=4 n=74 v=0
71156 On ch=4 n=61 v=0
71160 On ch=4 n=98 v=0
71160 On ch=4 n=86 v=0
71336 On ch=4 n=46 v=0
71520 On ch=4 n=48 v=100
71520 On ch=4 n=99 v=100
71520 On ch=4 n=87 v=100
71520 On ch=4 n=74 v=100
71636 On ch=4 n=74 v=0
71640 On ch=4 n=99 v=0
71640 On ch=4 n=87 v=0
71816 On ch=4 n=48 v=0
72000 On ch=4 n=49 v=100
72000 On ch=4 n=100 v=100
72000 On ch=4 n=88 v=100
72000 On ch=4 n=75 v=100
72000 On ch=4 n=62 v=100
72116 On ch=4 n=75 v=0
72116 On ch=4 n=62 v=0
72120 On ch=4 n=100 v=0
72120 On ch=4 n=88 v=0
72296 On ch=4 n=49 v=0
72480 On ch=4 n=44 v=100
72480 On ch=4 n=97 v=100
72480 On ch=4 n=85 v=100
72480 On ch=4 n=73 v=100
72596 On ch=4 n=73 v=0
72600 On ch=4 n=97 v=0
72600 On ch=4 n=85 v=0
72776 On ch=4 n=44 v=0
72960 On ch=4 n=46 v=100
72960 On ch=4 n=106 v=100
72960 On ch=4 n=98 v=100
72960 On ch=4 n=86 v=100
72960 On ch=4 n=74 v=100
72960 On ch=4 n=61 v=100
73076 On ch=4 n=74 v=0
73076 On ch=4 n=61 v=0
73080 On ch=4 n=98 v=0
73080 On ch=4 n=86 v=0
73256 On ch=4 n=46 v=0
73440 On ch=4 n=44 v=100
73440 On ch=4 n=97 v=100
73440 On ch=4 n=85 v=100
73440 On ch=4 n=73 v=100
73556 On ch=4 n=73 v=0
73560 On ch=4 n=97 v=0
73560 On ch=4 n=85 v=0
73736 On ch=4 n=44 v=0
73920 On ch=4 n=42 v=100
73920 On ch=4 n=96 v=100
73920 On ch=4 n=84 v=100
73920 On ch=4 n=72 v=100
73920 On ch=4 n=60 v=100
74036 On ch=4 n=72 v=0
74036 On ch=4 n=60 v=0
74040 On ch=4 n=96 v=0
74040 On ch=4 n=84 v=0
74216 On ch=4 n=42 v=0
74400 On ch=4 n=51 v=100
74400 On ch=4 n=98 v=100
74400 On ch=4 n=86 v=100
74400 On ch=4 n=74 v=100
74516 On ch=4 n=74 v=0
74520 On ch=4 n=98 v=0
74520 On ch=4 n=86 v=0
74696 On ch=4 n=51 v=0
74880 On ch=4 n=53 v=100
74880 On ch=4 n=99 v=100
74880 On ch=4 n=87 v=100
74880 On ch=4 n=75 v=100
74880 On ch=4 n=62 v=100
74996 On ch=4 n=75 v=0
74996 On ch=4 n=62 v=0
75000 On ch=4 n=99 v=0
75000 On ch=4 n=87 v=0
75360 On ch=4 n=99 v=100
75360 On ch=4 n=87 v=100
75360 On ch=4 n=75 v=100
75476 On ch=4 n=75 v=0
75480 On ch=4 n=99 v=0
75480 On ch=4 n=87 v=0
75840 On ch=4 n=99 v=100
75840 On ch=4 n=87 v=100
75840 On ch=4 n=75 v=100
75840 On ch=4 n=62 v=100
75956 On ch=4 n=75 v=0
75956 On ch=4 n=62 v=0
75960 On ch=4 n=99 v=0
75960 On ch=4 n=87 v=0
76320 On ch=4 n=99 v=100
76320 On ch=4 n=87 v=100
76320 On ch=4 n=75 v=100
76436 On ch=4 n=75 v=0
76440 On ch=4 n=99 v=0
76440 On ch=4 n=87 v=0
76616 On ch=4 n=53 v=0
76800 Meta Text "[mellow]"
76800 On ch=4 n=55 v=100
76800 On ch=4 n=116 v=100
76800 On ch=4 n=100 v=100
76800 On ch=4 n=88 v=100
76800 On ch=4 n=75 v=100
76800 On ch=4 n=62 v=100
76920 On ch=4 n=116 v=0
80280 On ch=4 n=55 v=0
80280 On ch=4 n=62 v=0
80400 On ch=4 n=88 v=0
80400 On ch=4 n=75 v=0
80520 On ch=4 n=100 v=0
80640 On ch=4 n=46 v=100
80640 On ch=4 n=98 v=100
80640 On ch=4 n=86 v=100
80640 On ch=4 n=73 v=100
80640 On ch=4 n=60 v=100
84000 On ch=4 n=106 v=0
84000 On ch=4 n=46 v=0
84000 On ch=4 n=60 v=0
84120 On ch=4 n=98 v=0
84120 On ch=4 n=86 v=0
84120 On ch=4 n=73 v=0
84320 On ch=4 n=98 v=100
84440 On ch=4 n=98 v=0
84480 On ch=4 n=46 v=100
84480 On ch=4 n=98 v=100
84480 On ch=4 n=86 v=100
84480 On ch=4 n=73 v=100
84480 On ch=4 n=61 v=100
84596 On ch=4 n=73 v=0
84596 On ch=4 n=61 v=0
84600 On ch=4 n=98 v=0
84600 On ch=4 n=86 v=0
84776 On ch=4 n=46 v=0
84960 On ch=4 n=48 v=100
84960 On ch=4 n=99 v=100
84960 On ch=4 n=87 v=100
84960 On ch=4 n=74 v=100
85076 On ch=4 n=74 v=0
85080 On ch=4 n=99 v=0
85080 On ch=4 n=87 v=0
85256 On ch=4 n=48 v=0
85440 On ch=4 n=49 v=100
85440 On ch=4 n=100 v=100
85440 On ch=4 n=88 v=100
85440 On ch=4 n=75 v=100
85440 On ch=4 n=62 v=100
85556 On ch=4 n=75 v=0
85556 On ch=4 n=62 v=0
85560 On ch=4 n=100 v=0
85560 On ch=4 n=88 v=0
85736 On ch=4 n=49 v=0
85920 On ch=4 n=48 v=100
85920 On ch=4 n=99 v=100
85920 On ch=4 n=87 v=100
85920 On ch=4 n=74 v=100
86036 On ch=4 n=74 v=0
86040 On ch=4 n=99 v=0
86040 On ch=4 n=87 v=0
86216 On ch=4 n=48 v=0
86400 On ch=4 n=46 v=100
86400 On ch=4 n=99 v=100
86400 On ch=4 n=87 v=100
86400 On ch=4 n=74 v=100
86400 On ch=4 n=61 v=100
86516 On ch=4 n=74 v=0
86516 On ch=4 n=61 v=0
86520 On ch=4 n=99 v=0
86520 On ch=4 n=87 v=0
86696 On ch=4 n=46 v=0
86880 On ch=4 n=44 v=100
86880 On ch=4 n=98 v=100
86880 On ch=4 n=86 v=100
86880 On ch=4 n=73 v=100
86996 On ch=4 n=73 v=0
87000 On ch=4 n=98 v=0
87000 On ch=4 n=86 v=0
87176 On ch=4 n=44 v=0
87360 On ch=4 n=43 v=100
87360 On ch=4 n=97 v=100
87360 On ch=4 n=85 v=100
87360 On ch=4 n=73 v=100
87360 On ch=4 n=60 v=100
87476 On ch=4 n=73 v=0
87476 On ch=4 n=60 v=0
87480 On ch=4 n=97 v=0
87480 On ch=4 n=85 v=0
87656 On ch=4 n=43 v=0
87840 On ch=4 n=41 v=100
87840 On ch=4 n=96 v=100
87840 On ch=4 n=84 v=100
87840 On ch=4 n=72 v=100
87956 On ch=4 n=72 v=0
87960 On ch=4 n=96 v=0
87960 On ch=4 n=84 v=0
88136 On ch=4 n=41 v=0
88320 On ch=4 n=48 v=100
88320 On ch=4 n=116 v=100
88320 On ch=4 n=98 v=100
88320 On ch=4 n=86 v=100
88320 On ch=4 n=74 v=100
88320 On ch=4 n=62 v=100
88435 On ch=4 n=74 v=0
88435 On ch=4 n=62 v=0
88440 On ch=4 n=98 v=0
88440 On ch=4 n=86 v=0
88615 On ch=4 n=48 v=0
88800 On ch=4 n=49 v=100
88800 On ch=4 n=99 v=100
88800 On ch=4 n=87 v=100
88800 On ch=4 n=75 v=100
88915 On ch=4 n=75 v=0
88920 On ch=4 n=99 v=0
88920 On ch=4 n=87 v=0
89095 On ch=4 n=49 v=0
89280 On ch=4 n=46 v=100
89280 On ch=4 n=97 v=100
89280 On ch=4 n=85 v=100
89280 On ch=4 n=73 v=100
89280 On ch=4 n=61 v=100
89395 On ch=4 n=73 v=0
89395 On ch=4 n=61 v=0
89400 On ch=4 n=97 v=0
89400 On ch=4 n=85 v=0
89575 On ch=4 n=46 v=0
89760 On ch=4 n=51 v=100
89760 On ch=4 n=99 v=100
89760 On ch=4 n=87 v=100
89760 On ch=4 n=74 v=100
89875 On ch=4 n=74 v=0
89880 On ch=4 n=99 v=0
89880 On ch=4 n=87 v=0
90055 On ch=4 n=51 v=0
90240 On ch=4 n=53 v=100
90240 On ch=4 n=100 v=100
90240 On ch=4 n=88 v=100
90240 On ch=4 n=75 v=100
90240 On ch=4 n=62 v=100
90360 On ch=4 n=100 v=0
90360 On ch=4 n=88 v=0
90360 On ch=4 n=75 v=0
90360 On ch=4 n=62 v=0
90720 On ch=4 n=96 v=100
90720 On ch=4 n=84 v=100
90720 On ch=4 n=72 v=100
90840 On ch=4 n=96 v=0
90840 On ch=4 n=84 v=0
90840 On ch=4 n=72 v=0
91200 On ch=4 n=100 v=100
91200 On ch=4 n=88 v=100
91200 On ch=4 n=75 v=100
91200 On ch=4 n=62 v=100
91320 On ch=4 n=100 v=0
91320 On ch=4 n=88 v=0
91320 On ch=4 n=75 v=0
91320 On ch=4 n=62 v=0
91360 On ch=4 n=100 v=100
91480 On ch=4 n=100 v=0
91520 On ch=4 n=100 v=100
91640 On ch=4 n=100 v=0
91680 On ch=4 n=100 v=100
91680 On ch=4 n=88 v=100
91680 On ch=4 n=75 v=100
91800 On ch=4 n=100 v=0
91800 On ch=4 n=88 v=0
91800 On ch=4 n=75 v=0
91975 On ch=4 n=53 v=0
92160 On ch=4 n=116 v=0
92160 Meta Text "[play]"
92160 On ch=4 n=46 v=100
92160 On ch=4 n=106 v=100
92160 On ch=4 n=98 v=100
92160 On ch=4 n=86 v=100
92160 On ch=4 n=73 v=100
92160 On ch=4 n=61 v=100
92276 On ch=4 n=73 v=0
92276 On ch=4 n=61 v=0
92280 On ch=4 n=98 v=0
92280 On ch=4 n=86 v=0
92456 On ch=4 n=46 v=0
92640 On ch=4 n=48 v=100
92640 On ch=4 n=99 v=100
92640 On ch=4 n=87 v=100
92640 On ch=4 n=74 v=100
92756 On ch=4 n=74 v=0
92760 On ch=4 n=99 v=0
92760 On ch=4 n=87 v=0
92936 On ch=4 n=48 v=0
93120 On ch=4 n=49 v=100
93120 On ch=4 n=100 v=100
93120 On ch=4 n=88 v=100
93120 On ch=4 n=75 v=100
93120 On ch=4 n=62 v=100
93236 On ch=4 n=75 v=0
93236 On ch=4 n=62 v=0
93240 On ch=4 n=100 v=0
93240 On ch=4 n=88 v=0
93280 On ch=4 n=100 v=100
93400 On ch=4 n=100 v=0
93416 On ch=4 n=49 v=0
93440 On ch=4 n=100 v=100
93560 On ch=4 n=100 v=0
93600 On ch=4 n=48 v=100
93600 On ch=4 n=99 v=100
93600 On ch=4 n=87 v=100
93600 On ch=4 n=74 v=100
93716 On ch=4 n=74 v=0
93720 On ch=4 n=99 v=0
93720 On ch=4 n=87 v=0
93896 On ch=4 n=48 v=0
94080 On ch=4 n=46 v=100
94080 On ch=4 n=99 v=100
94080 On ch=4 n=87 v=100
94080 On ch=4 n=74 v=100
94080 On ch=4 n=61 v=100
94196 On ch=4 n=74 v=0
94196 On ch=4 n=61 v=0
94200 On ch=4 n=99 v=0
94200 On ch=4 n=87 v=0
94376 On ch=4 n=46 v=0
94560 On ch=4 n=44 v=100
94560 On ch=4 n=98 v=100
94560 On ch=4 n=86 v=100
94560 On ch=4 n=73 v=100
94676 On ch=4 n=73 v=0
94680 On ch=4 n=98 v=0
94680 On ch=4 n=86 v=0
94856 On ch=4 n=44 v=0
95040 On ch=4 n=43 v=100
95040 On ch=4 n=97 v=100
95040 On ch=4 n=85 v=100
95040 On ch=4 n=73 v=100
95040 On ch=4 n=60 v=100
95156 On ch=4 n=73 v=0
95156 On ch=4 n=60 v=0
95160 On ch=4 n=97 v=0
95160 On ch=4 n=85 v=0
95336 On ch=4 n=43 v=0
95520 On ch=4 n=41 v=100
95520 On ch=4 n=96 v=100
95520 On ch=4 n=84 v=100
95520 On ch=4 n=72 v=100
95636 On ch=4 n=72 v=0
95640 On ch=4 n=96 v=0
95640 On ch=4 n=84 v=0
95816 On ch=4 n=41 v=0
96000 On ch=4 n=48 v=100
96000 On ch=4 n=98 v=100
96000 On ch=4 n=86 v=100
96000 On ch=4 n=74 v=100
96000 On ch=4 n=62 v=100
96115 On ch=4 n=74 v=0
96115 On ch=4 n=62 v=0
96120 On ch=4 n=98 v=0
96120 On ch=4 n=86 v=0
96295 On ch=4 n=48 v=0
96480 On ch=4 n=49 v=100
96480 On ch=4 n=99 v=100
96480 On ch=4 n=87 v=100
96480 On ch=4 n=75 v=100
96595 On ch=4 n=75 v=0
96600 On ch=4 n=99 v=0
96600 On ch=4 n=87 v=0
96775 On ch=4 n=49 v=0
96960 On ch=4 n=46 v=100
96960 On ch=4 n=97 v=100
96960 On ch=4 n=85 v=100
96960 On ch=4 n=73 v=100
96960 On ch=4 n=61 v=100
97075 On ch=4 n=73 v=0
97075 On ch=4 n=61 v=0
97080 On ch=4 n=97 v=0
97080 On ch=4 n=85 v=0
97255 On ch=4 n=46 v=0
97440 On ch=4 n=51 v=100
97440 On ch=4 n=99 v=100
97440 On ch=4 n=87 v=100
97440 On ch=4 n=74 v=100
97555 On ch=4 n=74 v=0
97560 On ch=4 n=99 v=0
97560 On ch=4 n=87 v=0
97735 On ch=4 n=51 v=0
97920 On ch=4 n=53 v=100
97920 On ch=4 n=100 v=100
97920 On ch=4 n=88 v=100
97920 On ch=4 n=75 v=100
97920 On ch=4 n=62 v=100
98040 On ch=4 n=100 v=0
98040 On ch=4 n=88 v=0
98040 On ch=4 n=75 v=0
98040 On ch=4 n=62 v=0
98400 On ch=4 n=84 v=100
98400 On ch=4 n=72 v=100
98400 On ch=4 n=100 v=100
98520 On ch=4 n=84 v=0
98520 On ch=4 n=72 v=0
98520 On ch=4 n=100 v=0
98560 On ch=4 n=96 v=100
98680 On ch=4 n=96 v=0
98880 On ch=4 n=100 v=100
98880 On ch=4 n=88 v=100
98880 On ch=4 n=75 v=100
98880 On ch=4 n=62 v=100
99000 On ch=4 n=100 v=0
99000 On ch=4 n=88 v=0
99000 On ch=4 n=75 v=0
99000 On ch=4 n=62 v=0
99040 On ch=4 n=100 v=100
99160 On ch=4 n=100 v=0
99200 On ch=4 n=100 v=100
99320 On ch=4 n=100 v=0
99360 On ch=4 n=100 v=100
99360 On ch=4 n=88 v=100
99360 On ch=4 n=75 v=100
99480 On ch=4 n=100 v=0
99480 On ch=4 n=88 v=0
99480 On ch=4 n=75 v=0
99655 On ch=4 n=53 v=0
99835 On ch=4 n=105 v=0
99840 On ch=4 n=46 v=100
99840 On ch=4 n=98 v=100
99840 On ch=4 n=86 v=100
99840 On ch=4 n=73 v=100
99840 On ch=4 n=61 v=100
99955 On ch=4 n=73 v=0
99955 On ch=4 n=61 v=0
99960 On ch=4 n=98 v=0
99960 On ch=4 n=86 v=0
100135 On ch=4 n=46 v=0
100320 On ch=4 n=48 v=100
100320 On ch=4 n=99 v=100
100320 On ch=4 n=87 v=100
100320 On ch=4 n=74 v=100
100435 On ch=4 n=74 v=0
100440 On ch=4 n=99 v=0
100440 On ch=4 n=87 v=0
100615 On ch=4 n=48 v=0
100800 On ch=4 n=46 v=100
100800 On ch=4 n=98 v=100
100800 On ch=4 n=86 v=100
100800 On ch=4 n=73 v=100
100800 On ch=4 n=61 v=100
100915 On ch=4 n=73 v=0
100915 On ch=4 n=61 v=0
100920 On ch=4 n=98 v=0
100920 On ch=4 n=86 v=0
101095 On ch=4 n=46 v=0
101280 On ch=4 n=48 v=100
101280 On ch=4 n=99 v=100
101280 On ch=4 n=87 v=100
101280 On ch=4 n=74 v=100
101395 On ch=4 n=74 v=0
101400 On ch=4 n=99 v=0
101400 On ch=4 n=87 v=0
101575 On ch=4 n=48 v=0
101760 On ch=4 n=49 v=100
101760 On ch=4 n=100 v=100
101760 On ch=4 n=88 v=100
101760 On ch=4 n=75 v=100
101760 On ch=4 n=62 v=100
101876 On ch=4 n=75 v=0
101876 On ch=4 n=62 v=0
101880 On ch=4 n=100 v=0
101880 On ch=4 n=88 v=0
101920 On ch=4 n=100 v=100
102040 On ch=4 n=100 v=0
102056 On ch=4 n=49 v=0
102080 On ch=4 n=100 v=100
102200 On ch=4 n=100 v=0
102240 On ch=4 n=44 v=100
102240 On ch=4 n=97 v=100
102240 On ch=4 n=85 v=100
102240 On ch=4 n=73 v=100
102356 On ch=4 n=73 v=0
102360 On ch=4 n=97 v=0
102360 On ch=4 n=85 v=0
102536 On ch=4 n=44 v=0
102720 On ch=4 n=49 v=100
102720 On ch=4 n=100 v=100
102720 On ch=4 n=88 v=100
102720 On ch=4 n=75 v=100
102720 On ch=4 n=62 v=100
102836 On ch=4 n=75 v=0
102836 On ch=4 n=62 v=0
102840 On ch=4 n=100 v=0
102840 On ch=4 n=88 v=0
103016 On ch=4 n=49 v=0
103200 On ch=4 n=44 v=100
103200 On ch=4 n=97 v=100
103200 On ch=4 n=85 v=100
103200 On ch=4 n=73 v=100
103316 On ch=4 n=73 v=0
103320 On ch=4 n=97 v=0
103320 On ch=4 n=85 v=0
103496 On ch=4 n=44 v=0
103676 On ch=4 n=106 v=0
103680 On ch=4 n=49 v=100
103680 On ch=4 n=105 v=100
103680 On ch=4 n=100 v=100
103680 On ch=4 n=88 v=100
103680 On ch=4 n=75 v=100
103680 On ch=4 n=62 v=100
103796 On ch=4 n=75 v=0
103796 On ch=4 n=62 v=0
103800 On ch=4 n=100 v=0
103800 On ch=4 n=88 v=0
103976 On ch=4 n=49 v=0
104160 On ch=4 n=44 v=100
104160 On ch=4 n=97 v=100
104160 On ch=4 n=85 v=100
104160 On ch=4 n=73 v=100
104276 On ch=4 n=73 v=0
104280 On ch=4 n=97 v=0
104280 On ch=4 n=85 v=0
104456 On ch=4 n=44 v=0
104640 On ch=4 n=46 v=100
104640 On ch=4 n=98 v=100
104640 On ch=4 n=86 v=100
104640 On ch=4 n=74 v=100
104640 On ch=4 n=61 v=100
104756 On ch=4 n=74 v=0
104756 On ch=4 n=61 v=0
104760 On ch=4 n=98 v=0
104760 On ch=4 n=86 v=0
104936 On ch=4 n=46 v=0
105120 On ch=4 n=41 v=100
105120 On ch=4 n=96 v=100
105120 On ch=4 n=84 v=100
105120 On ch=4 n=72 v=100
105236 On ch=4 n=72 v=0
105240 On ch=4 n=96 v=0
105240 On ch=4 n=84 v=0
105416 On ch=4 n=41 v=0
105600 On ch=4 n=42 v=100
105600 On ch=4 n=97 v=100
105600 On ch=4 n=85 v=100
105600 On ch=4 n=73 v=100
105600 On ch=4 n=60 v=100
105716 On ch=4 n=73 v=0
105716 On ch=4 n=60 v=0
105720 On ch=4 n=97 v=0
105720 On ch=4 n=85 v=0
105896 On ch=4 n=42 v=0
106080 On ch=4 n=49 v=100
106080 On ch=4 n=98 v=100
106080 On ch=4 n=86 v=100
106080 On ch=4 n=73 v=100
106196 On ch=4 n=73 v=0
106200 On ch=4 n=98 v=0
106200 On ch=4 n=86 v=0
106376 On ch=4 n=49 v=0
106560 On ch=4 n=51 v=100
106560 On ch=4 n=99 v=100
106560 On ch=4 n=87 v=100
106560 On ch=4 n=74 v=100
106560 On ch=4 n=61 v=100
106676 On ch=4 n=74 v=0
106676 On ch=4 n=61 v=0
106680 On ch=4 n=99 v=0
106680 On ch=4 n=87 v=0
106856 On ch=4 n=51 v=0
107040 On ch=4 n=53 v=100
107040 On ch=4 n=100 v=100
107040 On ch=4 n=88 v=100
107040 On ch=4 n=75 v=100
107156 On ch=4 n=75 v=0
107160 On ch=4 n=100 v=0
107160 On ch=4 n=88 v=0
107336 On ch=4 n=53 v=0
107520 On ch=4 n=46 v=100
107520 On ch=4 n=98 v=100
107520 On ch=4 n=86 v=100
107520 On ch=4 n=74 v=100
107520 On ch=4 n=61 v=100
108716 On ch=4 n=74 v=0
108716 On ch=4 n=61 v=0
108720 On ch=4 n=86 v=0
108776 On ch=4 n=46 v=0
108840 On ch=4 n=98 v=0
108960 On ch=4 n=44 v=100
108960 On ch=4 n=97 v=100
108960 On ch=4 n=85 v=100
108960 On ch=4 n=73 v=100
109076 On ch=4 n=73 v=0
109080 On ch=4 n=97 v=0
109080 On ch=4 n=85 v=0
109256 On ch=4 n=44 v=0
109320 On ch=4 n=106 v=100
109440 On ch=4 n=49 v=100
109440 On ch=4 n=100 v=100
109440 On ch=4 n=88 v=100
109440 On ch=4 n=75 v=100
109440 On ch=4 n=62 v=100
110636 On ch=4 n=75 v=0
110636 On ch=4 n=62 v=0
110640 On ch=4 n=88 v=0
110696 On ch=4 n=49 v=0
110760 On ch=4 n=100 v=0
110880 On ch=4 n=44 v=100
110880 On ch=4 n=116 v=100
110880 On ch=4 n=97 v=100
110880 On ch=4 n=85 v=100
110880 On ch=4 n=73 v=100
110996 On ch=4 n=73 v=0
111000 On ch=4 n=97 v=0
111000 On ch=4 n=85 v=0
111176 On ch=4 n=44 v=0
111360 On ch=4 n=46 v=100
111360 On ch=4 n=98 v=100
111360 On ch=4 n=86 v=100
111360 On ch=4 n=74 v=100
111360 On ch=4 n=61 v=100
112556 On ch=4 n=74 v=0
112556 On ch=4 n=61 v=0
112560 On ch=4 n=86 v=0
112616 On ch=4 n=46 v=0
112680 On ch=4 n=98 v=0
112800 On ch=4 n=48 v=100
112800 On ch=4 n=99 v=100
112800 On ch=4 n=87 v=100
112800 On ch=4 n=74 v=100
112916 On ch=4 n=74 v=0
112920 On ch=4 n=99 v=0
112920 On ch=4 n=87 v=0
113096 On ch=4 n=48 v=0
113280 On ch=4 n=49 v=100
113280 On ch=4 n=100 v=100
113280 On ch=4 n=88 v=100
113280 On ch=4 n=75 v=100
113280 On ch=4 n=62 v=100
114476 On ch=4 n=75 v=0
114476 On ch=4 n=62 v=0
114536 On ch=4 n=49 v=0
114600 On ch=4 n=105 v=0
114600 On ch=4 n=116 v=0
114600 On ch=4 n=100 v=0
114600 On ch=4 n=88 v=0
114720 On ch=4 n=44 v=100
114720 On ch=4 n=97 v=100
114720 On ch=4 n=85 v=100
114720 On ch=4 n=73 v=100
114836 On ch=4 n=73 v=0
114840 On ch=4 n=97 v=0
114840 On ch=4 n=85 v=0
115016 On ch=4 n=44 v=0
115200 On ch=4 n=46 v=100
115200 On ch=4 n=98 v=100
115200 On ch=4 n=86 v=100
115200 On ch=4 n=74 v=100
115200 On ch=4 n=61 v=100
115316 On ch=4 n=74 v=0
115316 On ch=4 n=61 v=0
115320 On ch=4 n=98 v=0
115320 On ch=4 n=86 v=0
115496 On ch=4 n=46 v=0
115680 On ch=4 n=44 v=100
115680 On ch=4 n=97 v=100
115680 On ch=4 n=85 v=100
115680 On ch=4 n=73 v=100
115796 On ch=4 n=73 v=0
115800 On ch=4 n=97 v=0
115800 On ch=4 n=85 v=0
115976 On ch=4 n=44 v=0
116160 On ch=4 n=49 v=100
116160 On ch=4 n=100 v=100
116160 On ch=4 n=88 v=100
116160 On ch=4 n=75 v=100
116160 On ch=4 n=62 v=100
116276 On ch=4 n=75 v=0
116276 On ch=4 n=62 v=0
116280 On ch=4 n=100 v=0
116280 On ch=4 n=88 v=0
116456 On ch=4 n=49 v=0
116640 On ch=4 n=44 v=100
116640 On ch=4 n=97 v=100
116640 On ch=4 n=85 v=100
116640 On ch=4 n=73 v=100
116756 On ch=4 n=73 v=0
116760 On ch=4 n=97 v=0
116760 On ch=4 n=85 v=0
116936 On ch=4 n=44 v=0
117120 On ch=4 n=46 v=100
117120 On ch=4 n=98 v=100
117120 On ch=4 n=86 v=100
117120 On ch=4 n=74 v=100
117120 On ch=4 n=61 v=100
117236 On ch=4 n=74 v=0
117236 On ch=4 n=61 v=0
117240 On ch=4 n=98 v=0
117240 On ch=4 n=86 v=0
117416 On ch=4 n=46 v=0
117600 On ch=4 n=48 v=100
117600 On ch=4 n=99 v=100
117600 On ch=4 n=87 v=100
117600 On ch=4 n=74 v=100
117716 On ch=4 n=74 v=0
117720 On ch=4 n=99 v=0
117720 On ch=4 n=87 v=0
117896 On ch=4 n=48 v=0
118080 On ch=4 n=49 v=100
118080 On ch=4 n=100 v=100
118080 On ch=4 n=88 v=100
118080 On ch=4 n=75 v=100
118080 On ch=4 n=62 v=100
118196 On ch=4 n=75 v=0
118196 On ch=4 n=62 v=0
118200 On ch=4 n=100 v=0
118200 On ch=4 n=88 v=0
118376 On ch=4 n=49 v=0
118560 On ch=4 n=44 v=100
118560 On ch=4 n=97 v=100
118560 On ch=4 n=85 v=100
118560 On ch=4 n=73 v=100
118676 On ch=4 n=73 v=0
118680 On ch=4 n=97 v=0
118680 On ch=4 n=85 v=0
118856 On ch=4 n=44 v=0
119040 On ch=4 n=46 v=100
119040 On ch=4 n=105 v=100
119040 On ch=4 n=98 v=100
119040 On ch=4 n=86 v=100
119040 On ch=4 n=74 v=100
119040 On ch=4 n=61 v=100
119156 On ch=4 n=74 v=0
119156 On ch=4 n=61 v=0
119160 On ch=4 n=98 v=0
119160 On ch=4 n=86 v=0
119336 On ch=4 n=46 v=0
119520 On ch=4 n=44 v=100
119520 On ch=4 n=97 v=100
119520 On ch=4 n=85 v=100
119520 On ch=4 n=73 v=100
119636 On ch=4 n=73 v=0
119640 On ch=4 n=97 v=0
119640 On ch=4 n=85 v=0
119816 On ch=4 n=44 v=0
120000 On ch=4 n=42 v=100
120000 On ch=4 n=96 v=100
120000 On ch=4 n=84 v=100
120000 On ch=4 n=72 v=100
120000 On ch=4 n=60 v=100
120116 On ch=4 n=72 v=0
120116 On ch=4 n=60 v=0
120120 On ch=4 n=96 v=0
120120 On ch=4 n=84 v=0
120296 On ch=4 n=42 v=0
120480 On ch=4 n=51 v=100
120480 On ch=4 n=97 v=100
120480 On ch=4 n=85 v=100
120480 On ch=4 n=74 v=100
120596 On ch=4 n=74 v=0
120600 On ch=4 n=97 v=0
120600 On ch=4 n=85 v=0
120776 On ch=4 n=51 v=0
120960 On ch=4 n=53 v=100
120960 On ch=4 n=98 v=100
120960 On ch=4 n=86 v=100
120960 On ch=4 n=75 v=100
120960 On ch=4 n=62 v=100
121076 On ch=4 n=75 v=0
121076 On ch=4 n=62 v=0
121080 On ch=4 n=98 v=0
121080 On ch=4 n=86 v=0
121440 On ch=4 n=98 v=100
121440 On ch=4 n=86 v=100
121440 On ch=4 n=75 v=100
121556 On ch=4 n=75 v=0
121560 On ch=4 n=98 v=0
121560 On ch=4 n=86 v=0
121920 On ch=4 n=98 v=100
121920 On ch=4 n=86 v=100
121920 On ch=4 n=75 v=100
121920 On ch=4 n=62 v=100
122035 On ch=4 n=75 v=0
122035 On ch=4 n=62 v=0
122040 On ch=4 n=98 v=0
122040 On ch=4 n=86 v=0
122400 On ch=4 n=98 v=100
122400 On ch=4 n=86 v=100
122400 On ch=4 n=75 v=100
122515 On ch=4 n=75 v=0
122520 On ch=4 n=98 v=0
122520 On ch=4 n=86 v=0
122635 On ch=4 n=53 v=0
122880 Meta Text "[mellow]"
122880 On ch=4 n=46 v=100
122880 On ch=4 n=99 v=100
122880 On ch=4 n=87 v=100
122880 On ch=4 n=73 v=100
122880 On ch=4 n=61 v=100
126238 On ch=4 n=61 v=0
126360 On ch=4 n=46 v=0
126478 On ch=4 n=73 v=0
126480 On ch=4 n=99 v=0
126480 On ch=4 n=87 v=0
126720 On ch=4 n=41 v=100
126720 On ch=4 n=96 v=100
126720 On ch=4 n=84 v=100
126720 On ch=4 n=72 v=100
126720 On ch=4 n=60 v=100
128760 On ch=4 n=60 v=0
128880 On ch=4 n=72 v=0
129000 On ch=4 n=96 v=0
129000 On ch=4 n=84 v=0
129120 On ch=4 n=96 v=100
129120 On ch=4 n=84 v=100
129120 On ch=4 n=72 v=100
129120 On ch=4 n=60 v=100
131160 On ch=4 n=60 v=0
131280 On ch=4 n=72 v=0
131400 On ch=4 n=96 v=0
131400 On ch=4 n=84 v=0
131520 On ch=4 n=96 v=100
131520 On ch=4 n=84 v=100
131520 On ch=4 n=72 v=100
131520 On ch=4 n=60 v=100
133560 On ch=4 n=60 v=0
133680 On ch=4 n=72 v=0
133800 On ch=4 n=96 v=0
133800 On ch=4 n=84 v=0
133920 On ch=4 n=96 v=100
133920 On ch=4 n=84 v=100
133920 On ch=4 n=72 v=100
133920 On ch=4 n=60 v=100
135960 On ch=4 n=60 v=0
136080 On ch=4 n=72 v=0
136200 On ch=4 n=96 v=0
136200 On ch=4 n=84 v=0
136320 On ch=4 n=116 v=100
136320 On ch=4 n=96 v=100
136320 On ch=4 n=84 v=100
136320 On ch=4 n=72 v=100
136320 On ch=4 n=60 v=100
140636 On ch=4 n=72 v=0
140636 On ch=4 n=60 v=0
140640 Meta Text "[idle_realtime]"
140760 On ch=4 n=116 v=0
140760 On ch=4 n=96 v=0
140760 On ch=4 n=84 v=0
141116 On ch=4 n=41 v=0
142080 On ch=4 n=43 v=100
160320 Meta Text "[mellow]"
161520 On ch=4 n=43 v=0
162000 On ch=4 n=106 v=0
162000 On ch=4 n=48 v=100
162240 On ch=4 n=99 v=100
162240 On ch=4 n=87 v=100
162240 On ch=4 n=75 v=100
162240 On ch=4 n=62 v=100
162360 On ch=4 n=99 v=0
162360 On ch=4 n=87 v=0
162360 On ch=4 n=75 v=0
162360 On ch=4 n=62 v=0
162720 On ch=4 n=105 v=0
162720 On ch=4 n=106 v=100
162720 On ch=4 n=99 v=100
162720 On ch=4 n=87 v=100
162720 On ch=4 n=75 v=100
162720 On ch=4 n=62 v=100
162840 On ch=4 n=99 v=0
162840 On ch=4 n=87 v=0
162840 On ch=4 n=75 v=0
162840 On ch=4 n=62 v=0
163200 On ch=4 n=106 v=0
163200 On ch=4 n=105 v=100
163200 On ch=4 n=99 v=100
163200 On ch=4 n=87 v=100
163200 On ch=4 n=75 v=100
163200 On ch=4 n=62 v=100
163320 On ch=4 n=99 v=0
163320 On ch=4 n=87 v=0
163320 On ch=4 n=75 v=0
163320 On ch=4 n=62 v=0
163680 On ch=4 n=105 v=0
163680 On ch=4 n=106 v=100
163680 On ch=4 n=99 v=100
163680 On ch=4 n=87 v=100
163680 On ch=4 n=75 v=100
163680 On ch=4 n=62 v=100
163800 On ch=4 n=99 v=0
163800 On ch=4 n=87 v=0
163800 On ch=4 n=75 v=0
163800 On ch=4 n=62 v=0
164160 On ch=4 n=106 v=0
164160 On ch=4 n=105 v=100
164160 On ch=4 n=99 v=100
164160 On ch=4 n=87 v=100
164160 On ch=4 n=75 v=100
164160 On ch=4 n=62 v=100
164280 On ch=4 n=99 v=0
164280 On ch=4 n=87 v=0
164280 On ch=4 n=75 v=0
164280 On ch=4 n=62 v=0
164640 On ch=4 n=105 v=0
164640 On ch=4 n=106 v=100
164640 On ch=4 n=99 v=100
164640 On ch=4 n=87 v=100
164640 On ch=4 n=75 v=100
164640 On ch=4 n=62 v=100
164760 On ch=4 n=99 v=0
164760 On ch=4 n=87 v=0
164760 On ch=4 n=75 v=0
164760 On ch=4 n=62 v=0
165120 On ch=4 n=106 v=0
165120 On ch=4 n=105 v=100
165120 On ch=4 n=99 v=100
165120 On ch=4 n=87 v=100
165120 On ch=4 n=75 v=100
165120 On ch=4 n=62 v=100
165240 On ch=4 n=99 v=0
165240 On ch=4 n=87 v=0
165240 On ch=4 n=75 v=0
165240 On ch=4 n=62 v=0
165600 On ch=4 n=105 v=0
165600 On ch=4 n=106 v=100
165600 On ch=4 n=99 v=100
165600 On ch=4 n=87 v=100
165600 On ch=4 n=75 v=100
165600 On ch=4 n=62 v=100
165720 On ch=4 n=99 v=0
165720 On ch=4 n=87 v=0
165720 On ch=4 n=75 v=0
165720 On ch=4 n=62 v=0
166080 On ch=4 n=106 v=0
166080 On ch=4 n=105 v=100
166080 On ch=4 n=99 v=100
166080 On ch=4 n=87 v=100
166080 On ch=4 n=75 v=100
166080 On ch=4 n=62 v=100
166200 On ch=4 n=99 v=0
166200 On ch=4 n=87 v=0
166200 On ch=4 n=75 v=0
166200 On ch=4 n=62 v=0
166560 On ch=4 n=105 v=0
166560 On ch=4 n=106 v=100
166560 On ch=4 n=99 v=100
166560 On ch=4 n=87 v=100
166560 On ch=4 n=75 v=100
166560 On ch=4 n=62 v=100
166680 On ch=4 n=99 v=0
166680 On ch=4 n=87 v=0
166680 On ch=4 n=75 v=0
166680 On ch=4 n=62 v=0
167040 Meta Text "[play]"
167040 On ch=4 n=105 v=100
167040 On ch=4 n=116 v=100
167040 On ch=4 n=99 v=100
167040 On ch=4 n=87 v=100
167040 On ch=4 n=75 v=100
167040 On ch=4 n=62 v=100
167160 On ch=4 n=48 v=0
167160 On ch=4 n=99 v=0
167160 On ch=4 n=87 v=0
167160 On ch=4 n=75 v=0
167160 On ch=4 n=62 v=0
167280 On ch=4 n=46 v=100
167280 On ch=4 n=97 v=100
167280 On ch=4 n=85 v=100
167400 On ch=4 n=46 v=0
167400 On ch=4 n=97 v=0
167400 On ch=4 n=85 v=0
167520 On ch=4 n=48 v=100
167520 On ch=4 n=99 v=100
167520 On ch=4 n=87 v=100
167520 On ch=4 n=75 v=100
167520 On ch=4 n=62 v=100
167640 On ch=4 n=48 v=0
167640 On ch=4 n=99 v=0
167640 On ch=4 n=87 v=0
167640 On ch=4 n=75 v=0
167640 On ch=4 n=62 v=0
167760 On ch=4 n=116 v=0
168000 On ch=4 n=106 v=0
168000 On ch=4 n=41 v=100
168000 On ch=4 n=97 v=100
168000 On ch=4 n=85 v=100
168000 On ch=4 n=73 v=100
168000 On ch=4 n=60 v=100
168120 On ch=4 n=97 v=0
168120 On ch=4 n=85 v=0
168120 On ch=4 n=73 v=0
168120 On ch=4 n=60 v=0
168480 On ch=4 n=97 v=100
168480 On ch=4 n=85 v=100
168480 On ch=4 n=73 v=100
168480 On ch=4 n=60 v=100
168600 On ch=4 n=97 v=0
168600 On ch=4 n=85 v=0
168600 On ch=4 n=73 v=0
168600 On ch=4 n=60 v=0
168960 On ch=4 n=97 v=100
168960 On ch=4 n=85 v=100
168960 On ch=4 n=73 v=100
168960 On ch=4 n=60 v=100
169080 On ch=4 n=97 v=0
169080 On ch=4 n=85 v=0
169080 On ch=4 n=73 v=0
169080 On ch=4 n=60 v=0
169440 On ch=4 n=97 v=100
169440 On ch=4 n=85 v=100
169440 On ch=4 n=73 v=100
169440 On ch=4 n=60 v=100
169560 On ch=4 n=97 v=0
169560 On ch=4 n=85 v=0
169560 On ch=4 n=73 v=0
169560 On ch=4 n=60 v=0
169920 On ch=4 n=97 v=100
169920 On ch=4 n=85 v=100
169920 On ch=4 n=73 v=100
169920 On ch=4 n=60 v=100
170040 On ch=4 n=97 v=0
170040 On ch=4 n=85 v=0
170040 On ch=4 n=73 v=0
170040 On ch=4 n=60 v=0
170400 On ch=4 n=97 v=100
170400 On ch=4 n=85 v=100
170400 On ch=4 n=73 v=100
170400 On ch=4 n=60 v=100
170520 On ch=4 n=97 v=0
170520 On ch=4 n=85 v=0
170520 On ch=4 n=73 v=0
170520 On ch=4 n=60 v=0
170880 On ch=4 n=97 v=100
170880 On ch=4 n=85 v=100
170880 On ch=4 n=73 v=100
170880 On ch=4 n=60 v=100
171000 On ch=4 n=97 v=0
171000 On ch=4 n=85 v=0
171000 On ch=4 n=73 v=0
171000 On ch=4 n=60 v=0
171360 On ch=4 n=97 v=100
171360 On ch=4 n=85 v=100
171360 On ch=4 n=73 v=100
171360 On ch=4 n=60 v=100
171480 On ch=4 n=97 v=0
171480 On ch=4 n=85 v=0
171480 On ch=4 n=73 v=0
171480 On ch=4 n=60 v=0
171840 On ch=4 n=97 v=100
171840 On ch=4 n=85 v=100
171840 On ch=4 n=73 v=100
171840 On ch=4 n=60 v=100
171960 On ch=4 n=97 v=0
171960 On ch=4 n=85 v=0
171960 On ch=4 n=73 v=0
171960 On ch=4 n=60 v=0
172320 On ch=4 n=97 v=100
172320 On ch=4 n=85 v=100
172320 On ch=4 n=73 v=100
172320 On ch=4 n=60 v=100
172440 On ch=4 n=97 v=0
172440 On ch=4 n=85 v=0
172440 On ch=4 n=73 v=0
172440 On ch=4 n=60 v=0
172800 On ch=4 n=97 v=100
172800 On ch=4 n=85 v=100
172800 On ch=4 n=73 v=100
172800 On ch=4 n=60 v=100
172920 On ch=4 n=97 v=0
172920 On ch=4 n=85 v=0
172920 On ch=4 n=73 v=0
172920 On ch=4 n=60 v=0
173280 On ch=4 n=97 v=100
173280 On ch=4 n=85 v=100
173280 On ch=4 n=73 v=100
173280 On ch=4 n=60 v=100
173400 On ch=4 n=97 v=0
173400 On ch=4 n=85 v=0
173400 On ch=4 n=73 v=0
173400 On ch=4 n=60 v=0
173760 On ch=4 n=97 v=100
173760 On ch=4 n=85 v=100
173760 On ch=4 n=73 v=100
173760 On ch=4 n=60 v=100
173880 On ch=4 n=97 v=0
173880 On ch=4 n=85 v=0
173880 On ch=4 n=73 v=0
173880 On ch=4 n=60 v=0
174240 On ch=4 n=97 v=100
174240 On ch=4 n=85 v=100
174240 On ch=4 n=73 v=100
174240 On ch=4 n=60 v=100
174360 On ch=4 n=97 v=0
174360 On ch=4 n=85 v=0
174360 On ch=4 n=73 v=0
174360 On ch=4 n=60 v=0
174720 On ch=4 n=97 v=100
174720 On ch=4 n=85 v=100
174720 On ch=4 n=73 v=100
174720 On ch=4 n=60 v=100
174840 On ch=4 n=97 v=0
174840 On ch=4 n=85 v=0
174840 On ch=4 n=73 v=0
174840 On ch=4 n=60 v=0
175200 On ch=4 n=106 v=100
175200 On ch=4 n=97 v=100
175200 On ch=4 n=85 v=100
175200 On ch=4 n=73 v=100
175200 On ch=4 n=60 v=100
175320 On ch=4 n=41 v=0
175320 On ch=4 n=97 v=0
175320 On ch=4 n=85 v=0
175320 On ch=4 n=73 v=0
175320 On ch=4 n=60 v=0
175440 On ch=4 n=40 v=100
175440 On ch=4 n=96 v=100
175440 On ch=4 n=84 v=100
175440 On ch=4 n=72 v=100
175560 On ch=4 n=40 v=0
175560 On ch=4 n=96 v=0
175560 On ch=4 n=84 v=0
175560 On ch=4 n=72 v=0
175680 On ch=4 n=41 v=100
175680 On ch=4 n=97 v=100
175680 On ch=4 n=85 v=100
175680 On ch=4 n=73 v=100
175680 On ch=4 n=60 v=100
175800 On ch=4 n=105 v=0
175800 On ch=4 n=97 v=0
175800 On ch=4 n=85 v=0
175800 On ch=4 n=73 v=0
175800 On ch=4 n=60 v=0
176160 On ch=4 n=97 v=100
176160 On ch=4 n=85 v=100
176160 On ch=4 n=73 v=100
176160 On ch=4 n=60 v=100
176280 On ch=4 n=97 v=0
176280 On ch=4 n=85 v=0
176280 On ch=4 n=73 v=0
176280 On ch=4 n=60 v=0
176640 On ch=4 n=97 v=100
176640 On ch=4 n=85 v=100
176640 On ch=4 n=73 v=100
176640 On ch=4 n=60 v=100
176760 On ch=4 n=97 v=0
176760 On ch=4 n=85 v=0
176760 On ch=4 n=73 v=0
176760 On ch=4 n=60 v=0
177120 On ch=4 n=97 v=100
177120 On ch=4 n=85 v=100
177120 On ch=4 n=73 v=100
177120 On ch=4 n=60 v=100
177240 On ch=4 n=97 v=0
177240 On ch=4 n=85 v=0
177240 On ch=4 n=73 v=0
177240 On ch=4 n=60 v=0
177600 On ch=4 n=97 v=100
177600 On ch=4 n=85 v=100
177600 On ch=4 n=73 v=100
177600 On ch=4 n=60 v=100
177720 On ch=4 n=97 v=0
177720 On ch=4 n=85 v=0
177720 On ch=4 n=73 v=0
177720 On ch=4 n=60 v=0
178080 On ch=4 n=97 v=100
178080 On ch=4 n=85 v=100
178080 On ch=4 n=73 v=100
178080 On ch=4 n=60 v=100
178200 On ch=4 n=97 v=0
178200 On ch=4 n=85 v=0
178200 On ch=4 n=73 v=0
178200 On ch=4 n=60 v=0
178560 On ch=4 n=97 v=100
178560 On ch=4 n=85 v=100
178560 On ch=4 n=73 v=100
178560 On ch=4 n=60 v=100
178680 On ch=4 n=97 v=0
178680 On ch=4 n=85 v=0
178680 On ch=4 n=73 v=0
178680 On ch=4 n=60 v=0
179040 On ch=4 n=97 v=100
179040 On ch=4 n=85 v=100
179040 On ch=4 n=73 v=100
179040 On ch=4 n=60 v=100
179160 On ch=4 n=97 v=0
179160 On ch=4 n=85 v=0
179160 On ch=4 n=73 v=0
179160 On ch=4 n=60 v=0
179520 On ch=4 n=97 v=100
179520 On ch=4 n=85 v=100
179520 On ch=4 n=73 v=100
179520 On ch=4 n=60 v=100
179640 On ch=4 n=97 v=0
179640 On ch=4 n=85 v=0
179640 On ch=4 n=73 v=0
179640 On ch=4 n=60 v=0
180000 On ch=4 n=97 v=100
180000 On ch=4 n=85 v=100
180000 On ch=4 n=73 v=100
180000 On ch=4 n=60 v=100
180120 On ch=4 n=97 v=0
180120 On ch=4 n=85 v=0
180120 On ch=4 n=73 v=0
180120 On ch=4 n=60 v=0
180480 On ch=4 n=97 v=100
180480 On ch=4 n=85 v=100
180480 On ch=4 n=73 v=100
180480 On ch=4 n=60 v=100
180600 On ch=4 n=97 v=0
180600 On ch=4 n=85 v=0
180600 On ch=4 n=73 v=0
180600 On ch=4 n=60 v=0
180960 On ch=4 n=97 v=100
180960 On ch=4 n=85 v=100
180960 On ch=4 n=73 v=100
180960 On ch=4 n=60 v=100
181080 On ch=4 n=97 v=0
181080 On ch=4 n=85 v=0
181080 On ch=4 n=73 v=0
181080 On ch=4 n=60 v=0
181440 On ch=4 n=97 v=100
181440 On ch=4 n=85 v=100
181440 On ch=4 n=73 v=100
181440 On ch=4 n=60 v=100
181560 On ch=4 n=97 v=0
181560 On ch=4 n=85 v=0
181560 On ch=4 n=73 v=0
181560 On ch=4 n=60 v=0
181920 On ch=4 n=97 v=100
181920 On ch=4 n=85 v=100
181920 On ch=4 n=73 v=100
181920 On ch=4 n=60 v=100
182040 On ch=4 n=97 v=0
182040 On ch=4 n=85 v=0
182040 On ch=4 n=73 v=0
182040 On ch=4 n=60 v=0
182400 On ch=4 n=97 v=100
182400 On ch=4 n=85 v=100
182400 On ch=4 n=73 v=100
182400 On ch=4 n=60 v=100
182520 On ch=4 n=97 v=0
182520 On ch=4 n=85 v=0
182520 On ch=4 n=73 v=0
182520 On ch=4 n=60 v=0
182880 On ch=4 n=105 v=100
182880 On ch=4 n=97 v=100
182880 On ch=4 n=85 v=100
182880 On ch=4 n=73 v=100
182880 On ch=4 n=60 v=100
183000 On ch=4 n=41 v=0
183000 On ch=4 n=97 v=0
183000 On ch=4 n=85 v=0
183000 On ch=4 n=73 v=0
183000 On ch=4 n=60 v=0
183120 On ch=4 n=40 v=100
183120 On ch=4 n=96 v=100
183120 On ch=4 n=84 v=100
183120 On ch=4 n=72 v=100
183240 On ch=4 n=40 v=0
183240 On ch=4 n=96 v=0
183240 On ch=4 n=84 v=0
183240 On ch=4 n=72 v=0
183360 Meta Text "[mellow]"
183360 On ch=4 n=41 v=100
183360 On ch=4 n=97 v=100
183360 On ch=4 n=85 v=100
183360 On ch=4 n=73 v=100
183360 On ch=4 n=60 v=100
183480 On ch=4 n=97 v=0
183480 On ch=4 n=85 v=0
183480 On ch=4 n=73 v=0
183480 On ch=4 n=60 v=0
183600 On ch=4 n=106 v=0
183840 On ch=4 n=97 v=100
183840 On ch=4 n=85 v=100
183840 On ch=4 n=73 v=100
183840 On ch=4 n=60 v=100
183960 On ch=4 n=97 v=0
183960 On ch=4 n=85 v=0
183960 On ch=4 n=73 v=0
183960 On ch=4 n=60 v=0
184320 On ch=4 n=97 v=100
184320 On ch=4 n=85 v=100
184320 On ch=4 n=73 v=100
184320 On ch=4 n=60 v=100
184440 On ch=4 n=97 v=0
184440 On ch=4 n=85 v=0
184440 On ch=4 n=73 v=0
184440 On ch=4 n=60 v=0
184800 On ch=4 n=97 v=100
184800 On ch=4 n=85 v=100
184800 On ch=4 n=73 v=100
184800 On ch=4 n=60 v=100
184920 On ch=4 n=97 v=0
184920 On ch=4 n=85 v=0
184920 On ch=4 n=73 v=0
184920 On ch=4 n=60 v=0
185280 On ch=4 n=97 v=100
185280 On ch=4 n=85 v=100
185280 On ch=4 n=73 v=100
185280 On ch=4 n=60 v=100
185400 On ch=4 n=97 v=0
185400 On ch=4 n=85 v=0
185400 On ch=4 n=73 v=0
185400 On ch=4 n=60 v=0
185760 On ch=4 n=97 v=100
185760 On ch=4 n=85 v=100
185760 On ch=4 n=73 v=100
185760 On ch=4 n=60 v=100
185880 On ch=4 n=97 v=0
185880 On ch=4 n=85 v=0
185880 On ch=4 n=73 v=0
185880 On ch=4 n=60 v=0
186240 On ch=4 n=97 v=100
186240 On ch=4 n=85 v=100
186240 On ch=4 n=73 v=100
186240 On ch=4 n=60 v=100
186360 On ch=4 n=97 v=0
186360 On ch=4 n=85 v=0
186360 On ch=4 n=73 v=0
186360 On ch=4 n=60 v=0
186720 On ch=4 n=97 v=100
186720 On ch=4 n=85 v=100
186720 On ch=4 n=73 v=100
186720 On ch=4 n=60 v=100
186840 On ch=4 n=41 v=0
186840 On ch=4 n=97 v=0
186840 On ch=4 n=85 v=0
186840 On ch=4 n=73 v=0
186840 On ch=4 n=60 v=0
186960 On ch=4 n=40 v=100
186960 On ch=4 n=96 v=100
186960 On ch=4 n=84 v=100
186960 On ch=4 n=72 v=100
187080 On ch=4 n=40 v=0
187080 On ch=4 n=96 v=0
187080 On ch=4 n=84 v=0
187080 On ch=4 n=72 v=0
187200 On ch=4 n=41 v=100
187200 On ch=4 n=97 v=100
187200 On ch=4 n=85 v=100
187200 On ch=4 n=73 v=100
187200 On ch=4 n=60 v=100
187320 On ch=4 n=97 v=0
187320 On ch=4 n=85 v=0
187320 On ch=4 n=73 v=0
187320 On ch=4 n=60 v=0
187680 On ch=4 n=97 v=100
187680 On ch=4 n=85 v=100
187680 On ch=4 n=73 v=100
187680 On ch=4 n=60 v=100
187800 On ch=4 n=97 v=0
187800 On ch=4 n=85 v=0
187800 On ch=4 n=73 v=0
187800 On ch=4 n=60 v=0
188160 On ch=4 n=97 v=100
188160 On ch=4 n=85 v=100
188160 On ch=4 n=73 v=100
188160 On ch=4 n=60 v=100
188280 On ch=4 n=97 v=0
188280 On ch=4 n=85 v=0
188280 On ch=4 n=73 v=0
188280 On ch=4 n=60 v=0
188640 On ch=4 n=97 v=100
188640 On ch=4 n=85 v=100
188640 On ch=4 n=73 v=100
188640 On ch=4 n=60 v=100
188760 On ch=4 n=97 v=0
188760 On ch=4 n=85 v=0
188760 On ch=4 n=73 v=0
188760 On ch=4 n=60 v=0
189120 On ch=4 n=97 v=100
189120 On ch=4 n=85 v=100
189120 On ch=4 n=73 v=100
189120 On ch=4 n=60 v=100
189240 On ch=4 n=97 v=0
189240 On ch=4 n=85 v=0
189240 On ch=4 n=73 v=0
189240 On ch=4 n=60 v=0
189600 On ch=4 n=97 v=100
189600 On ch=4 n=85 v=100
189600 On ch=4 n=73 v=100
189600 On ch=4 n=60 v=100
189720 On ch=4 n=97 v=0
189720 On ch=4 n=85 v=0
189720 On ch=4 n=73 v=0
189720 On ch=4 n=60 v=0
190080 On ch=4 n=97 v=100
190080 On ch=4 n=85 v=100
190080 On ch=4 n=73 v=100
190080 On ch=4 n=60 v=100
190200 On ch=4 n=97 v=0
190200 On ch=4 n=85 v=0
190200 On ch=4 n=73 v=0
190200 On ch=4 n=60 v=0
190560 On ch=4 n=106 v=100
190560 On ch=4 n=97 v=100
190560 On ch=4 n=85 v=100
190560 On ch=4 n=73 v=100
190560 On ch=4 n=60 v=100
190680 On ch=4 n=41 v=0
190680 On ch=4 n=97 v=0
190680 On ch=4 n=85 v=0
190680 On ch=4 n=73 v=0
190680 On ch=4 n=60 v=0
190800 On ch=4 n=40 v=100
190800 On ch=4 n=96 v=100
190800 On ch=4 n=84 v=100
190800 On ch=4 n=72 v=100
190920 On ch=4 n=40 v=0
190920 On ch=4 n=96 v=0
190920 On ch=4 n=84 v=0
190920 On ch=4 n=72 v=0
191040 On ch=4 n=41 v=100
191040 On ch=4 n=97 v=100
191040 On ch=4 n=85 v=100
191040 On ch=4 n=73 v=100
191040 On ch=4 n=60 v=100
191160 On ch=4 n=97 v=0
191160 On ch=4 n=85 v=0
191160 On ch=4 n=73 v=0
191160 On ch=4 n=60 v=0
191280 On ch=4 n=105 v=0
191520 On ch=4 n=97 v=100
191520 On ch=4 n=85 v=100
191520 On ch=4 n=73 v=100
191520 On ch=4 n=60 v=100
191640 On ch=4 n=97 v=0
191640 On ch=4 n=85 v=0
191640 On ch=4 n=73 v=0
191640 On ch=4 n=60 v=0
192000 On ch=4 n=97 v=100
192000 On ch=4 n=85 v=100
192000 On ch=4 n=73 v=100
192000 On ch=4 n=60 v=100
192120 On ch=4 n=97 v=0
192120 On ch=4 n=85 v=0
192120 On ch=4 n=73 v=0
192120 On ch=4 n=60 v=0
192480 On ch=4 n=97 v=100
192480 On ch=4 n=85 v=100
192480 On ch=4 n=73 v=100
192480 On ch=4 n=60 v=100
192600 On ch=4 n=97 v=0
192600 On ch=4 n=85 v=0
192600 On ch=4 n=73 v=0
192600 On ch=4 n=60 v=0
192960 On ch=4 n=97 v=100
192960 On ch=4 n=85 v=100
192960 On ch=4 n=73 v=100
192960 On ch=4 n=60 v=100
193080 On ch=4 n=97 v=0
193080 On ch=4 n=85 v=0
193080 On ch=4 n=73 v=0
193080 On ch=4 n=60 v=0
193440 On ch=4 n=97 v=100
193440 On ch=4 n=85 v=100
193440 On ch=4 n=73 v=100
193440 On ch=4 n=60 v=100
193560 On ch=4 n=97 v=0
193560 On ch=4 n=85 v=0
193560 On ch=4 n=73 v=0
193560 On ch=4 n=60 v=0
193920 On ch=4 n=97 v=100
193920 On ch=4 n=85 v=100
193920 On ch=4 n=73 v=100
193920 On ch=4 n=60 v=100
194040 On ch=4 n=97 v=0
194040 On ch=4 n=85 v=0
194040 On ch=4 n=73 v=0
194040 On ch=4 n=60 v=0
194400 On ch=4 n=97 v=100
194400 On ch=4 n=85 v=100
194400 On ch=4 n=73 v=100
194400 On ch=4 n=60 v=100
194520 On ch=4 n=97 v=0
194520 On ch=4 n=85 v=0
194520 On ch=4 n=73 v=0
194520 On ch=4 n=60 v=0
194880 On ch=4 n=97 v=100
194880 On ch=4 n=85 v=100
194880 On ch=4 n=73 v=100
194880 On ch=4 n=60 v=100
195000 On ch=4 n=97 v=0
195000 On ch=4 n=85 v=0
195000 On ch=4 n=73 v=0
195000 On ch=4 n=60 v=0
195360 On ch=4 n=97 v=100
195360 On ch=4 n=85 v=100
195360 On ch=4 n=73 v=100
195360 On ch=4 n=60 v=100
195480 On ch=4 n=97 v=0
195480 On ch=4 n=85 v=0
195480 On ch=4 n=73 v=0
195480 On ch=4 n=60 v=0
195840 On ch=4 n=97 v=100
195840 On ch=4 n=85 v=100
195840 On ch=4 n=73 v=100
195840 On ch=4 n=60 v=100
195960 On ch=4 n=97 v=0
195960 On ch=4 n=85 v=0
195960 On ch=4 n=73 v=0
195960 On ch=4 n=60 v=0
196320 On ch=4 n=97 v=100
196320 On ch=4 n=85 v=100
196320 On ch=4 n=73 v=100
196320 On ch=4 n=60 v=100
196440 On ch=4 n=97 v=0
196440 On ch=4 n=85 v=0
196440 On ch=4 n=73 v=0
196440 On ch=4 n=60 v=0
196800 On ch=4 n=97 v=100
196800 On ch=4 n=85 v=100
196800 On ch=4 n=73 v=100
196800 On ch=4 n=60 v=100
196920 On ch=4 n=97 v=0
196920 On ch=4 n=85 v=0
196920 On ch=4 n=73 v=0
196920 On ch=4 n=60 v=0
197280 On ch=4 n=97 v=100
197280 On ch=4 n=85 v=100
197280 On ch=4 n=73 v=100
197280 On ch=4 n=60 v=100
197400 On ch=4 n=97 v=0
197400 On ch=4 n=85 v=0
197400 On ch=4 n=73 v=0
197400 On ch=4 n=60 v=0
197520 On ch=4 n=41 v=0
197520 On ch=4 n=105 v=100
197640 On ch=4 n=97 v=100
197760 On ch=4 n=97 v=0
197760 Meta Text "[play]"
197760 On ch=4 n=47 v=100
197760 On ch=4 n=98 v=100
197760 On ch=4 n=86 v=100
197760 On ch=4 n=74 v=100
197760 On ch=4 n=61 v=100
197880 On ch=4 n=98 v=0
197880 On ch=4 n=86 v=0
197880 On ch=4 n=74 v=0
197880 On ch=4 n=61 v=0
198000 On ch=4 n=98 v=100
198000 On ch=4 n=86 v=100
198000 On ch=4 n=74 v=100
198120 On ch=4 n=47 v=0
198120 On ch=4 n=98 v=0
198120 On ch=4 n=86 v=0
198120 On ch=4 n=74 v=0
198240 On ch=4 n=49 v=100
198240 On ch=4 n=99 v=100
198240 On ch=4 n=87 v=100
198240 On ch=4 n=75 v=100
198240 On ch=4 n=62 v=100
198360 On ch=4 n=49 v=0
198360 On ch=4 n=99 v=0
198360 On ch=4 n=87 v=0
198360 On ch=4 n=75 v=0
198360 On ch=4 n=62 v=0
198480 On ch=4 n=98 v=100
198480 On ch=4 n=86 v=100
198480 On ch=4 n=74 v=100
198600 On ch=4 n=98 v=0
198600 On ch=4 n=86 v=0
198600 On ch=4 n=74 v=0
198720 On ch=4 n=41 v=100
198720 On ch=4 n=97 v=100
198720 On ch=4 n=85 v=100
198720 On ch=4 n=73 v=100
198720 On ch=4 n=60 v=100
198840 On ch=4 n=97 v=0
198840 On ch=4 n=85 v=0
198840 On ch=4 n=73 v=0
198840 On ch=4 n=60 v=0
198960 On ch=4 n=106 v=0
199200 On ch=4 n=97 v=100
199200 On ch=4 n=85 v=100
199200 On ch=4 n=73 v=100
199200 On ch=4 n=60 v=100
199320 On ch=4 n=97 v=0
199320 On ch=4 n=85 v=0
199320 On ch=4 n=73 v=0
199320 On ch=4 n=60 v=0
199680 On ch=4 n=97 v=100
199680 On ch=4 n=85 v=100
199680 On ch=4 n=73 v=100
199680 On ch=4 n=60 v=100
199800 On ch=4 n=97 v=0
199800 On ch=4 n=85 v=0
199800 On ch=4 n=73 v=0
199800 On ch=4 n=60 v=0
200160 On ch=4 n=97 v=100
200160 On ch=4 n=85 v=100
200160 On ch=4 n=73 v=100
200160 On ch=4 n=60 v=100
200280 On ch=4 n=97 v=0
200280 On ch=4 n=85 v=0
200280 On ch=4 n=73 v=0
200280 On ch=4 n=60 v=0
200640 On ch=4 n=97 v=100
200640 On ch=4 n=85 v=100
200640 On ch=4 n=73 v=100
200640 On ch=4 n=60 v=100
200760 On ch=4 n=97 v=0
200760 On ch=4 n=85 v=0
200760 On ch=4 n=73 v=0
200760 On ch=4 n=60 v=0
201120 On ch=4 n=97 v=100
201120 On ch=4 n=85 v=100
201120 On ch=4 n=73 v=100
201120 On ch=4 n=60 v=100
201240 On ch=4 n=97 v=0
201240 On ch=4 n=85 v=0
201240 On ch=4 n=73 v=0
201240 On ch=4 n=60 v=0
201600 On ch=4 n=97 v=100
201600 On ch=4 n=85 v=100
201600 On ch=4 n=73 v=100
201600 On ch=4 n=60 v=100
201720 On ch=4 n=97 v=0
201720 On ch=4 n=85 v=0
201720 On ch=4 n=73 v=0
201720 On ch=4 n=60 v=0
202080 On ch=4 n=97 v=100
202080 On ch=4 n=85 v=100
202080 On ch=4 n=73 v=100
202080 On ch=4 n=60 v=100
202200 On ch=4 n=41 v=0
202200 On ch=4 n=97 v=0
202200 On ch=4 n=85 v=0
202200 On ch=4 n=73 v=0
202200 On ch=4 n=60 v=0
202320 On ch=4 n=40 v=100
202320 On ch=4 n=96 v=100
202320 On ch=4 n=84 v=100
202320 On ch=4 n=72 v=100
202440 On ch=4 n=40 v=0
202440 On ch=4 n=96 v=0
202440 On ch=4 n=84 v=0
202440 On ch=4 n=72 v=0
202560 On ch=4 n=41 v=100
202560 On ch=4 n=97 v=100
202560 On ch=4 n=85 v=100
202560 On ch=4 n=73 v=100
202560 On ch=4 n=60 v=100
202680 On ch=4 n=97 v=0
202680 On ch=4 n=85 v=0
202680 On ch=4 n=73 v=0
202680 On ch=4 n=60 v=0
203040 On ch=4 n=97 v=100
203040 On ch=4 n=85 v=100
203040 On ch=4 n=73 v=100
203040 On ch=4 n=60 v=100
203160 On ch=4 n=97 v=0
203160 On ch=4 n=85 v=0
203160 On ch=4 n=73 v=0
203160 On ch=4 n=60 v=0
203520 On ch=4 n=97 v=100
203520 On ch=4 n=85 v=100
203520 On ch=4 n=73 v=100
203520 On ch=4 n=60 v=100
203640 On ch=4 n=97 v=0
203640 On ch=4 n=85 v=0
203640 On ch=4 n=73 v=0
203640 On ch=4 n=60 v=0
204000 On ch=4 n=97 v=100
204000 On ch=4 n=85 v=100
204000 On ch=4 n=73 v=100
204000 On ch=4 n=60 v=100
204120 On ch=4 n=97 v=0
204120 On ch=4 n=85 v=0
204120 On ch=4 n=73 v=0
204120 On ch=4 n=60 v=0
204480 On ch=4 n=97 v=100
204480 On ch=4 n=85 v=100
204480 On ch=4 n=73 v=100
204480 On ch=4 n=60 v=100
204600 On ch=4 n=97 v=0
204600 On ch=4 n=85 v=0
204600 On ch=4 n=73 v=0
204600 On ch=4 n=60 v=0
204960 On ch=4 n=97 v=100
204960 On ch=4 n=85 v=100
204960 On ch=4 n=73 v=100
204960 On ch=4 n=60 v=100
205080 On ch=4 n=97 v=0
205080 On ch=4 n=85 v=0
205080 On ch=4 n=73 v=0
205080 On ch=4 n=60 v=0
205200 On ch=4 n=96 v=100
205200 On ch=4 n=84 v=100
205200 On ch=4 n=72 v=100
205320 On ch=4 n=41 v=0
205320 On ch=4 n=96 v=0
205320 On ch=4 n=84 v=0
205320 On ch=4 n=72 v=0
205440 On ch=4 n=106 v=100
205440 On ch=4 n=47 v=100
205440 On ch=4 n=98 v=100
205440 On ch=4 n=86 v=100
205440 On ch=4 n=73 v=100
205440 On ch=4 n=61 v=100
205560 On ch=4 n=98 v=0
205560 On ch=4 n=86 v=0
205560 On ch=4 n=73 v=0
205560 On ch=4 n=61 v=0
205680 On ch=4 n=47 v=0
205680 On ch=4 n=98 v=100
205680 On ch=4 n=86 v=100
205680 On ch=4 n=73 v=100
205800 On ch=4 n=98 v=0
205800 On ch=4 n=86 v=0
205800 On ch=4 n=73 v=0
205920 On ch=4 n=49 v=100
205920 On ch=4 n=99 v=100
205920 On ch=4 n=87 v=100
205920 On ch=4 n=74 v=100
205920 On ch=4 n=62 v=100
206040 On ch=4 n=99 v=0
206040 On ch=4 n=87 v=0
206040 On ch=4 n=74 v=0
206040 On ch=4 n=62 v=0
206040 On ch=4 n=98 v=100
206160 On ch=4 n=49 v=0
206160 On ch=4 n=98 v=0
206160 On ch=4 n=99 v=100
206160 On ch=4 n=87 v=100
206160 On ch=4 n=74 v=100
206280 On ch=4 n=99 v=0
206280 On ch=4 n=87 v=0
206280 On ch=4 n=74 v=0
206400 On ch=4 n=50 v=100
206400 On ch=4 n=116 v=100
206400 On ch=4 n=100 v=100
206400 On ch=4 n=88 v=100
206400 On ch=4 n=75 v=100
206400 On ch=4 n=62 v=100
206520 On ch=4 n=100 v=0
206520 On ch=4 n=88 v=0
206520 On ch=4 n=75 v=0
206520 On ch=4 n=62 v=0
206880 On ch=4 n=100 v=100
206880 On ch=4 n=88 v=100
206880 On ch=4 n=75 v=100
206880 On ch=4 n=62 v=100
207000 On ch=4 n=100 v=0
207000 On ch=4 n=88 v=0
207000 On ch=4 n=75 v=0
207000 On ch=4 n=62 v=0
207360 On ch=4 n=100 v=100
207360 On ch=4 n=88 v=100
207360 On ch=4 n=75 v=100
207360 On ch=4 n=62 v=100
207480 On ch=4 n=100 v=0
207480 On ch=4 n=88 v=0
207480 On ch=4 n=75 v=0
207480 On ch=4 n=62 v=0
207840 On ch=4 n=100 v=100
207840 On ch=4 n=88 v=100
207840 On ch=4 n=75 v=100
207840 On ch=4 n=62 v=100
207960 On ch=4 n=100 v=0
207960 On ch=4 n=88 v=0
207960 On ch=4 n=75 v=0
207960 On ch=4 n=62 v=0
208200 On ch=4 n=50 v=0
208320 On ch=4 n=49 v=100
208320 On ch=4 n=99 v=100
208320 On ch=4 n=87 v=100
208320 On ch=4 n=75 v=100
208320 On ch=4 n=62 v=100
208440 On ch=4 n=49 v=0
208440 On ch=4 n=99 v=0
208440 On ch=4 n=87 v=0
208440 On ch=4 n=75 v=0
208440 On ch=4 n=62 v=0
208440 On ch=4 n=50 v=100
208440 On ch=4 n=100 v=100
208440 On ch=4 n=88 v=100
208560 On ch=4 n=100 v=0
208560 On ch=4 n=88 v=0
208800 On ch=4 n=100 v=100
208800 On ch=4 n=88 v=100
208800 On ch=4 n=75 v=100
208800 On ch=4 n=62 v=100
208920 On ch=4 n=100 v=0
208920 On ch=4 n=88 v=0
208920 On ch=4 n=75 v=0
208920 On ch=4 n=62 v=0
209280 On ch=4 n=100 v=100
209280 On ch=4 n=88 v=100
209280 On ch=4 n=75 v=100
209280 On ch=4 n=62 v=100
209400 On ch=4 n=116 v=0
209400 On ch=4 n=100 v=0
209400 On ch=4 n=88 v=0
209400 On ch=4 n=75 v=0
209400 On ch=4 n=62 v=0
209760 On ch=4 n=99 v=100
209760 On ch=4 n=88 v=100
209760 On ch=4 n=75 v=100
209760 On ch=4 n=62 v=100
209880 On ch=4 n=50 v=0
209880 On ch=4 n=99 v=0
209880 On ch=4 n=88 v=0
209880 On ch=4 n=75 v=0
209880 On ch=4 n=62 v=0
209880 On ch=4 n=100 v=100
210000 On ch=4 n=100 v=0
210000 On ch=4 n=98 v=100
210000 On ch=4 n=86 v=100
210120 On ch=4 n=98 v=0
210120 On ch=4 n=86 v=0
210240 On ch=4 n=47 v=100
210240 On ch=4 n=97 v=100
210240 On ch=4 n=85 v=100
210240 On ch=4 n=73 v=100
210240 On ch=4 n=60 v=100
210360 On ch=4 n=97 v=0
210360 On ch=4 n=85 v=0
210360 On ch=4 n=73 v=0
210360 On ch=4 n=60 v=0
210480 On ch=4 n=97 v=100
210480 On ch=4 n=85 v=100
210480 On ch=4 n=73 v=100
210600 On ch=4 n=47 v=0
210600 On ch=4 n=97 v=0
210600 On ch=4 n=85 v=0
210600 On ch=4 n=73 v=0
210720 On ch=4 n=49 v=100
210720 On ch=4 n=99 v=100
210720 On ch=4 n=87 v=100
210720 On ch=4 n=74 v=100
210720 On ch=4 n=61 v=100
210840 On ch=4 n=49 v=0
210840 On ch=4 n=99 v=0
210840 On ch=4 n=87 v=0
210840 On ch=4 n=74 v=0
210840 On ch=4 n=61 v=0
210960 On ch=4 n=48 v=100
210960 On ch=4 n=98 v=100
210960 On ch=4 n=86 v=100
211080 On ch=4 n=48 v=0
211080 On ch=4 n=98 v=0
211080 On ch=4 n=86 v=0
211080 On ch=4 n=49 v=100
211080 On ch=4 n=99 v=100
211200 On ch=4 n=49 v=0
211200 On ch=4 n=99 v=0
211200 On ch=4 n=51 v=100
211200 On ch=4 n=100 v=100
211200 On ch=4 n=88 v=100
211200 On ch=4 n=75 v=100
211200 On ch=4 n=62 v=100
211320 On ch=4 n=51 v=0
211320 On ch=4 n=100 v=0
211320 On ch=4 n=88 v=0
211320 On ch=4 n=75 v=0
211320 On ch=4 n=62 v=0
211320 On ch=4 n=49 v=100
211320 On ch=4 n=99 v=100
211440 On ch=4 n=49 v=0
211440 On ch=4 n=99 v=0
211440 On ch=4 n=47 v=100
211440 On ch=4 n=97 v=100
211440 On ch=4 n=85 v=100
211560 On ch=4 n=97 v=0
211560 On ch=4 n=85 v=0
211680 On ch=4 n=97 v=100
211680 On ch=4 n=85 v=100
211680 On ch=4 n=73 v=100
211680 On ch=4 n=60 v=100
211800 On ch=4 n=47 v=0
211800 On ch=4 n=97 v=0
211800 On ch=4 n=85 v=0
211800 On ch=4 n=73 v=0
211800 On ch=4 n=60 v=0
211920 On ch=4 n=45 v=100
211920 On ch=4 n=96 v=100
211920 On ch=4 n=84 v=100
212040 On ch=4 n=45 v=0
212040 On ch=4 n=96 v=0
212040 On ch=4 n=84 v=0
212160 On ch=4 n=47 v=100
212160 On ch=4 n=97 v=100
212160 On ch=4 n=85 v=100
212160 On ch=4 n=73 v=100
212160 On ch=4 n=60 v=100
212280 On ch=4 n=97 v=0
212280 On ch=4 n=85 v=0
212280 On ch=4 n=73 v=0
212280 On ch=4 n=60 v=0
212640 On ch=4 n=97 v=100
212640 On ch=4 n=85 v=100
212640 On ch=4 n=73 v=100
212760 On ch=4 n=47 v=0
212760 On ch=4 n=97 v=0
212760 On ch=4 n=85 v=0
212760 On ch=4 n=73 v=0
212880 On ch=4 n=48 v=100
212880 On ch=4 n=98 v=100
212880 On ch=4 n=86 v=100
212880 On ch=4 n=74 v=100
213000 On ch=4 n=48 v=0
213000 On ch=4 n=98 v=0
213000 On ch=4 n=86 v=0
213000 On ch=4 n=74 v=0
213120 On ch=4 n=49 v=100
213120 On ch=4 n=99 v=100
213120 On ch=4 n=87 v=100
213120 On ch=4 n=75 v=100
213120 On ch=4 n=61 v=100
213240 On ch=4 n=49 v=0
213240 On ch=4 n=99 v=0
213240 On ch=4 n=87 v=0
213240 On ch=4 n=75 v=0
213240 On ch=4 n=61 v=0
213360 On ch=4 n=50 v=100
213360 On ch=4 n=100 v=100
213360 On ch=4 n=88 v=100
213480 On ch=4 n=50 v=0
213480 On ch=4 n=100 v=0
213480 On ch=4 n=88 v=0
213600 On ch=4 n=49 v=100
213600 On ch=4 n=99 v=100
213600 On ch=4 n=87 v=100
213600 On ch=4 n=61 v=100
213600 On ch=4 n=74 v=100
213720 On ch=4 n=49 v=0
213720 On ch=4 n=99 v=0
213720 On ch=4 n=87 v=0
213720 On ch=4 n=61 v=0
213720 On ch=4 n=74 v=0
213720 On ch=4 n=48 v=100
213720 On ch=4 n=98 v=100
213840 On ch=4 n=48 v=0
213840 On ch=4 n=98 v=0
213840 On ch=4 n=47 v=100
213840 On ch=4 n=97 v=100
213840 On ch=4 n=85 v=100
213960 On ch=4 n=47 v=0
213960 On ch=4 n=97 v=0
213960 On ch=4 n=85 v=0
214080 On ch=4 n=44 v=100
214080 On ch=4 n=96 v=100
214080 On ch=4 n=84 v=100
214080 On ch=4 n=72 v=100
214080 On ch=4 n=60 v=100
214200 On ch=4 n=96 v=0
214200 On ch=4 n=84 v=0
214200 On ch=4 n=72 v=0
214200 On ch=4 n=60 v=0
214320 On ch=4 n=96 v=100
214320 On ch=4 n=84 v=100
214320 On ch=4 n=72 v=100
214440 On ch=4 n=96 v=0
214440 On ch=4 n=84 v=0
214440 On ch=4 n=72 v=0
214560 On ch=4 n=96 v=100
214560 On ch=4 n=84 v=100
214560 On ch=4 n=72 v=100
214560 On ch=4 n=60 v=100
214680 On ch=4 n=96 v=0
214680 On ch=4 n=84 v=0
214680 On ch=4 n=72 v=0
214680 On ch=4 n=60 v=0
214800 On ch=4 n=96 v=100
214800 On ch=4 n=84 v=100
214800 On ch=4 n=72 v=100
214920 On ch=4 n=96 v=0
214920 On ch=4 n=84 v=0
214920 On ch=4 n=72 v=0
215040 On ch=4 n=96 v=100
215040 On ch=4 n=84 v=100
215040 On ch=4 n=72 v=100
215040 On ch=4 n=60 v=100
215160 On ch=4 n=96 v=0
215160 On ch=4 n=84 v=0
215160 On ch=4 n=72 v=0
215160 On ch=4 n=60 v=0
215280 On ch=4 n=96 v=100
215280 On ch=4 n=84 v=100
215280 On ch=4 n=72 v=100
215400 On ch=4 n=96 v=0
215400 On ch=4 n=84 v=0
215400 On ch=4 n=72 v=0
215520 On ch=4 n=96 v=100
215520 On ch=4 n=84 v=100
215520 On ch=4 n=72 v=100
215520 On ch=4 n=60 v=100
215640 On ch=4 n=96 v=0
215640 On ch=4 n=84 v=0
215640 On ch=4 n=72 v=0
215640 On ch=4 n=60 v=0
215760 On ch=4 n=96 v=100
215760 On ch=4 n=84 v=100
215760 On ch=4 n=72 v=100
215880 On ch=4 n=96 v=0
215880 On ch=4 n=84 v=0
215880 On ch=4 n=72 v=0
216000 On ch=4 n=96 v=100
216000 On ch=4 n=84 v=100
216000 On ch=4 n=72 v=100
216000 On ch=4 n=60 v=100
216120 On ch=4 n=96 v=0
216120 On ch=4 n=84 v=0
216120 On ch=4 n=72 v=0
216120 On ch=4 n=60 v=0
216240 On ch=4 n=96 v=100
216240 On ch=4 n=84 v=100
216240 On ch=4 n=72 v=100
216360 On ch=4 n=96 v=0
216360 On ch=4 n=84 v=0
216360 On ch=4 n=72 v=0
216480 On ch=4 n=96 v=100
216480 On ch=4 n=84 v=100
216480 On ch=4 n=72 v=100
216480 On ch=4 n=60 v=100
216600 On ch=4 n=96 v=0
216600 On ch=4 n=84 v=0
216600 On ch=4 n=72 v=0
216600 On ch=4 n=60 v=0
216720 On ch=4 n=96 v=100
216720 On ch=4 n=84 v=100
216720 On ch=4 n=72 v=100
216840 On ch=4 n=44 v=0
216840 On ch=4 n=96 v=0
216840 On ch=4 n=84 v=0
216840 On ch=4 n=72 v=0
216960 On ch=4 n=49 v=100
216960 On ch=4 n=116 v=100
216960 On ch=4 n=100 v=100
216960 On ch=4 n=88 v=100
216960 On ch=4 n=75 v=100
216960 On ch=4 n=62 v=100
217080 On ch=4 n=49 v=0
217080 On ch=4 n=100 v=0
217080 On ch=4 n=88 v=0
217080 On ch=4 n=75 v=0
217080 On ch=4 n=62 v=0
217200 On ch=4 n=49 v=100
217200 On ch=4 n=100 v=100
217200 On ch=4 n=88 v=100
217200 On ch=4 n=75 v=100
217320 On ch=4 n=49 v=0
217320 On ch=4 n=100 v=0
217320 On ch=4 n=88 v=0
217320 On ch=4 n=75 v=0
217440 On ch=4 n=48 v=100
217440 On ch=4 n=99 v=100
217440 On ch=4 n=87 v=100
217440 On ch=4 n=74 v=100
217440 On ch=4 n=61 v=100
217560 On ch=4 n=48 v=0
217560 On ch=4 n=99 v=0
217560 On ch=4 n=87 v=0
217560 On ch=4 n=74 v=0
217560 On ch=4 n=61 v=0
217560 On ch=4 n=47 v=100
217560 On ch=4 n=98 v=100
217680 On ch=4 n=47 v=0
217680 On ch=4 n=98 v=0
217680 On ch=4 n=46 v=100
217680 On ch=4 n=97 v=100
217680 On ch=4 n=85 v=100
217680 On ch=4 n=73 v=100
217800 On ch=4 n=46 v=0
217800 On ch=4 n=97 v=0
217800 On ch=4 n=85 v=0
217800 On ch=4 n=73 v=0
217920 On ch=4 n=48 v=100
217920 On ch=4 n=99 v=100
217920 On ch=4 n=87 v=100
217920 On ch=4 n=74 v=100
217920 On ch=4 n=61 v=100
218040 On ch=4 n=99 v=0
218040 On ch=4 n=87 v=0
218040 On ch=4 n=74 v=0
218040 On ch=4 n=61 v=0
218160 On ch=4 n=99 v=100
218160 On ch=4 n=87 v=100
218160 On ch=4 n=74 v=100
218280 On ch=4 n=116 v=0
218280 On ch=4 n=99 v=0
218280 On ch=4 n=87 v=0
218280 On ch=4 n=74 v=0
218400 Meta Text "[idle]"
218640 On ch=4 n=48 v=0
219360 On ch=4 n=43 v=100
241440 On ch=4 n=43 v=0
241920 Meta Text "[play]"
242160 On ch=4 n=45 v=100
242160 On ch=4 n=97 v=100
242160 On ch=4 n=85 v=100
242160 On ch=4 n=74 v=100
242280 On ch=4 n=45 v=0
242280 On ch=4 n=97 v=0
242280 On ch=4 n=85 v=0
242280 On ch=4 n=74 v=0
242400 On ch=4 n=46 v=100
242400 On ch=4 n=98 v=100
242400 On ch=4 n=86 v=100
242400 On ch=4 n=74 v=100
242400 On ch=4 n=61 v=100
242520 On ch=4 n=46 v=0
242520 On ch=4 n=98 v=0
242520 On ch=4 n=86 v=0
242520 On ch=4 n=74 v=0
242520 On ch=4 n=61 v=0
242640 On ch=4 n=48 v=100
242640 On ch=4 n=99 v=100
242640 On ch=4 n=87 v=100
242640 On ch=4 n=75 v=100
242760 On ch=4 n=48 v=0
242760 On ch=4 n=99 v=0
242760 On ch=4 n=87 v=0
242760 On ch=4 n=75 v=0
242880 On ch=4 n=49 v=100
242880 On ch=4 n=100 v=100
242880 On ch=4 n=88 v=100
242880 On ch=4 n=75 v=100
242880 On ch=4 n=62 v=100
243000 On ch=4 n=88 v=0
243000 On ch=4 n=75 v=0
243000 On ch=4 n=62 v=0
243600 On ch=4 n=49 v=0
243600 On ch=4 n=100 v=0
243600 On ch=4 n=48 v=100
243600 On ch=4 n=99 v=100
243720 On ch=4 n=48 v=0
243720 On ch=4 n=99 v=0
243720 On ch=4 n=46 v=100
243720 On ch=4 n=98 v=100
243720 On ch=4 n=86 v=100
243840 On ch=4 n=46 v=0
243840 On ch=4 n=98 v=0
243840 On ch=4 n=86 v=0
243840 On ch=4 n=44 v=100
243840 On ch=4 n=96 v=100
243840 On ch=4 n=84 v=100
243840 On ch=4 n=72 v=100
243840 On ch=4 n=60 v=100
243960 On ch=4 n=84 v=0
243960 On ch=4 n=72 v=0
243960 On ch=4 n=60 v=0
244440 On ch=4 n=96 v=0
244560 On ch=4 n=44 v=0
244560 On ch=4 n=45 v=100
244560 On ch=4 n=97 v=100
244560 On ch=4 n=85 v=100
244560 On ch=4 n=73 v=100
244560 On ch=4 n=61 v=100
244680 On ch=4 n=97 v=0
244680 On ch=4 n=85 v=0
244680 On ch=4 n=73 v=0
244680 On ch=4 n=61 v=0
244920 On ch=4 n=45 v=0
245040 On ch=4 n=46 v=100
245040 On ch=4 n=98 v=100
245040 On ch=4 n=86 v=100
245160 On ch=4 n=46 v=0
245160 On ch=4 n=98 v=0
245160 On ch=4 n=86 v=0
245280 On ch=4 n=48 v=100
245280 On ch=4 n=99 v=100
245280 On ch=4 n=87 v=100
245280 On ch=4 n=75 v=100
245280 On ch=4 n=62 v=100
245400 On ch=4 n=48 v=0
245400 On ch=4 n=99 v=0
245400 On ch=4 n=87 v=0
245400 On ch=4 n=75 v=0
245400 On ch=4 n=62 v=0
245400 On ch=4 n=46 v=100
245400 On ch=4 n=98 v=100
245520 On ch=4 n=46 v=0
245520 On ch=4 n=98 v=0
245520 On ch=4 n=45 v=100
245520 On ch=4 n=97 v=100
245520 On ch=4 n=85 v=100
245640 On ch=4 n=45 v=0
245640 On ch=4 n=97 v=0
245640 On ch=4 n=85 v=0
245760 On ch=4 n=44 v=100
245760 On ch=4 n=96 v=100
245760 On ch=4 n=84 v=100
245760 On ch=4 n=72 v=100
245760 On ch=4 n=60 v=100
245880 On ch=4 n=44 v=0
245880 On ch=4 n=96 v=0
245880 On ch=4 n=84 v=0
245880 On ch=4 n=72 v=0
245880 On ch=4 n=60 v=0
246240 On ch=4 n=44 v=100
246240 On ch=4 n=96 v=100
246240 On ch=4 n=84 v=100
246240 On ch=4 n=72 v=100
246240 On ch=4 n=60 v=100
246360 On ch=4 n=44 v=0
246360 On ch=4 n=96 v=0
246360 On ch=4 n=84 v=0
246360 On ch=4 n=72 v=0
246360 On ch=4 n=60 v=0
246480 On ch=4 n=45 v=100
246480 On ch=4 n=97 v=100
246480 On ch=4 n=85 v=100
246600 On ch=4 n=45 v=0
246600 On ch=4 n=97 v=0
246600 On ch=4 n=85 v=0
246720 On ch=4 n=47 v=100
246720 On ch=4 n=98 v=100
246720 On ch=4 n=86 v=100
246720 On ch=4 n=74 v=100
246720 On ch=4 n=61 v=100
246840 On ch=4 n=98 v=0
246840 On ch=4 n=86 v=0
246840 On ch=4 n=74 v=0
246840 On ch=4 n=61 v=0
247200 On ch=4 n=98 v=100
247200 On ch=4 n=86 v=100
247200 On ch=4 n=74 v=100
247200 On ch=4 n=61 v=100
247320 On ch=4 n=98 v=0
247320 On ch=4 n=86 v=0
247320 On ch=4 n=74 v=0
247320 On ch=4 n=61 v=0
247440 On ch=4 n=98 v=100
247440 On ch=4 n=86 v=100
247440 On ch=4 n=74 v=100
247560 On ch=4 n=98 v=0
247560 On ch=4 n=86 v=0
247560 On ch=4 n=74 v=0
247680 On ch=4 n=98 v=100
247680 On ch=4 n=86 v=100
247680 On ch=4 n=74 v=100
247680 On ch=4 n=61 v=100
247800 On ch=4 n=98 v=0
247800 On ch=4 n=86 v=0
247800 On ch=4 n=74 v=0
247800 On ch=4 n=61 v=0
247920 On ch=4 n=98 v=100
247920 On ch=4 n=86 v=100
247920 On ch=4 n=74 v=100
248040 On ch=4 n=98 v=0
248040 On ch=4 n=86 v=0
248040 On ch=4 n=74 v=0
248160 On ch=4 n=98 v=100
248160 On ch=4 n=86 v=100
248160 On ch=4 n=74 v=100
248160 On ch=4 n=61 v=100
248280 On ch=4 n=98 v=0
248280 On ch=4 n=86 v=0
248280 On ch=4 n=74 v=0
248280 On ch=4 n=61 v=0
248400 On ch=4 n=98 v=100
248400 On ch=4 n=86 v=100
248400 On ch=4 n=74 v=100
248520 On ch=4 n=98 v=0
248520 On ch=4 n=86 v=0
248520 On ch=4 n=74 v=0
248640 On ch=4 n=116 v=100
248640 On ch=4 n=98 v=100
248640 On ch=4 n=86 v=100
248640 On ch=4 n=74 v=100
248640 On ch=4 n=61 v=100
248760 On ch=4 n=98 v=0
248760 On ch=4 n=86 v=0
248760 On ch=4 n=74 v=0
248760 On ch=4 n=61 v=0
248880 On ch=4 n=98 v=100
248880 On ch=4 n=86 v=100
248880 On ch=4 n=74 v=100
249000 On ch=4 n=98 v=0
249000 On ch=4 n=86 v=0
249000 On ch=4 n=74 v=0
249120 On ch=4 n=98 v=100
249120 On ch=4 n=86 v=100
249120 On ch=4 n=74 v=100
249120 On ch=4 n=61 v=100
249240 On ch=4 n=98 v=0
249240 On ch=4 n=86 v=0
249240 On ch=4 n=74 v=0
249240 On ch=4 n=61 v=0
249360 On ch=4 n=98 v=100
249360 On ch=4 n=86 v=100
249360 On ch=4 n=74 v=100
249480 On ch=4 n=98 v=0
249480 On ch=4 n=86 v=0
249480 On ch=4 n=74 v=0
249600 On ch=4 n=98 v=100
249600 On ch=4 n=86 v=100
249600 On ch=4 n=74 v=100
249600 On ch=4 n=61 v=100
249720 On ch=4 n=98 v=0
249720 On ch=4 n=86 v=0
249720 On ch=4 n=74 v=0
249720 On ch=4 n=61 v=0
249840 On ch=4 n=98 v=100
249840 On ch=4 n=86 v=100
249840 On ch=4 n=74 v=100
249960 On ch=4 n=47 v=0
249960 On ch=4 n=98 v=0
249960 On ch=4 n=86 v=0
249960 On ch=4 n=74 v=0
250080 On ch=4 n=49 v=100
250080 On ch=4 n=99 v=100
250080 On ch=4 n=87 v=100
250080 On ch=4 n=75 v=100
250080 On ch=4 n=62 v=100
250200 On ch=4 n=49 v=0
250200 On ch=4 n=99 v=0
250200 On ch=4 n=87 v=0
250200 On ch=4 n=75 v=0
250200 On ch=4 n=62 v=0
250320 On ch=4 n=50 v=100
250320 On ch=4 n=100 v=100
250320 On ch=4 n=88 v=100
250440 On ch=4 n=50 v=0
250440 On ch=4 n=100 v=0
250440 On ch=4 n=88 v=0
250560 On ch=4 n=105 v=0
250560 On ch=4 n=116 v=0
250560 On ch=4 n=41 v=100
250560 On ch=4 n=97 v=100
250560 On ch=4 n=85 v=100
250560 On ch=4 n=73 v=100
250560 On ch=4 n=60 v=100
250680 On ch=4 n=97 v=0
250680 On ch=4 n=85 v=0
250680 On ch=4 n=73 v=0
250680 On ch=4 n=60 v=0
251040 On ch=4 n=97 v=100
251040 On ch=4 n=85 v=100
251040 On ch=4 n=73 v=100
251040 On ch=4 n=60 v=100
251160 On ch=4 n=97 v=0
251160 On ch=4 n=85 v=0
251160 On ch=4 n=73 v=0
251160 On ch=4 n=60 v=0
251520 On ch=4 n=97 v=100
251520 On ch=4 n=85 v=100
251520 On ch=4 n=73 v=100
251520 On ch=4 n=60 v=100
251640 On ch=4 n=97 v=0
251640 On ch=4 n=85 v=0
251640 On ch=4 n=73 v=0
251640 On ch=4 n=60 v=0
252000 On ch=4 n=97 v=100
252000 On ch=4 n=85 v=100
252000 On ch=4 n=73 v=100
252000 On ch=4 n=60 v=100
252120 On ch=4 n=97 v=0
252120 On ch=4 n=85 v=0
252120 On ch=4 n=73 v=0
252120 On ch=4 n=60 v=0
252480 On ch=4 n=97 v=100
252480 On ch=4 n=85 v=100
252480 On ch=4 n=73 v=100
252480 On ch=4 n=60 v=100
252600 On ch=4 n=97 v=0
252600 On ch=4 n=85 v=0
252600 On ch=4 n=73 v=0
252600 On ch=4 n=60 v=0
252960 On ch=4 n=97 v=100
252960 On ch=4 n=85 v=100
252960 On ch=4 n=73 v=100
252960 On ch=4 n=60 v=100
253080 On ch=4 n=97 v=0
253080 On ch=4 n=85 v=0
253080 On ch=4 n=73 v=0
253080 On ch=4 n=60 v=0
253440 On ch=4 n=97 v=100
253440 On ch=4 n=85 v=100
253440 On ch=4 n=73 v=100
253440 On ch=4 n=60 v=100
253560 On ch=4 n=97 v=0
253560 On ch=4 n=85 v=0
253560 On ch=4 n=73 v=0
253560 On ch=4 n=60 v=0
253920 On ch=4 n=97 v=100
253920 On ch=4 n=85 v=100
253920 On ch=4 n=73 v=100
253920 On ch=4 n=60 v=100
254040 On ch=4 n=41 v=0
254040 On ch=4 n=97 v=0
254040 On ch=4 n=85 v=0
254040 On ch=4 n=73 v=0
254040 On ch=4 n=60 v=0
254160 On ch=4 n=40 v=100
254160 On ch=4 n=96 v=100
254160 On ch=4 n=84 v=100
254160 On ch=4 n=72 v=100
254280 On ch=4 n=40 v=0
254280 On ch=4 n=96 v=0
254280 On ch=4 n=84 v=0
254280 On ch=4 n=72 v=0
254400 On ch=4 n=41 v=100
254400 On ch=4 n=97 v=100
254400 On ch=4 n=85 v=100
254400 On ch=4 n=73 v=100
254400 On ch=4 n=60 v=100
254520 On ch=4 n=97 v=0
254520 On ch=4 n=85 v=0
254520 On ch=4 n=73 v=0
254520 On ch=4 n=60 v=0
254880 On ch=4 n=97 v=100
254880 On ch=4 n=85 v=100
254880 On ch=4 n=73 v=100
254880 On ch=4 n=60 v=100
255000 On ch=4 n=97 v=0
255000 On ch=4 n=85 v=0
255000 On ch=4 n=73 v=0
255000 On ch=4 n=60 v=0
255360 On ch=4 n=97 v=100
255360 On ch=4 n=85 v=100
255360 On ch=4 n=73 v=100
255360 On ch=4 n=60 v=100
255480 On ch=4 n=97 v=0
255480 On ch=4 n=85 v=0
255480 On ch=4 n=73 v=0
255480 On ch=4 n=60 v=0
255840 On ch=4 n=97 v=100
255840 On ch=4 n=85 v=100
255840 On ch=4 n=73 v=100
255840 On ch=4 n=60 v=100
255960 On ch=4 n=97 v=0
255960 On ch=4 n=85 v=0
255960 On ch=4 n=73 v=0
255960 On ch=4 n=60 v=0
256320 On ch=4 n=97 v=100
256320 On ch=4 n=85 v=100
256320 On ch=4 n=73 v=100
256320 On ch=4 n=60 v=100
256440 On ch=4 n=97 v=0
256440 On ch=4 n=85 v=0
256440 On ch=4 n=73 v=0
256440 On ch=4 n=60 v=0
256800 On ch=4 n=97 v=100
256800 On ch=4 n=85 v=100
256800 On ch=4 n=73 v=100
256800 On ch=4 n=60 v=100
256920 On ch=4 n=97 v=0
256920 On ch=4 n=85 v=0
256920 On ch=4 n=73 v=0
256920 On ch=4 n=60 v=0
257280 On ch=4 n=97 v=100
257280 On ch=4 n=85 v=100
257280 On ch=4 n=73 v=100
257280 On ch=4 n=60 v=100
257400 On ch=4 n=97 v=0
257400 On ch=4 n=85 v=0
257400 On ch=4 n=73 v=0
257400 On ch=4 n=60 v=0
257760 On ch=4 n=105 v=100
257760 On ch=4 n=97 v=100
257760 On ch=4 n=85 v=100
257760 On ch=4 n=73 v=100
257760 On ch=4 n=60 v=100
257880 On ch=4 n=41 v=0
257880 On ch=4 n=97 v=0
257880 On ch=4 n=85 v=0
257880 On ch=4 n=73 v=0
257880 On ch=4 n=60 v=0
258000 On ch=4 n=40 v=100
258000 On ch=4 n=96 v=100
258000 On ch=4 n=84 v=100
258000 On ch=4 n=72 v=100
258120 On ch=4 n=40 v=0
258120 On ch=4 n=96 v=0
258120 On ch=4 n=84 v=0
258120 On ch=4 n=72 v=0
258240 On ch=4 n=41 v=100
258240 On ch=4 n=97 v=100
258240 On ch=4 n=85 v=100
258240 On ch=4 n=73 v=100
258240 On ch=4 n=60 v=100
258360 On ch=4 n=106 v=0
258360 On ch=4 n=97 v=0
258360 On ch=4 n=85 v=0
258360 On ch=4 n=73 v=0
258360 On ch=4 n=60 v=0
258720 On ch=4 n=97 v=100
258720 On ch=4 n=85 v=100
258720 On ch=4 n=73 v=100
258720 On ch=4 n=60 v=100
258840 On ch=4 n=97 v=0
258840 On ch=4 n=85 v=0
258840 On ch=4 n=73 v=0
258840 On ch=4 n=60 v=0
259200 On ch=4 n=97 v=100
259200 On ch=4 n=85 v=100
259200 On ch=4 n=73 v=100
259200 On ch=4 n=60 v=100
259320 On ch=4 n=97 v=0
259320 On ch=4 n=85 v=0
259320 On ch=4 n=73 v=0
259320 On ch=4 n=60 v=0
259680 On ch=4 n=97 v=100
259680 On ch=4 n=85 v=100
259680 On ch=4 n=73 v=100
259680 On ch=4 n=60 v=100
259800 On ch=4 n=97 v=0
259800 On ch=4 n=85 v=0
259800 On ch=4 n=73 v=0
259800 On ch=4 n=60 v=0
260160 On ch=4 n=97 v=100
260160 On ch=4 n=85 v=100
260160 On ch=4 n=73 v=100
260160 On ch=4 n=60 v=100
260280 On ch=4 n=97 v=0
260280 On ch=4 n=85 v=0
260280 On ch=4 n=73 v=0
260280 On ch=4 n=60 v=0
260640 On ch=4 n=97 v=100
260640 On ch=4 n=85 v=100
260640 On ch=4 n=73 v=100
260640 On ch=4 n=60 v=100
260760 On ch=4 n=97 v=0
260760 On ch=4 n=85 v=0
260760 On ch=4 n=73 v=0
260760 On ch=4 n=60 v=0
261120 On ch=4 n=97 v=100
261120 On ch=4 n=85 v=100
261120 On ch=4 n=73 v=100
261120 On ch=4 n=60 v=100
261240 On ch=4 n=97 v=0
261240 On ch=4 n=85 v=0
261240 On ch=4 n=73 v=0
261240 On ch=4 n=60 v=0
261600 On ch=4 n=97 v=100
261600 On ch=4 n=85 v=100
261600 On ch=4 n=73 v=100
261600 On ch=4 n=60 v=100
261720 On ch=4 n=41 v=0
261720 On ch=4 n=97 v=0
261720 On ch=4 n=85 v=0
261720 On ch=4 n=73 v=0
261720 On ch=4 n=60 v=0
261840 On ch=4 n=40 v=100
261840 On ch=4 n=96 v=100
261840 On ch=4 n=84 v=100
261840 On ch=4 n=72 v=100
261960 On ch=4 n=40 v=0
261960 On ch=4 n=96 v=0
261960 On ch=4 n=84 v=0
261960 On ch=4 n=72 v=0
262080 On ch=4 n=41 v=100
262080 On ch=4 n=97 v=100
262080 On ch=4 n=85 v=100
262080 On ch=4 n=73 v=100
262080 On ch=4 n=60 v=100
262200 On ch=4 n=97 v=0
262200 On ch=4 n=85 v=0
262200 On ch=4 n=73 v=0
262200 On ch=4 n=60 v=0
262560 On ch=4 n=97 v=100
262560 On ch=4 n=85 v=100
262560 On ch=4 n=73 v=100
262560 On ch=4 n=60 v=100
262680 On ch=4 n=97 v=0
262680 On ch=4 n=85 v=0
262680 On ch=4 n=73 v=0
262680 On ch=4 n=60 v=0
263040 On ch=4 n=97 v=100
263040 On ch=4 n=85 v=100
263040 On ch=4 n=73 v=100
263040 On ch=4 n=60 v=100
263160 On ch=4 n=97 v=0
263160 On ch=4 n=85 v=0
263160 On ch=4 n=73 v=0
263160 On ch=4 n=60 v=0
263520 On ch=4 n=97 v=100
263520 On ch=4 n=85 v=100
263520 On ch=4 n=73 v=100
263520 On ch=4 n=60 v=100
263640 On ch=4 n=97 v=0
263640 On ch=4 n=85 v=0
263640 On ch=4 n=73 v=0
263640 On ch=4 n=60 v=0
264000 On ch=4 n=97 v=100
264000 On ch=4 n=85 v=100
264000 On ch=4 n=73 v=100
264000 On ch=4 n=60 v=100
264120 On ch=4 n=97 v=0
264120 On ch=4 n=85 v=0
264120 On ch=4 n=73 v=0
264120 On ch=4 n=60 v=0
264480 On ch=4 n=97 v=100
264480 On ch=4 n=85 v=100
264480 On ch=4 n=73 v=100
264480 On ch=4 n=60 v=100
264600 On ch=4 n=97 v=0
264600 On ch=4 n=85 v=0
264600 On ch=4 n=73 v=0
264600 On ch=4 n=60 v=0
264960 On ch=4 n=97 v=100
264960 On ch=4 n=85 v=100
264960 On ch=4 n=73 v=100
264960 On ch=4 n=60 v=100
265080 On ch=4 n=97 v=0
265080 On ch=4 n=85 v=0
265080 On ch=4 n=73 v=0
265080 On ch=4 n=60 v=0
265440 On ch=4 n=106 v=100
265440 On ch=4 n=97 v=100
265440 On ch=4 n=85 v=100
265440 On ch=4 n=73 v=100
265440 On ch=4 n=60 v=100
265560 On ch=4 n=41 v=0
265560 On ch=4 n=97 v=0
265560 On ch=4 n=85 v=0
265560 On ch=4 n=73 v=0
265560 On ch=4 n=60 v=0
265680 On ch=4 n=40 v=100
265680 On ch=4 n=96 v=100
265680 On ch=4 n=84 v=100
265680 On ch=4 n=72 v=100
265800 On ch=4 n=40 v=0
265800 On ch=4 n=96 v=0
265800 On ch=4 n=84 v=0
265800 On ch=4 n=72 v=0
265920 Meta Text "[mellow]"
265920 On ch=4 n=41 v=100
265920 On ch=4 n=97 v=100
265920 On ch=4 n=85 v=100
265920 On ch=4 n=73 v=100
265920 On ch=4 n=60 v=100
266040 On ch=4 n=105 v=0
266040 On ch=4 n=97 v=0
266040 On ch=4 n=85 v=0
266040 On ch=4 n=73 v=0
266040 On ch=4 n=60 v=0
266400 On ch=4 n=97 v=100
266400 On ch=4 n=85 v=100
266400 On ch=4 n=73 v=100
266400 On ch=4 n=60 v=100
266520 On ch=4 n=97 v=0
266520 On ch=4 n=85 v=0
266520 On ch=4 n=73 v=0
266520 On ch=4 n=60 v=0
266880 On ch=4 n=97 v=100
266880 On ch=4 n=85 v=100
266880 On ch=4 n=73 v=100
266880 On ch=4 n=60 v=100
267000 On ch=4 n=97 v=0
267000 On ch=4 n=85 v=0
267000 On ch=4 n=73 v=0
267000 On ch=4 n=60 v=0
267360 On ch=4 n=97 v=100
267360 On ch=4 n=85 v=100
267360 On ch=4 n=73 v=100
267360 On ch=4 n=60 v=100
267480 On ch=4 n=97 v=0
267480 On ch=4 n=85 v=0
267480 On ch=4 n=73 v=0
267480 On ch=4 n=60 v=0
267840 On ch=4 n=97 v=100
267840 On ch=4 n=85 v=100
267840 On ch=4 n=73 v=100
267840 On ch=4 n=60 v=100
267960 On ch=4 n=97 v=0
267960 On ch=4 n=85 v=0
267960 On ch=4 n=73 v=0
267960 On ch=4 n=60 v=0
268320 On ch=4 n=97 v=100
268320 On ch=4 n=85 v=100
268320 On ch=4 n=73 v=100
268320 On ch=4 n=60 v=100
268440 On ch=4 n=97 v=0
268440 On ch=4 n=85 v=0
268440 On ch=4 n=73 v=0
268440 On ch=4 n=60 v=0
268800 On ch=4 n=97 v=100
268800 On ch=4 n=85 v=100
268800 On ch=4 n=73 v=100
268800 On ch=4 n=60 v=100
268920 On ch=4 n=97 v=0
268920 On ch=4 n=85 v=0
268920 On ch=4 n=73 v=0
268920 On ch=4 n=60 v=0
269280 On ch=4 n=97 v=100
269280 On ch=4 n=85 v=100
269280 On ch=4 n=73 v=100
269280 On ch=4 n=60 v=100
269400 On ch=4 n=97 v=0
269400 On ch=4 n=85 v=0
269400 On ch=4 n=73 v=0
269400 On ch=4 n=60 v=0
269760 On ch=4 n=97 v=100
269760 On ch=4 n=85 v=100
269760 On ch=4 n=73 v=100
269760 On ch=4 n=60 v=100
269880 On ch=4 n=97 v=0
269880 On ch=4 n=85 v=0
269880 On ch=4 n=73 v=0
269880 On ch=4 n=60 v=0
270240 On ch=4 n=97 v=100
270240 On ch=4 n=85 v=100
270240 On ch=4 n=73 v=100
270240 On ch=4 n=60 v=100
270360 On ch=4 n=97 v=0
270360 On ch=4 n=85 v=0
270360 On ch=4 n=73 v=0
270360 On ch=4 n=60 v=0
270720 On ch=4 n=97 v=100
270720 On ch=4 n=85 v=100
270720 On ch=4 n=73 v=100
270720 On ch=4 n=60 v=100
270840 On ch=4 n=97 v=0
270840 On ch=4 n=85 v=0
270840 On ch=4 n=73 v=0
270840 On ch=4 n=60 v=0
271200 On ch=4 n=97 v=100
271200 On ch=4 n=85 v=100
271200 On ch=4 n=73 v=100
271200 On ch=4 n=60 v=100
271320 On ch=4 n=97 v=0
271320 On ch=4 n=85 v=0
271320 On ch=4 n=73 v=0
271320 On ch=4 n=60 v=0
271680 On ch=4 n=97 v=100
271680 On ch=4 n=85 v=100
271680 On ch=4 n=73 v=100
271680 On ch=4 n=60 v=100
271800 On ch=4 n=97 v=0
271800 On ch=4 n=85 v=0
271800 On ch=4 n=73 v=0
271800 On ch=4 n=60 v=0
272160 On ch=4 n=97 v=100
272160 On ch=4 n=85 v=100
272160 On ch=4 n=73 v=100
272160 On ch=4 n=60 v=100
272280 On ch=4 n=97 v=0
272280 On ch=4 n=85 v=0
272280 On ch=4 n=73 v=0
272280 On ch=4 n=60 v=0
272640 On ch=4 n=97 v=100
272640 On ch=4 n=85 v=100
272640 On ch=4 n=73 v=100
272640 On ch=4 n=60 v=100
272760 On ch=4 n=97 v=0
272760 On ch=4 n=85 v=0
272760 On ch=4 n=73 v=0
272760 On ch=4 n=60 v=0
273120 On ch=4 n=105 v=100
273120 On ch=4 n=97 v=100
273120 On ch=4 n=85 v=100
273120 On ch=4 n=73 v=100
273120 On ch=4 n=60 v=100
273240 On ch=4 n=41 v=0
273240 On ch=4 n=97 v=0
273240 On ch=4 n=85 v=0
273240 On ch=4 n=73 v=0
273240 On ch=4 n=60 v=0
273360 On ch=4 n=40 v=100
273360 On ch=4 n=96 v=100
273360 On ch=4 n=84 v=100
273360 On ch=4 n=72 v=100
273480 On ch=4 n=40 v=0
273480 On ch=4 n=96 v=0
273480 On ch=4 n=84 v=0
273480 On ch=4 n=72 v=0
273600 On ch=4 n=41 v=100
273600 On ch=4 n=97 v=100
273600 On ch=4 n=85 v=100
273600 On ch=4 n=73 v=100
273600 On ch=4 n=60 v=100
273720 On ch=4 n=106 v=0
273720 On ch=4 n=97 v=0
273720 On ch=4 n=85 v=0
273720 On ch=4 n=73 v=0
273720 On ch=4 n=60 v=0
274080 On ch=4 n=97 v=100
274080 On ch=4 n=85 v=100
274080 On ch=4 n=73 v=100
274080 On ch=4 n=60 v=100
274200 On ch=4 n=97 v=0
274200 On ch=4 n=85 v=0
274200 On ch=4 n=73 v=0
274200 On ch=4 n=60 v=0
274560 On ch=4 n=97 v=100
274560 On ch=4 n=85 v=100
274560 On ch=4 n=73 v=100
274560 On ch=4 n=60 v=100
274680 On ch=4 n=97 v=0
274680 On ch=4 n=85 v=0
274680 On ch=4 n=73 v=0
274680 On ch=4 n=60 v=0
275040 On ch=4 n=97 v=100
275040 On ch=4 n=85 v=100
275040 On ch=4 n=73 v=100
275040 On ch=4 n=60 v=100
275160 On ch=4 n=97 v=0
275160 On ch=4 n=85 v=0
275160 On ch=4 n=73 v=0
275160 On ch=4 n=60 v=0
275520 On ch=4 n=97 v=100
275520 On ch=4 n=85 v=100
275520 On ch=4 n=73 v=100
275520 On ch=4 n=60 v=100
275640 On ch=4 n=97 v=0
275640 On ch=4 n=85 v=0
275640 On ch=4 n=73 v=0
275640 On ch=4 n=60 v=0
276000 On ch=4 n=97 v=100
276000 On ch=4 n=85 v=100
276000 On ch=4 n=73 v=100
276000 On ch=4 n=60 v=100
276120 On ch=4 n=97 v=0
276120 On ch=4 n=85 v=0
276120 On ch=4 n=73 v=0
276120 On ch=4 n=60 v=0
276480 On ch=4 n=97 v=100
276480 On ch=4 n=85 v=100
276480 On ch=4 n=73 v=100
276480 On ch=4 n=60 v=100
276600 On ch=4 n=97 v=0
276600 On ch=4 n=85 v=0
276600 On ch=4 n=73 v=0
276600 On ch=4 n=60 v=0
276960 On ch=4 n=97 v=100
276960 On ch=4 n=85 v=100
276960 On ch=4 n=73 v=100
276960 On ch=4 n=60 v=100
277080 On ch=4 n=97 v=0
277080 On ch=4 n=85 v=0
277080 On ch=4 n=73 v=0
277080 On ch=4 n=60 v=0
277440 On ch=4 n=97 v=100
277440 On ch=4 n=85 v=100
277440 On ch=4 n=73 v=100
277440 On ch=4 n=60 v=100
277560 On ch=4 n=97 v=0
277560 On ch=4 n=85 v=0
277560 On ch=4 n=73 v=0
277560 On ch=4 n=60 v=0
277920 On ch=4 n=97 v=100
277920 On ch=4 n=85 v=100
277920 On ch=4 n=73 v=100
277920 On ch=4 n=60 v=100
278040 On ch=4 n=97 v=0
278040 On ch=4 n=85 v=0
278040 On ch=4 n=73 v=0
278040 On ch=4 n=60 v=0
278400 On ch=4 n=97 v=100
278400 On ch=4 n=85 v=100
278400 On ch=4 n=73 v=100
278400 On ch=4 n=60 v=100
278520 On ch=4 n=97 v=0
278520 On ch=4 n=85 v=0
278520 On ch=4 n=73 v=0
278520 On ch=4 n=60 v=0
278880 On ch=4 n=97 v=100
278880 On ch=4 n=85 v=100
278880 On ch=4 n=73 v=100
278880 On ch=4 n=60 v=100
279000 On ch=4 n=97 v=0
279000 On ch=4 n=85 v=0
279000 On ch=4 n=73 v=0
279000 On ch=4 n=60 v=0
279360 On ch=4 n=97 v=100
279360 On ch=4 n=85 v=100
279360 On ch=4 n=73 v=100
279360 On ch=4 n=60 v=100
279480 On ch=4 n=97 v=0
279480 On ch=4 n=85 v=0
279480 On ch=4 n=73 v=0
279480 On ch=4 n=60 v=0
279840 On ch=4 n=97 v=100
279840 On ch=4 n=85 v=100
279840 On ch=4 n=73 v=100
279840 On ch=4 n=60 v=100
279960 On ch=4 n=97 v=0
279960 On ch=4 n=85 v=0
279960 On ch=4 n=73 v=0
279960 On ch=4 n=60 v=0
280080 On ch=4 n=96 v=100
280080 On ch=4 n=84 v=100
280080 On ch=4 n=72 v=100
280200 On ch=4 n=41 v=0
280200 On ch=4 n=96 v=0
280200 On ch=4 n=84 v=0
280200 On ch=4 n=72 v=0
280320 Meta Text "[play]"
280320 On ch=4 n=106 v=100
280320 On ch=4 n=47 v=100
280320 On ch=4 n=98 v=100
280320 On ch=4 n=86 v=100
280320 On ch=4 n=73 v=100
280320 On ch=4 n=61 v=100
280440 On ch=4 n=98 v=0
280440 On ch=4 n=86 v=0
280440 On ch=4 n=73 v=0
280440 On ch=4 n=61 v=0
280560 On ch=4 n=47 v=0
280560 On ch=4 n=98 v=100
280560 On ch=4 n=86 v=100
280560 On ch=4 n=73 v=100
280680 On ch=4 n=98 v=0
280680 On ch=4 n=86 v=0
280680 On ch=4 n=73 v=0
280680 On ch=4 n=97 v=100
280800 On ch=4 n=97 v=0
280800 On ch=4 n=49 v=100
280800 On ch=4 n=99 v=100
280800 On ch=4 n=87 v=100
280800 On ch=4 n=74 v=100
280800 On ch=4 n=62 v=100
280920 On ch=4 n=99 v=0
280920 On ch=4 n=87 v=0
280920 On ch=4 n=74 v=0
280920 On ch=4 n=62 v=0
281040 On ch=4 n=49 v=0
281040 On ch=4 n=99 v=100
281040 On ch=4 n=87 v=100
281040 On ch=4 n=74 v=100
281160 On ch=4 n=99 v=0
281160 On ch=4 n=87 v=0
281160 On ch=4 n=74 v=0
281160 On ch=4 n=98 v=100
281280 On ch=4 n=98 v=0
281280 On ch=4 n=41 v=100
281280 On ch=4 n=97 v=100
281280 On ch=4 n=85 v=100
281280 On ch=4 n=73 v=100
281280 On ch=4 n=60 v=100
281400 On ch=4 n=105 v=0
281400 On ch=4 n=97 v=0
281400 On ch=4 n=85 v=0
281400 On ch=4 n=73 v=0
281400 On ch=4 n=60 v=0
281760 On ch=4 n=97 v=100
281760 On ch=4 n=85 v=100
281760 On ch=4 n=73 v=100
281760 On ch=4 n=60 v=100
281880 On ch=4 n=97 v=0
281880 On ch=4 n=85 v=0
281880 On ch=4 n=73 v=0
281880 On ch=4 n=60 v=0
282240 On ch=4 n=97 v=100
282240 On ch=4 n=85 v=100
282240 On ch=4 n=73 v=100
282240 On ch=4 n=60 v=100
282360 On ch=4 n=97 v=0
282360 On ch=4 n=85 v=0
282360 On ch=4 n=73 v=0
282360 On ch=4 n=60 v=0
282720 On ch=4 n=97 v=100
282720 On ch=4 n=85 v=100
282720 On ch=4 n=73 v=100
282720 On ch=4 n=60 v=100
282840 On ch=4 n=97 v=0
282840 On ch=4 n=85 v=0
282840 On ch=4 n=73 v=0
282840 On ch=4 n=60 v=0
283200 On ch=4 n=97 v=100
283200 On ch=4 n=85 v=100
283200 On ch=4 n=73 v=100
283200 On ch=4 n=60 v=100
283320 On ch=4 n=97 v=0
283320 On ch=4 n=85 v=0
283320 On ch=4 n=73 v=0
283320 On ch=4 n=60 v=0
283680 On ch=4 n=97 v=100
283680 On ch=4 n=85 v=100
283680 On ch=4 n=73 v=100
283680 On ch=4 n=60 v=100
283800 On ch=4 n=97 v=0
283800 On ch=4 n=85 v=0
283800 On ch=4 n=73 v=0
283800 On ch=4 n=60 v=0
284160 On ch=4 n=97 v=100
284160 On ch=4 n=85 v=100
284160 On ch=4 n=73 v=100
284160 On ch=4 n=60 v=100
284280 On ch=4 n=97 v=0
284280 On ch=4 n=85 v=0
284280 On ch=4 n=73 v=0
284280 On ch=4 n=60 v=0
284640 On ch=4 n=97 v=100
284640 On ch=4 n=85 v=100
284640 On ch=4 n=73 v=100
284640 On ch=4 n=60 v=100
284760 On ch=4 n=41 v=0
284760 On ch=4 n=97 v=0
284760 On ch=4 n=85 v=0
284760 On ch=4 n=73 v=0
284760 On ch=4 n=60 v=0
284880 On ch=4 n=40 v=100
284880 On ch=4 n=96 v=100
284880 On ch=4 n=84 v=100
284880 On ch=4 n=72 v=100
285000 On ch=4 n=40 v=0
285000 On ch=4 n=96 v=0
285000 On ch=4 n=84 v=0
285000 On ch=4 n=72 v=0
285120 On ch=4 n=41 v=100
285120 On ch=4 n=97 v=100
285120 On ch=4 n=85 v=100
285120 On ch=4 n=73 v=100
285120 On ch=4 n=60 v=100
285240 On ch=4 n=97 v=0
285240 On ch=4 n=85 v=0
285240 On ch=4 n=73 v=0
285240 On ch=4 n=60 v=0
285600 On ch=4 n=97 v=100
285600 On ch=4 n=85 v=100
285600 On ch=4 n=73 v=100
285600 On ch=4 n=60 v=100
285720 On ch=4 n=97 v=0
285720 On ch=4 n=85 v=0
285720 On ch=4 n=73 v=0
285720 On ch=4 n=60 v=0
286080 On ch=4 n=97 v=100
286080 On ch=4 n=85 v=100
286080 On ch=4 n=73 v=100
286080 On ch=4 n=60 v=100
286200 On ch=4 n=97 v=0
286200 On ch=4 n=85 v=0
286200 On ch=4 n=73 v=0
286200 On ch=4 n=60 v=0
286560 On ch=4 n=97 v=100
286560 On ch=4 n=85 v=100
286560 On ch=4 n=73 v=100
286560 On ch=4 n=60 v=100
286680 On ch=4 n=97 v=0
286680 On ch=4 n=85 v=0
286680 On ch=4 n=73 v=0
286680 On ch=4 n=60 v=0
287040 On ch=4 n=97 v=100
287040 On ch=4 n=85 v=100
287040 On ch=4 n=73 v=100
287040 On ch=4 n=60 v=100
287160 On ch=4 n=97 v=0
287160 On ch=4 n=85 v=0
287160 On ch=4 n=73 v=0
287160 On ch=4 n=60 v=0
287520 On ch=4 n=97 v=100
287520 On ch=4 n=85 v=100
287520 On ch=4 n=73 v=100
287520 On ch=4 n=60 v=100
287640 On ch=4 n=97 v=0
287640 On ch=4 n=85 v=0
287640 On ch=4 n=73 v=0
287640 On ch=4 n=60 v=0
287760 On ch=4 n=96 v=100
287760 On ch=4 n=84 v=100
287760 On ch=4 n=72 v=100
287880 On ch=4 n=41 v=0
287880 On ch=4 n=96 v=0
287880 On ch=4 n=84 v=0
287880 On ch=4 n=72 v=0
288000 On ch=4 n=105 v=100
288000 On ch=4 n=47 v=100
288000 On ch=4 n=98 v=100
288000 On ch=4 n=86 v=100
288000 On ch=4 n=73 v=100
288000 On ch=4 n=61 v=100
288000 On ch=4 n=116 v=100
288120 On ch=4 n=47 v=0
288120 On ch=4 n=98 v=0
288120 On ch=4 n=86 v=0
288120 On ch=4 n=73 v=0
288120 On ch=4 n=61 v=0
288240 On ch=4 n=45 v=100
288240 On ch=4 n=96 v=100
288240 On ch=4 n=85 v=100
288240 On ch=4 n=72 v=100
288360 On ch=4 n=45 v=0
288360 On ch=4 n=96 v=0
288360 On ch=4 n=85 v=0
288360 On ch=4 n=72 v=0
288480 On ch=4 n=49 v=100
288480 On ch=4 n=99 v=100
288480 On ch=4 n=87 v=100
288480 On ch=4 n=74 v=100
288480 On ch=4 n=62 v=100
288600 On ch=4 n=49 v=0
288600 On ch=4 n=99 v=0
288600 On ch=4 n=87 v=0
288600 On ch=4 n=74 v=0
288600 On ch=4 n=62 v=0
288720 On ch=4 n=47 v=100
288720 On ch=4 n=97 v=100
288720 On ch=4 n=86 v=100
288720 On ch=4 n=73 v=100
288840 On ch=4 n=47 v=0
288840 On ch=4 n=97 v=0
288840 On ch=4 n=86 v=0
288840 On ch=4 n=73 v=0
288960 On ch=4 n=49 v=100
288960 On ch=4 n=100 v=100
288960 On ch=4 n=88 v=100
288960 On ch=4 n=75 v=100
288960 On ch=4 n=62 v=100
289080 On ch=4 n=116 v=0
289080 On ch=4 n=100 v=0
289080 On ch=4 n=88 v=0
289080 On ch=4 n=75 v=0
289080 On ch=4 n=62 v=0
289440 On ch=4 n=49 v=0
289440 On ch=4 n=48 v=100
289440 On ch=4 n=99 v=100
289440 On ch=4 n=88 v=100
289440 On ch=4 n=75 v=100
289440 On ch=4 n=62 v=100
289500 On ch=4 n=48 v=0
289500 On ch=4 n=99 v=0
289500 On ch=4 n=49 v=100
289500 On ch=4 n=100 v=100
289560 On ch=4 n=88 v=0
289560 On ch=4 n=75 v=0
289560 On ch=4 n=62 v=0
289620 On ch=4 n=100 v=0
289920 On ch=4 n=100 v=100
289920 On ch=4 n=88 v=100
289920 On ch=4 n=75 v=100
289920 On ch=4 n=62 v=100
290040 On ch=4 n=100 v=0
290040 On ch=4 n=88 v=0
290040 On ch=4 n=75 v=0
290040 On ch=4 n=62 v=0
290400 On ch=4 n=49 v=0
290400 On ch=4 n=48 v=100
290400 On ch=4 n=99 v=100
290400 On ch=4 n=88 v=100
290400 On ch=4 n=75 v=100
290400 On ch=4 n=62 v=100
290460 On ch=4 n=48 v=0
290460 On ch=4 n=99 v=0
290460 On ch=4 n=49 v=100
290460 On ch=4 n=100 v=100
290520 On ch=4 n=88 v=0
290520 On ch=4 n=75 v=0
290520 On ch=4 n=62 v=0
290580 On ch=4 n=100 v=0
290880 On ch=4 n=100 v=100
290880 On ch=4 n=88 v=100
290880 On ch=4 n=75 v=100
290880 On ch=4 n=62 v=100
291000 On ch=4 n=100 v=0
291000 On ch=4 n=88 v=0
291000 On ch=4 n=75 v=0
291000 On ch=4 n=62 v=0
291360 On ch=4 n=100 v=100
291360 On ch=4 n=88 v=100
291360 On ch=4 n=75 v=100
291360 On ch=4 n=62 v=100
291480 On ch=4 n=49 v=0
291480 On ch=4 n=100 v=0
291480 On ch=4 n=88 v=0
291480 On ch=4 n=75 v=0
291480 On ch=4 n=62 v=0
291600 On ch=4 n=47 v=100
291600 On ch=4 n=99 v=100
291600 On ch=4 n=87 v=100
291600 On ch=4 n=73 v=100
291720 On ch=4 n=47 v=0
291720 On ch=4 n=99 v=0
291720 On ch=4 n=87 v=0
291720 On ch=4 n=73 v=0
291840 On ch=4 n=49 v=100
291840 On ch=4 n=100 v=100
291840 On ch=4 n=88 v=100
291840 On ch=4 n=62 v=100
291840 On ch=4 n=74 v=100
291960 On ch=4 n=49 v=0
291960 On ch=4 n=100 v=0
291960 On ch=4 n=88 v=0
291960 On ch=4 n=62 v=0
291960 On ch=4 n=74 v=0
291960 On ch=4 n=47 v=100
291960 On ch=4 n=99 v=100
292080 On ch=4 n=47 v=0
292080 On ch=4 n=99 v=0
292080 On ch=4 n=46 v=100
292080 On ch=4 n=98 v=100
292080 On ch=4 n=86 v=100
292200 On ch=4 n=46 v=0
292200 On ch=4 n=98 v=0
292200 On ch=4 n=86 v=0
292320 On ch=4 n=47 v=100
292320 On ch=4 n=99 v=100
292320 On ch=4 n=87 v=100
292320 On ch=4 n=62 v=100
292320 On ch=4 n=74 v=100
292440 On ch=4 n=47 v=0
292440 On ch=4 n=99 v=0
292440 On ch=4 n=87 v=0
292440 On ch=4 n=62 v=0
292440 On ch=4 n=74 v=0
292440 On ch=4 n=49 v=100
292440 On ch=4 n=100 v=100
292560 On ch=4 n=49 v=0
292560 On ch=4 n=100 v=0
292560 On ch=4 n=46 v=100
292560 On ch=4 n=98 v=100
292560 On ch=4 n=86 v=100
292560 On ch=4 n=72 v=100
292680 On ch=4 n=46 v=0
292680 On ch=4 n=98 v=0
292680 On ch=4 n=86 v=0
292680 On ch=4 n=72 v=0
292800 On ch=4 n=47 v=100
292800 On ch=4 n=97 v=100
292800 On ch=4 n=85 v=100
292800 On ch=4 n=73 v=100
292800 On ch=4 n=60 v=100
292920 On ch=4 n=97 v=0
292920 On ch=4 n=85 v=0
292920 On ch=4 n=73 v=0
292920 On ch=4 n=60 v=0
293280 On ch=4 n=97 v=100
293280 On ch=4 n=85 v=100
293280 On ch=4 n=73 v=100
293280 On ch=4 n=60 v=100
293400 On ch=4 n=47 v=0
293400 On ch=4 n=97 v=0
293400 On ch=4 n=85 v=0
293400 On ch=4 n=73 v=0
293400 On ch=4 n=60 v=0
293520 On ch=4 n=48 v=100
293520 On ch=4 n=98 v=100
293520 On ch=4 n=86 v=100
293520 On ch=4 n=73 v=100
293640 On ch=4 n=48 v=0
293640 On ch=4 n=98 v=0
293640 On ch=4 n=86 v=0
293640 On ch=4 n=73 v=0
293760 On ch=4 n=48 v=100
293760 On ch=4 n=98 v=100
293760 On ch=4 n=86 v=100
293760 On ch=4 n=74 v=100
293760 On ch=4 n=61 v=100
293880 On ch=4 n=48 v=0
293880 On ch=4 n=98 v=0
293880 On ch=4 n=86 v=0
293880 On ch=4 n=74 v=0
293880 On ch=4 n=61 v=0
293880 On ch=4 n=49 v=100
293880 On ch=4 n=99 v=100
294000 On ch=4 n=49 v=0
294000 On ch=4 n=99 v=0
294000 On ch=4 n=50 v=100
294000 On ch=4 n=100 v=100
294000 On ch=4 n=88 v=100
294000 On ch=4 n=74 v=100
294120 On ch=4 n=50 v=0
294120 On ch=4 n=100 v=0
294120 On ch=4 n=88 v=0
294120 On ch=4 n=74 v=0
294240 On ch=4 n=50 v=100
294240 On ch=4 n=100 v=100
294240 On ch=4 n=88 v=100
294240 On ch=4 n=75 v=100
294240 On ch=4 n=62 v=100
294360 On ch=4 n=50 v=0
294360 On ch=4 n=100 v=0
294360 On ch=4 n=88 v=0
294360 On ch=4 n=75 v=0
294360 On ch=4 n=62 v=0
294360 On ch=4 n=49 v=100
294360 On ch=4 n=99 v=100
294480 On ch=4 n=49 v=0
294480 On ch=4 n=99 v=0
294480 On ch=4 n=48 v=100
294480 On ch=4 n=98 v=100
294480 On ch=4 n=86 v=100
294480 On ch=4 n=73 v=100
294600 On ch=4 n=48 v=0
294600 On ch=4 n=98 v=0
294600 On ch=4 n=86 v=0
294600 On ch=4 n=73 v=0
294720 On ch=4 n=50 v=100
294720 On ch=4 n=100 v=100
294720 On ch=4 n=88 v=100
294720 On ch=4 n=75 v=100
294720 On ch=4 n=62 v=100
294840 On ch=4 n=50 v=0
294840 On ch=4 n=100 v=0
294840 On ch=4 n=88 v=0
294840 On ch=4 n=75 v=0
294840 On ch=4 n=62 v=0
294960 On ch=4 n=47 v=100
294960 On ch=4 n=97 v=100
294960 On ch=4 n=85 v=100
294960 On ch=4 n=73 v=100
295080 On ch=4 n=97 v=0
295080 On ch=4 n=85 v=0
295080 On ch=4 n=73 v=0
295320 On ch=4 n=73 v=100
295440 On ch=4 n=73 v=0
295440 On ch=4 n=97 v=100
295440 On ch=4 n=85 v=100
295560 On ch=4 n=47 v=0
295560 On ch=4 n=97 v=0
295560 On ch=4 n=85 v=0
295680 On ch=4 n=48 v=100
295680 On ch=4 n=98 v=100
295680 On ch=4 n=86 v=100
295680 On ch=4 n=60 v=100
295680 On ch=4 n=74 v=100
295800 On ch=4 n=48 v=0
295800 On ch=4 n=98 v=0
295800 On ch=4 n=86 v=0
295800 On ch=4 n=60 v=0
295800 On ch=4 n=74 v=0
295920 On ch=4 n=48 v=100
295920 On ch=4 n=98 v=100
295920 On ch=4 n=86 v=100
295920 On ch=4 n=74 v=100
296040 On ch=4 n=48 v=0
296040 On ch=4 n=98 v=0
296040 On ch=4 n=86 v=0
296040 On ch=4 n=74 v=0
296160 On ch=4 n=49 v=100
296160 On ch=4 n=99 v=100
296160 On ch=4 n=87 v=100
296160 On ch=4 n=61 v=100
296160 On ch=4 n=75 v=100
296280 On ch=4 n=49 v=0
296280 On ch=4 n=99 v=0
296280 On ch=4 n=87 v=0
296280 On ch=4 n=61 v=0
296280 On ch=4 n=75 v=0
296280 On ch=4 n=47 v=100
296280 On ch=4 n=98 v=100
296400 On ch=4 n=47 v=0
296400 On ch=4 n=98 v=0
296400 On ch=4 n=97 v=100
296400 On ch=4 n=85 v=100
296400 On ch=4 n=73 v=100
296520 On ch=4 n=97 v=0
296520 On ch=4 n=85 v=0
296520 On ch=4 n=73 v=0
296640 On ch=4 n=44 v=100
296640 On ch=4 n=96 v=100
296640 On ch=4 n=84 v=100
296640 On ch=4 n=72 v=100
296640 On ch=4 n=60 v=100
296760 On ch=4 n=96 v=0
296760 On ch=4 n=84 v=0
296760 On ch=4 n=72 v=0
296760 On ch=4 n=60 v=0
296880 On ch=4 n=96 v=100
296880 On ch=4 n=84 v=100
296880 On ch=4 n=72 v=100
297000 On ch=4 n=96 v=0
297000 On ch=4 n=84 v=0
297000 On ch=4 n=72 v=0
297120 On ch=4 n=96 v=100
297120 On ch=4 n=84 v=100
297120 On ch=4 n=72 v=100
297120 On ch=4 n=60 v=100
297240 On ch=4 n=96 v=0
297240 On ch=4 n=84 v=0
297240 On ch=4 n=72 v=0
297240 On ch=4 n=60 v=0
297360 On ch=4 n=96 v=100
297360 On ch=4 n=84 v=100
297360 On ch=4 n=72 v=100
297480 On ch=4 n=96 v=0
297480 On ch=4 n=84 v=0
297480 On ch=4 n=72 v=0
297600 On ch=4 n=96 v=100
297600 On ch=4 n=84 v=100
297600 On ch=4 n=72 v=100
297600 On ch=4 n=60 v=100
297720 On ch=4 n=96 v=0
297720 On ch=4 n=84 v=0
297720 On ch=4 n=72 v=0
297720 On ch=4 n=60 v=0
297840 On ch=4 n=96 v=100
297840 On ch=4 n=84 v=100
297840 On ch=4 n=72 v=100
297960 On ch=4 n=96 v=0
297960 On ch=4 n=84 v=0
297960 On ch=4 n=72 v=0
298080 On ch=4 n=96 v=100
298080 On ch=4 n=84 v=100
298080 On ch=4 n=72 v=100
298080 On ch=4 n=60 v=100
298200 On ch=4 n=96 v=0
298200 On ch=4 n=84 v=0
298200 On ch=4 n=72 v=0
298200 On ch=4 n=60 v=0
298320 On ch=4 n=96 v=100
298320 On ch=4 n=84 v=100
298320 On ch=4 n=72 v=100
298440 On ch=4 n=96 v=0
298440 On ch=4 n=84 v=0
298440 On ch=4 n=72 v=0
298560 On ch=4 n=96 v=100
298560 On ch=4 n=84 v=100
298560 On ch=4 n=72 v=100
298560 On ch=4 n=60 v=100
298680 On ch=4 n=96 v=0
298680 On ch=4 n=84 v=0
298680 On ch=4 n=72 v=0
298680 On ch=4 n=60 v=0
298800 On ch=4 n=96 v=100
298800 On ch=4 n=84 v=100
298800 On ch=4 n=72 v=100
298920 On ch=4 n=96 v=0
298920 On ch=4 n=84 v=0
298920 On ch=4 n=72 v=0
299040 On ch=4 n=96 v=100
299040 On ch=4 n=84 v=100
299040 On ch=4 n=72 v=100
299040 On ch=4 n=60 v=100
299160 On ch=4 n=96 v=0
299160 On ch=4 n=84 v=0
299160 On ch=4 n=72 v=0
299160 On ch=4 n=60 v=0
299280 On ch=4 n=96 v=100
299280 On ch=4 n=84 v=100
299280 On ch=4 n=72 v=100
299400 On ch=4 n=96 v=0
299400 On ch=4 n=84 v=0
299400 On ch=4 n=72 v=0
299520 On ch=4 n=96 v=100
299520 On ch=4 n=84 v=100
299520 On ch=4 n=72 v=100
299520 On ch=4 n=60 v=100
299640 On ch=4 n=44 v=0
299640 On ch=4 n=96 v=0
299640 On ch=4 n=84 v=0
299640 On ch=4 n=72 v=0
299640 On ch=4 n=60 v=0
299760 On ch=4 n=97 v=100
299760 On ch=4 n=85 v=100
299760 On ch=4 n=73 v=100
299880 On ch=4 n=97 v=0
299880 On ch=4 n=85 v=0
299880 On ch=4 n=73 v=0
300000 On ch=4 n=98 v=100
300000 On ch=4 n=86 v=100
300000 On ch=4 n=61 v=100
300000 On ch=4 n=74 v=100
300000 On ch=4 n=116 v=100
300120 On ch=4 n=98 v=0
300120 On ch=4 n=86 v=0
300120 On ch=4 n=61 v=0
300120 On ch=4 n=74 v=0
300240 On ch=4 n=98 v=100
300240 On ch=4 n=86 v=100
300240 On ch=4 n=74 v=100
300360 On ch=4 n=98 v=0
300360 On ch=4 n=86 v=0
300360 On ch=4 n=74 v=0
300480 On ch=4 n=48 v=100
300480 On ch=4 n=99 v=100
300480 On ch=4 n=87 v=100
300480 On ch=4 n=75 v=100
300480 On ch=4 n=61 v=100
300600 On ch=4 n=99 v=0
300600 On ch=4 n=87 v=0
300600 On ch=4 n=75 v=0
300600 On ch=4 n=61 v=0
300720 On ch=4 n=99 v=100
300720 On ch=4 n=87 v=100
300720 On ch=4 n=75 v=100
300840 On ch=4 n=116 v=0
300840 On ch=4 n=99 v=0
300840 On ch=4 n=87 v=0
300840 On ch=4 n=75 v=0
300960 Meta Text "[idle]"
301200 On ch=4 n=48 v=0
301680 On ch=4 n=43 v=100
324360 On ch=4 n=43 v=0
324480 Meta Text "[play]"
324720 On ch=4 n=45 v=100
324720 On ch=4 n=97 v=100
324720 On ch=4 n=85 v=100
324720 On ch=4 n=72 v=100
324840 On ch=4 n=45 v=0
324840 On ch=4 n=97 v=0
324840 On ch=4 n=85 v=0
324840 On ch=4 n=72 v=0
324960 On ch=4 n=46 v=100
324960 On ch=4 n=98 v=100
324960 On ch=4 n=86 v=100
324960 On ch=4 n=73 v=100
324960 On ch=4 n=61 v=100
325080 On ch=4 n=46 v=0
325080 On ch=4 n=98 v=0
325080 On ch=4 n=86 v=0
325080 On ch=4 n=73 v=0
325080 On ch=4 n=61 v=0
325200 On ch=4 n=48 v=100
325200 On ch=4 n=99 v=100
325200 On ch=4 n=87 v=100
325200 On ch=4 n=74 v=100
325320 On ch=4 n=48 v=0
325320 On ch=4 n=99 v=0
325320 On ch=4 n=87 v=0
325320 On ch=4 n=74 v=0
325440 On ch=4 n=49 v=100
325440 On ch=4 n=100 v=100
325440 On ch=4 n=88 v=100
325440 On ch=4 n=75 v=100
325440 On ch=4 n=62 v=100
325440 On ch=4 n=116 v=100
325560 On ch=4 n=88 v=0
325560 On ch=4 n=75 v=0
325560 On ch=4 n=62 v=0
326160 On ch=4 n=49 v=0
326160 On ch=4 n=100 v=0
326160 On ch=4 n=48 v=100
326160 On ch=4 n=99 v=100
326160 On ch=4 n=86 v=100
326160 On ch=4 n=74 v=100
326280 On ch=4 n=48 v=0
326280 On ch=4 n=99 v=0
326280 On ch=4 n=86 v=0
326280 On ch=4 n=74 v=0
326280 On ch=4 n=46 v=100
326280 On ch=4 n=98 v=100
326400 On ch=4 n=46 v=0
326400 On ch=4 n=98 v=0
326400 On ch=4 n=44 v=100
326400 On ch=4 n=96 v=100
326400 On ch=4 n=84 v=100
326400 On ch=4 n=72 v=100
326400 On ch=4 n=60 v=100
326520 On ch=4 n=84 v=0
326520 On ch=4 n=72 v=0
326520 On ch=4 n=60 v=0
327120 On ch=4 n=44 v=0
327120 On ch=4 n=96 v=0
327120 On ch=4 n=45 v=100
327120 On ch=4 n=97 v=100
327120 On ch=4 n=85 v=100
327120 On ch=4 n=73 v=100
327120 On ch=4 n=61 v=100
327240 On ch=4 n=116 v=0
327240 On ch=4 n=97 v=0
327240 On ch=4 n=85 v=0
327240 On ch=4 n=73 v=0
327240 On ch=4 n=61 v=0
327480 On ch=4 n=45 v=0
327600 On ch=4 n=46 v=100
327600 On ch=4 n=98 v=100
327600 On ch=4 n=86 v=100
327720 On ch=4 n=46 v=0
327720 On ch=4 n=98 v=0
327720 On ch=4 n=86 v=0
327840 On ch=4 n=48 v=100
327840 On ch=4 n=99 v=100
327840 On ch=4 n=87 v=100
327840 On ch=4 n=75 v=100
327840 On ch=4 n=62 v=100
327960 On ch=4 n=48 v=0
327960 On ch=4 n=99 v=0
327960 On ch=4 n=87 v=0
327960 On ch=4 n=75 v=0
327960 On ch=4 n=62 v=0
327960 On ch=4 n=46 v=100
327960 On ch=4 n=98 v=100
328080 On ch=4 n=46 v=0
328080 On ch=4 n=98 v=0
328080 On ch=4 n=45 v=100
328080 On ch=4 n=97 v=100
328080 On ch=4 n=85 v=100
328200 On ch=4 n=45 v=0
328200 On ch=4 n=97 v=0
328200 On ch=4 n=85 v=0
328320 On ch=4 n=47 v=100
328320 On ch=4 n=98 v=100
328320 On ch=4 n=86 v=100
328320 On ch=4 n=74 v=100
328320 On ch=4 n=61 v=100
328440 On ch=4 n=47 v=0
328440 On ch=4 n=98 v=0
328440 On ch=4 n=86 v=0
328440 On ch=4 n=74 v=0
328440 On ch=4 n=61 v=0
328560 On ch=4 n=48 v=100
328560 On ch=4 n=99 v=100
328560 On ch=4 n=87 v=100
328680 On ch=4 n=48 v=0
328680 On ch=4 n=99 v=0
328680 On ch=4 n=87 v=0
328800 On ch=4 n=44 v=100
328800 On ch=4 n=96 v=100
328800 On ch=4 n=84 v=100
328800 On ch=4 n=73 v=100
328800 On ch=4 n=60 v=100
328920 On ch=4 n=44 v=0
328920 On ch=4 n=96 v=0
328920 On ch=4 n=84 v=0
328920 On ch=4 n=73 v=0
328920 On ch=4 n=60 v=0
329040 On ch=4 n=45 v=100
329040 On ch=4 n=97 v=100
329040 On ch=4 n=85 v=100
329160 On ch=4 n=45 v=0
329160 On ch=4 n=97 v=0
329160 On ch=4 n=85 v=0
329280 On ch=4 n=47 v=100
329280 On ch=4 n=98 v=100
329280 On ch=4 n=86 v=100
329280 On ch=4 n=74 v=100
329280 On ch=4 n=61 v=100
329400 On ch=4 n=98 v=0
329400 On ch=4 n=86 v=0
329400 On ch=4 n=74 v=0
329400 On ch=4 n=61 v=0
329760 On ch=4 n=98 v=100
329760 On ch=4 n=86 v=100
329760 On ch=4 n=74 v=100
329760 On ch=4 n=61 v=100
329880 On ch=4 n=98 v=0
329880 On ch=4 n=86 v=0
329880 On ch=4 n=74 v=0
329880 On ch=4 n=61 v=0
330000 On ch=4 n=98 v=100
330000 On ch=4 n=86 v=100
330000 On ch=4 n=74 v=100
330120 On ch=4 n=98 v=0
330120 On ch=4 n=86 v=0
330120 On ch=4 n=74 v=0
330240 On ch=4 n=98 v=100
330240 On ch=4 n=86 v=100
330240 On ch=4 n=74 v=100
330240 On ch=4 n=61 v=100
330360 On ch=4 n=98 v=0
330360 On ch=4 n=86 v=0
330360 On ch=4 n=74 v=0
330360 On ch=4 n=61 v=0
330480 On ch=4 n=98 v=100
330480 On ch=4 n=86 v=100
330480 On ch=4 n=74 v=100
330600 On ch=4 n=98 v=0
330600 On ch=4 n=86 v=0
330600 On ch=4 n=74 v=0
330720 On ch=4 n=98 v=100
330720 On ch=4 n=86 v=100
330720 On ch=4 n=74 v=100
330720 On ch=4 n=61 v=100
330840 On ch=4 n=98 v=0
330840 On ch=4 n=86 v=0
330840 On ch=4 n=74 v=0
330840 On ch=4 n=61 v=0
330960 On ch=4 n=98 v=100
330960 On ch=4 n=86 v=100
330960 On ch=4 n=74 v=100
331080 On ch=4 n=98 v=0
331080 On ch=4 n=86 v=0
331080 On ch=4 n=74 v=0
331200 On ch=4 n=47 v=0
331200 On ch=4 n=48 v=100
331200 On ch=4 n=98 v=100
331200 On ch=4 n=86 v=100
331200 On ch=4 n=74 v=100
331200 On ch=4 n=62 v=100
331320 On ch=4 n=48 v=0
331320 On ch=4 n=98 v=0
331320 On ch=4 n=86 v=0
331320 On ch=4 n=74 v=0
331320 On ch=4 n=62 v=0
331320 On ch=4 n=49 v=100
331320 On ch=4 n=99 v=100
331440 On ch=4 n=49 v=0
331440 On ch=4 n=99 v=0
331440 On ch=4 n=50 v=100
331440 On ch=4 n=100 v=100
331440 On ch=4 n=88 v=100
331440 On ch=4 n=75 v=100
331560 On ch=4 n=50 v=0
331560 On ch=4 n=100 v=0
331560 On ch=4 n=88 v=0
331560 On ch=4 n=75 v=0
331680 On ch=4 n=47 v=100
331680 On ch=4 n=98 v=100
331680 On ch=4 n=86 v=100
331680 On ch=4 n=74 v=100
331680 On ch=4 n=61 v=100
331800 On ch=4 n=98 v=0
331800 On ch=4 n=86 v=0
331800 On ch=4 n=74 v=0
331800 On ch=4 n=61 v=0
331920 On ch=4 n=98 v=100
331920 On ch=4 n=86 v=100
331920 On ch=4 n=74 v=100
332040 On ch=4 n=47 v=0
332040 On ch=4 n=98 v=0
332040 On ch=4 n=86 v=0
332040 On ch=4 n=74 v=0
332160 On ch=4 n=45 v=100
332160 On ch=4 n=97 v=100
332160 On ch=4 n=85 v=100
332160 On ch=4 n=73 v=100
332160 On ch=4 n=60 v=100
332280 On ch=4 n=97 v=0
332280 On ch=4 n=85 v=0
332280 On ch=4 n=73 v=0
332280 On ch=4 n=60 v=0
332400 On ch=4 n=97 v=100
332400 On ch=4 n=85 v=100
332400 On ch=4 n=73 v=100
332520 On ch=4 n=45 v=0
332520 On ch=4 n=97 v=0
332520 On ch=4 n=85 v=0
332520 On ch=4 n=73 v=0
332640 On ch=4 n=43 v=100
332640 On ch=4 n=96 v=100
332640 On ch=4 n=84 v=100
332640 On ch=4 n=72 v=100
332640 On ch=4 n=60 v=100
332760 On ch=4 n=43 v=0
332760 On ch=4 n=96 v=0
332760 On ch=4 n=84 v=0
332760 On ch=4 n=72 v=0
332760 On ch=4 n=60 v=0
332880 On ch=4 n=40 v=100
332880 On ch=4 n=96 v=100
332880 On ch=4 n=84 v=100
332880 On ch=4 n=72 v=100
333000 On ch=4 n=40 v=0
333000 On ch=4 n=96 v=0
333000 On ch=4 n=84 v=0
333000 On ch=4 n=72 v=0
333120 On ch=4 n=41 v=100
333120 On ch=4 n=116 v=100
333120 On ch=4 n=97 v=100
333120 On ch=4 n=85 v=100
333120 On ch=4 n=73 v=100
333120 On ch=4 n=60 v=100
333240 On ch=4 n=97 v=0
333240 On ch=4 n=85 v=0
333240 On ch=4 n=73 v=0
333240 On ch=4 n=60 v=0
333600 On ch=4 n=97 v=100
333600 On ch=4 n=85 v=100
333600 On ch=4 n=73 v=100
333600 On ch=4 n=60 v=100
333720 On ch=4 n=116 v=0
333720 On ch=4 n=97 v=0
333720 On ch=4 n=85 v=0
333720 On ch=4 n=73 v=0
333720 On ch=4 n=60 v=0
333960 On ch=4 n=106 v=0
334680 On ch=4 n=41 v=0
335040 On ch=4 n=48 v=100
335040 On ch=4 n=98 v=100
335040 On ch=4 n=86 v=100
335040 On ch=4 n=74 v=100
335040 On ch=4 n=61 v=100
335160 On ch=4 n=98 v=0
335160 On ch=4 n=86 v=0
335160 On ch=4 n=74 v=0
335160 On ch=4 n=61 v=0
335280 On ch=4 n=98 v=100
335280 On ch=4 n=86 v=100
335280 On ch=4 n=74 v=100
335400 On ch=4 n=98 v=0
335400 On ch=4 n=86 v=0
335400 On ch=4 n=74 v=0
335520 On ch=4 n=98 v=100
335520 On ch=4 n=86 v=100
335520 On ch=4 n=74 v=100
335640 On ch=4 n=98 v=0
335640 On ch=4 n=86 v=0
335640 On ch=4 n=74 v=0
335760 On ch=4 n=98 v=100
335760 On ch=4 n=87 v=100
335760 On ch=4 n=75 v=100
335760 On ch=4 n=62 v=100
335820 On ch=4 n=48 v=0
335820 On ch=4 n=98 v=0
335820 On ch=4 n=50 v=100
335820 On ch=4 n=99 v=100
335880 On ch=4 n=87 v=0
335880 On ch=4 n=75 v=0
335880 On ch=4 n=62 v=0
335940 On ch=4 n=50 v=0
335940 On ch=4 n=99 v=0
336240 On ch=4 n=48 v=100
336240 On ch=4 n=74 v=100
336240 On ch=4 n=98 v=100
336240 On ch=4 n=86 v=100
336360 On ch=4 n=48 v=0
336360 On ch=4 n=74 v=0
336360 On ch=4 n=98 v=0
336360 On ch=4 n=86 v=0
336720 On ch=4 n=43 v=100
336720 On ch=4 n=98 v=100
336720 On ch=4 n=86 v=100
336840 On ch=4 n=43 v=0
336840 On ch=4 n=98 v=0
336840 On ch=4 n=86 v=0
336960 On ch=4 n=106 v=100
336960 On ch=4 n=41 v=100
336960 On ch=4 n=97 v=100
336960 On ch=4 n=85 v=100
336960 On ch=4 n=73 v=100
336960 On ch=4 n=60 v=100
337080 On ch=4 n=97 v=0
337080 On ch=4 n=85 v=0
337080 On ch=4 n=73 v=0
337080 On ch=4 n=60 v=0
337440 On ch=4 n=97 v=100
337440 On ch=4 n=85 v=100
337440 On ch=4 n=73 v=100
337440 On ch=4 n=60 v=100
337560 On ch=4 n=97 v=0
337560 On ch=4 n=85 v=0
337560 On ch=4 n=73 v=0
337560 On ch=4 n=60 v=0
337920 On ch=4 n=105 v=0
338520 On ch=4 n=41 v=0
338880 On ch=4 n=48 v=100
338880 On ch=4 n=98 v=100
338880 On ch=4 n=86 v=100
338880 On ch=4 n=74 v=100
338880 On ch=4 n=61 v=100
339000 On ch=4 n=98 v=0
339000 On ch=4 n=86 v=0
339000 On ch=4 n=74 v=0
339000 On ch=4 n=61 v=0
339120 On ch=4 n=98 v=100
339120 On ch=4 n=86 v=100
339120 On ch=4 n=74 v=100
339240 On ch=4 n=98 v=0
339240 On ch=4 n=86 v=0
339240 On ch=4 n=74 v=0
339360 On ch=4 n=98 v=100
339360 On ch=4 n=86 v=100
339360 On ch=4 n=74 v=100
339480 On ch=4 n=48 v=0
339480 On ch=4 n=98 v=0
339480 On ch=4 n=86 v=0
339480 On ch=4 n=74 v=0
339600 On ch=4 n=52 v=100
339600 On ch=4 n=100 v=100
339600 On ch=4 n=88 v=100
339600 On ch=4 n=75 v=100
339600 On ch=4 n=62 v=100
339720 On ch=4 n=52 v=0
339720 On ch=4 n=100 v=0
339720 On ch=4 n=88 v=0
339720 On ch=4 n=75 v=0
339720 On ch=4 n=62 v=0
340080 On ch=4 n=50 v=100
340080 On ch=4 n=99 v=100
340080 On ch=4 n=87 v=100
340080 On ch=4 n=74 v=100
340200 On ch=4 n=50 v=0
340200 On ch=4 n=99 v=0
340200 On ch=4 n=87 v=0
340200 On ch=4 n=74 v=0
340320 On ch=4 n=46 v=100
340320 On ch=4 n=98 v=100
340320 On ch=4 n=86 v=100
340320 On ch=4 n=73 v=100
340440 On ch=4 n=46 v=0
340440 On ch=4 n=98 v=0
340440 On ch=4 n=86 v=0
340440 On ch=4 n=73 v=0
340440 On ch=4 n=44 v=100
340440 On ch=4 n=97 v=100
340560 On ch=4 n=44 v=0
340560 On ch=4 n=97 v=0
340560 On ch=4 n=43 v=100
340560 On ch=4 n=96 v=100
340560 On ch=4 n=84 v=100
340680 On ch=4 n=43 v=0
340680 On ch=4 n=96 v=0
340680 On ch=4 n=84 v=0
340800 On ch=4 n=105 v=100
340800 On ch=4 n=41 v=100
340800 On ch=4 n=97 v=100
340800 On ch=4 n=85 v=100
340800 On ch=4 n=73 v=100
340800 On ch=4 n=60 v=100
340920 On ch=4 n=41 v=0
340920 On ch=4 n=97 v=0
340920 On ch=4 n=85 v=0
340920 On ch=4 n=73 v=0
340920 On ch=4 n=60 v=0
341280 On ch=4 n=41 v=100
341280 On ch=4 n=97 v=100
341280 On ch=4 n=85 v=100
341280 On ch=4 n=73 v=100
341280 On ch=4 n=60 v=100
341400 On ch=4 n=106 v=0
341400 On ch=4 n=41 v=0
341400 On ch=4 n=97 v=0
341400 On ch=4 n=85 v=0
341400 On ch=4 n=73 v=0
341400 On ch=4 n=60 v=0
341640 On ch=4 n=43 v=100
341640 On ch=4 n=98 v=100
341760 On ch=4 n=43 v=0
341760 On ch=4 n=98 v=0
341760 On ch=4 n=48 v=100
341760 On ch=4 n=100 v=100
341760 On ch=4 n=88 v=100
341760 On ch=4 n=75 v=100
341760 On ch=4 n=62 v=100
341880 On ch=4 n=48 v=0
341880 On ch=4 n=100 v=0
341880 On ch=4 n=88 v=0
341880 On ch=4 n=75 v=0
341880 On ch=4 n=62 v=0
342000 On ch=4 n=48 v=100
342000 On ch=4 n=100 v=100
342000 On ch=4 n=88 v=100
342000 On ch=4 n=75 v=100
342120 On ch=4 n=48 v=0
342120 On ch=4 n=100 v=0
342120 On ch=4 n=88 v=0
342120 On ch=4 n=75 v=0
342480 On ch=4 n=44 v=100
342480 On ch=4 n=116 v=100
342480 On ch=4 n=96 v=100
342480 On ch=4 n=84 v=100
342600 On ch=4 n=44 v=0
342600 On ch=4 n=96 v=0
342600 On ch=4 n=84 v=0
342720 On ch=4 n=47 v=100
342720 On ch=4 n=98 v=100
342720 On ch=4 n=86 v=100
342720 On ch=4 n=74 v=100
342720 On ch=4 n=61 v=100
342840 On ch=4 n=47 v=0
342840 On ch=4 n=98 v=0
342840 On ch=4 n=86 v=0
342840 On ch=4 n=74 v=0
342840 On ch=4 n=61 v=0
342960 On ch=4 n=47 v=100
342960 On ch=4 n=98 v=100
342960 On ch=4 n=86 v=100
342960 On ch=4 n=74 v=100
343080 On ch=4 n=47 v=0
343080 On ch=4 n=98 v=0
343080 On ch=4 n=86 v=0
343080 On ch=4 n=74 v=0
343200 On ch=4 n=47 v=100
343200 On ch=4 n=98 v=100
343200 On ch=4 n=86 v=100
343200 On ch=4 n=74 v=100
343320 On ch=4 n=47 v=0
343320 On ch=4 n=98 v=0
343320 On ch=4 n=86 v=0
343320 On ch=4 n=74 v=0
343440 On ch=4 n=50 v=100
343440 On ch=4 n=75 v=100
343440 On ch=4 n=62 v=100
343440 On ch=4 n=98 v=100
343440 On ch=4 n=87 v=100
343500 On ch=4 n=98 v=0
343500 On ch=4 n=99 v=100
343560 On ch=4 n=50 v=0
343560 On ch=4 n=75 v=0
343560 On ch=4 n=62 v=0
343560 On ch=4 n=87 v=0
343620 On ch=4 n=99 v=0
343920 On ch=4 n=48 v=100
343920 On ch=4 n=87 v=100
343920 On ch=4 n=74 v=100
343920 On ch=4 n=99 v=100
343920 On ch=4 n=61 v=100
344040 On ch=4 n=48 v=0
344040 On ch=4 n=87 v=0
344040 On ch=4 n=74 v=0
344040 On ch=4 n=99 v=0
344040 On ch=4 n=61 v=0
344400 On ch=4 n=47 v=100
344400 On ch=4 n=86 v=100
344400 On ch=4 n=98 v=100
344520 On ch=4 n=116 v=0
344520 On ch=4 n=47 v=0
344520 On ch=4 n=86 v=0
344520 On ch=4 n=98 v=0
344640 On ch=4 n=106 v=100
344640 On ch=4 n=41 v=100
344640 On ch=4 n=85 v=100
344640 On ch=4 n=73 v=100
344640 On ch=4 n=60 v=100
344640 On ch=4 n=97 v=100
344760 On ch=4 n=41 v=0
344760 On ch=4 n=85 v=0
344760 On ch=4 n=73 v=0
344760 On ch=4 n=60 v=0
344760 On ch=4 n=97 v=0
345120 On ch=4 n=41 v=100
345120 On ch=4 n=85 v=100
345120 On ch=4 n=73 v=100
345120 On ch=4 n=60 v=100
345120 On ch=4 n=97 v=100
345240 On ch=4 n=41 v=0
345240 On ch=4 n=85 v=0
345240 On ch=4 n=73 v=0
345240 On ch=4 n=60 v=0
345240 On ch=4 n=97 v=0
345360 On ch=4 n=105 v=0
345480 On ch=4 n=47 v=100
345480 On ch=4 n=98 v=100
345600 On ch=4 n=47 v=0
345600 On ch=4 n=98 v=0
345600 On ch=4 n=50 v=100
345600 On ch=4 n=100 v=100
345600 On ch=4 n=88 v=100
345600 On ch=4 n=75 v=100
345600 On ch=4 n=62 v=100
345720 On ch=4 n=50 v=0
345720 On ch=4 n=100 v=0
345720 On ch=4 n=88 v=0
345720 On ch=4 n=75 v=0
345720 On ch=4 n=62 v=0
345840 On ch=4 n=50 v=100
345840 On ch=4 n=100 v=100
345840 On ch=4 n=88 v=100
345840 On ch=4 n=75 v=100
345960 On ch=4 n=50 v=0
345960 On ch=4 n=100 v=0
345960 On ch=4 n=88 v=0
345960 On ch=4 n=75 v=0
346320 On ch=4 n=44 v=100
346320 On ch=4 n=96 v=100
346320 On ch=4 n=84 v=100
346440 On ch=4 n=44 v=0
346440 On ch=4 n=96 v=0
346440 On ch=4 n=84 v=0
346560 On ch=4 n=47 v=100
346560 On ch=4 n=98 v=100
346560 On ch=4 n=86 v=100
346560 On ch=4 n=74 v=100
346560 On ch=4 n=61 v=100
346680 On ch=4 n=47 v=0
346680 On ch=4 n=98 v=0
346680 On ch=4 n=86 v=0
346680 On ch=4 n=74 v=0
346680 On ch=4 n=61 v=0
346800 On ch=4 n=47 v=100
346800 On ch=4 n=98 v=100
346800 On ch=4 n=86 v=100
346800 On ch=4 n=74 v=100
346920 On ch=4 n=47 v=0
346920 On ch=4 n=98 v=0
346920 On ch=4 n=86 v=0
346920 On ch=4 n=74 v=0
347040 On ch=4 n=47 v=100
347040 On ch=4 n=98 v=100
347040 On ch=4 n=86 v=100
347040 On ch=4 n=74 v=100
347160 On ch=4 n=47 v=0
347160 On ch=4 n=98 v=0
347160 On ch=4 n=86 v=0
347160 On ch=4 n=74 v=0
347280 On ch=4 n=45 v=100
347280 On ch=4 n=97 v=100
347280 On ch=4 n=85 v=100
347280 On ch=4 n=73 v=100
347280 On ch=4 n=60 v=100
347400 On ch=4 n=45 v=0
347400 On ch=4 n=97 v=0
347400 On ch=4 n=85 v=0
347400 On ch=4 n=73 v=0
347400 On ch=4 n=60 v=0
347760 On ch=4 n=45 v=100
347760 On ch=4 n=97 v=100
347760 On ch=4 n=85 v=100
347880 On ch=4 n=45 v=0
347880 On ch=4 n=97 v=0
347880 On ch=4 n=85 v=0
348000 On ch=4 n=47 v=100
348000 On ch=4 n=98 v=100
348000 On ch=4 n=86 v=100
348000 On ch=4 n=74 v=100
348120 On ch=4 n=47 v=0
348120 On ch=4 n=98 v=0
348120 On ch=4 n=86 v=0
348120 On ch=4 n=74 v=0
348120 On ch=4 n=44 v=100
348120 On ch=4 n=97 v=100
348240 On ch=4 n=44 v=0
348240 On ch=4 n=97 v=0
348240 On ch=4 n=43 v=100
348240 On ch=4 n=96 v=100
348240 On ch=4 n=84 v=100
348360 On ch=4 n=43 v=0
348360 On ch=4 n=96 v=0
348360 On ch=4 n=84 v=0
348480 On ch=4 n=105 v=100
348480 On ch=4 n=41 v=100
348480 On ch=4 n=97 v=100
348480 On ch=4 n=85 v=100
348480 On ch=4 n=73 v=100
348480 On ch=4 n=60 v=100
348600 On ch=4 n=41 v=0
348600 On ch=4 n=97 v=0
348600 On ch=4 n=85 v=0
348600 On ch=4 n=73 v=0
348600 On ch=4 n=60 v=0
348960 On ch=4 n=41 v=100
348960 On ch=4 n=97 v=100
348960 On ch=4 n=85 v=100
348960 On ch=4 n=73 v=100
348960 On ch=4 n=60 v=100
349080 On ch=4 n=106 v=0
349080 On ch=4 n=41 v=0
349080 On ch=4 n=97 v=0
349080 On ch=4 n=85 v=0
349080 On ch=4 n=73 v=0
349080 On ch=4 n=60 v=0
349320 On ch=4 n=47 v=100
349320 On ch=4 n=98 v=100
349440 On ch=4 n=47 v=0
349440 On ch=4 n=98 v=0
349440 On ch=4 n=50 v=100
349440 On ch=4 n=100 v=100
349440 On ch=4 n=88 v=100
349440 On ch=4 n=75 v=100
349440 On ch=4 n=62 v=100
349560 On ch=4 n=50 v=0
349560 On ch=4 n=100 v=0
349560 On ch=4 n=88 v=0
349560 On ch=4 n=75 v=0
349560 On ch=4 n=62 v=0
349680 On ch=4 n=50 v=100
349680 On ch=4 n=100 v=100
349680 On ch=4 n=88 v=100
349680 On ch=4 n=75 v=100
349800 On ch=4 n=50 v=0
349800 On ch=4 n=100 v=0
349800 On ch=4 n=88 v=0
349800 On ch=4 n=75 v=0
350160 On ch=4 n=44 v=100
350160 On ch=4 n=96 v=100
350160 On ch=4 n=84 v=100
350280 On ch=4 n=44 v=0
350280 On ch=4 n=96 v=0
350280 On ch=4 n=84 v=0
350400 On ch=4 n=47 v=100
350400 On ch=4 n=98 v=100
350400 On ch=4 n=86 v=100
350400 On ch=4 n=74 v=100
350400 On ch=4 n=61 v=100
350520 On ch=4 n=47 v=0
350520 On ch=4 n=98 v=0
350520 On ch=4 n=86 v=0
350520 On ch=4 n=74 v=0
350520 On ch=4 n=61 v=0
350640 On ch=4 n=47 v=100
350640 On ch=4 n=98 v=100
350640 On ch=4 n=86 v=100
350640 On ch=4 n=74 v=100
350760 On ch=4 n=47 v=0
350760 On ch=4 n=98 v=0
350760 On ch=4 n=86 v=0
350760 On ch=4 n=74 v=0
350880 On ch=4 n=47 v=100
350880 On ch=4 n=98 v=100
350880 On ch=4 n=86 v=100
350880 On ch=4 n=74 v=100
351000 On ch=4 n=47 v=0
351000 On ch=4 n=98 v=0
351000 On ch=4 n=86 v=0
351000 On ch=4 n=74 v=0
351120 On ch=4 n=47 v=100
351120 On ch=4 n=98 v=100
351120 On ch=4 n=87 v=100
351120 On ch=4 n=75 v=100
351120 On ch=4 n=62 v=100
351180 On ch=4 n=47 v=0
351180 On ch=4 n=98 v=0
351180 On ch=4 n=49 v=100
351180 On ch=4 n=99 v=100
351240 On ch=4 n=87 v=0
351240 On ch=4 n=75 v=0
351240 On ch=4 n=62 v=0
351300 On ch=4 n=49 v=0
351300 On ch=4 n=99 v=0
351600 On ch=4 n=47 v=100
351600 On ch=4 n=86 v=100
351600 On ch=4 n=98 v=100
351720 On ch=4 n=47 v=0
351720 On ch=4 n=86 v=0
351720 On ch=4 n=98 v=0
351840 On ch=4 n=49 v=100
351840 On ch=4 n=99 v=100
351840 On ch=4 n=87 v=100
351840 On ch=4 n=75 v=100
351840 On ch=4 n=62 v=100
351960 On ch=4 n=49 v=0
351960 On ch=4 n=99 v=0
351960 On ch=4 n=87 v=0
351960 On ch=4 n=75 v=0
351960 On ch=4 n=62 v=0
351960 On ch=4 n=47 v=100
351960 On ch=4 n=98 v=100
352080 On ch=4 n=47 v=0
352080 On ch=4 n=98 v=0
352080 On ch=4 n=97 v=100
352080 On ch=4 n=85 v=100
352200 On ch=4 n=97 v=0
352200 On ch=4 n=85 v=0
352320 On ch=4 n=106 v=100
352320 On ch=4 n=41 v=100
352320 On ch=4 n=97 v=100
352320 On ch=4 n=85 v=100
352320 On ch=4 n=73 v=100
352320 On ch=4 n=60 v=100
352440 On ch=4 n=41 v=0
352440 On ch=4 n=97 v=0
352440 On ch=4 n=85 v=0
352440 On ch=4 n=73 v=0
352440 On ch=4 n=60 v=0
352800 On ch=4 n=41 v=100
352800 On ch=4 n=97 v=100
352800 On ch=4 n=85 v=100
352800 On ch=4 n=73 v=100
352800 On ch=4 n=60 v=100
352920 On ch=4 n=105 v=0
352920 On ch=4 n=41 v=0
352920 On ch=4 n=97 v=0
352920 On ch=4 n=85 v=0
352920 On ch=4 n=73 v=0
352920 On ch=4 n=60 v=0
353160 On ch=4 n=47 v=100
353160 On ch=4 n=98 v=100
353280 On ch=4 n=47 v=0
353280 On ch=4 n=98 v=0
353280 On ch=4 n=50 v=100
353280 On ch=4 n=100 v=100
353280 On ch=4 n=88 v=100
353280 On ch=4 n=75 v=100
353280 On ch=4 n=62 v=100
353400 On ch=4 n=50 v=0
353400 On ch=4 n=100 v=0
353400 On ch=4 n=88 v=0
353400 On ch=4 n=75 v=0
353400 On ch=4 n=62 v=0
353520 On ch=4 n=50 v=100
353520 On ch=4 n=100 v=100
353520 On ch=4 n=88 v=100
353520 On ch=4 n=75 v=100
353640 On ch=4 n=50 v=0
353640 On ch=4 n=100 v=0
353640 On ch=4 n=88 v=0
353640 On ch=4 n=75 v=0
354000 On ch=4 n=44 v=100
354000 On ch=4 n=96 v=100
354000 On ch=4 n=84 v=100
354120 On ch=4 n=44 v=0
354120 On ch=4 n=96 v=0
354120 On ch=4 n=84 v=0
354240 On ch=4 n=47 v=100
354240 On ch=4 n=98 v=100
354240 On ch=4 n=86 v=100
354240 On ch=4 n=74 v=100
354240 On ch=4 n=61 v=100
354360 On ch=4 n=47 v=0
354360 On ch=4 n=98 v=0
354360 On ch=4 n=86 v=0
354360 On ch=4 n=74 v=0
354360 On ch=4 n=61 v=0
354480 On ch=4 n=47 v=100
354480 On ch=4 n=98 v=100
354480 On ch=4 n=86 v=100
354480 On ch=4 n=74 v=100
354600 On ch=4 n=47 v=0
354600 On ch=4 n=98 v=0
354600 On ch=4 n=86 v=0
354600 On ch=4 n=74 v=0
354720 On ch=4 n=47 v=100
354720 On ch=4 n=98 v=100
354720 On ch=4 n=86 v=100
354720 On ch=4 n=74 v=100
354840 On ch=4 n=47 v=0
354840 On ch=4 n=98 v=0
354840 On ch=4 n=86 v=0
354840 On ch=4 n=74 v=0
354960 On ch=4 n=47 v=100
354960 On ch=4 n=98 v=100
354960 On ch=4 n=87 v=100
354960 On ch=4 n=75 v=100
354960 On ch=4 n=62 v=100
355020 On ch=4 n=47 v=0
355020 On ch=4 n=98 v=0
355020 On ch=4 n=49 v=100
355020 On ch=4 n=99 v=100
355080 On ch=4 n=87 v=0
355080 On ch=4 n=75 v=0
355080 On ch=4 n=62 v=0
355140 On ch=4 n=49 v=0
355140 On ch=4 n=99 v=0
355440 On ch=4 n=47 v=100
355440 On ch=4 n=98 v=100
355440 On ch=4 n=86 v=100
355560 On ch=4 n=47 v=0
355560 On ch=4 n=98 v=0
355560 On ch=4 n=86 v=0
355680 On ch=4 n=49 v=100
355680 On ch=4 n=99 v=100
355680 On ch=4 n=87 v=100
355680 On ch=4 n=75 v=100
355680 On ch=4 n=62 v=100
355800 On ch=4 n=49 v=0
355800 On ch=4 n=99 v=0
355800 On ch=4 n=87 v=0
355800 On ch=4 n=75 v=0
355800 On ch=4 n=62 v=0
355800 On ch=4 n=47 v=100
355800 On ch=4 n=98 v=100
355920 On ch=4 n=47 v=0
355920 On ch=4 n=98 v=0
355920 On ch=4 n=44 v=100
355920 On ch=4 n=97 v=100
355920 On ch=4 n=85 v=100
356040 On ch=4 n=44 v=0
356040 On ch=4 n=97 v=0
356040 On ch=4 n=85 v=0
356160 On ch=4 n=105 v=100
356160 On ch=4 n=49 v=100
356160 On ch=4 n=99 v=100
356160 On ch=4 n=87 v=100
356160 On ch=4 n=75 v=100
356160 On ch=4 n=62 v=100
356280 On ch=4 n=49 v=0
356280 On ch=4 n=99 v=0
356280 On ch=4 n=87 v=0
356280 On ch=4 n=75 v=0
356280 On ch=4 n=62 v=0
356640 On ch=4 n=49 v=100
356640 On ch=4 n=99 v=100
356640 On ch=4 n=87 v=100
356640 On ch=4 n=75 v=100
356640 On ch=4 n=62 v=100
356760 On ch=4 n=106 v=0
356760 On ch=4 n=49 v=0
356760 On ch=4 n=99 v=0
356760 On ch=4 n=87 v=0
356760 On ch=4 n=75 v=0
356760 On ch=4 n=62 v=0
357000 On ch=4 n=47 v=100
357000 On ch=4 n=97 v=100
357120 On ch=4 n=47 v=0
357120 On ch=4 n=97 v=0
357120 On ch=4 n=49 v=100
357120 On ch=4 n=99 v=100
357120 On ch=4 n=87 v=100
357120 On ch=4 n=75 v=100
357120 On ch=4 n=62 v=100
357240 On ch=4 n=49 v=0
357240 On ch=4 n=99 v=0
357240 On ch=4 n=87 v=0
357240 On ch=4 n=75 v=0
357240 On ch=4 n=62 v=0
357240 On ch=4 n=47 v=100
357240 On ch=4 n=97 v=100
357360 On ch=4 n=47 v=0
357360 On ch=4 n=97 v=0
357360 On ch=4 n=49 v=100
357360 On ch=4 n=99 v=100
357360 On ch=4 n=87 v=100
357360 On ch=4 n=75 v=100
357480 On ch=4 n=49 v=0
357480 On ch=4 n=99 v=0
357480 On ch=4 n=87 v=0
357480 On ch=4 n=75 v=0
357600 On ch=4 n=44 v=100
357600 On ch=4 n=96 v=100
357600 On ch=4 n=84 v=100
357600 On ch=4 n=73 v=100
357720 On ch=4 n=44 v=0
357720 On ch=4 n=96 v=0
357720 On ch=4 n=84 v=0
357720 On ch=4 n=73 v=0
357840 On ch=4 n=45 v=100
357840 On ch=4 n=97 v=100
357840 On ch=4 n=85 v=100
357960 On ch=4 n=45 v=0
357960 On ch=4 n=97 v=0
357960 On ch=4 n=85 v=0
358080 On ch=4 n=47 v=100
358080 On ch=4 n=98 v=100
358080 On ch=4 n=86 v=100
358080 On ch=4 n=74 v=100
358080 On ch=4 n=61 v=100
358200 On ch=4 n=47 v=0
358200 On ch=4 n=98 v=0
358200 On ch=4 n=86 v=0
358200 On ch=4 n=74 v=0
358200 On ch=4 n=61 v=0
358320 On ch=4 n=47 v=100
358320 On ch=4 n=98 v=100
358320 On ch=4 n=86 v=100
358320 On ch=4 n=74 v=100
358440 On ch=4 n=47 v=0
358440 On ch=4 n=98 v=0
358440 On ch=4 n=86 v=0
358440 On ch=4 n=74 v=0
358560 On ch=4 n=47 v=100
358560 On ch=4 n=98 v=100
358560 On ch=4 n=86 v=100
358560 On ch=4 n=74 v=100
358680 On ch=4 n=47 v=0
358680 On ch=4 n=98 v=0
358680 On ch=4 n=86 v=0
358680 On ch=4 n=74 v=0
358800 On ch=4 n=49 v=100
358800 On ch=4 n=99 v=100
358800 On ch=4 n=88 v=100
358800 On ch=4 n=75 v=100
358800 On ch=4 n=62 v=100
358860 On ch=4 n=49 v=0
358860 On ch=4 n=99 v=0
358860 On ch=4 n=51 v=100
358860 On ch=4 n=100 v=100
358920 On ch=4 n=88 v=0
358920 On ch=4 n=75 v=0
358920 On ch=4 n=62 v=0
358980 On ch=4 n=100 v=0
359100 On ch=4 n=51 v=0
359280 On ch=4 n=49 v=100
359280 On ch=4 n=99 v=100
359280 On ch=4 n=87 v=100
359280 On ch=4 n=74 v=100
359400 On ch=4 n=99 v=0
359400 On ch=4 n=87 v=0
359400 On ch=4 n=74 v=0
359520 On ch=4 n=49 v=0
359760 On ch=4 n=47 v=100
359760 On ch=4 n=98 v=100
359760 On ch=4 n=86 v=100
359880 On ch=4 n=47 v=0
359880 On ch=4 n=98 v=0
359880 On ch=4 n=86 v=0
360000 On ch=4 n=106 v=100
360000 On ch=4 n=49 v=100
360000 On ch=4 n=87 v=100
360000 On ch=4 n=75 v=100
360000 On ch=4 n=62 v=100
360000 On ch=4 n=98 v=100
360060 On ch=4 n=98 v=0
360060 On ch=4 n=99 v=100
360120 On ch=4 n=49 v=0
360120 On ch=4 n=87 v=0
360120 On ch=4 n=75 v=0
360120 On ch=4 n=62 v=0
360120 On ch=4 n=99 v=0
360480 On ch=4 n=49 v=100
360480 On ch=4 n=99 v=100
360480 On ch=4 n=87 v=100
360480 On ch=4 n=75 v=100
360480 On ch=4 n=62 v=100
360600 On ch=4 n=105 v=0
360600 On ch=4 n=49 v=0
360600 On ch=4 n=99 v=0
360600 On ch=4 n=87 v=0
360600 On ch=4 n=75 v=0
360600 On ch=4 n=62 v=0
360840 On ch=4 n=47 v=100
360840 On ch=4 n=97 v=100
360960 On ch=4 n=47 v=0
360960 On ch=4 n=97 v=0
360960 On ch=4 n=49 v=100
360960 On ch=4 n=99 v=100
360960 On ch=4 n=87 v=100
360960 On ch=4 n=75 v=100
360960 On ch=4 n=62 v=100
361080 On ch=4 n=49 v=0
361080 On ch=4 n=99 v=0
361080 On ch=4 n=87 v=0
361080 On ch=4 n=75 v=0
361080 On ch=4 n=62 v=0
361080 On ch=4 n=47 v=100
361200 On ch=4 n=47 v=0
361200 On ch=4 n=49 v=100
361200 On ch=4 n=99 v=100
361200 On ch=4 n=87 v=100
361200 On ch=4 n=75 v=100
361320 On ch=4 n=49 v=0
361320 On ch=4 n=99 v=0
361320 On ch=4 n=87 v=0
361320 On ch=4 n=75 v=0
361440 On ch=4 n=45 v=100
361440 On ch=4 n=96 v=100
361440 On ch=4 n=84 v=100
361440 On ch=4 n=73 v=100
361560 On ch=4 n=45 v=0
361560 On ch=4 n=96 v=0
361560 On ch=4 n=84 v=0
361560 On ch=4 n=73 v=0
361560 On ch=4 n=45 v=100
361560 On ch=4 n=96 v=100
361680 On ch=4 n=45 v=0
361680 On ch=4 n=96 v=0
361680 On ch=4 n=46 v=100
361680 On ch=4 n=97 v=100
361680 On ch=4 n=85 v=100
361800 On ch=4 n=46 v=0
361800 On ch=4 n=97 v=0
361800 On ch=4 n=85 v=0
361920 On ch=4 n=51 v=100
361920 On ch=4 n=100 v=100
361920 On ch=4 n=88 v=100
361920 On ch=4 n=75 v=100
361920 On ch=4 n=62 v=100
361920 On ch=4 n=116 v=100
362040 On ch=4 n=51 v=0
362040 On ch=4 n=100 v=0
362040 On ch=4 n=88 v=0
362040 On ch=4 n=75 v=0
362040 On ch=4 n=62 v=0
362400 On ch=4 n=51 v=100
362400 On ch=4 n=100 v=100
362400 On ch=4 n=88 v=100
362400 On ch=4 n=75 v=100
362520 On ch=4 n=51 v=0
362520 On ch=4 n=100 v=0
362520 On ch=4 n=88 v=0
362520 On ch=4 n=75 v=0
362640 On ch=4 n=50 v=100
362640 On ch=4 n=99 v=100
362640 On ch=4 n=87 v=100
362640 On ch=4 n=74 v=100
362640 On ch=4 n=61 v=100
362760 On ch=4 n=50 v=0
362760 On ch=4 n=99 v=0
362760 On ch=4 n=87 v=0
362760 On ch=4 n=74 v=0
362760 On ch=4 n=61 v=0
363120 On ch=4 n=48 v=100
363120 On ch=4 n=98 v=100
363120 On ch=4 n=86 v=100
363240 On ch=4 n=48 v=0
363240 On ch=4 n=98 v=0
363240 On ch=4 n=86 v=0
363360 On ch=4 n=47 v=100
363360 On ch=4 n=98 v=100
363360 On ch=4 n=86 v=100
363360 On ch=4 n=74 v=100
363360 On ch=4 n=60 v=100
363480 On ch=4 n=47 v=0
363480 On ch=4 n=98 v=0
363480 On ch=4 n=86 v=0
363480 On ch=4 n=74 v=0
363480 On ch=4 n=60 v=0
363480 On ch=4 n=45 v=100
363480 On ch=4 n=97 v=100
363600 On ch=4 n=45 v=0
363600 On ch=4 n=97 v=0
363600 On ch=4 n=44 v=100
363600 On ch=4 n=96 v=100
363600 On ch=4 n=85 v=100
363720 On ch=4 n=116 v=0
363720 On ch=4 n=44 v=0
363720 On ch=4 n=96 v=0
363720 On ch=4 n=85 v=0
363840 On ch=4 n=105 v=100
363840 On ch=4 n=49 v=100
363840 On ch=4 n=99 v=100
363840 On ch=4 n=87 v=100
363840 On ch=4 n=75 v=100
363840 On ch=4 n=62 v=100
363960 On ch=4 n=49 v=0
363960 On ch=4 n=99 v=0
363960 On ch=4 n=87 v=0
363960 On ch=4 n=75 v=0
363960 On ch=4 n=62 v=0
364320 On ch=4 n=49 v=100
364320 On ch=4 n=99 v=100
364320 On ch=4 n=87 v=100
364320 On ch=4 n=75 v=100
364320 On ch=4 n=62 v=100
364440 On ch=4 n=106 v=0
364440 On ch=4 n=49 v=0
364440 On ch=4 n=99 v=0
364440 On ch=4 n=87 v=0
364440 On ch=4 n=75 v=0
364440 On ch=4 n=62 v=0
364680 On ch=4 n=47 v=100
364680 On ch=4 n=97 v=100
364800 On ch=4 n=47 v=0
364800 On ch=4 n=97 v=0
364800 On ch=4 n=49 v=100
364800 On ch=4 n=99 v=100
364800 On ch=4 n=87 v=100
364800 On ch=4 n=75 v=100
364800 On ch=4 n=62 v=100
364920 On ch=4 n=49 v=0
364920 On ch=4 n=99 v=0
364920 On ch=4 n=87 v=0
364920 On ch=4 n=75 v=0
364920 On ch=4 n=62 v=0
364920 On ch=4 n=47 v=100
364920 On ch=4 n=97 v=100
365040 On ch=4 n=47 v=0
365040 On ch=4 n=97 v=0
365040 On ch=4 n=49 v=100
365040 On ch=4 n=99 v=100
365040 On ch=4 n=87 v=100
365040 On ch=4 n=75 v=100
365160 On ch=4 n=49 v=0
365160 On ch=4 n=99 v=0
365160 On ch=4 n=87 v=0
365160 On ch=4 n=75 v=0
365280 On ch=4 n=45 v=100
365280 On ch=4 n=96 v=100
365280 On ch=4 n=84 v=100
365280 On ch=4 n=73 v=100
365400 On ch=4 n=45 v=0
365400 On ch=4 n=96 v=0
365400 On ch=4 n=84 v=0
365400 On ch=4 n=73 v=0
365520 On ch=4 n=46 v=100
365520 On ch=4 n=97 v=100
365520 On ch=4 n=85 v=100
365640 On ch=4 n=46 v=0
365640 On ch=4 n=97 v=0
365640 On ch=4 n=85 v=0
365760 On ch=4 n=49 v=100
365760 On ch=4 n=99 v=100
365760 On ch=4 n=88 v=100
365760 On ch=4 n=75 v=100
365760 On ch=4 n=62 v=100
365820 On ch=4 n=49 v=0
365820 On ch=4 n=99 v=0
365820 On ch=4 n=51 v=100
365820 On ch=4 n=100 v=100
365880 On ch=4 n=88 v=0
365880 On ch=4 n=75 v=0
365880 On ch=4 n=62 v=0
365940 On ch=4 n=51 v=0
365940 On ch=4 n=100 v=0
366240 On ch=4 n=51 v=100
366240 On ch=4 n=100 v=100
366240 On ch=4 n=88 v=100
366240 On ch=4 n=75 v=100
366360 On ch=4 n=51 v=0
366360 On ch=4 n=100 v=0
366360 On ch=4 n=88 v=0
366360 On ch=4 n=75 v=0
366480 On ch=4 n=49 v=100
366480 On ch=4 n=99 v=100
366480 On ch=4 n=87 v=100
366480 On ch=4 n=74 v=100
366480 On ch=4 n=61 v=100
366600 On ch=4 n=49 v=0
366600 On ch=4 n=99 v=0
366600 On ch=4 n=87 v=0
366600 On ch=4 n=74 v=0
366600 On ch=4 n=61 v=0
366960 On ch=4 n=47 v=100
366960 On ch=4 n=97 v=100
366960 On ch=4 n=85 v=100
367080 On ch=4 n=47 v=0
367080 On ch=4 n=97 v=0
367080 On ch=4 n=85 v=0
367200 On ch=4 n=49 v=100
367200 On ch=4 n=99 v=100
367200 On ch=4 n=87 v=100
367200 On ch=4 n=74 v=100
367200 On ch=4 n=60 v=100
367320 On ch=4 n=49 v=0
367320 On ch=4 n=99 v=0
367320 On ch=4 n=87 v=0
367320 On ch=4 n=74 v=0
367320 On ch=4 n=60 v=0
367320 On ch=4 n=47 v=100
367320 On ch=4 n=98 v=100
367440 On ch=4 n=47 v=0
367440 On ch=4 n=98 v=0
367440 On ch=4 n=45 v=100
367440 On ch=4 n=97 v=100
367440 On ch=4 n=85 v=100
367560 On ch=4 n=45 v=0
367560 On ch=4 n=97 v=0
367560 On ch=4 n=85 v=0
367680 On ch=4 n=106 v=100
367680 On ch=4 n=49 v=100
367680 On ch=4 n=99 v=100
367680 On ch=4 n=87 v=100
367680 On ch=4 n=75 v=100
367680 On ch=4 n=62 v=100
367800 On ch=4 n=49 v=0
367800 On ch=4 n=99 v=0
367800 On ch=4 n=87 v=0
367800 On ch=4 n=75 v=0
367800 On ch=4 n=62 v=0
367920 On ch=4 n=49 v=100
367920 On ch=4 n=99 v=100
367920 On ch=4 n=87 v=100
367920 On ch=4 n=75 v=100
368040 On ch=4 n=49 v=0
368040 On ch=4 n=99 v=0
368040 On ch=4 n=87 v=0
368040 On ch=4 n=75 v=0
368160 On ch=4 n=43 v=100
368160 On ch=4 n=96 v=100
368160 On ch=4 n=84 v=100
368160 On ch=4 n=72 v=100
368160 On ch=4 n=60 v=100
368280 On ch=4 n=43 v=0
368280 On ch=4 n=96 v=0
368280 On ch=4 n=84 v=0
368280 On ch=4 n=72 v=0
368280 On ch=4 n=60 v=0
368400 On ch=4 n=43 v=100
368400 On ch=4 n=96 v=100
368400 On ch=4 n=84 v=100
368400 On ch=4 n=72 v=100
368520 On ch=4 n=43 v=0
368520 On ch=4 n=96 v=0
368520 On ch=4 n=84 v=0
368520 On ch=4 n=72 v=0
368640 On ch=4 n=44 v=100
368640 On ch=4 n=97 v=100
368640 On ch=4 n=85 v=100
368640 On ch=4 n=73 v=100
368640 On ch=4 n=60 v=100
368760 On ch=4 n=44 v=0
368760 On ch=4 n=97 v=0
368760 On ch=4 n=85 v=0
368760 On ch=4 n=73 v=0
368760 On ch=4 n=60 v=0
368880 On ch=4 n=44 v=100
368880 On ch=4 n=97 v=100
368880 On ch=4 n=85 v=100
368880 On ch=4 n=73 v=100
369000 On ch=4 n=44 v=0
369000 On ch=4 n=97 v=0
369000 On ch=4 n=85 v=0
369000 On ch=4 n=73 v=0
369120 On ch=4 n=47 v=100
369120 On ch=4 n=98 v=100
369120 On ch=4 n=86 v=100
369120 On ch=4 n=74 v=100
369120 On ch=4 n=61 v=100
369240 On ch=4 n=47 v=0
369240 On ch=4 n=98 v=0
369240 On ch=4 n=86 v=0
369240 On ch=4 n=74 v=0
369240 On ch=4 n=61 v=0
369360 On ch=4 n=47 v=100
369360 On ch=4 n=98 v=100
369360 On ch=4 n=86 v=100
369360 On ch=4 n=74 v=100
369480 On ch=4 n=47 v=0
369480 On ch=4 n=98 v=0
369480 On ch=4 n=86 v=0
369480 On ch=4 n=74 v=0
369600 On ch=4 n=49 v=100
369600 On ch=4 n=99 v=100
369600 On ch=4 n=87 v=100
369600 On ch=4 n=61 v=100
369600 On ch=4 n=73 v=100
369720 On ch=4 n=49 v=0
369720 On ch=4 n=99 v=0
369720 On ch=4 n=87 v=0
369720 On ch=4 n=61 v=0
369720 On ch=4 n=73 v=0
369840 On ch=4 n=49 v=100
369840 On ch=4 n=99 v=100
369840 On ch=4 n=87 v=100
369840 On ch=4 n=73 v=100
369960 On ch=4 n=49 v=0
369960 On ch=4 n=99 v=0
369960 On ch=4 n=87 v=0
369960 On ch=4 n=73 v=0
370080 On ch=4 n=50 v=100
370080 On ch=4 n=100 v=100
370080 On ch=4 n=88 v=100
370080 On ch=4 n=75 v=100
370080 On ch=4 n=62 v=100
370200 On ch=4 n=50 v=0
370200 On ch=4 n=100 v=0
370200 On ch=4 n=88 v=0
370200 On ch=4 n=75 v=0
370200 On ch=4 n=62 v=0
370200 On ch=4 n=49 v=100
370200 On ch=4 n=99 v=100
370320 On ch=4 n=49 v=0
370320 On ch=4 n=99 v=0
370320 On ch=4 n=50 v=100
370320 On ch=4 n=100 v=100
370320 On ch=4 n=88 v=100
370320 On ch=4 n=75 v=100
370440 On ch=4 n=50 v=0
370440 On ch=4 n=100 v=0
370440 On ch=4 n=88 v=0
370440 On ch=4 n=75 v=0
370560 On ch=4 n=50 v=100
370560 On ch=4 n=100 v=100
370560 On ch=4 n=88 v=100
370560 On ch=4 n=75 v=100
370560 On ch=4 n=62 v=100
370680 On ch=4 n=50 v=0
370680 On ch=4 n=100 v=0
370680 On ch=4 n=88 v=0
370680 On ch=4 n=75 v=0
370680 On ch=4 n=62 v=0
370800 On ch=4 n=50 v=100
370800 On ch=4 n=100 v=100
370800 On ch=4 n=88 v=100
370800 On ch=4 n=75 v=100
370920 On ch=4 n=50 v=0
370920 On ch=4 n=100 v=0
370920 On ch=4 n=88 v=0
370920 On ch=4 n=75 v=0
371040 On ch=4 n=41 v=100
371040 On ch=4 n=96 v=100
371040 On ch=4 n=84 v=100
371040 On ch=4 n=72 v=100
371040 On ch=4 n=60 v=100
371156 On ch=4 n=41 v=0
371156 On ch=4 n=72 v=0
371156 On ch=4 n=60 v=0
371160 On ch=4 n=96 v=0
371160 On ch=4 n=84 v=0
371280 On ch=4 n=42 v=100
371280 On ch=4 n=97 v=100
371280 On ch=4 n=85 v=100
371280 On ch=4 n=73 v=100
371396 On ch=4 n=42 v=0
371396 On ch=4 n=73 v=0
371400 On ch=4 n=97 v=0
371400 On ch=4 n=85 v=0
371520 On ch=4 n=44 v=100
371520 On ch=4 n=98 v=100
371520 On ch=4 n=86 v=100
371520 On ch=4 n=74 v=100
371520 On ch=4 n=61 v=100
374636 On ch=4 n=44 v=0
374636 On ch=4 n=74 v=0
374636 On ch=4 n=61 v=0
374640 On ch=4 n=86 v=0
374760 On ch=4 n=98 v=0
374880 On ch=4 n=41 v=100
374880 On ch=4 n=116 v=100
374880 On ch=4 n=96 v=100
374880 On ch=4 n=84 v=100
374880 On ch=4 n=72 v=100
374880 On ch=4 n=60 v=100
374996 On ch=4 n=41 v=0
374996 On ch=4 n=72 v=0
374996 On ch=4 n=60 v=0
375000 On ch=4 n=96 v=0
375000 On ch=4 n=84 v=0
375120 On ch=4 n=42 v=100
375120 On ch=4 n=97 v=100
375120 On ch=4 n=85 v=100
375120 On ch=4 n=73 v=100
375236 On ch=4 n=42 v=0
375236 On ch=4 n=73 v=0
375240 On ch=4 n=97 v=0
375240 On ch=4 n=85 v=0
375360 On ch=4 n=44 v=100
375360 On ch=4 n=98 v=100
375360 On ch=4 n=86 v=100
375360 On ch=4 n=74 v=100
375360 On ch=4 n=61 v=100
375480 On ch=4 n=116 v=0
378360 On ch=4 n=61 v=0
378476 On ch=4 n=44 v=0
378476 On ch=4 n=74 v=0
378480 On ch=4 n=86 v=0
378600 On ch=4 n=98 v=0
378720 On ch=4 n=44 v=100
378720 On ch=4 n=97 v=100
378720 On ch=4 n=85 v=100
378720 On ch=4 n=73 v=100
378720 On ch=4 n=61 v=100
378836 On ch=4 n=44 v=0
378836 On ch=4 n=73 v=0
378836 On ch=4 n=61 v=0
378840 On ch=4 n=97 v=0
378840 On ch=4 n=85 v=0
378960 On ch=4 n=46 v=100
378960 On ch=4 n=98 v=100
378960 On ch=4 n=86 v=100
378960 On ch=4 n=74 v=100
379076 On ch=4 n=46 v=0
379076 On ch=4 n=74 v=0
379080 On ch=4 n=98 v=0
379080 On ch=4 n=86 v=0
379200 On ch=4 n=48 v=100
379200 On ch=4 n=99 v=100
379200 On ch=4 n=87 v=100
379200 On ch=4 n=75 v=100
379200 On ch=4 n=62 v=100
382200 On ch=4 n=62 v=0
382316 On ch=4 n=48 v=0
382316 On ch=4 n=75 v=0
382320 On ch=4 n=87 v=0
382440 On ch=4 n=99 v=0
382560 On ch=4 n=44 v=100
382560 On ch=4 n=97 v=100
382560 On ch=4 n=85 v=100
382560 On ch=4 n=73 v=100
382560 On ch=4 n=61 v=100
382676 On ch=4 n=44 v=0
382676 On ch=4 n=73 v=0
382676 On ch=4 n=61 v=0
382680 On ch=4 n=97 v=0
382680 On ch=4 n=85 v=0
382800 On ch=4 n=46 v=100
382800 On ch=4 n=98 v=100
382800 On ch=4 n=86 v=100
382800 On ch=4 n=74 v=100
382916 On ch=4 n=46 v=0
382916 On ch=4 n=74 v=0
382920 On ch=4 n=98 v=0
382920 On ch=4 n=86 v=0
383040 On ch=4 n=48 v=100
383040 On ch=4 n=99 v=100
383040 On ch=4 n=87 v=100
383040 On ch=4 n=75 v=100
383040 On ch=4 n=62 v=100
383160 On ch=4 n=99 v=0
383160 On ch=4 n=87 v=0
383160 On ch=4 n=75 v=0
383160 On ch=4 n=62 v=0
383280 On ch=4 n=99 v=100
383280 On ch=4 n=87 v=100
383280 On ch=4 n=75 v=100
383400 On ch=4 n=99 v=0
383400 On ch=4 n=87 v=0
383400 On ch=4 n=75 v=0
383520 On ch=4 n=99 v=100
383520 On ch=4 n=87 v=100
383520 On ch=4 n=75 v=100
383520 On ch=4 n=62 v=100
383640 On ch=4 n=99 v=0
383640 On ch=4 n=87 v=0
383640 On ch=4 n=75 v=0
383640 On ch=4 n=62 v=0
383760 On ch=4 n=99 v=100
383760 On ch=4 n=87 v=100
383760 On ch=4 n=75 v=100
383880 On ch=4 n=99 v=0
383880 On ch=4 n=87 v=0
383880 On ch=4 n=75 v=0
384000 On ch=4 n=99 v=100
384000 On ch=4 n=87 v=100
384000 On ch=4 n=75 v=100
384000 On ch=4 n=62 v=100
384120 On ch=4 n=99 v=0
384120 On ch=4 n=87 v=0
384120 On ch=4 n=75 v=0
384120 On ch=4 n=62 v=0
384240 On ch=4 n=99 v=100
384240 On ch=4 n=87 v=100
384240 On ch=4 n=75 v=100
384360 On ch=4 n=99 v=0
384360 On ch=4 n=87 v=0
384360 On ch=4 n=75 v=0
384480 On ch=4 n=99 v=100
384480 On ch=4 n=87 v=100
384480 On ch=4 n=75 v=100
384480 On ch=4 n=62 v=100
384600 On ch=4 n=99 v=0
384600 On ch=4 n=87 v=0
384600 On ch=4 n=75 v=0
384600 On ch=4 n=62 v=0
384720 On ch=4 n=99 v=100
384720 On ch=4 n=87 v=100
384720 On ch=4 n=75 v=100
384840 On ch=4 n=99 v=0
384840 On ch=4 n=87 v=0
384840 On ch=4 n=75 v=0
384960 On ch=4 n=99 v=100
384960 On ch=4 n=87 v=100
384960 On ch=4 n=75 v=100
384960 On ch=4 n=62 v=100
385080 On ch=4 n=99 v=0
385080 On ch=4 n=87 v=0
385080 On ch=4 n=75 v=0
385080 On ch=4 n=62 v=0
385200 On ch=4 n=99 v=100
385200 On ch=4 n=87 v=100
385200 On ch=4 n=75 v=100
385320 On ch=4 n=99 v=0
385320 On ch=4 n=87 v=0
385320 On ch=4 n=75 v=0
385440 On ch=4 n=99 v=100
385440 On ch=4 n=87 v=100
385440 On ch=4 n=75 v=100
385440 On ch=4 n=62 v=100
385560 On ch=4 n=99 v=0
385560 On ch=4 n=87 v=0
385560 On ch=4 n=75 v=0
385560 On ch=4 n=62 v=0
385680 On ch=4 n=99 v=100
385680 On ch=4 n=87 v=100
385680 On ch=4 n=75 v=100
385800 On ch=4 n=99 v=0
385800 On ch=4 n=87 v=0
385800 On ch=4 n=75 v=0
385920 On ch=4 n=99 v=100
385920 On ch=4 n=87 v=100
385920 On ch=4 n=75 v=100
385920 On ch=4 n=62 v=100
386040 On ch=4 n=99 v=0
386040 On ch=4 n=87 v=0
386040 On ch=4 n=75 v=0
386040 On ch=4 n=62 v=0
386160 On ch=4 n=99 v=100
386160 On ch=4 n=87 v=100
386160 On ch=4 n=75 v=100
386280 On ch=4 n=48 v=0
386280 On ch=4 n=99 v=0
386280 On ch=4 n=87 v=0
386280 On ch=4 n=75 v=0
386400 On ch=4 n=52 v=100
386400 On ch=4 n=100 v=100
386400 On ch=4 n=88 v=100
386400 On ch=4 n=75 v=100
386400 On ch=4 n=62 v=100
386520 On ch=4 n=52 v=0
386520 On ch=4 n=100 v=0
386520 On ch=4 n=88 v=0
386520 On ch=4 n=75 v=0
386520 On ch=4 n=62 v=0
386520 On ch=4 n=99 v=100
386640 On ch=4 n=99 v=0
386640 On ch=4 n=98 v=100
386640 On ch=4 n=86 v=100
386760 On ch=4 n=98 v=0
386760 On ch=4 n=86 v=0
386880 On ch=4 n=105 v=0
386880 On ch=4 n=41 v=100
386880 On ch=4 n=116 v=100
386880 On ch=4 n=97 v=100
386880 On ch=4 n=85 v=100
386880 On ch=4 n=73 v=100
386880 On ch=4 n=60 v=100
387000 On ch=4 n=97 v=0
387000 On ch=4 n=85 v=0
387000 On ch=4 n=73 v=0
387000 On ch=4 n=60 v=0
387360 On ch=4 n=97 v=100
387360 On ch=4 n=85 v=100
387360 On ch=4 n=73 v=100
387360 On ch=4 n=60 v=100
387480 On ch=4 n=97 v=0
387480 On ch=4 n=85 v=0
387480 On ch=4 n=73 v=0
387480 On ch=4 n=60 v=0
387840 On ch=4 n=97 v=100
387840 On ch=4 n=85 v=100
387840 On ch=4 n=73 v=100
387840 On ch=4 n=60 v=100
387960 On ch=4 n=97 v=0
387960 On ch=4 n=85 v=0
387960 On ch=4 n=73 v=0
387960 On ch=4 n=60 v=0
388320 On ch=4 n=97 v=100
388320 On ch=4 n=85 v=100
388320 On ch=4 n=73 v=100
388320 On ch=4 n=60 v=100
388440 On ch=4 n=97 v=0
388440 On ch=4 n=85 v=0
388440 On ch=4 n=73 v=0
388440 On ch=4 n=60 v=0
388800 On ch=4 n=97 v=100
388800 On ch=4 n=85 v=100
388800 On ch=4 n=73 v=100
388800 On ch=4 n=60 v=100
388920 On ch=4 n=97 v=0
388920 On ch=4 n=85 v=0
388920 On ch=4 n=73 v=0
388920 On ch=4 n=60 v=0
389280 On ch=4 n=97 v=100
389280 On ch=4 n=85 v=100
389280 On ch=4 n=73 v=100
389280 On ch=4 n=60 v=100
389400 On ch=4 n=97 v=0
389400 On ch=4 n=85 v=0
389400 On ch=4 n=73 v=0
389400 On ch=4 n=60 v=0
389760 On ch=4 n=97 v=100
389760 On ch=4 n=85 v=100
389760 On ch=4 n=73 v=100
389760 On ch=4 n=60 v=100
389880 On ch=4 n=97 v=0
389880 On ch=4 n=85 v=0
389880 On ch=4 n=73 v=0
389880 On ch=4 n=60 v=0
390240 On ch=4 n=97 v=100
390240 On ch=4 n=85 v=100
390240 On ch=4 n=73 v=100
390240 On ch=4 n=60 v=100
390360 On ch=4 n=41 v=0
390360 On ch=4 n=97 v=0
390360 On ch=4 n=85 v=0
390360 On ch=4 n=73 v=0
390360 On ch=4 n=60 v=0
390480 On ch=4 n=40 v=100
390480 On ch=4 n=96 v=100
390480 On ch=4 n=84 v=100
390480 On ch=4 n=72 v=100
390600 On ch=4 n=40 v=0
390600 On ch=4 n=96 v=0
390600 On ch=4 n=84 v=0
390600 On ch=4 n=72 v=0
390720 On ch=4 n=116 v=0
390720 On ch=4 n=41 v=100
390720 On ch=4 n=97 v=100
390720 On ch=4 n=85 v=100
390720 On ch=4 n=73 v=100
390720 On ch=4 n=60 v=100
390840 On ch=4 n=97 v=0
390840 On ch=4 n=85 v=0
390840 On ch=4 n=73 v=0
390840 On ch=4 n=60 v=0
391200 On ch=4 n=97 v=100
391200 On ch=4 n=85 v=100
391200 On ch=4 n=73 v=100
391200 On ch=4 n=60 v=100
391320 On ch=4 n=97 v=0
391320 On ch=4 n=85 v=0
391320 On ch=4 n=73 v=0
391320 On ch=4 n=60 v=0
391680 On ch=4 n=97 v=100
391680 On ch=4 n=85 v=100
391680 On ch=4 n=73 v=100
391680 On ch=4 n=60 v=100
391800 On ch=4 n=97 v=0
391800 On ch=4 n=85 v=0
391800 On ch=4 n=73 v=0
391800 On ch=4 n=60 v=0
392160 On ch=4 n=97 v=100
392160 On ch=4 n=85 v=100
392160 On ch=4 n=73 v=100
392160 On ch=4 n=60 v=100
392280 On ch=4 n=97 v=0
392280 On ch=4 n=85 v=0
392280 On ch=4 n=73 v=0
392280 On ch=4 n=60 v=0
392640 On ch=4 n=97 v=100
392640 On ch=4 n=85 v=100
392640 On ch=4 n=73 v=100
392640 On ch=4 n=60 v=100
392760 On ch=4 n=97 v=0
392760 On ch=4 n=85 v=0
392760 On ch=4 n=73 v=0
392760 On ch=4 n=60 v=0
393120 On ch=4 n=97 v=100
393120 On ch=4 n=85 v=100
393120 On ch=4 n=73 v=100
393120 On ch=4 n=60 v=100
393240 On ch=4 n=97 v=0
393240 On ch=4 n=85 v=0
393240 On ch=4 n=73 v=0
393240 On ch=4 n=60 v=0
393600 On ch=4 n=97 v=100
393600 On ch=4 n=85 v=100
393600 On ch=4 n=73 v=100
393600 On ch=4 n=60 v=100
393720 On ch=4 n=97 v=0
393720 On ch=4 n=85 v=0
393720 On ch=4 n=73 v=0
393720 On ch=4 n=60 v=0
394080 On ch=4 n=105 v=100
394080 On ch=4 n=97 v=100
394080 On ch=4 n=85 v=100
394080 On ch=4 n=73 v=100
394080 On ch=4 n=60 v=100
394200 On ch=4 n=41 v=0
394200 On ch=4 n=97 v=0
394200 On ch=4 n=85 v=0
394200 On ch=4 n=73 v=0
394200 On ch=4 n=60 v=0
394320 On ch=4 n=40 v=100
394320 On ch=4 n=96 v=100
394320 On ch=4 n=84 v=100
394320 On ch=4 n=72 v=100
394440 On ch=4 n=40 v=0
394440 On ch=4 n=96 v=0
394440 On ch=4 n=84 v=0
394440 On ch=4 n=72 v=0
394560 On ch=4 n=41 v=100
394560 On ch=4 n=97 v=100
394560 On ch=4 n=85 v=100
394560 On ch=4 n=73 v=100
394560 On ch=4 n=60 v=100
394680 On ch=4 n=106 v=0
394680 On ch=4 n=97 v=0
394680 On ch=4 n=85 v=0
394680 On ch=4 n=73 v=0
394680 On ch=4 n=60 v=0
395040 On ch=4 n=97 v=100
395040 On ch=4 n=85 v=100
395040 On ch=4 n=73 v=100
395040 On ch=4 n=60 v=100
395160 On ch=4 n=97 v=0
395160 On ch=4 n=85 v=0
395160 On ch=4 n=73 v=0
395160 On ch=4 n=60 v=0
395520 On ch=4 n=97 v=100
395520 On ch=4 n=85 v=100
395520 On ch=4 n=73 v=100
395520 On ch=4 n=60 v=100
395640 On ch=4 n=97 v=0
395640 On ch=4 n=85 v=0
395640 On ch=4 n=73 v=0
395640 On ch=4 n=60 v=0
396000 On ch=4 n=97 v=100
396000 On ch=4 n=85 v=100
396000 On ch=4 n=73 v=100
396000 On ch=4 n=60 v=100
396120 On ch=4 n=97 v=0
396120 On ch=4 n=85 v=0
396120 On ch=4 n=73 v=0
396120 On ch=4 n=60 v=0
396480 On ch=4 n=97 v=100
396480 On ch=4 n=85 v=100
396480 On ch=4 n=73 v=100
396480 On ch=4 n=60 v=100
396600 On ch=4 n=97 v=0
396600 On ch=4 n=85 v=0
396600 On ch=4 n=73 v=0
396600 On ch=4 n=60 v=0
396960 On ch=4 n=97 v=100
396960 On ch=4 n=85 v=100
396960 On ch=4 n=73 v=100
396960 On ch=4 n=60 v=100
397080 On ch=4 n=97 v=0
397080 On ch=4 n=85 v=0
397080 On ch=4 n=73 v=0
397080 On ch=4 n=60 v=0
397440 On ch=4 n=97 v=100
397440 On ch=4 n=85 v=100
397440 On ch=4 n=73 v=100
397440 On ch=4 n=60 v=100
397560 On ch=4 n=97 v=0
397560 On ch=4 n=85 v=0
397560 On ch=4 n=73 v=0
397560 On ch=4 n=60 v=0
397920 On ch=4 n=97 v=100
397920 On ch=4 n=85 v=100
397920 On ch=4 n=73 v=100
397920 On ch=4 n=60 v=100
398040 On ch=4 n=41 v=0
398040 On ch=4 n=97 v=0
398040 On ch=4 n=85 v=0
398040 On ch=4 n=73 v=0
398040 On ch=4 n=60 v=0
398160 On ch=4 n=40 v=100
398160 On ch=4 n=96 v=100
398160 On ch=4 n=84 v=100
398160 On ch=4 n=72 v=100
398280 On ch=4 n=40 v=0
398280 On ch=4 n=96 v=0
398280 On ch=4 n=84 v=0
398280 On ch=4 n=72 v=0
398400 On ch=4 n=41 v=100
398400 On ch=4 n=97 v=100
398400 On ch=4 n=85 v=100
398400 On ch=4 n=73 v=100
398400 On ch=4 n=60 v=100
398520 On ch=4 n=97 v=0
398520 On ch=4 n=85 v=0
398520 On ch=4 n=73 v=0
398520 On ch=4 n=60 v=0
398880 On ch=4 n=97 v=100
398880 On ch=4 n=85 v=100
398880 On ch=4 n=73 v=100
398880 On ch=4 n=60 v=100
399000 On ch=4 n=97 v=0
399000 On ch=4 n=85 v=0
399000 On ch=4 n=73 v=0
399000 On ch=4 n=60 v=0
399360 On ch=4 n=97 v=100
399360 On ch=4 n=85 v=100
399360 On ch=4 n=73 v=100
399360 On ch=4 n=60 v=100
399480 On ch=4 n=97 v=0
399480 On ch=4 n=85 v=0
399480 On ch=4 n=73 v=0
399480 On ch=4 n=60 v=0
399840 On ch=4 n=97 v=100
399840 On ch=4 n=85 v=100
399840 On ch=4 n=73 v=100
399840 On ch=4 n=60 v=100
399960 On ch=4 n=97 v=0
399960 On ch=4 n=85 v=0
399960 On ch=4 n=73 v=0
399960 On ch=4 n=60 v=0
400320 On ch=4 n=97 v=100
400320 On ch=4 n=85 v=100
400320 On ch=4 n=73 v=100
400320 On ch=4 n=60 v=100
400440 On ch=4 n=97 v=0
400440 On ch=4 n=85 v=0
400440 On ch=4 n=73 v=0
400440 On ch=4 n=60 v=0
400800 On ch=4 n=97 v=100
400800 On ch=4 n=85 v=100
400800 On ch=4 n=73 v=100
400800 On ch=4 n=60 v=100
400920 On ch=4 n=97 v=0
400920 On ch=4 n=85 v=0
400920 On ch=4 n=73 v=0
400920 On ch=4 n=60 v=0
401040 On ch=4 n=106 v=100
401040 On ch=4 n=97 v=100
401040 On ch=4 n=85 v=100
401040 On ch=4 n=73 v=100
401160 On ch=4 n=41 v=0
401160 On ch=4 n=97 v=0
401160 On ch=4 n=85 v=0
401160 On ch=4 n=73 v=0
401160 On ch=4 n=97 v=100
401280 On ch=4 n=97 v=0
401280 On ch=4 n=47 v=100
401280 On ch=4 n=98 v=100
401280 On ch=4 n=86 v=100
401280 On ch=4 n=74 v=100
401280 On ch=4 n=61 v=100
401400 On ch=4 n=98 v=0
401400 On ch=4 n=86 v=0
401400 On ch=4 n=74 v=0
401400 On ch=4 n=61 v=0
401520 On ch=4 n=47 v=0
401520 On ch=4 n=98 v=100
401520 On ch=4 n=86 v=100
401520 On ch=4 n=74 v=100
401640 On ch=4 n=98 v=0
401640 On ch=4 n=86 v=0
401640 On ch=4 n=74 v=0
401640 On ch=4 n=97 v=100
401760 On ch=4 n=97 v=0
401760 On ch=4 n=49 v=100
401760 On ch=4 n=99 v=100
401760 On ch=4 n=87 v=100
401760 On ch=4 n=75 v=100
401760 On ch=4 n=62 v=100
401880 On ch=4 n=99 v=0
401880 On ch=4 n=87 v=0
401880 On ch=4 n=75 v=0
401880 On ch=4 n=62 v=0
402000 On ch=4 n=49 v=0
402000 On ch=4 n=99 v=100
402000 On ch=4 n=87 v=100
402000 On ch=4 n=75 v=100
402120 On ch=4 n=99 v=0
402120 On ch=4 n=87 v=0
402120 On ch=4 n=75 v=0
402120 On ch=4 n=98 v=100
402240 On ch=4 n=98 v=0
402240 On ch=4 n=52 v=100
402240 On ch=4 n=100 v=100
402240 On ch=4 n=88 v=100
402240 On ch=4 n=75 v=100
402240 On ch=4 n=62 v=100
402360 On ch=4 n=105 v=0
402360 On ch=4 n=52 v=0
402360 On ch=4 n=100 v=0
402360 On ch=4 n=88 v=0
402360 On ch=4 n=75 v=0
402360 On ch=4 n=62 v=0
402720 On ch=4 n=41 v=100
402720 On ch=4 n=97 v=100
402720 On ch=4 n=85 v=100
402720 On ch=4 n=73 v=100
402720 On ch=4 n=60 v=100
402840 On ch=4 n=97 v=0
402840 On ch=4 n=85 v=0
402840 On ch=4 n=73 v=0
402840 On ch=4 n=60 v=0
403200 On ch=4 n=97 v=100
403200 On ch=4 n=85 v=100
403200 On ch=4 n=73 v=100
403200 On ch=4 n=60 v=100
403320 On ch=4 n=97 v=0
403320 On ch=4 n=85 v=0
403320 On ch=4 n=73 v=0
403320 On ch=4 n=60 v=0
403680 On ch=4 n=97 v=100
403680 On ch=4 n=85 v=100
403680 On ch=4 n=73 v=100
403680 On ch=4 n=60 v=100
403800 On ch=4 n=97 v=0
403800 On ch=4 n=85 v=0
403800 On ch=4 n=73 v=0
403800 On ch=4 n=60 v=0
404160 On ch=4 n=97 v=100
404160 On ch=4 n=85 v=100
404160 On ch=4 n=73 v=100
404160 On ch=4 n=60 v=100
404280 On ch=4 n=97 v=0
404280 On ch=4 n=85 v=0
404280 On ch=4 n=73 v=0
404280 On ch=4 n=60 v=0
404640 On ch=4 n=97 v=100
404640 On ch=4 n=85 v=100
404640 On ch=4 n=73 v=100
404640 On ch=4 n=60 v=100
404760 On ch=4 n=97 v=0
404760 On ch=4 n=85 v=0
404760 On ch=4 n=73 v=0
404760 On ch=4 n=60 v=0
405120 On ch=4 n=97 v=100
405120 On ch=4 n=85 v=100
405120 On ch=4 n=73 v=100
405120 On ch=4 n=60 v=100
405240 On ch=4 n=97 v=0
405240 On ch=4 n=85 v=0
405240 On ch=4 n=73 v=0
405240 On ch=4 n=60 v=0
405600 On ch=4 n=97 v=100
405600 On ch=4 n=85 v=100
405600 On ch=4 n=73 v=100
405600 On ch=4 n=60 v=100
405720 On ch=4 n=41 v=0
405720 On ch=4 n=97 v=0
405720 On ch=4 n=85 v=0
405720 On ch=4 n=73 v=0
405720 On ch=4 n=60 v=0
405840 On ch=4 n=40 v=100
405840 On ch=4 n=96 v=100
405840 On ch=4 n=84 v=100
405840 On ch=4 n=72 v=100
405960 On ch=4 n=40 v=0
405960 On ch=4 n=96 v=0
405960 On ch=4 n=84 v=0
405960 On ch=4 n=72 v=0
406080 On ch=4 n=41 v=100
406080 On ch=4 n=97 v=100
406080 On ch=4 n=85 v=100
406080 On ch=4 n=73 v=100
406080 On ch=4 n=60 v=100
406200 On ch=4 n=97 v=0
406200 On ch=4 n=85 v=0
406200 On ch=4 n=73 v=0
406200 On ch=4 n=60 v=0
406560 On ch=4 n=97 v=100
406560 On ch=4 n=85 v=100
406560 On ch=4 n=73 v=100
406560 On ch=4 n=60 v=100
406680 On ch=4 n=97 v=0
406680 On ch=4 n=85 v=0
406680 On ch=4 n=73 v=0
406680 On ch=4 n=60 v=0
407040 On ch=4 n=97 v=100
407040 On ch=4 n=85 v=100
407040 On ch=4 n=73 v=100
407040 On ch=4 n=60 v=100
407160 On ch=4 n=97 v=0
407160 On ch=4 n=85 v=0
407160 On ch=4 n=73 v=0
407160 On ch=4 n=60 v=0
407520 On ch=4 n=97 v=100
407520 On ch=4 n=85 v=100
407520 On ch=4 n=73 v=100
407520 On ch=4 n=60 v=100
407640 On ch=4 n=97 v=0
407640 On ch=4 n=85 v=0
407640 On ch=4 n=73 v=0
407640 On ch=4 n=60 v=0
408000 On ch=4 n=97 v=100
408000 On ch=4 n=85 v=100
408000 On ch=4 n=73 v=100
408000 On ch=4 n=60 v=100
408120 On ch=4 n=97 v=0
408120 On ch=4 n=85 v=0
408120 On ch=4 n=73 v=0
408120 On ch=4 n=60 v=0
408480 On ch=4 n=97 v=100
408480 On ch=4 n=85 v=100
408480 On ch=4 n=73 v=100
408480 On ch=4 n=60 v=100
408600 On ch=4 n=97 v=0
408600 On ch=4 n=85 v=0
408600 On ch=4 n=73 v=0
408600 On ch=4 n=60 v=0
408720 On ch=4 n=96 v=100
408840 On ch=4 n=41 v=0
408840 On ch=4 n=96 v=0
408960 On ch=4 n=105 v=100
408960 On ch=4 n=47 v=100
408960 On ch=4 n=116 v=100
408960 On ch=4 n=86 v=100
408960 On ch=4 n=74 v=100
408960 On ch=4 n=61 v=100
408960 On ch=4 n=98 v=100
409080 On ch=4 n=86 v=0
409080 On ch=4 n=74 v=0
409080 On ch=4 n=61 v=0
409080 On ch=4 n=98 v=0
409200 On ch=4 n=47 v=0
409440 On ch=4 n=49 v=100
409440 On ch=4 n=99 v=100
409440 On ch=4 n=87 v=100
409440 On ch=4 n=75 v=100
409440 On ch=4 n=62 v=100
409560 On ch=4 n=49 v=0
409560 On ch=4 n=99 v=0
409560 On ch=4 n=87 v=0
409560 On ch=4 n=75 v=0
409560 On ch=4 n=62 v=0
409680 On ch=4 n=47 v=100
409680 On ch=4 n=97 v=100
409680 On ch=4 n=86 v=100
409800 On ch=4 n=47 v=0
409800 On ch=4 n=97 v=0
409800 On ch=4 n=86 v=0
409920 On ch=4 n=52 v=100
409920 On ch=4 n=100 v=100
409920 On ch=4 n=88 v=100
409920 On ch=4 n=75 v=100
409920 On ch=4 n=62 v=100
410040 On ch=4 n=116 v=0
410040 On ch=4 n=100 v=0
410040 On ch=4 n=88 v=0
410040 On ch=4 n=75 v=0
410040 On ch=4 n=62 v=0
410400 On ch=4 n=100 v=100
410400 On ch=4 n=88 v=100
410400 On ch=4 n=75 v=100
410400 On ch=4 n=62 v=100
410520 On ch=4 n=100 v=0
410520 On ch=4 n=88 v=0
410520 On ch=4 n=75 v=0
410520 On ch=4 n=62 v=0
410760 On ch=4 n=52 v=0
410880 On ch=4 n=51 v=100
410880 On ch=4 n=88 v=100
410880 On ch=4 n=75 v=100
410880 On ch=4 n=62 v=100
410880 On ch=4 n=99 v=100
410940 On ch=4 n=51 v=0
410940 On ch=4 n=99 v=0
410940 On ch=4 n=52 v=100
410940 On ch=4 n=100 v=100
411000 On ch=4 n=88 v=0
411000 On ch=4 n=75 v=0
411000 On ch=4 n=62 v=0
411060 On ch=4 n=100 v=0
411360 On ch=4 n=100 v=100
411360 On ch=4 n=88 v=100
411360 On ch=4 n=75 v=100
411360 On ch=4 n=62 v=100
411480 On ch=4 n=100 v=0
411480 On ch=4 n=88 v=0
411480 On ch=4 n=75 v=0
411480 On ch=4 n=62 v=0
411720 On ch=4 n=52 v=0
411840 On ch=4 n=51 v=100
411840 On ch=4 n=99 v=100
411840 On ch=4 n=88 v=100
411840 On ch=4 n=75 v=100
411840 On ch=4 n=62 v=100
411900 On ch=4 n=51 v=0
411900 On ch=4 n=99 v=0
411900 On ch=4 n=52 v=100
411900 On ch=4 n=100 v=100
411960 On ch=4 n=88 v=0
411960 On ch=4 n=75 v=0
411960 On ch=4 n=62 v=0
412020 On ch=4 n=100 v=0
412320 On ch=4 n=100 v=100
412320 On ch=4 n=88 v=100
412320 On ch=4 n=75 v=100
412320 On ch=4 n=62 v=100
412440 On ch=4 n=100 v=0
412440 On ch=4 n=88 v=0
412440 On ch=4 n=75 v=0
412440 On ch=4 n=62 v=0
412680 On ch=4 n=52 v=0
412680 On ch=4 n=51 v=100
412680 On ch=4 n=99 v=100
412800 On ch=4 n=51 v=0
412800 On ch=4 n=99 v=0
412800 On ch=4 n=52 v=100
412800 On ch=4 n=100 v=100
412800 On ch=4 n=88 v=100
412800 On ch=4 n=75 v=100
412800 On ch=4 n=62 v=100
412920 On ch=4 n=100 v=0
412920 On ch=4 n=88 v=0
412920 On ch=4 n=75 v=0
412920 On ch=4 n=62 v=0
413040 On ch=4 n=100 v=100
413040 On ch=4 n=88 v=100
413040 On ch=4 n=75 v=100
413160 On ch=4 n=100 v=0
413160 On ch=4 n=88 v=0
413160 On ch=4 n=75 v=0
413280 On ch=4 n=100 v=100
413280 On ch=4 n=88 v=100
413280 On ch=4 n=74 v=100
413280 On ch=4 n=61 v=100
413400 On ch=4 n=52 v=0
413400 On ch=4 n=100 v=0
413400 On ch=4 n=88 v=0
413400 On ch=4 n=74 v=0
413400 On ch=4 n=61 v=0
413400 On ch=4 n=50 v=100
413400 On ch=4 n=99 v=100
413520 On ch=4 n=50 v=0
413520 On ch=4 n=99 v=0
413520 On ch=4 n=48 v=100
413520 On ch=4 n=98 v=100
413520 On ch=4 n=86 v=100
413640 On ch=4 n=48 v=0
413640 On ch=4 n=98 v=0
413640 On ch=4 n=86 v=0
413760 On ch=4 n=47 v=100
413760 On ch=4 n=97 v=100
413760 On ch=4 n=85 v=100
413760 On ch=4 n=73 v=100
413760 On ch=4 n=60 v=100
413880 On ch=4 n=97 v=0
413880 On ch=4 n=85 v=0
413880 On ch=4 n=73 v=0
413880 On ch=4 n=60 v=0
414240 On ch=4 n=97 v=100
414240 On ch=4 n=85 v=100
414240 On ch=4 n=73 v=100
414240 On ch=4 n=60 v=100
414360 On ch=4 n=97 v=0
414360 On ch=4 n=85 v=0
414360 On ch=4 n=73 v=0
414360 On ch=4 n=60 v=0
414480 On ch=4 n=97 v=100
414480 On ch=4 n=85 v=100
414480 On ch=4 n=73 v=100
414600 On ch=4 n=97 v=0
414600 On ch=4 n=85 v=0
414600 On ch=4 n=73 v=0
414720 On ch=4 n=97 v=100
414720 On ch=4 n=85 v=100
414720 On ch=4 n=73 v=100
414720 On ch=4 n=60 v=100
414840 On ch=4 n=97 v=0
414840 On ch=4 n=85 v=0
414840 On ch=4 n=73 v=0
414840 On ch=4 n=60 v=0
414960 On ch=4 n=97 v=100
414960 On ch=4 n=85 v=100
414960 On ch=4 n=73 v=100
415080 On ch=4 n=47 v=0
415080 On ch=4 n=97 v=0
415080 On ch=4 n=85 v=0
415080 On ch=4 n=73 v=0
415200 On ch=4 n=48 v=100
415200 On ch=4 n=98 v=100
415200 On ch=4 n=86 v=100
415200 On ch=4 n=74 v=100
415200 On ch=4 n=61 v=100
415320 On ch=4 n=98 v=0
415320 On ch=4 n=86 v=0
415320 On ch=4 n=74 v=0
415320 On ch=4 n=61 v=0
415440 On ch=4 n=98 v=100
415440 On ch=4 n=86 v=100
415440 On ch=4 n=74 v=100
415560 On ch=4 n=48 v=0
415560 On ch=4 n=98 v=0
415560 On ch=4 n=86 v=0
415560 On ch=4 n=74 v=0
415560 On ch=4 n=49 v=100
415560 On ch=4 n=99 v=100
415680 On ch=4 n=49 v=0
415680 On ch=4 n=99 v=0
415680 On ch=4 n=51 v=100
415680 On ch=4 n=100 v=100
415680 On ch=4 n=88 v=100
415680 On ch=4 n=75 v=100
415680 On ch=4 n=62 v=100
415800 On ch=4 n=51 v=0
415800 On ch=4 n=100 v=0
415800 On ch=4 n=88 v=0
415800 On ch=4 n=75 v=0
415800 On ch=4 n=62 v=0
415800 On ch=4 n=49 v=100
415800 On ch=4 n=99 v=100
415920 On ch=4 n=49 v=0
415920 On ch=4 n=99 v=0
415920 On ch=4 n=47 v=100
415920 On ch=4 n=97 v=100
415920 On ch=4 n=85 v=100
415920 On ch=4 n=73 v=100
416040 On ch=4 n=97 v=0
416040 On ch=4 n=85 v=0
416040 On ch=4 n=73 v=0
416160 On ch=4 n=97 v=100
416160 On ch=4 n=85 v=100
416160 On ch=4 n=73 v=100
416280 On ch=4 n=47 v=0
416280 On ch=4 n=97 v=0
416280 On ch=4 n=85 v=0
416280 On ch=4 n=73 v=0
416640 On ch=4 n=48 v=100
416640 On ch=4 n=98 v=100
416640 On ch=4 n=86 v=100
416640 On ch=4 n=74 v=100
416640 On ch=4 n=61 v=100
416760 On ch=4 n=48 v=0
416760 On ch=4 n=98 v=0
416760 On ch=4 n=86 v=0
416760 On ch=4 n=74 v=0
416760 On ch=4 n=61 v=0
416880 On ch=4 n=49 v=100
416880 On ch=4 n=99 v=100
416880 On ch=4 n=87 v=100
416880 On ch=4 n=74 v=100
417000 On ch=4 n=49 v=0
417000 On ch=4 n=99 v=0
417000 On ch=4 n=87 v=0
417000 On ch=4 n=74 v=0
417120 On ch=4 n=50 v=100
417120 On ch=4 n=100 v=100
417120 On ch=4 n=88 v=100
417120 On ch=4 n=75 v=100
417120 On ch=4 n=62 v=100
417240 On ch=4 n=50 v=0
417240 On ch=4 n=100 v=0
417240 On ch=4 n=88 v=0
417240 On ch=4 n=75 v=0
417240 On ch=4 n=62 v=0
417240 On ch=4 n=49 v=100
417240 On ch=4 n=99 v=100
417360 On ch=4 n=49 v=0
417360 On ch=4 n=99 v=0
417360 On ch=4 n=50 v=100
417360 On ch=4 n=100 v=100
417360 On ch=4 n=88 v=100
417360 On ch=4 n=75 v=100
417480 On ch=4 n=50 v=0
417480 On ch=4 n=100 v=0
417480 On ch=4 n=88 v=0
417480 On ch=4 n=75 v=0
417600 On ch=4 n=44 v=100
417600 On ch=4 n=96 v=100
417600 On ch=4 n=84 v=100
417600 On ch=4 n=72 v=100
417600 On ch=4 n=60 v=100
417720 On ch=4 n=96 v=0
417720 On ch=4 n=84 v=0
417720 On ch=4 n=72 v=0
417720 On ch=4 n=60 v=0
417840 On ch=4 n=96 v=100
417840 On ch=4 n=84 v=100
417840 On ch=4 n=72 v=100
417960 On ch=4 n=96 v=0
417960 On ch=4 n=84 v=0
417960 On ch=4 n=72 v=0
418080 On ch=4 n=96 v=100
418080 On ch=4 n=84 v=100
418080 On ch=4 n=72 v=100
418080 On ch=4 n=60 v=100
418200 On ch=4 n=96 v=0
418200 On ch=4 n=84 v=0
418200 On ch=4 n=72 v=0
418200 On ch=4 n=60 v=0
418320 On ch=4 n=96 v=100
418320 On ch=4 n=84 v=100
418320 On ch=4 n=72 v=100
418440 On ch=4 n=96 v=0
418440 On ch=4 n=84 v=0
418440 On ch=4 n=72 v=0
418560 On ch=4 n=96 v=100
418560 On ch=4 n=84 v=100
418560 On ch=4 n=72 v=100
418560 On ch=4 n=60 v=100
418680 On ch=4 n=96 v=0
418680 On ch=4 n=84 v=0
418680 On ch=4 n=72 v=0
418680 On ch=4 n=60 v=0
418800 On ch=4 n=96 v=100
418800 On ch=4 n=84 v=100
418800 On ch=4 n=72 v=100
418920 On ch=4 n=96 v=0
418920 On ch=4 n=84 v=0
418920 On ch=4 n=72 v=0
419040 On ch=4 n=96 v=100
419040 On ch=4 n=84 v=100
419040 On ch=4 n=72 v=100
419040 On ch=4 n=60 v=100
419160 On ch=4 n=96 v=0
419160 On ch=4 n=84 v=0
419160 On ch=4 n=72 v=0
419160 On ch=4 n=60 v=0
419280 On ch=4 n=96 v=100
419280 On ch=4 n=84 v=100
419280 On ch=4 n=72 v=100
419400 On ch=4 n=44 v=0
419400 On ch=4 n=96 v=0
419400 On ch=4 n=84 v=0
419400 On ch=4 n=72 v=0
419520 On ch=4 n=47 v=100
419520 On ch=4 n=99 v=100
419520 On ch=4 n=87 v=100
419520 On ch=4 n=75 v=100
419520 On ch=4 n=62 v=100
419640 On ch=4 n=99 v=0
419640 On ch=4 n=87 v=0
419640 On ch=4 n=75 v=0
419640 On ch=4 n=62 v=0
419760 On ch=4 n=99 v=100
419760 On ch=4 n=87 v=100
419760 On ch=4 n=75 v=100
419880 On ch=4 n=47 v=0
419880 On ch=4 n=99 v=0
419880 On ch=4 n=87 v=0
419880 On ch=4 n=75 v=0
419880 On ch=4 n=44 v=100
419880 On ch=4 n=96 v=100
420000 On ch=4 n=44 v=0
420000 On ch=4 n=96 v=0
420000 On ch=4 n=47 v=100
420000 On ch=4 n=99 v=100
420000 On ch=4 n=87 v=100
420000 On ch=4 n=75 v=100
420120 On ch=4 n=47 v=0
420120 On ch=4 n=99 v=0
420120 On ch=4 n=87 v=0
420120 On ch=4 n=75 v=0
420120 On ch=4 n=45 v=100
420120 On ch=4 n=97 v=100
420240 On ch=4 n=45 v=0
420240 On ch=4 n=97 v=0
420480 On ch=4 n=46 v=100
420480 On ch=4 n=98 v=100
420480 On ch=4 n=86 v=100
420480 On ch=4 n=74 v=100
420480 On ch=4 n=61 v=100
420600 On ch=4 n=46 v=0
420600 On ch=4 n=98 v=0
420600 On ch=4 n=86 v=0
420600 On ch=4 n=74 v=0
420600 On ch=4 n=61 v=0
420720 On ch=4 n=47 v=100
420720 On ch=4 n=99 v=100
420720 On ch=4 n=87 v=100
420840 On ch=4 n=47 v=0
420840 On ch=4 n=99 v=0
420840 On ch=4 n=87 v=0
420960 On ch=4 n=48 v=100
420960 On ch=4 n=100 v=100
420960 On ch=4 n=88 v=100
420960 On ch=4 n=75 v=100
420960 On ch=4 n=61 v=100
421080 On ch=4 n=48 v=0
421080 On ch=4 n=100 v=0
421080 On ch=4 n=88 v=0
421080 On ch=4 n=75 v=0
421080 On ch=4 n=61 v=0
421080 On ch=4 n=46 v=100
421080 On ch=4 n=99 v=100
421200 On ch=4 n=46 v=0
421200 On ch=4 n=99 v=0
421200 On ch=4 n=44 v=100
421200 On ch=4 n=98 v=100
421200 On ch=4 n=86 v=100
421320 On ch=4 n=44 v=0
421320 On ch=4 n=98 v=0
421320 On ch=4 n=86 v=0
421440 On ch=4 n=41 v=100
421440 On ch=4 n=97 v=100
421440 On ch=4 n=85 v=100
421440 On ch=4 n=73 v=100
421440 On ch=4 n=60 v=100
421560 On ch=4 n=97 v=0
421560 On ch=4 n=85 v=0
421560 On ch=4 n=73 v=0
421560 On ch=4 n=60 v=0
421680 On ch=4 n=97 v=100
421680 On ch=4 n=85 v=100
421680 On ch=4 n=73 v=100
421800 On ch=4 n=97 v=0
421800 On ch=4 n=85 v=0
421800 On ch=4 n=73 v=0
421920 Meta Text "[idle]"
422400 On ch=4 n=41 v=0
423120 On ch=4 n=43 v=100
426240 On ch=4 n=43 v=0
426960 On ch=4 n=51 v=100
427200 Meta Text "[play]"
427200 On ch=4 n=99 v=100
427200 On ch=4 n=88 v=100
427200 On ch=4 n=75 v=100
427200 On ch=4 n=62 v=100
427260 On ch=4 n=51 v=0
427260 On ch=4 n=99 v=0
427260 On ch=4 n=52 v=100
427260 On ch=4 n=100 v=100
427920 On ch=4 n=62 v=0
428040 On ch=4 n=88 v=0
428040 On ch=4 n=75 v=0
428100 On ch=4 n=100 v=0
428160 On ch=4 n=116 v=100
428160 On ch=4 n=100 v=100
428160 On ch=4 n=88 v=100
428160 On ch=4 n=75 v=100
428160 On ch=4 n=62 v=100
428280 On ch=4 n=52 v=0
428280 On ch=4 n=100 v=0
428280 On ch=4 n=88 v=0
428280 On ch=4 n=75 v=0
428280 On ch=4 n=62 v=0
428280 On ch=4 n=50 v=100
428280 On ch=4 n=99 v=100
428400 On ch=4 n=50 v=0
428400 On ch=4 n=99 v=0
428400 On ch=4 n=52 v=100
428400 On ch=4 n=100 v=100
428400 On ch=4 n=88 v=100
428400 On ch=4 n=75 v=100
428520 On ch=4 n=52 v=0
428520 On ch=4 n=100 v=0
428520 On ch=4 n=88 v=0
428520 On ch=4 n=75 v=0
428640 On ch=4 n=50 v=100
428640 On ch=4 n=99 v=100
428640 On ch=4 n=87 v=100
428640 On ch=4 n=74 v=100
428640 On ch=4 n=61 v=100
428760 On ch=4 n=50 v=0
428760 On ch=4 n=99 v=0
428760 On ch=4 n=87 v=0
428760 On ch=4 n=74 v=0
428760 On ch=4 n=61 v=0
428760 On ch=4 n=49 v=100
428760 On ch=4 n=98 v=100
428880 On ch=4 n=49 v=0
428880 On ch=4 n=98 v=0
428880 On ch=4 n=47 v=100
428880 On ch=4 n=97 v=100
428880 On ch=4 n=86 v=100
428880 On ch=4 n=74 v=100
429000 On ch=4 n=116 v=0
429000 On ch=4 n=47 v=0
429000 On ch=4 n=97 v=0
429000 On ch=4 n=86 v=0
429000 On ch=4 n=74 v=0
429120 On ch=4 n=106 v=0
429120 On ch=4 n=105 v=0
429120 On ch=4 n=106 v=100
429120 On ch=4 n=41 v=100
429120 On ch=4 n=97 v=100
429120 On ch=4 n=85 v=100
429120 On ch=4 n=72 v=100
429120 On ch=4 n=60 v=100
429240 On ch=4 n=97 v=0
429240 On ch=4 n=85 v=0
429240 On ch=4 n=72 v=0
429240 On ch=4 n=60 v=0
429360 On ch=4 n=97 v=100
429360 On ch=4 n=85 v=100
429360 On ch=4 n=72 v=100
429480 On ch=4 n=41 v=0
429480 On ch=4 n=97 v=0
429480 On ch=4 n=85 v=0
429480 On ch=4 n=72 v=0
429840 On ch=4 n=45 v=100
429840 On ch=4 n=86 v=100
429840 On ch=4 n=98 v=100
429960 On ch=4 n=45 v=0
429960 On ch=4 n=86 v=0
429960 On ch=4 n=98 v=0
430080 On ch=4 n=48 v=100
430080 On ch=4 n=99 v=100
430080 On ch=4 n=87 v=100
430080 On ch=4 n=74 v=100
430080 On ch=4 n=61 v=100
430200 On ch=4 n=99 v=0
430200 On ch=4 n=87 v=0
430200 On ch=4 n=74 v=0
430200 On ch=4 n=61 v=0
430320 On ch=4 n=99 v=100
430320 On ch=4 n=87 v=100
430320 On ch=4 n=74 v=100
430440 On ch=4 n=99 v=0
430440 On ch=4 n=87 v=0
430440 On ch=4 n=74 v=0
430560 On ch=4 n=48 v=0
430800 On ch=4 n=50 v=100
430800 On ch=4 n=100 v=100
430800 On ch=4 n=88 v=100
430800 On ch=4 n=74 v=100
430920 On ch=4 n=50 v=0
430920 On ch=4 n=100 v=0
430920 On ch=4 n=88 v=0
430920 On ch=4 n=74 v=0
431040 On ch=4 n=48 v=100
431040 On ch=4 n=99 v=100
431040 On ch=4 n=87 v=100
431040 On ch=4 n=73 v=100
431040 On ch=4 n=60 v=100
431160 On ch=4 n=48 v=0
431160 On ch=4 n=99 v=0
431160 On ch=4 n=87 v=0
431160 On ch=4 n=73 v=0
431160 On ch=4 n=60 v=0
431280 On ch=4 n=45 v=100
431280 On ch=4 n=98 v=100
431280 On ch=4 n=86 v=100
431280 On ch=4 n=72 v=100
431400 On ch=4 n=98 v=0
431400 On ch=4 n=86 v=0
431400 On ch=4 n=72 v=0
431760 On ch=4 n=98 v=100
431760 On ch=4 n=86 v=100
431760 On ch=4 n=73 v=100
431880 On ch=4 n=45 v=0
431880 On ch=4 n=98 v=0
431880 On ch=4 n=86 v=0
431880 On ch=4 n=73 v=0
432000 On ch=4 n=48 v=100
432000 On ch=4 n=99 v=100
432000 On ch=4 n=87 v=100
432000 On ch=4 n=74 v=100
432000 On ch=4 n=61 v=100
432120 On ch=4 n=48 v=0
432120 On ch=4 n=99 v=0
432120 On ch=4 n=87 v=0
432120 On ch=4 n=74 v=0
432120 On ch=4 n=61 v=0
432120 On ch=4 n=45 v=100
432120 On ch=4 n=98 v=100
432240 On ch=4 n=45 v=0
432240 On ch=4 n=98 v=0
432240 On ch=4 n=48 v=100
432240 On ch=4 n=99 v=100
432240 On ch=4 n=87 v=100
432240 On ch=4 n=74 v=100
432360 On ch=4 n=48 v=0
432360 On ch=4 n=99 v=0
432360 On ch=4 n=87 v=0
432360 On ch=4 n=74 v=0
432480 On ch=4 n=99 v=100
432600 On ch=4 n=99 v=0
432600 On ch=4 n=47 v=100
432600 On ch=4 n=97 v=100
432600 On ch=4 n=85 v=100
432600 On ch=4 n=73 v=100
432600 On ch=4 n=60 v=100
432720 On ch=4 n=97 v=0
432720 On ch=4 n=85 v=0
432720 On ch=4 n=73 v=0
432720 On ch=4 n=60 v=0
432840 On ch=4 n=47 v=0
432956 On ch=4 n=106 v=0
432960 On ch=4 n=105 v=100
432960 On ch=4 n=50 v=100
432960 On ch=4 n=100 v=100
432960 On ch=4 n=88 v=100
432960 On ch=4 n=75 v=100
432960 On ch=4 n=62 v=100
433080 On ch=4 n=100 v=0
433080 On ch=4 n=88 v=0
433080 On ch=4 n=75 v=0
433080 On ch=4 n=62 v=0
433200 On ch=4 n=100 v=100
433200 On ch=4 n=88 v=100
433200 On ch=4 n=75 v=100
433320 On ch=4 n=100 v=0
433320 On ch=4 n=88 v=0
433320 On ch=4 n=75 v=0
433680 On ch=4 n=100 v=100
433680 On ch=4 n=88 v=100
433800 On ch=4 n=50 v=0
433800 On ch=4 n=100 v=0
433800 On ch=4 n=88 v=0
433920 On ch=4 n=48 v=100
433920 On ch=4 n=99 v=100
433920 On ch=4 n=87 v=100
433920 On ch=4 n=74 v=100
433920 On ch=4 n=61 v=100
434040 On ch=4 n=99 v=0
434040 On ch=4 n=87 v=0
434040 On ch=4 n=74 v=0
434040 On ch=4 n=61 v=0
434160 On ch=4 n=99 v=100
434160 On ch=4 n=87 v=100
434160 On ch=4 n=74 v=100
434280 On ch=4 n=48 v=0
434280 On ch=4 n=99 v=0
434280 On ch=4 n=87 v=0
434280 On ch=4 n=74 v=0
434400 On ch=4 n=50 v=100
434400 On ch=4 n=100 v=100
434400 On ch=4 n=88 v=100
434400 On ch=4 n=75 v=100
434400 On ch=4 n=62 v=100
434520 On ch=4 n=50 v=0
434520 On ch=4 n=100 v=0
434520 On ch=4 n=88 v=0
434520 On ch=4 n=75 v=0
434520 On ch=4 n=62 v=0
434520 On ch=4 n=48 v=100
434520 On ch=4 n=99 v=100
434640 On ch=4 n=48 v=0
434640 On ch=4 n=99 v=0
434640 On ch=4 n=45 v=100
434640 On ch=4 n=98 v=100
434640 On ch=4 n=86 v=100
434760 On ch=4 n=45 v=0
434760 On ch=4 n=98 v=0
434760 On ch=4 n=86 v=0
434880 On ch=4 n=48 v=100
434880 On ch=4 n=99 v=100
434880 On ch=4 n=87 v=100
434880 On ch=4 n=61 v=100
434880 On ch=4 n=74 v=100
435000 On ch=4 n=48 v=0
435000 On ch=4 n=99 v=0
435000 On ch=4 n=87 v=0
435000 On ch=4 n=61 v=0
435000 On ch=4 n=74 v=0
435120 On ch=4 n=41 v=100
435120 On ch=4 n=97 v=100
435120 On ch=4 n=85 v=100
435240 On ch=4 n=97 v=0
435240 On ch=4 n=85 v=0
435600 On ch=4 n=97 v=100
435600 On ch=4 n=85 v=100
435600 On ch=4 n=72 v=100
435720 On ch=4 n=41 v=0
435720 On ch=4 n=97 v=0
435720 On ch=4 n=85 v=0
435720 On ch=4 n=72 v=0
435840 On ch=4 n=45 v=100
435840 On ch=4 n=98 v=100
435840 On ch=4 n=86 v=100
435840 On ch=4 n=73 v=100
435840 On ch=4 n=61 v=100
435960 On ch=4 n=98 v=0
435960 On ch=4 n=86 v=0
435960 On ch=4 n=73 v=0
435960 On ch=4 n=61 v=0
436080 On ch=4 n=98 v=100
436080 On ch=4 n=86 v=100
436080 On ch=4 n=73 v=100
436200 On ch=4 n=45 v=0
436200 On ch=4 n=98 v=0
436200 On ch=4 n=86 v=0
436200 On ch=4 n=73 v=0
436320 On ch=4 n=48 v=100
436320 On ch=4 n=99 v=100
436320 On ch=4 n=61 v=100
436440 On ch=4 n=48 v=0
436440 On ch=4 n=99 v=0
436440 On ch=4 n=61 v=0
436440 On ch=4 n=45 v=100
436440 On ch=4 n=98 v=100
436440 On ch=4 n=86 v=100
436440 On ch=4 n=73 v=100
436560 On ch=4 n=98 v=0
436560 On ch=4 n=86 v=0
436560 On ch=4 n=73 v=0
436680 On ch=4 n=45 v=0
436796 On ch=4 n=105 v=0
436800 On ch=4 n=106 v=100
436800 On ch=4 n=41 v=100
436800 On ch=4 n=97 v=100
436800 On ch=4 n=85 v=100
436800 On ch=4 n=60 v=100
436800 On ch=4 n=72 v=100
436920 On ch=4 n=97 v=0
436920 On ch=4 n=85 v=0
436920 On ch=4 n=60 v=0
436920 On ch=4 n=72 v=0
437040 On ch=4 n=97 v=100
437040 On ch=4 n=85 v=100
437040 On ch=4 n=72 v=100
437160 On ch=4 n=41 v=0
437160 On ch=4 n=97 v=0
437160 On ch=4 n=85 v=0
437160 On ch=4 n=72 v=0
437520 On ch=4 n=45 v=100
437520 On ch=4 n=98 v=100
437520 On ch=4 n=86 v=100
437640 On ch=4 n=45 v=0
437640 On ch=4 n=98 v=0
437640 On ch=4 n=86 v=0
437760 On ch=4 n=48 v=100
437760 On ch=4 n=99 v=100
437760 On ch=4 n=87 v=100
437760 On ch=4 n=74 v=100
437760 On ch=4 n=61 v=100
437880 On ch=4 n=99 v=0
437880 On ch=4 n=87 v=0
437880 On ch=4 n=74 v=0
437880 On ch=4 n=61 v=0
438000 On ch=4 n=99 v=100
438000 On ch=4 n=87 v=100
438000 On ch=4 n=74 v=100
438120 On ch=4 n=99 v=0
438120 On ch=4 n=87 v=0
438120 On ch=4 n=74 v=0
438360 On ch=4 n=48 v=0
438480 On ch=4 n=50 v=100
438480 On ch=4 n=100 v=100
438480 On ch=4 n=88 v=100
438480 On ch=4 n=74 v=100
438600 On ch=4 n=50 v=0
438600 On ch=4 n=100 v=0
438600 On ch=4 n=88 v=0
438600 On ch=4 n=74 v=0
438720 On ch=4 n=48 v=100
438720 On ch=4 n=99 v=100
438720 On ch=4 n=87 v=100
438720 On ch=4 n=73 v=100
438720 On ch=4 n=60 v=100
438840 On ch=4 n=48 v=0
438840 On ch=4 n=99 v=0
438840 On ch=4 n=87 v=0
438840 On ch=4 n=73 v=0
438840 On ch=4 n=60 v=0
438960 On ch=4 n=45 v=100
438960 On ch=4 n=98 v=100
438960 On ch=4 n=86 v=100
438960 On ch=4 n=72 v=100
439080 On ch=4 n=98 v=0
439080 On ch=4 n=86 v=0
439080 On ch=4 n=72 v=0
439440 On ch=4 n=98 v=100
439440 On ch=4 n=86 v=100
439440 On ch=4 n=73 v=100
439560 On ch=4 n=45 v=0
439560 On ch=4 n=98 v=0
439560 On ch=4 n=86 v=0
439560 On ch=4 n=73 v=0
439680 On ch=4 n=48 v=100
439680 On ch=4 n=99 v=100
439680 On ch=4 n=87 v=100
439680 On ch=4 n=74 v=100
439680 On ch=4 n=61 v=100
439800 On ch=4 n=99 v=0
439800 On ch=4 n=87 v=0
439800 On ch=4 n=74 v=0
439800 On ch=4 n=61 v=0
439920 On ch=4 n=99 v=100
439920 On ch=4 n=87 v=100
439920 On ch=4 n=74 v=100
440040 On ch=4 n=48 v=0
440040 On ch=4 n=99 v=0
440040 On ch=4 n=87 v=0
440040 On ch=4 n=74 v=0
440160 On ch=4 n=50 v=100
440160 On ch=4 n=100 v=100
440160 On ch=4 n=60 v=100
440280 On ch=4 n=50 v=0
440280 On ch=4 n=100 v=0
440280 On ch=4 n=60 v=0
440280 On ch=4 n=47 v=100
440280 On ch=4 n=97 v=100
440280 On ch=4 n=85 v=100
440280 On ch=4 n=73 v=100
440400 On ch=4 n=47 v=0
440400 On ch=4 n=97 v=0
440400 On ch=4 n=85 v=0
440400 On ch=4 n=73 v=0
440636 On ch=4 n=106 v=0
440640 On ch=4 n=105 v=100
440640 On ch=4 n=100 v=100
440640 On ch=4 n=88 v=100
440640 On ch=4 n=75 v=100
440640 On ch=4 n=62 v=100
440760 On ch=4 n=100 v=0
440760 On ch=4 n=88 v=0
440760 On ch=4 n=75 v=0
440760 On ch=4 n=62 v=0
440760 On ch=4 n=97 v=100
440880 On ch=4 n=97 v=0
440880 On ch=4 n=41 v=100
440880 On ch=4 n=97 v=100
440880 On ch=4 n=85 v=100
440880 On ch=4 n=73 v=100
441000 On ch=4 n=97 v=0
441000 On ch=4 n=85 v=0
441000 On ch=4 n=73 v=0
441240 On ch=4 n=41 v=0
441360 On ch=4 n=45 v=100
441360 On ch=4 n=98 v=100
441360 On ch=4 n=86 v=100
441360 On ch=4 n=73 v=100
441480 On ch=4 n=45 v=0
441480 On ch=4 n=98 v=0
441480 On ch=4 n=86 v=0
441480 On ch=4 n=73 v=0
441600 On ch=4 n=48 v=100
441600 On ch=4 n=99 v=100
441600 On ch=4 n=87 v=100
441600 On ch=4 n=74 v=100
441600 On ch=4 n=61 v=100
441720 On ch=4 n=99 v=0
441720 On ch=4 n=87 v=0
441720 On ch=4 n=74 v=0
441720 On ch=4 n=61 v=0
441840 On ch=4 n=99 v=100
441840 On ch=4 n=87 v=100
441840 On ch=4 n=74 v=100
441960 On ch=4 n=99 v=0
441960 On ch=4 n=87 v=0
441960 On ch=4 n=74 v=0
442200 On ch=4 n=48 v=0
442320 On ch=4 n=50 v=100
442320 On ch=4 n=116 v=100
442320 On ch=4 n=100 v=100
442320 On ch=4 n=88 v=100
442320 On ch=4 n=74 v=100
442440 On ch=4 n=50 v=0
442440 On ch=4 n=100 v=0
442440 On ch=4 n=88 v=0
442440 On ch=4 n=74 v=0
442560 On ch=4 n=48 v=100
442560 On ch=4 n=99 v=100
442560 On ch=4 n=87 v=100
442560 On ch=4 n=61 v=100
442560 On ch=4 n=73 v=100
442680 On ch=4 n=48 v=0
442680 On ch=4 n=99 v=0
442680 On ch=4 n=87 v=0
442680 On ch=4 n=61 v=0
442680 On ch=4 n=73 v=0
442800 On ch=4 n=43 v=100
442800 On ch=4 n=97 v=100
442800 On ch=4 n=85 v=100
442800 On ch=4 n=72 v=100
442920 On ch=4 n=43 v=0
442920 On ch=4 n=97 v=0
442920 On ch=4 n=85 v=0
442920 On ch=4 n=72 v=0
443040 On ch=4 n=45 v=100
443040 On ch=4 n=98 v=100
443040 On ch=4 n=86 v=100
443040 On ch=4 n=73 v=100
443040 On ch=4 n=60 v=100
443160 On ch=4 n=98 v=0
443160 On ch=4 n=86 v=0
443160 On ch=4 n=73 v=0
443160 On ch=4 n=60 v=0
443280 On ch=4 n=98 v=100
443280 On ch=4 n=86 v=100
443400 On ch=4 n=45 v=0
443400 On ch=4 n=98 v=0
443400 On ch=4 n=86 v=0
443520 On ch=4 n=48 v=100
443520 On ch=4 n=99 v=100
443520 On ch=4 n=87 v=100
443520 On ch=4 n=74 v=100
443520 On ch=4 n=61 v=100
443640 On ch=4 n=48 v=0
443640 On ch=4 n=99 v=0
443640 On ch=4 n=87 v=0
443640 On ch=4 n=74 v=0
443640 On ch=4 n=61 v=0
443640 On ch=4 n=45 v=100
443640 On ch=4 n=98 v=100
443760 On ch=4 n=45 v=0
443760 On ch=4 n=98 v=0
443760 On ch=4 n=48 v=100
443760 On ch=4 n=99 v=100
443760 On ch=4 n=87 v=100
443760 On ch=4 n=74 v=100
443880 On ch=4 n=48 v=0
443880 On ch=4 n=99 v=0
443880 On ch=4 n=87 v=0
443880 On ch=4 n=74 v=0
444000 On ch=4 n=50 v=100
444000 On ch=4 n=100 v=100
444000 On ch=4 n=62 v=100
444120 On ch=4 n=50 v=0
444120 On ch=4 n=100 v=0
444120 On ch=4 n=62 v=0
444120 On ch=4 n=45 v=100
444120 On ch=4 n=98 v=100
444120 On ch=4 n=86 v=100
444120 On ch=4 n=73 v=100
444240 On ch=4 n=116 v=0
444240 On ch=4 n=45 v=0
444240 On ch=4 n=98 v=0
444240 On ch=4 n=86 v=0
444240 On ch=4 n=73 v=0
444476 On ch=4 n=105 v=0
444480 On ch=4 n=106 v=100
444480 On ch=4 n=41 v=100
444480 On ch=4 n=97 v=100
444480 On ch=4 n=85 v=100
444480 On ch=4 n=72 v=100
444480 On ch=4 n=60 v=100
444600 On ch=4 n=97 v=0
444600 On ch=4 n=85 v=0
444600 On ch=4 n=72 v=0
444600 On ch=4 n=60 v=0
444720 On ch=4 n=97 v=100
444720 On ch=4 n=85 v=100
444720 On ch=4 n=72 v=100
444840 On ch=4 n=41 v=0
444840 On ch=4 n=97 v=0
444840 On ch=4 n=85 v=0
444840 On ch=4 n=72 v=0
445200 On ch=4 n=45 v=100
445200 On ch=4 n=98 v=100
445200 On ch=4 n=86 v=100
445200 On ch=4 n=73 v=100
445320 On ch=4 n=45 v=0
445320 On ch=4 n=98 v=0
445320 On ch=4 n=86 v=0
445320 On ch=4 n=73 v=0
445440 On ch=4 n=48 v=100
445440 On ch=4 n=99 v=100
445440 On ch=4 n=87 v=100
445440 On ch=4 n=74 v=100
445440 On ch=4 n=61 v=100
445560 On ch=4 n=99 v=0
445560 On ch=4 n=87 v=0
445560 On ch=4 n=74 v=0
445560 On ch=4 n=61 v=0
445680 On ch=4 n=99 v=100
445680 On ch=4 n=87 v=100
445680 On ch=4 n=74 v=100
445800 On ch=4 n=99 v=0
445800 On ch=4 n=87 v=0
445800 On ch=4 n=74 v=0
446040 On ch=4 n=48 v=0
446160 On ch=4 n=50 v=100
446160 On ch=4 n=100 v=100
446160 On ch=4 n=88 v=100
446160 On ch=4 n=74 v=100
446280 On ch=4 n=50 v=0
446280 On ch=4 n=100 v=0
446280 On ch=4 n=88 v=0
446280 On ch=4 n=74 v=0
446400 On ch=4 n=48 v=100
446400 On ch=4 n=99 v=100
446400 On ch=4 n=87 v=100
446400 On ch=4 n=73 v=100
446400 On ch=4 n=60 v=100
446520 On ch=4 n=48 v=0
446520 On ch=4 n=99 v=0
446520 On ch=4 n=87 v=0
446520 On ch=4 n=73 v=0
446520 On ch=4 n=60 v=0
446640 On ch=4 n=43 v=100
446640 On ch=4 n=97 v=100
446640 On ch=4 n=85 v=100
446640 On ch=4 n=72 v=100
446760 On ch=4 n=97 v=0
446760 On ch=4 n=85 v=0
446760 On ch=4 n=72 v=0
447120 On ch=4 n=97 v=100
447120 On ch=4 n=85 v=100
447120 On ch=4 n=73 v=100
447240 On ch=4 n=43 v=0
447240 On ch=4 n=97 v=0
447240 On ch=4 n=85 v=0
447240 On ch=4 n=73 v=0
447360 On ch=4 n=48 v=100
447360 On ch=4 n=99 v=100
447360 On ch=4 n=87 v=100
447360 On ch=4 n=74 v=100
447360 On ch=4 n=61 v=100
447480 On ch=4 n=48 v=0
447480 On ch=4 n=99 v=0
447480 On ch=4 n=87 v=0
447480 On ch=4 n=74 v=0
447480 On ch=4 n=61 v=0
447480 On ch=4 n=45 v=100
447480 On ch=4 n=98 v=100
447600 On ch=4 n=45 v=0
447600 On ch=4 n=98 v=0
447600 On ch=4 n=48 v=100
447600 On ch=4 n=99 v=100
447600 On ch=4 n=87 v=100
447600 On ch=4 n=74 v=100
447720 On ch=4 n=48 v=0
447720 On ch=4 n=99 v=0
447720 On ch=4 n=87 v=0
447720 On ch=4 n=74 v=0
447840 On ch=4 n=50 v=100
447840 On ch=4 n=100 v=100
447840 On ch=4 n=60 v=100
447960 On ch=4 n=50 v=0
447960 On ch=4 n=100 v=0
447960 On ch=4 n=60 v=0
447960 On ch=4 n=45 v=100
447960 On ch=4 n=98 v=100
447960 On ch=4 n=86 v=100
447960 On ch=4 n=73 v=100
448080 On ch=4 n=45 v=0
448080 On ch=4 n=98 v=0
448080 On ch=4 n=86 v=0
448080 On ch=4 n=73 v=0
448316 On ch=4 n=106 v=0
448320 On ch=4 n=105 v=100
448320 On ch=4 n=41 v=100
448320 On ch=4 n=97 v=100
448320 On ch=4 n=85 v=100
448320 On ch=4 n=72 v=100
448320 On ch=4 n=60 v=100
448440 On ch=4 n=97 v=0
448440 On ch=4 n=85 v=0
448440 On ch=4 n=72 v=0
448440 On ch=4 n=60 v=0
448560 On ch=4 n=97 v=100
448560 On ch=4 n=85 v=100
448560 On ch=4 n=72 v=100
448680 On ch=4 n=97 v=0
448680 On ch=4 n=85 v=0
448680 On ch=4 n=72 v=0
448800 On ch=4 n=41 v=0
449040 On ch=4 n=45 v=100
449040 On ch=4 n=86 v=100
449040 On ch=4 n=98 v=100
449040 On ch=4 n=73 v=100
449160 On ch=4 n=45 v=0
449160 On ch=4 n=86 v=0
449160 On ch=4 n=98 v=0
449160 On ch=4 n=73 v=0
449280 On ch=4 n=48 v=100
449280 On ch=4 n=99 v=100
449280 On ch=4 n=87 v=100
449280 On ch=4 n=74 v=100
449280 On ch=4 n=61 v=100
449400 On ch=4 n=99 v=0
449400 On ch=4 n=87 v=0
449400 On ch=4 n=74 v=0
449400 On ch=4 n=61 v=0
449400 On ch=4 n=98 v=100
449520 On ch=4 n=98 v=0
449520 On ch=4 n=99 v=100
449520 On ch=4 n=87 v=100
449520 On ch=4 n=74 v=100
449640 On ch=4 n=99 v=0
449640 On ch=4 n=87 v=0
449640 On ch=4 n=74 v=0
449760 On ch=4 n=48 v=0
450000 On ch=4 n=50 v=100
450000 On ch=4 n=100 v=100
450000 On ch=4 n=88 v=100
450000 On ch=4 n=74 v=100
450120 On ch=4 n=50 v=0
450120 On ch=4 n=100 v=0
450120 On ch=4 n=88 v=0
450120 On ch=4 n=74 v=0
450240 On ch=4 n=48 v=100
450240 On ch=4 n=99 v=100
450240 On ch=4 n=87 v=100
450240 On ch=4 n=73 v=100
450240 On ch=4 n=60 v=100
450360 On ch=4 n=48 v=0
450360 On ch=4 n=99 v=0
450360 On ch=4 n=87 v=0
450360 On ch=4 n=73 v=0
450360 On ch=4 n=60 v=0
450480 On ch=4 n=43 v=100
450480 On ch=4 n=97 v=100
450480 On ch=4 n=85 v=100
450480 On ch=4 n=72 v=100
450600 On ch=4 n=97 v=0
450600 On ch=4 n=85 v=0
450600 On ch=4 n=72 v=0
450960 On ch=4 n=97 v=100
450960 On ch=4 n=85 v=100
450960 On ch=4 n=73 v=100
451080 On ch=4 n=43 v=0
451080 On ch=4 n=97 v=0
451080 On ch=4 n=85 v=0
451080 On ch=4 n=73 v=0
451200 On ch=4 n=48 v=100
451200 On ch=4 n=99 v=100
451200 On ch=4 n=87 v=100
451200 On ch=4 n=74 v=100
451200 On ch=4 n=61 v=100
451320 On ch=4 n=48 v=0
451320 On ch=4 n=99 v=0
451320 On ch=4 n=87 v=0
451320 On ch=4 n=74 v=0
451320 On ch=4 n=61 v=0
451320 On ch=4 n=45 v=100
451320 On ch=4 n=98 v=100
451440 On ch=4 n=45 v=0
451440 On ch=4 n=98 v=0
451440 On ch=4 n=48 v=100
451440 On ch=4 n=99 v=100
451440 On ch=4 n=87 v=100
451440 On ch=4 n=74 v=100
451560 On ch=4 n=48 v=0
451560 On ch=4 n=99 v=0
451560 On ch=4 n=87 v=0
451560 On ch=4 n=74 v=0
451680 On ch=4 n=50 v=100
451680 On ch=4 n=100 v=100
451680 On ch=4 n=60 v=100
451800 On ch=4 n=50 v=0
451800 On ch=4 n=100 v=0
451800 On ch=4 n=60 v=0
451800 On ch=4 n=45 v=100
451800 On ch=4 n=98 v=100
451800 On ch=4 n=86 v=100
451800 On ch=4 n=73 v=100
451920 On ch=4 n=45 v=0
451920 On ch=4 n=98 v=0
451920 On ch=4 n=86 v=0
451920 On ch=4 n=73 v=0
452160 On ch=4 n=105 v=0
452160 On ch=4 n=106 v=100
452160 On ch=4 n=50 v=100
452160 On ch=4 n=88 v=100
452160 On ch=4 n=75 v=100
452160 On ch=4 n=62 v=100
452160 On ch=4 n=99 v=100
452220 On ch=4 n=99 v=0
452220 On ch=4 n=100 v=100
452280 On ch=4 n=88 v=0
452280 On ch=4 n=75 v=0
452280 On ch=4 n=62 v=0
452280 On ch=4 n=100 v=0
452400 On ch=4 n=100 v=100
452400 On ch=4 n=88 v=100
452400 On ch=4 n=75 v=100
452520 On ch=4 n=100 v=0
452520 On ch=4 n=88 v=0
452520 On ch=4 n=75 v=0
452640 On ch=4 n=88 v=100
452640 On ch=4 n=75 v=100
452640 On ch=4 n=99 v=100
452640 On ch=4 n=62 v=100
452700 On ch=4 n=99 v=0
452700 On ch=4 n=100 v=100
452760 On ch=4 n=88 v=0
452760 On ch=4 n=75 v=0
452760 On ch=4 n=62 v=0
452760 On ch=4 n=100 v=0
452880 On ch=4 n=100 v=100
452880 On ch=4 n=88 v=100
452880 On ch=4 n=75 v=100
453000 On ch=4 n=100 v=0
453000 On ch=4 n=88 v=0
453000 On ch=4 n=75 v=0
453120 On ch=4 n=88 v=100
453120 On ch=4 n=75 v=100
453120 On ch=4 n=62 v=100
453120 On ch=4 n=99 v=100
453180 On ch=4 n=99 v=0
453180 On ch=4 n=100 v=100
453240 On ch=4 n=88 v=0
453240 On ch=4 n=75 v=0
453240 On ch=4 n=62 v=0
453240 On ch=4 n=100 v=0
453360 On ch=4 n=100 v=100
453360 On ch=4 n=88 v=100
453360 On ch=4 n=75 v=100
453480 On ch=4 n=100 v=0
453480 On ch=4 n=88 v=0
453480 On ch=4 n=75 v=0
453600 On ch=4 n=100 v=100
453600 On ch=4 n=88 v=100
453600 On ch=4 n=75 v=100
453600 On ch=4 n=61 v=100
453720 On ch=4 n=50 v=0
453720 On ch=4 n=100 v=0
453720 On ch=4 n=88 v=0
453720 On ch=4 n=75 v=0
453720 On ch=4 n=61 v=0
453720 On ch=4 n=48 v=100
453720 On ch=4 n=99 v=100
453840 On ch=4 n=48 v=0
453840 On ch=4 n=99 v=0
453840 On ch=4 n=45 v=100
453840 On ch=4 n=98 v=100
453840 On ch=4 n=86 v=100
453840 On ch=4 n=73 v=100
453960 On ch=4 n=45 v=0
453960 On ch=4 n=98 v=0
453960 On ch=4 n=86 v=0
453960 On ch=4 n=73 v=0
454080 On ch=4 n=48 v=100
454080 On ch=4 n=99 v=100
454080 On ch=4 n=87 v=100
454080 On ch=4 n=74 v=100
454080 On ch=4 n=62 v=100
454200 On ch=4 n=48 v=0
454200 On ch=4 n=99 v=0
454200 On ch=4 n=87 v=0
454200 On ch=4 n=74 v=0
454200 On ch=4 n=62 v=0
454320 On ch=4 n=43 v=100
454320 On ch=4 n=97 v=100
454320 On ch=4 n=85 v=100
454320 On ch=4 n=72 v=100
454440 On ch=4 n=43 v=0
454440 On ch=4 n=97 v=0
454440 On ch=4 n=85 v=0
454440 On ch=4 n=72 v=0
454560 On ch=4 n=45 v=100
454560 On ch=4 n=98 v=100
454560 On ch=4 n=86 v=100
454560 On ch=4 n=73 v=100
454560 On ch=4 n=61 v=100
454680 On ch=4 n=98 v=0
454680 On ch=4 n=86 v=0
454680 On ch=4 n=73 v=0
454680 On ch=4 n=61 v=0
454800 On ch=4 n=98 v=100
454800 On ch=4 n=86 v=100
454800 On ch=4 n=73 v=100
454920 On ch=4 n=45 v=0
454920 On ch=4 n=98 v=0
454920 On ch=4 n=86 v=0
454920 On ch=4 n=73 v=0
455040 On ch=4 n=48 v=100
455040 On ch=4 n=99 v=100
455040 On ch=4 n=87 v=100
455040 On ch=4 n=74 v=100
455040 On ch=4 n=61 v=100
455160 On ch=4 n=48 v=0
455160 On ch=4 n=99 v=0
455160 On ch=4 n=87 v=0
455160 On ch=4 n=74 v=0
455160 On ch=4 n=61 v=0
455160 On ch=4 n=45 v=100
455160 On ch=4 n=98 v=100
455280 On ch=4 n=45 v=0
455280 On ch=4 n=98 v=0
455280 On ch=4 n=43 v=100
455280 On ch=4 n=97 v=100
455280 On ch=4 n=85 v=100
455280 On ch=4 n=72 v=100
455400 On ch=4 n=43 v=0
455400 On ch=4 n=97 v=0
455400 On ch=4 n=85 v=0
455400 On ch=4 n=72 v=0
455520 On ch=4 n=45 v=100
455520 On ch=4 n=96 v=100
455520 On ch=4 n=60 v=100
455640 On ch=4 n=45 v=0
455640 On ch=4 n=96 v=0
455640 On ch=4 n=60 v=0
455640 On ch=4 n=42 v=100
455640 On ch=4 n=96 v=100
455640 On ch=4 n=84 v=100
455640 On ch=4 n=73 v=100
455760 On ch=4 n=42 v=0
455760 On ch=4 n=96 v=0
455760 On ch=4 n=84 v=0
455760 On ch=4 n=73 v=0
455996 On ch=4 n=106 v=0
456000 On ch=4 n=105 v=100
456000 On ch=4 n=41 v=100
456000 On ch=4 n=97 v=100
456000 On ch=4 n=85 v=100
456000 On ch=4 n=72 v=100
456000 On ch=4 n=60 v=100
456120 On ch=4 n=97 v=0
456120 On ch=4 n=85 v=0
456120 On ch=4 n=72 v=0
456120 On ch=4 n=60 v=0
456240 On ch=4 n=97 v=100
456240 On ch=4 n=85 v=100
456240 On ch=4 n=72 v=100
456360 On ch=4 n=97 v=0
456360 On ch=4 n=85 v=0
456360 On ch=4 n=72 v=0
456480 On ch=4 n=41 v=0
456720 On ch=4 n=45 v=100
456720 On ch=4 n=98 v=100
456720 On ch=4 n=86 v=100
456720 On ch=4 n=73 v=100
456840 On ch=4 n=45 v=0
456840 On ch=4 n=98 v=0
456840 On ch=4 n=86 v=0
456840 On ch=4 n=73 v=0
456960 On ch=4 n=48 v=100
456960 On ch=4 n=99 v=100
456960 On ch=4 n=87 v=100
456960 On ch=4 n=74 v=100
456960 On ch=4 n=61 v=100
457080 On ch=4 n=99 v=0
457080 On ch=4 n=87 v=0
457080 On ch=4 n=74 v=0
457080 On ch=4 n=61 v=0
457200 On ch=4 n=99 v=100
457200 On ch=4 n=87 v=100
457200 On ch=4 n=74 v=100
457320 On ch=4 n=99 v=0
457320 On ch=4 n=87 v=0
457320 On ch=4 n=74 v=0
457440 On ch=4 n=48 v=0
457680 On ch=4 n=50 v=100
457680 On ch=4 n=100 v=100
457680 On ch=4 n=88 v=100
457680 On ch=4 n=74 v=100
457800 On ch=4 n=50 v=0
457800 On ch=4 n=100 v=0
457800 On ch=4 n=88 v=0
457800 On ch=4 n=74 v=0
457920 On ch=4 n=48 v=100
457920 On ch=4 n=99 v=100
457920 On ch=4 n=87 v=100
457920 On ch=4 n=73 v=100
457920 On ch=4 n=60 v=100
458040 On ch=4 n=48 v=0
458040 On ch=4 n=99 v=0
458040 On ch=4 n=87 v=0
458040 On ch=4 n=73 v=0
458040 On ch=4 n=60 v=0
458160 On ch=4 n=43 v=100
458160 On ch=4 n=97 v=100
458160 On ch=4 n=85 v=100
458160 On ch=4 n=72 v=100
458280 On ch=4 n=43 v=0
458280 On ch=4 n=97 v=0
458280 On ch=4 n=85 v=0
458280 On ch=4 n=72 v=0
458400 On ch=4 n=45 v=100
458400 On ch=4 n=98 v=100
458400 On ch=4 n=86 v=100
458400 On ch=4 n=73 v=100
458400 On ch=4 n=60 v=100
458520 On ch=4 n=98 v=0
458520 On ch=4 n=86 v=0
458520 On ch=4 n=73 v=0
458520 On ch=4 n=60 v=0
458640 On ch=4 n=98 v=100
458640 On ch=4 n=86 v=100
458640 On ch=4 n=73 v=100
458760 On ch=4 n=45 v=0
458760 On ch=4 n=98 v=0
458760 On ch=4 n=86 v=0
458760 On ch=4 n=73 v=0
458880 On ch=4 n=48 v=100
458880 On ch=4 n=99 v=100
458880 On ch=4 n=87 v=100
458880 On ch=4 n=74 v=100
458880 On ch=4 n=61 v=100
459000 On ch=4 n=48 v=0
459000 On ch=4 n=99 v=0
459000 On ch=4 n=87 v=0
459000 On ch=4 n=74 v=0
459000 On ch=4 n=61 v=0
459000 On ch=4 n=45 v=100
459000 On ch=4 n=98 v=100
459120 On ch=4 n=45 v=0
459120 On ch=4 n=98 v=0
459120 On ch=4 n=48 v=100
459120 On ch=4 n=99 v=100
459120 On ch=4 n=87 v=100
459120 On ch=4 n=74 v=100
459240 On ch=4 n=48 v=0
459240 On ch=4 n=99 v=0
459240 On ch=4 n=87 v=0
459240 On ch=4 n=74 v=0
459360 On ch=4 n=50 v=100
459360 On ch=4 n=100 v=100
459360 On ch=4 n=60 v=100
459480 On ch=4 n=50 v=0
459480 On ch=4 n=100 v=0
459480 On ch=4 n=60 v=0
459480 On ch=4 n=45 v=100
459480 On ch=4 n=98 v=100
459480 On ch=4 n=86 v=100
459480 On ch=4 n=73 v=100
459600 On ch=4 n=45 v=0
459600 On ch=4 n=98 v=0
459600 On ch=4 n=86 v=0
459600 On ch=4 n=73 v=0
459840 On ch=4 n=106 v=100
459840 On ch=4 n=50 v=100
459840 On ch=4 n=100 v=100
459840 On ch=4 n=88 v=100
459840 On ch=4 n=75 v=100
459840 On ch=4 n=62 v=100
459960 On ch=4 n=100 v=0
459960 On ch=4 n=88 v=0
459960 On ch=4 n=75 v=0
459960 On ch=4 n=62 v=0
460080 On ch=4 n=100 v=100
460080 On ch=4 n=88 v=100
460080 On ch=4 n=75 v=100
460200 On ch=4 n=50 v=0
460200 On ch=4 n=100 v=0
460200 On ch=4 n=88 v=0
460200 On ch=4 n=75 v=0
460320 On ch=4 n=48 v=100
460320 On ch=4 n=99 v=100
460320 On ch=4 n=87 v=100
460320 On ch=4 n=74 v=100
460320 On ch=4 n=62 v=100
460440 On ch=4 n=48 v=0
460440 On ch=4 n=99 v=0
460440 On ch=4 n=87 v=0
460440 On ch=4 n=74 v=0
460440 On ch=4 n=62 v=0
460440 On ch=4 n=50 v=100
460440 On ch=4 n=100 v=100
460560 On ch=4 n=50 v=0
460560 On ch=4 n=100 v=0
460560 On ch=4 n=48 v=100
460560 On ch=4 n=99 v=100
460560 On ch=4 n=87 v=100
460560 On ch=4 n=74 v=100
460680 On ch=4 n=48 v=0
460680 On ch=4 n=99 v=0
460680 On ch=4 n=87 v=0
460680 On ch=4 n=74 v=0
460680 On ch=4 n=45 v=100
460680 On ch=4 n=98 v=100
460800 On ch=4 n=45 v=0
460800 On ch=4 n=98 v=0
460800 On ch=4 n=50 v=100
460800 On ch=4 n=100 v=100
460800 On ch=4 n=88 v=100
460800 On ch=4 n=75 v=100
460800 On ch=4 n=62 v=100
460920 On ch=4 n=100 v=0
460920 On ch=4 n=88 v=0
460920 On ch=4 n=75 v=0
460920 On ch=4 n=62 v=0
461040 On ch=4 n=100 v=100
461040 On ch=4 n=88 v=100
461040 On ch=4 n=75 v=100
461160 On ch=4 n=100 v=0
461160 On ch=4 n=88 v=0
461160 On ch=4 n=75 v=0
461280 On ch=4 n=88 v=100
461280 On ch=4 n=75 v=100
461280 On ch=4 n=99 v=100
461280 On ch=4 n=62 v=100
461400 On ch=4 n=88 v=0
461400 On ch=4 n=75 v=0
461400 On ch=4 n=99 v=0
461400 On ch=4 n=62 v=0
461400 On ch=4 n=100 v=100
461520 On ch=4 n=100 v=0
461520 On ch=4 n=100 v=100
461520 On ch=4 n=88 v=100
461520 On ch=4 n=75 v=100
461640 On ch=4 n=100 v=0
461640 On ch=4 n=88 v=0
461640 On ch=4 n=75 v=0
461760 On ch=4 n=100 v=100
461760 On ch=4 n=88 v=100
461760 On ch=4 n=75 v=100
461760 On ch=4 n=62 v=100
461880 On ch=4 n=50 v=0
461880 On ch=4 n=100 v=0
461880 On ch=4 n=88 v=0
461880 On ch=4 n=75 v=0
461880 On ch=4 n=62 v=0
462000 On ch=4 n=44 v=100
462000 On ch=4 n=97 v=100
462000 On ch=4 n=85 v=100
462120 On ch=4 n=44 v=0
462120 On ch=4 n=97 v=0
462120 On ch=4 n=85 v=0
462240 On ch=4 n=45 v=100
462240 On ch=4 n=98 v=100
462240 On ch=4 n=86 v=100
462240 On ch=4 n=73 v=100
462240 On ch=4 n=61 v=100
462360 On ch=4 n=98 v=0
462360 On ch=4 n=86 v=0
462360 On ch=4 n=73 v=0
462360 On ch=4 n=61 v=0
462480 On ch=4 n=98 v=100
462480 On ch=4 n=86 v=100
462480 On ch=4 n=73 v=100
462600 On ch=4 n=45 v=0
462600 On ch=4 n=98 v=0
462600 On ch=4 n=86 v=0
462600 On ch=4 n=73 v=0
462720 On ch=4 n=48 v=100
462720 On ch=4 n=99 v=100
462720 On ch=4 n=87 v=100
462720 On ch=4 n=74 v=100
462720 On ch=4 n=60 v=100
462840 On ch=4 n=48 v=0
462840 On ch=4 n=99 v=0
462840 On ch=4 n=87 v=0
462840 On ch=4 n=74 v=0
462840 On ch=4 n=60 v=0
462840 On ch=4 n=45 v=100
462840 On ch=4 n=98 v=100
462960 On ch=4 n=45 v=0
462960 On ch=4 n=98 v=0
462960 On ch=4 n=43 v=100
462960 On ch=4 n=97 v=100
462960 On ch=4 n=85 v=100
462960 On ch=4 n=72 v=100
463080 On ch=4 n=43 v=0
463080 On ch=4 n=97 v=0
463080 On ch=4 n=85 v=0
463080 On ch=4 n=72 v=0
463200 On ch=4 n=45 v=100
463200 On ch=4 n=98 v=100
463200 On ch=4 n=61 v=100
463320 On ch=4 n=45 v=0
463320 On ch=4 n=98 v=0
463320 On ch=4 n=61 v=0
463320 On ch=4 n=43 v=100
463320 On ch=4 n=97 v=100
463320 On ch=4 n=85 v=100
463320 On ch=4 n=73 v=100
463440 On ch=4 n=43 v=0
463440 On ch=4 n=97 v=0
463440 On ch=4 n=85 v=0
463440 On ch=4 n=73 v=0
463680 On ch=4 n=50 v=100
463680 On ch=4 n=100 v=100
463680 On ch=4 n=88 v=100
463680 On ch=4 n=75 v=100
463680 On ch=4 n=62 v=100
463800 On ch=4 n=100 v=0
463800 On ch=4 n=88 v=0
463800 On ch=4 n=75 v=0
463800 On ch=4 n=62 v=0
463920 On ch=4 n=100 v=100
463920 On ch=4 n=88 v=100
463920 On ch=4 n=75 v=100
464040 On ch=4 n=50 v=0
464040 On ch=4 n=100 v=0
464040 On ch=4 n=88 v=0
464040 On ch=4 n=75 v=0
464160 On ch=4 n=48 v=100
464160 On ch=4 n=99 v=100
464160 On ch=4 n=87 v=100
464160 On ch=4 n=75 v=100
464280 On ch=4 n=48 v=0
464280 On ch=4 n=99 v=0
464280 On ch=4 n=87 v=0
464280 On ch=4 n=75 v=0
464280 On ch=4 n=50 v=100
464280 On ch=4 n=100 v=100
464280 On ch=4 n=88 v=100
464400 On ch=4 n=100 v=0
464400 On ch=4 n=88 v=0
464400 On ch=4 n=100 v=100
464400 On ch=4 n=75 v=100
464520 On ch=4 n=100 v=0
464520 On ch=4 n=75 v=0
464640 On ch=4 n=100 v=100
464640 On ch=4 n=88 v=100
464640 On ch=4 n=75 v=100
464640 On ch=4 n=62 v=100
464760 On ch=4 n=100 v=0
464760 On ch=4 n=88 v=0
464760 On ch=4 n=75 v=0
464760 On ch=4 n=62 v=0
464880 On ch=4 n=100 v=100
464880 On ch=4 n=88 v=100
464880 On ch=4 n=75 v=100
465000 On ch=4 n=50 v=0
465000 On ch=4 n=100 v=0
465000 On ch=4 n=88 v=0
465000 On ch=4 n=75 v=0
465120 On ch=4 n=48 v=100
465120 On ch=4 n=99 v=100
465120 On ch=4 n=87 v=100
465120 On ch=4 n=75 v=100
465240 On ch=4 n=48 v=0
465240 On ch=4 n=99 v=0
465240 On ch=4 n=87 v=0
465240 On ch=4 n=75 v=0
465240 On ch=4 n=50 v=100
465240 On ch=4 n=100 v=100
465240 On ch=4 n=88 v=100
465360 On ch=4 n=100 v=0
465360 On ch=4 n=88 v=0
465360 On ch=4 n=100 v=100
465360 On ch=4 n=75 v=100
465480 On ch=4 n=100 v=0
465480 On ch=4 n=75 v=0
465600 On ch=4 n=100 v=100
465600 On ch=4 n=88 v=100
465600 On ch=4 n=75 v=100
465600 On ch=4 n=62 v=100
465720 On ch=4 n=100 v=0
465720 On ch=4 n=88 v=0
465720 On ch=4 n=75 v=0
465720 On ch=4 n=62 v=0
465840 On ch=4 n=100 v=100
465840 On ch=4 n=88 v=100
465840 On ch=4 n=75 v=100
465960 On ch=4 n=50 v=0
465960 On ch=4 n=100 v=0
465960 On ch=4 n=88 v=0
465960 On ch=4 n=75 v=0
466080 On ch=4 n=48 v=100
466080 On ch=4 n=98 v=100
466080 On ch=4 n=86 v=100
466080 On ch=4 n=73 v=100
466200 On ch=4 n=98 v=0
466200 On ch=4 n=86 v=0
466200 On ch=4 n=73 v=0
466320 On ch=4 n=98 v=100
466320 On ch=4 n=86 v=100
466320 On ch=4 n=73 v=100
466440 On ch=4 n=48 v=0
466440 On ch=4 n=98 v=0
466440 On ch=4 n=86 v=0
466440 On ch=4 n=73 v=0
466560 On ch=4 n=51 v=100
466560 On ch=4 n=99 v=100
466560 On ch=4 n=87 v=100
466560 On ch=4 n=74 v=100
466560 On ch=4 n=61 v=100
466680 On ch=4 n=51 v=0
466680 On ch=4 n=99 v=0
466680 On ch=4 n=87 v=0
466680 On ch=4 n=74 v=0
466680 On ch=4 n=61 v=0
466680 On ch=4 n=48 v=100
466680 On ch=4 n=98 v=100
466800 On ch=4 n=48 v=0
466800 On ch=4 n=98 v=0
466800 On ch=4 n=51 v=100
466800 On ch=4 n=99 v=100
466800 On ch=4 n=87 v=100
466800 On ch=4 n=74 v=100
466920 On ch=4 n=99 v=0
466920 On ch=4 n=87 v=0
466920 On ch=4 n=74 v=0
467040 On ch=4 n=99 v=100
467160 On ch=4 n=51 v=0
467160 On ch=4 n=99 v=0
467160 On ch=4 n=53 v=100
467160 On ch=4 n=100 v=100
467160 On ch=4 n=88 v=100
467160 On ch=4 n=75 v=100
467280 On ch=4 n=53 v=0
467280 On ch=4 n=100 v=0
467280 On ch=4 n=88 v=0
467280 On ch=4 n=75 v=0
467520 On ch=4 n=50 v=100
467520 On ch=4 n=100 v=100
467520 On ch=4 n=88 v=100
467520 On ch=4 n=75 v=100
467520 On ch=4 n=62 v=100
467640 On ch=4 n=100 v=0
467640 On ch=4 n=88 v=0
467640 On ch=4 n=75 v=0
467640 On ch=4 n=62 v=0
467760 On ch=4 n=100 v=100
467760 On ch=4 n=88 v=100
467760 On ch=4 n=75 v=100
467880 On ch=4 n=50 v=0
467880 On ch=4 n=100 v=0
467880 On ch=4 n=88 v=0
467880 On ch=4 n=75 v=0
468000 On ch=4 n=48 v=100
468000 On ch=4 n=99 v=100
468000 On ch=4 n=87 v=100
468120 On ch=4 n=48 v=0
468120 On ch=4 n=99 v=0
468120 On ch=4 n=87 v=0
468120 On ch=4 n=50 v=100
468120 On ch=4 n=100 v=100
468120 On ch=4 n=88 v=100
468120 On ch=4 n=75 v=100
468240 On ch=4 n=100 v=0
468240 On ch=4 n=88 v=0
468240 On ch=4 n=75 v=0
468240 On ch=4 n=100 v=100
468360 On ch=4 n=50 v=0
468360 On ch=4 n=100 v=0
468360 On ch=4 n=48 v=100
468360 On ch=4 n=99 v=100
468480 On ch=4 n=48 v=0
468480 On ch=4 n=99 v=0
468480 On ch=4 n=50 v=100
468480 On ch=4 n=100 v=100
468480 On ch=4 n=88 v=100
468480 On ch=4 n=75 v=100
468480 On ch=4 n=62 v=100
468600 On ch=4 n=100 v=0
468600 On ch=4 n=88 v=0
468600 On ch=4 n=75 v=0
468600 On ch=4 n=62 v=0
468720 On ch=4 n=100 v=100
468720 On ch=4 n=88 v=100
468720 On ch=4 n=75 v=100
468840 On ch=4 n=100 v=0
468840 On ch=4 n=88 v=0
468840 On ch=4 n=75 v=0
468960 On ch=4 n=100 v=100
468960 On ch=4 n=88 v=100
468960 On ch=4 n=75 v=100
469080 On ch=4 n=50 v=0
469080 On ch=4 n=100 v=0
469080 On ch=4 n=88 v=0
469080 On ch=4 n=75 v=0
469080 On ch=4 n=48 v=100
469080 On ch=4 n=99 v=100
469200 On ch=4 n=48 v=0
469200 On ch=4 n=99 v=0
469200 On ch=4 n=45 v=100
469200 On ch=4 n=98 v=100
469200 On ch=4 n=86 v=100
469200 On ch=4 n=74 v=100
469320 On ch=4 n=45 v=0
469320 On ch=4 n=98 v=0
469320 On ch=4 n=86 v=0
469320 On ch=4 n=74 v=0
469440 On ch=4 n=50 v=100
469440 On ch=4 n=100 v=100
469440 On ch=4 n=88 v=100
469440 On ch=4 n=75 v=100
469440 On ch=4 n=62 v=100
469560 On ch=4 n=100 v=0
469560 On ch=4 n=88 v=0
469560 On ch=4 n=75 v=0
469560 On ch=4 n=62 v=0
469680 On ch=4 n=100 v=100
469680 On ch=4 n=88 v=100
469680 On ch=4 n=75 v=100
469800 On ch=4 n=100 v=0
469800 On ch=4 n=88 v=0
469800 On ch=4 n=75 v=0
469920 On ch=4 n=100 v=100
469920 On ch=4 n=88 v=100
469920 On ch=4 n=75 v=100
470040 On ch=4 n=50 v=0
470040 On ch=4 n=100 v=0
470040 On ch=4 n=88 v=0
470040 On ch=4 n=75 v=0
470040 On ch=4 n=48 v=100
470040 On ch=4 n=99 v=100
470160 On ch=4 n=48 v=0
470160 On ch=4 n=99 v=0
470160 On ch=4 n=45 v=100
470160 On ch=4 n=98 v=100
470160 On ch=4 n=86 v=100
470160 On ch=4 n=74 v=100
470280 On ch=4 n=45 v=0
470280 On ch=4 n=98 v=0
470280 On ch=4 n=86 v=0
470280 On ch=4 n=74 v=0
470400 On ch=4 n=48 v=100
470400 On ch=4 n=100 v=100
470400 On ch=4 n=88 v=100
470400 On ch=4 n=75 v=100
470400 On ch=4 n=62 v=100
470520 On ch=4 n=48 v=0
470520 On ch=4 n=100 v=0
470520 On ch=4 n=88 v=0
470520 On ch=4 n=75 v=0
470520 On ch=4 n=62 v=0
470640 On ch=4 n=46 v=100
470640 On ch=4 n=99 v=100
470640 On ch=4 n=87 v=100
470640 On ch=4 n=75 v=100
470760 On ch=4 n=46 v=0
470760 On ch=4 n=99 v=0
470760 On ch=4 n=87 v=0
470760 On ch=4 n=75 v=0
470880 On ch=4 n=44 v=100
470880 On ch=4 n=98 v=100
470880 On ch=4 n=86 v=100
470880 On ch=4 n=74 v=100
471000 On ch=4 n=44 v=0
471000 On ch=4 n=98 v=0
471000 On ch=4 n=86 v=0
471000 On ch=4 n=74 v=0
471120 On ch=4 n=41 v=100
471120 On ch=4 n=97 v=100
471120 On ch=4 n=85 v=100
471120 On ch=4 n=73 v=100
471240 On ch=4 n=41 v=0
471240 On ch=4 n=97 v=0
471240 On ch=4 n=85 v=0
471240 On ch=4 n=73 v=0
471360 On ch=4 n=40 v=100
471360 On ch=4 n=96 v=100
471360 On ch=4 n=84 v=100
471360 On ch=4 n=72 v=100
471360 On ch=4 n=60 v=100
471480 On ch=4 n=72 v=0
471480 On ch=4 n=60 v=0
471720 On ch=4 n=96 v=0
471720 On ch=4 n=84 v=0
471840 On ch=4 n=96 v=100
471840 On ch=4 n=84 v=100
471840 On ch=4 n=72 v=100
471840 On ch=4 n=60 v=100
471960 On ch=4 n=96 v=0
471960 On ch=4 n=84 v=0
471960 On ch=4 n=72 v=0
471960 On ch=4 n=60 v=0
472080 On ch=4 n=120 v=100
472080 On ch=4 n=121 v=100
472080 On ch=4 n=122 v=100
472080 On ch=4 n=123 v=100
472080 On ch=4 n=124 v=100
472560 On ch=4 n=99 v=100
472680 On ch=4 n=99 v=0
472800 On ch=4 n=96 v=100
472920 On ch=4 n=96 v=0
473040 On ch=4 n=99 v=100
473160 On ch=4 n=99 v=0
473200 On ch=4 n=96 v=100
473280 On ch=4 n=96 v=0
473360 On ch=4 n=96 v=100
473440 On ch=4 n=96 v=0
473520 On ch=4 n=99 v=100
473640 On ch=4 n=99 v=0
473680 On ch=4 n=96 v=100
473760 On ch=4 n=96 v=0
473840 On ch=4 n=96 v=100
473920 On ch=4 n=96 v=0
474000 On ch=4 n=99 v=100
474120 On ch=4 n=99 v=0
474160 On ch=4 n=96 v=100
474240 On ch=4 n=96 v=0
474320 On ch=4 n=96 v=100
474400 On ch=4 n=96 v=0
474480 On ch=4 n=99 v=100
474600 On ch=4 n=99 v=0
474640 On ch=4 n=96 v=100
474720 On ch=4 n=96 v=0
474800 On ch=4 n=96 v=100
474880 On ch=4 n=96 v=0
474960 On ch=4 n=99 v=100
475080 On ch=4 n=99 v=0
475200 On ch=4 n=99 v=100
475320 On ch=4 n=99 v=0
475360 On ch=4 n=96 v=100
475480 On ch=4 n=96 v=0
475520 On ch=4 n=99 v=100
475640 On ch=4 n=99 v=0
475680 On ch=4 n=96 v=100
475800 On ch=4 n=96 v=0
475840 On ch=4 n=99 v=100
475960 On ch=4 n=99 v=0
476000 On ch=4 n=96 v=100
476120 On ch=4 n=96 v=0
476160 On ch=4 n=99 v=100
476280 On ch=4 n=99 v=0
476320 On ch=4 n=96 v=100
476440 On ch=4 n=96 v=0
476480 On ch=4 n=99 v=100
476600 On ch=4 n=99 v=0
476640 On ch=4 n=96 v=100
476760 On ch=4 n=96 v=0
476800 On ch=4 n=99 v=100
476920 On ch=4 n=99 v=0
476960 On ch=4 n=96 v=100
477080 On ch=4 n=96 v=0
477120 On ch=4 n=99 v=100
477240 On ch=4 n=99 v=0
477280 On ch=4 n=96 v=100
477400 On ch=4 n=96 v=0
477440 On ch=4 n=99 v=100
477560 On ch=4 n=99 v=0
477600 On ch=4 n=96 v=100
477720 On ch=4 n=96 v=0
477760 On ch=4 n=99 v=100
477880 On ch=4 n=99 v=0
477920 On ch=4 n=96 v=100
478040 On ch=4 n=96 v=0
478080 On ch=4 n=99 v=100
478200 On ch=4 n=99 v=0
478240 On ch=4 n=96 v=100
478360 On ch=4 n=96 v=0
478400 On ch=4 n=99 v=100
478520 On ch=4 n=99 v=0
478560 On ch=4 n=96 v=100
478680 On ch=4 n=96 v=0
478720 On ch=4 n=99 v=100
478840 On ch=4 n=99 v=0
478880 On ch=4 n=96 v=100
479000 On ch=4 n=96 v=0
479040 On ch=4 n=99 v=100
479160 On ch=4 n=99 v=0
479200 On ch=4 n=96 v=100
479320 On ch=4 n=96 v=0
479360 On ch=4 n=99 v=100
479480 On ch=4 n=99 v=0
479520 On ch=4 n=96 v=100
479640 On ch=4 n=96 v=0
479680 On ch=4 n=99 v=100
479800 On ch=4 n=99 v=0
479840 On ch=4 n=96 v=100
479960 On ch=4 n=96 v=0
480000 On ch=4 n=99 v=100
480120 On ch=4 n=99 v=0
480160 On ch=4 n=96 v=100
480280 On ch=4 n=96 v=0
480320 On ch=4 n=99 v=100
480440 On ch=4 n=99 v=0
480480 On ch=4 n=96 v=100
480600 On ch=4 n=96 v=0
480640 On ch=4 n=99 v=100
480760 On ch=4 n=99 v=0
480800 On ch=4 n=96 v=100
480920 On ch=4 n=96 v=0
480960 On ch=4 n=99 v=100
481080 On ch=4 n=99 v=0
481120 On ch=4 n=96 v=100
481240 On ch=4 n=96 v=0
481280 On ch=4 n=99 v=100
481400 On ch=4 n=99 v=0
481440 On ch=4 n=96 v=100
481560 On ch=4 n=96 v=0
481600 On ch=4 n=99 v=100
481720 On ch=4 n=99 v=0
481760 On ch=4 n=96 v=100
481880 On ch=4 n=96 v=0
481920 On ch=4 n=99 v=100
482040 On ch=4 n=99 v=0
482080 On ch=4 n=96 v=100
482200 On ch=4 n=96 v=0
482240 On ch=4 n=99 v=100
482360 On ch=4 n=99 v=0
482400 On ch=4 n=96 v=100
482520 On ch=4 n=96 v=0
482560 On ch=4 n=99 v=100
482680 On ch=4 n=99 v=0
482720 On ch=4 n=96 v=100
482840 On ch=4 n=96 v=0
482880 On ch=4 n=99 v=100
483000 On ch=4 n=99 v=0
483040 On ch=4 n=96 v=100
483160 On ch=4 n=96 v=0
483200 On ch=4 n=99 v=100
483320 On ch=4 n=99 v=0
483360 On ch=4 n=96 v=100
483480 On ch=4 n=96 v=0
483520 On ch=4 n=99 v=100
483640 On ch=4 n=99 v=0
483680 On ch=4 n=96 v=100
483800 On ch=4 n=96 v=0
483840 On ch=4 n=99 v=100
483960 On ch=4 n=99 v=0
484000 On ch=4 n=96 v=100
484120 On ch=4 n=96 v=0
484160 On ch=4 n=99 v=100
484280 On ch=4 n=99 v=0
484320 On ch=4 n=40 v=0
484320 On ch=4 n=96 v=100
484440 On ch=4 n=96 v=0
484640 On ch=4 n=98 v=100
484800 On ch=4 n=47 v=100
485720 On ch=4 n=98 v=0
485760 On ch=4 n=96 v=100
485880 On ch=4 n=96 v=0
485920 On ch=4 n=96 v=100
486040 On ch=4 n=96 v=0
486080 On ch=4 n=96 v=100
486200 On ch=4 n=96 v=0
486240 On ch=4 n=99 v=100
486360 On ch=4 n=99 v=0
486400 On ch=4 n=96 v=100
486520 On ch=4 n=96 v=0
486560 On ch=4 n=99 v=100
486680 On ch=4 n=99 v=0
486720 On ch=4 n=96 v=100
486840 On ch=4 n=96 v=0
486880 On ch=4 n=99 v=100
487000 On ch=4 n=99 v=0
487040 On ch=4 n=96 v=100
487160 On ch=4 n=96 v=0
487200 On ch=4 n=99 v=100
487320 On ch=4 n=47 v=0
487320 On ch=4 n=99 v=0
487360 On ch=4 n=96 v=100
487480 On ch=4 n=96 v=0
487520 On ch=4 n=100 v=100
487640 On ch=4 n=100 v=0
487680 On ch=4 n=96 v=100
487680 On ch=4 n=52 v=100
487800 On ch=4 n=96 v=0
487840 On ch=4 n=100 v=100
487960 On ch=4 n=100 v=0
488000 On ch=4 n=96 v=100
488120 On ch=4 n=96 v=0
488160 On ch=4 n=100 v=100
488280 On ch=4 n=100 v=0
488320 On ch=4 n=96 v=100
488440 On ch=4 n=96 v=0
488480 On ch=4 n=100 v=100
488600 On ch=4 n=100 v=0
488640 On ch=4 n=96 v=100
488760 On ch=4 n=96 v=0
488800 On ch=4 n=100 v=100
488920 On ch=4 n=100 v=0
488960 On ch=4 n=96 v=100
489080 On ch=4 n=96 v=0
489120 On ch=4 n=100 v=100
489240 On ch=4 n=100 v=0
489280 On ch=4 n=96 v=100
489400 On ch=4 n=96 v=0
489440 On ch=4 n=100 v=100
489560 On ch=4 n=100 v=0
489600 On ch=4 n=96 v=100
489720 On ch=4 n=96 v=0
489760 On ch=4 n=100 v=100
489880 On ch=4 n=100 v=0
489920 On ch=4 n=96 v=100
490040 On ch=4 n=96 v=0
490080 On ch=4 n=100 v=100
490200 On ch=4 n=100 v=0
490240 On ch=4 n=96 v=100
490360 On ch=4 n=96 v=0
490400 On ch=4 n=100 v=100
490520 On ch=4 n=100 v=0
490560 On ch=4 n=96 v=100
490680 On ch=4 n=96 v=0
490720 On ch=4 n=100 v=100
490840 On ch=4 n=100 v=0
490880 On ch=4 n=96 v=100
491000 On ch=4 n=96 v=0
491040 On ch=4 n=100 v=100
491160 On ch=4 n=100 v=0
491200 On ch=4 n=96 v=100
491320 On ch=4 n=96 v=0
491360 On ch=4 n=100 v=100
491640 On ch=4 n=52 v=0
491840 On ch=4 n=42 v=100
491960 On ch=4 n=100 v=0
491960 On ch=4 n=42 v=0
492000 On ch=4 n=96 v=100
492480 On ch=4 n=96 v=0
492480 On ch=4 n=100 v=100
492800 On ch=4 n=52 v=100
493800 On ch=4 n=100 v=0
493800 On ch=4 n=52 v=0
493920 On ch=4 n=120 v=0
493920 On ch=4 n=121 v=0
493920 On ch=4 n=122 v=0
493920 On ch=4 n=123 v=0
493920 On ch=4 n=124 v=0
494400 On ch=4 n=99 v=100
494400 On ch=4 n=87 v=100
494400 On ch=4 n=75 v=100
494400 On ch=4 n=62 v=100
494400 On ch=4 n=47 v=100
494520 On ch=4 n=47 v=0
494640 On ch=4 n=99 v=0
494640 On ch=4 n=87 v=0
494640 On ch=4 n=75 v=0
494640 On ch=4 n=62 v=0
494880 Meta Text "[idle_realtime]"
495040 On ch=4 n=40 v=100
495120 On ch=4 n=105 v=0
495120 On ch=4 n=106 v=0
495440 On ch=4 n=40 v=0
495440 Meta TrkEnd
TrkEnd
MTrk
0 Meta TrkName "PART GUITAR"
1500 On ch=5 n=40 v=100
17280 On ch=5 n=40 v=0
18360 On ch=5 n=46 v=100
18720 On ch=5 n=106 v=100
18720 On ch=5 n=105 v=100
19200 Meta Text "[play]"
19200 On ch=5 n=61 v=100
19200 On ch=5 n=73 v=100
19200 On ch=5 n=74 v=100
19200 On ch=5 n=85 v=100
19200 On ch=5 n=87 v=100
19200 On ch=5 n=97 v=100
19200 On ch=5 n=99 v=100
19200 On ch=5 n=60 v=100
19316 On ch=5 n=61 v=0
19316 On ch=5 n=73 v=0
19316 On ch=5 n=74 v=0
19316 On ch=5 n=85 v=0
19316 On ch=5 n=87 v=0
19316 On ch=5 n=97 v=0
19316 On ch=5 n=99 v=0
19316 On ch=5 n=60 v=0
21120 On ch=5 n=61 v=100
21120 On ch=5 n=73 v=100
21120 On ch=5 n=74 v=100
21120 On ch=5 n=85 v=100
21120 On ch=5 n=87 v=100
21120 On ch=5 n=97 v=100
21120 On ch=5 n=99 v=100
21120 On ch=5 n=60 v=100
21236 On ch=5 n=61 v=0
21236 On ch=5 n=73 v=0
21236 On ch=5 n=74 v=0
21236 On ch=5 n=85 v=0
21236 On ch=5 n=87 v=0
21236 On ch=5 n=97 v=0
21236 On ch=5 n=99 v=0
21236 On ch=5 n=60 v=0
23040 Meta Text "[mellow]"
23040 On ch=5 n=61 v=100
23040 On ch=5 n=73 v=100
23040 On ch=5 n=74 v=100
23040 On ch=5 n=85 v=100
23040 On ch=5 n=87 v=100
23040 On ch=5 n=97 v=100
23040 On ch=5 n=99 v=100
23040 On ch=5 n=116 v=100
23040 On ch=5 n=60 v=100
23160 On ch=5 n=116 v=0
30720 Meta Text "[idle_realtime]"
31196 On ch=5 n=61 v=0
31196 On ch=5 n=73 v=0
31196 On ch=5 n=74 v=0
31196 On ch=5 n=85 v=0
31196 On ch=5 n=87 v=0
31196 On ch=5 n=97 v=0
31196 On ch=5 n=99 v=0
31196 On ch=5 n=60 v=0
32160 On ch=5 n=106 v=0
32160 On ch=5 n=105 v=0
38400 Meta Text "[idle]"
45116 On ch=5 n=46 v=0
45600 On ch=5 n=106 v=100
45600 On ch=5 n=105 v=100
46080 Meta Text "[play]"
46080 On ch=5 n=46 v=100
46080 On ch=5 n=61 v=100
46080 On ch=5 n=73 v=100
46080 On ch=5 n=85 v=100
46080 On ch=5 n=87 v=100
46080 On ch=5 n=97 v=100
46080 On ch=5 n=99 v=100
46196 On ch=5 n=61 v=0
46196 On ch=5 n=73 v=0
46196 On ch=5 n=85 v=0
46196 On ch=5 n=87 v=0
46196 On ch=5 n=97 v=0
46196 On ch=5 n=99 v=0
46376 On ch=5 n=46 v=0
46560 On ch=5 n=48 v=100
46560 On ch=5 n=74 v=100
46560 On ch=5 n=86 v=100
46560 On ch=5 n=87 v=100
46560 On ch=5 n=98 v=100
46560 On ch=5 n=99 v=100
46676 On ch=5 n=74 v=0
46676 On ch=5 n=86 v=0
46676 On ch=5 n=87 v=0
46676 On ch=5 n=98 v=0
46676 On ch=5 n=99 v=0
46856 On ch=5 n=48 v=0
47040 On ch=5 n=49 v=100
47040 On ch=5 n=62 v=100
47040 On ch=5 n=75 v=100
47040 On ch=5 n=86 v=100
47040 On ch=5 n=88 v=100
47040 On ch=5 n=98 v=100
47040 On ch=5 n=100 v=100
47156 On ch=5 n=62 v=0
47156 On ch=5 n=75 v=0
47156 On ch=5 n=86 v=0
47156 On ch=5 n=88 v=0
47156 On ch=5 n=98 v=0
47156 On ch=5 n=100 v=0
47336 On ch=5 n=49 v=0
47520 On ch=5 n=48 v=100
47520 On ch=5 n=74 v=100
47520 On ch=5 n=86 v=100
47520 On ch=5 n=87 v=100
47520 On ch=5 n=98 v=100
47520 On ch=5 n=99 v=100
47636 On ch=5 n=74 v=0
47636 On ch=5 n=86 v=0
47636 On ch=5 n=87 v=0
47636 On ch=5 n=98 v=0
47636 On ch=5 n=99 v=0
47816 On ch=5 n=48 v=0
48000 On ch=5 n=46 v=100
48000 On ch=5 n=61 v=100
48000 On ch=5 n=74 v=100
48000 On ch=5 n=85 v=100
48000 On ch=5 n=87 v=100
48000 On ch=5 n=97 v=100
48000 On ch=5 n=99 v=100
48115 On ch=5 n=61 v=0
48115 On ch=5 n=74 v=0
48115 On ch=5 n=85 v=0
48115 On ch=5 n=87 v=0
48115 On ch=5 n=97 v=0
48115 On ch=5 n=99 v=0
48295 On ch=5 n=46 v=0
48480 On ch=5 n=44 v=100
48480 On ch=5 n=73 v=100
48480 On ch=5 n=85 v=100
48480 On ch=5 n=86 v=100
48480 On ch=5 n=97 v=100
48480 On ch=5 n=98 v=100
48595 On ch=5 n=73 v=0
48595 On ch=5 n=85 v=0
48595 On ch=5 n=86 v=0
48595 On ch=5 n=97 v=0
48595 On ch=5 n=98 v=0
48775 On ch=5 n=44 v=0
48960 On ch=5 n=43 v=100
48960 On ch=5 n=60 v=100
48960 On ch=5 n=73 v=100
48960 On ch=5 n=84 v=100
48960 On ch=5 n=86 v=100
48960 On ch=5 n=96 v=100
48960 On ch=5 n=98 v=100
49075 On ch=5 n=60 v=0
49075 On ch=5 n=73 v=0
49075 On ch=5 n=84 v=0
49075 On ch=5 n=86 v=0
49075 On ch=5 n=96 v=0
49075 On ch=5 n=98 v=0
49255 On ch=5 n=43 v=0
49440 On ch=5 n=41 v=100
49440 On ch=5 n=72 v=100
49440 On ch=5 n=84 v=100
49440 On ch=5 n=85 v=100
49440 On ch=5 n=96 v=100
49440 On ch=5 n=97 v=100
49555 On ch=5 n=72 v=0
49555 On ch=5 n=84 v=0
49555 On ch=5 n=85 v=0
49555 On ch=5 n=96 v=0
49555 On ch=5 n=97 v=0
49735 On ch=5 n=41 v=0
49920 On ch=5 n=48 v=100
49920 On ch=5 n=62 v=100
49920 On ch=5 n=74 v=100
49920 On ch=5 n=86 v=100
49920 On ch=5 n=87 v=100
49920 On ch=5 n=98 v=100
49920 On ch=5 n=99 v=100
50036 On ch=5 n=62 v=0
50036 On ch=5 n=74 v=0
50036 On ch=5 n=86 v=0
50036 On ch=5 n=87 v=0
50036 On ch=5 n=98 v=0
50036 On ch=5 n=99 v=0
50216 On ch=5 n=48 v=0
50400 On ch=5 n=49 v=100
50400 On ch=5 n=75 v=100
50400 On ch=5 n=86 v=100
50400 On ch=5 n=88 v=100
50400 On ch=5 n=98 v=100
50400 On ch=5 n=100 v=100
50516 On ch=5 n=75 v=0
50516 On ch=5 n=86 v=0
50516 On ch=5 n=88 v=0
50516 On ch=5 n=98 v=0
50516 On ch=5 n=100 v=0
50696 On ch=5 n=49 v=0
50880 On ch=5 n=46 v=100
50880 On ch=5 n=61 v=100
50880 On ch=5 n=73 v=100
50880 On ch=5 n=85 v=100
50880 On ch=5 n=87 v=100
50880 On ch=5 n=97 v=100
50880 On ch=5 n=99 v=100
50996 On ch=5 n=61 v=0
50996 On ch=5 n=73 v=0
50996 On ch=5 n=85 v=0
50996 On ch=5 n=87 v=0
50996 On ch=5 n=97 v=0
50996 On ch=5 n=99 v=0
51176 On ch=5 n=46 v=0
51360 On ch=5 n=51 v=100
51360 On ch=5 n=74 v=100
51360 On ch=5 n=86 v=100
51360 On ch=5 n=88 v=100
51360 On ch=5 n=98 v=100
51360 On ch=5 n=100 v=100
51476 On ch=5 n=74 v=0
51476 On ch=5 n=86 v=0
51476 On ch=5 n=88 v=0
51476 On ch=5 n=98 v=0
51476 On ch=5 n=100 v=0
51656 On ch=5 n=51 v=0
51840 On ch=5 n=53 v=100
51840 On ch=5 n=62 v=100
51840 On ch=5 n=75 v=100
51840 On ch=5 n=87 v=100
51840 On ch=5 n=88 v=100
51840 On ch=5 n=99 v=100
51840 On ch=5 n=100 v=100
52680 On ch=5 n=75 v=0
52680 On ch=5 n=87 v=0
52680 On ch=5 n=88 v=0
52680 On ch=5 n=99 v=0
52680 On ch=5 n=100 v=0
52800 On ch=5 n=75 v=100
52800 On ch=5 n=88 v=100
52800 On ch=5 n=99 v=100
52800 On ch=5 n=100 v=100
52800 On ch=5 n=87 v=100
53276 On ch=5 n=62 v=0
53516 On ch=5 n=75 v=0
53516 On ch=5 n=88 v=0
53516 On ch=5 n=87 v=0
53576 On ch=5 n=53 v=0
53636 On ch=5 n=99 v=0
53636 On ch=5 n=100 v=0
53756 On ch=5 n=106 v=0
53760 On ch=5 n=46 v=100
53760 On ch=5 n=61 v=100
53760 On ch=5 n=73 v=100
53760 On ch=5 n=85 v=100
53760 On ch=5 n=87 v=100
53760 On ch=5 n=97 v=100
53760 On ch=5 n=99 v=100
53876 On ch=5 n=61 v=0
53876 On ch=5 n=73 v=0
53876 On ch=5 n=85 v=0
53876 On ch=5 n=87 v=0
53876 On ch=5 n=97 v=0
53876 On ch=5 n=99 v=0
54056 On ch=5 n=46 v=0
54240 On ch=5 n=48 v=100
54240 On ch=5 n=74 v=100
54240 On ch=5 n=86 v=100
54240 On ch=5 n=87 v=100
54240 On ch=5 n=98 v=100
54240 On ch=5 n=99 v=100
54356 On ch=5 n=74 v=0
54356 On ch=5 n=86 v=0
54356 On ch=5 n=87 v=0
54356 On ch=5 n=98 v=0
54356 On ch=5 n=99 v=0
54536 On ch=5 n=48 v=0
54720 On ch=5 n=46 v=100
54720 On ch=5 n=61 v=100
54720 On ch=5 n=73 v=100
54720 On ch=5 n=85 v=100
54720 On ch=5 n=87 v=100
54720 On ch=5 n=97 v=100
54720 On ch=5 n=99 v=100
54836 On ch=5 n=61 v=0
54836 On ch=5 n=73 v=0
54836 On ch=5 n=85 v=0
54836 On ch=5 n=87 v=0
54836 On ch=5 n=97 v=0
54836 On ch=5 n=99 v=0
55016 On ch=5 n=46 v=0
55200 On ch=5 n=48 v=100
55200 On ch=5 n=74 v=100
55200 On ch=5 n=86 v=100
55200 On ch=5 n=87 v=100
55200 On ch=5 n=98 v=100
55200 On ch=5 n=99 v=100
55316 On ch=5 n=74 v=0
55316 On ch=5 n=86 v=0
55316 On ch=5 n=87 v=0
55316 On ch=5 n=98 v=0
55316 On ch=5 n=99 v=0
55496 On ch=5 n=48 v=0
55680 On ch=5 n=49 v=100
55680 On ch=5 n=62 v=100
55680 On ch=5 n=75 v=100
55680 On ch=5 n=86 v=100
55680 On ch=5 n=88 v=100
55680 On ch=5 n=98 v=100
55680 On ch=5 n=100 v=100
55796 On ch=5 n=62 v=0
55796 On ch=5 n=75 v=0
55796 On ch=5 n=86 v=0
55796 On ch=5 n=88 v=0
55796 On ch=5 n=98 v=0
55796 On ch=5 n=100 v=0
55976 On ch=5 n=49 v=0
56160 On ch=5 n=44 v=100
56160 On ch=5 n=73 v=100
56160 On ch=5 n=85 v=100
56160 On ch=5 n=86 v=100
56160 On ch=5 n=97 v=100
56160 On ch=5 n=98 v=100
56276 On ch=5 n=73 v=0
56276 On ch=5 n=85 v=0
56276 On ch=5 n=86 v=0
56276 On ch=5 n=97 v=0
56276 On ch=5 n=98 v=0
56456 On ch=5 n=44 v=0
56640 On ch=5 n=49 v=100
56640 On ch=5 n=62 v=100
56640 On ch=5 n=75 v=100
56640 On ch=5 n=86 v=100
56640 On ch=5 n=88 v=100
56640 On ch=5 n=98 v=100
56640 On ch=5 n=100 v=100
56756 On ch=5 n=62 v=0
56756 On ch=5 n=75 v=0
56756 On ch=5 n=86 v=0
56756 On ch=5 n=88 v=0
56756 On ch=5 n=98 v=0
56756 On ch=5 n=100 v=0
56936 On ch=5 n=49 v=0
57120 On ch=5 n=44 v=100
57120 On ch=5 n=73 v=100
57120 On ch=5 n=85 v=100
57120 On ch=5 n=86 v=100
57120 On ch=5 n=97 v=100
57120 On ch=5 n=98 v=100
57236 On ch=5 n=73 v=0
57236 On ch=5 n=85 v=0
57236 On ch=5 n=86 v=0
57236 On ch=5 n=97 v=0
57236 On ch=5 n=98 v=0
57416 On ch=5 n=44 v=0
57596 On ch=5 n=105 v=0
57600 On ch=5 n=49 v=100
57600 On ch=5 n=62 v=100
57600 On ch=5 n=75 v=100
57600 On ch=5 n=86 v=100
57600 On ch=5 n=88 v=100
57600 On ch=5 n=98 v=100
57600 On ch=5 n=100 v=100
57600 On ch=5 n=106 v=100
57715 On ch=5 n=62 v=0
57715 On ch=5 n=75 v=0
57715 On ch=5 n=86 v=0
57715 On ch=5 n=88 v=0
57715 On ch=5 n=98 v=0
57715 On ch=5 n=100 v=0
57895 On ch=5 n=49 v=0
58080 On ch=5 n=44 v=100
58080 On ch=5 n=73 v=100
58080 On ch=5 n=85 v=100
58080 On ch=5 n=86 v=100
58080 On ch=5 n=97 v=100
58080 On ch=5 n=98 v=100
58195 On ch=5 n=73 v=0
58195 On ch=5 n=85 v=0
58195 On ch=5 n=86 v=0
58195 On ch=5 n=97 v=0
58195 On ch=5 n=98 v=0
58375 On ch=5 n=44 v=0
58560 On ch=5 n=46 v=100
58560 On ch=5 n=61 v=100
58560 On ch=5 n=74 v=100
58560 On ch=5 n=85 v=100
58560 On ch=5 n=87 v=100
58560 On ch=5 n=97 v=100
58560 On ch=5 n=99 v=100
58675 On ch=5 n=61 v=0
58675 On ch=5 n=74 v=0
58675 On ch=5 n=85 v=0
58675 On ch=5 n=87 v=0
58675 On ch=5 n=97 v=0
58675 On ch=5 n=99 v=0
58855 On ch=5 n=46 v=0
59040 On ch=5 n=41 v=100
59040 On ch=5 n=72 v=100
59040 On ch=5 n=84 v=100
59040 On ch=5 n=85 v=100
59040 On ch=5 n=96 v=100
59040 On ch=5 n=97 v=100
59155 On ch=5 n=72 v=0
59155 On ch=5 n=84 v=0
59155 On ch=5 n=85 v=0
59155 On ch=5 n=96 v=0
59155 On ch=5 n=97 v=0
59335 On ch=5 n=41 v=0
59520 On ch=5 n=42 v=100
59520 On ch=5 n=60 v=100
59520 On ch=5 n=73 v=100
59520 On ch=5 n=84 v=100
59520 On ch=5 n=86 v=100
59520 On ch=5 n=96 v=100
59520 On ch=5 n=98 v=100
59636 On ch=5 n=60 v=0
59636 On ch=5 n=73 v=0
59636 On ch=5 n=84 v=0
59636 On ch=5 n=86 v=0
59636 On ch=5 n=96 v=0
59636 On ch=5 n=98 v=0
59816 On ch=5 n=42 v=0
60000 On ch=5 n=49 v=100
60000 On ch=5 n=73 v=100
60000 On ch=5 n=85 v=100
60000 On ch=5 n=86 v=100
60000 On ch=5 n=97 v=100
60000 On ch=5 n=98 v=100
60116 On ch=5 n=73 v=0
60116 On ch=5 n=85 v=0
60116 On ch=5 n=86 v=0
60116 On ch=5 n=97 v=0
60116 On ch=5 n=98 v=0
60296 On ch=5 n=49 v=0
60480 On ch=5 n=51 v=100
60480 On ch=5 n=61 v=100
60480 On ch=5 n=74 v=100
60480 On ch=5 n=86 v=100
60480 On ch=5 n=88 v=100
60480 On ch=5 n=98 v=100
60480 On ch=5 n=100 v=100
60596 On ch=5 n=61 v=0
60596 On ch=5 n=74 v=0
60596 On ch=5 n=86 v=0
60596 On ch=5 n=88 v=0
60596 On ch=5 n=98 v=0
60596 On ch=5 n=100 v=0
60776 On ch=5 n=51 v=0
60960 On ch=5 n=53 v=100
60960 On ch=5 n=75 v=100
60960 On ch=5 n=87 v=100
60960 On ch=5 n=88 v=100
60960 On ch=5 n=99 v=100
60960 On ch=5 n=100 v=100
61076 On ch=5 n=75 v=0
61076 On ch=5 n=87 v=0
61076 On ch=5 n=88 v=0
61076 On ch=5 n=99 v=0
61076 On ch=5 n=100 v=0
61256 On ch=5 n=53 v=0
61440 On ch=5 n=46 v=100
61440 On ch=5 n=61 v=100
61440 On ch=5 n=74 v=100
61440 On ch=5 n=85 v=100
61440 On ch=5 n=87 v=100
61440 On ch=5 n=97 v=100
61440 On ch=5 n=99 v=100
62636 On ch=5 n=61 v=0
62636 On ch=5 n=74 v=0
62636 On ch=5 n=85 v=0
62636 On ch=5 n=87 v=0
62696 On ch=5 n=46 v=0
62756 On ch=5 n=97 v=0
62756 On ch=5 n=99 v=0
62880 On ch=5 n=44 v=100
62880 On ch=5 n=73 v=100
62880 On ch=5 n=85 v=100
62880 On ch=5 n=86 v=100
62880 On ch=5 n=97 v=100
62880 On ch=5 n=98 v=100
62880 On ch=5 n=105 v=100
62996 On ch=5 n=73 v=0
62996 On ch=5 n=85 v=0
62996 On ch=5 n=86 v=0
62996 On ch=5 n=97 v=0
62996 On ch=5 n=98 v=0
63176 On ch=5 n=44 v=0
63360 On ch=5 n=49 v=100
63360 On ch=5 n=62 v=100
63360 On ch=5 n=75 v=100
63360 On ch=5 n=86 v=100
63360 On ch=5 n=88 v=100
63360 On ch=5 n=98 v=100
63360 On ch=5 n=100 v=100
64556 On ch=5 n=62 v=0
64556 On ch=5 n=75 v=0
64556 On ch=5 n=86 v=0
64556 On ch=5 n=88 v=0
64616 On ch=5 n=49 v=0
64676 On ch=5 n=98 v=0
64676 On ch=5 n=100 v=0
64800 On ch=5 n=44 v=100
64800 On ch=5 n=73 v=100
64800 On ch=5 n=85 v=100
64800 On ch=5 n=86 v=100
64800 On ch=5 n=97 v=100
64800 On ch=5 n=98 v=100
64800 On ch=5 n=116 v=100
64916 On ch=5 n=73 v=0
64916 On ch=5 n=85 v=0
64916 On ch=5 n=86 v=0
64916 On ch=5 n=97 v=0
64916 On ch=5 n=98 v=0
65096 On ch=5 n=44 v=0
65280 On ch=5 n=46 v=100
65280 On ch=5 n=61 v=100
65280 On ch=5 n=74 v=100
65280 On ch=5 n=85 v=100
65280 On ch=5 n=87 v=100
65280 On ch=5 n=97 v=100
65280 On ch=5 n=99 v=100
66476 On ch=5 n=61 v=0
66476 On ch=5 n=74 v=0
66476 On ch=5 n=85 v=0
66476 On ch=5 n=87 v=0
66536 On ch=5 n=46 v=0
66596 On ch=5 n=97 v=0
66596 On ch=5 n=99 v=0
66720 On ch=5 n=44 v=100
66720 On ch=5 n=73 v=100
66720 On ch=5 n=85 v=100
66720 On ch=5 n=86 v=100
66720 On ch=5 n=97 v=100
66720 On ch=5 n=98 v=100
66836 On ch=5 n=73 v=0
66836 On ch=5 n=85 v=0
66836 On ch=5 n=86 v=0
66836 On ch=5 n=97 v=0
66836 On ch=5 n=98 v=0
67016 On ch=5 n=44 v=0
67200 On ch=5 n=49 v=100
67200 On ch=5 n=62 v=100
67200 On ch=5 n=75 v=100
67200 On ch=5 n=86 v=100
67200 On ch=5 n=88 v=100
67200 On ch=5 n=98 v=100
67200 On ch=5 n=100 v=100
68396 On ch=5 n=62 v=0
68396 On ch=5 n=75 v=0
68396 On ch=5 n=86 v=0
68396 On ch=5 n=88 v=0
68456 On ch=5 n=49 v=0
68516 On ch=5 n=98 v=0
68516 On ch=5 n=100 v=0
68520 On ch=5 n=106 v=0
68520 On ch=5 n=116 v=0
68640 On ch=5 n=44 v=100
68640 On ch=5 n=73 v=100
68640 On ch=5 n=85 v=100
68640 On ch=5 n=86 v=100
68640 On ch=5 n=97 v=100
68640 On ch=5 n=98 v=100
68756 On ch=5 n=73 v=0
68756 On ch=5 n=85 v=0
68756 On ch=5 n=86 v=0
68756 On ch=5 n=97 v=0
68756 On ch=5 n=98 v=0
68936 On ch=5 n=44 v=0
69120 On ch=5 n=46 v=100
69120 On ch=5 n=61 v=100
69120 On ch=5 n=74 v=100
69120 On ch=5 n=85 v=100
69120 On ch=5 n=87 v=100
69120 On ch=5 n=97 v=100
69120 On ch=5 n=99 v=100
69236 On ch=5 n=61 v=0
69236 On ch=5 n=74 v=0
69236 On ch=5 n=85 v=0
69236 On ch=5 n=87 v=0
69236 On ch=5 n=97 v=0
69236 On ch=5 n=99 v=0
69416 On ch=5 n=46 v=0
69600 On ch=5 n=44 v=100
69600 On ch=5 n=73 v=100
69600 On ch=5 n=85 v=100
69600 On ch=5 n=86 v=100
69600 On ch=5 n=97 v=100
69600 On ch=5 n=98 v=100
69716 On ch=5 n=73 v=0
69716 On ch=5 n=85 v=0
69716 On ch=5 n=86 v=0
69716 On ch=5 n=97 v=0
69716 On ch=5 n=98 v=0
69896 On ch=5 n=44 v=0
70080 On ch=5 n=49 v=100
70080 On ch=5 n=62 v=100
70080 On ch=5 n=75 v=100
70080 On ch=5 n=86 v=100
70080 On ch=5 n=88 v=100
70080 On ch=5 n=98 v=100
70080 On ch=5 n=100 v=100
70196 On ch=5 n=62 v=0
70196 On ch=5 n=75 v=0
70196 On ch=5 n=86 v=0
70196 On ch=5 n=88 v=0
70196 On ch=5 n=98 v=0
70196 On ch=5 n=100 v=0
70376 On ch=5 n=49 v=0
70560 On ch=5 n=44 v=100
70560 On ch=5 n=73 v=100
70560 On ch=5 n=85 v=100
70560 On ch=5 n=86 v=100
70560 On ch=5 n=97 v=100
70560 On ch=5 n=98 v=100
70676 On ch=5 n=73 v=0
70676 On ch=5 n=85 v=0
70676 On ch=5 n=86 v=0
70676 On ch=5 n=97 v=0
70676 On ch=5 n=98 v=0
70856 On ch=5 n=44 v=0
71040 On ch=5 n=46 v=100
71040 On ch=5 n=61 v=100
71040 On ch=5 n=74 v=100
71040 On ch=5 n=85 v=100
71040 On ch=5 n=87 v=100
71040 On ch=5 n=97 v=100
71040 On ch=5 n=99 v=100
71156 On ch=5 n=61 v=0
71156 On ch=5 n=74 v=0
71156 On ch=5 n=85 v=0
71156 On ch=5 n=87 v=0
71156 On ch=5 n=97 v=0
71156 On ch=5 n=99 v=0
71336 On ch=5 n=46 v=0
71520 On ch=5 n=44 v=100
71520 On ch=5 n=73 v=100
71520 On ch=5 n=85 v=100
71520 On ch=5 n=86 v=100
71520 On ch=5 n=97 v=100
71520 On ch=5 n=98 v=100
71636 On ch=5 n=73 v=0
71636 On ch=5 n=85 v=0
71636 On ch=5 n=86 v=0
71636 On ch=5 n=97 v=0
71636 On ch=5 n=98 v=0
71816 On ch=5 n=44 v=0
72000 On ch=5 n=49 v=100
72000 On ch=5 n=62 v=100
72000 On ch=5 n=75 v=100
72000 On ch=5 n=86 v=100
72000 On ch=5 n=88 v=100
72000 On ch=5 n=98 v=100
72000 On ch=5 n=100 v=100
72116 On ch=5 n=62 v=0
72116 On ch=5 n=75 v=0
72116 On ch=5 n=86 v=0
72116 On ch=5 n=88 v=0
72116 On ch=5 n=98 v=0
72116 On ch=5 n=100 v=0
72296 On ch=5 n=49 v=0
72480 On ch=5 n=44 v=100
72480 On ch=5 n=73 v=100
72480 On ch=5 n=85 v=100
72480 On ch=5 n=86 v=100
72480 On ch=5 n=97 v=100
72480 On ch=5 n=98 v=100
72596 On ch=5 n=73 v=0
72596 On ch=5 n=85 v=0
72596 On ch=5 n=86 v=0
72596 On ch=5 n=97 v=0
72596 On ch=5 n=98 v=0
72776 On ch=5 n=44 v=0
72960 On ch=5 n=46 v=100
72960 On ch=5 n=61 v=100
72960 On ch=5 n=74 v=100
72960 On ch=5 n=85 v=100
72960 On ch=5 n=87 v=100
72960 On ch=5 n=97 v=100
72960 On ch=5 n=99 v=100
72960 On ch=5 n=106 v=100
73076 On ch=5 n=61 v=0
73076 On ch=5 n=74 v=0
73076 On ch=5 n=85 v=0
73076 On ch=5 n=87 v=0
73076 On ch=5 n=97 v=0
73076 On ch=5 n=99 v=0
73256 On ch=5 n=46 v=0
73440 On ch=5 n=44 v=100
73440 On ch=5 n=73 v=100
73440 On ch=5 n=85 v=100
73440 On ch=5 n=86 v=100
73440 On ch=5 n=97 v=100
73440 On ch=5 n=98 v=100
73556 On ch=5 n=73 v=0
73556 On ch=5 n=85 v=0
73556 On ch=5 n=86 v=0
73556 On ch=5 n=97 v=0
73556 On ch=5 n=98 v=0
73736 On ch=5 n=44 v=0
73920 On ch=5 n=42 v=100
73920 On ch=5 n=60 v=100
73920 On ch=5 n=72 v=100
73920 On ch=5 n=84 v=100
73920 On ch=5 n=86 v=100
73920 On ch=5 n=96 v=100
73920 On ch=5 n=98 v=100
74036 On ch=5 n=60 v=0
74036 On ch=5 n=72 v=0
74036 On ch=5 n=84 v=0
74036 On ch=5 n=86 v=0
74036 On ch=5 n=96 v=0
74036 On ch=5 n=98 v=0
74216 On ch=5 n=42 v=0
74400 On ch=5 n=51 v=100
74400 On ch=5 n=74 v=100
74400 On ch=5 n=86 v=100
74400 On ch=5 n=88 v=100
74400 On ch=5 n=98 v=100
74400 On ch=5 n=100 v=100
74516 On ch=5 n=74 v=0
74516 On ch=5 n=86 v=0
74516 On ch=5 n=88 v=0
74516 On ch=5 n=98 v=0
74516 On ch=5 n=100 v=0
74696 On ch=5 n=51 v=0
74880 On ch=5 n=53 v=100
74880 On ch=5 n=62 v=100
74880 On ch=5 n=75 v=100
74880 On ch=5 n=87 v=100
74880 On ch=5 n=88 v=100
74880 On ch=5 n=99 v=100
74880 On ch=5 n=100 v=100
74996 On ch=5 n=62 v=0
74996 On ch=5 n=75 v=0
74996 On ch=5 n=87 v=0
74996 On ch=5 n=88 v=0
74996 On ch=5 n=99 v=0
74996 On ch=5 n=100 v=0
75360 On ch=5 n=75 v=100
75360 On ch=5 n=87 v=100
75360 On ch=5 n=88 v=100
75360 On ch=5 n=99 v=100
75360 On ch=5 n=100 v=100
75476 On ch=5 n=75 v=0
75476 On ch=5 n=87 v=0
75476 On ch=5 n=88 v=0
75476 On ch=5 n=99 v=0
75476 On ch=5 n=100 v=0
75840 On ch=5 n=62 v=100
75840 On ch=5 n=75 v=100
75840 On ch=5 n=87 v=100
75840 On ch=5 n=88 v=100
75840 On ch=5 n=99 v=100
75840 On ch=5 n=100 v=100
75956 On ch=5 n=62 v=0
75956 On ch=5 n=75 v=0
75956 On ch=5 n=87 v=0
75956 On ch=5 n=88 v=0
75956 On ch=5 n=99 v=0
75956 On ch=5 n=100 v=0
76320 On ch=5 n=75 v=100
76320 On ch=5 n=87 v=100
76320 On ch=5 n=88 v=100
76320 On ch=5 n=99 v=100
76320 On ch=5 n=100 v=100
76436 On ch=5 n=75 v=0
76436 On ch=5 n=87 v=0
76436 On ch=5 n=88 v=0
76436 On ch=5 n=99 v=0
76436 On ch=5 n=100 v=0
76616 On ch=5 n=53 v=0
76800 Meta Text "[mellow]"
76800 On ch=5 n=46 v=100
76800 On ch=5 n=61 v=100
76800 On ch=5 n=73 v=100
76800 On ch=5 n=85 v=100
76800 On ch=5 n=87 v=100
76800 On ch=5 n=97 v=100
76800 On ch=5 n=99 v=100
76800 On ch=5 n=116 v=100
76920 On ch=5 n=116 v=0
84476 On ch=5 n=61 v=0
84476 On ch=5 n=73 v=0
84476 On ch=5 n=85 v=0
84476 On ch=5 n=87 v=0
84476 On ch=5 n=97 v=0
84476 On ch=5 n=99 v=0
84480 Meta Text "[idle]"
84536 On ch=5 n=46 v=0
84720 On ch=5 n=105 v=0
84720 On ch=5 n=106 v=0
91920 On ch=5 n=106 v=100
91920 On ch=5 n=105 v=100
92160 Meta Text "[play]"
92160 On ch=5 n=46 v=100
92160 On ch=5 n=61 v=100
92160 On ch=5 n=73 v=100
92160 On ch=5 n=85 v=100
92160 On ch=5 n=87 v=100
92160 On ch=5 n=97 v=100
92160 On ch=5 n=99 v=100
92276 On ch=5 n=61 v=0
92276 On ch=5 n=73 v=0
92276 On ch=5 n=85 v=0
92276 On ch=5 n=87 v=0
92276 On ch=5 n=97 v=0
92276 On ch=5 n=99 v=0
92456 On ch=5 n=46 v=0
92640 On ch=5 n=48 v=100
92640 On ch=5 n=74 v=100
92640 On ch=5 n=86 v=100
92640 On ch=5 n=87 v=100
92640 On ch=5 n=98 v=100
92640 On ch=5 n=99 v=100
92756 On ch=5 n=74 v=0
92756 On ch=5 n=86 v=0
92756 On ch=5 n=87 v=0
92756 On ch=5 n=98 v=0
92756 On ch=5 n=99 v=0
92936 On ch=5 n=48 v=0
93120 On ch=5 n=49 v=100
93120 On ch=5 n=62 v=100
93120 On ch=5 n=75 v=100
93120 On ch=5 n=86 v=100
93120 On ch=5 n=88 v=100
93120 On ch=5 n=98 v=100
93120 On ch=5 n=100 v=100
93236 On ch=5 n=62 v=0
93236 On ch=5 n=75 v=0
93236 On ch=5 n=86 v=0
93236 On ch=5 n=88 v=0
93236 On ch=5 n=98 v=0
93236 On ch=5 n=100 v=0
93416 On ch=5 n=49 v=0
93600 On ch=5 n=48 v=100
93600 On ch=5 n=74 v=100
93600 On ch=5 n=86 v=100
93600 On ch=5 n=87 v=100
93600 On ch=5 n=98 v=100
93600 On ch=5 n=99 v=100
93716 On ch=5 n=74 v=0
93716 On ch=5 n=86 v=0
93716 On ch=5 n=87 v=0
93716 On ch=5 n=98 v=0
93716 On ch=5 n=99 v=0
93896 On ch=5 n=48 v=0
94080 On ch=5 n=46 v=100
94080 On ch=5 n=61 v=100
94080 On ch=5 n=74 v=100
94080 On ch=5 n=85 v=100
94080 On ch=5 n=87 v=100
94080 On ch=5 n=97 v=100
94080 On ch=5 n=99 v=100
94080 On ch=5 n=116 v=100
94196 On ch=5 n=61 v=0
94196 On ch=5 n=74 v=0
94196 On ch=5 n=85 v=0
94196 On ch=5 n=87 v=0
94196 On ch=5 n=97 v=0
94196 On ch=5 n=99 v=0
94376 On ch=5 n=46 v=0
94560 On ch=5 n=44 v=100
94560 On ch=5 n=73 v=100
94560 On ch=5 n=85 v=100
94560 On ch=5 n=86 v=100
94560 On ch=5 n=97 v=100
94560 On ch=5 n=98 v=100
94676 On ch=5 n=73 v=0
94676 On ch=5 n=85 v=0
94676 On ch=5 n=86 v=0
94676 On ch=5 n=97 v=0
94676 On ch=5 n=98 v=0
94856 On ch=5 n=44 v=0
95040 On ch=5 n=43 v=100
95040 On ch=5 n=60 v=100
95040 On ch=5 n=73 v=100
95040 On ch=5 n=84 v=100
95040 On ch=5 n=86 v=100
95040 On ch=5 n=96 v=100
95040 On ch=5 n=98 v=100
95156 On ch=5 n=60 v=0
95156 On ch=5 n=73 v=0
95156 On ch=5 n=84 v=0
95156 On ch=5 n=86 v=0
95156 On ch=5 n=96 v=0
95156 On ch=5 n=98 v=0
95336 On ch=5 n=43 v=0
95520 On ch=5 n=41 v=100
95520 On ch=5 n=72 v=100
95520 On ch=5 n=84 v=100
95520 On ch=5 n=85 v=100
95520 On ch=5 n=96 v=100
95520 On ch=5 n=97 v=100
95636 On ch=5 n=72 v=0
95636 On ch=5 n=84 v=0
95636 On ch=5 n=85 v=0
95636 On ch=5 n=96 v=0
95636 On ch=5 n=97 v=0
95816 On ch=5 n=41 v=0
96000 On ch=5 n=48 v=100
96000 On ch=5 n=62 v=100
96000 On ch=5 n=74 v=100
96000 On ch=5 n=86 v=100
96000 On ch=5 n=87 v=100
96000 On ch=5 n=98 v=100
96000 On ch=5 n=99 v=100
96115 On ch=5 n=62 v=0
96115 On ch=5 n=74 v=0
96115 On ch=5 n=86 v=0
96115 On ch=5 n=87 v=0
96115 On ch=5 n=98 v=0
96115 On ch=5 n=99 v=0
96295 On ch=5 n=48 v=0
96480 On ch=5 n=49 v=100
96480 On ch=5 n=75 v=100
96480 On ch=5 n=86 v=100
96480 On ch=5 n=88 v=100
96480 On ch=5 n=98 v=100
96480 On ch=5 n=100 v=100
96595 On ch=5 n=75 v=0
96595 On ch=5 n=86 v=0
96595 On ch=5 n=88 v=0
96595 On ch=5 n=98 v=0
96595 On ch=5 n=100 v=0
96775 On ch=5 n=49 v=0
96960 On ch=5 n=46 v=100
96960 On ch=5 n=61 v=100
96960 On ch=5 n=73 v=100
96960 On ch=5 n=85 v=100
96960 On ch=5 n=87 v=100
96960 On ch=5 n=97 v=100
96960 On ch=5 n=99 v=100
97075 On ch=5 n=61 v=0
97075 On ch=5 n=73 v=0
97075 On ch=5 n=85 v=0
97075 On ch=5 n=87 v=0
97075 On ch=5 n=97 v=0
97075 On ch=5 n=99 v=0
97255 On ch=5 n=46 v=0
97440 On ch=5 n=51 v=100
97440 On ch=5 n=74 v=100
97440 On ch=5 n=86 v=100
97440 On ch=5 n=88 v=100
97440 On ch=5 n=98 v=100
97440 On ch=5 n=100 v=100
97555 On ch=5 n=74 v=0
97555 On ch=5 n=86 v=0
97555 On ch=5 n=88 v=0
97555 On ch=5 n=98 v=0
97555 On ch=5 n=100 v=0
97735 On ch=5 n=51 v=0
97920 On ch=5 n=53 v=100
97920 On ch=5 n=62 v=100
97920 On ch=5 n=75 v=100
97920 On ch=5 n=87 v=100
97920 On ch=5 n=88 v=100
97920 On ch=5 n=99 v=100
97920 On ch=5 n=100 v=100
98040 On ch=5 n=116 v=0
99355 On ch=5 n=62 v=0
99595 On ch=5 n=75 v=0
99595 On ch=5 n=87 v=0
99595 On ch=5 n=88 v=0
99655 On ch=5 n=53 v=0
99715 On ch=5 n=99 v=0
99715 On ch=5 n=100 v=0
99835 On ch=5 n=105 v=0
99840 On ch=5 n=46 v=100
99840 On ch=5 n=61 v=100
99840 On ch=5 n=73 v=100
99840 On ch=5 n=85 v=100
99840 On ch=5 n=87 v=100
99840 On ch=5 n=97 v=100
99840 On ch=5 n=99 v=100
99955 On ch=5 n=61 v=0
99955 On ch=5 n=73 v=0
99955 On ch=5 n=85 v=0
99955 On ch=5 n=87 v=0
99955 On ch=5 n=97 v=0
99955 On ch=5 n=99 v=0
100135 On ch=5 n=46 v=0
100320 On ch=5 n=48 v=100
100320 On ch=5 n=74 v=100
100320 On ch=5 n=86 v=100
100320 On ch=5 n=87 v=100
100320 On ch=5 n=98 v=100
100320 On ch=5 n=99 v=100
100435 On ch=5 n=74 v=0
100435 On ch=5 n=86 v=0
100435 On ch=5 n=87 v=0
100435 On ch=5 n=98 v=0
100435 On ch=5 n=99 v=0
100615 On ch=5 n=48 v=0
100800 On ch=5 n=46 v=100
100800 On ch=5 n=61 v=100
100800 On ch=5 n=73 v=100
100800 On ch=5 n=85 v=100
100800 On ch=5 n=87 v=100
100800 On ch=5 n=97 v=100
100800 On ch=5 n=99 v=100
100915 On ch=5 n=61 v=0
100915 On ch=5 n=73 v=0
100915 On ch=5 n=85 v=0
100915 On ch=5 n=87 v=0
100915 On ch=5 n=97 v=0
100915 On ch=5 n=99 v=0
101095 On ch=5 n=46 v=0
101280 On ch=5 n=48 v=100
101280 On ch=5 n=74 v=100
101280 On ch=5 n=86 v=100
101280 On ch=5 n=87 v=100
101280 On ch=5 n=98 v=100
101280 On ch=5 n=99 v=100
101395 On ch=5 n=74 v=0
101395 On ch=5 n=86 v=0
101395 On ch=5 n=87 v=0
101395 On ch=5 n=98 v=0
101395 On ch=5 n=99 v=0
101575 On ch=5 n=48 v=0
101760 On ch=5 n=49 v=100
101760 On ch=5 n=62 v=100
101760 On ch=5 n=75 v=100
101760 On ch=5 n=86 v=100
101760 On ch=5 n=88 v=100
101760 On ch=5 n=98 v=100
101760 On ch=5 n=100 v=100
101876 On ch=5 n=62 v=0
101876 On ch=5 n=75 v=0
101876 On ch=5 n=86 v=0
101876 On ch=5 n=88 v=0
101876 On ch=5 n=98 v=0
101876 On ch=5 n=100 v=0
102056 On ch=5 n=49 v=0
102240 On ch=5 n=44 v=100
102240 On ch=5 n=73 v=100
102240 On ch=5 n=85 v=100
102240 On ch=5 n=86 v=100
102240 On ch=5 n=97 v=100
102240 On ch=5 n=98 v=100
102356 On ch=5 n=73 v=0
102356 On ch=5 n=85 v=0
102356 On ch=5 n=86 v=0
102356 On ch=5 n=97 v=0
102356 On ch=5 n=98 v=0
102536 On ch=5 n=44 v=0
102720 On ch=5 n=49 v=100
102720 On ch=5 n=62 v=100
102720 On ch=5 n=75 v=100
102720 On ch=5 n=86 v=100
102720 On ch=5 n=88 v=100
102720 On ch=5 n=98 v=100
102720 On ch=5 n=100 v=100
102836 On ch=5 n=62 v=0
102836 On ch=5 n=75 v=0
102836 On ch=5 n=86 v=0
102836 On ch=5 n=88 v=0
102836 On ch=5 n=98 v=0
102836 On ch=5 n=100 v=0
103016 On ch=5 n=49 v=0
103200 On ch=5 n=44 v=100
103200 On ch=5 n=73 v=100
103200 On ch=5 n=85 v=100
103200 On ch=5 n=86 v=100
103200 On ch=5 n=97 v=100
103200 On ch=5 n=98 v=100
103316 On ch=5 n=73 v=0
103316 On ch=5 n=85 v=0
103316 On ch=5 n=86 v=0
103316 On ch=5 n=97 v=0
103316 On ch=5 n=98 v=0
103496 On ch=5 n=44 v=0
103676 On ch=5 n=106 v=0
103680 On ch=5 n=49 v=100
103680 On ch=5 n=62 v=100
103680 On ch=5 n=75 v=100
103680 On ch=5 n=86 v=100
103680 On ch=5 n=88 v=100
103680 On ch=5 n=98 v=100
103680 On ch=5 n=100 v=100
103680 On ch=5 n=105 v=100
103796 On ch=5 n=62 v=0
103796 On ch=5 n=75 v=0
103796 On ch=5 n=86 v=0
103796 On ch=5 n=88 v=0
103796 On ch=5 n=98 v=0
103796 On ch=5 n=100 v=0
103976 On ch=5 n=49 v=0
104160 On ch=5 n=44 v=100
104160 On ch=5 n=73 v=100
104160 On ch=5 n=85 v=100
104160 On ch=5 n=86 v=100
104160 On ch=5 n=97 v=100
104160 On ch=5 n=98 v=100
104276 On ch=5 n=73 v=0
104276 On ch=5 n=85 v=0
104276 On ch=5 n=86 v=0
104276 On ch=5 n=97 v=0
104276 On ch=5 n=98 v=0
104456 On ch=5 n=44 v=0
104640 On ch=5 n=46 v=100
104640 On ch=5 n=61 v=100
104640 On ch=5 n=74 v=100
104640 On ch=5 n=85 v=100
104640 On ch=5 n=87 v=100
104640 On ch=5 n=97 v=100
104640 On ch=5 n=99 v=100
104756 On ch=5 n=61 v=0
104756 On ch=5 n=74 v=0
104756 On ch=5 n=85 v=0
104756 On ch=5 n=87 v=0
104756 On ch=5 n=97 v=0
104756 On ch=5 n=99 v=0
104936 On ch=5 n=46 v=0
105120 On ch=5 n=41 v=100
105120 On ch=5 n=72 v=100
105120 On ch=5 n=84 v=100
105120 On ch=5 n=85 v=100
105120 On ch=5 n=96 v=100
105120 On ch=5 n=97 v=100
105236 On ch=5 n=72 v=0
105236 On ch=5 n=84 v=0
105236 On ch=5 n=85 v=0
105236 On ch=5 n=96 v=0
105236 On ch=5 n=97 v=0
105416 On ch=5 n=41 v=0
105600 On ch=5 n=42 v=100
105600 On ch=5 n=60 v=100
105600 On ch=5 n=73 v=100
105600 On ch=5 n=84 v=100
105600 On ch=5 n=86 v=100
105600 On ch=5 n=96 v=100
105600 On ch=5 n=98 v=100
105716 On ch=5 n=60 v=0
105716 On ch=5 n=73 v=0
105716 On ch=5 n=84 v=0
105716 On ch=5 n=86 v=0
105716 On ch=5 n=96 v=0
105716 On ch=5 n=98 v=0
105896 On ch=5 n=42 v=0
106080 On ch=5 n=49 v=100
106080 On ch=5 n=73 v=100
106080 On ch=5 n=85 v=100
106080 On ch=5 n=86 v=100
106080 On ch=5 n=97 v=100
106080 On ch=5 n=98 v=100
106196 On ch=5 n=73 v=0
106196 On ch=5 n=85 v=0
106196 On ch=5 n=86 v=0
106196 On ch=5 n=97 v=0
106196 On ch=5 n=98 v=0
106376 On ch=5 n=49 v=0
106560 On ch=5 n=51 v=100
106560 On ch=5 n=61 v=100
106560 On ch=5 n=74 v=100
106560 On ch=5 n=86 v=100
106560 On ch=5 n=88 v=100
106560 On ch=5 n=98 v=100
106560 On ch=5 n=100 v=100
106676 On ch=5 n=61 v=0
106676 On ch=5 n=74 v=0
106676 On ch=5 n=86 v=0
106676 On ch=5 n=88 v=0
106676 On ch=5 n=98 v=0
106676 On ch=5 n=100 v=0
106856 On ch=5 n=51 v=0
107040 On ch=5 n=53 v=100
107040 On ch=5 n=75 v=100
107040 On ch=5 n=87 v=100
107040 On ch=5 n=88 v=100
107040 On ch=5 n=99 v=100
107040 On ch=5 n=100 v=100
107156 On ch=5 n=75 v=0
107156 On ch=5 n=87 v=0
107156 On ch=5 n=88 v=0
107156 On ch=5 n=99 v=0
107156 On ch=5 n=100 v=0
107336 On ch=5 n=53 v=0
107520 On ch=5 n=46 v=100
107520 On ch=5 n=61 v=100
107520 On ch=5 n=74 v=100
107520 On ch=5 n=85 v=100
107520 On ch=5 n=87 v=100
107520 On ch=5 n=97 v=100
107520 On ch=5 n=99 v=100
108716 On ch=5 n=61 v=0
108716 On ch=5 n=74 v=0
108716 On ch=5 n=85 v=0
108716 On ch=5 n=87 v=0
108776 On ch=5 n=46 v=0
108836 On ch=5 n=97 v=0
108836 On ch=5 n=99 v=0
108960 On ch=5 n=44 v=100
108960 On ch=5 n=73 v=100
108960 On ch=5 n=85 v=100
108960 On ch=5 n=86 v=100
108960 On ch=5 n=97 v=100
108960 On ch=5 n=98 v=100
108960 On ch=5 n=106 v=100
109076 On ch=5 n=73 v=0
109076 On ch=5 n=85 v=0
109076 On ch=5 n=86 v=0
109076 On ch=5 n=97 v=0
109076 On ch=5 n=98 v=0
109256 On ch=5 n=44 v=0
109440 On ch=5 n=49 v=100
109440 On ch=5 n=62 v=100
109440 On ch=5 n=75 v=100
109440 On ch=5 n=86 v=100
109440 On ch=5 n=88 v=100
109440 On ch=5 n=98 v=100
109440 On ch=5 n=100 v=100
110636 On ch=5 n=62 v=0
110636 On ch=5 n=75 v=0
110636 On ch=5 n=86 v=0
110636 On ch=5 n=88 v=0
110696 On ch=5 n=49 v=0
110756 On ch=5 n=98 v=0
110756 On ch=5 n=100 v=0
110880 On ch=5 n=44 v=100
110880 On ch=5 n=73 v=100
110880 On ch=5 n=85 v=100
110880 On ch=5 n=86 v=100
110880 On ch=5 n=97 v=100
110880 On ch=5 n=98 v=100
110996 On ch=5 n=73 v=0
110996 On ch=5 n=85 v=0
110996 On ch=5 n=86 v=0
110996 On ch=5 n=97 v=0
110996 On ch=5 n=98 v=0
111176 On ch=5 n=44 v=0
111360 On ch=5 n=46 v=100
111360 On ch=5 n=61 v=100
111360 On ch=5 n=74 v=100
111360 On ch=5 n=85 v=100
111360 On ch=5 n=87 v=100
111360 On ch=5 n=97 v=100
111360 On ch=5 n=99 v=100
112556 On ch=5 n=61 v=0
112556 On ch=5 n=74 v=0
112556 On ch=5 n=85 v=0
112556 On ch=5 n=87 v=0
112616 On ch=5 n=46 v=0
112676 On ch=5 n=97 v=0
112676 On ch=5 n=99 v=0
112800 On ch=5 n=44 v=100
112800 On ch=5 n=73 v=100
112800 On ch=5 n=85 v=100
112800 On ch=5 n=86 v=100
112800 On ch=5 n=97 v=100
112800 On ch=5 n=98 v=100
112916 On ch=5 n=73 v=0
112916 On ch=5 n=85 v=0
112916 On ch=5 n=86 v=0
112916 On ch=5 n=97 v=0
112916 On ch=5 n=98 v=0
113096 On ch=5 n=44 v=0
113280 On ch=5 n=49 v=100
113280 On ch=5 n=62 v=100
113280 On ch=5 n=75 v=100
113280 On ch=5 n=86 v=100
113280 On ch=5 n=88 v=100
113280 On ch=5 n=98 v=100
113280 On ch=5 n=100 v=100
114476 On ch=5 n=105 v=0
114476 On ch=5 n=62 v=0
114476 On ch=5 n=75 v=0
114476 On ch=5 n=86 v=0
114476 On ch=5 n=88 v=0
114536 On ch=5 n=49 v=0
114596 On ch=5 n=98 v=0
114596 On ch=5 n=100 v=0
114720 On ch=5 n=44 v=100
114720 On ch=5 n=73 v=100
114720 On ch=5 n=85 v=100
114720 On ch=5 n=86 v=100
114720 On ch=5 n=97 v=100
114720 On ch=5 n=98 v=100
114836 On ch=5 n=73 v=0
114836 On ch=5 n=85 v=0
114836 On ch=5 n=86 v=0
114836 On ch=5 n=97 v=0
114836 On ch=5 n=98 v=0
115016 On ch=5 n=44 v=0
115200 On ch=5 n=46 v=100
115200 On ch=5 n=61 v=100
115200 On ch=5 n=74 v=100
115200 On ch=5 n=85 v=100
115200 On ch=5 n=87 v=100
115200 On ch=5 n=97 v=100
115200 On ch=5 n=99 v=100
115316 On ch=5 n=61 v=0
115316 On ch=5 n=74 v=0
115316 On ch=5 n=85 v=0
115316 On ch=5 n=87 v=0
115316 On ch=5 n=97 v=0
115316 On ch=5 n=99 v=0
115496 On ch=5 n=46 v=0
115680 On ch=5 n=44 v=100
115680 On ch=5 n=73 v=100
115680 On ch=5 n=85 v=100
115680 On ch=5 n=86 v=100
115680 On ch=5 n=97 v=100
115680 On ch=5 n=98 v=100
115796 On ch=5 n=73 v=0
115796 On ch=5 n=85 v=0
115796 On ch=5 n=86 v=0
115796 On ch=5 n=97 v=0
115796 On ch=5 n=98 v=0
115976 On ch=5 n=44 v=0
116160 On ch=5 n=49 v=100
116160 On ch=5 n=62 v=100
116160 On ch=5 n=75 v=100
116160 On ch=5 n=86 v=100
116160 On ch=5 n=88 v=100
116160 On ch=5 n=98 v=100
116160 On ch=5 n=100 v=100
116276 On ch=5 n=62 v=0
116276 On ch=5 n=75 v=0
116276 On ch=5 n=86 v=0
116276 On ch=5 n=88 v=0
116276 On ch=5 n=98 v=0
116276 On ch=5 n=100 v=0
116456 On ch=5 n=49 v=0
116640 On ch=5 n=44 v=100
116640 On ch=5 n=73 v=100
116640 On ch=5 n=85 v=100
116640 On ch=5 n=86 v=100
116640 On ch=5 n=97 v=100
116640 On ch=5 n=98 v=100
116756 On ch=5 n=73 v=0
116756 On ch=5 n=85 v=0
116756 On ch=5 n=86 v=0
116756 On ch=5 n=97 v=0
116756 On ch=5 n=98 v=0
116936 On ch=5 n=44 v=0
117120 On ch=5 n=46 v=100
117120 On ch=5 n=61 v=100
117120 On ch=5 n=74 v=100
117120 On ch=5 n=85 v=100
117120 On ch=5 n=87 v=100
117120 On ch=5 n=97 v=100
117120 On ch=5 n=99 v=100
117236 On ch=5 n=61 v=0
117236 On ch=5 n=74 v=0
117236 On ch=5 n=85 v=0
117236 On ch=5 n=87 v=0
117236 On ch=5 n=97 v=0
117236 On ch=5 n=99 v=0
117416 On ch=5 n=46 v=0
117600 On ch=5 n=44 v=100
117600 On ch=5 n=73 v=100
117600 On ch=5 n=85 v=100
117600 On ch=5 n=86 v=100
117600 On ch=5 n=97 v=100
117600 On ch=5 n=98 v=100
117716 On ch=5 n=73 v=0
117716 On ch=5 n=85 v=0
117716 On ch=5 n=86 v=0
117716 On ch=5 n=97 v=0
117716 On ch=5 n=98 v=0
117896 On ch=5 n=44 v=0
118080 On ch=5 n=49 v=100
118080 On ch=5 n=62 v=100
118080 On ch=5 n=75 v=100
118080 On ch=5 n=86 v=100
118080 On ch=5 n=88 v=100
118080 On ch=5 n=98 v=100
118080 On ch=5 n=100 v=100
118196 On ch=5 n=62 v=0
118196 On ch=5 n=75 v=0
118196 On ch=5 n=86 v=0
118196 On ch=5 n=88 v=0
118196 On ch=5 n=98 v=0
118196 On ch=5 n=100 v=0
118376 On ch=5 n=49 v=0
118560 On ch=5 n=44 v=100
118560 On ch=5 n=73 v=100
118560 On ch=5 n=85 v=100
118560 On ch=5 n=86 v=100
118560 On ch=5 n=97 v=100
118560 On ch=5 n=98 v=100
118676 On ch=5 n=73 v=0
118676 On ch=5 n=85 v=0
118676 On ch=5 n=86 v=0
118676 On ch=5 n=97 v=0
118676 On ch=5 n=98 v=0
118856 On ch=5 n=44 v=0
119040 On ch=5 n=46 v=100
119040 On ch=5 n=61 v=100
119040 On ch=5 n=74 v=100
119040 On ch=5 n=85 v=100
119040 On ch=5 n=87 v=100
119040 On ch=5 n=97 v=100
119040 On ch=5 n=99 v=100
119040 On ch=5 n=105 v=100
119156 On ch=5 n=61 v=0
119156 On ch=5 n=74 v=0
119156 On ch=5 n=85 v=0
119156 On ch=5 n=87 v=0
119156 On ch=5 n=97 v=0
119156 On ch=5 n=99 v=0
119336 On ch=5 n=46 v=0
119520 On ch=5 n=44 v=100
119520 On ch=5 n=73 v=100
119520 On ch=5 n=85 v=100
119520 On ch=5 n=86 v=100
119520 On ch=5 n=97 v=100
119520 On ch=5 n=98 v=100
119636 On ch=5 n=73 v=0
119636 On ch=5 n=85 v=0
119636 On ch=5 n=86 v=0
119636 On ch=5 n=97 v=0
119636 On ch=5 n=98 v=0
119816 On ch=5 n=44 v=0
120000 On ch=5 n=42 v=100
120000 On ch=5 n=60 v=100
120000 On ch=5 n=72 v=100
120000 On ch=5 n=84 v=100
120000 On ch=5 n=86 v=100
120000 On ch=5 n=96 v=100
120000 On ch=5 n=98 v=100
120116 On ch=5 n=60 v=0
120116 On ch=5 n=72 v=0
120116 On ch=5 n=84 v=0
120116 On ch=5 n=86 v=0
120116 On ch=5 n=96 v=0
120116 On ch=5 n=98 v=0
120296 On ch=5 n=42 v=0
120480 On ch=5 n=51 v=100
120480 On ch=5 n=74 v=100
120480 On ch=5 n=86 v=100
120480 On ch=5 n=88 v=100
120480 On ch=5 n=98 v=100
120480 On ch=5 n=100 v=100
120596 On ch=5 n=74 v=0
120596 On ch=5 n=86 v=0
120596 On ch=5 n=88 v=0
120596 On ch=5 n=98 v=0
120596 On ch=5 n=100 v=0
120776 On ch=5 n=51 v=0
120960 On ch=5 n=53 v=100
120960 On ch=5 n=62 v=100
120960 On ch=5 n=75 v=100
120960 On ch=5 n=87 v=100
120960 On ch=5 n=88 v=100
120960 On ch=5 n=99 v=100
120960 On ch=5 n=100 v=100
121076 On ch=5 n=62 v=0
121076 On ch=5 n=75 v=0
121076 On ch=5 n=87 v=0
121076 On ch=5 n=88 v=0
121076 On ch=5 n=99 v=0
121076 On ch=5 n=100 v=0
121440 On ch=5 n=75 v=100
121440 On ch=5 n=87 v=100
121440 On ch=5 n=88 v=100
121440 On ch=5 n=99 v=100
121440 On ch=5 n=100 v=100
121556 On ch=5 n=75 v=0
121556 On ch=5 n=87 v=0
121556 On ch=5 n=88 v=0
121556 On ch=5 n=99 v=0
121556 On ch=5 n=100 v=0
121920 On ch=5 n=62 v=100
121920 On ch=5 n=75 v=100
121920 On ch=5 n=87 v=100
121920 On ch=5 n=88 v=100
121920 On ch=5 n=99 v=100
121920 On ch=5 n=100 v=100
122035 On ch=5 n=62 v=0
122035 On ch=5 n=75 v=0
122035 On ch=5 n=87 v=0
122035 On ch=5 n=88 v=0
122035 On ch=5 n=99 v=0
122035 On ch=5 n=100 v=0
122400 On ch=5 n=75 v=100
122400 On ch=5 n=87 v=100
122400 On ch=5 n=88 v=100
122400 On ch=5 n=99 v=100
122400 On ch=5 n=100 v=100
122515 On ch=5 n=75 v=0
122515 On ch=5 n=87 v=0
122515 On ch=5 n=88 v=0
122515 On ch=5 n=99 v=0
122515 On ch=5 n=100 v=0
122635 On ch=5 n=53 v=0
122880 Meta Text "[mellow]"
122880 On ch=5 n=46 v=100
122880 On ch=5 n=61 v=100
122880 On ch=5 n=73 v=100
122880 On ch=5 n=85 v=100
122880 On ch=5 n=87 v=100
122880 On ch=5 n=97 v=100
122880 On ch=5 n=99 v=100
126238 On ch=5 n=61 v=0
126478 On ch=5 n=46 v=0
126478 On ch=5 n=73 v=0
126478 On ch=5 n=85 v=0
126478 On ch=5 n=87 v=0
126598 On ch=5 n=97 v=0
126598 On ch=5 n=99 v=0
126720 On ch=5 n=48 v=100
126720 On ch=5 n=62 v=100
126720 On ch=5 n=74 v=100
126720 On ch=5 n=75 v=100
126720 On ch=5 n=86 v=100
126720 On ch=5 n=88 v=100
126720 On ch=5 n=98 v=100
126720 On ch=5 n=100 v=100
126720 On ch=5 n=61 v=100
129000 On ch=5 n=62 v=0
129000 On ch=5 n=74 v=0
129000 On ch=5 n=75 v=0
129000 On ch=5 n=86 v=0
129000 On ch=5 n=88 v=0
129000 On ch=5 n=98 v=0
129000 On ch=5 n=100 v=0
129000 On ch=5 n=61 v=0
129120 On ch=5 n=62 v=100
129120 On ch=5 n=74 v=100
129120 On ch=5 n=75 v=100
129120 On ch=5 n=86 v=100
129120 On ch=5 n=88 v=100
129120 On ch=5 n=98 v=100
129120 On ch=5 n=100 v=100
129120 On ch=5 n=61 v=100
131400 On ch=5 n=62 v=0
131400 On ch=5 n=74 v=0
131400 On ch=5 n=75 v=0
131400 On ch=5 n=86 v=0
131400 On ch=5 n=88 v=0
131400 On ch=5 n=98 v=0
131400 On ch=5 n=100 v=0
131400 On ch=5 n=61 v=0
131520 On ch=5 n=62 v=100
131520 On ch=5 n=74 v=100
131520 On ch=5 n=75 v=100
131520 On ch=5 n=86 v=100
131520 On ch=5 n=88 v=100
131520 On ch=5 n=98 v=100
131520 On ch=5 n=100 v=100
131520 On ch=5 n=61 v=100
133800 On ch=5 n=62 v=0
133800 On ch=5 n=74 v=0
133800 On ch=5 n=75 v=0
133800 On ch=5 n=86 v=0
133800 On ch=5 n=88 v=0
133800 On ch=5 n=98 v=0
133800 On ch=5 n=100 v=0
133800 On ch=5 n=61 v=0
133920 On ch=5 n=62 v=100
133920 On ch=5 n=74 v=100
133920 On ch=5 n=75 v=100
133920 On ch=5 n=86 v=100
133920 On ch=5 n=88 v=100
133920 On ch=5 n=98 v=100
133920 On ch=5 n=100 v=100
133920 On ch=5 n=61 v=100
136200 On ch=5 n=62 v=0
136200 On ch=5 n=74 v=0
136200 On ch=5 n=75 v=0
136200 On ch=5 n=86 v=0
136200 On ch=5 n=88 v=0
136200 On ch=5 n=98 v=0
136200 On ch=5 n=100 v=0
136200 On ch=5 n=61 v=0
136320 On ch=5 n=62 v=100
136320 On ch=5 n=74 v=100
136320 On ch=5 n=75 v=100
136320 On ch=5 n=86 v=100
136320 On ch=5 n=88 v=100
136320 On ch=5 n=98 v=100
136320 On ch=5 n=100 v=100
136320 On ch=5 n=116 v=100
136320 On ch=5 n=61 v=100
140636 On ch=5 n=62 v=0
140636 On ch=5 n=74 v=0
140636 On ch=5 n=75 v=0
140636 On ch=5 n=86 v=0
140636 On ch=5 n=88 v=0
140636 On ch=5 n=98 v=0
140636 On ch=5 n=100 v=0
140636 On ch=5 n=61 v=0
140760 On ch=5 n=116 v=0
141116 On ch=5 n=48 v=0
141120 Meta Text "[idle_realtime]"
142080 On ch=5 n=40 v=100
166794 On ch=5 n=40 v=0
166800 On ch=5 n=106 v=0
166800 On ch=5 n=105 v=0
167520 On ch=5 n=106 v=100
167520 On ch=5 n=105 v=100
167640 On ch=5 n=49 v=100
167760 On ch=5 n=103 v=100
168000 Meta Text "[play_solo]"
168000 On ch=5 n=62 v=100
168000 On ch=5 n=74 v=100
168000 On ch=5 n=98 v=100
168000 On ch=5 n=86 v=100
168056 On ch=5 n=49 v=0
168056 On ch=5 n=98 v=0
168056 On ch=5 n=86 v=0
168060 On ch=5 n=99 v=100
168060 On ch=5 n=87 v=100
168120 On ch=5 n=51 v=100
168416 On ch=5 n=62 v=0
168416 On ch=5 n=74 v=0
168420 On ch=5 n=99 v=0
168420 On ch=5 n=87 v=0
168476 On ch=5 n=51 v=0
168480 On ch=5 n=49 v=100
168480 On ch=5 n=62 v=100
168480 On ch=5 n=74 v=100
168480 On ch=5 n=98 v=100
168480 On ch=5 n=86 v=100
168536 On ch=5 n=49 v=0
168536 On ch=5 n=98 v=0
168536 On ch=5 n=86 v=0
168540 On ch=5 n=99 v=100
168540 On ch=5 n=87 v=100
168600 On ch=5 n=51 v=100
170336 On ch=5 n=62 v=0
170336 On ch=5 n=74 v=0
170396 On ch=5 n=99 v=0
170396 On ch=5 n=87 v=0
170396 On ch=5 n=51 v=0
170398 On ch=5 n=106 v=0
170640 On ch=5 n=47 v=100
170640 On ch=5 n=72 v=100
170640 On ch=5 n=96 v=100
170640 On ch=5 n=84 v=100
170756 On ch=5 n=47 v=0
170756 On ch=5 n=72 v=0
170756 On ch=5 n=96 v=0
170756 On ch=5 n=84 v=0
170880 On ch=5 n=47 v=100
170880 On ch=5 n=60 v=100
170880 On ch=5 n=72 v=100
170880 On ch=5 n=96 v=100
170880 On ch=5 n=84 v=100
170996 On ch=5 n=47 v=0
170996 On ch=5 n=60 v=0
170996 On ch=5 n=72 v=0
170996 On ch=5 n=96 v=0
170996 On ch=5 n=84 v=0
171000 On ch=5 n=49 v=100
171000 On ch=5 n=97 v=100
171000 On ch=5 n=85 v=100
171116 On ch=5 n=49 v=0
171116 On ch=5 n=97 v=0
171116 On ch=5 n=85 v=0
171120 On ch=5 n=50 v=100
171120 On ch=5 n=98 v=100
171120 On ch=5 n=86 v=100
171236 On ch=5 n=50 v=0
171236 On ch=5 n=98 v=0
171236 On ch=5 n=86 v=0
171360 On ch=5 n=51 v=100
171360 On ch=5 n=61 v=100
171360 On ch=5 n=74 v=100
171360 On ch=5 n=99 v=100
171360 On ch=5 n=87 v=100
171476 On ch=5 n=51 v=0
171476 On ch=5 n=61 v=0
171476 On ch=5 n=74 v=0
171476 On ch=5 n=99 v=0
171476 On ch=5 n=87 v=0
171600 On ch=5 n=50 v=100
171600 On ch=5 n=98 v=100
171600 On ch=5 n=86 v=100
171716 On ch=5 n=50 v=0
171716 On ch=5 n=98 v=0
171716 On ch=5 n=86 v=0
171840 On ch=5 n=51 v=100
171840 On ch=5 n=62 v=100
171840 On ch=5 n=75 v=100
171840 On ch=5 n=99 v=100
171840 On ch=5 n=87 v=100
171896 On ch=5 n=51 v=0
171896 On ch=5 n=99 v=0
171896 On ch=5 n=87 v=0
171900 On ch=5 n=100 v=100
171900 On ch=5 n=88 v=100
171960 On ch=5 n=53 v=100
172256 On ch=5 n=62 v=0
172256 On ch=5 n=75 v=0
172260 On ch=5 n=100 v=0
172260 On ch=5 n=88 v=0
172316 On ch=5 n=53 v=0
172320 On ch=5 n=51 v=100
172320 On ch=5 n=62 v=100
172320 On ch=5 n=75 v=100
172320 On ch=5 n=99 v=100
172320 On ch=5 n=87 v=100
172376 On ch=5 n=51 v=0
172376 On ch=5 n=99 v=0
172376 On ch=5 n=87 v=0
172380 On ch=5 n=100 v=100
172380 On ch=5 n=88 v=100
172440 On ch=5 n=53 v=100
173156 On ch=5 n=62 v=0
173156 On ch=5 n=75 v=0
173216 On ch=5 n=100 v=0
173216 On ch=5 n=88 v=0
173216 On ch=5 n=53 v=0
173280 On ch=5 n=53 v=100
173280 On ch=5 n=62 v=100
173280 On ch=5 n=75 v=100
173280 On ch=5 n=100 v=100
173280 On ch=5 n=88 v=100
173756 On ch=5 n=53 v=0
173880 On ch=5 n=62 v=0
173880 On ch=5 n=75 v=0
173880 On ch=5 n=100 v=0
173880 On ch=5 n=88 v=0
174000 On ch=5 n=51 v=100
174000 On ch=5 n=99 v=100
174000 On ch=5 n=61 v=100
174000 On ch=5 n=74 v=100
174000 On ch=5 n=87 v=100
174116 On ch=5 n=51 v=0
174116 On ch=5 n=99 v=0
174116 On ch=5 n=61 v=0
174116 On ch=5 n=74 v=0
174116 On ch=5 n=87 v=0
174180 On ch=5 n=49 v=100
174180 On ch=5 n=97 v=100
174180 On ch=5 n=86 v=100
174296 On ch=5 n=49 v=0
174296 On ch=5 n=97 v=0
174296 On ch=5 n=86 v=0
174360 On ch=5 n=52 v=100
174360 On ch=5 n=75 v=100
174360 On ch=5 n=100 v=100
174360 On ch=5 n=88 v=100
174476 On ch=5 n=52 v=0
174476 On ch=5 n=75 v=0
174476 On ch=5 n=100 v=0
174476 On ch=5 n=88 v=0
174480 On ch=5 n=49 v=100
174480 On ch=5 n=97 v=100
174480 On ch=5 n=86 v=100
174596 On ch=5 n=49 v=0
174596 On ch=5 n=97 v=0
174596 On ch=5 n=86 v=0
174600 On ch=5 n=51 v=100
174600 On ch=5 n=61 v=100
174600 On ch=5 n=74 v=100
174600 On ch=5 n=99 v=100
174600 On ch=5 n=87 v=100
175196 On ch=5 n=51 v=0
175196 On ch=5 n=61 v=0
175196 On ch=5 n=74 v=0
175196 On ch=5 n=99 v=0
175196 On ch=5 n=87 v=0
175198 On ch=5 n=105 v=0
175200 On ch=5 n=106 v=100
175440 On ch=5 n=47 v=100
175440 On ch=5 n=96 v=100
175440 On ch=5 n=84 v=100
175556 On ch=5 n=47 v=0
175556 On ch=5 n=96 v=0
175556 On ch=5 n=84 v=0
175680 On ch=5 n=50 v=100
175680 On ch=5 n=60 v=100
175680 On ch=5 n=73 v=100
175680 On ch=5 n=97 v=100
175680 On ch=5 n=85 v=100
175796 On ch=5 n=50 v=0
175796 On ch=5 n=60 v=0
175796 On ch=5 n=73 v=0
175796 On ch=5 n=97 v=0
175796 On ch=5 n=85 v=0
175920 On ch=5 n=51 v=100
175920 On ch=5 n=98 v=100
175920 On ch=5 n=73 v=100
175920 On ch=5 n=86 v=100
176036 On ch=5 n=51 v=0
176036 On ch=5 n=98 v=0
176036 On ch=5 n=86 v=0
176040 On ch=5 n=73 v=0
176160 On ch=5 n=52 v=100
176160 On ch=5 n=99 v=100
176160 On ch=5 n=74 v=100
176160 On ch=5 n=61 v=100
176160 On ch=5 n=87 v=100
176276 On ch=5 n=52 v=0
176276 On ch=5 n=99 v=0
176276 On ch=5 n=87 v=0
176280 On ch=5 n=74 v=0
176280 On ch=5 n=61 v=0
176400 On ch=5 n=54 v=100
176400 On ch=5 n=62 v=100
176400 On ch=5 n=75 v=100
176400 On ch=5 n=100 v=100
176400 On ch=5 n=88 v=100
177240 On ch=5 n=100 v=0
177240 On ch=5 n=88 v=0
177356 On ch=5 n=54 v=0
177356 On ch=5 n=62 v=0
177356 On ch=5 n=75 v=0
177360 On ch=5 n=52 v=100
177360 On ch=5 n=74 v=100
177360 On ch=5 n=99 v=100
177360 On ch=5 n=87 v=100
177476 On ch=5 n=52 v=0
177476 On ch=5 n=74 v=0
177476 On ch=5 n=99 v=0
177476 On ch=5 n=87 v=0
177600 On ch=5 n=51 v=100
177600 On ch=5 n=60 v=100
177600 On ch=5 n=73 v=100
177600 On ch=5 n=98 v=100
177600 On ch=5 n=86 v=100
177716 On ch=5 n=51 v=0
177716 On ch=5 n=60 v=0
177716 On ch=5 n=73 v=0
177716 On ch=5 n=98 v=0
177716 On ch=5 n=86 v=0
177720 On ch=5 n=52 v=100
177720 On ch=5 n=99 v=100
177720 On ch=5 n=87 v=100
177836 On ch=5 n=52 v=0
177836 On ch=5 n=99 v=0
177836 On ch=5 n=87 v=0
177900 On ch=5 n=51 v=100
177900 On ch=5 n=98 v=100
177900 On ch=5 n=86 v=100
178016 On ch=5 n=51 v=0
178016 On ch=5 n=98 v=0
178016 On ch=5 n=86 v=0
178020 On ch=5 n=52 v=100
178020 On ch=5 n=73 v=100
178020 On ch=5 n=99 v=100
178020 On ch=5 n=60 v=100
178020 On ch=5 n=87 v=100
178136 On ch=5 n=52 v=0
178136 On ch=5 n=73 v=0
178136 On ch=5 n=99 v=0
178136 On ch=5 n=60 v=0
178136 On ch=5 n=87 v=0
178140 On ch=5 n=51 v=100
178140 On ch=5 n=98 v=100
178140 On ch=5 n=86 v=100
178256 On ch=5 n=51 v=0
178256 On ch=5 n=98 v=0
178256 On ch=5 n=86 v=0
178320 On ch=5 n=49 v=100
178320 On ch=5 n=96 v=100
178320 On ch=5 n=84 v=100
178436 On ch=5 n=49 v=0
178436 On ch=5 n=96 v=0
178436 On ch=5 n=84 v=0
178440 On ch=5 n=51 v=100
178440 On ch=5 n=98 v=100
178440 On ch=5 n=86 v=100
178556 On ch=5 n=51 v=0
178556 On ch=5 n=98 v=0
178556 On ch=5 n=86 v=0
178560 On ch=5 n=53 v=100
178560 On ch=5 n=62 v=100
178560 On ch=5 n=74 v=100
178560 On ch=5 n=100 v=100
178560 On ch=5 n=88 v=100
178676 On ch=5 n=53 v=0
178676 On ch=5 n=62 v=0
178676 On ch=5 n=74 v=0
178676 On ch=5 n=100 v=0
178676 On ch=5 n=88 v=0
178680 On ch=5 n=51 v=100
178680 On ch=5 n=98 v=100
178680 On ch=5 n=86 v=100
178796 On ch=5 n=51 v=0
178796 On ch=5 n=98 v=0
178796 On ch=5 n=86 v=0
178800 On ch=5 n=50 v=100
178800 On ch=5 n=97 v=100
178800 On ch=5 n=85 v=100
178916 On ch=5 n=50 v=0
178916 On ch=5 n=97 v=0
178916 On ch=5 n=85 v=0
178920 On ch=5 n=51 v=100
178920 On ch=5 n=98 v=100
178920 On ch=5 n=86 v=100
179036 On ch=5 n=51 v=0
179036 On ch=5 n=98 v=0
179036 On ch=5 n=86 v=0
179040 On ch=5 n=50 v=100
179040 On ch=5 n=61 v=100
179040 On ch=5 n=72 v=100
179040 On ch=5 n=97 v=100
179040 On ch=5 n=85 v=100
179156 On ch=5 n=50 v=0
179156 On ch=5 n=61 v=0
179156 On ch=5 n=72 v=0
179156 On ch=5 n=97 v=0
179156 On ch=5 n=85 v=0
179520 On ch=5 n=47 v=100
179520 On ch=5 n=60 v=100
179520 On ch=5 n=72 v=100
179520 On ch=5 n=96 v=100
179520 On ch=5 n=105 v=100
179520 On ch=5 n=84 v=100
179636 On ch=5 n=47 v=0
179636 On ch=5 n=60 v=0
179636 On ch=5 n=72 v=0
179636 On ch=5 n=96 v=0
179636 On ch=5 n=84 v=0
179880 On ch=5 n=47 v=100
179880 On ch=5 n=96 v=100
179880 On ch=5 n=84 v=100
179996 On ch=5 n=47 v=0
179996 On ch=5 n=96 v=0
179996 On ch=5 n=84 v=0
180000 On ch=5 n=49 v=100
180000 On ch=5 n=61 v=100
180000 On ch=5 n=73 v=100
180000 On ch=5 n=98 v=100
180000 On ch=5 n=86 v=100
180116 On ch=5 n=49 v=0
180116 On ch=5 n=61 v=0
180116 On ch=5 n=73 v=0
180116 On ch=5 n=98 v=0
180116 On ch=5 n=86 v=0
180240 On ch=5 n=47 v=100
180240 On ch=5 n=96 v=100
180240 On ch=5 n=84 v=100
180356 On ch=5 n=47 v=0
180356 On ch=5 n=96 v=0
180356 On ch=5 n=84 v=0
180480 On ch=5 n=49 v=100
180480 On ch=5 n=73 v=100
180480 On ch=5 n=98 v=100
180480 On ch=5 n=86 v=100
180596 On ch=5 n=49 v=0
180596 On ch=5 n=73 v=0
180596 On ch=5 n=98 v=0
180596 On ch=5 n=86 v=0
180720 On ch=5 n=49 v=100
180720 On ch=5 n=62 v=100
180720 On ch=5 n=74 v=100
180720 On ch=5 n=98 v=100
180720 On ch=5 n=116 v=100
180720 On ch=5 n=86 v=100
180776 On ch=5 n=49 v=0
180776 On ch=5 n=98 v=0
180776 On ch=5 n=86 v=0
180780 On ch=5 n=99 v=100
180780 On ch=5 n=87 v=100
180836 On ch=5 n=62 v=0
180836 On ch=5 n=74 v=0
180840 On ch=5 n=51 v=100
180896 On ch=5 n=99 v=0
180896 On ch=5 n=87 v=0
180956 On ch=5 n=51 v=0
181080 On ch=5 n=49 v=100
181080 On ch=5 n=62 v=100
181080 On ch=5 n=74 v=100
181080 On ch=5 n=98 v=100
181080 On ch=5 n=86 v=100
181136 On ch=5 n=49 v=0
181136 On ch=5 n=98 v=0
181136 On ch=5 n=86 v=0
181140 On ch=5 n=99 v=100
181140 On ch=5 n=87 v=100
181196 On ch=5 n=62 v=0
181196 On ch=5 n=74 v=0
181200 On ch=5 n=51 v=100
181256 On ch=5 n=99 v=0
181256 On ch=5 n=87 v=0
181316 On ch=5 n=51 v=0
181440 On ch=5 n=49 v=100
181440 On ch=5 n=62 v=100
181440 On ch=5 n=74 v=100
181440 On ch=5 n=98 v=100
181440 On ch=5 n=86 v=100
181496 On ch=5 n=49 v=0
181496 On ch=5 n=98 v=0
181496 On ch=5 n=86 v=0
181500 On ch=5 n=99 v=100
181500 On ch=5 n=87 v=100
181556 On ch=5 n=62 v=0
181556 On ch=5 n=74 v=0
181560 On ch=5 n=51 v=100
181616 On ch=5 n=99 v=0
181616 On ch=5 n=87 v=0
181676 On ch=5 n=51 v=0
181800 On ch=5 n=49 v=100
181800 On ch=5 n=62 v=100
181800 On ch=5 n=74 v=100
181800 On ch=5 n=98 v=100
181800 On ch=5 n=86 v=100
181856 On ch=5 n=49 v=0
181856 On ch=5 n=98 v=0
181856 On ch=5 n=86 v=0
181860 On ch=5 n=99 v=100
181860 On ch=5 n=87 v=100
181920 On ch=5 n=51 v=100
185216 On ch=5 n=62 v=0
185216 On ch=5 n=74 v=0
185276 On ch=5 n=99 v=0
185276 On ch=5 n=87 v=0
185276 On ch=5 n=51 v=0
185280 On ch=5 n=116 v=0
185280 Meta Text "[idle]"
185516 On ch=5 n=103 v=0
185520 On ch=5 n=106 v=0
185520 On ch=5 n=105 v=0
186000 On ch=5 n=40 v=100
197036 On ch=5 n=40 v=0
197280 Meta Text "[play]"
197280 On ch=5 n=106 v=100
197280 On ch=5 n=105 v=100
197520 On ch=5 n=45 v=100
197520 On ch=5 n=84 v=100
197520 On ch=5 n=86 v=100
197520 On ch=5 n=96 v=100
197520 On ch=5 n=98 v=100
197520 On ch=5 n=72 v=100
197636 On ch=5 n=84 v=0
197636 On ch=5 n=86 v=0
197636 On ch=5 n=96 v=0
197636 On ch=5 n=98 v=0
197640 On ch=5 n=72 v=0
197640 On ch=5 n=96 v=100
197640 On ch=5 n=98 v=100
197756 On ch=5 n=96 v=0
197756 On ch=5 n=98 v=0
197760 On ch=5 n=60 v=100
197760 On ch=5 n=72 v=100
197760 On ch=5 n=84 v=100
197760 On ch=5 n=86 v=100
197760 On ch=5 n=96 v=100
197760 On ch=5 n=98 v=100
197876 On ch=5 n=45 v=0
197876 On ch=5 n=60 v=0
197876 On ch=5 n=72 v=0
197876 On ch=5 n=84 v=0
197876 On ch=5 n=86 v=0
197876 On ch=5 n=96 v=0
197876 On ch=5 n=98 v=0
198000 On ch=5 n=46 v=100
198000 On ch=5 n=85 v=100
198000 On ch=5 n=87 v=100
198000 On ch=5 n=97 v=100
198000 On ch=5 n=99 v=100
198000 On ch=5 n=73 v=100
198116 On ch=5 n=85 v=0
198116 On ch=5 n=87 v=0
198116 On ch=5 n=97 v=0
198116 On ch=5 n=99 v=0
198120 On ch=5 n=73 v=0
198120 On ch=5 n=97 v=100
198120 On ch=5 n=99 v=100
198236 On ch=5 n=97 v=0
198236 On ch=5 n=99 v=0
198240 On ch=5 n=61 v=100
198240 On ch=5 n=73 v=100
198240 On ch=5 n=85 v=100
198240 On ch=5 n=87 v=100
198240 On ch=5 n=97 v=100
198240 On ch=5 n=99 v=100
198356 On ch=5 n=46 v=0
198356 On ch=5 n=61 v=0
198356 On ch=5 n=73 v=0
198356 On ch=5 n=85 v=0
198356 On ch=5 n=87 v=0
198356 On ch=5 n=97 v=0
198356 On ch=5 n=99 v=0
198480 On ch=5 n=48 v=100
198480 On ch=5 n=86 v=100
198480 On ch=5 n=88 v=100
198480 On ch=5 n=98 v=100
198480 On ch=5 n=100 v=100
198480 On ch=5 n=74 v=100
198480 On ch=5 n=75 v=100
198596 On ch=5 n=86 v=0
198596 On ch=5 n=88 v=0
198596 On ch=5 n=98 v=0
198596 On ch=5 n=100 v=0
198600 On ch=5 n=74 v=0
198600 On ch=5 n=75 v=0
198600 On ch=5 n=98 v=100
198600 On ch=5 n=100 v=100
198716 On ch=5 n=98 v=0
198716 On ch=5 n=100 v=0
198720 Meta Text "[mellow]"
198720 On ch=5 n=62 v=100
198720 On ch=5 n=74 v=100
198720 On ch=5 n=75 v=100
198720 On ch=5 n=86 v=100
198720 On ch=5 n=88 v=100
198720 On ch=5 n=98 v=100
198720 On ch=5 n=100 v=100
204956 On ch=5 n=48 v=0
204956 On ch=5 n=62 v=0
204956 On ch=5 n=74 v=0
204956 On ch=5 n=75 v=0
204956 On ch=5 n=86 v=0
204956 On ch=5 n=88 v=0
204956 On ch=5 n=98 v=0
204956 On ch=5 n=100 v=0
204960 Meta Text "[play]"
205200 On ch=5 n=45 v=100
205200 On ch=5 n=84 v=100
205200 On ch=5 n=86 v=100
205200 On ch=5 n=96 v=100
205200 On ch=5 n=98 v=100
205200 On ch=5 n=72 v=100
205316 On ch=5 n=84 v=0
205316 On ch=5 n=86 v=0
205316 On ch=5 n=96 v=0
205316 On ch=5 n=98 v=0
205320 On ch=5 n=72 v=0
205320 On ch=5 n=96 v=100
205320 On ch=5 n=98 v=100
205436 On ch=5 n=96 v=0
205436 On ch=5 n=98 v=0
205440 On ch=5 n=60 v=100
205440 On ch=5 n=72 v=100
205440 On ch=5 n=84 v=100
205440 On ch=5 n=86 v=100
205440 On ch=5 n=96 v=100
205440 On ch=5 n=98 v=100
205556 On ch=5 n=45 v=0
205556 On ch=5 n=60 v=0
205556 On ch=5 n=72 v=0
205556 On ch=5 n=84 v=0
205556 On ch=5 n=86 v=0
205556 On ch=5 n=96 v=0
205556 On ch=5 n=98 v=0
205680 On ch=5 n=46 v=100
205680 On ch=5 n=85 v=100
205680 On ch=5 n=87 v=100
205680 On ch=5 n=97 v=100
205680 On ch=5 n=99 v=100
205680 On ch=5 n=73 v=100
205796 On ch=5 n=85 v=0
205796 On ch=5 n=87 v=0
205796 On ch=5 n=97 v=0
205796 On ch=5 n=99 v=0
205800 On ch=5 n=73 v=0
205800 On ch=5 n=97 v=100
205800 On ch=5 n=99 v=100
205916 On ch=5 n=97 v=0
205916 On ch=5 n=99 v=0
205920 On ch=5 n=61 v=100
205920 On ch=5 n=73 v=100
205920 On ch=5 n=85 v=100
205920 On ch=5 n=87 v=100
205920 On ch=5 n=97 v=100
205920 On ch=5 n=99 v=100
206036 On ch=5 n=46 v=0
206036 On ch=5 n=61 v=0
206036 On ch=5 n=73 v=0
206036 On ch=5 n=85 v=0
206036 On ch=5 n=87 v=0
206036 On ch=5 n=97 v=0
206036 On ch=5 n=99 v=0
206160 On ch=5 n=48 v=100
206160 On ch=5 n=86 v=100
206160 On ch=5 n=88 v=100
206160 On ch=5 n=98 v=100
206160 On ch=5 n=100 v=100
206160 On ch=5 n=75 v=100
206160 On ch=5 n=74 v=100
206276 On ch=5 n=86 v=0
206276 On ch=5 n=88 v=0
206276 On ch=5 n=98 v=0
206276 On ch=5 n=100 v=0
206280 On ch=5 n=75 v=0
206280 On ch=5 n=74 v=0
206280 On ch=5 n=98 v=100
206280 On ch=5 n=100 v=100
206396 On ch=5 n=98 v=0
206396 On ch=5 n=100 v=0
206400 On ch=5 n=62 v=100
206400 On ch=5 n=74 v=100
206400 On ch=5 n=75 v=100
206400 On ch=5 n=86 v=100
206400 On ch=5 n=88 v=100
206400 On ch=5 n=98 v=100
206400 On ch=5 n=100 v=100
209756 On ch=5 n=62 v=0
209756 On ch=5 n=74 v=0
209756 On ch=5 n=75 v=0
209756 On ch=5 n=86 v=0
209756 On ch=5 n=88 v=0
209756 On ch=5 n=98 v=0
209756 On ch=5 n=100 v=0
209876 On ch=5 n=48 v=0
210000 On ch=5 n=46 v=100
210000 On ch=5 n=85 v=100
210000 On ch=5 n=86 v=100
210000 On ch=5 n=97 v=100
210000 On ch=5 n=98 v=100
210116 On ch=5 n=85 v=0
210116 On ch=5 n=86 v=0
210116 On ch=5 n=97 v=0
210116 On ch=5 n=98 v=0
210120 On ch=5 n=97 v=100
210120 On ch=5 n=98 v=100
210236 On ch=5 n=97 v=0
210236 On ch=5 n=98 v=0
210240 On ch=5 n=61 v=100
210240 On ch=5 n=73 v=100
210240 On ch=5 n=85 v=100
210240 On ch=5 n=86 v=100
210240 On ch=5 n=97 v=100
210240 On ch=5 n=98 v=100
211676 On ch=5 n=46 v=0
211796 On ch=5 n=61 v=0
211796 On ch=5 n=73 v=0
211796 On ch=5 n=85 v=0
211796 On ch=5 n=86 v=0
211796 On ch=5 n=97 v=0
211796 On ch=5 n=98 v=0
211920 On ch=5 n=47 v=100
211920 On ch=5 n=86 v=100
211920 On ch=5 n=98 v=100
212036 On ch=5 n=86 v=0
212036 On ch=5 n=98 v=0
212040 On ch=5 n=98 v=100
212156 On ch=5 n=98 v=0
212160 On ch=5 n=62 v=100
212160 On ch=5 n=74 v=100
212160 On ch=5 n=86 v=100
212160 On ch=5 n=88 v=100
212160 On ch=5 n=98 v=100
212160 On ch=5 n=100 v=100
212636 On ch=5 n=47 v=0
212636 On ch=5 n=62 v=0
212636 On ch=5 n=74 v=0
212636 On ch=5 n=86 v=0
212636 On ch=5 n=88 v=0
212636 On ch=5 n=98 v=0
212636 On ch=5 n=100 v=0
212880 On ch=5 n=46 v=100
212880 On ch=5 n=85 v=100
212880 On ch=5 n=86 v=100
212880 On ch=5 n=97 v=100
212880 On ch=5 n=98 v=100
212996 On ch=5 n=85 v=0
212996 On ch=5 n=86 v=0
212996 On ch=5 n=97 v=0
212996 On ch=5 n=98 v=0
213120 On ch=5 n=61 v=100
213120 On ch=5 n=73 v=100
213120 On ch=5 n=85 v=100
213120 On ch=5 n=86 v=100
213120 On ch=5 n=97 v=100
213120 On ch=5 n=98 v=100
213596 On ch=5 n=46 v=0
213596 On ch=5 n=61 v=0
213596 On ch=5 n=73 v=0
213596 On ch=5 n=85 v=0
213596 On ch=5 n=86 v=0
213596 On ch=5 n=97 v=0
213596 On ch=5 n=98 v=0
213840 On ch=5 n=44 v=100
213840 On ch=5 n=84 v=100
213840 On ch=5 n=86 v=100
213840 On ch=5 n=96 v=100
213840 On ch=5 n=98 v=100
213956 On ch=5 n=84 v=0
213956 On ch=5 n=86 v=0
213956 On ch=5 n=96 v=0
213956 On ch=5 n=98 v=0
213960 On ch=5 n=96 v=100
213960 On ch=5 n=98 v=100
214076 On ch=5 n=96 v=0
214076 On ch=5 n=98 v=0
214080 On ch=5 n=60 v=100
214080 On ch=5 n=72 v=100
214080 On ch=5 n=73 v=100
214080 On ch=5 n=84 v=100
214080 On ch=5 n=86 v=100
214080 On ch=5 n=96 v=100
214080 On ch=5 n=98 v=100
215880 On ch=5 n=60 v=0
215880 On ch=5 n=72 v=0
215880 On ch=5 n=73 v=0
215880 On ch=5 n=84 v=0
215880 On ch=5 n=86 v=0
215880 On ch=5 n=96 v=0
215880 On ch=5 n=98 v=0
216000 On ch=5 n=60 v=100
216000 On ch=5 n=72 v=100
216000 On ch=5 n=73 v=100
216000 On ch=5 n=84 v=100
216000 On ch=5 n=86 v=100
216000 On ch=5 n=96 v=100
216000 On ch=5 n=98 v=100
216116 On ch=5 n=60 v=0
216116 On ch=5 n=72 v=0
216116 On ch=5 n=73 v=0
216116 On ch=5 n=84 v=0
216116 On ch=5 n=86 v=0
216116 On ch=5 n=96 v=0
216116 On ch=5 n=98 v=0
216240 On ch=5 n=72 v=100
216240 On ch=5 n=73 v=100
216240 On ch=5 n=84 v=100
216240 On ch=5 n=86 v=100
216240 On ch=5 n=96 v=100
216240 On ch=5 n=98 v=100
216240 On ch=5 n=60 v=100
216356 On ch=5 n=72 v=0
216356 On ch=5 n=73 v=0
216356 On ch=5 n=84 v=0
216356 On ch=5 n=86 v=0
216356 On ch=5 n=96 v=0
216356 On ch=5 n=98 v=0
216360 On ch=5 n=60 v=0
216480 On ch=5 n=60 v=100
216480 On ch=5 n=72 v=100
216480 On ch=5 n=73 v=100
216480 On ch=5 n=84 v=100
216480 On ch=5 n=86 v=100
216480 On ch=5 n=96 v=100
216480 On ch=5 n=98 v=100
216596 On ch=5 n=60 v=0
216596 On ch=5 n=72 v=0
216596 On ch=5 n=73 v=0
216596 On ch=5 n=84 v=0
216596 On ch=5 n=86 v=0
216596 On ch=5 n=96 v=0
216596 On ch=5 n=98 v=0
216720 On ch=5 n=72 v=100
216720 On ch=5 n=73 v=100
216720 On ch=5 n=84 v=100
216720 On ch=5 n=86 v=100
216720 On ch=5 n=96 v=100
216720 On ch=5 n=98 v=100
216720 On ch=5 n=60 v=100
216836 On ch=5 n=72 v=0
216836 On ch=5 n=73 v=0
216836 On ch=5 n=84 v=0
216836 On ch=5 n=86 v=0
216836 On ch=5 n=96 v=0
216836 On ch=5 n=98 v=0
216840 On ch=5 n=60 v=0
216960 On ch=5 n=60 v=100
216960 On ch=5 n=72 v=100
216960 On ch=5 n=73 v=100
216960 On ch=5 n=84 v=100
216960 On ch=5 n=86 v=100
216960 On ch=5 n=96 v=100
216960 On ch=5 n=98 v=100
216960 On ch=5 n=116 v=100
217076 On ch=5 n=60 v=0
217076 On ch=5 n=72 v=0
217076 On ch=5 n=73 v=0
217076 On ch=5 n=84 v=0
217076 On ch=5 n=86 v=0
217076 On ch=5 n=96 v=0
217076 On ch=5 n=98 v=0
217200 On ch=5 n=72 v=100
217200 On ch=5 n=73 v=100
217200 On ch=5 n=84 v=100
217200 On ch=5 n=86 v=100
217200 On ch=5 n=96 v=100
217200 On ch=5 n=98 v=100
217200 On ch=5 n=60 v=100
217316 On ch=5 n=72 v=0
217316 On ch=5 n=73 v=0
217316 On ch=5 n=84 v=0
217316 On ch=5 n=86 v=0
217316 On ch=5 n=96 v=0
217316 On ch=5 n=98 v=0
217320 On ch=5 n=60 v=0
217440 On ch=5 n=60 v=100
217440 On ch=5 n=72 v=100
217440 On ch=5 n=73 v=100
217440 On ch=5 n=84 v=100
217440 On ch=5 n=86 v=100
217440 On ch=5 n=96 v=100
217440 On ch=5 n=98 v=100
217556 On ch=5 n=60 v=0
217556 On ch=5 n=72 v=0
217556 On ch=5 n=73 v=0
217556 On ch=5 n=84 v=0
217556 On ch=5 n=86 v=0
217556 On ch=5 n=96 v=0
217556 On ch=5 n=98 v=0
217680 On ch=5 n=72 v=100
217680 On ch=5 n=73 v=100
217680 On ch=5 n=84 v=100
217680 On ch=5 n=86 v=100
217680 On ch=5 n=96 v=100
217680 On ch=5 n=98 v=100
217680 On ch=5 n=60 v=100
217796 On ch=5 n=44 v=0
217796 On ch=5 n=72 v=0
217796 On ch=5 n=73 v=0
217796 On ch=5 n=84 v=0
217796 On ch=5 n=86 v=0
217796 On ch=5 n=96 v=0
217796 On ch=5 n=98 v=0
217800 On ch=5 n=60 v=0
217920 On ch=5 n=50 v=100
217920 On ch=5 n=62 v=100
217920 On ch=5 n=74 v=100
217920 On ch=5 n=86 v=100
217920 On ch=5 n=88 v=100
217920 On ch=5 n=98 v=100
217920 On ch=5 n=100 v=100
218036 On ch=5 n=62 v=0
218036 On ch=5 n=74 v=0
218036 On ch=5 n=86 v=0
218036 On ch=5 n=88 v=0
218036 On ch=5 n=98 v=0
218036 On ch=5 n=100 v=0
218160 On ch=5 n=74 v=100
218160 On ch=5 n=86 v=100
218160 On ch=5 n=88 v=100
218160 On ch=5 n=98 v=100
218160 On ch=5 n=100 v=100
218160 On ch=5 n=62 v=100
218276 On ch=5 n=74 v=0
218276 On ch=5 n=86 v=0
218276 On ch=5 n=88 v=0
218276 On ch=5 n=98 v=0
218276 On ch=5 n=100 v=0
218276 On ch=5 n=62 v=0
218280 On ch=5 n=116 v=0
218396 On ch=5 n=106 v=0
218396 On ch=5 n=50 v=0
218400 On ch=5 n=97 v=100
218400 On ch=5 n=85 v=100
218516 On ch=5 n=97 v=0
218520 On ch=5 n=85 v=0
218520 On ch=5 n=97 v=100
218636 On ch=5 n=97 v=0
218640 On ch=5 n=97 v=100
218640 On ch=5 n=85 v=100
218756 On ch=5 n=97 v=0
218760 On ch=5 n=85 v=0
218760 On ch=5 n=97 v=100
218876 On ch=5 n=97 v=0
218880 On ch=5 n=48 v=100
218880 On ch=5 n=61 v=100
218880 On ch=5 n=73 v=100
218880 On ch=5 n=85 v=100
218880 On ch=5 n=87 v=100
218880 On ch=5 n=97 v=100
218880 On ch=5 n=99 v=100
218996 On ch=5 n=61 v=0
218996 On ch=5 n=73 v=0
218996 On ch=5 n=85 v=0
218996 On ch=5 n=87 v=0
218996 On ch=5 n=97 v=0
218996 On ch=5 n=99 v=0
219120 On ch=5 n=73 v=100
219120 On ch=5 n=85 v=100
219120 On ch=5 n=87 v=100
219120 On ch=5 n=97 v=100
219120 On ch=5 n=99 v=100
219120 On ch=5 n=61 v=100
219236 On ch=5 n=73 v=0
219236 On ch=5 n=85 v=0
219236 On ch=5 n=87 v=0
219236 On ch=5 n=97 v=0
219236 On ch=5 n=99 v=0
219236 On ch=5 n=61 v=0
219356 On ch=5 n=48 v=0
219360 On ch=5 n=97 v=100
219360 On ch=5 n=85 v=100
219476 On ch=5 n=97 v=0
219480 On ch=5 n=85 v=0
219480 On ch=5 n=97 v=100
219596 On ch=5 n=97 v=0
219600 On ch=5 n=97 v=100
219600 On ch=5 n=85 v=100
219716 On ch=5 n=97 v=0
219720 On ch=5 n=85 v=0
219720 On ch=5 n=97 v=100
219836 On ch=5 n=97 v=0
219840 On ch=5 n=48 v=100
219840 On ch=5 n=60 v=100
219840 On ch=5 n=73 v=100
219840 On ch=5 n=85 v=100
219840 On ch=5 n=87 v=100
219840 On ch=5 n=97 v=100
219840 On ch=5 n=99 v=100
219956 On ch=5 n=48 v=0
219956 On ch=5 n=60 v=0
219956 On ch=5 n=73 v=0
219956 On ch=5 n=85 v=0
219956 On ch=5 n=87 v=0
219956 On ch=5 n=97 v=0
219956 On ch=5 n=99 v=0
220080 On ch=5 n=46 v=100
220080 On ch=5 n=72 v=100
220080 On ch=5 n=84 v=100
220080 On ch=5 n=86 v=100
220080 On ch=5 n=96 v=100
220080 On ch=5 n=98 v=100
220080 On ch=5 n=60 v=100
220196 On ch=5 n=72 v=0
220196 On ch=5 n=84 v=0
220196 On ch=5 n=86 v=0
220196 On ch=5 n=96 v=0
220196 On ch=5 n=98 v=0
220196 On ch=5 n=60 v=0
220320 On ch=5 n=96 v=100
220320 On ch=5 n=84 v=100
220436 On ch=5 n=96 v=0
220440 On ch=5 n=84 v=0
220440 On ch=5 n=96 v=100
220556 On ch=5 n=96 v=0
220560 On ch=5 n=60 v=100
220560 On ch=5 n=72 v=100
220560 On ch=5 n=84 v=100
220560 On ch=5 n=86 v=100
220560 On ch=5 n=96 v=100
220560 On ch=5 n=98 v=100
220920 On ch=5 n=72 v=0
220920 On ch=5 n=84 v=0
220920 On ch=5 n=86 v=0
220920 On ch=5 n=96 v=0
220920 On ch=5 n=98 v=0
221036 On ch=5 n=60 v=0
221040 On ch=5 n=72 v=100
221040 On ch=5 n=84 v=100
221040 On ch=5 n=86 v=100
221040 On ch=5 n=96 v=100
221040 On ch=5 n=98 v=100
221156 On ch=5 n=72 v=0
221156 On ch=5 n=84 v=0
221156 On ch=5 n=86 v=0
221156 On ch=5 n=96 v=0
221156 On ch=5 n=98 v=0
221276 On ch=5 n=46 v=0
221280 On ch=5 n=98 v=100
221280 On ch=5 n=86 v=100
221396 On ch=5 n=98 v=0
221400 On ch=5 n=86 v=0
221400 On ch=5 n=98 v=100
221516 On ch=5 n=98 v=0
221520 On ch=5 n=98 v=100
221520 On ch=5 n=86 v=100
221636 On ch=5 n=98 v=0
221640 On ch=5 n=86 v=0
221640 On ch=5 n=98 v=100
221756 On ch=5 n=105 v=0
221756 On ch=5 n=98 v=0
221760 On ch=5 n=50 v=100
221760 On ch=5 n=62 v=100
221760 On ch=5 n=74 v=100
221760 On ch=5 n=86 v=100
221760 On ch=5 n=88 v=100
221760 On ch=5 n=98 v=100
221760 On ch=5 n=100 v=100
221760 On ch=5 n=106 v=100
221760 On ch=5 n=116 v=100
221876 On ch=5 n=62 v=0
221876 On ch=5 n=74 v=0
221876 On ch=5 n=86 v=0
221876 On ch=5 n=88 v=0
221876 On ch=5 n=98 v=0
221876 On ch=5 n=100 v=0
222000 On ch=5 n=74 v=100
222000 On ch=5 n=86 v=100
222000 On ch=5 n=88 v=100
222000 On ch=5 n=98 v=100
222000 On ch=5 n=100 v=100
222000 On ch=5 n=62 v=100
222116 On ch=5 n=74 v=0
222116 On ch=5 n=86 v=0
222116 On ch=5 n=88 v=0
222116 On ch=5 n=98 v=0
222116 On ch=5 n=100 v=0
222116 On ch=5 n=62 v=0
222236 On ch=5 n=50 v=0
222240 On ch=5 n=97 v=100
222240 On ch=5 n=85 v=100
222356 On ch=5 n=97 v=0
222360 On ch=5 n=85 v=0
222360 On ch=5 n=97 v=100
222476 On ch=5 n=97 v=0
222480 On ch=5 n=97 v=100
222480 On ch=5 n=85 v=100
222596 On ch=5 n=97 v=0
222600 On ch=5 n=85 v=0
222600 On ch=5 n=97 v=100
222716 On ch=5 n=97 v=0
222720 On ch=5 n=48 v=100
222720 On ch=5 n=61 v=100
222720 On ch=5 n=73 v=100
222720 On ch=5 n=85 v=100
222720 On ch=5 n=87 v=100
222720 On ch=5 n=97 v=100
222720 On ch=5 n=99 v=100
222836 On ch=5 n=61 v=0
222836 On ch=5 n=73 v=0
222836 On ch=5 n=85 v=0
222836 On ch=5 n=87 v=0
222836 On ch=5 n=97 v=0
222836 On ch=5 n=99 v=0
222960 On ch=5 n=73 v=100
222960 On ch=5 n=85 v=100
222960 On ch=5 n=87 v=100
222960 On ch=5 n=97 v=100
222960 On ch=5 n=99 v=100
222960 On ch=5 n=61 v=100
223076 On ch=5 n=73 v=0
223076 On ch=5 n=85 v=0
223076 On ch=5 n=87 v=0
223076 On ch=5 n=97 v=0
223076 On ch=5 n=99 v=0
223076 On ch=5 n=61 v=0
223196 On ch=5 n=48 v=0
223200 On ch=5 n=116 v=0
223200 On ch=5 n=97 v=100
223200 On ch=5 n=85 v=100
223316 On ch=5 n=97 v=0
223320 On ch=5 n=85 v=0
223320 On ch=5 n=97 v=100
223436 On ch=5 n=97 v=0
223440 On ch=5 n=97 v=100
223440 On ch=5 n=85 v=100
223556 On ch=5 n=97 v=0
223560 On ch=5 n=85 v=0
223560 On ch=5 n=97 v=100
223676 On ch=5 n=97 v=0
223680 On ch=5 n=48 v=100
223680 On ch=5 n=60 v=100
223680 On ch=5 n=73 v=100
223680 On ch=5 n=85 v=100
223680 On ch=5 n=87 v=100
223680 On ch=5 n=97 v=100
223680 On ch=5 n=99 v=100
223796 On ch=5 n=48 v=0
223796 On ch=5 n=60 v=0
223796 On ch=5 n=73 v=0
223796 On ch=5 n=85 v=0
223796 On ch=5 n=87 v=0
223796 On ch=5 n=97 v=0
223796 On ch=5 n=99 v=0
223920 On ch=5 n=46 v=100
223920 On ch=5 n=72 v=100
223920 On ch=5 n=84 v=100
223920 On ch=5 n=86 v=100
223920 On ch=5 n=96 v=100
223920 On ch=5 n=98 v=100
223920 On ch=5 n=60 v=100
224036 On ch=5 n=72 v=0
224036 On ch=5 n=84 v=0
224036 On ch=5 n=86 v=0
224036 On ch=5 n=96 v=0
224036 On ch=5 n=98 v=0
224036 On ch=5 n=60 v=0
224160 On ch=5 n=96 v=100
224160 On ch=5 n=84 v=100
224276 On ch=5 n=96 v=0
224280 On ch=5 n=84 v=0
224280 On ch=5 n=96 v=100
224396 On ch=5 n=96 v=0
224400 On ch=5 n=60 v=100
224400 On ch=5 n=72 v=100
224400 On ch=5 n=84 v=100
224400 On ch=5 n=86 v=100
224400 On ch=5 n=96 v=100
224400 On ch=5 n=98 v=100
224760 On ch=5 n=72 v=0
224760 On ch=5 n=84 v=0
224760 On ch=5 n=86 v=0
224760 On ch=5 n=96 v=0
224760 On ch=5 n=98 v=0
224876 On ch=5 n=60 v=0
224880 On ch=5 n=72 v=100
224880 On ch=5 n=84 v=100
224880 On ch=5 n=86 v=100
224880 On ch=5 n=96 v=100
224880 On ch=5 n=98 v=100
224996 On ch=5 n=72 v=0
224996 On ch=5 n=84 v=0
224996 On ch=5 n=86 v=0
224996 On ch=5 n=96 v=0
224996 On ch=5 n=98 v=0
225116 On ch=5 n=46 v=0
225120 On ch=5 n=98 v=100
225120 On ch=5 n=84 v=100
225236 On ch=5 n=98 v=0
225240 On ch=5 n=84 v=0
225240 On ch=5 n=98 v=100
225356 On ch=5 n=98 v=0
225360 On ch=5 n=98 v=100
225360 On ch=5 n=84 v=100
225476 On ch=5 n=98 v=0
225480 On ch=5 n=84 v=0
225480 On ch=5 n=98 v=100
225596 On ch=5 n=106 v=0
225596 On ch=5 n=98 v=0
225600 On ch=5 n=50 v=100
225600 On ch=5 n=62 v=100
225600 On ch=5 n=74 v=100
225600 On ch=5 n=86 v=100
225600 On ch=5 n=88 v=100
225600 On ch=5 n=98 v=100
225600 On ch=5 n=100 v=100
225600 On ch=5 n=105 v=100
225716 On ch=5 n=62 v=0
225716 On ch=5 n=74 v=0
225716 On ch=5 n=86 v=0
225716 On ch=5 n=88 v=0
225716 On ch=5 n=98 v=0
225716 On ch=5 n=100 v=0
225840 On ch=5 n=74 v=100
225840 On ch=5 n=86 v=100
225840 On ch=5 n=88 v=100
225840 On ch=5 n=98 v=100
225840 On ch=5 n=100 v=100
225840 On ch=5 n=62 v=100
225956 On ch=5 n=74 v=0
225956 On ch=5 n=86 v=0
225956 On ch=5 n=88 v=0
225956 On ch=5 n=98 v=0
225956 On ch=5 n=100 v=0
225956 On ch=5 n=62 v=0
226076 On ch=5 n=50 v=0
226080 On ch=5 n=97 v=100
226080 On ch=5 n=85 v=100
226196 On ch=5 n=97 v=0
226200 On ch=5 n=85 v=0
226200 On ch=5 n=97 v=100
226316 On ch=5 n=97 v=0
226320 On ch=5 n=97 v=100
226320 On ch=5 n=85 v=100
226436 On ch=5 n=97 v=0
226440 On ch=5 n=85 v=0
226440 On ch=5 n=97 v=100
226556 On ch=5 n=97 v=0
226560 On ch=5 n=48 v=100
226560 On ch=5 n=61 v=100
226560 On ch=5 n=73 v=100
226560 On ch=5 n=85 v=100
226560 On ch=5 n=87 v=100
226560 On ch=5 n=97 v=100
226560 On ch=5 n=99 v=100
226676 On ch=5 n=61 v=0
226676 On ch=5 n=73 v=0
226676 On ch=5 n=85 v=0
226676 On ch=5 n=87 v=0
226676 On ch=5 n=97 v=0
226676 On ch=5 n=99 v=0
226800 On ch=5 n=73 v=100
226800 On ch=5 n=85 v=100
226800 On ch=5 n=87 v=100
226800 On ch=5 n=97 v=100
226800 On ch=5 n=99 v=100
226800 On ch=5 n=61 v=100
226916 On ch=5 n=73 v=0
226916 On ch=5 n=85 v=0
226916 On ch=5 n=87 v=0
226916 On ch=5 n=97 v=0
226916 On ch=5 n=99 v=0
226916 On ch=5 n=61 v=0
227036 On ch=5 n=48 v=0
227040 On ch=5 n=97 v=100
227040 On ch=5 n=85 v=100
227156 On ch=5 n=97 v=0
227160 On ch=5 n=85 v=0
227160 On ch=5 n=97 v=100
227276 On ch=5 n=97 v=0
227280 On ch=5 n=97 v=100
227280 On ch=5 n=85 v=100
227396 On ch=5 n=97 v=0
227400 On ch=5 n=85 v=0
227400 On ch=5 n=97 v=100
227516 On ch=5 n=97 v=0
227520 On ch=5 n=48 v=100
227520 On ch=5 n=60 v=100
227520 On ch=5 n=73 v=100
227520 On ch=5 n=85 v=100
227520 On ch=5 n=87 v=100
227520 On ch=5 n=97 v=100
227520 On ch=5 n=99 v=100
227636 On ch=5 n=48 v=0
227636 On ch=5 n=60 v=0
227636 On ch=5 n=73 v=0
227636 On ch=5 n=85 v=0
227636 On ch=5 n=87 v=0
227636 On ch=5 n=97 v=0
227636 On ch=5 n=99 v=0
227760 On ch=5 n=46 v=100
227760 On ch=5 n=72 v=100
227760 On ch=5 n=84 v=100
227760 On ch=5 n=86 v=100
227760 On ch=5 n=96 v=100
227760 On ch=5 n=98 v=100
227760 On ch=5 n=60 v=100
227876 On ch=5 n=72 v=0
227876 On ch=5 n=84 v=0
227876 On ch=5 n=86 v=0
227876 On ch=5 n=96 v=0
227876 On ch=5 n=98 v=0
227876 On ch=5 n=60 v=0
228000 On ch=5 n=96 v=100
228000 On ch=5 n=84 v=100
228116 On ch=5 n=96 v=0
228120 On ch=5 n=84 v=0
228120 On ch=5 n=96 v=100
228236 On ch=5 n=96 v=0
228240 On ch=5 n=60 v=100
228240 On ch=5 n=72 v=100
228240 On ch=5 n=84 v=100
228240 On ch=5 n=86 v=100
228240 On ch=5 n=96 v=100
228240 On ch=5 n=98 v=100
228600 On ch=5 n=72 v=0
228600 On ch=5 n=84 v=0
228600 On ch=5 n=86 v=0
228600 On ch=5 n=96 v=0
228600 On ch=5 n=98 v=0
228716 On ch=5 n=60 v=0
228720 On ch=5 n=72 v=100
228720 On ch=5 n=84 v=100
228720 On ch=5 n=86 v=100
228720 On ch=5 n=96 v=100
228720 On ch=5 n=98 v=100
228836 On ch=5 n=72 v=0
228836 On ch=5 n=84 v=0
228836 On ch=5 n=86 v=0
228836 On ch=5 n=96 v=0
228836 On ch=5 n=98 v=0
228956 On ch=5 n=46 v=0
228960 On ch=5 n=98 v=100
228960 On ch=5 n=86 v=100
229076 On ch=5 n=98 v=0
229080 On ch=5 n=86 v=0
229080 On ch=5 n=98 v=100
229196 On ch=5 n=98 v=0
229200 On ch=5 n=98 v=100
229200 On ch=5 n=86 v=100
229316 On ch=5 n=98 v=0
229320 On ch=5 n=86 v=0
229320 On ch=5 n=98 v=100
229436 On ch=5 n=105 v=0
229436 On ch=5 n=98 v=0
229440 On ch=5 n=50 v=100
229440 On ch=5 n=62 v=100
229440 On ch=5 n=74 v=100
229440 On ch=5 n=86 v=100
229440 On ch=5 n=88 v=100
229440 On ch=5 n=98 v=100
229440 On ch=5 n=100 v=100
229440 On ch=5 n=106 v=100
229556 On ch=5 n=62 v=0
229556 On ch=5 n=74 v=0
229556 On ch=5 n=86 v=0
229556 On ch=5 n=88 v=0
229556 On ch=5 n=98 v=0
229556 On ch=5 n=100 v=0
229680 On ch=5 n=74 v=100
229680 On ch=5 n=86 v=100
229680 On ch=5 n=88 v=100
229680 On ch=5 n=98 v=100
229680 On ch=5 n=100 v=100
229680 On ch=5 n=62 v=100
229796 On ch=5 n=74 v=0
229796 On ch=5 n=86 v=0
229796 On ch=5 n=88 v=0
229796 On ch=5 n=98 v=0
229796 On ch=5 n=100 v=0
229796 On ch=5 n=62 v=0
229916 On ch=5 n=50 v=0
229920 On ch=5 n=97 v=100
229920 On ch=5 n=85 v=100
230036 On ch=5 n=97 v=0
230040 On ch=5 n=85 v=0
230040 On ch=5 n=97 v=100
230156 On ch=5 n=97 v=0
230160 On ch=5 n=97 v=100
230160 On ch=5 n=85 v=100
230276 On ch=5 n=97 v=0
230280 On ch=5 n=85 v=0
230280 On ch=5 n=97 v=100
230396 On ch=5 n=97 v=0
230400 On ch=5 n=48 v=100
230400 On ch=5 n=61 v=100
230400 On ch=5 n=73 v=100
230400 On ch=5 n=85 v=100
230400 On ch=5 n=87 v=100
230400 On ch=5 n=97 v=100
230400 On ch=5 n=99 v=100
230516 On ch=5 n=61 v=0
230516 On ch=5 n=73 v=0
230516 On ch=5 n=85 v=0
230516 On ch=5 n=87 v=0
230516 On ch=5 n=97 v=0
230516 On ch=5 n=99 v=0
230640 On ch=5 n=73 v=100
230640 On ch=5 n=85 v=100
230640 On ch=5 n=87 v=100
230640 On ch=5 n=97 v=100
230640 On ch=5 n=99 v=100
230640 On ch=5 n=61 v=100
230756 On ch=5 n=73 v=0
230756 On ch=5 n=85 v=0
230756 On ch=5 n=87 v=0
230756 On ch=5 n=97 v=0
230756 On ch=5 n=99 v=0
230756 On ch=5 n=61 v=0
230876 On ch=5 n=48 v=0
230880 On ch=5 n=97 v=100
230880 On ch=5 n=85 v=100
230996 On ch=5 n=97 v=0
231000 On ch=5 n=85 v=0
231000 On ch=5 n=97 v=100
231116 On ch=5 n=97 v=0
231120 On ch=5 n=97 v=100
231120 On ch=5 n=85 v=100
231236 On ch=5 n=97 v=0
231240 On ch=5 n=85 v=0
231240 On ch=5 n=97 v=100
231356 On ch=5 n=97 v=0
231360 On ch=5 n=48 v=100
231360 On ch=5 n=60 v=100
231360 On ch=5 n=73 v=100
231360 On ch=5 n=85 v=100
231360 On ch=5 n=87 v=100
231360 On ch=5 n=97 v=100
231360 On ch=5 n=99 v=100
231476 On ch=5 n=48 v=0
231476 On ch=5 n=60 v=0
231476 On ch=5 n=73 v=0
231476 On ch=5 n=85 v=0
231476 On ch=5 n=87 v=0
231476 On ch=5 n=97 v=0
231476 On ch=5 n=99 v=0
231600 On ch=5 n=46 v=100
231600 On ch=5 n=72 v=100
231600 On ch=5 n=84 v=100
231600 On ch=5 n=86 v=100
231600 On ch=5 n=96 v=100
231600 On ch=5 n=98 v=100
231600 On ch=5 n=60 v=100
231716 On ch=5 n=72 v=0
231716 On ch=5 n=84 v=0
231716 On ch=5 n=86 v=0
231716 On ch=5 n=96 v=0
231716 On ch=5 n=98 v=0
231716 On ch=5 n=60 v=0
231840 On ch=5 n=96 v=100
231840 On ch=5 n=84 v=100
231956 On ch=5 n=96 v=0
231960 On ch=5 n=84 v=0
231960 On ch=5 n=96 v=100
232076 On ch=5 n=96 v=0
232080 On ch=5 n=60 v=100
232080 On ch=5 n=72 v=100
232080 On ch=5 n=84 v=100
232080 On ch=5 n=86 v=100
232080 On ch=5 n=96 v=100
232080 On ch=5 n=98 v=100
232440 On ch=5 n=72 v=0
232440 On ch=5 n=84 v=0
232440 On ch=5 n=86 v=0
232440 On ch=5 n=96 v=0
232440 On ch=5 n=98 v=0
232556 On ch=5 n=60 v=0
232560 On ch=5 n=72 v=100
232560 On ch=5 n=84 v=100
232560 On ch=5 n=86 v=100
232560 On ch=5 n=96 v=100
232560 On ch=5 n=98 v=100
232676 On ch=5 n=72 v=0
232676 On ch=5 n=84 v=0
232676 On ch=5 n=86 v=0
232676 On ch=5 n=96 v=0
232676 On ch=5 n=98 v=0
232796 On ch=5 n=46 v=0
232800 On ch=5 n=98 v=100
232800 On ch=5 n=86 v=100
232916 On ch=5 n=98 v=0
232920 On ch=5 n=86 v=0
232920 On ch=5 n=98 v=100
233036 On ch=5 n=98 v=0
233040 On ch=5 n=98 v=100
233040 On ch=5 n=86 v=100
233156 On ch=5 n=98 v=0
233160 On ch=5 n=86 v=0
233160 On ch=5 n=98 v=100
233276 On ch=5 n=106 v=0
233276 On ch=5 n=98 v=0
233280 On ch=5 n=50 v=100
233280 On ch=5 n=62 v=100
233280 On ch=5 n=74 v=100
233280 On ch=5 n=86 v=100
233280 On ch=5 n=88 v=100
233280 On ch=5 n=98 v=100
233280 On ch=5 n=100 v=100
233280 On ch=5 n=105 v=100
233396 On ch=5 n=62 v=0
233396 On ch=5 n=74 v=0
233396 On ch=5 n=86 v=0
233396 On ch=5 n=88 v=0
233396 On ch=5 n=98 v=0
233396 On ch=5 n=100 v=0
233520 On ch=5 n=74 v=100
233520 On ch=5 n=86 v=100
233520 On ch=5 n=88 v=100
233520 On ch=5 n=98 v=100
233520 On ch=5 n=100 v=100
233520 On ch=5 n=62 v=100
233636 On ch=5 n=74 v=0
233636 On ch=5 n=86 v=0
233636 On ch=5 n=88 v=0
233636 On ch=5 n=98 v=0
233636 On ch=5 n=100 v=0
233636 On ch=5 n=62 v=0
233756 On ch=5 n=50 v=0
233760 On ch=5 n=97 v=100
233760 On ch=5 n=85 v=100
233876 On ch=5 n=97 v=0
233880 On ch=5 n=85 v=0
233880 On ch=5 n=97 v=100
233996 On ch=5 n=97 v=0
234000 On ch=5 n=97 v=100
234000 On ch=5 n=85 v=100
234116 On ch=5 n=97 v=0
234120 On ch=5 n=85 v=0
234120 On ch=5 n=97 v=100
234236 On ch=5 n=97 v=0
234240 On ch=5 n=48 v=100
234240 On ch=5 n=61 v=100
234240 On ch=5 n=73 v=100
234240 On ch=5 n=85 v=100
234240 On ch=5 n=87 v=100
234240 On ch=5 n=97 v=100
234240 On ch=5 n=99 v=100
234356 On ch=5 n=61 v=0
234356 On ch=5 n=73 v=0
234356 On ch=5 n=85 v=0
234356 On ch=5 n=87 v=0
234356 On ch=5 n=97 v=0
234356 On ch=5 n=99 v=0
234480 On ch=5 n=73 v=100
234480 On ch=5 n=85 v=100
234480 On ch=5 n=87 v=100
234480 On ch=5 n=97 v=100
234480 On ch=5 n=99 v=100
234480 On ch=5 n=61 v=100
234596 On ch=5 n=73 v=0
234596 On ch=5 n=85 v=0
234596 On ch=5 n=87 v=0
234596 On ch=5 n=97 v=0
234596 On ch=5 n=99 v=0
234596 On ch=5 n=61 v=0
234716 On ch=5 n=48 v=0
234720 On ch=5 n=97 v=100
234720 On ch=5 n=85 v=100
234836 On ch=5 n=97 v=0
234840 On ch=5 n=85 v=0
234840 On ch=5 n=97 v=100
234956 On ch=5 n=97 v=0
234960 On ch=5 n=97 v=100
234960 On ch=5 n=85 v=100
235076 On ch=5 n=97 v=0
235080 On ch=5 n=85 v=0
235080 On ch=5 n=97 v=100
235196 On ch=5 n=97 v=0
235200 On ch=5 n=48 v=100
235200 On ch=5 n=60 v=100
235200 On ch=5 n=73 v=100
235200 On ch=5 n=85 v=100
235200 On ch=5 n=87 v=100
235200 On ch=5 n=97 v=100
235200 On ch=5 n=99 v=100
235316 On ch=5 n=48 v=0
235316 On ch=5 n=60 v=0
235316 On ch=5 n=73 v=0
235316 On ch=5 n=85 v=0
235316 On ch=5 n=87 v=0
235316 On ch=5 n=97 v=0
235316 On ch=5 n=99 v=0
235440 On ch=5 n=46 v=100
235440 On ch=5 n=72 v=100
235440 On ch=5 n=84 v=100
235440 On ch=5 n=86 v=100
235440 On ch=5 n=96 v=100
235440 On ch=5 n=98 v=100
235440 On ch=5 n=60 v=100
235556 On ch=5 n=72 v=0
235556 On ch=5 n=84 v=0
235556 On ch=5 n=86 v=0
235556 On ch=5 n=96 v=0
235556 On ch=5 n=98 v=0
235556 On ch=5 n=60 v=0
235680 On ch=5 n=96 v=100
235680 On ch=5 n=84 v=100
235796 On ch=5 n=96 v=0
235800 On ch=5 n=84 v=0
235800 On ch=5 n=96 v=100
235916 On ch=5 n=96 v=0
235920 On ch=5 n=60 v=100
235920 On ch=5 n=72 v=100
235920 On ch=5 n=84 v=100
235920 On ch=5 n=86 v=100
235920 On ch=5 n=96 v=100
235920 On ch=5 n=98 v=100
236280 On ch=5 n=72 v=0
236280 On ch=5 n=84 v=0
236280 On ch=5 n=86 v=0
236280 On ch=5 n=96 v=0
236280 On ch=5 n=98 v=0
236396 On ch=5 n=60 v=0
236400 On ch=5 n=72 v=100
236400 On ch=5 n=84 v=100
236400 On ch=5 n=86 v=100
236400 On ch=5 n=96 v=100
236400 On ch=5 n=98 v=100
236516 On ch=5 n=72 v=0
236516 On ch=5 n=84 v=0
236516 On ch=5 n=86 v=0
236516 On ch=5 n=96 v=0
236516 On ch=5 n=98 v=0
236636 On ch=5 n=46 v=0
236640 On ch=5 n=98 v=100
236640 On ch=5 n=86 v=100
236756 On ch=5 n=98 v=0
236760 On ch=5 n=86 v=0
236760 On ch=5 n=98 v=100
236876 On ch=5 n=98 v=0
236880 On ch=5 n=98 v=100
236880 On ch=5 n=86 v=100
236996 On ch=5 n=98 v=0
237000 On ch=5 n=86 v=0
237000 On ch=5 n=98 v=100
237116 On ch=5 n=98 v=0
237120 On ch=5 n=50 v=100
237120 On ch=5 n=62 v=100
237120 On ch=5 n=74 v=100
237120 On ch=5 n=86 v=100
237120 On ch=5 n=88 v=100
237120 On ch=5 n=98 v=100
237120 On ch=5 n=100 v=100
237120 On ch=5 n=106 v=100
237236 On ch=5 n=62 v=0
237236 On ch=5 n=74 v=0
237236 On ch=5 n=86 v=0
237236 On ch=5 n=88 v=0
237236 On ch=5 n=98 v=0
237236 On ch=5 n=100 v=0
237360 On ch=5 n=74 v=100
237360 On ch=5 n=86 v=100
237360 On ch=5 n=88 v=100
237360 On ch=5 n=98 v=100
237360 On ch=5 n=100 v=100
237360 On ch=5 n=62 v=100
237476 On ch=5 n=74 v=0
237476 On ch=5 n=86 v=0
237476 On ch=5 n=88 v=0
237476 On ch=5 n=98 v=0
237476 On ch=5 n=100 v=0
237476 On ch=5 n=62 v=0
237596 On ch=5 n=50 v=0
237600 On ch=5 n=97 v=100
237600 On ch=5 n=85 v=100
237716 On ch=5 n=97 v=0
237720 On ch=5 n=85 v=0
237720 On ch=5 n=97 v=100
237836 On ch=5 n=97 v=0
237840 On ch=5 n=97 v=100
237840 On ch=5 n=85 v=100
237956 On ch=5 n=97 v=0
237960 On ch=5 n=85 v=0
237960 On ch=5 n=97 v=100
238076 On ch=5 n=97 v=0
238080 On ch=5 n=48 v=100
238080 On ch=5 n=61 v=100
238080 On ch=5 n=73 v=100
238080 On ch=5 n=85 v=100
238080 On ch=5 n=87 v=100
238080 On ch=5 n=97 v=100
238080 On ch=5 n=99 v=100
238196 On ch=5 n=61 v=0
238196 On ch=5 n=73 v=0
238196 On ch=5 n=85 v=0
238196 On ch=5 n=87 v=0
238196 On ch=5 n=97 v=0
238196 On ch=5 n=99 v=0
238320 On ch=5 n=73 v=100
238320 On ch=5 n=85 v=100
238320 On ch=5 n=87 v=100
238320 On ch=5 n=97 v=100
238320 On ch=5 n=99 v=100
238320 On ch=5 n=61 v=100
238436 On ch=5 n=73 v=0
238436 On ch=5 n=85 v=0
238436 On ch=5 n=87 v=0
238436 On ch=5 n=97 v=0
238436 On ch=5 n=99 v=0
238436 On ch=5 n=61 v=0
238556 On ch=5 n=48 v=0
238560 On ch=5 n=96 v=100
238560 On ch=5 n=116 v=100
238560 On ch=5 n=84 v=100
238676 On ch=5 n=96 v=0
238680 On ch=5 n=84 v=0
238680 On ch=5 n=96 v=100
238796 On ch=5 n=96 v=0
238800 On ch=5 n=96 v=100
238800 On ch=5 n=84 v=100
238916 On ch=5 n=96 v=0
238920 On ch=5 n=84 v=0
238920 On ch=5 n=96 v=100
239036 On ch=5 n=96 v=0
239040 On ch=5 n=45 v=100
239040 On ch=5 n=60 v=100
239040 On ch=5 n=72 v=100
239040 On ch=5 n=73 v=100
239040 On ch=5 n=84 v=100
239040 On ch=5 n=87 v=100
239040 On ch=5 n=96 v=100
239040 On ch=5 n=97 v=100
239040 On ch=5 n=99 v=100
241800 On ch=5 n=116 v=0
241916 On ch=5 n=45 v=0
241916 On ch=5 n=60 v=0
241916 On ch=5 n=72 v=0
241916 On ch=5 n=73 v=0
241916 On ch=5 n=84 v=0
241916 On ch=5 n=87 v=0
241916 On ch=5 n=96 v=0
241916 On ch=5 n=97 v=0
241916 On ch=5 n=99 v=0
242160 On ch=5 n=40 v=100
242160 On ch=5 n=72 v=100
242160 On ch=5 n=84 v=100
242160 On ch=5 n=96 v=100
242160 On ch=5 n=97 v=100
242160 On ch=5 n=60 v=100
242276 On ch=5 n=40 v=0
242276 On ch=5 n=72 v=0
242276 On ch=5 n=84 v=0
242276 On ch=5 n=96 v=0
242276 On ch=5 n=97 v=0
242280 On ch=5 n=60 v=0
242400 On ch=5 n=41 v=100
242400 On ch=5 n=60 v=100
242400 On ch=5 n=73 v=100
242400 On ch=5 n=85 v=100
242400 On ch=5 n=96 v=100
242400 On ch=5 n=98 v=100
242516 On ch=5 n=41 v=0
242516 On ch=5 n=60 v=0
242516 On ch=5 n=73 v=0
242516 On ch=5 n=85 v=0
242516 On ch=5 n=96 v=0
242516 On ch=5 n=98 v=0
242640 On ch=5 n=42 v=100
242640 On ch=5 n=74 v=100
242640 On ch=5 n=86 v=100
242640 On ch=5 n=97 v=100
242640 On ch=5 n=98 v=100
242640 On ch=5 n=60 v=100
242756 On ch=5 n=42 v=0
242756 On ch=5 n=74 v=0
242756 On ch=5 n=86 v=0
242756 On ch=5 n=97 v=0
242756 On ch=5 n=98 v=0
242760 On ch=5 n=60 v=0
242880 On ch=5 n=43 v=100
242880 On ch=5 n=61 v=100
242880 On ch=5 n=74 v=100
242880 On ch=5 n=85 v=100
242880 On ch=5 n=86 v=100
242880 On ch=5 n=97 v=100
242880 On ch=5 n=98 v=100
243480 On ch=5 n=85 v=0
243480 On ch=5 n=86 v=0
243480 On ch=5 n=97 v=0
243480 On ch=5 n=98 v=0
243596 On ch=5 n=74 v=0
243600 On ch=5 n=85 v=100
243600 On ch=5 n=86 v=100
243600 On ch=5 n=97 v=100
243600 On ch=5 n=98 v=100
243716 On ch=5 n=85 v=0
243716 On ch=5 n=86 v=0
243716 On ch=5 n=97 v=0
243716 On ch=5 n=98 v=0
243840 On ch=5 n=74 v=100
243840 On ch=5 n=85 v=100
243840 On ch=5 n=86 v=100
243840 On ch=5 n=97 v=100
243840 On ch=5 n=98 v=100
244440 On ch=5 n=74 v=0
244440 On ch=5 n=85 v=0
244440 On ch=5 n=86 v=0
244440 On ch=5 n=97 v=0
244440 On ch=5 n=98 v=0
244560 On ch=5 n=74 v=100
244560 On ch=5 n=85 v=100
244560 On ch=5 n=86 v=100
244560 On ch=5 n=97 v=100
244560 On ch=5 n=98 v=100
244920 On ch=5 n=85 v=0
244920 On ch=5 n=86 v=0
244920 On ch=5 n=97 v=0
244920 On ch=5 n=98 v=0
245040 On ch=5 n=85 v=100
245040 On ch=5 n=86 v=100
245040 On ch=5 n=97 v=100
245040 On ch=5 n=98 v=100
245156 On ch=5 n=85 v=0
245156 On ch=5 n=86 v=0
245156 On ch=5 n=97 v=0
245156 On ch=5 n=98 v=0
245280 On ch=5 n=85 v=100
245280 On ch=5 n=86 v=100
245280 On ch=5 n=97 v=100
245280 On ch=5 n=98 v=100
245996 On ch=5 n=61 v=0
245996 On ch=5 n=74 v=0
245996 On ch=5 n=85 v=0
245996 On ch=5 n=86 v=0
245996 On ch=5 n=97 v=0
245996 On ch=5 n=98 v=0
246240 On ch=5 n=61 v=100
246240 On ch=5 n=73 v=100
246240 On ch=5 n=85 v=100
246240 On ch=5 n=97 v=100
246240 On ch=5 n=98 v=100
246356 On ch=5 n=43 v=0
246356 On ch=5 n=61 v=0
246356 On ch=5 n=73 v=0
246356 On ch=5 n=85 v=0
246356 On ch=5 n=97 v=0
246356 On ch=5 n=98 v=0
246480 On ch=5 n=45 v=100
246480 On ch=5 n=74 v=100
246480 On ch=5 n=86 v=100
246480 On ch=5 n=97 v=100
246480 On ch=5 n=99 v=100
246480 On ch=5 n=61 v=100
246596 On ch=5 n=45 v=0
246596 On ch=5 n=74 v=0
246596 On ch=5 n=86 v=0
246596 On ch=5 n=97 v=0
246596 On ch=5 n=99 v=0
246600 On ch=5 n=61 v=0
246720 On ch=5 n=46 v=100
246720 On ch=5 n=62 v=100
246720 On ch=5 n=75 v=100
246720 On ch=5 n=86 v=100
246720 On ch=5 n=87 v=100
246720 On ch=5 n=98 v=100
246720 On ch=5 n=99 v=100
247080 On ch=5 n=86 v=0
247080 On ch=5 n=87 v=0
247080 On ch=5 n=98 v=0
247080 On ch=5 n=99 v=0
247200 On ch=5 n=86 v=100
247200 On ch=5 n=87 v=100
247200 On ch=5 n=98 v=100
247200 On ch=5 n=99 v=100
247316 On ch=5 n=86 v=0
247316 On ch=5 n=87 v=0
247316 On ch=5 n=98 v=0
247316 On ch=5 n=99 v=0
247440 On ch=5 n=86 v=100
247440 On ch=5 n=87 v=100
247440 On ch=5 n=98 v=100
247440 On ch=5 n=99 v=100
247556 On ch=5 n=75 v=0
247556 On ch=5 n=86 v=0
247556 On ch=5 n=87 v=0
247556 On ch=5 n=98 v=0
247556 On ch=5 n=99 v=0
247680 On ch=5 n=75 v=100
247680 On ch=5 n=86 v=100
247680 On ch=5 n=87 v=100
247680 On ch=5 n=98 v=100
247680 On ch=5 n=99 v=100
248040 On ch=5 n=75 v=0
248040 On ch=5 n=86 v=0
248040 On ch=5 n=87 v=0
248040 On ch=5 n=98 v=0
248040 On ch=5 n=99 v=0
248160 On ch=5 n=75 v=100
248160 On ch=5 n=86 v=100
248160 On ch=5 n=87 v=100
248160 On ch=5 n=98 v=100
248160 On ch=5 n=99 v=100
248276 On ch=5 n=86 v=0
248276 On ch=5 n=87 v=0
248276 On ch=5 n=98 v=0
248276 On ch=5 n=99 v=0
248400 On ch=5 n=86 v=100
248400 On ch=5 n=88 v=100
248400 On ch=5 n=98 v=100
248400 On ch=5 n=100 v=100
248760 On ch=5 n=86 v=0
248760 On ch=5 n=88 v=0
248760 On ch=5 n=98 v=0
248760 On ch=5 n=100 v=0
248876 On ch=5 n=75 v=0
248880 On ch=5 n=86 v=100
248880 On ch=5 n=88 v=100
248880 On ch=5 n=98 v=100
248880 On ch=5 n=100 v=100
248996 On ch=5 n=86 v=0
248996 On ch=5 n=88 v=0
248996 On ch=5 n=98 v=0
248996 On ch=5 n=100 v=0
249120 On ch=5 n=75 v=100
249120 On ch=5 n=86 v=100
249120 On ch=5 n=88 v=100
249120 On ch=5 n=98 v=100
249120 On ch=5 n=100 v=100
249236 On ch=5 n=62 v=0
249236 On ch=5 n=75 v=0
249236 On ch=5 n=86 v=0
249236 On ch=5 n=88 v=0
249236 On ch=5 n=98 v=0
249236 On ch=5 n=100 v=0
249360 On ch=5 n=86 v=100
249360 On ch=5 n=88 v=100
249360 On ch=5 n=98 v=100
249360 On ch=5 n=100 v=100
249476 On ch=5 n=86 v=0
249476 On ch=5 n=88 v=0
249476 On ch=5 n=98 v=0
249476 On ch=5 n=100 v=0
249600 On ch=5 n=62 v=100
249600 On ch=5 n=75 v=100
249600 On ch=5 n=86 v=100
249600 On ch=5 n=88 v=100
249600 On ch=5 n=98 v=100
249600 On ch=5 n=100 v=100
249716 On ch=5 n=62 v=0
249716 On ch=5 n=75 v=0
249716 On ch=5 n=86 v=0
249716 On ch=5 n=88 v=0
249716 On ch=5 n=98 v=0
249716 On ch=5 n=100 v=0
249840 On ch=5 n=86 v=100
249840 On ch=5 n=88 v=100
249840 On ch=5 n=98 v=100
249840 On ch=5 n=100 v=100
249956 On ch=5 n=86 v=0
249956 On ch=5 n=88 v=0
249956 On ch=5 n=98 v=0
249956 On ch=5 n=100 v=0
250080 On ch=5 n=62 v=100
250080 On ch=5 n=75 v=100
250080 On ch=5 n=86 v=100
250080 On ch=5 n=88 v=100
250080 On ch=5 n=98 v=100
250080 On ch=5 n=100 v=100
250196 On ch=5 n=46 v=0
250196 On ch=5 n=62 v=0
250196 On ch=5 n=75 v=0
250196 On ch=5 n=86 v=0
250196 On ch=5 n=88 v=0
250196 On ch=5 n=98 v=0
250196 On ch=5 n=100 v=0
250316 On ch=5 n=105 v=0
250320 On ch=5 n=43 v=100
250320 On ch=5 n=96 v=100
250320 On ch=5 n=103 v=100
250436 On ch=5 n=43 v=0
250436 On ch=5 n=96 v=0
250440 On ch=5 n=96 v=100
250556 On ch=5 n=96 v=0
250560 Meta Text "[play_solo]"
250560 On ch=5 n=47 v=100
250560 On ch=5 n=61 v=100
250560 On ch=5 n=73 v=100
250560 On ch=5 n=86 v=100
250560 On ch=5 n=98 v=100
250676 On ch=5 n=47 v=0
250676 On ch=5 n=61 v=0
250676 On ch=5 n=73 v=0
250676 On ch=5 n=86 v=0
250676 On ch=5 n=98 v=0
250800 On ch=5 n=48 v=100
250800 On ch=5 n=74 v=100
250800 On ch=5 n=87 v=100
250800 On ch=5 n=99 v=100
250916 On ch=5 n=48 v=0
250916 On ch=5 n=74 v=0
250916 On ch=5 n=87 v=0
250916 On ch=5 n=99 v=0
251040 On ch=5 n=48 v=100
251040 On ch=5 n=61 v=100
251040 On ch=5 n=74 v=100
251040 On ch=5 n=87 v=100
251040 On ch=5 n=99 v=100
251156 On ch=5 n=48 v=0
251156 On ch=5 n=61 v=0
251156 On ch=5 n=74 v=0
251156 On ch=5 n=87 v=0
251156 On ch=5 n=99 v=0
251280 On ch=5 n=43 v=100
251280 On ch=5 n=96 v=100
251396 On ch=5 n=43 v=0
251396 On ch=5 n=96 v=0
251400 On ch=5 n=96 v=100
251516 On ch=5 n=96 v=0
251520 On ch=5 n=47 v=100
251520 On ch=5 n=61 v=100
251520 On ch=5 n=73 v=100
251520 On ch=5 n=86 v=100
251520 On ch=5 n=98 v=100
251636 On ch=5 n=47 v=0
251636 On ch=5 n=61 v=0
251636 On ch=5 n=73 v=0
251636 On ch=5 n=86 v=0
251636 On ch=5 n=98 v=0
251640 On ch=5 n=48 v=100
251640 On ch=5 n=87 v=100
251640 On ch=5 n=99 v=100
251756 On ch=5 n=48 v=0
251756 On ch=5 n=87 v=0
251756 On ch=5 n=99 v=0
251880 On ch=5 n=48 v=100
251880 On ch=5 n=87 v=100
251880 On ch=5 n=99 v=100
251996 On ch=5 n=48 v=0
251996 On ch=5 n=87 v=0
251996 On ch=5 n=99 v=0
252000 On ch=5 n=48 v=100
252000 On ch=5 n=61 v=100
252000 On ch=5 n=74 v=100
252000 On ch=5 n=87 v=100
252000 On ch=5 n=99 v=100
252116 On ch=5 n=48 v=0
252116 On ch=5 n=61 v=0
252116 On ch=5 n=74 v=0
252116 On ch=5 n=87 v=0
252116 On ch=5 n=99 v=0
252240 On ch=5 n=43 v=100
252240 On ch=5 n=96 v=100
252356 On ch=5 n=43 v=0
252356 On ch=5 n=96 v=0
252360 On ch=5 n=96 v=100
252476 On ch=5 n=96 v=0
252480 On ch=5 n=47 v=100
252480 On ch=5 n=61 v=100
252480 On ch=5 n=73 v=100
252480 On ch=5 n=86 v=100
252480 On ch=5 n=98 v=100
252596 On ch=5 n=47 v=0
252596 On ch=5 n=61 v=0
252596 On ch=5 n=73 v=0
252596 On ch=5 n=86 v=0
252596 On ch=5 n=98 v=0
252720 On ch=5 n=48 v=100
252720 On ch=5 n=74 v=100
252720 On ch=5 n=87 v=100
252720 On ch=5 n=99 v=100
252836 On ch=5 n=48 v=0
252836 On ch=5 n=74 v=0
252836 On ch=5 n=87 v=0
252836 On ch=5 n=99 v=0
252960 On ch=5 n=48 v=100
252960 On ch=5 n=61 v=100
252960 On ch=5 n=74 v=100
252960 On ch=5 n=87 v=100
252960 On ch=5 n=99 v=100
253076 On ch=5 n=48 v=0
253076 On ch=5 n=61 v=0
253076 On ch=5 n=74 v=0
253076 On ch=5 n=87 v=0
253076 On ch=5 n=99 v=0
253200 On ch=5 n=50 v=100
253200 On ch=5 n=75 v=100
253200 On ch=5 n=88 v=100
253200 On ch=5 n=100 v=100
253316 On ch=5 n=50 v=0
253316 On ch=5 n=75 v=0
253316 On ch=5 n=88 v=0
253316 On ch=5 n=100 v=0
253320 On ch=5 n=48 v=100
253320 On ch=5 n=99 v=100
253320 On ch=5 n=87 v=100
253436 On ch=5 n=48 v=0
253436 On ch=5 n=99 v=0
253436 On ch=5 n=87 v=0
253440 On ch=5 n=50 v=100
253440 On ch=5 n=62 v=100
253440 On ch=5 n=75 v=100
253440 On ch=5 n=88 v=100
253440 On ch=5 n=100 v=100
253556 On ch=5 n=50 v=0
253556 On ch=5 n=62 v=0
253556 On ch=5 n=75 v=0
253556 On ch=5 n=88 v=0
253556 On ch=5 n=100 v=0
253800 On ch=5 n=50 v=100
253800 On ch=5 n=88 v=100
253800 On ch=5 n=100 v=100
253800 On ch=5 n=75 v=100
253800 On ch=5 n=62 v=100
253916 On ch=5 n=50 v=0
253916 On ch=5 n=88 v=0
253916 On ch=5 n=100 v=0
253920 On ch=5 n=75 v=0
253920 On ch=5 n=62 v=0
254156 On ch=5 n=106 v=0
254160 On ch=5 n=105 v=100
254280 On ch=5 n=52 v=100
254280 On ch=5 n=87 v=100
254280 On ch=5 n=99 v=100
254396 On ch=5 n=52 v=0
254396 On ch=5 n=87 v=0
254396 On ch=5 n=99 v=0
254400 On ch=5 n=50 v=100
254400 On ch=5 n=97 v=100
254400 On ch=5 n=86 v=100
254516 On ch=5 n=50 v=0
254516 On ch=5 n=97 v=0
254516 On ch=5 n=86 v=0
254580 On ch=5 n=52 v=100
254580 On ch=5 n=75 v=100
254580 On ch=5 n=87 v=100
254580 On ch=5 n=99 v=100
254696 On ch=5 n=52 v=0
254696 On ch=5 n=75 v=0
254696 On ch=5 n=87 v=0
254696 On ch=5 n=99 v=0
254880 On ch=5 n=52 v=100
254880 On ch=5 n=62 v=100
254880 On ch=5 n=75 v=100
254880 On ch=5 n=87 v=100
254880 On ch=5 n=99 v=100
255600 On ch=5 n=87 v=0
255600 On ch=5 n=99 v=0
255716 On ch=5 n=52 v=0
255720 On ch=5 n=52 v=100
255720 On ch=5 n=87 v=100
255720 On ch=5 n=99 v=100
256196 On ch=5 n=62 v=0
256196 On ch=5 n=75 v=0
256196 On ch=5 n=52 v=0
256196 On ch=5 n=87 v=0
256196 On ch=5 n=99 v=0
256320 On ch=5 n=49 v=100
256320 On ch=5 n=61 v=100
256320 On ch=5 n=73 v=100
256320 On ch=5 n=85 v=100
256320 On ch=5 n=97 v=100
256436 On ch=5 n=49 v=0
256436 On ch=5 n=61 v=0
256436 On ch=5 n=73 v=0
256436 On ch=5 n=85 v=0
256436 On ch=5 n=97 v=0
256560 On ch=5 n=50 v=100
256560 On ch=5 n=74 v=100
256560 On ch=5 n=86 v=100
256560 On ch=5 n=98 v=100
256676 On ch=5 n=50 v=0
256676 On ch=5 n=74 v=0
256676 On ch=5 n=86 v=0
256676 On ch=5 n=98 v=0
256800 On ch=5 n=49 v=100
256800 On ch=5 n=85 v=100
256800 On ch=5 n=97 v=100
256876 On ch=5 n=49 v=0
256876 On ch=5 n=85 v=0
256876 On ch=5 n=97 v=0
256880 On ch=5 n=50 v=100
256880 On ch=5 n=61 v=100
256880 On ch=5 n=74 v=100
256880 On ch=5 n=86 v=100
256880 On ch=5 n=98 v=100
256956 On ch=5 n=50 v=0
256956 On ch=5 n=86 v=0
256956 On ch=5 n=98 v=0
256960 On ch=5 n=49 v=100
256960 On ch=5 n=97 v=100
257036 On ch=5 n=49 v=0
257036 On ch=5 n=97 v=0
257040 On ch=5 n=50 v=100
257040 On ch=5 n=86 v=100
257040 On ch=5 n=98 v=100
257116 On ch=5 n=50 v=0
257116 On ch=5 n=86 v=0
257116 On ch=5 n=98 v=0
257120 On ch=5 n=49 v=100
257120 On ch=5 n=97 v=100
257196 On ch=5 n=49 v=0
257196 On ch=5 n=97 v=0
257200 On ch=5 n=50 v=100
257200 On ch=5 n=86 v=100
257200 On ch=5 n=98 v=100
257276 On ch=5 n=50 v=0
257276 On ch=5 n=86 v=0
257276 On ch=5 n=98 v=0
257280 On ch=5 n=49 v=100
257280 On ch=5 n=97 v=100
257356 On ch=5 n=49 v=0
257356 On ch=5 n=97 v=0
257360 On ch=5 n=50 v=100
257360 On ch=5 n=86 v=100
257360 On ch=5 n=98 v=100
257436 On ch=5 n=50 v=0
257436 On ch=5 n=86 v=0
257436 On ch=5 n=98 v=0
257440 On ch=5 n=49 v=100
257440 On ch=5 n=97 v=100
257516 On ch=5 n=49 v=0
257516 On ch=5 n=97 v=0
257520 On ch=5 n=50 v=100
257520 On ch=5 n=86 v=100
257520 On ch=5 n=98 v=100
257596 On ch=5 n=50 v=0
257596 On ch=5 n=86 v=0
257596 On ch=5 n=98 v=0
257600 On ch=5 n=49 v=100
257600 On ch=5 n=97 v=100
257676 On ch=5 n=49 v=0
257676 On ch=5 n=97 v=0
257680 On ch=5 n=50 v=100
257680 On ch=5 n=86 v=100
257680 On ch=5 n=98 v=100
257756 On ch=5 n=50 v=0
257756 On ch=5 n=86 v=0
257756 On ch=5 n=98 v=0
257760 On ch=5 n=49 v=100
257760 On ch=5 n=97 v=100
257836 On ch=5 n=49 v=0
257836 On ch=5 n=97 v=0
257840 On ch=5 n=50 v=100
257840 On ch=5 n=86 v=100
257840 On ch=5 n=98 v=100
257916 On ch=5 n=61 v=0
257916 On ch=5 n=74 v=0
257916 On ch=5 n=50 v=0
257916 On ch=5 n=86 v=0
257916 On ch=5 n=98 v=0
258000 On ch=5 n=52 v=100
258000 On ch=5 n=87 v=100
258000 On ch=5 n=99 v=100
258000 On ch=5 n=106 v=100
258076 On ch=5 n=52 v=0
258076 On ch=5 n=87 v=0
258076 On ch=5 n=99 v=0
258240 On ch=5 n=54 v=100
258240 On ch=5 n=62 v=100
258240 On ch=5 n=75 v=100
258240 On ch=5 n=88 v=100
258240 On ch=5 n=100 v=100
258316 On ch=5 n=54 v=0
258316 On ch=5 n=62 v=0
258316 On ch=5 n=75 v=0
258316 On ch=5 n=88 v=0
258316 On ch=5 n=100 v=0
258320 On ch=5 n=53 v=100
258320 On ch=5 n=99 v=100
258396 On ch=5 n=53 v=0
258396 On ch=5 n=99 v=0
258400 On ch=5 n=52 v=100
258400 On ch=5 n=98 v=100
258476 On ch=5 n=52 v=0
258476 On ch=5 n=98 v=0
258480 On ch=5 n=54 v=100
258480 On ch=5 n=75 v=100
258480 On ch=5 n=88 v=100
258480 On ch=5 n=100 v=100
258556 On ch=5 n=54 v=0
258556 On ch=5 n=75 v=0
258556 On ch=5 n=88 v=0
258556 On ch=5 n=100 v=0
258560 On ch=5 n=53 v=100
258560 On ch=5 n=99 v=100
258636 On ch=5 n=53 v=0
258636 On ch=5 n=99 v=0
258640 On ch=5 n=52 v=100
258640 On ch=5 n=98 v=100
258716 On ch=5 n=52 v=0
258716 On ch=5 n=98 v=0
258720 On ch=5 n=54 v=100
258720 On ch=5 n=62 v=100
258720 On ch=5 n=75 v=100
258720 On ch=5 n=88 v=100
258720 On ch=5 n=100 v=100
258796 On ch=5 n=54 v=0
258796 On ch=5 n=62 v=0
258796 On ch=5 n=75 v=0
258796 On ch=5 n=88 v=0
258796 On ch=5 n=100 v=0
258800 On ch=5 n=53 v=100
258800 On ch=5 n=99 v=100
258876 On ch=5 n=53 v=0
258876 On ch=5 n=99 v=0
258880 On ch=5 n=52 v=100
258880 On ch=5 n=98 v=100
258956 On ch=5 n=52 v=0
258956 On ch=5 n=98 v=0
258960 On ch=5 n=54 v=100
258960 On ch=5 n=75 v=100
258960 On ch=5 n=88 v=100
258960 On ch=5 n=100 v=100
259036 On ch=5 n=54 v=0
259036 On ch=5 n=75 v=0
259036 On ch=5 n=88 v=0
259036 On ch=5 n=100 v=0
259040 On ch=5 n=53 v=100
259040 On ch=5 n=99 v=100
259116 On ch=5 n=53 v=0
259116 On ch=5 n=99 v=0
259120 On ch=5 n=52 v=100
259120 On ch=5 n=98 v=100
259196 On ch=5 n=52 v=0
259196 On ch=5 n=98 v=0
259200 On ch=5 n=54 v=100
259200 On ch=5 n=62 v=100
259200 On ch=5 n=75 v=100
259200 On ch=5 n=88 v=100
259200 On ch=5 n=100 v=100
259276 On ch=5 n=54 v=0
259276 On ch=5 n=62 v=0
259276 On ch=5 n=75 v=0
259276 On ch=5 n=88 v=0
259276 On ch=5 n=100 v=0
259280 On ch=5 n=53 v=100
259280 On ch=5 n=99 v=100
259356 On ch=5 n=53 v=0
259356 On ch=5 n=99 v=0
259360 On ch=5 n=52 v=100
259360 On ch=5 n=98 v=100
259436 On ch=5 n=52 v=0
259436 On ch=5 n=98 v=0
259440 On ch=5 n=54 v=100
259440 On ch=5 n=75 v=100
259440 On ch=5 n=88 v=100
259440 On ch=5 n=100 v=100
259516 On ch=5 n=54 v=0
259516 On ch=5 n=75 v=0
259516 On ch=5 n=88 v=0
259516 On ch=5 n=100 v=0
259520 On ch=5 n=53 v=100
259520 On ch=5 n=99 v=100
259596 On ch=5 n=53 v=0
259596 On ch=5 n=99 v=0
259600 On ch=5 n=52 v=100
259600 On ch=5 n=98 v=100
259676 On ch=5 n=52 v=0
259676 On ch=5 n=98 v=0
259680 On ch=5 n=54 v=100
259680 On ch=5 n=62 v=100
259680 On ch=5 n=75 v=100
259680 On ch=5 n=88 v=100
259680 On ch=5 n=100 v=100
259756 On ch=5 n=54 v=0
259756 On ch=5 n=62 v=0
259756 On ch=5 n=75 v=0
259756 On ch=5 n=88 v=0
259756 On ch=5 n=100 v=0
259760 On ch=5 n=53 v=100
259760 On ch=5 n=99 v=100
259836 On ch=5 n=53 v=0
259836 On ch=5 n=99 v=0
259840 On ch=5 n=52 v=100
259840 On ch=5 n=98 v=100
259916 On ch=5 n=52 v=0
259916 On ch=5 n=98 v=0
259920 On ch=5 n=54 v=100
259920 On ch=5 n=75 v=100
259920 On ch=5 n=88 v=100
259920 On ch=5 n=100 v=100
259996 On ch=5 n=54 v=0
259996 On ch=5 n=75 v=0
259996 On ch=5 n=88 v=0
259996 On ch=5 n=100 v=0
260000 On ch=5 n=53 v=100
260000 On ch=5 n=99 v=100
260076 On ch=5 n=53 v=0
260076 On ch=5 n=99 v=0
260080 On ch=5 n=52 v=100
260080 On ch=5 n=98 v=100
260156 On ch=5 n=52 v=0
260156 On ch=5 n=98 v=0
260160 On ch=5 n=54 v=100
260160 On ch=5 n=62 v=100
260160 On ch=5 n=75 v=100
260160 On ch=5 n=88 v=100
260160 On ch=5 n=100 v=100
260236 On ch=5 n=54 v=0
260236 On ch=5 n=62 v=0
260236 On ch=5 n=75 v=0
260236 On ch=5 n=88 v=0
260236 On ch=5 n=100 v=0
260240 On ch=5 n=53 v=100
260240 On ch=5 n=99 v=100
260316 On ch=5 n=53 v=0
260316 On ch=5 n=99 v=0
260320 On ch=5 n=52 v=100
260320 On ch=5 n=98 v=100
260396 On ch=5 n=52 v=0
260396 On ch=5 n=98 v=0
260400 On ch=5 n=54 v=100
260400 On ch=5 n=75 v=100
260400 On ch=5 n=88 v=100
260400 On ch=5 n=100 v=100
260476 On ch=5 n=54 v=0
260476 On ch=5 n=75 v=0
260476 On ch=5 n=88 v=0
260476 On ch=5 n=100 v=0
260480 On ch=5 n=53 v=100
260480 On ch=5 n=99 v=100
260556 On ch=5 n=53 v=0
260556 On ch=5 n=99 v=0
260560 On ch=5 n=52 v=100
260560 On ch=5 n=98 v=100
260636 On ch=5 n=52 v=0
260636 On ch=5 n=98 v=0
260640 On ch=5 n=51 v=100
260640 On ch=5 n=61 v=100
260640 On ch=5 n=73 v=100
260640 On ch=5 n=85 v=100
260640 On ch=5 n=97 v=100
260640 On ch=5 n=116 v=100
260716 On ch=5 n=51 v=0
260716 On ch=5 n=85 v=0
260716 On ch=5 n=97 v=0
260880 On ch=5 n=52 v=100
260880 On ch=5 n=86 v=100
260880 On ch=5 n=98 v=100
261476 On ch=5 n=61 v=0
261476 On ch=5 n=73 v=0
261476 On ch=5 n=86 v=0
261480 On ch=5 n=98 v=0
261596 On ch=5 n=52 v=0
261600 On ch=5 n=54 v=100
261600 On ch=5 n=87 v=100
261600 On ch=5 n=99 v=100
261716 On ch=5 n=54 v=0
261716 On ch=5 n=87 v=0
261716 On ch=5 n=99 v=0
261720 On ch=5 n=116 v=0
261836 On ch=5 n=105 v=0
262080 On ch=5 n=48 v=100
262080 On ch=5 n=61 v=100
262080 On ch=5 n=74 v=100
262080 On ch=5 n=86 v=100
262080 On ch=5 n=98 v=100
262196 On ch=5 n=48 v=0
262196 On ch=5 n=61 v=0
262196 On ch=5 n=74 v=0
262196 On ch=5 n=86 v=0
262196 On ch=5 n=98 v=0
262320 On ch=5 n=47 v=100
262320 On ch=5 n=85 v=100
262320 On ch=5 n=97 v=100
262436 On ch=5 n=47 v=0
262436 On ch=5 n=85 v=0
262436 On ch=5 n=97 v=0
262560 On ch=5 n=48 v=100
262560 On ch=5 n=61 v=100
262560 On ch=5 n=74 v=100
262560 On ch=5 n=86 v=100
262560 On ch=5 n=98 v=100
262676 On ch=5 n=48 v=0
262676 On ch=5 n=61 v=0
262676 On ch=5 n=74 v=0
262676 On ch=5 n=86 v=0
262676 On ch=5 n=98 v=0
262680 On ch=5 n=47 v=100
262680 On ch=5 n=85 v=100
262680 On ch=5 n=97 v=100
262796 On ch=5 n=47 v=0
262796 On ch=5 n=85 v=0
262796 On ch=5 n=97 v=0
262920 On ch=5 n=48 v=100
262920 On ch=5 n=61 v=100
262920 On ch=5 n=74 v=100
262920 On ch=5 n=86 v=100
262920 On ch=5 n=98 v=100
263276 On ch=5 n=48 v=0
263700 On ch=5 n=86 v=0
263700 On ch=5 n=98 v=0
263756 On ch=5 n=61 v=0
263756 On ch=5 n=74 v=0
263760 On ch=5 n=46 v=100
263760 On ch=5 n=96 v=100
263760 On ch=5 n=84 v=100
263876 On ch=5 n=46 v=0
263876 On ch=5 n=96 v=0
263876 On ch=5 n=84 v=0
264000 On ch=5 n=50 v=100
264000 On ch=5 n=62 v=100
264000 On ch=5 n=75 v=100
264000 On ch=5 n=87 v=100
264000 On ch=5 n=99 v=100
264000 On ch=5 n=105 v=100
267840 Meta Text "[idle]"
269636 On ch=5 n=50 v=0
269756 On ch=5 n=62 v=0
269756 On ch=5 n=75 v=0
269756 On ch=5 n=87 v=0
269756 On ch=5 n=99 v=0
269996 On ch=5 n=103 v=0
270000 On ch=5 n=106 v=0
270000 On ch=5 n=105 v=0
270240 On ch=5 n=42 v=100
279596 On ch=5 n=42 v=0
279840 Meta Text "[play]"
279840 On ch=5 n=106 v=100
279840 On ch=5 n=105 v=100
280080 On ch=5 n=45 v=100
280080 On ch=5 n=84 v=100
280080 On ch=5 n=86 v=100
280080 On ch=5 n=96 v=100
280080 On ch=5 n=98 v=100
280080 On ch=5 n=116 v=100
280080 On ch=5 n=72 v=100
280196 On ch=5 n=84 v=0
280196 On ch=5 n=86 v=0
280196 On ch=5 n=96 v=0
280196 On ch=5 n=98 v=0
280200 On ch=5 n=72 v=0
280200 On ch=5 n=96 v=100
280200 On ch=5 n=98 v=100
280316 On ch=5 n=96 v=0
280316 On ch=5 n=98 v=0
280320 On ch=5 n=60 v=100
280320 On ch=5 n=72 v=100
280320 On ch=5 n=84 v=100
280320 On ch=5 n=86 v=100
280320 On ch=5 n=96 v=100
280320 On ch=5 n=98 v=100
280436 On ch=5 n=45 v=0
280436 On ch=5 n=60 v=0
280436 On ch=5 n=72 v=0
280436 On ch=5 n=84 v=0
280436 On ch=5 n=86 v=0
280436 On ch=5 n=96 v=0
280436 On ch=5 n=98 v=0
280560 On ch=5 n=46 v=100
280560 On ch=5 n=85 v=100
280560 On ch=5 n=87 v=100
280560 On ch=5 n=97 v=100
280560 On ch=5 n=99 v=100
280560 On ch=5 n=73 v=100
280676 On ch=5 n=85 v=0
280676 On ch=5 n=87 v=0
280676 On ch=5 n=97 v=0
280676 On ch=5 n=99 v=0
280680 On ch=5 n=73 v=0
280680 On ch=5 n=97 v=100
280680 On ch=5 n=99 v=100
280796 On ch=5 n=97 v=0
280796 On ch=5 n=99 v=0
280800 On ch=5 n=61 v=100
280800 On ch=5 n=73 v=100
280800 On ch=5 n=85 v=100
280800 On ch=5 n=87 v=100
280800 On ch=5 n=97 v=100
280800 On ch=5 n=99 v=100
280916 On ch=5 n=46 v=0
280916 On ch=5 n=61 v=0
280916 On ch=5 n=73 v=0
280916 On ch=5 n=85 v=0
280916 On ch=5 n=87 v=0
280916 On ch=5 n=97 v=0
280916 On ch=5 n=99 v=0
281040 On ch=5 n=48 v=100
281040 On ch=5 n=86 v=100
281040 On ch=5 n=88 v=100
281040 On ch=5 n=98 v=100
281040 On ch=5 n=100 v=100
281040 On ch=5 n=75 v=100
281040 On ch=5 n=74 v=100
281156 On ch=5 n=86 v=0
281156 On ch=5 n=88 v=0
281156 On ch=5 n=98 v=0
281156 On ch=5 n=100 v=0
281160 On ch=5 n=75 v=0
281160 On ch=5 n=74 v=0
281160 On ch=5 n=98 v=100
281160 On ch=5 n=100 v=100
281276 On ch=5 n=98 v=0
281276 On ch=5 n=100 v=0
281280 Meta Text "[mellow]"
281280 On ch=5 n=62 v=100
281280 On ch=5 n=74 v=100
281280 On ch=5 n=75 v=100
281280 On ch=5 n=86 v=100
281280 On ch=5 n=88 v=100
281280 On ch=5 n=98 v=100
281280 On ch=5 n=100 v=100
281400 On ch=5 n=116 v=0
287516 On ch=5 n=48 v=0
287516 On ch=5 n=62 v=0
287516 On ch=5 n=74 v=0
287516 On ch=5 n=75 v=0
287516 On ch=5 n=86 v=0
287516 On ch=5 n=88 v=0
287516 On ch=5 n=98 v=0
287516 On ch=5 n=100 v=0
287760 On ch=5 n=45 v=100
287760 On ch=5 n=84 v=100
287760 On ch=5 n=86 v=100
287760 On ch=5 n=96 v=100
287760 On ch=5 n=98 v=100
287760 On ch=5 n=72 v=100
287876 On ch=5 n=84 v=0
287876 On ch=5 n=86 v=0
287876 On ch=5 n=96 v=0
287876 On ch=5 n=98 v=0
287880 On ch=5 n=72 v=0
287880 On ch=5 n=96 v=100
287880 On ch=5 n=98 v=100
287996 On ch=5 n=96 v=0
287996 On ch=5 n=98 v=0
288000 Meta Text "[play]"
288000 On ch=5 n=60 v=100
288000 On ch=5 n=72 v=100
288000 On ch=5 n=84 v=100
288000 On ch=5 n=86 v=100
288000 On ch=5 n=96 v=100
288000 On ch=5 n=98 v=100
288116 On ch=5 n=45 v=0
288116 On ch=5 n=60 v=0
288116 On ch=5 n=72 v=0
288116 On ch=5 n=84 v=0
288116 On ch=5 n=86 v=0
288116 On ch=5 n=96 v=0
288116 On ch=5 n=98 v=0
288240 On ch=5 n=46 v=100
288240 On ch=5 n=85 v=100
288240 On ch=5 n=87 v=100
288240 On ch=5 n=97 v=100
288240 On ch=5 n=99 v=100
288240 On ch=5 n=73 v=100
288356 On ch=5 n=85 v=0
288356 On ch=5 n=87 v=0
288356 On ch=5 n=97 v=0
288356 On ch=5 n=99 v=0
288360 On ch=5 n=73 v=0
288360 On ch=5 n=97 v=100
288360 On ch=5 n=99 v=100
288476 On ch=5 n=97 v=0
288476 On ch=5 n=99 v=0
288480 On ch=5 n=61 v=100
288480 On ch=5 n=73 v=100
288480 On ch=5 n=85 v=100
288480 On ch=5 n=87 v=100
288480 On ch=5 n=97 v=100
288480 On ch=5 n=99 v=100
288596 On ch=5 n=46 v=0
288596 On ch=5 n=61 v=0
288596 On ch=5 n=73 v=0
288596 On ch=5 n=85 v=0
288596 On ch=5 n=87 v=0
288596 On ch=5 n=97 v=0
288596 On ch=5 n=99 v=0
288720 On ch=5 n=48 v=100
288720 On ch=5 n=86 v=100
288720 On ch=5 n=88 v=100
288720 On ch=5 n=98 v=100
288720 On ch=5 n=100 v=100
288720 On ch=5 n=75 v=100
288720 On ch=5 n=74 v=100
288836 On ch=5 n=86 v=0
288836 On ch=5 n=88 v=0
288836 On ch=5 n=98 v=0
288836 On ch=5 n=100 v=0
288840 On ch=5 n=75 v=0
288840 On ch=5 n=74 v=0
288840 On ch=5 n=98 v=100
288840 On ch=5 n=100 v=100
288956 On ch=5 n=98 v=0
288956 On ch=5 n=100 v=0
288960 On ch=5 n=62 v=100
288960 On ch=5 n=74 v=100
288960 On ch=5 n=75 v=100
288960 On ch=5 n=86 v=100
288960 On ch=5 n=88 v=100
288960 On ch=5 n=98 v=100
288960 On ch=5 n=100 v=100
292316 On ch=5 n=62 v=0
292316 On ch=5 n=74 v=0
292316 On ch=5 n=75 v=0
292316 On ch=5 n=86 v=0
292316 On ch=5 n=88 v=0
292316 On ch=5 n=98 v=0
292316 On ch=5 n=100 v=0
292436 On ch=5 n=48 v=0
292560 On ch=5 n=46 v=100
292560 On ch=5 n=85 v=100
292560 On ch=5 n=86 v=100
292560 On ch=5 n=97 v=100
292560 On ch=5 n=98 v=100
292676 On ch=5 n=85 v=0
292676 On ch=5 n=86 v=0
292676 On ch=5 n=97 v=0
292676 On ch=5 n=98 v=0
292680 On ch=5 n=97 v=100
292680 On ch=5 n=98 v=100
292796 On ch=5 n=97 v=0
292796 On ch=5 n=98 v=0
292800 On ch=5 n=61 v=100
292800 On ch=5 n=73 v=100
292800 On ch=5 n=85 v=100
292800 On ch=5 n=86 v=100
292800 On ch=5 n=97 v=100
292800 On ch=5 n=98 v=100
294236 On ch=5 n=46 v=0
294356 On ch=5 n=61 v=0
294356 On ch=5 n=73 v=0
294356 On ch=5 n=85 v=0
294356 On ch=5 n=86 v=0
294356 On ch=5 n=97 v=0
294356 On ch=5 n=98 v=0
294480 On ch=5 n=47 v=100
294480 On ch=5 n=86 v=100
294480 On ch=5 n=98 v=100
294596 On ch=5 n=86 v=0
294596 On ch=5 n=98 v=0
294600 On ch=5 n=98 v=100
294716 On ch=5 n=98 v=0
294720 On ch=5 n=62 v=100
294720 On ch=5 n=74 v=100
294720 On ch=5 n=86 v=100
294720 On ch=5 n=88 v=100
294720 On ch=5 n=98 v=100
294720 On ch=5 n=100 v=100
295196 On ch=5 n=47 v=0
295196 On ch=5 n=62 v=0
295196 On ch=5 n=74 v=0
295196 On ch=5 n=86 v=0
295196 On ch=5 n=88 v=0
295196 On ch=5 n=98 v=0
295196 On ch=5 n=100 v=0
295440 On ch=5 n=46 v=100
295440 On ch=5 n=85 v=100
295440 On ch=5 n=86 v=100
295440 On ch=5 n=97 v=100
295440 On ch=5 n=98 v=100
295556 On ch=5 n=85 v=0
295556 On ch=5 n=86 v=0
295556 On ch=5 n=97 v=0
295556 On ch=5 n=98 v=0
295680 On ch=5 n=61 v=100
295680 On ch=5 n=73 v=100
295680 On ch=5 n=85 v=100
295680 On ch=5 n=86 v=100
295680 On ch=5 n=97 v=100
295680 On ch=5 n=98 v=100
296156 On ch=5 n=46 v=0
296156 On ch=5 n=61 v=0
296156 On ch=5 n=73 v=0
296156 On ch=5 n=85 v=0
296156 On ch=5 n=86 v=0
296156 On ch=5 n=97 v=0
296156 On ch=5 n=98 v=0
296400 On ch=5 n=44 v=100
296400 On ch=5 n=84 v=100
296400 On ch=5 n=86 v=100
296400 On ch=5 n=96 v=100
296400 On ch=5 n=98 v=100
296516 On ch=5 n=84 v=0
296516 On ch=5 n=86 v=0
296516 On ch=5 n=96 v=0
296516 On ch=5 n=98 v=0
296520 On ch=5 n=96 v=100
296520 On ch=5 n=98 v=100
296636 On ch=5 n=96 v=0
296636 On ch=5 n=98 v=0
296640 On ch=5 n=60 v=100
296640 On ch=5 n=72 v=100
296640 On ch=5 n=73 v=100
296640 On ch=5 n=84 v=100
296640 On ch=5 n=86 v=100
296640 On ch=5 n=96 v=100
296640 On ch=5 n=98 v=100
298440 On ch=5 n=60 v=0
298440 On ch=5 n=72 v=0
298440 On ch=5 n=73 v=0
298440 On ch=5 n=84 v=0
298440 On ch=5 n=86 v=0
298440 On ch=5 n=96 v=0
298440 On ch=5 n=98 v=0
298560 On ch=5 n=60 v=100
298560 On ch=5 n=72 v=100
298560 On ch=5 n=73 v=100
298560 On ch=5 n=84 v=100
298560 On ch=5 n=86 v=100
298560 On ch=5 n=96 v=100
298560 On ch=5 n=98 v=100
298676 On ch=5 n=60 v=0
298676 On ch=5 n=72 v=0
298676 On ch=5 n=73 v=0
298676 On ch=5 n=84 v=0
298676 On ch=5 n=86 v=0
298676 On ch=5 n=96 v=0
298676 On ch=5 n=98 v=0
298800 On ch=5 n=72 v=100
298800 On ch=5 n=73 v=100
298800 On ch=5 n=84 v=100
298800 On ch=5 n=86 v=100
298800 On ch=5 n=96 v=100
298800 On ch=5 n=98 v=100
298800 On ch=5 n=60 v=100
298916 On ch=5 n=72 v=0
298916 On ch=5 n=73 v=0
298916 On ch=5 n=84 v=0
298916 On ch=5 n=86 v=0
298916 On ch=5 n=96 v=0
298916 On ch=5 n=98 v=0
298920 On ch=5 n=60 v=0
299040 On ch=5 n=60 v=100
299040 On ch=5 n=72 v=100
299040 On ch=5 n=73 v=100
299040 On ch=5 n=84 v=100
299040 On ch=5 n=86 v=100
299040 On ch=5 n=96 v=100
299040 On ch=5 n=98 v=100
299156 On ch=5 n=60 v=0
299156 On ch=5 n=72 v=0
299156 On ch=5 n=73 v=0
299156 On ch=5 n=84 v=0
299156 On ch=5 n=86 v=0
299156 On ch=5 n=96 v=0
299156 On ch=5 n=98 v=0
299280 On ch=5 n=72 v=100
299280 On ch=5 n=73 v=100
299280 On ch=5 n=84 v=100
299280 On ch=5 n=86 v=100
299280 On ch=5 n=96 v=100
299280 On ch=5 n=98 v=100
299280 On ch=5 n=60 v=100
299396 On ch=5 n=72 v=0
299396 On ch=5 n=73 v=0
299396 On ch=5 n=84 v=0
299396 On ch=5 n=86 v=0
299396 On ch=5 n=96 v=0
299396 On ch=5 n=98 v=0
299400 On ch=5 n=60 v=0
299520 On ch=5 n=60 v=100
299520 On ch=5 n=72 v=100
299520 On ch=5 n=73 v=100
299520 On ch=5 n=84 v=100
299520 On ch=5 n=86 v=100
299520 On ch=5 n=96 v=100
299520 On ch=5 n=98 v=100
299636 On ch=5 n=60 v=0
299636 On ch=5 n=72 v=0
299636 On ch=5 n=73 v=0
299636 On ch=5 n=84 v=0
299636 On ch=5 n=86 v=0
299636 On ch=5 n=96 v=0
299636 On ch=5 n=98 v=0
299760 On ch=5 n=72 v=100
299760 On ch=5 n=73 v=100
299760 On ch=5 n=84 v=100
299760 On ch=5 n=86 v=100
299760 On ch=5 n=96 v=100
299760 On ch=5 n=98 v=100
299760 On ch=5 n=60 v=100
299876 On ch=5 n=72 v=0
299876 On ch=5 n=73 v=0
299876 On ch=5 n=84 v=0
299876 On ch=5 n=86 v=0
299876 On ch=5 n=96 v=0
299876 On ch=5 n=98 v=0
299880 On ch=5 n=60 v=0
300000 On ch=5 n=60 v=100
300000 On ch=5 n=72 v=100
300000 On ch=5 n=73 v=100
300000 On ch=5 n=84 v=100
300000 On ch=5 n=86 v=100
300000 On ch=5 n=96 v=100
300000 On ch=5 n=98 v=100
300000 On ch=5 n=116 v=100
300116 On ch=5 n=60 v=0
300116 On ch=5 n=72 v=0
300116 On ch=5 n=73 v=0
300116 On ch=5 n=84 v=0
300116 On ch=5 n=86 v=0
300116 On ch=5 n=96 v=0
300116 On ch=5 n=98 v=0
300240 On ch=5 n=72 v=100
300240 On ch=5 n=73 v=100
300240 On ch=5 n=84 v=100
300240 On ch=5 n=86 v=100
300240 On ch=5 n=96 v=100
300240 On ch=5 n=98 v=100
300240 On ch=5 n=60 v=100
300356 On ch=5 n=44 v=0
300356 On ch=5 n=72 v=0
300356 On ch=5 n=73 v=0
300356 On ch=5 n=84 v=0
300356 On ch=5 n=86 v=0
300356 On ch=5 n=96 v=0
300356 On ch=5 n=98 v=0
300360 On ch=5 n=60 v=0
300480 On ch=5 n=50 v=100
300480 On ch=5 n=62 v=100
300480 On ch=5 n=74 v=100
300480 On ch=5 n=86 v=100
300480 On ch=5 n=88 v=100
300480 On ch=5 n=98 v=100
300480 On ch=5 n=100 v=100
300596 On ch=5 n=62 v=0
300596 On ch=5 n=74 v=0
300596 On ch=5 n=86 v=0
300596 On ch=5 n=88 v=0
300596 On ch=5 n=98 v=0
300596 On ch=5 n=100 v=0
300720 On ch=5 n=74 v=100
300720 On ch=5 n=86 v=100
300720 On ch=5 n=88 v=100
300720 On ch=5 n=98 v=100
300720 On ch=5 n=100 v=100
300720 On ch=5 n=62 v=100
300836 On ch=5 n=74 v=0
300836 On ch=5 n=86 v=0
300836 On ch=5 n=88 v=0
300836 On ch=5 n=98 v=0
300836 On ch=5 n=100 v=0
300836 On ch=5 n=62 v=0
300840 On ch=5 n=116 v=0
300956 On ch=5 n=105 v=0
300956 On ch=5 n=50 v=0
300960 On ch=5 n=97 v=100
300960 On ch=5 n=85 v=100
301076 On ch=5 n=97 v=0
301080 On ch=5 n=85 v=0
301080 On ch=5 n=97 v=100
301196 On ch=5 n=97 v=0
301200 On ch=5 n=97 v=100
301200 On ch=5 n=85 v=100
301316 On ch=5 n=97 v=0
301320 On ch=5 n=85 v=0
301320 On ch=5 n=97 v=100
301436 On ch=5 n=97 v=0
301440 On ch=5 n=48 v=100
301440 On ch=5 n=61 v=100
301440 On ch=5 n=73 v=100
301440 On ch=5 n=85 v=100
301440 On ch=5 n=87 v=100
301440 On ch=5 n=97 v=100
301440 On ch=5 n=99 v=100
301556 On ch=5 n=61 v=0
301556 On ch=5 n=73 v=0
301556 On ch=5 n=85 v=0
301556 On ch=5 n=87 v=0
301556 On ch=5 n=97 v=0
301556 On ch=5 n=99 v=0
301680 On ch=5 n=73 v=100
301680 On ch=5 n=85 v=100
301680 On ch=5 n=87 v=100
301680 On ch=5 n=97 v=100
301680 On ch=5 n=99 v=100
301680 On ch=5 n=61 v=100
301796 On ch=5 n=73 v=0
301796 On ch=5 n=85 v=0
301796 On ch=5 n=87 v=0
301796 On ch=5 n=97 v=0
301796 On ch=5 n=99 v=0
301796 On ch=5 n=61 v=0
301916 On ch=5 n=48 v=0
301920 On ch=5 n=97 v=100
301920 On ch=5 n=85 v=100
302036 On ch=5 n=97 v=0
302040 On ch=5 n=85 v=0
302040 On ch=5 n=97 v=100
302156 On ch=5 n=97 v=0
302160 On ch=5 n=97 v=100
302160 On ch=5 n=85 v=100
302276 On ch=5 n=97 v=0
302280 On ch=5 n=85 v=0
302280 On ch=5 n=97 v=100
302396 On ch=5 n=97 v=0
302400 On ch=5 n=48 v=100
302400 On ch=5 n=60 v=100
302400 On ch=5 n=73 v=100
302400 On ch=5 n=85 v=100
302400 On ch=5 n=87 v=100
302400 On ch=5 n=97 v=100
302400 On ch=5 n=99 v=100
302516 On ch=5 n=48 v=0
302516 On ch=5 n=60 v=0
302516 On ch=5 n=73 v=0
302516 On ch=5 n=85 v=0
302516 On ch=5 n=87 v=0
302516 On ch=5 n=97 v=0
302516 On ch=5 n=99 v=0
302640 On ch=5 n=46 v=100
302640 On ch=5 n=72 v=100
302640 On ch=5 n=84 v=100
302640 On ch=5 n=86 v=100
302640 On ch=5 n=96 v=100
302640 On ch=5 n=98 v=100
302640 On ch=5 n=60 v=100
302756 On ch=5 n=72 v=0
302756 On ch=5 n=84 v=0
302756 On ch=5 n=86 v=0
302756 On ch=5 n=96 v=0
302756 On ch=5 n=98 v=0
302756 On ch=5 n=60 v=0
302880 On ch=5 n=96 v=100
302880 On ch=5 n=84 v=100
302996 On ch=5 n=96 v=0
303000 On ch=5 n=84 v=0
303000 On ch=5 n=96 v=100
303116 On ch=5 n=96 v=0
303120 On ch=5 n=60 v=100
303120 On ch=5 n=72 v=100
303120 On ch=5 n=84 v=100
303120 On ch=5 n=86 v=100
303120 On ch=5 n=96 v=100
303120 On ch=5 n=98 v=100
303480 On ch=5 n=72 v=0
303480 On ch=5 n=84 v=0
303480 On ch=5 n=86 v=0
303480 On ch=5 n=96 v=0
303480 On ch=5 n=98 v=0
303596 On ch=5 n=60 v=0
303600 On ch=5 n=72 v=100
303600 On ch=5 n=84 v=100
303600 On ch=5 n=86 v=100
303600 On ch=5 n=96 v=100
303600 On ch=5 n=98 v=100
303716 On ch=5 n=72 v=0
303716 On ch=5 n=84 v=0
303716 On ch=5 n=86 v=0
303716 On ch=5 n=96 v=0
303716 On ch=5 n=98 v=0
303836 On ch=5 n=46 v=0
303840 On ch=5 n=98 v=100
303840 On ch=5 n=86 v=100
303956 On ch=5 n=98 v=0
303960 On ch=5 n=86 v=0
303960 On ch=5 n=98 v=100
304076 On ch=5 n=98 v=0
304080 On ch=5 n=98 v=100
304080 On ch=5 n=86 v=100
304196 On ch=5 n=98 v=0
304200 On ch=5 n=86 v=0
304200 On ch=5 n=98 v=100
304316 On ch=5 n=106 v=0
304316 On ch=5 n=98 v=0
304320 On ch=5 n=50 v=100
304320 On ch=5 n=62 v=100
304320 On ch=5 n=74 v=100
304320 On ch=5 n=86 v=100
304320 On ch=5 n=88 v=100
304320 On ch=5 n=98 v=100
304320 On ch=5 n=100 v=100
304320 On ch=5 n=105 v=100
304436 On ch=5 n=62 v=0
304436 On ch=5 n=74 v=0
304436 On ch=5 n=86 v=0
304436 On ch=5 n=88 v=0
304436 On ch=5 n=98 v=0
304436 On ch=5 n=100 v=0
304560 On ch=5 n=74 v=100
304560 On ch=5 n=86 v=100
304560 On ch=5 n=88 v=100
304560 On ch=5 n=98 v=100
304560 On ch=5 n=100 v=100
304560 On ch=5 n=62 v=100
304676 On ch=5 n=74 v=0
304676 On ch=5 n=86 v=0
304676 On ch=5 n=88 v=0
304676 On ch=5 n=98 v=0
304676 On ch=5 n=100 v=0
304676 On ch=5 n=62 v=0
304796 On ch=5 n=50 v=0
304800 On ch=5 n=97 v=100
304800 On ch=5 n=85 v=100
304916 On ch=5 n=97 v=0
304920 On ch=5 n=85 v=0
304920 On ch=5 n=97 v=100
305036 On ch=5 n=97 v=0
305040 On ch=5 n=97 v=100
305040 On ch=5 n=85 v=100
305156 On ch=5 n=97 v=0
305160 On ch=5 n=85 v=0
305160 On ch=5 n=97 v=100
305276 On ch=5 n=97 v=0
305280 On ch=5 n=48 v=100
305280 On ch=5 n=61 v=100
305280 On ch=5 n=73 v=100
305280 On ch=5 n=85 v=100
305280 On ch=5 n=87 v=100
305280 On ch=5 n=97 v=100
305280 On ch=5 n=99 v=100
305396 On ch=5 n=61 v=0
305396 On ch=5 n=73 v=0
305396 On ch=5 n=85 v=0
305396 On ch=5 n=87 v=0
305396 On ch=5 n=97 v=0
305396 On ch=5 n=99 v=0
305520 On ch=5 n=73 v=100
305520 On ch=5 n=85 v=100
305520 On ch=5 n=87 v=100
305520 On ch=5 n=97 v=100
305520 On ch=5 n=99 v=100
305520 On ch=5 n=61 v=100
305636 On ch=5 n=73 v=0
305636 On ch=5 n=85 v=0
305636 On ch=5 n=87 v=0
305636 On ch=5 n=97 v=0
305636 On ch=5 n=99 v=0
305636 On ch=5 n=61 v=0
305756 On ch=5 n=48 v=0
305760 On ch=5 n=97 v=100
305760 On ch=5 n=85 v=100
305876 On ch=5 n=97 v=0
305880 On ch=5 n=85 v=0
305880 On ch=5 n=97 v=100
305996 On ch=5 n=97 v=0
306000 On ch=5 n=97 v=100
306000 On ch=5 n=85 v=100
306116 On ch=5 n=97 v=0
306120 On ch=5 n=85 v=0
306120 On ch=5 n=97 v=100
306236 On ch=5 n=97 v=0
306240 On ch=5 n=48 v=100
306240 On ch=5 n=60 v=100
306240 On ch=5 n=73 v=100
306240 On ch=5 n=85 v=100
306240 On ch=5 n=87 v=100
306240 On ch=5 n=97 v=100
306240 On ch=5 n=99 v=100
306240 On ch=5 n=116 v=100
306356 On ch=5 n=48 v=0
306356 On ch=5 n=60 v=0
306356 On ch=5 n=73 v=0
306356 On ch=5 n=85 v=0
306356 On ch=5 n=87 v=0
306356 On ch=5 n=97 v=0
306356 On ch=5 n=99 v=0
306480 On ch=5 n=46 v=100
306480 On ch=5 n=72 v=100
306480 On ch=5 n=84 v=100
306480 On ch=5 n=86 v=100
306480 On ch=5 n=96 v=100
306480 On ch=5 n=98 v=100
306480 On ch=5 n=60 v=100
306596 On ch=5 n=72 v=0
306596 On ch=5 n=84 v=0
306596 On ch=5 n=86 v=0
306596 On ch=5 n=96 v=0
306596 On ch=5 n=98 v=0
306596 On ch=5 n=60 v=0
306720 On ch=5 n=96 v=100
306720 On ch=5 n=84 v=100
306836 On ch=5 n=96 v=0
306840 On ch=5 n=84 v=0
306840 On ch=5 n=96 v=100
306956 On ch=5 n=96 v=0
306960 On ch=5 n=60 v=100
306960 On ch=5 n=72 v=100
306960 On ch=5 n=84 v=100
306960 On ch=5 n=86 v=100
306960 On ch=5 n=96 v=100
306960 On ch=5 n=98 v=100
307320 On ch=5 n=72 v=0
307320 On ch=5 n=84 v=0
307320 On ch=5 n=86 v=0
307320 On ch=5 n=96 v=0
307320 On ch=5 n=98 v=0
307436 On ch=5 n=60 v=0
307440 On ch=5 n=72 v=100
307440 On ch=5 n=84 v=100
307440 On ch=5 n=86 v=100
307440 On ch=5 n=96 v=100
307440 On ch=5 n=98 v=100
307556 On ch=5 n=72 v=0
307556 On ch=5 n=84 v=0
307556 On ch=5 n=86 v=0
307556 On ch=5 n=96 v=0
307556 On ch=5 n=98 v=0
307560 On ch=5 n=116 v=0
307676 On ch=5 n=46 v=0
307680 On ch=5 n=98 v=100
307680 On ch=5 n=86 v=100
307796 On ch=5 n=98 v=0
307800 On ch=5 n=86 v=0
307800 On ch=5 n=98 v=100
307916 On ch=5 n=98 v=0
307920 On ch=5 n=98 v=100
307920 On ch=5 n=86 v=100
308036 On ch=5 n=98 v=0
308040 On ch=5 n=86 v=0
308040 On ch=5 n=98 v=100
308156 On ch=5 n=105 v=0
308156 On ch=5 n=98 v=0
308160 On ch=5 n=50 v=100
308160 On ch=5 n=62 v=100
308160 On ch=5 n=74 v=100
308160 On ch=5 n=86 v=100
308160 On ch=5 n=88 v=100
308160 On ch=5 n=98 v=100
308160 On ch=5 n=100 v=100
308160 On ch=5 n=106 v=100
308276 On ch=5 n=62 v=0
308276 On ch=5 n=74 v=0
308276 On ch=5 n=86 v=0
308276 On ch=5 n=88 v=0
308276 On ch=5 n=98 v=0
308276 On ch=5 n=100 v=0
308400 On ch=5 n=74 v=100
308400 On ch=5 n=86 v=100
308400 On ch=5 n=88 v=100
308400 On ch=5 n=98 v=100
308400 On ch=5 n=100 v=100
308400 On ch=5 n=62 v=100
308516 On ch=5 n=74 v=0
308516 On ch=5 n=86 v=0
308516 On ch=5 n=88 v=0
308516 On ch=5 n=98 v=0
308516 On ch=5 n=100 v=0
308516 On ch=5 n=62 v=0
308636 On ch=5 n=50 v=0
308640 On ch=5 n=97 v=100
308640 On ch=5 n=85 v=100
308756 On ch=5 n=97 v=0
308760 On ch=5 n=85 v=0
308760 On ch=5 n=97 v=100
308876 On ch=5 n=97 v=0
308880 On ch=5 n=97 v=100
308880 On ch=5 n=85 v=100
308996 On ch=5 n=97 v=0
309000 On ch=5 n=85 v=0
309000 On ch=5 n=97 v=100
309116 On ch=5 n=97 v=0
309120 On ch=5 n=48 v=100
309120 On ch=5 n=61 v=100
309120 On ch=5 n=73 v=100
309120 On ch=5 n=85 v=100
309120 On ch=5 n=87 v=100
309120 On ch=5 n=97 v=100
309120 On ch=5 n=99 v=100
309236 On ch=5 n=61 v=0
309236 On ch=5 n=73 v=0
309236 On ch=5 n=85 v=0
309236 On ch=5 n=87 v=0
309236 On ch=5 n=97 v=0
309236 On ch=5 n=99 v=0
309360 On ch=5 n=73 v=100
309360 On ch=5 n=85 v=100
309360 On ch=5 n=87 v=100
309360 On ch=5 n=97 v=100
309360 On ch=5 n=99 v=100
309360 On ch=5 n=61 v=100
309476 On ch=5 n=73 v=0
309476 On ch=5 n=85 v=0
309476 On ch=5 n=87 v=0
309476 On ch=5 n=97 v=0
309476 On ch=5 n=99 v=0
309476 On ch=5 n=61 v=0
309596 On ch=5 n=48 v=0
309600 On ch=5 n=97 v=100
309600 On ch=5 n=85 v=100
309716 On ch=5 n=97 v=0
309720 On ch=5 n=85 v=0
309720 On ch=5 n=97 v=100
309836 On ch=5 n=97 v=0
309840 On ch=5 n=97 v=100
309840 On ch=5 n=85 v=100
309956 On ch=5 n=97 v=0
309960 On ch=5 n=85 v=0
309960 On ch=5 n=97 v=100
310076 On ch=5 n=97 v=0
310080 On ch=5 n=48 v=100
310080 On ch=5 n=60 v=100
310080 On ch=5 n=73 v=100
310080 On ch=5 n=85 v=100
310080 On ch=5 n=87 v=100
310080 On ch=5 n=97 v=100
310080 On ch=5 n=99 v=100
310196 On ch=5 n=48 v=0
310196 On ch=5 n=60 v=0
310196 On ch=5 n=73 v=0
310196 On ch=5 n=85 v=0
310196 On ch=5 n=87 v=0
310196 On ch=5 n=97 v=0
310196 On ch=5 n=99 v=0
310320 On ch=5 n=46 v=100
310320 On ch=5 n=72 v=100
310320 On ch=5 n=84 v=100
310320 On ch=5 n=86 v=100
310320 On ch=5 n=96 v=100
310320 On ch=5 n=98 v=100
310320 On ch=5 n=60 v=100
310436 On ch=5 n=72 v=0
310436 On ch=5 n=84 v=0
310436 On ch=5 n=86 v=0
310436 On ch=5 n=96 v=0
310436 On ch=5 n=98 v=0
310436 On ch=5 n=60 v=0
310560 On ch=5 n=96 v=100
310560 On ch=5 n=84 v=100
310676 On ch=5 n=96 v=0
310680 On ch=5 n=84 v=0
310680 On ch=5 n=96 v=100
310796 On ch=5 n=96 v=0
310800 On ch=5 n=60 v=100
310800 On ch=5 n=72 v=100
310800 On ch=5 n=84 v=100
310800 On ch=5 n=86 v=100
310800 On ch=5 n=96 v=100
310800 On ch=5 n=98 v=100
311160 On ch=5 n=72 v=0
311160 On ch=5 n=84 v=0
311160 On ch=5 n=86 v=0
311160 On ch=5 n=96 v=0
311160 On ch=5 n=98 v=0
311276 On ch=5 n=60 v=0
311280 On ch=5 n=72 v=100
311280 On ch=5 n=84 v=100
311280 On ch=5 n=86 v=100
311280 On ch=5 n=96 v=100
311280 On ch=5 n=98 v=100
311396 On ch=5 n=72 v=0
311396 On ch=5 n=84 v=0
311396 On ch=5 n=86 v=0
311396 On ch=5 n=96 v=0
311396 On ch=5 n=98 v=0
311516 On ch=5 n=46 v=0
311520 On ch=5 n=98 v=100
311520 On ch=5 n=86 v=100
311636 On ch=5 n=98 v=0
311640 On ch=5 n=86 v=0
311640 On ch=5 n=98 v=100
311756 On ch=5 n=98 v=0
311760 On ch=5 n=98 v=100
311760 On ch=5 n=86 v=100
311876 On ch=5 n=98 v=0
311880 On ch=5 n=86 v=0
311880 On ch=5 n=98 v=100
311996 On ch=5 n=106 v=0
311996 On ch=5 n=98 v=0
312000 On ch=5 n=50 v=100
312000 On ch=5 n=62 v=100
312000 On ch=5 n=74 v=100
312000 On ch=5 n=86 v=100
312000 On ch=5 n=88 v=100
312000 On ch=5 n=98 v=100
312000 On ch=5 n=100 v=100
312000 On ch=5 n=105 v=100
312116 On ch=5 n=62 v=0
312116 On ch=5 n=74 v=0
312116 On ch=5 n=86 v=0
312116 On ch=5 n=88 v=0
312116 On ch=5 n=98 v=0
312116 On ch=5 n=100 v=0
312240 On ch=5 n=74 v=100
312240 On ch=5 n=86 v=100
312240 On ch=5 n=88 v=100
312240 On ch=5 n=98 v=100
312240 On ch=5 n=100 v=100
312240 On ch=5 n=62 v=100
312356 On ch=5 n=74 v=0
312356 On ch=5 n=86 v=0
312356 On ch=5 n=88 v=0
312356 On ch=5 n=98 v=0
312356 On ch=5 n=100 v=0
312356 On ch=5 n=62 v=0
312476 On ch=5 n=50 v=0
312480 On ch=5 n=97 v=100
312480 On ch=5 n=85 v=100
312596 On ch=5 n=97 v=0
312600 On ch=5 n=85 v=0
312600 On ch=5 n=97 v=100
312716 On ch=5 n=97 v=0
312720 On ch=5 n=97 v=100
312720 On ch=5 n=85 v=100
312836 On ch=5 n=97 v=0
312840 On ch=5 n=85 v=0
312840 On ch=5 n=97 v=100
312956 On ch=5 n=97 v=0
312960 On ch=5 n=48 v=100
312960 On ch=5 n=61 v=100
312960 On ch=5 n=73 v=100
312960 On ch=5 n=85 v=100
312960 On ch=5 n=87 v=100
312960 On ch=5 n=97 v=100
312960 On ch=5 n=99 v=100
313076 On ch=5 n=61 v=0
313076 On ch=5 n=73 v=0
313076 On ch=5 n=85 v=0
313076 On ch=5 n=87 v=0
313076 On ch=5 n=97 v=0
313076 On ch=5 n=99 v=0
313200 On ch=5 n=73 v=100
313200 On ch=5 n=85 v=100
313200 On ch=5 n=87 v=100
313200 On ch=5 n=97 v=100
313200 On ch=5 n=99 v=100
313200 On ch=5 n=61 v=100
313316 On ch=5 n=73 v=0
313316 On ch=5 n=85 v=0
313316 On ch=5 n=87 v=0
313316 On ch=5 n=97 v=0
313316 On ch=5 n=99 v=0
313316 On ch=5 n=61 v=0
313436 On ch=5 n=48 v=0
313440 On ch=5 n=97 v=100
313440 On ch=5 n=85 v=100
313556 On ch=5 n=97 v=0
313560 On ch=5 n=85 v=0
313560 On ch=5 n=97 v=100
313676 On ch=5 n=97 v=0
313680 On ch=5 n=97 v=100
313680 On ch=5 n=85 v=100
313796 On ch=5 n=97 v=0
313800 On ch=5 n=85 v=0
313800 On ch=5 n=97 v=100
313916 On ch=5 n=97 v=0
313920 On ch=5 n=48 v=100
313920 On ch=5 n=60 v=100
313920 On ch=5 n=73 v=100
313920 On ch=5 n=85 v=100
313920 On ch=5 n=87 v=100
313920 On ch=5 n=97 v=100
313920 On ch=5 n=99 v=100
314036 On ch=5 n=48 v=0
314036 On ch=5 n=60 v=0
314036 On ch=5 n=73 v=0
314036 On ch=5 n=85 v=0
314036 On ch=5 n=87 v=0
314036 On ch=5 n=97 v=0
314036 On ch=5 n=99 v=0
314160 On ch=5 n=46 v=100
314160 On ch=5 n=72 v=100
314160 On ch=5 n=84 v=100
314160 On ch=5 n=86 v=100
314160 On ch=5 n=96 v=100
314160 On ch=5 n=98 v=100
314160 On ch=5 n=60 v=100
314276 On ch=5 n=72 v=0
314276 On ch=5 n=84 v=0
314276 On ch=5 n=86 v=0
314276 On ch=5 n=96 v=0
314276 On ch=5 n=98 v=0
314276 On ch=5 n=60 v=0
314400 On ch=5 n=96 v=100
314400 On ch=5 n=84 v=100
314516 On ch=5 n=96 v=0
314520 On ch=5 n=84 v=0
314520 On ch=5 n=96 v=100
314636 On ch=5 n=96 v=0
314640 On ch=5 n=60 v=100
314640 On ch=5 n=72 v=100
314640 On ch=5 n=84 v=100
314640 On ch=5 n=86 v=100
314640 On ch=5 n=96 v=100
314640 On ch=5 n=98 v=100
315000 On ch=5 n=72 v=0
315000 On ch=5 n=84 v=0
315000 On ch=5 n=86 v=0
315000 On ch=5 n=96 v=0
315000 On ch=5 n=98 v=0
315116 On ch=5 n=60 v=0
315120 On ch=5 n=72 v=100
315120 On ch=5 n=84 v=100
315120 On ch=5 n=86 v=100
315120 On ch=5 n=96 v=100
315120 On ch=5 n=98 v=100
315236 On ch=5 n=72 v=0
315236 On ch=5 n=84 v=0
315236 On ch=5 n=86 v=0
315236 On ch=5 n=96 v=0
315236 On ch=5 n=98 v=0
315356 On ch=5 n=46 v=0
315360 On ch=5 n=98 v=100
315360 On ch=5 n=86 v=100
315476 On ch=5 n=98 v=0
315480 On ch=5 n=86 v=0
315480 On ch=5 n=98 v=100
315596 On ch=5 n=98 v=0
315600 On ch=5 n=98 v=100
315600 On ch=5 n=86 v=100
315716 On ch=5 n=98 v=0
315720 On ch=5 n=86 v=0
315720 On ch=5 n=98 v=100
315836 On ch=5 n=105 v=0
315836 On ch=5 n=98 v=0
315840 On ch=5 n=50 v=100
315840 On ch=5 n=62 v=100
315840 On ch=5 n=74 v=100
315840 On ch=5 n=86 v=100
315840 On ch=5 n=88 v=100
315840 On ch=5 n=98 v=100
315840 On ch=5 n=100 v=100
315840 On ch=5 n=106 v=100
315956 On ch=5 n=62 v=0
315956 On ch=5 n=74 v=0
315956 On ch=5 n=86 v=0
315956 On ch=5 n=88 v=0
315956 On ch=5 n=98 v=0
315956 On ch=5 n=100 v=0
316080 On ch=5 n=74 v=100
316080 On ch=5 n=86 v=100
316080 On ch=5 n=88 v=100
316080 On ch=5 n=98 v=100
316080 On ch=5 n=100 v=100
316080 On ch=5 n=62 v=100
316196 On ch=5 n=74 v=0
316196 On ch=5 n=86 v=0
316196 On ch=5 n=88 v=0
316196 On ch=5 n=98 v=0
316196 On ch=5 n=100 v=0
316196 On ch=5 n=62 v=0
316316 On ch=5 n=50 v=0
316320 On ch=5 n=97 v=100
316320 On ch=5 n=85 v=100
316436 On ch=5 n=97 v=0
316440 On ch=5 n=85 v=0
316440 On ch=5 n=97 v=100
316556 On ch=5 n=97 v=0
316560 On ch=5 n=97 v=100
316560 On ch=5 n=85 v=100
316676 On ch=5 n=97 v=0
316680 On ch=5 n=85 v=0
316680 On ch=5 n=97 v=100
316796 On ch=5 n=97 v=0
316800 On ch=5 n=48 v=100
316800 On ch=5 n=61 v=100
316800 On ch=5 n=73 v=100
316800 On ch=5 n=85 v=100
316800 On ch=5 n=87 v=100
316800 On ch=5 n=97 v=100
316800 On ch=5 n=99 v=100
316916 On ch=5 n=61 v=0
316916 On ch=5 n=73 v=0
316916 On ch=5 n=85 v=0
316916 On ch=5 n=87 v=0
316916 On ch=5 n=97 v=0
316916 On ch=5 n=99 v=0
317040 On ch=5 n=73 v=100
317040 On ch=5 n=85 v=100
317040 On ch=5 n=87 v=100
317040 On ch=5 n=97 v=100
317040 On ch=5 n=99 v=100
317040 On ch=5 n=61 v=100
317156 On ch=5 n=73 v=0
317156 On ch=5 n=85 v=0
317156 On ch=5 n=87 v=0
317156 On ch=5 n=97 v=0
317156 On ch=5 n=99 v=0
317156 On ch=5 n=61 v=0
317276 On ch=5 n=48 v=0
317280 On ch=5 n=97 v=100
317280 On ch=5 n=85 v=100
317396 On ch=5 n=97 v=0
317400 On ch=5 n=85 v=0
317400 On ch=5 n=97 v=100
317516 On ch=5 n=97 v=0
317520 On ch=5 n=97 v=100
317520 On ch=5 n=85 v=100
317636 On ch=5 n=97 v=0
317640 On ch=5 n=85 v=0
317640 On ch=5 n=97 v=100
317756 On ch=5 n=97 v=0
317760 On ch=5 n=48 v=100
317760 On ch=5 n=60 v=100
317760 On ch=5 n=73 v=100
317760 On ch=5 n=85 v=100
317760 On ch=5 n=87 v=100
317760 On ch=5 n=97 v=100
317760 On ch=5 n=99 v=100
317876 On ch=5 n=48 v=0
317876 On ch=5 n=60 v=0
317876 On ch=5 n=73 v=0
317876 On ch=5 n=85 v=0
317876 On ch=5 n=87 v=0
317876 On ch=5 n=97 v=0
317876 On ch=5 n=99 v=0
318000 On ch=5 n=46 v=100
318000 On ch=5 n=72 v=100
318000 On ch=5 n=84 v=100
318000 On ch=5 n=86 v=100
318000 On ch=5 n=96 v=100
318000 On ch=5 n=98 v=100
318000 On ch=5 n=60 v=100
318116 On ch=5 n=72 v=0
318116 On ch=5 n=84 v=0
318116 On ch=5 n=86 v=0
318116 On ch=5 n=96 v=0
318116 On ch=5 n=98 v=0
318116 On ch=5 n=60 v=0
318240 On ch=5 n=96 v=100
318240 On ch=5 n=84 v=100
318356 On ch=5 n=96 v=0
318360 On ch=5 n=84 v=0
318360 On ch=5 n=96 v=100
318476 On ch=5 n=96 v=0
318480 On ch=5 n=60 v=100
318480 On ch=5 n=72 v=100
318480 On ch=5 n=84 v=100
318480 On ch=5 n=86 v=100
318480 On ch=5 n=96 v=100
318480 On ch=5 n=98 v=100
318840 On ch=5 n=72 v=0
318840 On ch=5 n=84 v=0
318840 On ch=5 n=86 v=0
318840 On ch=5 n=96 v=0
318840 On ch=5 n=98 v=0
318956 On ch=5 n=60 v=0
318960 On ch=5 n=72 v=100
318960 On ch=5 n=84 v=100
318960 On ch=5 n=86 v=100
318960 On ch=5 n=96 v=100
318960 On ch=5 n=98 v=100
319076 On ch=5 n=72 v=0
319076 On ch=5 n=84 v=0
319076 On ch=5 n=86 v=0
319076 On ch=5 n=96 v=0
319076 On ch=5 n=98 v=0
319196 On ch=5 n=46 v=0
319200 On ch=5 n=98 v=100
319200 On ch=5 n=86 v=100
319316 On ch=5 n=98 v=0
319320 On ch=5 n=86 v=0
319320 On ch=5 n=98 v=100
319436 On ch=5 n=98 v=0
319440 On ch=5 n=98 v=100
319440 On ch=5 n=86 v=100
319556 On ch=5 n=98 v=0
319560 On ch=5 n=86 v=0
319560 On ch=5 n=98 v=100
319676 On ch=5 n=98 v=0
319680 On ch=5 n=50 v=100
319680 On ch=5 n=62 v=100
319680 On ch=5 n=74 v=100
319680 On ch=5 n=86 v=100
319680 On ch=5 n=88 v=100
319680 On ch=5 n=98 v=100
319680 On ch=5 n=100 v=100
319680 On ch=5 n=105 v=100
319796 On ch=5 n=62 v=0
319796 On ch=5 n=74 v=0
319796 On ch=5 n=86 v=0
319796 On ch=5 n=88 v=0
319796 On ch=5 n=98 v=0
319796 On ch=5 n=100 v=0
319920 On ch=5 n=74 v=100
319920 On ch=5 n=86 v=100
319920 On ch=5 n=88 v=100
319920 On ch=5 n=98 v=100
319920 On ch=5 n=100 v=100
319920 On ch=5 n=62 v=100
320036 On ch=5 n=74 v=0
320036 On ch=5 n=86 v=0
320036 On ch=5 n=88 v=0
320036 On ch=5 n=98 v=0
320036 On ch=5 n=100 v=0
320036 On ch=5 n=62 v=0
320156 On ch=5 n=50 v=0
320160 On ch=5 n=97 v=100
320160 On ch=5 n=85 v=100
320276 On ch=5 n=97 v=0
320280 On ch=5 n=85 v=0
320280 On ch=5 n=97 v=100
320396 On ch=5 n=97 v=0
320400 On ch=5 n=97 v=100
320400 On ch=5 n=85 v=100
320516 On ch=5 n=97 v=0
320520 On ch=5 n=85 v=0
320520 On ch=5 n=97 v=100
320636 On ch=5 n=97 v=0
320640 On ch=5 n=48 v=100
320640 On ch=5 n=61 v=100
320640 On ch=5 n=73 v=100
320640 On ch=5 n=85 v=100
320640 On ch=5 n=87 v=100
320640 On ch=5 n=97 v=100
320640 On ch=5 n=99 v=100
320756 On ch=5 n=61 v=0
320756 On ch=5 n=73 v=0
320756 On ch=5 n=85 v=0
320756 On ch=5 n=87 v=0
320756 On ch=5 n=97 v=0
320756 On ch=5 n=99 v=0
320880 On ch=5 n=73 v=100
320880 On ch=5 n=85 v=100
320880 On ch=5 n=87 v=100
320880 On ch=5 n=97 v=100
320880 On ch=5 n=99 v=100
320880 On ch=5 n=61 v=100
320996 On ch=5 n=73 v=0
320996 On ch=5 n=85 v=0
320996 On ch=5 n=87 v=0
320996 On ch=5 n=97 v=0
320996 On ch=5 n=99 v=0
320996 On ch=5 n=61 v=0
321116 On ch=5 n=48 v=0
321120 On ch=5 n=96 v=100
321120 On ch=5 n=116 v=100
321120 On ch=5 n=84 v=100
321236 On ch=5 n=96 v=0
321240 On ch=5 n=84 v=0
321240 On ch=5 n=96 v=100
321356 On ch=5 n=96 v=0
321360 On ch=5 n=96 v=100
321360 On ch=5 n=84 v=100
321476 On ch=5 n=96 v=0
321480 On ch=5 n=84 v=0
321480 On ch=5 n=96 v=100
321596 On ch=5 n=96 v=0
321600 On ch=5 n=45 v=100
321600 On ch=5 n=60 v=100
321600 On ch=5 n=72 v=100
321600 On ch=5 n=73 v=100
321600 On ch=5 n=84 v=100
321600 On ch=5 n=87 v=100
321600 On ch=5 n=96 v=100
321600 On ch=5 n=97 v=100
321600 On ch=5 n=99 v=100
324476 On ch=5 n=45 v=0
324476 On ch=5 n=60 v=0
324476 On ch=5 n=72 v=0
324476 On ch=5 n=73 v=0
324476 On ch=5 n=84 v=0
324476 On ch=5 n=87 v=0
324476 On ch=5 n=96 v=0
324476 On ch=5 n=97 v=0
324476 On ch=5 n=99 v=0
324480 On ch=5 n=116 v=0
324720 On ch=5 n=40 v=100
324720 On ch=5 n=72 v=100
324720 On ch=5 n=84 v=100
324720 On ch=5 n=96 v=100
324720 On ch=5 n=97 v=100
324720 On ch=5 n=60 v=100
324836 On ch=5 n=40 v=0
324836 On ch=5 n=72 v=0
324836 On ch=5 n=84 v=0
324836 On ch=5 n=96 v=0
324836 On ch=5 n=97 v=0
324840 On ch=5 n=60 v=0
324960 On ch=5 n=41 v=100
324960 On ch=5 n=60 v=100
324960 On ch=5 n=73 v=100
324960 On ch=5 n=85 v=100
324960 On ch=5 n=96 v=100
324960 On ch=5 n=98 v=100
325076 On ch=5 n=41 v=0
325076 On ch=5 n=60 v=0
325076 On ch=5 n=73 v=0
325076 On ch=5 n=85 v=0
325076 On ch=5 n=96 v=0
325076 On ch=5 n=98 v=0
325200 On ch=5 n=42 v=100
325200 On ch=5 n=74 v=100
325200 On ch=5 n=86 v=100
325200 On ch=5 n=97 v=100
325200 On ch=5 n=98 v=100
325200 On ch=5 n=60 v=100
325316 On ch=5 n=42 v=0
325316 On ch=5 n=74 v=0
325316 On ch=5 n=86 v=0
325316 On ch=5 n=97 v=0
325316 On ch=5 n=98 v=0
325320 On ch=5 n=60 v=0
325440 On ch=5 n=43 v=100
325440 On ch=5 n=61 v=100
325440 On ch=5 n=74 v=100
325440 On ch=5 n=85 v=100
325440 On ch=5 n=86 v=100
325440 On ch=5 n=97 v=100
325440 On ch=5 n=98 v=100
326040 On ch=5 n=85 v=0
326040 On ch=5 n=86 v=0
326040 On ch=5 n=97 v=0
326040 On ch=5 n=98 v=0
326160 On ch=5 n=85 v=100
326160 On ch=5 n=86 v=100
326160 On ch=5 n=97 v=100
326160 On ch=5 n=98 v=100
326276 On ch=5 n=74 v=0
326276 On ch=5 n=85 v=0
326276 On ch=5 n=86 v=0
326276 On ch=5 n=97 v=0
326276 On ch=5 n=98 v=0
326400 On ch=5 n=74 v=100
326400 On ch=5 n=85 v=100
326400 On ch=5 n=86 v=100
326400 On ch=5 n=97 v=100
326400 On ch=5 n=98 v=100
327000 On ch=5 n=74 v=0
327000 On ch=5 n=85 v=0
327000 On ch=5 n=86 v=0
327000 On ch=5 n=97 v=0
327000 On ch=5 n=98 v=0
327120 On ch=5 n=74 v=100
327120 On ch=5 n=85 v=100
327120 On ch=5 n=86 v=100
327120 On ch=5 n=97 v=100
327120 On ch=5 n=98 v=100
327480 On ch=5 n=85 v=0
327480 On ch=5 n=86 v=0
327480 On ch=5 n=97 v=0
327480 On ch=5 n=98 v=0
327600 On ch=5 n=85 v=100
327600 On ch=5 n=86 v=100
327600 On ch=5 n=97 v=100
327600 On ch=5 n=98 v=100
327716 On ch=5 n=85 v=0
327716 On ch=5 n=86 v=0
327716 On ch=5 n=97 v=0
327716 On ch=5 n=98 v=0
327840 On ch=5 n=85 v=100
327840 On ch=5 n=86 v=100
327840 On ch=5 n=97 v=100
327840 On ch=5 n=98 v=100
328436 On ch=5 n=61 v=0
328436 On ch=5 n=74 v=0
328436 On ch=5 n=85 v=0
328436 On ch=5 n=86 v=0
328436 On ch=5 n=97 v=0
328436 On ch=5 n=98 v=0
328560 On ch=5 n=85 v=100
328560 On ch=5 n=97 v=100
328676 On ch=5 n=85 v=0
328676 On ch=5 n=97 v=0
328800 On ch=5 n=61 v=100
328800 On ch=5 n=73 v=100
328800 On ch=5 n=86 v=100
328800 On ch=5 n=97 v=100
328800 On ch=5 n=98 v=100
328916 On ch=5 n=43 v=0
328916 On ch=5 n=61 v=0
328916 On ch=5 n=73 v=0
328916 On ch=5 n=86 v=0
328916 On ch=5 n=97 v=0
328916 On ch=5 n=98 v=0
329040 On ch=5 n=45 v=100
329040 On ch=5 n=74 v=100
329040 On ch=5 n=87 v=100
329040 On ch=5 n=97 v=100
329040 On ch=5 n=99 v=100
329040 On ch=5 n=61 v=100
329156 On ch=5 n=45 v=0
329156 On ch=5 n=74 v=0
329156 On ch=5 n=87 v=0
329156 On ch=5 n=97 v=0
329156 On ch=5 n=99 v=0
329160 On ch=5 n=61 v=0
329280 On ch=5 n=46 v=100
329280 On ch=5 n=62 v=100
329280 On ch=5 n=75 v=100
329280 On ch=5 n=86 v=100
329280 On ch=5 n=87 v=100
329280 On ch=5 n=98 v=100
329280 On ch=5 n=99 v=100
329640 On ch=5 n=86 v=0
329640 On ch=5 n=87 v=0
329640 On ch=5 n=98 v=0
329640 On ch=5 n=99 v=0
329760 On ch=5 n=86 v=100
329760 On ch=5 n=87 v=100
329760 On ch=5 n=98 v=100
329760 On ch=5 n=99 v=100
329876 On ch=5 n=86 v=0
329876 On ch=5 n=87 v=0
329876 On ch=5 n=98 v=0
329876 On ch=5 n=99 v=0
330000 On ch=5 n=86 v=100
330000 On ch=5 n=87 v=100
330000 On ch=5 n=98 v=100
330000 On ch=5 n=99 v=100
330116 On ch=5 n=75 v=0
330116 On ch=5 n=86 v=0
330116 On ch=5 n=87 v=0
330116 On ch=5 n=98 v=0
330116 On ch=5 n=99 v=0
330240 On ch=5 n=75 v=100
330240 On ch=5 n=86 v=100
330240 On ch=5 n=87 v=100
330240 On ch=5 n=98 v=100
330240 On ch=5 n=99 v=100
330600 On ch=5 n=86 v=0
330600 On ch=5 n=87 v=0
330600 On ch=5 n=98 v=0
330600 On ch=5 n=99 v=0
330720 On ch=5 n=86 v=100
330720 On ch=5 n=87 v=100
330720 On ch=5 n=98 v=100
330720 On ch=5 n=99 v=100
330836 On ch=5 n=75 v=0
330836 On ch=5 n=86 v=0
330836 On ch=5 n=87 v=0
330836 On ch=5 n=98 v=0
330836 On ch=5 n=99 v=0
330960 On ch=5 n=75 v=100
330960 On ch=5 n=86 v=100
330960 On ch=5 n=88 v=100
330960 On ch=5 n=98 v=100
330960 On ch=5 n=100 v=100
331320 On ch=5 n=86 v=0
331320 On ch=5 n=88 v=0
331320 On ch=5 n=98 v=0
331320 On ch=5 n=100 v=0
331440 On ch=5 n=86 v=100
331440 On ch=5 n=88 v=100
331440 On ch=5 n=98 v=100
331440 On ch=5 n=100 v=100
331556 On ch=5 n=75 v=0
331556 On ch=5 n=86 v=0
331556 On ch=5 n=88 v=0
331556 On ch=5 n=98 v=0
331556 On ch=5 n=100 v=0
331680 On ch=5 n=75 v=100
331680 On ch=5 n=86 v=100
331680 On ch=5 n=88 v=100
331680 On ch=5 n=98 v=100
331680 On ch=5 n=100 v=100
332040 On ch=5 n=86 v=0
332040 On ch=5 n=88 v=0
332040 On ch=5 n=98 v=0
332040 On ch=5 n=100 v=0
332160 On ch=5 n=86 v=100
332160 On ch=5 n=88 v=100
332160 On ch=5 n=98 v=100
332160 On ch=5 n=100 v=100
332276 On ch=5 n=86 v=0
332276 On ch=5 n=88 v=0
332276 On ch=5 n=98 v=0
332276 On ch=5 n=100 v=0
332400 On ch=5 n=86 v=100
332400 On ch=5 n=88 v=100
332400 On ch=5 n=98 v=100
332400 On ch=5 n=100 v=100
332516 On ch=5 n=86 v=0
332516 On ch=5 n=88 v=0
332516 On ch=5 n=98 v=0
332516 On ch=5 n=100 v=0
332640 On ch=5 n=86 v=100
332640 On ch=5 n=88 v=100
332640 On ch=5 n=98 v=100
332640 On ch=5 n=100 v=100
332756 On ch=5 n=46 v=0
332756 On ch=5 n=62 v=0
332756 On ch=5 n=75 v=0
332756 On ch=5 n=86 v=0
332756 On ch=5 n=88 v=0
332756 On ch=5 n=98 v=0
332756 On ch=5 n=100 v=0
333120 On ch=5 n=41 v=100
333120 On ch=5 n=61 v=100
333120 On ch=5 n=73 v=100
333120 On ch=5 n=74 v=100
333120 On ch=5 n=84 v=100
333120 On ch=5 n=86 v=100
333120 On ch=5 n=96 v=100
333120 On ch=5 n=98 v=100
333120 On ch=5 n=116 v=100
333480 On ch=5 n=61 v=0
333480 On ch=5 n=73 v=0
333480 On ch=5 n=74 v=0
333480 On ch=5 n=84 v=0
333480 On ch=5 n=86 v=0
333480 On ch=5 n=96 v=0
333480 On ch=5 n=98 v=0
333600 On ch=5 n=61 v=100
333600 On ch=5 n=73 v=100
333600 On ch=5 n=74 v=100
333600 On ch=5 n=84 v=100
333600 On ch=5 n=86 v=100
333600 On ch=5 n=96 v=100
333600 On ch=5 n=98 v=100
333716 On ch=5 n=61 v=0
333716 On ch=5 n=73 v=0
333716 On ch=5 n=74 v=0
333716 On ch=5 n=84 v=0
333716 On ch=5 n=86 v=0
333716 On ch=5 n=96 v=0
333716 On ch=5 n=98 v=0
333720 On ch=5 n=116 v=0
333836 On ch=5 n=41 v=0
334080 Meta Text "[play_solo]"
334080 On ch=5 n=48 v=100
334080 On ch=5 n=62 v=100
334080 On ch=5 n=75 v=100
334080 On ch=5 n=98 v=100
334080 On ch=5 n=103 v=100
334080 On ch=5 n=86 v=100
334136 On ch=5 n=48 v=0
334136 On ch=5 n=98 v=0
334136 On ch=5 n=86 v=0
334140 On ch=5 n=99 v=100
334140 On ch=5 n=87 v=100
334320 On ch=5 n=50 v=100
336716 On ch=5 n=62 v=0
336716 On ch=5 n=75 v=0
336776 On ch=5 n=99 v=0
336776 On ch=5 n=87 v=0
336776 On ch=5 n=50 v=0
336960 On ch=5 n=48 v=100
336960 On ch=5 n=61 v=100
336960 On ch=5 n=74 v=100
336960 On ch=5 n=98 v=100
336960 On ch=5 n=116 v=100
336960 On ch=5 n=86 v=100
337436 On ch=5 n=48 v=0
338636 On ch=5 n=61 v=0
338636 On ch=5 n=74 v=0
338760 On ch=5 n=98 v=0
338760 On ch=5 n=86 v=0
338880 On ch=5 n=54 v=100
338880 On ch=5 n=62 v=100
338880 On ch=5 n=75 v=100
338880 On ch=5 n=100 v=100
338880 On ch=5 n=88 v=100
338996 On ch=5 n=54 v=0
340076 On ch=5 n=62 v=0
340076 On ch=5 n=75 v=0
340200 On ch=5 n=100 v=0
340200 On ch=5 n=88 v=0
340320 On ch=5 n=40 v=100
340320 On ch=5 n=98 v=100
340320 On ch=5 n=86 v=100
340436 On ch=5 n=40 v=0
340436 On ch=5 n=98 v=0
340436 On ch=5 n=86 v=0
340440 On ch=5 n=116 v=0
340800 On ch=5 n=46 v=100
340800 On ch=5 n=61 v=100
340800 On ch=5 n=73 v=100
340800 On ch=5 n=97 v=100
340800 On ch=5 n=85 v=100
340916 On ch=5 n=46 v=0
340916 On ch=5 n=61 v=0
340916 On ch=5 n=73 v=0
340916 On ch=5 n=97 v=0
340916 On ch=5 n=85 v=0
341280 On ch=5 n=52 v=100
341280 On ch=5 n=62 v=100
341280 On ch=5 n=75 v=100
341280 On ch=5 n=87 v=100
341280 On ch=5 n=99 v=100
342236 On ch=5 n=62 v=0
342236 On ch=5 n=75 v=0
342356 On ch=5 n=52 v=0
342356 On ch=5 n=87 v=0
342356 On ch=5 n=99 v=0
342420 On ch=5 n=51 v=100
342420 On ch=5 n=62 v=100
342420 On ch=5 n=74 v=100
342420 On ch=5 n=86 v=100
342420 On ch=5 n=98 v=100
342536 On ch=5 n=51 v=0
342536 On ch=5 n=62 v=0
342536 On ch=5 n=74 v=0
342536 On ch=5 n=86 v=0
342536 On ch=5 n=98 v=0
342840 On ch=5 n=52 v=100
342840 On ch=5 n=99 v=100
342956 On ch=5 n=52 v=0
342956 On ch=5 n=99 v=0
342960 On ch=5 n=53 v=100
342960 On ch=5 n=62 v=100
342960 On ch=5 n=75 v=100
342960 On ch=5 n=87 v=100
342960 On ch=5 n=100 v=100
343076 On ch=5 n=53 v=0
343076 On ch=5 n=62 v=0
343076 On ch=5 n=75 v=0
343076 On ch=5 n=87 v=0
343076 On ch=5 n=100 v=0
343080 On ch=5 n=52 v=100
343080 On ch=5 n=99 v=100
343196 On ch=5 n=52 v=0
343196 On ch=5 n=99 v=0
343200 On ch=5 n=51 v=100
343200 On ch=5 n=86 v=100
343200 On ch=5 n=98 v=100
343316 On ch=5 n=51 v=0
343316 On ch=5 n=86 v=0
343316 On ch=5 n=98 v=0
343320 On ch=5 n=52 v=100
343320 On ch=5 n=99 v=100
343436 On ch=5 n=52 v=0
343436 On ch=5 n=99 v=0
343440 On ch=5 n=53 v=100
343440 On ch=5 n=62 v=100
343440 On ch=5 n=75 v=100
343440 On ch=5 n=87 v=100
343440 On ch=5 n=100 v=100
343556 On ch=5 n=53 v=0
343556 On ch=5 n=62 v=0
343556 On ch=5 n=75 v=0
343556 On ch=5 n=87 v=0
343556 On ch=5 n=100 v=0
343560 On ch=5 n=52 v=100
343560 On ch=5 n=99 v=100
343676 On ch=5 n=52 v=0
343676 On ch=5 n=99 v=0
343680 On ch=5 n=51 v=100
343680 On ch=5 n=86 v=100
343680 On ch=5 n=98 v=100
343796 On ch=5 n=51 v=0
343796 On ch=5 n=86 v=0
343796 On ch=5 n=98 v=0
343800 On ch=5 n=52 v=100
343800 On ch=5 n=99 v=100
343916 On ch=5 n=52 v=0
343916 On ch=5 n=99 v=0
343920 On ch=5 n=53 v=100
343920 On ch=5 n=62 v=100
343920 On ch=5 n=75 v=100
343920 On ch=5 n=87 v=100
343920 On ch=5 n=100 v=100
343996 On ch=5 n=53 v=0
343996 On ch=5 n=62 v=0
343996 On ch=5 n=75 v=0
343996 On ch=5 n=87 v=0
343996 On ch=5 n=100 v=0
344000 On ch=5 n=52 v=100
344000 On ch=5 n=99 v=100
344076 On ch=5 n=52 v=0
344076 On ch=5 n=99 v=0
344080 On ch=5 n=51 v=100
344080 On ch=5 n=86 v=100
344080 On ch=5 n=98 v=100
344156 On ch=5 n=51 v=0
344156 On ch=5 n=86 v=0
344156 On ch=5 n=98 v=0
344160 On ch=5 n=52 v=100
344160 On ch=5 n=99 v=100
344236 On ch=5 n=52 v=0
344236 On ch=5 n=99 v=0
344280 On ch=5 n=53 v=100
344280 On ch=5 n=75 v=100
344280 On ch=5 n=87 v=100
344280 On ch=5 n=100 v=100
344280 On ch=5 n=62 v=100
344356 On ch=5 n=53 v=0
344356 On ch=5 n=75 v=0
344356 On ch=5 n=87 v=0
344356 On ch=5 n=100 v=0
344356 On ch=5 n=62 v=0
344360 On ch=5 n=52 v=100
344360 On ch=5 n=99 v=100
344436 On ch=5 n=52 v=0
344436 On ch=5 n=99 v=0
344440 On ch=5 n=51 v=100
344440 On ch=5 n=86 v=100
344440 On ch=5 n=98 v=100
344516 On ch=5 n=51 v=0
344516 On ch=5 n=86 v=0
344516 On ch=5 n=98 v=0
344520 On ch=5 n=52 v=100
344520 On ch=5 n=99 v=100
344596 On ch=5 n=52 v=0
344596 On ch=5 n=99 v=0
344640 On ch=5 n=53 v=100
344640 On ch=5 n=62 v=100
344640 On ch=5 n=75 v=100
344640 On ch=5 n=87 v=100
344640 On ch=5 n=100 v=100
344696 On ch=5 n=53 v=0
344696 On ch=5 n=62 v=0
344696 On ch=5 n=75 v=0
344696 On ch=5 n=87 v=0
344696 On ch=5 n=100 v=0
344720 On ch=5 n=52 v=100
344720 On ch=5 n=99 v=100
344776 On ch=5 n=52 v=0
344776 On ch=5 n=99 v=0
344800 On ch=5 n=51 v=100
344800 On ch=5 n=86 v=100
344800 On ch=5 n=98 v=100
344856 On ch=5 n=51 v=0
344856 On ch=5 n=86 v=0
344856 On ch=5 n=98 v=0
344880 On ch=5 n=52 v=100
344880 On ch=5 n=99 v=100
344936 On ch=5 n=52 v=0
344936 On ch=5 n=99 v=0
344940 On ch=5 n=53 v=100
344940 On ch=5 n=75 v=100
344940 On ch=5 n=87 v=100
344940 On ch=5 n=100 v=100
344940 On ch=5 n=62 v=100
344996 On ch=5 n=53 v=0
344996 On ch=5 n=75 v=0
344996 On ch=5 n=87 v=0
344996 On ch=5 n=100 v=0
344996 On ch=5 n=62 v=0
345020 On ch=5 n=52 v=100
345020 On ch=5 n=99 v=100
345076 On ch=5 n=52 v=0
345076 On ch=5 n=99 v=0
345100 On ch=5 n=51 v=100
345100 On ch=5 n=86 v=100
345100 On ch=5 n=98 v=100
345156 On ch=5 n=51 v=0
345156 On ch=5 n=86 v=0
345156 On ch=5 n=98 v=0
345180 On ch=5 n=52 v=100
345180 On ch=5 n=99 v=100
345236 On ch=5 n=52 v=0
345236 On ch=5 n=99 v=0
345240 On ch=5 n=53 v=100
345240 On ch=5 n=62 v=100
345240 On ch=5 n=75 v=100
345240 On ch=5 n=87 v=100
345240 On ch=5 n=100 v=100
345296 On ch=5 n=53 v=0
345296 On ch=5 n=62 v=0
345296 On ch=5 n=75 v=0
345296 On ch=5 n=87 v=0
345296 On ch=5 n=100 v=0
345320 On ch=5 n=52 v=100
345320 On ch=5 n=99 v=100
345376 On ch=5 n=52 v=0
345376 On ch=5 n=99 v=0
345400 On ch=5 n=51 v=100
345400 On ch=5 n=86 v=100
345400 On ch=5 n=98 v=100
345456 On ch=5 n=51 v=0
345456 On ch=5 n=86 v=0
345456 On ch=5 n=98 v=0
345480 On ch=5 n=52 v=100
345480 On ch=5 n=99 v=100
345536 On ch=5 n=52 v=0
345536 On ch=5 n=99 v=0
345540 On ch=5 n=53 v=100
345540 On ch=5 n=75 v=100
345540 On ch=5 n=87 v=100
345540 On ch=5 n=100 v=100
345540 On ch=5 n=62 v=100
345616 On ch=5 n=53 v=0
345616 On ch=5 n=75 v=0
345616 On ch=5 n=87 v=0
345616 On ch=5 n=100 v=0
345616 On ch=5 n=62 v=0
345620 On ch=5 n=52 v=100
345620 On ch=5 n=99 v=100
345696 On ch=5 n=52 v=0
345696 On ch=5 n=99 v=0
345700 On ch=5 n=51 v=100
345700 On ch=5 n=86 v=100
345700 On ch=5 n=98 v=100
345776 On ch=5 n=51 v=0
345776 On ch=5 n=86 v=0
345776 On ch=5 n=98 v=0
345810 On ch=5 n=52 v=100
345810 On ch=5 n=99 v=100
345886 On ch=5 n=52 v=0
345886 On ch=5 n=99 v=0
345960 On ch=5 n=53 v=100
345960 On ch=5 n=62 v=100
345960 On ch=5 n=75 v=100
345960 On ch=5 n=87 v=100
345960 On ch=5 n=100 v=100
346076 On ch=5 n=53 v=0
346076 On ch=5 n=62 v=0
346076 On ch=5 n=75 v=0
346076 On ch=5 n=87 v=0
346076 On ch=5 n=100 v=0
346080 On ch=5 n=51 v=100
346080 On ch=5 n=98 v=100
346196 On ch=5 n=51 v=0
346196 On ch=5 n=98 v=0
346200 On ch=5 n=52 v=100
346200 On ch=5 n=87 v=100
346200 On ch=5 n=99 v=100
346316 On ch=5 n=52 v=0
346316 On ch=5 n=87 v=0
346316 On ch=5 n=99 v=0
346320 On ch=5 n=51 v=100
346320 On ch=5 n=98 v=100
346436 On ch=5 n=51 v=0
346436 On ch=5 n=98 v=0
346440 On ch=5 n=52 v=100
346440 On ch=5 n=87 v=100
346440 On ch=5 n=99 v=100
346556 On ch=5 n=52 v=0
346556 On ch=5 n=87 v=0
346556 On ch=5 n=99 v=0
346560 On ch=5 n=50 v=100
346560 On ch=5 n=62 v=100
346560 On ch=5 n=75 v=100
346560 On ch=5 n=98 v=100
346676 On ch=5 n=50 v=0
346676 On ch=5 n=62 v=0
346676 On ch=5 n=75 v=0
346676 On ch=5 n=98 v=0
346680 On ch=5 n=51 v=100
346680 On ch=5 n=87 v=100
346680 On ch=5 n=99 v=100
346796 On ch=5 n=51 v=0
346796 On ch=5 n=87 v=0
346796 On ch=5 n=99 v=0
346800 On ch=5 n=50 v=100
346800 On ch=5 n=98 v=100
346876 On ch=5 n=50 v=0
346876 On ch=5 n=98 v=0
346880 On ch=5 n=51 v=100
346880 On ch=5 n=87 v=100
346880 On ch=5 n=99 v=100
346956 On ch=5 n=51 v=0
346956 On ch=5 n=87 v=0
346956 On ch=5 n=99 v=0
346960 On ch=5 n=49 v=100
346960 On ch=5 n=97 v=100
347036 On ch=5 n=49 v=0
347036 On ch=5 n=97 v=0
347040 On ch=5 n=50 v=100
347040 On ch=5 n=74 v=100
347040 On ch=5 n=86 v=100
347040 On ch=5 n=98 v=100
347040 On ch=5 n=61 v=100
347116 On ch=5 n=50 v=0
347116 On ch=5 n=74 v=0
347116 On ch=5 n=86 v=0
347116 On ch=5 n=98 v=0
347120 On ch=5 n=49 v=100
347120 On ch=5 n=97 v=100
347160 On ch=5 n=61 v=0
347196 On ch=5 n=49 v=0
347196 On ch=5 n=97 v=0
347200 On ch=5 n=50 v=100
347200 On ch=5 n=86 v=100
347200 On ch=5 n=98 v=100
347276 On ch=5 n=50 v=0
347276 On ch=5 n=86 v=0
347276 On ch=5 n=98 v=0
347280 On ch=5 n=49 v=100
347280 On ch=5 n=97 v=100
347356 On ch=5 n=49 v=0
347356 On ch=5 n=97 v=0
347360 On ch=5 n=50 v=100
347360 On ch=5 n=86 v=100
347360 On ch=5 n=98 v=100
347436 On ch=5 n=50 v=0
347436 On ch=5 n=86 v=0
347436 On ch=5 n=98 v=0
347440 On ch=5 n=48 v=100
347440 On ch=5 n=96 v=100
347516 On ch=5 n=48 v=0
347516 On ch=5 n=96 v=0
347520 On ch=5 n=49 v=100
347520 On ch=5 n=73 v=100
347520 On ch=5 n=85 v=100
347520 On ch=5 n=97 v=100
347520 On ch=5 n=60 v=100
347596 On ch=5 n=49 v=0
347596 On ch=5 n=73 v=0
347596 On ch=5 n=85 v=0
347596 On ch=5 n=97 v=0
347600 On ch=5 n=48 v=100
347600 On ch=5 n=96 v=100
347640 On ch=5 n=60 v=0
347676 On ch=5 n=48 v=0
347676 On ch=5 n=96 v=0
347680 On ch=5 n=49 v=100
347680 On ch=5 n=85 v=100
347680 On ch=5 n=97 v=100
347756 On ch=5 n=49 v=0
347756 On ch=5 n=85 v=0
347756 On ch=5 n=97 v=0
347760 On ch=5 n=47 v=100
347760 On ch=5 n=96 v=100
347836 On ch=5 n=47 v=0
347836 On ch=5 n=96 v=0
347840 On ch=5 n=48 v=100
347840 On ch=5 n=85 v=100
347840 On ch=5 n=97 v=100
347916 On ch=5 n=48 v=0
347916 On ch=5 n=85 v=0
347916 On ch=5 n=97 v=0
347920 On ch=5 n=47 v=100
347920 On ch=5 n=96 v=100
347996 On ch=5 n=47 v=0
347996 On ch=5 n=96 v=0
348000 On ch=5 n=48 v=100
348000 On ch=5 n=85 v=100
348000 On ch=5 n=97 v=100
348076 On ch=5 n=48 v=0
348076 On ch=5 n=85 v=0
348076 On ch=5 n=97 v=0
348080 On ch=5 n=46 v=100
348080 On ch=5 n=96 v=100
348156 On ch=5 n=46 v=0
348156 On ch=5 n=96 v=0
348476 On ch=5 n=106 v=0
348600 On ch=5 n=51 v=100
348600 On ch=5 n=61 v=100
348600 On ch=5 n=73 v=100
348600 On ch=5 n=98 v=100
348600 On ch=5 n=86 v=100
348716 On ch=5 n=51 v=0
348716 On ch=5 n=61 v=0
348716 On ch=5 n=73 v=0
348716 On ch=5 n=98 v=0
348716 On ch=5 n=86 v=0
348720 On ch=5 n=50 v=100
348720 On ch=5 n=97 v=100
348720 On ch=5 n=85 v=100
348836 On ch=5 n=50 v=0
348836 On ch=5 n=97 v=0
348836 On ch=5 n=85 v=0
348840 On ch=5 n=51 v=100
348840 On ch=5 n=98 v=100
348840 On ch=5 n=86 v=100
348956 On ch=5 n=51 v=0
348956 On ch=5 n=98 v=0
348956 On ch=5 n=86 v=0
348960 On ch=5 n=52 v=100
348960 On ch=5 n=62 v=100
348960 On ch=5 n=74 v=100
348960 On ch=5 n=99 v=100
348960 On ch=5 n=87 v=100
349076 On ch=5 n=52 v=0
349076 On ch=5 n=74 v=0
349076 On ch=5 n=99 v=0
349076 On ch=5 n=87 v=0
349320 On ch=5 n=52 v=100
349320 On ch=5 n=74 v=100
349320 On ch=5 n=99 v=100
349320 On ch=5 n=87 v=100
349800 On ch=5 n=99 v=0
349800 On ch=5 n=87 v=0
349916 On ch=5 n=62 v=0
349916 On ch=5 n=52 v=0
349916 On ch=5 n=74 v=0
349920 On ch=5 n=52 v=100
349920 On ch=5 n=99 v=100
349920 On ch=5 n=87 v=100
350036 On ch=5 n=52 v=0
350036 On ch=5 n=99 v=0
350036 On ch=5 n=87 v=0
350160 On ch=5 n=54 v=100
350160 On ch=5 n=62 v=100
350160 On ch=5 n=75 v=100
350160 On ch=5 n=100 v=100
350160 On ch=5 n=88 v=100
350276 On ch=5 n=54 v=0
350276 On ch=5 n=62 v=0
350276 On ch=5 n=75 v=0
350276 On ch=5 n=100 v=0
350276 On ch=5 n=88 v=0
350520 On ch=5 n=52 v=100
350520 On ch=5 n=99 v=100
350520 On ch=5 n=87 v=100
350636 On ch=5 n=52 v=0
350636 On ch=5 n=99 v=0
350636 On ch=5 n=87 v=0
350760 On ch=5 n=54 v=100
350760 On ch=5 n=62 v=100
350760 On ch=5 n=75 v=100
350760 On ch=5 n=100 v=100
350760 On ch=5 n=88 v=100
350876 On ch=5 n=54 v=0
350876 On ch=5 n=75 v=0
350876 On ch=5 n=100 v=0
350876 On ch=5 n=88 v=0
351000 On ch=5 n=54 v=100
351000 On ch=5 n=100 v=100
351000 On ch=5 n=88 v=100
351116 On ch=5 n=54 v=0
351116 On ch=5 n=100 v=0
351116 On ch=5 n=88 v=0
351360 On ch=5 n=54 v=100
351360 On ch=5 n=75 v=100
351360 On ch=5 n=100 v=100
351360 On ch=5 n=88 v=100
351956 On ch=5 n=62 v=0
351956 On ch=5 n=54 v=0
351956 On ch=5 n=75 v=0
351956 On ch=5 n=100 v=0
351956 On ch=5 n=88 v=0
352076 On ch=5 n=105 v=0
352080 On ch=5 n=52 v=100
352080 On ch=5 n=99 v=100
352080 On ch=5 n=106 v=100
352080 On ch=5 n=87 v=100
352196 On ch=5 n=52 v=0
352196 On ch=5 n=99 v=0
352196 On ch=5 n=87 v=0
352260 On ch=5 n=53 v=100
352260 On ch=5 n=62 v=100
352260 On ch=5 n=75 v=100
352260 On ch=5 n=100 v=100
352260 On ch=5 n=88 v=100
352376 On ch=5 n=53 v=0
352376 On ch=5 n=62 v=0
352376 On ch=5 n=75 v=0
352376 On ch=5 n=100 v=0
352376 On ch=5 n=88 v=0
352380 On ch=5 n=52 v=100
352380 On ch=5 n=99 v=100
352380 On ch=5 n=87 v=100
352496 On ch=5 n=52 v=0
352496 On ch=5 n=99 v=0
352496 On ch=5 n=87 v=0
352500 On ch=5 n=51 v=100
352500 On ch=5 n=98 v=100
352500 On ch=5 n=74 v=100
352500 On ch=5 n=86 v=100
352616 On ch=5 n=51 v=0
352616 On ch=5 n=98 v=0
352616 On ch=5 n=74 v=0
352616 On ch=5 n=86 v=0
352800 On ch=5 n=50 v=100
352800 On ch=5 n=98 v=100
352800 On ch=5 n=86 v=100
352916 On ch=5 n=50 v=0
352916 On ch=5 n=98 v=0
352916 On ch=5 n=86 v=0
352920 On ch=5 n=51 v=100
352920 On ch=5 n=75 v=100
352920 On ch=5 n=99 v=100
352920 On ch=5 n=62 v=100
352920 On ch=5 n=87 v=100
353036 On ch=5 n=51 v=0
353036 On ch=5 n=75 v=0
353036 On ch=5 n=99 v=0
353036 On ch=5 n=62 v=0
353036 On ch=5 n=87 v=0
353040 On ch=5 n=50 v=100
353040 On ch=5 n=98 v=100
353040 On ch=5 n=86 v=100
353156 On ch=5 n=50 v=0
353156 On ch=5 n=98 v=0
353156 On ch=5 n=86 v=0
353160 On ch=5 n=49 v=100
353160 On ch=5 n=97 v=100
353160 On ch=5 n=85 v=100
353276 On ch=5 n=49 v=0
353276 On ch=5 n=97 v=0
353276 On ch=5 n=85 v=0
353280 On ch=5 n=51 v=100
353280 On ch=5 n=61 v=100
353280 On ch=5 n=74 v=100
353280 On ch=5 n=88 v=100
353280 On ch=5 n=100 v=100
353396 On ch=5 n=51 v=0
353396 On ch=5 n=61 v=0
353396 On ch=5 n=74 v=0
353396 On ch=5 n=88 v=0
353396 On ch=5 n=100 v=0
353400 On ch=5 n=50 v=100
353400 On ch=5 n=99 v=100
353516 On ch=5 n=50 v=0
353516 On ch=5 n=99 v=0
353520 On ch=5 n=49 v=100
353520 On ch=5 n=87 v=100
353520 On ch=5 n=98 v=100
353520 On ch=5 n=74 v=100
353636 On ch=5 n=49 v=0
353636 On ch=5 n=87 v=0
353636 On ch=5 n=98 v=0
353640 On ch=5 n=74 v=0
353640 On ch=5 n=50 v=100
353640 On ch=5 n=99 v=100
353756 On ch=5 n=50 v=0
353756 On ch=5 n=99 v=0
353760 On ch=5 n=49 v=100
353760 On ch=5 n=73 v=100
353760 On ch=5 n=86 v=100
353760 On ch=5 n=98 v=100
353760 On ch=5 n=60 v=100
353876 On ch=5 n=49 v=0
353876 On ch=5 n=73 v=0
353876 On ch=5 n=86 v=0
353876 On ch=5 n=98 v=0
353880 On ch=5 n=60 v=0
353880 On ch=5 n=48 v=100
353880 On ch=5 n=97 v=100
353996 On ch=5 n=48 v=0
353996 On ch=5 n=97 v=0
354000 On ch=5 n=47 v=100
354000 On ch=5 n=85 v=100
354000 On ch=5 n=96 v=100
354000 On ch=5 n=73 v=100
354116 On ch=5 n=47 v=0
354116 On ch=5 n=85 v=0
354116 On ch=5 n=96 v=0
354120 On ch=5 n=73 v=0
354120 On ch=5 n=48 v=100
354120 On ch=5 n=97 v=100
354236 On ch=5 n=48 v=0
354236 On ch=5 n=97 v=0
354240 On ch=5 n=49 v=100
354240 On ch=5 n=61 v=100
354240 On ch=5 n=74 v=100
354240 On ch=5 n=86 v=100
354240 On ch=5 n=98 v=100
354356 On ch=5 n=49 v=0
354356 On ch=5 n=61 v=0
354356 On ch=5 n=74 v=0
354356 On ch=5 n=86 v=0
354356 On ch=5 n=98 v=0
354360 On ch=5 n=48 v=100
354360 On ch=5 n=97 v=100
354476 On ch=5 n=48 v=0
354476 On ch=5 n=97 v=0
354480 On ch=5 n=46 v=100
354480 On ch=5 n=85 v=100
354480 On ch=5 n=96 v=100
354480 On ch=5 n=74 v=100
354596 On ch=5 n=46 v=0
354596 On ch=5 n=85 v=0
354596 On ch=5 n=96 v=0
354600 On ch=5 n=74 v=0
354600 On ch=5 n=47 v=100
354600 On ch=5 n=97 v=100
354716 On ch=5 n=47 v=0
354716 On ch=5 n=97 v=0
354720 On ch=5 n=48 v=100
354720 On ch=5 n=73 v=100
354720 On ch=5 n=86 v=100
354720 On ch=5 n=98 v=100
354720 On ch=5 n=60 v=100
354836 On ch=5 n=48 v=0
354836 On ch=5 n=73 v=0
354836 On ch=5 n=86 v=0
354836 On ch=5 n=98 v=0
354840 On ch=5 n=60 v=0
354840 On ch=5 n=47 v=100
354840 On ch=5 n=97 v=100
354956 On ch=5 n=47 v=0
354956 On ch=5 n=97 v=0
354960 On ch=5 n=48 v=100
354960 On ch=5 n=85 v=100
354960 On ch=5 n=98 v=100
354960 On ch=5 n=73 v=100
355076 On ch=5 n=48 v=0
355076 On ch=5 n=85 v=0
355076 On ch=5 n=98 v=0
355080 On ch=5 n=73 v=0
355080 On ch=5 n=47 v=100
355080 On ch=5 n=97 v=100
355196 On ch=5 n=47 v=0
355196 On ch=5 n=97 v=0
355436 On ch=5 n=106 v=0
355440 On ch=5 n=43 v=100
355440 On ch=5 n=60 v=100
355440 On ch=5 n=72 v=100
355440 On ch=5 n=84 v=100
355440 On ch=5 n=96 v=100
355440 On ch=5 n=105 v=100
355556 On ch=5 n=43 v=0
355556 On ch=5 n=84 v=0
355556 On ch=5 n=96 v=0
355800 On ch=5 n=45 v=100
355800 On ch=5 n=85 v=100
355800 On ch=5 n=97 v=100
355916 On ch=5 n=45 v=0
357360 On ch=5 n=85 v=0
357360 On ch=5 n=97 v=0
357480 On ch=5 n=43 v=100
357480 On ch=5 n=85 v=100
357480 On ch=5 n=97 v=100
357596 On ch=5 n=43 v=0
357596 On ch=5 n=85 v=0
357596 On ch=5 n=97 v=0
357720 On ch=5 n=43 v=100
357720 On ch=5 n=85 v=100
357720 On ch=5 n=97 v=100
357836 On ch=5 n=43 v=0
357836 On ch=5 n=85 v=0
357836 On ch=5 n=97 v=0
357960 On ch=5 n=43 v=100
357960 On ch=5 n=85 v=100
357960 On ch=5 n=97 v=100
358076 On ch=5 n=43 v=0
358076 On ch=5 n=85 v=0
358076 On ch=5 n=97 v=0
358200 On ch=5 n=43 v=100
358200 On ch=5 n=85 v=100
358200 On ch=5 n=97 v=100
358316 On ch=5 n=43 v=0
358316 On ch=5 n=85 v=0
358316 On ch=5 n=97 v=0
358560 On ch=5 n=43 v=100
358560 On ch=5 n=85 v=100
358560 On ch=5 n=97 v=100
358676 On ch=5 n=43 v=0
358676 On ch=5 n=85 v=0
358676 On ch=5 n=97 v=0
358800 On ch=5 n=43 v=100
358800 On ch=5 n=85 v=100
358800 On ch=5 n=97 v=100
358916 On ch=5 n=43 v=0
358916 On ch=5 n=85 v=0
358916 On ch=5 n=97 v=0
359036 On ch=5 n=60 v=0
359040 On ch=5 n=43 v=100
359040 On ch=5 n=85 v=100
359040 On ch=5 n=97 v=100
359156 On ch=5 n=72 v=0
359156 On ch=5 n=43 v=0
359156 On ch=5 n=85 v=0
359156 On ch=5 n=97 v=0
359280 On ch=5 n=45 v=100
359280 On ch=5 n=74 v=100
359280 On ch=5 n=86 v=100
359280 On ch=5 n=98 v=100
359280 On ch=5 n=61 v=100
359396 On ch=5 n=74 v=0
359396 On ch=5 n=86 v=0
359400 On ch=5 n=61 v=0
359640 On ch=5 n=98 v=0
359756 On ch=5 n=45 v=0
359760 On ch=5 n=43 v=100
359760 On ch=5 n=85 v=100
359760 On ch=5 n=97 v=100
359876 On ch=5 n=43 v=0
359876 On ch=5 n=85 v=0
359876 On ch=5 n=97 v=0
359996 On ch=5 n=105 v=0
360000 On ch=5 n=42 v=100
360000 On ch=5 n=96 v=100
360000 On ch=5 n=106 v=100
360000 On ch=5 n=72 v=100
360000 On ch=5 n=84 v=100
360116 On ch=5 n=42 v=0
360116 On ch=5 n=96 v=0
360120 On ch=5 n=72 v=0
360120 On ch=5 n=84 v=0
360240 On ch=5 n=46 v=100
360240 On ch=5 n=61 v=100
360240 On ch=5 n=74 v=100
360240 On ch=5 n=87 v=100
360240 On ch=5 n=99 v=100
361676 On ch=5 n=46 v=0
361676 On ch=5 n=61 v=0
361676 On ch=5 n=74 v=0
361676 On ch=5 n=87 v=0
361676 On ch=5 n=99 v=0
361920 On ch=5 n=47 v=100
361920 On ch=5 n=60 v=100
361920 On ch=5 n=73 v=100
361920 On ch=5 n=85 v=100
361920 On ch=5 n=97 v=100
362036 On ch=5 n=47 v=0
362756 On ch=5 n=60 v=0
362756 On ch=5 n=73 v=0
362756 On ch=5 n=85 v=0
362760 On ch=5 n=97 v=0
362880 On ch=5 n=40 v=100
362880 On ch=5 n=72 v=100
362880 On ch=5 n=84 v=100
362880 On ch=5 n=96 v=100
362996 On ch=5 n=40 v=0
363716 On ch=5 n=72 v=0
363716 On ch=5 n=84 v=0
363720 On ch=5 n=96 v=0
363840 On ch=5 n=45 v=100
363840 On ch=5 n=61 v=100
363840 On ch=5 n=74 v=100
363840 On ch=5 n=86 v=100
363840 On ch=5 n=98 v=100
365276 On ch=5 n=106 v=0
365276 On ch=5 n=45 v=0
365276 On ch=5 n=61 v=0
365276 On ch=5 n=74 v=0
365276 On ch=5 n=86 v=0
365276 On ch=5 n=98 v=0
365280 On ch=5 n=105 v=100
365400 On ch=5 n=46 v=100
365400 On ch=5 n=73 v=100
365400 On ch=5 n=85 v=100
365400 On ch=5 n=96 v=100
365516 On ch=5 n=46 v=0
365516 On ch=5 n=73 v=0
365516 On ch=5 n=85 v=0
365516 On ch=5 n=96 v=0
365520 On ch=5 n=47 v=100
365520 On ch=5 n=97 v=100
365636 On ch=5 n=47 v=0
365636 On ch=5 n=97 v=0
365640 On ch=5 n=48 v=100
365640 On ch=5 n=86 v=100
365640 On ch=5 n=98 v=100
365756 On ch=5 n=48 v=0
365756 On ch=5 n=86 v=0
365756 On ch=5 n=98 v=0
365760 On ch=5 n=49 v=100
365760 On ch=5 n=61 v=100
365760 On ch=5 n=74 v=100
365760 On ch=5 n=87 v=100
365760 On ch=5 n=99 v=100
365876 On ch=5 n=49 v=0
365876 On ch=5 n=74 v=0
365876 On ch=5 n=87 v=0
365876 On ch=5 n=99 v=0
365880 On ch=5 n=48 v=100
365880 On ch=5 n=98 v=100
365996 On ch=5 n=48 v=0
365996 On ch=5 n=98 v=0
366000 On ch=5 n=49 v=100
366000 On ch=5 n=87 v=100
366000 On ch=5 n=99 v=100
366000 On ch=5 n=74 v=100
366116 On ch=5 n=49 v=0
366116 On ch=5 n=87 v=0
366116 On ch=5 n=99 v=0
366120 On ch=5 n=74 v=0
366120 On ch=5 n=48 v=100
366120 On ch=5 n=98 v=100
366236 On ch=5 n=48 v=0
366236 On ch=5 n=98 v=0
366240 On ch=5 n=49 v=100
366240 On ch=5 n=74 v=100
366240 On ch=5 n=87 v=100
366240 On ch=5 n=99 v=100
366316 On ch=5 n=49 v=0
366316 On ch=5 n=74 v=0
366316 On ch=5 n=87 v=0
366316 On ch=5 n=99 v=0
366320 On ch=5 n=48 v=100
366320 On ch=5 n=98 v=100
366396 On ch=5 n=48 v=0
366396 On ch=5 n=98 v=0
366400 On ch=5 n=49 v=100
366400 On ch=5 n=87 v=100
366400 On ch=5 n=99 v=100
366476 On ch=5 n=49 v=0
366476 On ch=5 n=87 v=0
366476 On ch=5 n=99 v=0
366480 On ch=5 n=61 v=0
366480 On ch=5 n=48 v=100
366480 On ch=5 n=98 v=100
366480 On ch=5 n=74 v=100
366556 On ch=5 n=48 v=0
366556 On ch=5 n=98 v=0
366560 On ch=5 n=49 v=100
366560 On ch=5 n=87 v=100
366560 On ch=5 n=99 v=100
366600 On ch=5 n=74 v=0
366636 On ch=5 n=49 v=0
366636 On ch=5 n=87 v=0
366636 On ch=5 n=99 v=0
366640 On ch=5 n=48 v=100
366640 On ch=5 n=98 v=100
366716 On ch=5 n=48 v=0
366716 On ch=5 n=98 v=0
366720 On ch=5 n=49 v=100
366720 On ch=5 n=61 v=100
366720 On ch=5 n=74 v=100
366720 On ch=5 n=87 v=100
366720 On ch=5 n=99 v=100
366796 On ch=5 n=49 v=0
366796 On ch=5 n=74 v=0
366796 On ch=5 n=87 v=0
366796 On ch=5 n=99 v=0
366800 On ch=5 n=48 v=100
366800 On ch=5 n=98 v=100
366876 On ch=5 n=48 v=0
366876 On ch=5 n=98 v=0
366880 On ch=5 n=49 v=100
366880 On ch=5 n=87 v=100
366880 On ch=5 n=99 v=100
366956 On ch=5 n=49 v=0
366956 On ch=5 n=87 v=0
366956 On ch=5 n=99 v=0
366960 On ch=5 n=48 v=100
366960 On ch=5 n=98 v=100
366960 On ch=5 n=74 v=100
367036 On ch=5 n=48 v=0
367036 On ch=5 n=98 v=0
367040 On ch=5 n=49 v=100
367040 On ch=5 n=87 v=100
367040 On ch=5 n=99 v=100
367080 On ch=5 n=74 v=0
367116 On ch=5 n=49 v=0
367116 On ch=5 n=87 v=0
367116 On ch=5 n=99 v=0
367120 On ch=5 n=48 v=100
367120 On ch=5 n=98 v=100
367196 On ch=5 n=48 v=0
367196 On ch=5 n=98 v=0
367200 On ch=5 n=49 v=100
367200 On ch=5 n=74 v=100
367200 On ch=5 n=87 v=100
367200 On ch=5 n=99 v=100
367276 On ch=5 n=49 v=0
367276 On ch=5 n=74 v=0
367276 On ch=5 n=87 v=0
367276 On ch=5 n=99 v=0
367280 On ch=5 n=48 v=100
367280 On ch=5 n=98 v=100
367356 On ch=5 n=48 v=0
367356 On ch=5 n=98 v=0
367360 On ch=5 n=49 v=100
367360 On ch=5 n=87 v=100
367360 On ch=5 n=99 v=100
367400 On ch=5 n=61 v=0
367436 On ch=5 n=49 v=0
367436 On ch=5 n=87 v=0
367436 On ch=5 n=99 v=0
367440 On ch=5 n=48 v=100
367440 On ch=5 n=98 v=100
367440 On ch=5 n=74 v=100
367516 On ch=5 n=48 v=0
367516 On ch=5 n=98 v=0
367560 On ch=5 n=74 v=0
367680 On ch=5 n=49 v=100
367680 On ch=5 n=62 v=100
367680 On ch=5 n=75 v=100
367680 On ch=5 n=99 v=100
367680 On ch=5 n=87 v=100
367736 On ch=5 n=49 v=0
367736 On ch=5 n=99 v=0
367736 On ch=5 n=87 v=0
367740 On ch=5 n=100 v=100
367740 On ch=5 n=88 v=100
367860 On ch=5 n=51 v=100
368040 On ch=5 n=62 v=0
368040 On ch=5 n=75 v=0
368040 On ch=5 n=100 v=0
368040 On ch=5 n=88 v=0
368160 On ch=5 n=62 v=100
368160 On ch=5 n=75 v=100
368160 On ch=5 n=88 v=100
368160 On ch=5 n=100 v=100
368276 On ch=5 n=51 v=0
368276 On ch=5 n=62 v=0
368276 On ch=5 n=75 v=0
368276 On ch=5 n=88 v=0
368276 On ch=5 n=100 v=0
368400 On ch=5 n=49 v=100
368400 On ch=5 n=87 v=100
368400 On ch=5 n=99 v=100
368516 On ch=5 n=49 v=0
368516 On ch=5 n=87 v=0
368516 On ch=5 n=99 v=0
368640 On ch=5 n=62 v=100
368640 On ch=5 n=75 v=100
368640 On ch=5 n=88 v=100
368640 On ch=5 n=100 v=100
368756 On ch=5 n=62 v=0
368756 On ch=5 n=75 v=0
368756 On ch=5 n=88 v=0
368756 On ch=5 n=100 v=0
368760 On ch=5 n=51 v=100
368880 On ch=5 n=75 v=100
368880 On ch=5 n=88 v=100
368880 On ch=5 n=100 v=100
368996 On ch=5 n=75 v=0
368996 On ch=5 n=88 v=0
369240 On ch=5 n=100 v=0
369356 On ch=5 n=51 v=0
369360 On ch=5 n=61 v=100
369360 On ch=5 n=73 v=100
369360 On ch=5 n=85 v=100
369360 On ch=5 n=97 v=100
369480 On ch=5 n=48 v=100
369720 On ch=5 n=85 v=0
369720 On ch=5 n=97 v=0
369836 On ch=5 n=61 v=0
369836 On ch=5 n=73 v=0
369840 On ch=5 n=85 v=100
369840 On ch=5 n=97 v=100
369956 On ch=5 n=85 v=0
369956 On ch=5 n=97 v=0
370080 On ch=5 n=73 v=100
370080 On ch=5 n=85 v=100
370080 On ch=5 n=97 v=100
370196 On ch=5 n=73 v=0
370196 On ch=5 n=85 v=0
370196 On ch=5 n=97 v=0
370320 On ch=5 n=61 v=100
370320 On ch=5 n=73 v=100
370320 On ch=5 n=85 v=100
370320 On ch=5 n=97 v=100
370916 On ch=5 n=48 v=0
370916 On ch=5 n=61 v=0
370916 On ch=5 n=73 v=0
370916 On ch=5 n=85 v=0
370916 On ch=5 n=97 v=0
371036 On ch=5 n=103 v=0
371040 Meta Text "[play]"
371040 On ch=5 n=41 v=100
371040 On ch=5 n=60 v=100
371040 On ch=5 n=72 v=100
371040 On ch=5 n=84 v=100
371040 On ch=5 n=96 v=100
371040 On ch=5 n=106 v=100
371156 On ch=5 n=41 v=0
371156 On ch=5 n=60 v=0
371156 On ch=5 n=72 v=0
371156 On ch=5 n=84 v=0
371156 On ch=5 n=96 v=0
371280 On ch=5 n=42 v=100
371280 On ch=5 n=73 v=100
371280 On ch=5 n=85 v=100
371280 On ch=5 n=97 v=100
371280 On ch=5 n=60 v=100
371396 On ch=5 n=42 v=0
371396 On ch=5 n=73 v=0
371396 On ch=5 n=85 v=0
371396 On ch=5 n=97 v=0
371400 On ch=5 n=60 v=0
371520 On ch=5 n=44 v=100
371520 On ch=5 n=61 v=100
371520 On ch=5 n=74 v=100
371520 On ch=5 n=84 v=100
371520 On ch=5 n=86 v=100
371520 On ch=5 n=96 v=100
371520 On ch=5 n=98 v=100
374396 On ch=5 n=61 v=0
374636 On ch=5 n=44 v=0
374636 On ch=5 n=74 v=0
374636 On ch=5 n=84 v=0
374636 On ch=5 n=86 v=0
374756 On ch=5 n=96 v=0
374756 On ch=5 n=98 v=0
374880 On ch=5 n=41 v=100
374880 On ch=5 n=60 v=100
374880 On ch=5 n=72 v=100
374880 On ch=5 n=84 v=100
374880 On ch=5 n=96 v=100
374880 On ch=5 n=116 v=100
374996 On ch=5 n=41 v=0
374996 On ch=5 n=60 v=0
374996 On ch=5 n=72 v=0
374996 On ch=5 n=84 v=0
374996 On ch=5 n=96 v=0
375120 On ch=5 n=42 v=100
375120 On ch=5 n=73 v=100
375120 On ch=5 n=85 v=100
375120 On ch=5 n=97 v=100
375120 On ch=5 n=60 v=100
375236 On ch=5 n=42 v=0
375236 On ch=5 n=73 v=0
375236 On ch=5 n=85 v=0
375236 On ch=5 n=97 v=0
375240 On ch=5 n=60 v=0
375360 On ch=5 n=44 v=100
375360 On ch=5 n=61 v=100
375360 On ch=5 n=74 v=100
375360 On ch=5 n=84 v=100
375360 On ch=5 n=86 v=100
375360 On ch=5 n=96 v=100
375360 On ch=5 n=98 v=100
375480 On ch=5 n=116 v=0
378236 On ch=5 n=61 v=0
378476 On ch=5 n=44 v=0
378476 On ch=5 n=74 v=0
378476 On ch=5 n=84 v=0
378476 On ch=5 n=86 v=0
378596 On ch=5 n=96 v=0
378596 On ch=5 n=98 v=0
378720 On ch=5 n=44 v=100
378720 On ch=5 n=61 v=100
378720 On ch=5 n=73 v=100
378720 On ch=5 n=85 v=100
378720 On ch=5 n=97 v=100
378836 On ch=5 n=44 v=0
378836 On ch=5 n=61 v=0
378836 On ch=5 n=73 v=0
378836 On ch=5 n=85 v=0
378836 On ch=5 n=97 v=0
378960 On ch=5 n=46 v=100
378960 On ch=5 n=74 v=100
378960 On ch=5 n=86 v=100
378960 On ch=5 n=98 v=100
378960 On ch=5 n=61 v=100
379076 On ch=5 n=46 v=0
379076 On ch=5 n=74 v=0
379076 On ch=5 n=86 v=0
379076 On ch=5 n=98 v=0
379080 On ch=5 n=61 v=0
379200 On ch=5 n=48 v=100
379200 On ch=5 n=62 v=100
379200 On ch=5 n=75 v=100
379200 On ch=5 n=85 v=100
379200 On ch=5 n=87 v=100
379200 On ch=5 n=97 v=100
379200 On ch=5 n=99 v=100
382076 On ch=5 n=62 v=0
382316 On ch=5 n=48 v=0
382316 On ch=5 n=75 v=0
382316 On ch=5 n=85 v=0
382316 On ch=5 n=87 v=0
382436 On ch=5 n=97 v=0
382436 On ch=5 n=99 v=0
382560 On ch=5 n=44 v=100
382560 On ch=5 n=61 v=100
382560 On ch=5 n=73 v=100
382560 On ch=5 n=85 v=100
382560 On ch=5 n=97 v=100
382560 On ch=5 n=116 v=100
382676 On ch=5 n=44 v=0
382676 On ch=5 n=61 v=0
382676 On ch=5 n=73 v=0
382676 On ch=5 n=85 v=0
382676 On ch=5 n=97 v=0
382800 On ch=5 n=46 v=100
382800 On ch=5 n=74 v=100
382800 On ch=5 n=86 v=100
382800 On ch=5 n=98 v=100
382800 On ch=5 n=61 v=100
382916 On ch=5 n=46 v=0
382916 On ch=5 n=74 v=0
382916 On ch=5 n=86 v=0
382916 On ch=5 n=98 v=0
382920 On ch=5 n=61 v=0
383040 On ch=5 n=48 v=100
383040 On ch=5 n=62 v=100
383040 On ch=5 n=75 v=100
383040 On ch=5 n=85 v=100
383040 On ch=5 n=87 v=100
383040 On ch=5 n=97 v=100
383040 On ch=5 n=99 v=100
384596 On ch=5 n=48 v=0
384836 On ch=5 n=62 v=0
384836 On ch=5 n=75 v=0
384836 On ch=5 n=85 v=0
384836 On ch=5 n=87 v=0
384836 On ch=5 n=97 v=0
384836 On ch=5 n=99 v=0
384960 On ch=5 n=52 v=100
384960 On ch=5 n=62 v=100
384960 On ch=5 n=75 v=100
384960 On ch=5 n=88 v=100
384960 On ch=5 n=100 v=100
386396 On ch=5 n=52 v=0
386396 On ch=5 n=62 v=0
386396 On ch=5 n=75 v=0
386396 On ch=5 n=88 v=0
386396 On ch=5 n=100 v=0
386400 On ch=5 n=116 v=0
386880 On ch=5 n=41 v=100
386880 On ch=5 n=60 v=100
386880 On ch=5 n=72 v=100
386880 On ch=5 n=74 v=100
386880 On ch=5 n=84 v=100
386880 On ch=5 n=87 v=100
386880 On ch=5 n=96 v=100
386880 On ch=5 n=99 v=100
386880 On ch=5 n=61 v=100
390236 On ch=5 n=60 v=0
390236 On ch=5 n=61 v=0
390476 On ch=5 n=41 v=0
390476 On ch=5 n=72 v=0
390476 On ch=5 n=74 v=0
390476 On ch=5 n=84 v=0
390476 On ch=5 n=87 v=0
390596 On ch=5 n=96 v=0
390596 On ch=5 n=99 v=0
390720 On ch=5 n=48 v=100
390720 On ch=5 n=62 v=100
390720 On ch=5 n=75 v=100
390720 On ch=5 n=88 v=100
390720 On ch=5 n=100 v=100
400796 On ch=5 n=48 v=0
400796 On ch=5 n=62 v=0
400796 On ch=5 n=75 v=0
400796 On ch=5 n=88 v=0
400796 On ch=5 n=100 v=0
401040 On ch=5 n=45 v=100
401040 On ch=5 n=84 v=100
401040 On ch=5 n=86 v=100
401040 On ch=5 n=96 v=100
401040 On ch=5 n=98 v=100
401040 On ch=5 n=72 v=100
401156 On ch=5 n=84 v=0
401156 On ch=5 n=86 v=0
401156 On ch=5 n=96 v=0
401156 On ch=5 n=98 v=0
401160 On ch=5 n=72 v=0
401160 On ch=5 n=96 v=100
401160 On ch=5 n=98 v=100
401276 On ch=5 n=96 v=0
401276 On ch=5 n=98 v=0
401280 On ch=5 n=60 v=100
401280 On ch=5 n=72 v=100
401280 On ch=5 n=84 v=100
401280 On ch=5 n=86 v=100
401280 On ch=5 n=96 v=100
401280 On ch=5 n=98 v=100
401396 On ch=5 n=45 v=0
401396 On ch=5 n=60 v=0
401396 On ch=5 n=72 v=0
401396 On ch=5 n=84 v=0
401396 On ch=5 n=86 v=0
401396 On ch=5 n=96 v=0
401396 On ch=5 n=98 v=0
401520 On ch=5 n=46 v=100
401520 On ch=5 n=85 v=100
401520 On ch=5 n=87 v=100
401520 On ch=5 n=97 v=100
401520 On ch=5 n=99 v=100
401520 On ch=5 n=73 v=100
401636 On ch=5 n=85 v=0
401636 On ch=5 n=87 v=0
401636 On ch=5 n=97 v=0
401636 On ch=5 n=99 v=0
401640 On ch=5 n=73 v=0
401640 On ch=5 n=97 v=100
401640 On ch=5 n=99 v=100
401756 On ch=5 n=97 v=0
401756 On ch=5 n=99 v=0
401760 On ch=5 n=61 v=100
401760 On ch=5 n=73 v=100
401760 On ch=5 n=85 v=100
401760 On ch=5 n=87 v=100
401760 On ch=5 n=97 v=100
401760 On ch=5 n=99 v=100
401876 On ch=5 n=46 v=0
401876 On ch=5 n=61 v=0
401876 On ch=5 n=73 v=0
401876 On ch=5 n=85 v=0
401876 On ch=5 n=87 v=0
401876 On ch=5 n=97 v=0
401876 On ch=5 n=99 v=0
402000 On ch=5 n=48 v=100
402000 On ch=5 n=86 v=100
402000 On ch=5 n=88 v=100
402000 On ch=5 n=98 v=100
402000 On ch=5 n=100 v=100
402000 On ch=5 n=75 v=100
402000 On ch=5 n=74 v=100
402116 On ch=5 n=86 v=0
402116 On ch=5 n=88 v=0
402116 On ch=5 n=98 v=0
402116 On ch=5 n=100 v=0
402120 On ch=5 n=75 v=0
402120 On ch=5 n=74 v=0
402120 On ch=5 n=98 v=100
402120 On ch=5 n=100 v=100
402236 On ch=5 n=98 v=0
402236 On ch=5 n=100 v=0
402240 On ch=5 n=62 v=100
402240 On ch=5 n=74 v=100
402240 On ch=5 n=75 v=100
402240 On ch=5 n=86 v=100
402240 On ch=5 n=88 v=100
402240 On ch=5 n=98 v=100
402240 On ch=5 n=100 v=100
408476 On ch=5 n=48 v=0
408476 On ch=5 n=62 v=0
408476 On ch=5 n=74 v=0
408476 On ch=5 n=75 v=0
408476 On ch=5 n=86 v=0
408476 On ch=5 n=88 v=0
408476 On ch=5 n=98 v=0
408476 On ch=5 n=100 v=0
408720 On ch=5 n=45 v=100
408720 On ch=5 n=84 v=100
408720 On ch=5 n=86 v=100
408720 On ch=5 n=96 v=100
408720 On ch=5 n=98 v=100
408720 On ch=5 n=72 v=100
408836 On ch=5 n=84 v=0
408836 On ch=5 n=86 v=0
408836 On ch=5 n=96 v=0
408836 On ch=5 n=98 v=0
408840 On ch=5 n=72 v=0
408840 On ch=5 n=96 v=100
408840 On ch=5 n=98 v=100
408956 On ch=5 n=96 v=0
408956 On ch=5 n=98 v=0
408960 On ch=5 n=60 v=100
408960 On ch=5 n=72 v=100
408960 On ch=5 n=84 v=100
408960 On ch=5 n=86 v=100
408960 On ch=5 n=96 v=100
408960 On ch=5 n=98 v=100
408960 On ch=5 n=116 v=100
409076 On ch=5 n=45 v=0
409076 On ch=5 n=60 v=0
409076 On ch=5 n=72 v=0
409076 On ch=5 n=84 v=0
409076 On ch=5 n=86 v=0
409076 On ch=5 n=96 v=0
409076 On ch=5 n=98 v=0
409200 On ch=5 n=46 v=100
409200 On ch=5 n=96 v=100
409200 On ch=5 n=98 v=100
409200 On ch=5 n=84 v=100
409200 On ch=5 n=86 v=100
409200 On ch=5 n=72 v=100
409316 On ch=5 n=96 v=0
409316 On ch=5 n=98 v=0
409320 On ch=5 n=84 v=0
409320 On ch=5 n=86 v=0
409320 On ch=5 n=72 v=0
409440 On ch=5 n=61 v=100
409440 On ch=5 n=73 v=100
409440 On ch=5 n=85 v=100
409440 On ch=5 n=87 v=100
409440 On ch=5 n=97 v=100
409440 On ch=5 n=99 v=100
409556 On ch=5 n=46 v=0
409556 On ch=5 n=61 v=0
409556 On ch=5 n=73 v=0
409556 On ch=5 n=85 v=0
409556 On ch=5 n=87 v=0
409556 On ch=5 n=97 v=0
409556 On ch=5 n=99 v=0
409680 On ch=5 n=48 v=100
409680 On ch=5 n=96 v=100
409680 On ch=5 n=98 v=100
409680 On ch=5 n=84 v=100
409680 On ch=5 n=86 v=100
409680 On ch=5 n=72 v=100
409796 On ch=5 n=96 v=0
409796 On ch=5 n=98 v=0
409800 On ch=5 n=84 v=0
409800 On ch=5 n=86 v=0
409800 On ch=5 n=72 v=0
409920 On ch=5 n=62 v=100
409920 On ch=5 n=74 v=100
409920 On ch=5 n=75 v=100
409920 On ch=5 n=86 v=100
409920 On ch=5 n=88 v=100
409920 On ch=5 n=98 v=100
409920 On ch=5 n=100 v=100
410040 On ch=5 n=116 v=0
413276 On ch=5 n=62 v=0
413276 On ch=5 n=74 v=0
413276 On ch=5 n=75 v=0
413276 On ch=5 n=86 v=0
413276 On ch=5 n=88 v=0
413276 On ch=5 n=98 v=0
413276 On ch=5 n=100 v=0
413396 On ch=5 n=48 v=0
413520 On ch=5 n=46 v=100
413520 On ch=5 n=85 v=100
413520 On ch=5 n=86 v=100
413520 On ch=5 n=97 v=100
413520 On ch=5 n=98 v=100
413636 On ch=5 n=85 v=0
413636 On ch=5 n=86 v=0
413636 On ch=5 n=97 v=0
413636 On ch=5 n=98 v=0
413640 On ch=5 n=97 v=100
413640 On ch=5 n=98 v=100
413756 On ch=5 n=97 v=0
413756 On ch=5 n=98 v=0
413760 On ch=5 n=61 v=100
413760 On ch=5 n=73 v=100
413760 On ch=5 n=85 v=100
413760 On ch=5 n=86 v=100
413760 On ch=5 n=97 v=100
413760 On ch=5 n=98 v=100
415196 On ch=5 n=46 v=0
415316 On ch=5 n=61 v=0
415316 On ch=5 n=73 v=0
415316 On ch=5 n=85 v=0
415316 On ch=5 n=86 v=0
415316 On ch=5 n=97 v=0
415316 On ch=5 n=98 v=0
415440 On ch=5 n=47 v=100
415440 On ch=5 n=86 v=100
415440 On ch=5 n=98 v=100
415556 On ch=5 n=86 v=0
415556 On ch=5 n=98 v=0
415560 On ch=5 n=98 v=100
415676 On ch=5 n=98 v=0
415680 On ch=5 n=62 v=100
415680 On ch=5 n=74 v=100
415680 On ch=5 n=86 v=100
415680 On ch=5 n=88 v=100
415680 On ch=5 n=98 v=100
415680 On ch=5 n=100 v=100
416156 On ch=5 n=47 v=0
416156 On ch=5 n=62 v=0
416156 On ch=5 n=74 v=0
416156 On ch=5 n=86 v=0
416156 On ch=5 n=88 v=0
416156 On ch=5 n=98 v=0
416156 On ch=5 n=100 v=0
416400 On ch=5 n=46 v=100
416400 On ch=5 n=85 v=100
416400 On ch=5 n=86 v=100
416400 On ch=5 n=97 v=100
416400 On ch=5 n=98 v=100
416516 On ch=5 n=85 v=0
416516 On ch=5 n=86 v=0
416516 On ch=5 n=97 v=0
416516 On ch=5 n=98 v=0
416640 On ch=5 n=61 v=100
416640 On ch=5 n=73 v=100
416640 On ch=5 n=85 v=100
416640 On ch=5 n=86 v=100
416640 On ch=5 n=97 v=100
416640 On ch=5 n=98 v=100
417116 On ch=5 n=46 v=0
417116 On ch=5 n=61 v=0
417116 On ch=5 n=73 v=0
417116 On ch=5 n=85 v=0
417116 On ch=5 n=86 v=0
417116 On ch=5 n=97 v=0
417116 On ch=5 n=98 v=0
417360 On ch=5 n=44 v=100
417360 On ch=5 n=84 v=100
417360 On ch=5 n=96 v=100
417360 On ch=5 n=98 v=100
417476 On ch=5 n=84 v=0
417476 On ch=5 n=96 v=0
417476 On ch=5 n=98 v=0
417480 On ch=5 n=96 v=100
417480 On ch=5 n=98 v=100
417596 On ch=5 n=96 v=0
417596 On ch=5 n=98 v=0
417600 On ch=5 n=60 v=100
417600 On ch=5 n=72 v=100
417600 On ch=5 n=84 v=100
417600 On ch=5 n=96 v=100
417716 On ch=5 n=60 v=0
417716 On ch=5 n=72 v=0
417716 On ch=5 n=84 v=0
417716 On ch=5 n=96 v=0
417840 On ch=5 n=72 v=100
417840 On ch=5 n=84 v=100
417840 On ch=5 n=96 v=100
417956 On ch=5 n=72 v=0
417956 On ch=5 n=84 v=0
417956 On ch=5 n=96 v=0
418080 On ch=5 n=60 v=100
418080 On ch=5 n=72 v=100
418080 On ch=5 n=84 v=100
418080 On ch=5 n=96 v=100
418196 On ch=5 n=60 v=0
418196 On ch=5 n=72 v=0
418196 On ch=5 n=84 v=0
418196 On ch=5 n=96 v=0
418320 On ch=5 n=72 v=100
418320 On ch=5 n=84 v=100
418320 On ch=5 n=96 v=100
418436 On ch=5 n=72 v=0
418436 On ch=5 n=84 v=0
418436 On ch=5 n=96 v=0
418560 On ch=5 n=60 v=100
418560 On ch=5 n=72 v=100
418560 On ch=5 n=84 v=100
418560 On ch=5 n=96 v=100
418676 On ch=5 n=60 v=0
418676 On ch=5 n=72 v=0
418676 On ch=5 n=84 v=0
418676 On ch=5 n=96 v=0
418800 On ch=5 n=72 v=100
418800 On ch=5 n=84 v=100
418800 On ch=5 n=96 v=100
418916 On ch=5 n=72 v=0
418916 On ch=5 n=84 v=0
418916 On ch=5 n=96 v=0
419040 On ch=5 n=60 v=100
419040 On ch=5 n=72 v=100
419040 On ch=5 n=84 v=100
419040 On ch=5 n=96 v=100
419040 On ch=5 n=98 v=100
419040 On ch=5 n=86 v=100
419040 On ch=5 n=73 v=100
419156 On ch=5 n=60 v=0
419156 On ch=5 n=72 v=0
419156 On ch=5 n=84 v=0
419156 On ch=5 n=96 v=0
419160 On ch=5 n=98 v=0
419160 On ch=5 n=86 v=0
419160 On ch=5 n=73 v=0
419280 On ch=5 n=72 v=100
419280 On ch=5 n=84 v=100
419280 On ch=5 n=96 v=100
419280 On ch=5 n=98 v=100
419280 On ch=5 n=86 v=100
419280 On ch=5 n=73 v=100
419396 On ch=5 n=72 v=0
419396 On ch=5 n=84 v=0
419396 On ch=5 n=96 v=0
419400 On ch=5 n=98 v=0
419400 On ch=5 n=86 v=0
419400 On ch=5 n=73 v=0
419520 On ch=5 n=60 v=100
419520 On ch=5 n=72 v=100
419520 On ch=5 n=73 v=100
419520 On ch=5 n=84 v=100
419520 On ch=5 n=86 v=100
419520 On ch=5 n=96 v=100
419520 On ch=5 n=98 v=100
419636 On ch=5 n=72 v=0
419636 On ch=5 n=73 v=0
419636 On ch=5 n=84 v=0
419636 On ch=5 n=86 v=0
419636 On ch=5 n=96 v=0
419636 On ch=5 n=98 v=0
419640 On ch=5 n=60 v=0
419760 On ch=5 n=72 v=100
419760 On ch=5 n=73 v=100
419760 On ch=5 n=84 v=100
419760 On ch=5 n=86 v=100
419760 On ch=5 n=96 v=100
419760 On ch=5 n=98 v=100
419760 On ch=5 n=60 v=100
419876 On ch=5 n=72 v=0
419876 On ch=5 n=73 v=0
419876 On ch=5 n=84 v=0
419876 On ch=5 n=86 v=0
419876 On ch=5 n=96 v=0
419876 On ch=5 n=98 v=0
419880 On ch=5 n=60 v=0
420000 On ch=5 n=60 v=100
420000 On ch=5 n=72 v=100
420000 On ch=5 n=73 v=100
420000 On ch=5 n=84 v=100
420000 On ch=5 n=86 v=100
420000 On ch=5 n=96 v=100
420000 On ch=5 n=98 v=100
420116 On ch=5 n=72 v=0
420116 On ch=5 n=73 v=0
420116 On ch=5 n=84 v=0
420116 On ch=5 n=86 v=0
420116 On ch=5 n=96 v=0
420116 On ch=5 n=98 v=0
420120 On ch=5 n=60 v=0
420240 On ch=5 n=72 v=100
420240 On ch=5 n=73 v=100
420240 On ch=5 n=84 v=100
420240 On ch=5 n=86 v=100
420240 On ch=5 n=96 v=100
420240 On ch=5 n=98 v=100
420240 On ch=5 n=60 v=100
420356 On ch=5 n=72 v=0
420356 On ch=5 n=73 v=0
420356 On ch=5 n=84 v=0
420356 On ch=5 n=86 v=0
420356 On ch=5 n=96 v=0
420356 On ch=5 n=98 v=0
420360 On ch=5 n=60 v=0
420480 On ch=5 n=60 v=100
420480 On ch=5 n=72 v=100
420480 On ch=5 n=73 v=100
420480 On ch=5 n=84 v=100
420480 On ch=5 n=86 v=100
420480 On ch=5 n=96 v=100
420480 On ch=5 n=98 v=100
420596 On ch=5 n=72 v=0
420596 On ch=5 n=73 v=0
420596 On ch=5 n=84 v=0
420596 On ch=5 n=86 v=0
420596 On ch=5 n=96 v=0
420596 On ch=5 n=98 v=0
420600 On ch=5 n=60 v=0
420720 On ch=5 n=72 v=100
420720 On ch=5 n=73 v=100
420720 On ch=5 n=84 v=100
420720 On ch=5 n=86 v=100
420720 On ch=5 n=96 v=100
420720 On ch=5 n=98 v=100
420720 On ch=5 n=60 v=100
420836 On ch=5 n=72 v=0
420836 On ch=5 n=73 v=0
420836 On ch=5 n=84 v=0
420836 On ch=5 n=86 v=0
420836 On ch=5 n=96 v=0
420836 On ch=5 n=98 v=0
420840 On ch=5 n=60 v=0
420960 On ch=5 n=60 v=100
420960 On ch=5 n=72 v=100
420960 On ch=5 n=73 v=100
420960 On ch=5 n=84 v=100
420960 On ch=5 n=86 v=100
420960 On ch=5 n=96 v=100
420960 On ch=5 n=98 v=100
421076 On ch=5 n=72 v=0
421076 On ch=5 n=73 v=0
421076 On ch=5 n=84 v=0
421076 On ch=5 n=86 v=0
421076 On ch=5 n=96 v=0
421076 On ch=5 n=98 v=0
421080 On ch=5 n=60 v=0
421200 On ch=5 n=72 v=100
421200 On ch=5 n=73 v=100
421200 On ch=5 n=84 v=100
421200 On ch=5 n=86 v=100
421200 On ch=5 n=96 v=100
421200 On ch=5 n=98 v=100
421200 On ch=5 n=60 v=100
421316 On ch=5 n=44 v=0
421316 On ch=5 n=72 v=0
421316 On ch=5 n=73 v=0
421316 On ch=5 n=84 v=0
421316 On ch=5 n=86 v=0
421316 On ch=5 n=96 v=0
421316 On ch=5 n=98 v=0
421320 On ch=5 n=60 v=0
421436 On ch=5 n=105 v=0
421440 On ch=5 n=50 v=100
421440 On ch=5 n=62 v=100
421440 On ch=5 n=74 v=100
421440 On ch=5 n=86 v=100
421440 On ch=5 n=88 v=100
421440 On ch=5 n=98 v=100
421440 On ch=5 n=100 v=100
421556 On ch=5 n=62 v=0
421556 On ch=5 n=74 v=0
421556 On ch=5 n=86 v=0
421556 On ch=5 n=88 v=0
421556 On ch=5 n=98 v=0
421556 On ch=5 n=100 v=0
421680 On ch=5 n=74 v=100
421680 On ch=5 n=86 v=100
421680 On ch=5 n=88 v=100
421680 On ch=5 n=98 v=100
421680 On ch=5 n=100 v=100
421680 On ch=5 n=62 v=100
421796 On ch=5 n=74 v=0
421796 On ch=5 n=86 v=0
421796 On ch=5 n=88 v=0
421796 On ch=5 n=98 v=0
421796 On ch=5 n=100 v=0
421796 On ch=5 n=62 v=0
421916 On ch=5 n=50 v=0
421920 On ch=5 n=97 v=100
421920 On ch=5 n=85 v=100
422036 On ch=5 n=97 v=0
422040 On ch=5 n=85 v=0
422040 On ch=5 n=97 v=100
422156 On ch=5 n=97 v=0
422160 On ch=5 n=97 v=100
422160 On ch=5 n=85 v=100
422276 On ch=5 n=97 v=0
422280 On ch=5 n=85 v=0
422280 On ch=5 n=97 v=100
422396 On ch=5 n=97 v=0
422400 On ch=5 n=48 v=100
422400 On ch=5 n=61 v=100
422400 On ch=5 n=73 v=100
422400 On ch=5 n=85 v=100
422400 On ch=5 n=87 v=100
422400 On ch=5 n=97 v=100
422400 On ch=5 n=99 v=100
422516 On ch=5 n=61 v=0
422516 On ch=5 n=73 v=0
422516 On ch=5 n=85 v=0
422516 On ch=5 n=87 v=0
422516 On ch=5 n=97 v=0
422516 On ch=5 n=99 v=0
422640 On ch=5 n=73 v=100
422640 On ch=5 n=85 v=100
422640 On ch=5 n=87 v=100
422640 On ch=5 n=97 v=100
422640 On ch=5 n=99 v=100
422640 On ch=5 n=61 v=100
422756 On ch=5 n=73 v=0
422756 On ch=5 n=85 v=0
422756 On ch=5 n=87 v=0
422756 On ch=5 n=97 v=0
422756 On ch=5 n=99 v=0
422756 On ch=5 n=61 v=0
422876 On ch=5 n=48 v=0
422880 On ch=5 n=97 v=100
422880 On ch=5 n=85 v=100
422996 On ch=5 n=97 v=0
423000 On ch=5 n=85 v=0
423000 On ch=5 n=97 v=100
423116 On ch=5 n=97 v=0
423120 On ch=5 n=97 v=100
423120 On ch=5 n=85 v=100
423236 On ch=5 n=97 v=0
423240 On ch=5 n=85 v=0
423240 On ch=5 n=97 v=100
423356 On ch=5 n=97 v=0
423360 On ch=5 n=48 v=100
423360 On ch=5 n=60 v=100
423360 On ch=5 n=73 v=100
423360 On ch=5 n=85 v=100
423360 On ch=5 n=87 v=100
423360 On ch=5 n=97 v=100
423360 On ch=5 n=99 v=100
423476 On ch=5 n=48 v=0
423476 On ch=5 n=60 v=0
423476 On ch=5 n=73 v=0
423476 On ch=5 n=85 v=0
423476 On ch=5 n=87 v=0
423476 On ch=5 n=97 v=0
423476 On ch=5 n=99 v=0
423600 On ch=5 n=46 v=100
423600 On ch=5 n=72 v=100
423600 On ch=5 n=84 v=100
423600 On ch=5 n=86 v=100
423600 On ch=5 n=96 v=100
423600 On ch=5 n=98 v=100
423600 On ch=5 n=60 v=100
423716 On ch=5 n=72 v=0
423716 On ch=5 n=84 v=0
423716 On ch=5 n=86 v=0
423716 On ch=5 n=96 v=0
423716 On ch=5 n=98 v=0
423716 On ch=5 n=60 v=0
423840 On ch=5 n=96 v=100
423840 On ch=5 n=84 v=100
423956 On ch=5 n=96 v=0
423960 On ch=5 n=84 v=0
423960 On ch=5 n=96 v=100
424076 On ch=5 n=96 v=0
424080 On ch=5 n=60 v=100
424080 On ch=5 n=72 v=100
424080 On ch=5 n=84 v=100
424080 On ch=5 n=86 v=100
424080 On ch=5 n=96 v=100
424080 On ch=5 n=98 v=100
424440 On ch=5 n=72 v=0
424440 On ch=5 n=84 v=0
424440 On ch=5 n=86 v=0
424440 On ch=5 n=96 v=0
424440 On ch=5 n=98 v=0
424556 On ch=5 n=60 v=0
424560 On ch=5 n=72 v=100
424560 On ch=5 n=84 v=100
424560 On ch=5 n=86 v=100
424560 On ch=5 n=96 v=100
424560 On ch=5 n=98 v=100
424676 On ch=5 n=72 v=0
424676 On ch=5 n=84 v=0
424676 On ch=5 n=86 v=0
424676 On ch=5 n=96 v=0
424676 On ch=5 n=98 v=0
424796 On ch=5 n=46 v=0
424800 On ch=5 n=98 v=100
424800 On ch=5 n=86 v=100
424916 On ch=5 n=98 v=0
424920 On ch=5 n=86 v=0
424920 On ch=5 n=98 v=100
425036 On ch=5 n=98 v=0
425040 On ch=5 n=98 v=100
425040 On ch=5 n=86 v=100
425156 On ch=5 n=98 v=0
425160 On ch=5 n=86 v=0
425160 On ch=5 n=98 v=100
425276 On ch=5 n=106 v=0
425276 On ch=5 n=98 v=0
425280 On ch=5 n=50 v=100
425280 On ch=5 n=62 v=100
425280 On ch=5 n=74 v=100
425280 On ch=5 n=86 v=100
425280 On ch=5 n=88 v=100
425280 On ch=5 n=98 v=100
425280 On ch=5 n=100 v=100
425280 On ch=5 n=105 v=100
425280 On ch=5 n=116 v=100
425396 On ch=5 n=62 v=0
425396 On ch=5 n=74 v=0
425396 On ch=5 n=86 v=0
425396 On ch=5 n=88 v=0
425396 On ch=5 n=98 v=0
425396 On ch=5 n=100 v=0
425520 On ch=5 n=74 v=100
425520 On ch=5 n=86 v=100
425520 On ch=5 n=88 v=100
425520 On ch=5 n=98 v=100
425520 On ch=5 n=100 v=100
425520 On ch=5 n=62 v=100
425636 On ch=5 n=74 v=0
425636 On ch=5 n=86 v=0
425636 On ch=5 n=88 v=0
425636 On ch=5 n=98 v=0
425636 On ch=5 n=100 v=0
425636 On ch=5 n=62 v=0
425756 On ch=5 n=50 v=0
425760 On ch=5 n=97 v=100
425760 On ch=5 n=85 v=100
425876 On ch=5 n=97 v=0
425880 On ch=5 n=85 v=0
425880 On ch=5 n=97 v=100
425996 On ch=5 n=97 v=0
426000 On ch=5 n=97 v=100
426000 On ch=5 n=85 v=100
426116 On ch=5 n=97 v=0
426120 On ch=5 n=85 v=0
426120 On ch=5 n=97 v=100
426236 On ch=5 n=97 v=0
426240 On ch=5 n=48 v=100
426240 On ch=5 n=61 v=100
426240 On ch=5 n=73 v=100
426240 On ch=5 n=85 v=100
426240 On ch=5 n=87 v=100
426240 On ch=5 n=97 v=100
426240 On ch=5 n=99 v=100
426356 On ch=5 n=61 v=0
426356 On ch=5 n=73 v=0
426356 On ch=5 n=85 v=0
426356 On ch=5 n=87 v=0
426356 On ch=5 n=97 v=0
426356 On ch=5 n=99 v=0
426480 On ch=5 n=73 v=100
426480 On ch=5 n=85 v=100
426480 On ch=5 n=87 v=100
426480 On ch=5 n=97 v=100
426480 On ch=5 n=99 v=100
426480 On ch=5 n=61 v=100
426596 On ch=5 n=73 v=0
426596 On ch=5 n=85 v=0
426596 On ch=5 n=87 v=0
426596 On ch=5 n=97 v=0
426596 On ch=5 n=99 v=0
426596 On ch=5 n=61 v=0
426716 On ch=5 n=48 v=0
426720 On ch=5 n=97 v=100
426720 On ch=5 n=85 v=100
426836 On ch=5 n=97 v=0
426840 On ch=5 n=85 v=0
426840 On ch=5 n=97 v=100
426956 On ch=5 n=97 v=0
426960 On ch=5 n=97 v=100
426960 On ch=5 n=85 v=100
427076 On ch=5 n=97 v=0
427080 On ch=5 n=85 v=0
427080 On ch=5 n=97 v=100
427196 On ch=5 n=97 v=0
427200 On ch=5 n=48 v=100
427200 On ch=5 n=60 v=100
427200 On ch=5 n=73 v=100
427200 On ch=5 n=85 v=100
427200 On ch=5 n=87 v=100
427200 On ch=5 n=97 v=100
427200 On ch=5 n=99 v=100
427316 On ch=5 n=48 v=0
427316 On ch=5 n=60 v=0
427316 On ch=5 n=73 v=0
427316 On ch=5 n=85 v=0
427316 On ch=5 n=87 v=0
427316 On ch=5 n=97 v=0
427316 On ch=5 n=99 v=0
427440 On ch=5 n=46 v=100
427440 On ch=5 n=72 v=100
427440 On ch=5 n=84 v=100
427440 On ch=5 n=86 v=100
427440 On ch=5 n=96 v=100
427440 On ch=5 n=98 v=100
427440 On ch=5 n=60 v=100
427556 On ch=5 n=72 v=0
427556 On ch=5 n=84 v=0
427556 On ch=5 n=86 v=0
427556 On ch=5 n=96 v=0
427556 On ch=5 n=98 v=0
427556 On ch=5 n=60 v=0
427560 On ch=5 n=116 v=0
427680 On ch=5 n=96 v=100
427680 On ch=5 n=84 v=100
427796 On ch=5 n=96 v=0
427800 On ch=5 n=84 v=0
427800 On ch=5 n=96 v=100
427916 On ch=5 n=96 v=0
427920 On ch=5 n=60 v=100
427920 On ch=5 n=72 v=100
427920 On ch=5 n=84 v=100
427920 On ch=5 n=86 v=100
427920 On ch=5 n=96 v=100
427920 On ch=5 n=98 v=100
428280 On ch=5 n=72 v=0
428280 On ch=5 n=84 v=0
428280 On ch=5 n=86 v=0
428280 On ch=5 n=96 v=0
428280 On ch=5 n=98 v=0
428396 On ch=5 n=60 v=0
428400 On ch=5 n=72 v=100
428400 On ch=5 n=84 v=100
428400 On ch=5 n=86 v=100
428400 On ch=5 n=96 v=100
428400 On ch=5 n=98 v=100
428516 On ch=5 n=72 v=0
428516 On ch=5 n=84 v=0
428516 On ch=5 n=86 v=0
428516 On ch=5 n=96 v=0
428516 On ch=5 n=98 v=0
428636 On ch=5 n=46 v=0
428640 On ch=5 n=98 v=100
428640 On ch=5 n=86 v=100
428756 On ch=5 n=98 v=0
428760 On ch=5 n=86 v=0
428760 On ch=5 n=98 v=100
428876 On ch=5 n=98 v=0
428880 On ch=5 n=98 v=100
428880 On ch=5 n=86 v=100
428996 On ch=5 n=98 v=0
429000 On ch=5 n=86 v=0
429000 On ch=5 n=98 v=100
429116 On ch=5 n=105 v=0
429116 On ch=5 n=98 v=0
429120 On ch=5 n=50 v=100
429120 On ch=5 n=62 v=100
429120 On ch=5 n=74 v=100
429120 On ch=5 n=86 v=100
429120 On ch=5 n=88 v=100
429120 On ch=5 n=98 v=100
429120 On ch=5 n=100 v=100
429120 On ch=5 n=106 v=100
429236 On ch=5 n=62 v=0
429236 On ch=5 n=74 v=0
429236 On ch=5 n=86 v=0
429236 On ch=5 n=88 v=0
429236 On ch=5 n=98 v=0
429236 On ch=5 n=100 v=0
429360 On ch=5 n=74 v=100
429360 On ch=5 n=86 v=100
429360 On ch=5 n=88 v=100
429360 On ch=5 n=98 v=100
429360 On ch=5 n=100 v=100
429360 On ch=5 n=62 v=100
429476 On ch=5 n=74 v=0
429476 On ch=5 n=86 v=0
429476 On ch=5 n=88 v=0
429476 On ch=5 n=98 v=0
429476 On ch=5 n=100 v=0
429476 On ch=5 n=62 v=0
429596 On ch=5 n=50 v=0
429600 On ch=5 n=97 v=100
429600 On ch=5 n=85 v=100
429716 On ch=5 n=97 v=0
429720 On ch=5 n=85 v=0
429720 On ch=5 n=97 v=100
429836 On ch=5 n=97 v=0
429840 On ch=5 n=97 v=100
429840 On ch=5 n=85 v=100
429956 On ch=5 n=97 v=0
429960 On ch=5 n=85 v=0
429960 On ch=5 n=97 v=100
430076 On ch=5 n=97 v=0
430080 On ch=5 n=48 v=100
430080 On ch=5 n=61 v=100
430080 On ch=5 n=73 v=100
430080 On ch=5 n=85 v=100
430080 On ch=5 n=87 v=100
430080 On ch=5 n=97 v=100
430080 On ch=5 n=99 v=100
430196 On ch=5 n=61 v=0
430196 On ch=5 n=73 v=0
430196 On ch=5 n=85 v=0
430196 On ch=5 n=87 v=0
430196 On ch=5 n=97 v=0
430196 On ch=5 n=99 v=0
430320 On ch=5 n=73 v=100
430320 On ch=5 n=85 v=100
430320 On ch=5 n=87 v=100
430320 On ch=5 n=97 v=100
430320 On ch=5 n=99 v=100
430320 On ch=5 n=61 v=100
430436 On ch=5 n=73 v=0
430436 On ch=5 n=85 v=0
430436 On ch=5 n=87 v=0
430436 On ch=5 n=97 v=0
430436 On ch=5 n=99 v=0
430436 On ch=5 n=61 v=0
430556 On ch=5 n=48 v=0
430560 On ch=5 n=97 v=100
430560 On ch=5 n=85 v=100
430676 On ch=5 n=97 v=0
430680 On ch=5 n=85 v=0
430680 On ch=5 n=97 v=100
430796 On ch=5 n=97 v=0
430800 On ch=5 n=97 v=100
430800 On ch=5 n=85 v=100
430916 On ch=5 n=97 v=0
430920 On ch=5 n=85 v=0
430920 On ch=5 n=97 v=100
431036 On ch=5 n=97 v=0
431040 On ch=5 n=48 v=100
431040 On ch=5 n=60 v=100
431040 On ch=5 n=73 v=100
431040 On ch=5 n=85 v=100
431040 On ch=5 n=87 v=100
431040 On ch=5 n=97 v=100
431040 On ch=5 n=99 v=100
431156 On ch=5 n=48 v=0
431156 On ch=5 n=60 v=0
431156 On ch=5 n=73 v=0
431156 On ch=5 n=85 v=0
431156 On ch=5 n=87 v=0
431156 On ch=5 n=97 v=0
431156 On ch=5 n=99 v=0
431280 On ch=5 n=46 v=100
431280 On ch=5 n=72 v=100
431280 On ch=5 n=84 v=100
431280 On ch=5 n=86 v=100
431280 On ch=5 n=96 v=100
431280 On ch=5 n=98 v=100
431280 On ch=5 n=60 v=100
431396 On ch=5 n=72 v=0
431396 On ch=5 n=84 v=0
431396 On ch=5 n=86 v=0
431396 On ch=5 n=96 v=0
431396 On ch=5 n=98 v=0
431396 On ch=5 n=60 v=0
431520 On ch=5 n=96 v=100
431520 On ch=5 n=84 v=100
431636 On ch=5 n=96 v=0
431640 On ch=5 n=84 v=0
431640 On ch=5 n=96 v=100
431756 On ch=5 n=96 v=0
431760 On ch=5 n=60 v=100
431760 On ch=5 n=72 v=100
431760 On ch=5 n=84 v=100
431760 On ch=5 n=86 v=100
431760 On ch=5 n=96 v=100
431760 On ch=5 n=98 v=100
431876 On ch=5 n=72 v=0
431876 On ch=5 n=84 v=0
431876 On ch=5 n=86 v=0
431876 On ch=5 n=96 v=0
431876 On ch=5 n=98 v=0
432000 On ch=5 n=72 v=100
432000 On ch=5 n=84 v=100
432000 On ch=5 n=86 v=100
432000 On ch=5 n=96 v=100
432000 On ch=5 n=98 v=100
432116 On ch=5 n=72 v=0
432116 On ch=5 n=84 v=0
432116 On ch=5 n=86 v=0
432116 On ch=5 n=96 v=0
432116 On ch=5 n=98 v=0
432236 On ch=5 n=60 v=0
432240 On ch=5 n=72 v=100
432240 On ch=5 n=84 v=100
432240 On ch=5 n=86 v=100
432240 On ch=5 n=96 v=100
432240 On ch=5 n=98 v=100
432356 On ch=5 n=72 v=0
432356 On ch=5 n=84 v=0
432356 On ch=5 n=86 v=0
432356 On ch=5 n=96 v=0
432356 On ch=5 n=98 v=0
432476 On ch=5 n=46 v=0
432480 On ch=5 n=97 v=100
432596 On ch=5 n=97 v=0
432600 On ch=5 n=48 v=100
432600 On ch=5 n=73 v=100
432600 On ch=5 n=85 v=100
432600 On ch=5 n=87 v=100
432600 On ch=5 n=97 v=100
432600 On ch=5 n=99 v=100
432716 On ch=5 n=73 v=0
432716 On ch=5 n=85 v=0
432716 On ch=5 n=87 v=0
432716 On ch=5 n=97 v=0
432716 On ch=5 n=99 v=0
432836 On ch=5 n=48 v=0
432956 On ch=5 n=106 v=0
432960 On ch=5 n=50 v=100
432960 On ch=5 n=62 v=100
432960 On ch=5 n=74 v=100
432960 On ch=5 n=86 v=100
432960 On ch=5 n=88 v=100
432960 On ch=5 n=98 v=100
432960 On ch=5 n=100 v=100
432960 On ch=5 n=105 v=100
433076 On ch=5 n=62 v=0
433076 On ch=5 n=74 v=0
433076 On ch=5 n=86 v=0
433076 On ch=5 n=88 v=0
433076 On ch=5 n=98 v=0
433076 On ch=5 n=100 v=0
433200 On ch=5 n=74 v=100
433200 On ch=5 n=86 v=100
433200 On ch=5 n=88 v=100
433200 On ch=5 n=98 v=100
433200 On ch=5 n=100 v=100
433200 On ch=5 n=62 v=100
433316 On ch=5 n=74 v=0
433316 On ch=5 n=86 v=0
433316 On ch=5 n=88 v=0
433316 On ch=5 n=98 v=0
433316 On ch=5 n=100 v=0
433316 On ch=5 n=62 v=0
433436 On ch=5 n=50 v=0
433440 On ch=5 n=97 v=100
433440 On ch=5 n=85 v=100
433556 On ch=5 n=97 v=0
433560 On ch=5 n=85 v=0
433560 On ch=5 n=97 v=100
433676 On ch=5 n=97 v=0
433680 On ch=5 n=97 v=100
433680 On ch=5 n=85 v=100
433796 On ch=5 n=97 v=0
433800 On ch=5 n=85 v=0
433800 On ch=5 n=97 v=100
433916 On ch=5 n=97 v=0
433920 On ch=5 n=48 v=100
433920 On ch=5 n=61 v=100
433920 On ch=5 n=73 v=100
433920 On ch=5 n=85 v=100
433920 On ch=5 n=87 v=100
433920 On ch=5 n=97 v=100
433920 On ch=5 n=99 v=100
434036 On ch=5 n=61 v=0
434036 On ch=5 n=73 v=0
434036 On ch=5 n=85 v=0
434036 On ch=5 n=87 v=0
434036 On ch=5 n=97 v=0
434036 On ch=5 n=99 v=0
434160 On ch=5 n=73 v=100
434160 On ch=5 n=85 v=100
434160 On ch=5 n=87 v=100
434160 On ch=5 n=97 v=100
434160 On ch=5 n=99 v=100
434160 On ch=5 n=61 v=100
434276 On ch=5 n=73 v=0
434276 On ch=5 n=85 v=0
434276 On ch=5 n=87 v=0
434276 On ch=5 n=97 v=0
434276 On ch=5 n=99 v=0
434276 On ch=5 n=61 v=0
434396 On ch=5 n=48 v=0
434400 On ch=5 n=97 v=100
434400 On ch=5 n=85 v=100
434516 On ch=5 n=97 v=0
434520 On ch=5 n=85 v=0
434520 On ch=5 n=97 v=100
434636 On ch=5 n=97 v=0
434640 On ch=5 n=97 v=100
434640 On ch=5 n=85 v=100
434756 On ch=5 n=97 v=0
434760 On ch=5 n=85 v=0
434760 On ch=5 n=97 v=100
434876 On ch=5 n=97 v=0
434880 On ch=5 n=48 v=100
434880 On ch=5 n=60 v=100
434880 On ch=5 n=73 v=100
434880 On ch=5 n=85 v=100
434880 On ch=5 n=87 v=100
434880 On ch=5 n=97 v=100
434880 On ch=5 n=99 v=100
434996 On ch=5 n=48 v=0
434996 On ch=5 n=60 v=0
434996 On ch=5 n=73 v=0
434996 On ch=5 n=85 v=0
434996 On ch=5 n=87 v=0
434996 On ch=5 n=97 v=0
434996 On ch=5 n=99 v=0
435120 On ch=5 n=46 v=100
435120 On ch=5 n=72 v=100
435120 On ch=5 n=84 v=100
435120 On ch=5 n=86 v=100
435120 On ch=5 n=96 v=100
435120 On ch=5 n=98 v=100
435120 On ch=5 n=60 v=100
435236 On ch=5 n=72 v=0
435236 On ch=5 n=84 v=0
435236 On ch=5 n=86 v=0
435236 On ch=5 n=96 v=0
435236 On ch=5 n=98 v=0
435236 On ch=5 n=60 v=0
435360 On ch=5 n=96 v=100
435360 On ch=5 n=84 v=100
435476 On ch=5 n=96 v=0
435480 On ch=5 n=84 v=0
435480 On ch=5 n=96 v=100
435596 On ch=5 n=96 v=0
435600 On ch=5 n=60 v=100
435600 On ch=5 n=72 v=100
435600 On ch=5 n=84 v=100
435600 On ch=5 n=86 v=100
435600 On ch=5 n=96 v=100
435600 On ch=5 n=98 v=100
435960 On ch=5 n=72 v=0
435960 On ch=5 n=84 v=0
435960 On ch=5 n=86 v=0
435960 On ch=5 n=96 v=0
435960 On ch=5 n=98 v=0
436076 On ch=5 n=60 v=0
436080 On ch=5 n=72 v=100
436080 On ch=5 n=84 v=100
436080 On ch=5 n=86 v=100
436080 On ch=5 n=96 v=100
436080 On ch=5 n=98 v=100
436196 On ch=5 n=72 v=0
436196 On ch=5 n=84 v=0
436196 On ch=5 n=86 v=0
436196 On ch=5 n=96 v=0
436196 On ch=5 n=98 v=0
436316 On ch=5 n=46 v=0
436320 On ch=5 n=97 v=100
436436 On ch=5 n=97 v=0
436440 On ch=5 n=48 v=100
436440 On ch=5 n=73 v=100
436440 On ch=5 n=85 v=100
436440 On ch=5 n=87 v=100
436440 On ch=5 n=97 v=100
436440 On ch=5 n=99 v=100
436556 On ch=5 n=73 v=0
436556 On ch=5 n=85 v=0
436556 On ch=5 n=87 v=0
436556 On ch=5 n=97 v=0
436556 On ch=5 n=99 v=0
436676 On ch=5 n=48 v=0
436796 On ch=5 n=105 v=0
436800 On ch=5 n=50 v=100
436800 On ch=5 n=62 v=100
436800 On ch=5 n=74 v=100
436800 On ch=5 n=86 v=100
436800 On ch=5 n=88 v=100
436800 On ch=5 n=98 v=100
436800 On ch=5 n=100 v=100
436800 On ch=5 n=106 v=100
436916 On ch=5 n=62 v=0
436916 On ch=5 n=74 v=0
436916 On ch=5 n=86 v=0
436916 On ch=5 n=88 v=0
436916 On ch=5 n=98 v=0
436916 On ch=5 n=100 v=0
437040 On ch=5 n=74 v=100
437040 On ch=5 n=86 v=100
437040 On ch=5 n=88 v=100
437040 On ch=5 n=98 v=100
437040 On ch=5 n=100 v=100
437040 On ch=5 n=62 v=100
437156 On ch=5 n=74 v=0
437156 On ch=5 n=86 v=0
437156 On ch=5 n=88 v=0
437156 On ch=5 n=98 v=0
437156 On ch=5 n=100 v=0
437156 On ch=5 n=62 v=0
437276 On ch=5 n=50 v=0
437280 On ch=5 n=97 v=100
437280 On ch=5 n=85 v=100
437396 On ch=5 n=97 v=0
437400 On ch=5 n=85 v=0
437400 On ch=5 n=97 v=100
437516 On ch=5 n=97 v=0
437520 On ch=5 n=97 v=100
437520 On ch=5 n=85 v=100
437636 On ch=5 n=97 v=0
437640 On ch=5 n=85 v=0
437640 On ch=5 n=97 v=100
437756 On ch=5 n=97 v=0
437760 On ch=5 n=48 v=100
437760 On ch=5 n=61 v=100
437760 On ch=5 n=73 v=100
437760 On ch=5 n=85 v=100
437760 On ch=5 n=87 v=100
437760 On ch=5 n=97 v=100
437760 On ch=5 n=99 v=100
437876 On ch=5 n=61 v=0
437876 On ch=5 n=73 v=0
437876 On ch=5 n=85 v=0
437876 On ch=5 n=87 v=0
437876 On ch=5 n=97 v=0
437876 On ch=5 n=99 v=0
438000 On ch=5 n=73 v=100
438000 On ch=5 n=85 v=100
438000 On ch=5 n=87 v=100
438000 On ch=5 n=97 v=100
438000 On ch=5 n=99 v=100
438000 On ch=5 n=61 v=100
438116 On ch=5 n=73 v=0
438116 On ch=5 n=85 v=0
438116 On ch=5 n=87 v=0
438116 On ch=5 n=97 v=0
438116 On ch=5 n=99 v=0
438116 On ch=5 n=61 v=0
438236 On ch=5 n=48 v=0
438240 On ch=5 n=97 v=100
438240 On ch=5 n=116 v=100
438240 On ch=5 n=85 v=100
438356 On ch=5 n=97 v=0
438360 On ch=5 n=85 v=0
438360 On ch=5 n=97 v=100
438476 On ch=5 n=97 v=0
438480 On ch=5 n=97 v=100
438480 On ch=5 n=85 v=100
438596 On ch=5 n=97 v=0
438600 On ch=5 n=85 v=0
438600 On ch=5 n=97 v=100
438716 On ch=5 n=97 v=0
438720 On ch=5 n=48 v=100
438720 On ch=5 n=60 v=100
438720 On ch=5 n=73 v=100
438720 On ch=5 n=85 v=100
438720 On ch=5 n=87 v=100
438720 On ch=5 n=97 v=100
438720 On ch=5 n=99 v=100
438836 On ch=5 n=48 v=0
438836 On ch=5 n=60 v=0
438836 On ch=5 n=73 v=0
438836 On ch=5 n=85 v=0
438836 On ch=5 n=87 v=0
438836 On ch=5 n=97 v=0
438836 On ch=5 n=99 v=0
438960 On ch=5 n=46 v=100
438960 On ch=5 n=72 v=100
438960 On ch=5 n=84 v=100
438960 On ch=5 n=86 v=100
438960 On ch=5 n=96 v=100
438960 On ch=5 n=98 v=100
438960 On ch=5 n=60 v=100
439076 On ch=5 n=72 v=0
439076 On ch=5 n=84 v=0
439076 On ch=5 n=86 v=0
439076 On ch=5 n=96 v=0
439076 On ch=5 n=98 v=0
439076 On ch=5 n=60 v=0
439200 On ch=5 n=96 v=100
439200 On ch=5 n=84 v=100
439316 On ch=5 n=96 v=0
439320 On ch=5 n=84 v=0
439320 On ch=5 n=96 v=100
439436 On ch=5 n=96 v=0
439440 On ch=5 n=60 v=100
439440 On ch=5 n=72 v=100
439440 On ch=5 n=84 v=100
439440 On ch=5 n=86 v=100
439440 On ch=5 n=96 v=100
439440 On ch=5 n=98 v=100
439556 On ch=5 n=72 v=0
439556 On ch=5 n=84 v=0
439556 On ch=5 n=86 v=0
439556 On ch=5 n=96 v=0
439556 On ch=5 n=98 v=0
439680 On ch=5 n=72 v=100
439680 On ch=5 n=84 v=100
439680 On ch=5 n=86 v=100
439680 On ch=5 n=96 v=100
439680 On ch=5 n=98 v=100
439796 On ch=5 n=72 v=0
439796 On ch=5 n=84 v=0
439796 On ch=5 n=86 v=0
439796 On ch=5 n=96 v=0
439796 On ch=5 n=98 v=0
439916 On ch=5 n=60 v=0
439920 On ch=5 n=72 v=100
439920 On ch=5 n=84 v=100
439920 On ch=5 n=86 v=100
439920 On ch=5 n=96 v=100
439920 On ch=5 n=98 v=100
440036 On ch=5 n=72 v=0
440036 On ch=5 n=84 v=0
440036 On ch=5 n=86 v=0
440036 On ch=5 n=96 v=0
440036 On ch=5 n=98 v=0
440156 On ch=5 n=46 v=0
440160 On ch=5 n=97 v=100
440276 On ch=5 n=97 v=0
440280 On ch=5 n=48 v=100
440280 On ch=5 n=73 v=100
440280 On ch=5 n=85 v=100
440280 On ch=5 n=87 v=100
440280 On ch=5 n=97 v=100
440280 On ch=5 n=99 v=100
440396 On ch=5 n=73 v=0
440396 On ch=5 n=85 v=0
440396 On ch=5 n=87 v=0
440396 On ch=5 n=97 v=0
440396 On ch=5 n=99 v=0
440516 On ch=5 n=48 v=0
440636 On ch=5 n=106 v=0
440640 On ch=5 n=116 v=0
440640 On ch=5 n=50 v=100
440640 On ch=5 n=62 v=100
440640 On ch=5 n=74 v=100
440640 On ch=5 n=86 v=100
440640 On ch=5 n=88 v=100
440640 On ch=5 n=98 v=100
440640 On ch=5 n=100 v=100
440640 On ch=5 n=105 v=100
440756 On ch=5 n=62 v=0
440756 On ch=5 n=74 v=0
440756 On ch=5 n=86 v=0
440756 On ch=5 n=88 v=0
440756 On ch=5 n=98 v=0
440756 On ch=5 n=100 v=0
440880 On ch=5 n=74 v=100
440880 On ch=5 n=86 v=100
440880 On ch=5 n=88 v=100
440880 On ch=5 n=98 v=100
440880 On ch=5 n=100 v=100
440880 On ch=5 n=62 v=100
440996 On ch=5 n=74 v=0
440996 On ch=5 n=86 v=0
440996 On ch=5 n=88 v=0
440996 On ch=5 n=98 v=0
440996 On ch=5 n=100 v=0
440996 On ch=5 n=62 v=0
441116 On ch=5 n=50 v=0
441120 On ch=5 n=97 v=100
441120 On ch=5 n=85 v=100
441236 On ch=5 n=97 v=0
441240 On ch=5 n=85 v=0
441240 On ch=5 n=97 v=100
441356 On ch=5 n=97 v=0
441360 On ch=5 n=97 v=100
441360 On ch=5 n=85 v=100
441476 On ch=5 n=97 v=0
441480 On ch=5 n=85 v=0
441480 On ch=5 n=97 v=100
441596 On ch=5 n=97 v=0
441600 On ch=5 n=48 v=100
441600 On ch=5 n=61 v=100
441600 On ch=5 n=73 v=100
441600 On ch=5 n=85 v=100
441600 On ch=5 n=87 v=100
441600 On ch=5 n=97 v=100
441600 On ch=5 n=99 v=100
441716 On ch=5 n=61 v=0
441716 On ch=5 n=73 v=0
441716 On ch=5 n=85 v=0
441716 On ch=5 n=87 v=0
441716 On ch=5 n=97 v=0
441716 On ch=5 n=99 v=0
441840 On ch=5 n=73 v=100
441840 On ch=5 n=85 v=100
441840 On ch=5 n=87 v=100
441840 On ch=5 n=97 v=100
441840 On ch=5 n=99 v=100
441840 On ch=5 n=61 v=100
441956 On ch=5 n=73 v=0
441956 On ch=5 n=85 v=0
441956 On ch=5 n=87 v=0
441956 On ch=5 n=97 v=0
441956 On ch=5 n=99 v=0
441956 On ch=5 n=61 v=0
442076 On ch=5 n=48 v=0
442080 On ch=5 n=97 v=100
442080 On ch=5 n=85 v=100
442196 On ch=5 n=97 v=0
442200 On ch=5 n=85 v=0
442200 On ch=5 n=97 v=100
442316 On ch=5 n=97 v=0
442320 On ch=5 n=97 v=100
442320 On ch=5 n=85 v=100
442436 On ch=5 n=97 v=0
442440 On ch=5 n=85 v=0
442440 On ch=5 n=97 v=100
442556 On ch=5 n=97 v=0
442560 On ch=5 n=48 v=100
442560 On ch=5 n=60 v=100
442560 On ch=5 n=73 v=100
442560 On ch=5 n=85 v=100
442560 On ch=5 n=87 v=100
442560 On ch=5 n=97 v=100
442560 On ch=5 n=99 v=100
442676 On ch=5 n=48 v=0
442676 On ch=5 n=60 v=0
442676 On ch=5 n=73 v=0
442676 On ch=5 n=85 v=0
442676 On ch=5 n=87 v=0
442676 On ch=5 n=97 v=0
442676 On ch=5 n=99 v=0
442800 On ch=5 n=46 v=100
442800 On ch=5 n=72 v=100
442800 On ch=5 n=84 v=100
442800 On ch=5 n=86 v=100
442800 On ch=5 n=96 v=100
442800 On ch=5 n=98 v=100
442800 On ch=5 n=60 v=100
442916 On ch=5 n=72 v=0
442916 On ch=5 n=84 v=0
442916 On ch=5 n=86 v=0
442916 On ch=5 n=96 v=0
442916 On ch=5 n=98 v=0
442916 On ch=5 n=60 v=0
443040 On ch=5 n=96 v=100
443040 On ch=5 n=84 v=100
443156 On ch=5 n=96 v=0
443160 On ch=5 n=84 v=0
443160 On ch=5 n=96 v=100
443276 On ch=5 n=96 v=0
443280 On ch=5 n=60 v=100
443280 On ch=5 n=72 v=100
443280 On ch=5 n=84 v=100
443280 On ch=5 n=86 v=100
443280 On ch=5 n=96 v=100
443280 On ch=5 n=98 v=100
443640 On ch=5 n=72 v=0
443640 On ch=5 n=84 v=0
443640 On ch=5 n=86 v=0
443640 On ch=5 n=96 v=0
443640 On ch=5 n=98 v=0
443756 On ch=5 n=60 v=0
443760 On ch=5 n=72 v=100
443760 On ch=5 n=84 v=100
443760 On ch=5 n=86 v=100
443760 On ch=5 n=96 v=100
443760 On ch=5 n=98 v=100
443876 On ch=5 n=72 v=0
443876 On ch=5 n=84 v=0
443876 On ch=5 n=86 v=0
443876 On ch=5 n=96 v=0
443876 On ch=5 n=98 v=0
443996 On ch=5 n=46 v=0
444000 On ch=5 n=97 v=100
444116 On ch=5 n=97 v=0
444120 On ch=5 n=48 v=100
444120 On ch=5 n=73 v=100
444120 On ch=5 n=85 v=100
444120 On ch=5 n=87 v=100
444120 On ch=5 n=97 v=100
444120 On ch=5 n=99 v=100
444236 On ch=5 n=73 v=0
444236 On ch=5 n=85 v=0
444236 On ch=5 n=87 v=0
444236 On ch=5 n=97 v=0
444236 On ch=5 n=99 v=0
444356 On ch=5 n=48 v=0
444476 On ch=5 n=105 v=0
444480 Meta Text "[play_solo]"
444480 On ch=5 n=54 v=100
444480 On ch=5 n=62 v=100
444480 On ch=5 n=75 v=100
444480 On ch=5 n=100 v=100
444480 On ch=5 n=106 v=100
444480 On ch=5 n=88 v=100
444596 On ch=5 n=54 v=0
444596 On ch=5 n=62 v=0
444596 On ch=5 n=75 v=0
444596 On ch=5 n=100 v=0
444596 On ch=5 n=88 v=0
444720 On ch=5 n=54 v=100
444720 On ch=5 n=100 v=100
444720 On ch=5 n=75 v=100
444720 On ch=5 n=62 v=100
444720 On ch=5 n=88 v=100
444836 On ch=5 n=54 v=0
444836 On ch=5 n=100 v=0
444836 On ch=5 n=88 v=0
444840 On ch=5 n=75 v=0
444840 On ch=5 n=62 v=0
445080 On ch=5 n=53 v=100
445080 On ch=5 n=74 v=100
445080 On ch=5 n=99 v=100
445080 On ch=5 n=87 v=100
445196 On ch=5 n=53 v=0
445196 On ch=5 n=74 v=0
445196 On ch=5 n=99 v=0
445196 On ch=5 n=87 v=0
445200 On ch=5 n=52 v=100
445200 On ch=5 n=98 v=100
445200 On ch=5 n=86 v=100
445316 On ch=5 n=52 v=0
445316 On ch=5 n=98 v=0
445316 On ch=5 n=86 v=0
445320 On ch=5 n=53 v=100
445320 On ch=5 n=99 v=100
445320 On ch=5 n=87 v=100
445436 On ch=5 n=53 v=0
445436 On ch=5 n=99 v=0
445436 On ch=5 n=87 v=0
445440 On ch=5 n=62 v=100
445440 On ch=5 n=75 v=100
445440 On ch=5 n=100 v=100
445440 On ch=5 n=88 v=100
445556 On ch=5 n=62 v=0
445556 On ch=5 n=75 v=0
445560 On ch=5 n=54 v=100
445800 On ch=5 n=100 v=0
445800 On ch=5 n=88 v=0
445916 On ch=5 n=54 v=0
445920 On ch=5 n=53 v=100
445920 On ch=5 n=74 v=100
445920 On ch=5 n=99 v=100
445920 On ch=5 n=87 v=100
446036 On ch=5 n=53 v=0
446036 On ch=5 n=74 v=0
446036 On ch=5 n=99 v=0
446036 On ch=5 n=87 v=0
446040 On ch=5 n=52 v=100
446040 On ch=5 n=98 v=100
446040 On ch=5 n=86 v=100
446156 On ch=5 n=52 v=0
446156 On ch=5 n=98 v=0
446156 On ch=5 n=86 v=0
446160 On ch=5 n=53 v=100
446160 On ch=5 n=99 v=100
446160 On ch=5 n=87 v=100
446276 On ch=5 n=53 v=0
446276 On ch=5 n=99 v=0
446276 On ch=5 n=87 v=0
446280 On ch=5 n=54 v=100
446280 On ch=5 n=62 v=100
446280 On ch=5 n=75 v=100
446280 On ch=5 n=100 v=100
446280 On ch=5 n=88 v=100
446396 On ch=5 n=54 v=0
446396 On ch=5 n=62 v=0
446396 On ch=5 n=75 v=0
446396 On ch=5 n=100 v=0
446396 On ch=5 n=88 v=0
446640 On ch=5 n=54 v=100
446640 On ch=5 n=100 v=100
446640 On ch=5 n=75 v=100
446640 On ch=5 n=62 v=100
446640 On ch=5 n=88 v=100
446756 On ch=5 n=54 v=0
446756 On ch=5 n=100 v=0
446756 On ch=5 n=75 v=0
446756 On ch=5 n=62 v=0
446756 On ch=5 n=88 v=0
447000 On ch=5 n=54 v=100
447000 On ch=5 n=100 v=100
447000 On ch=5 n=75 v=100
447000 On ch=5 n=62 v=100
447000 On ch=5 n=88 v=100
447116 On ch=5 n=54 v=0
447116 On ch=5 n=100 v=0
447116 On ch=5 n=75 v=0
447116 On ch=5 n=62 v=0
447116 On ch=5 n=88 v=0
447360 On ch=5 n=54 v=100
447360 On ch=5 n=62 v=100
447360 On ch=5 n=75 v=100
447360 On ch=5 n=100 v=100
447360 On ch=5 n=88 v=100
448076 On ch=5 n=54 v=0
448076 On ch=5 n=62 v=0
448076 On ch=5 n=75 v=0
448076 On ch=5 n=100 v=0
448076 On ch=5 n=88 v=0
448316 On ch=5 n=106 v=0
448320 On ch=5 n=50 v=100
448320 On ch=5 n=73 v=100
448320 On ch=5 n=98 v=100
448320 On ch=5 n=105 v=100
448320 On ch=5 n=86 v=100
448436 On ch=5 n=73 v=0
448680 On ch=5 n=98 v=0
448680 On ch=5 n=86 v=0
448796 On ch=5 n=50 v=0
448800 On ch=5 n=52 v=100
448800 On ch=5 n=62 v=100
448800 On ch=5 n=74 v=100
448800 On ch=5 n=99 v=100
448800 On ch=5 n=87 v=100
449276 On ch=5 n=52 v=0
449276 On ch=5 n=62 v=0
449276 On ch=5 n=74 v=0
449276 On ch=5 n=99 v=0
449276 On ch=5 n=87 v=0
449440 On ch=5 n=50 v=100
449440 On ch=5 n=62 v=100
449440 On ch=5 n=74 v=100
449440 On ch=5 n=98 v=100
449440 On ch=5 n=86 v=100
449556 On ch=5 n=50 v=0
449556 On ch=5 n=62 v=0
449556 On ch=5 n=74 v=0
449556 On ch=5 n=98 v=0
449556 On ch=5 n=86 v=0
449600 On ch=5 n=52 v=100
449600 On ch=5 n=99 v=100
449600 On ch=5 n=87 v=100
449716 On ch=5 n=52 v=0
449716 On ch=5 n=99 v=0
449716 On ch=5 n=87 v=0
449760 On ch=5 n=50 v=100
449760 On ch=5 n=98 v=100
449760 On ch=5 n=86 v=100
449876 On ch=5 n=50 v=0
449876 On ch=5 n=98 v=0
449876 On ch=5 n=86 v=0
450240 On ch=5 n=52 v=100
450240 On ch=5 n=62 v=100
450240 On ch=5 n=74 v=100
450240 On ch=5 n=98 v=100
450240 On ch=5 n=86 v=100
450356 On ch=5 n=52 v=0
450356 On ch=5 n=62 v=0
450356 On ch=5 n=74 v=0
450356 On ch=5 n=98 v=0
450356 On ch=5 n=86 v=0
450600 On ch=5 n=47 v=100
450600 On ch=5 n=96 v=100
450600 On ch=5 n=84 v=100
450716 On ch=5 n=47 v=0
450716 On ch=5 n=96 v=0
450716 On ch=5 n=84 v=0
450840 On ch=5 n=47 v=100
450840 On ch=5 n=72 v=100
450840 On ch=5 n=96 v=100
450840 On ch=5 n=60 v=100
450840 On ch=5 n=84 v=100
451440 On ch=5 n=60 v=0
451556 On ch=5 n=47 v=0
451556 On ch=5 n=72 v=0
451556 On ch=5 n=96 v=0
451556 On ch=5 n=84 v=0
451676 On ch=5 n=105 v=0
451680 On ch=5 n=49 v=100
451680 On ch=5 n=61 v=100
451680 On ch=5 n=73 v=100
451680 On ch=5 n=97 v=100
451680 On ch=5 n=106 v=100
451680 On ch=5 n=85 v=100
451796 On ch=5 n=49 v=0
451796 On ch=5 n=61 v=0
451796 On ch=5 n=73 v=0
451796 On ch=5 n=97 v=0
451796 On ch=5 n=85 v=0
451920 On ch=5 n=47 v=100
451920 On ch=5 n=96 v=100
451920 On ch=5 n=84 v=100
452036 On ch=5 n=47 v=0
452036 On ch=5 n=96 v=0
452036 On ch=5 n=84 v=0
452040 On ch=5 n=49 v=100
452040 On ch=5 n=97 v=100
452040 On ch=5 n=85 v=100
452156 On ch=5 n=49 v=0
452156 On ch=5 n=97 v=0
452156 On ch=5 n=85 v=0
452160 On ch=5 n=50 v=100
452160 On ch=5 n=62 v=100
452160 On ch=5 n=74 v=100
452160 On ch=5 n=98 v=100
452160 On ch=5 n=86 v=100
452276 On ch=5 n=50 v=0
452276 On ch=5 n=98 v=0
452276 On ch=5 n=86 v=0
452400 On ch=5 n=50 v=100
452400 On ch=5 n=98 v=100
452400 On ch=5 n=86 v=100
452880 On ch=5 n=98 v=0
452880 On ch=5 n=86 v=0
452996 On ch=5 n=62 v=0
452996 On ch=5 n=74 v=0
452996 On ch=5 n=50 v=0
453000 On ch=5 n=47 v=100
453000 On ch=5 n=96 v=100
453000 On ch=5 n=84 v=100
453116 On ch=5 n=47 v=0
453116 On ch=5 n=96 v=0
453116 On ch=5 n=84 v=0
453120 On ch=5 n=49 v=100
453120 On ch=5 n=62 v=100
453120 On ch=5 n=74 v=100
453120 On ch=5 n=97 v=100
453120 On ch=5 n=85 v=100
453236 On ch=5 n=49 v=0
453236 On ch=5 n=97 v=0
453236 On ch=5 n=85 v=0
453360 On ch=5 n=50 v=100
453360 On ch=5 n=98 v=100
453360 On ch=5 n=86 v=100
453720 On ch=5 n=98 v=0
453720 On ch=5 n=86 v=0
453836 On ch=5 n=62 v=0
453836 On ch=5 n=74 v=0
453836 On ch=5 n=50 v=0
453840 On ch=5 n=49 v=100
453840 On ch=5 n=85 v=100
453840 On ch=5 n=97 v=100
453956 On ch=5 n=49 v=0
453956 On ch=5 n=85 v=0
453956 On ch=5 n=97 v=0
453960 On ch=5 n=47 v=100
453960 On ch=5 n=96 v=100
454076 On ch=5 n=47 v=0
454076 On ch=5 n=96 v=0
454080 On ch=5 n=49 v=100
454080 On ch=5 n=61 v=100
454080 On ch=5 n=73 v=100
454080 On ch=5 n=85 v=100
454080 On ch=5 n=97 v=100
454196 On ch=5 n=49 v=0
454196 On ch=5 n=61 v=0
454196 On ch=5 n=73 v=0
454196 On ch=5 n=85 v=0
454196 On ch=5 n=97 v=0
454200 On ch=5 n=47 v=100
454200 On ch=5 n=96 v=100
454316 On ch=5 n=47 v=0
454316 On ch=5 n=96 v=0
454320 On ch=5 n=49 v=100
454320 On ch=5 n=85 v=100
454320 On ch=5 n=97 v=100
454436 On ch=5 n=49 v=0
454436 On ch=5 n=85 v=0
454436 On ch=5 n=97 v=0
454440 On ch=5 n=47 v=100
454440 On ch=5 n=96 v=100
454556 On ch=5 n=47 v=0
454556 On ch=5 n=96 v=0
454560 On ch=5 n=48 v=100
454560 On ch=5 n=73 v=100
454560 On ch=5 n=85 v=100
454560 On ch=5 n=97 v=100
454676 On ch=5 n=48 v=0
454676 On ch=5 n=73 v=0
454676 On ch=5 n=85 v=0
454676 On ch=5 n=97 v=0
454720 On ch=5 n=48 v=100
454720 On ch=5 n=97 v=100
454836 On ch=5 n=48 v=0
454836 On ch=5 n=97 v=0
454880 On ch=5 n=97 v=100
454996 On ch=5 n=97 v=0
455040 On ch=5 n=46 v=100
455040 On ch=5 n=60 v=100
455040 On ch=5 n=72 v=100
455040 On ch=5 n=84 v=100
455040 On ch=5 n=96 v=100
455156 On ch=5 n=46 v=0
455156 On ch=5 n=60 v=0
455156 On ch=5 n=72 v=0
455156 On ch=5 n=84 v=0
455156 On ch=5 n=96 v=0
455200 On ch=5 n=46 v=100
455200 On ch=5 n=96 v=100
455316 On ch=5 n=46 v=0
455316 On ch=5 n=96 v=0
455360 On ch=5 n=96 v=100
455476 On ch=5 n=96 v=0
455520 On ch=5 n=48 v=100
455520 On ch=5 n=73 v=100
455520 On ch=5 n=85 v=100
455520 On ch=5 n=97 v=100
455636 On ch=5 n=48 v=0
455636 On ch=5 n=73 v=0
455636 On ch=5 n=85 v=0
455636 On ch=5 n=97 v=0
455680 On ch=5 n=48 v=100
455680 On ch=5 n=97 v=100
455796 On ch=5 n=48 v=0
455796 On ch=5 n=97 v=0
455840 On ch=5 n=97 v=100
455956 On ch=5 n=97 v=0
455996 On ch=5 n=106 v=0
456000 On ch=5 n=105 v=100
456240 On ch=5 n=51 v=100
456240 On ch=5 n=62 v=100
456240 On ch=5 n=75 v=100
456240 On ch=5 n=87 v=100
456240 On ch=5 n=99 v=100
456596 On ch=5 n=51 v=0
457196 On ch=5 n=62 v=0
457316 On ch=5 n=75 v=0
457316 On ch=5 n=87 v=0
457320 On ch=5 n=99 v=0
457440 On ch=5 n=43 v=100
457440 On ch=5 n=60 v=100
457440 On ch=5 n=73 v=100
457440 On ch=5 n=85 v=100
457440 On ch=5 n=97 v=100
457796 On ch=5 n=43 v=0
458396 On ch=5 n=60 v=0
458516 On ch=5 n=73 v=0
458516 On ch=5 n=85 v=0
458520 On ch=5 n=97 v=0
458640 On ch=5 n=51 v=100
458640 On ch=5 n=61 v=100
458640 On ch=5 n=74 v=100
458640 On ch=5 n=87 v=100
458640 On ch=5 n=99 v=100
458756 On ch=5 n=51 v=0
459356 On ch=5 n=61 v=0
459476 On ch=5 n=74 v=0
459476 On ch=5 n=87 v=0
459480 On ch=5 n=99 v=0
459600 On ch=5 n=48 v=100
459600 On ch=5 n=60 v=100
459600 On ch=5 n=73 v=100
459600 On ch=5 n=86 v=100
459600 On ch=5 n=98 v=100
459600 On ch=5 n=106 v=100
459836 On ch=5 n=48 v=0
460196 On ch=5 n=60 v=0
460196 On ch=5 n=73 v=0
460196 On ch=5 n=86 v=0
460196 On ch=5 n=98 v=0
460320 On ch=5 n=50 v=100
460320 On ch=5 n=97 v=100
460376 On ch=5 n=50 v=0
460376 On ch=5 n=97 v=0
460380 On ch=5 n=53 v=100
460380 On ch=5 n=62 v=100
460380 On ch=5 n=75 v=100
460380 On ch=5 n=88 v=100
460380 On ch=5 n=100 v=100
460496 On ch=5 n=53 v=0
461276 On ch=5 n=62 v=0
461276 On ch=5 n=75 v=0
461276 On ch=5 n=88 v=0
461276 On ch=5 n=100 v=0
461400 On ch=5 n=49 v=100
461400 On ch=5 n=87 v=100
461400 On ch=5 n=99 v=100
461516 On ch=5 n=49 v=0
461516 On ch=5 n=87 v=0
461516 On ch=5 n=99 v=0
461760 On ch=5 n=41 v=100
461760 On ch=5 n=60 v=100
461760 On ch=5 n=72 v=100
461760 On ch=5 n=85 v=100
461760 On ch=5 n=97 v=100
463436 On ch=5 n=41 v=0
463436 On ch=5 n=60 v=0
463436 On ch=5 n=72 v=0
463436 On ch=5 n=85 v=0
463436 On ch=5 n=97 v=0
463680 On ch=5 n=47 v=100
463680 On ch=5 n=85 v=100
463680 On ch=5 n=97 v=100
463796 On ch=5 n=47 v=0
463796 On ch=5 n=85 v=0
463796 On ch=5 n=97 v=0
464160 On ch=5 n=51 v=100
464160 On ch=5 n=62 v=100
464160 On ch=5 n=74 v=100
464160 On ch=5 n=87 v=100
464160 On ch=5 n=99 v=100
464236 On ch=5 n=51 v=0
464236 On ch=5 n=99 v=0
464320 On ch=5 n=51 v=100
464320 On ch=5 n=99 v=100
464396 On ch=5 n=51 v=0
464396 On ch=5 n=99 v=0
464480 On ch=5 n=51 v=100
464480 On ch=5 n=99 v=100
464556 On ch=5 n=51 v=0
464556 On ch=5 n=99 v=0
464640 On ch=5 n=51 v=100
464640 On ch=5 n=99 v=100
464716 On ch=5 n=51 v=0
464716 On ch=5 n=99 v=0
464800 On ch=5 n=51 v=100
464800 On ch=5 n=99 v=100
464876 On ch=5 n=62 v=0
464876 On ch=5 n=74 v=0
464876 On ch=5 n=87 v=0
464876 On ch=5 n=51 v=0
464876 On ch=5 n=99 v=0
465120 On ch=5 n=41 v=100
465120 On ch=5 n=72 v=100
465120 On ch=5 n=84 v=100
465120 On ch=5 n=96 v=100
465236 On ch=5 n=41 v=0
465236 On ch=5 n=72 v=0
465236 On ch=5 n=84 v=0
465236 On ch=5 n=96 v=0
465600 On ch=5 n=46 v=100
465600 On ch=5 n=62 v=100
465600 On ch=5 n=74 v=100
465600 On ch=5 n=86 v=100
465600 On ch=5 n=98 v=100
465716 On ch=5 n=46 v=0
465716 On ch=5 n=74 v=0
465716 On ch=5 n=86 v=0
465716 On ch=5 n=98 v=0
466080 On ch=5 n=42 v=100
466080 On ch=5 n=72 v=100
466080 On ch=5 n=84 v=100
466080 On ch=5 n=96 v=100
466196 On ch=5 n=42 v=0
466196 On ch=5 n=84 v=0
466196 On ch=5 n=96 v=0
466200 On ch=5 n=46 v=100
466200 On ch=5 n=98 v=100
466316 On ch=5 n=46 v=0
466316 On ch=5 n=98 v=0
466440 On ch=5 n=43 v=100
466440 On ch=5 n=85 v=100
466440 On ch=5 n=97 v=100
466556 On ch=5 n=43 v=0
466556 On ch=5 n=85 v=0
466556 On ch=5 n=97 v=0
466680 On ch=5 n=46 v=100
466680 On ch=5 n=98 v=100
466796 On ch=5 n=46 v=0
466796 On ch=5 n=98 v=0
466920 On ch=5 n=43 v=100
466920 On ch=5 n=85 v=100
466920 On ch=5 n=97 v=100
467036 On ch=5 n=85 v=0
467160 On ch=5 n=62 v=0
467160 On ch=5 n=72 v=0
467396 On ch=5 n=43 v=0
467400 On ch=5 n=97 v=0
467520 On ch=5 n=41 v=100
467520 On ch=5 n=60 v=100
467520 On ch=5 n=72 v=100
467520 On ch=5 n=84 v=100
467520 On ch=5 n=96 v=100
469196 On ch=5 n=41 v=0
469196 On ch=5 n=60 v=0
469316 On ch=5 n=72 v=0
469316 On ch=5 n=84 v=0
469316 On ch=5 n=96 v=0
469440 On ch=5 n=47 v=100
469440 On ch=5 n=62 v=100
469440 On ch=5 n=74 v=100
469440 On ch=5 n=87 v=100
469440 On ch=5 n=99 v=100
470756 On ch=5 n=47 v=0
470756 On ch=5 n=62 v=0
470756 On ch=5 n=74 v=0
470756 On ch=5 n=87 v=0
470756 On ch=5 n=99 v=0
470880 On ch=5 n=46 v=100
470880 On ch=5 n=86 v=100
470880 On ch=5 n=98 v=100
470996 On ch=5 n=46 v=0
470996 On ch=5 n=86 v=0
470996 On ch=5 n=98 v=0
471120 On ch=5 n=86 v=100
471120 On ch=5 n=98 v=100
471236 On ch=5 n=86 v=0
471236 On ch=5 n=98 v=0
471360 On ch=5 n=41 v=100
471360 On ch=5 n=60 v=100
471360 On ch=5 n=73 v=100
471360 On ch=5 n=74 v=100
471360 On ch=5 n=84 v=100
471360 On ch=5 n=86 v=100
471360 On ch=5 n=96 v=100
471360 On ch=5 n=98 v=100
471476 On ch=5 n=60 v=0
471720 On ch=5 n=73 v=0
471720 On ch=5 n=74 v=0
471720 On ch=5 n=84 v=0
471720 On ch=5 n=86 v=0
471720 On ch=5 n=96 v=0
471720 On ch=5 n=98 v=0
471840 On ch=5 n=60 v=100
471840 On ch=5 n=73 v=100
471840 On ch=5 n=74 v=100
471840 On ch=5 n=84 v=100
471840 On ch=5 n=86 v=100
471840 On ch=5 n=96 v=100
471840 On ch=5 n=98 v=100
471956 On ch=5 n=41 v=0
471956 On ch=5 n=60 v=0
471956 On ch=5 n=73 v=0
471956 On ch=5 n=74 v=0
471956 On ch=5 n=84 v=0
471956 On ch=5 n=86 v=0
471956 On ch=5 n=96 v=0
471956 On ch=5 n=98 v=0
472080 On ch=5 n=120 v=100
472080 On ch=5 n=121 v=100
472080 On ch=5 n=122 v=100
472080 On ch=5 n=123 v=100
472080 On ch=5 n=124 v=100
472080 On ch=5 n=100 v=100
472080 On ch=5 n=50 v=100
473160 On ch=5 n=100 v=0
473160 On ch=5 n=50 v=0
473160 On ch=5 n=98 v=100
473160 On ch=5 n=48 v=100
473520 On ch=5 n=98 v=0
473520 On ch=5 n=48 v=0
473520 On ch=5 n=99 v=100
473520 On ch=5 n=49 v=100
473640 On ch=5 n=99 v=0
473640 On ch=5 n=49 v=0
473640 On ch=5 n=100 v=100
473640 On ch=5 n=50 v=100
473760 On ch=5 n=100 v=0
473760 On ch=5 n=50 v=0
473760 On ch=5 n=99 v=100
473760 On ch=5 n=49 v=100
473880 On ch=5 n=99 v=0
473880 On ch=5 n=49 v=0
473880 On ch=5 n=98 v=100
473880 On ch=5 n=48 v=100
474000 On ch=5 n=98 v=0
474000 On ch=5 n=48 v=0
474000 On ch=5 n=99 v=100
474000 On ch=5 n=49 v=100
474120 On ch=5 n=99 v=0
474120 On ch=5 n=49 v=0
474120 On ch=5 n=100 v=100
474120 On ch=5 n=50 v=100
474240 On ch=5 n=100 v=0
474240 On ch=5 n=50 v=0
474240 On ch=5 n=99 v=100
474240 On ch=5 n=49 v=100
474360 On ch=5 n=99 v=0
474360 On ch=5 n=49 v=0
474360 On ch=5 n=98 v=100
474360 On ch=5 n=48 v=100
474480 On ch=5 n=98 v=0
474480 On ch=5 n=48 v=0
474480 On ch=5 n=99 v=100
474480 On ch=5 n=49 v=100
474600 On ch=5 n=99 v=0
474600 On ch=5 n=49 v=0
474600 On ch=5 n=100 v=100
474600 On ch=5 n=50 v=100
474720 On ch=5 n=100 v=0
474720 On ch=5 n=50 v=0
474720 On ch=5 n=99 v=100
474720 On ch=5 n=49 v=100
474800 On ch=5 n=99 v=0
474800 On ch=5 n=49 v=0
474800 On ch=5 n=98 v=100
474800 On ch=5 n=48 v=100
474880 On ch=5 n=98 v=0
474880 On ch=5 n=48 v=0
474880 On ch=5 n=99 v=100
474880 On ch=5 n=49 v=100
474960 On ch=5 n=99 v=0
474960 On ch=5 n=49 v=0
474960 On ch=5 n=100 v=100
474960 On ch=5 n=50 v=100
475040 On ch=5 n=100 v=0
475040 On ch=5 n=50 v=0
475040 On ch=5 n=99 v=100
475040 On ch=5 n=49 v=100
475120 On ch=5 n=99 v=0
475120 On ch=5 n=49 v=0
475120 On ch=5 n=98 v=100
475120 On ch=5 n=48 v=100
475200 On ch=5 n=98 v=0
475200 On ch=5 n=48 v=0
475200 On ch=5 n=99 v=100
475200 On ch=5 n=49 v=100
475280 On ch=5 n=99 v=0
475280 On ch=5 n=49 v=0
475280 On ch=5 n=100 v=100
475280 On ch=5 n=50 v=100
475360 On ch=5 n=100 v=0
475360 On ch=5 n=50 v=0
475360 On ch=5 n=99 v=100
475360 On ch=5 n=49 v=100
475440 On ch=5 n=99 v=0
475440 On ch=5 n=49 v=0
475440 On ch=5 n=98 v=100
475440 On ch=5 n=48 v=100
475520 On ch=5 n=98 v=0
475520 On ch=5 n=48 v=0
475520 On ch=5 n=99 v=100
475520 On ch=5 n=49 v=100
475600 On ch=5 n=99 v=0
475600 On ch=5 n=49 v=0
475600 On ch=5 n=100 v=100
475600 On ch=5 n=50 v=100
475680 On ch=5 n=100 v=0
475680 On ch=5 n=50 v=0
475680 On ch=5 n=99 v=100
475680 On ch=5 n=49 v=100
475760 On ch=5 n=99 v=0
475760 On ch=5 n=49 v=0
475760 On ch=5 n=98 v=100
475760 On ch=5 n=48 v=100
475840 On ch=5 n=98 v=0
475840 On ch=5 n=48 v=0
475840 On ch=5 n=99 v=100
475840 On ch=5 n=49 v=100
475920 On ch=5 n=99 v=0
475920 On ch=5 n=49 v=0
475920 On ch=5 n=100 v=100
475920 On ch=5 n=50 v=100
476000 On ch=5 n=100 v=0
476000 On ch=5 n=50 v=0
476000 On ch=5 n=99 v=100
476000 On ch=5 n=49 v=100
476080 On ch=5 n=99 v=0
476080 On ch=5 n=49 v=0
476080 On ch=5 n=98 v=100
476080 On ch=5 n=48 v=100
476160 On ch=5 n=98 v=0
476160 On ch=5 n=48 v=0
476160 On ch=5 n=99 v=100
476160 On ch=5 n=49 v=100
476240 On ch=5 n=99 v=0
476240 On ch=5 n=49 v=0
476240 On ch=5 n=100 v=100
476240 On ch=5 n=50 v=100
476320 On ch=5 n=100 v=0
476320 On ch=5 n=50 v=0
476320 On ch=5 n=99 v=100
476320 On ch=5 n=49 v=100
476400 On ch=5 n=99 v=0
476400 On ch=5 n=49 v=0
476400 On ch=5 n=98 v=100
476400 On ch=5 n=48 v=100
476480 On ch=5 n=98 v=0
476480 On ch=5 n=48 v=0
476520 On ch=5 n=99 v=100
476520 On ch=5 n=49 v=100
476640 On ch=5 n=99 v=0
476640 On ch=5 n=49 v=0
476640 On ch=5 n=100 v=100
476640 On ch=5 n=50 v=100
476760 On ch=5 n=100 v=0
476760 On ch=5 n=50 v=0
476760 On ch=5 n=99 v=100
476760 On ch=5 n=49 v=100
476880 On ch=5 n=99 v=0
476880 On ch=5 n=49 v=0
476880 On ch=5 n=98 v=100
476880 On ch=5 n=48 v=100
477000 On ch=5 n=98 v=0
477000 On ch=5 n=48 v=0
477000 On ch=5 n=99 v=100
477000 On ch=5 n=49 v=100
477120 On ch=5 n=99 v=0
477120 On ch=5 n=49 v=0
477120 On ch=5 n=98 v=100
477120 On ch=5 n=48 v=100
477240 On ch=5 n=98 v=0
477240 On ch=5 n=48 v=0
477240 On ch=5 n=99 v=100
477240 On ch=5 n=49 v=100
477600 On ch=5 n=49 v=0
479280 On ch=5 n=53 v=100
479520 On ch=5 n=99 v=0
479520 On ch=5 n=53 v=0
479520 On ch=5 n=98 v=100
480000 On ch=5 n=40 v=100
480120 On ch=5 n=40 v=0
480480 On ch=5 n=98 v=0
480480 On ch=5 n=100 v=100
480480 On ch=5 n=52 v=100
480720 On ch=5 n=100 v=0
480720 On ch=5 n=52 v=0
480720 On ch=5 n=100 v=100
480720 On ch=5 n=52 v=100
481920 On ch=5 n=52 v=0
482160 On ch=5 n=100 v=0
482160 On ch=5 n=98 v=100
482160 On ch=5 n=49 v=100
482280 On ch=5 n=98 v=0
482280 On ch=5 n=49 v=0
482400 On ch=5 n=99 v=100
482400 On ch=5 n=50 v=100
482520 On ch=5 n=99 v=0
482520 On ch=5 n=50 v=0
482640 On ch=5 n=98 v=100
482640 On ch=5 n=49 v=100
482760 On ch=5 n=98 v=0
482760 On ch=5 n=49 v=0
482880 On ch=5 n=97 v=100
482880 On ch=5 n=47 v=100
483600 On ch=5 n=97 v=0
483600 On ch=5 n=47 v=0
483600 On ch=5 n=98 v=100
483600 On ch=5 n=48 v=100
483720 On ch=5 n=98 v=0
483720 On ch=5 n=48 v=0
483720 On ch=5 n=97 v=100
483720 On ch=5 n=47 v=100
483840 On ch=5 n=97 v=0
483840 On ch=5 n=47 v=0
483840 On ch=5 n=98 v=100
483840 On ch=5 n=48 v=100
483960 On ch=5 n=98 v=0
483960 On ch=5 n=48 v=0
483960 On ch=5 n=99 v=100
483960 On ch=5 n=49 v=100
484080 On ch=5 n=99 v=0
484080 On ch=5 n=49 v=0
484080 On ch=5 n=98 v=100
484080 On ch=5 n=48 v=100
484200 On ch=5 n=98 v=0
484200 On ch=5 n=48 v=0
484200 On ch=5 n=99 v=100
484200 On ch=5 n=49 v=100
484320 On ch=5 n=99 v=0
484320 On ch=5 n=49 v=0
484320 On ch=5 n=100 v=100
484320 On ch=5 n=50 v=100
484440 On ch=5 n=100 v=0
484440 On ch=5 n=50 v=0
484440 On ch=5 n=99 v=100
484440 On ch=5 n=49 v=100
484560 On ch=5 n=99 v=0
484560 On ch=5 n=49 v=0
484560 On ch=5 n=98 v=100
484560 On ch=5 n=50 v=100
484680 On ch=5 n=98 v=0
484680 On ch=5 n=50 v=0
484680 On ch=5 n=99 v=100
484680 On ch=5 n=51 v=100
484800 On ch=5 n=99 v=0
484800 On ch=5 n=51 v=0
484800 On ch=5 n=100 v=100
484800 On ch=5 n=52 v=100
485760 On ch=5 n=100 v=0
485760 On ch=5 n=52 v=0
485760 On ch=5 n=98 v=100
485760 On ch=5 n=51 v=100
485880 On ch=5 n=98 v=0
485880 On ch=5 n=51 v=0
485880 On ch=5 n=99 v=100
485880 On ch=5 n=52 v=100
486000 On ch=5 n=99 v=0
486000 On ch=5 n=52 v=0
486000 On ch=5 n=98 v=100
486000 On ch=5 n=51 v=100
486120 On ch=5 n=98 v=0
486120 On ch=5 n=51 v=0
486120 On ch=5 n=99 v=100
486240 On ch=5 n=99 v=0
486240 On ch=5 n=100 v=100
486240 On ch=5 n=54 v=100
487440 On ch=5 n=54 v=0
487680 On ch=5 n=100 v=0
487680 On ch=5 n=99 v=100
487680 On ch=5 n=52 v=100
487800 On ch=5 n=99 v=0
487800 On ch=5 n=52 v=0
487920 On ch=5 n=100 v=100
487920 On ch=5 n=54 v=100
488040 On ch=5 n=100 v=0
488040 On ch=5 n=54 v=0
488160 On ch=5 n=99 v=100
488160 On ch=5 n=52 v=100
488280 On ch=5 n=99 v=0
488280 On ch=5 n=52 v=0
488280 On ch=5 n=98 v=100
488280 On ch=5 n=51 v=100
488400 On ch=5 n=98 v=0
488400 On ch=5 n=51 v=0
488400 On ch=5 n=97 v=100
488400 On ch=5 n=50 v=100
488520 On ch=5 n=97 v=0
488520 On ch=5 n=50 v=0
488520 On ch=5 n=99 v=100
488520 On ch=5 n=52 v=100
488640 On ch=5 n=99 v=0
488640 On ch=5 n=52 v=0
488640 On ch=5 n=98 v=100
488640 On ch=5 n=51 v=100
488760 On ch=5 n=98 v=0
488760 On ch=5 n=51 v=0
488760 On ch=5 n=97 v=100
488760 On ch=5 n=50 v=100
488880 On ch=5 n=97 v=0
488880 On ch=5 n=50 v=0
488880 On ch=5 n=99 v=100
488880 On ch=5 n=52 v=100
489000 On ch=5 n=99 v=0
489000 On ch=5 n=52 v=0
489000 On ch=5 n=98 v=100
489000 On ch=5 n=51 v=100
489120 On ch=5 n=98 v=0
489120 On ch=5 n=51 v=0
489120 On ch=5 n=97 v=100
489120 On ch=5 n=50 v=100
489240 On ch=5 n=97 v=0
489240 On ch=5 n=50 v=0
489240 On ch=5 n=99 v=100
489240 On ch=5 n=52 v=100
489360 On ch=5 n=99 v=0
489360 On ch=5 n=52 v=0
489360 On ch=5 n=98 v=100
489360 On ch=5 n=51 v=100
489480 On ch=5 n=98 v=0
489480 On ch=5 n=51 v=0
489480 On ch=5 n=97 v=100
489480 On ch=5 n=50 v=100
489600 On ch=5 n=97 v=0
489600 On ch=5 n=50 v=0
489600 On ch=5 n=99 v=100
489600 On ch=5 n=52 v=100
489720 On ch=5 n=99 v=0
489720 On ch=5 n=52 v=0
489720 On ch=5 n=98 v=100
489720 On ch=5 n=51 v=100
489840 On ch=5 n=98 v=0
489840 On ch=5 n=51 v=0
489840 On ch=5 n=97 v=100
489840 On ch=5 n=50 v=100
489960 On ch=5 n=97 v=0
489960 On ch=5 n=50 v=0
489960 On ch=5 n=99 v=100
489960 On ch=5 n=52 v=100
490080 On ch=5 n=99 v=0
490080 On ch=5 n=52 v=0
490080 On ch=5 n=98 v=100
490080 On ch=5 n=51 v=100
490200 On ch=5 n=98 v=0
490200 On ch=5 n=51 v=0
490200 On ch=5 n=97 v=100
490200 On ch=5 n=50 v=100
490320 On ch=5 n=97 v=0
490320 On ch=5 n=50 v=0
490320 On ch=5 n=99 v=100
490320 On ch=5 n=52 v=100
490440 On ch=5 n=99 v=0
490440 On ch=5 n=52 v=0
490440 On ch=5 n=98 v=100
490440 On ch=5 n=51 v=100
490560 On ch=5 n=98 v=0
490560 On ch=5 n=51 v=0
490560 On ch=5 n=97 v=100
490560 On ch=5 n=50 v=100
490680 On ch=5 n=97 v=0
490680 On ch=5 n=50 v=0
490680 On ch=5 n=99 v=100
490680 On ch=5 n=52 v=100
490800 On ch=5 n=99 v=0
490800 On ch=5 n=52 v=0
490800 On ch=5 n=98 v=100
490800 On ch=5 n=51 v=100
490920 On ch=5 n=98 v=0
490920 On ch=5 n=51 v=0
490920 On ch=5 n=97 v=100
490920 On ch=5 n=50 v=100
491040 On ch=5 n=97 v=0
491040 On ch=5 n=50 v=0
491160 On ch=5 n=98 v=100
491160 On ch=5 n=51 v=100
491400 On ch=5 n=51 v=0
491760 On ch=5 n=98 v=0
491760 On ch=5 n=99 v=100
491760 On ch=5 n=52 v=100
493800 On ch=5 n=99 v=0
493800 On ch=5 n=52 v=0
493920 On ch=5 n=120 v=0
493920 On ch=5 n=121 v=0
493920 On ch=5 n=122 v=0
493920 On ch=5 n=123 v=0
493920 On ch=5 n=124 v=0
494400 On ch=5 n=100 v=100
494400 On ch=5 n=87 v=100
494400 On ch=5 n=74 v=100
494400 On ch=5 n=62 v=100
494400 On ch=5 n=47 v=100
494520 On ch=5 n=100 v=0
494520 On ch=5 n=87 v=0
494520 On ch=5 n=74 v=0
494520 On ch=5 n=62 v=0
494520 On ch=5 n=47 v=0
494760 On ch=5 n=49 v=100
494880 On ch=5 n=105 v=0
494880 On ch=5 n=106 v=0
494880 Meta Text "[idle_realtime]"
495120 On ch=5 n=49 v=0
495600 On ch=5 n=40 v=100
495720 On ch=5 n=40 v=0
495720 Meta TrkEnd
TrkEnd
MTrk
0 Meta TrkName "PART VOCALS"
38400 Meta Text "[idle]"
78720 Meta Text "[idle_realtime]"
82560 Meta Text "[tambourine_start]"
84240 On ch=6 n=106 v=100
84240 On ch=6 n=105 v=100
84320 Meta Text "[play]"
84480 On ch=6 n=96 v=100
84600 On ch=6 n=96 v=0
84960 On ch=6 n=96 v=100
85080 On ch=6 n=96 v=0
85440 On ch=6 n=96 v=100
85560 On ch=6 n=96 v=0
85920 On ch=6 n=96 v=100
86040 On ch=6 n=96 v=0
86400 On ch=6 n=96 v=100
86520 On ch=6 n=96 v=0
86880 On ch=6 n=96 v=100
87000 On ch=6 n=96 v=0
87360 On ch=6 n=96 v=100
87480 On ch=6 n=96 v=0
87840 On ch=6 n=96 v=100
87960 On ch=6 n=96 v=0
88080 On ch=6 n=106 v=0
88080 On ch=6 n=105 v=0
88080 On ch=6 n=105 v=100
88080 On ch=6 n=106 v=100
88320 On ch=6 n=96 v=100
88440 On ch=6 n=96 v=0
88800 On ch=6 n=96 v=100
88920 On ch=6 n=96 v=0
89280 On ch=6 n=96 v=100
89400 On ch=6 n=96 v=0
89760 On ch=6 n=96 v=100
89880 On ch=6 n=96 v=0
90240 On ch=6 n=96 v=100
90400 On ch=6 n=96 v=0
91680 On ch=6 n=105 v=0
91680 On ch=6 n=106 v=0
91680 On ch=6 n=105 v=100
91680 On ch=6 n=106 v=100
92160 Meta Text "[intense]"
92160 On ch=6 n=96 v=100
92280 On ch=6 n=96 v=0
92480 On ch=6 n=97 v=100
92600 On ch=6 n=97 v=0
92640 On ch=6 n=96 v=100
92760 On ch=6 n=96 v=0
92960 On ch=6 n=97 v=100
93080 On ch=6 n=97 v=0
93120 On ch=6 n=96 v=100
93240 On ch=6 n=96 v=0
93440 On ch=6 n=97 v=100
93560 On ch=6 n=97 v=0
93600 On ch=6 n=96 v=100
93720 On ch=6 n=96 v=0
93920 On ch=6 n=97 v=100
94040 On ch=6 n=97 v=0
94080 On ch=6 n=96 v=100
94200 On ch=6 n=96 v=0
94400 On ch=6 n=97 v=100
94520 On ch=6 n=97 v=0
94560 On ch=6 n=96 v=100
94680 On ch=6 n=96 v=0
94880 On ch=6 n=97 v=100
95000 On ch=6 n=97 v=0
95040 On ch=6 n=96 v=100
95160 On ch=6 n=96 v=0
95360 On ch=6 n=97 v=100
95480 On ch=6 n=97 v=0
95520 On ch=6 n=96 v=100
95640 On ch=6 n=96 v=0
95760 On ch=6 n=105 v=0
95760 On ch=6 n=106 v=0
95760 On ch=6 n=105 v=100
95760 On ch=6 n=106 v=100
95840 On ch=6 n=97 v=100
95960 On ch=6 n=97 v=0
96000 On ch=6 n=96 v=100
96120 On ch=6 n=96 v=0
96320 On ch=6 n=97 v=100
96440 On ch=6 n=97 v=0
96480 On ch=6 n=96 v=100
96600 On ch=6 n=96 v=0
96800 On ch=6 n=97 v=100
96920 On ch=6 n=97 v=0
96960 On ch=6 n=96 v=100
97080 On ch=6 n=96 v=0
97280 On ch=6 n=97 v=100
97400 On ch=6 n=97 v=0
97440 On ch=6 n=96 v=100
97560 On ch=6 n=96 v=0
97760 On ch=6 n=97 v=100
97880 On ch=6 n=97 v=0
97920 On ch=6 n=96 v=100
98080 On ch=6 n=96 v=0
99360 On ch=6 n=105 v=0
99360 On ch=6 n=106 v=0
99360 On ch=6 n=105 v=100
99360 On ch=6 n=106 v=100
99840 On ch=6 n=96 v=100
99960 On ch=6 n=96 v=0
100160 On ch=6 n=97 v=100
100280 On ch=6 n=97 v=0
100320 On ch=6 n=96 v=100
100440 On ch=6 n=96 v=0
100640 On ch=6 n=97 v=100
100760 On ch=6 n=97 v=0
100800 On ch=6 n=96 v=100
100920 On ch=6 n=96 v=0
101120 On ch=6 n=97 v=100
101240 On ch=6 n=97 v=0
101280 On ch=6 n=96 v=100
101400 On ch=6 n=96 v=0
101600 On ch=6 n=97 v=100
101720 On ch=6 n=97 v=0
101760 On ch=6 n=96 v=100
101880 On ch=6 n=96 v=0
102080 On ch=6 n=97 v=100
102200 On ch=6 n=97 v=0
102240 On ch=6 n=96 v=100
102360 On ch=6 n=96 v=0
102560 On ch=6 n=97 v=100
102680 On ch=6 n=97 v=0
102720 On ch=6 n=96 v=100
102840 On ch=6 n=96 v=0
103040 On ch=6 n=97 v=100
103160 On ch=6 n=97 v=0
103200 On ch=6 n=96 v=100
103320 On ch=6 n=96 v=0
103440 On ch=6 n=105 v=0
103440 On ch=6 n=106 v=0
103440 On ch=6 n=105 v=100
103440 On ch=6 n=106 v=100
103520 On ch=6 n=97 v=100
103640 On ch=6 n=97 v=0
103680 On ch=6 n=96 v=100
103800 On ch=6 n=96 v=0
104000 On ch=6 n=97 v=100
104120 On ch=6 n=97 v=0
104160 On ch=6 n=96 v=100
104280 On ch=6 n=96 v=0
104480 On ch=6 n=97 v=100
104600 On ch=6 n=97 v=0
104640 On ch=6 n=96 v=100
104760 On ch=6 n=96 v=0
104960 On ch=6 n=97 v=100
105080 On ch=6 n=97 v=0
105120 On ch=6 n=96 v=100
105240 On ch=6 n=96 v=0
105440 On ch=6 n=97 v=100
105560 On ch=6 n=97 v=0
105600 On ch=6 n=96 v=100
105720 On ch=6 n=96 v=0
105920 On ch=6 n=97 v=100
106040 On ch=6 n=97 v=0
106080 On ch=6 n=96 v=100
106200 On ch=6 n=96 v=0
106400 On ch=6 n=97 v=100
106520 On ch=6 n=97 v=0
106560 On ch=6 n=96 v=100
106680 On ch=6 n=96 v=0
106880 On ch=6 n=97 v=100
107000 On ch=6 n=97 v=0
107040 On ch=6 n=96 v=100
107160 On ch=6 n=96 v=0
107360 On ch=6 n=97 v=100
107480 On ch=6 n=97 v=0
107520 On ch=6 n=96 v=100
107680 On ch=6 n=96 v=0
107840 On ch=6 n=105 v=0
107840 On ch=6 n=106 v=0
108000 On ch=6 n=106 v=100
108000 On ch=6 n=105 v=100
108960 On ch=6 n=96 v=100
109120 On ch=6 n=96 v=0
109440 On ch=6 n=96 v=100
109600 On ch=6 n=96 v=0
110880 On ch=6 n=96 v=100
111040 On ch=6 n=96 v=0
111360 On ch=6 n=96 v=100
111520 On ch=6 n=96 v=0
111680 On ch=6 n=106 v=0
111680 On ch=6 n=105 v=0
111840 On ch=6 n=106 v=100
111840 On ch=6 n=105 v=100
112800 On ch=6 n=96 v=100
112960 On ch=6 n=96 v=0
113280 On ch=6 n=96 v=100
113440 On ch=6 n=96 v=0
114720 On ch=6 n=96 v=100
114880 On ch=6 n=96 v=0
114960 On ch=6 n=106 v=0
114960 On ch=6 n=105 v=0
114960 On ch=6 n=105 v=100
114960 On ch=6 n=106 v=100
115200 On ch=6 n=96 v=100
115320 On ch=6 n=96 v=0
115520 On ch=6 n=97 v=100
115640 On ch=6 n=97 v=0
115680 On ch=6 n=96 v=100
115800 On ch=6 n=96 v=0
116000 On ch=6 n=97 v=100
116120 On ch=6 n=97 v=0
116160 On ch=6 n=96 v=100
116280 On ch=6 n=96 v=0
116480 On ch=6 n=97 v=100
116600 On ch=6 n=97 v=0
116640 On ch=6 n=96 v=100
116760 On ch=6 n=96 v=0
116960 On ch=6 n=97 v=100
117080 On ch=6 n=97 v=0
117120 On ch=6 n=96 v=100
117240 On ch=6 n=96 v=0
117440 On ch=6 n=97 v=100
117560 On ch=6 n=97 v=0
117600 On ch=6 n=96 v=100
117720 On ch=6 n=96 v=0
117920 On ch=6 n=97 v=100
118040 On ch=6 n=97 v=0
118080 On ch=6 n=96 v=100
118200 On ch=6 n=96 v=0
118400 On ch=6 n=97 v=100
118520 On ch=6 n=97 v=0
118560 On ch=6 n=96 v=100
118680 On ch=6 n=96 v=0
118800 On ch=6 n=105 v=0
118800 On ch=6 n=106 v=0
118800 On ch=6 n=105 v=100
118800 On ch=6 n=106 v=100
118880 On ch=6 n=97 v=100
119000 On ch=6 n=97 v=0
119040 On ch=6 n=96 v=100
119160 On ch=6 n=96 v=0
119360 On ch=6 n=97 v=100
119480 On ch=6 n=97 v=0
119520 On ch=6 n=96 v=100
119640 On ch=6 n=96 v=0
119840 On ch=6 n=97 v=100
119960 On ch=6 n=97 v=0
120000 On ch=6 n=96 v=100
120120 On ch=6 n=96 v=0
120320 On ch=6 n=97 v=100
120440 On ch=6 n=97 v=0
120480 On ch=6 n=96 v=100
120600 On ch=6 n=96 v=0
120800 On ch=6 n=97 v=100
120920 On ch=6 n=97 v=0
120960 On ch=6 n=96 v=100
121080 On ch=6 n=96 v=0
121280 On ch=6 n=97 v=100
121400 On ch=6 n=97 v=0
121440 On ch=6 n=96 v=100
121560 On ch=6 n=96 v=0
121760 On ch=6 n=97 v=100
121880 On ch=6 n=97 v=0
121920 On ch=6 n=96 v=100
122040 On ch=6 n=96 v=0
122240 On ch=6 n=97 v=100
122360 On ch=6 n=97 v=0
122400 On ch=6 n=96 v=100
122520 On ch=6 n=96 v=0
122720 On ch=6 n=97 v=100
122840 On ch=6 n=97 v=0
122880 On ch=6 n=96 v=100
123040 On ch=6 n=105 v=0
123040 On ch=6 n=106 v=0
123040 On ch=6 n=96 v=0
123120 Meta Text "[tambourine_end]"
123200 Meta Text "[idle_realtime]"
168000 Meta Text "[idle]"
181920 Meta Text "[play]"
182280 On ch=6 n=106 v=100
182382 Meta Lyric "It's"
182382 On ch=6 n=62 v=80
182490 On ch=6 n=62 v=0
182639 Meta Lyric "been"
182639 On ch=6 n=65 v=79
182774 On ch=6 n=65 v=0
182892 Meta Lyric "such"
182892 On ch=6 n=65 v=77
183031 On ch=6 n=65 v=0
183143 Meta Lyric "a"
183143 On ch=6 n=62 v=76
183257 On ch=6 n=62 v=0
183375 Meta Lyric "long"
183375 On ch=6 n=69 v=84
183749 On ch=6 n=69 v=0
183873 Meta Lyric "time"
183873 On ch=6 n=67 v=77
184101 On ch=6 n=67 v=0
184176 Meta Lyric "+"
184176 On ch=6 n=65 v=76
185390 On ch=6 n=65 v=0
185520 On ch=6 n=106 v=0
185880 On ch=6 n=106 v=100
186015 Meta Lyric "I"
186015 On ch=6 n=60 v=76
186124 On ch=6 n=60 v=0
186265 Meta Lyric "think"
186265 On ch=6 n=62 v=92
186404 On ch=6 n=62 v=0
186482 Meta Lyric "I"
186482 On ch=6 n=65 v=77
186655 On ch=6 n=65 v=0
186774 Meta Lyric "should"
186774 On ch=6 n=65 v=77
186911 On ch=6 n=65 v=0
186985 Meta Lyric "be"
186985 On ch=6 n=67 v=76
187133 On ch=6 n=67 v=0
187250 Meta Lyric "go-"
187250 On ch=6 n=67 v=78
187457 On ch=6 n=67 v=0
187483 Meta Lyric "+"
187483 On ch=6 n=65 v=78
187678 On ch=6 n=65 v=0
187731 Meta Lyric "ing"
187731 On ch=6 n=65 v=86
188703 On ch=6 n=65 v=0
188912 Meta Lyric "yeah"
188912 On ch=6 n=62 v=92
189269 On ch=6 n=62 v=0
189360 On ch=6 n=106 v=0
190680 On ch=6 n=105 v=100
190799 Meta Lyric "And"
190799 On ch=6 n=60 v=72
190884 On ch=6 n=60 v=0
191035 Meta Lyric "time"
191035 On ch=6 n=69 v=82
191440 On ch=6 n=69 v=0
191539 Meta Lyric "does-"
191539 On ch=6 n=67 v=86
191728 On ch=6 n=67 v=0
191759 Meta Lyric "n't"
191759 On ch=6 n=65 v=76
191931 On ch=6 n=65 v=0
192037 Meta Lyric "wait"
192037 On ch=6 n=65 v=71
192180 On ch=6 n=65 v=0
192317 Meta Lyric "for"
192317 On ch=6 n=67 v=88
192658 On ch=6 n=67 v=0
192747 Meta Lyric "me"
192747 On ch=6 n=65 v=86
192927 On ch=6 n=65 v=0
192969 Meta Lyric "+"
192969 On ch=6 n=62 v=88
193260 On ch=6 n=62 v=0
193320 On ch=6 n=105 v=0
193560 On ch=6 n=105 v=100
193677 Meta Lyric "It"
193677 On ch=6 n=60 v=78
193780 On ch=6 n=60 v=0
193937 Meta Lyric "keeps"
193937 On ch=6 n=62 v=82
194082 On ch=6 n=62 v=0
194219 Meta Lyric "on"
194219 On ch=6 n=65 v=77
194547 On ch=6 n=65 v=0
194657 Meta Lyric "roll-"
194657 On ch=6 n=67 v=73
195545 On ch=6 n=67 v=0
195628 Meta Lyric "in'"
195628 On ch=6 n=69 v=75
195713 On ch=6 n=69 v=0
195731 Meta Lyric "+"
195731 On ch=6 n=67 v=75
195867 On ch=6 n=67 v=0
195898 Meta Lyric "+"
195898 On ch=6 n=65 v=77
197520 On ch=6 n=65 v=0
197640 On ch=6 n=105 v=0
198480 On ch=6 n=106 v=100
198480 On ch=6 n=116 v=100
198723 Meta Lyric "Sail"
198723 On ch=6 n=69 v=78
199153 On ch=6 n=69 v=0
199230 Meta Lyric "on"
199230 On ch=6 n=67 v=78
199440 On ch=6 n=67 v=0
199470 Meta Lyric "+"
199470 On ch=6 n=65 v=74
201449 On ch=6 n=65 v=0
201480 On ch=6 n=106 v=0
201480 On ch=6 n=116 v=0
201540 On ch=6 n=106 v=100
201584 Meta Lyric "On"
201584 On ch=6 n=62 v=77
201806 On ch=6 n=62 v=0
201855 Meta Lyric "a"
201855 On ch=6 n=65 v=74
201991 On ch=6 n=65 v=0
202073 Meta Lyric "dis-"
202073 On ch=6 n=65 v=98
202232 On ch=6 n=65 v=0
202321 Meta Lyric "tant"
202321 On ch=6 n=67 v=77
202465 On ch=6 n=67 v=0
202578 Meta Lyric "high-"
202578 On ch=6 n=67 v=92
202800 On ch=6 n=67 v=0
202833 Meta Lyric "+"
202833 On ch=6 n=65 v=74
203028 On ch=6 n=65 v=0
203085 Meta Lyric "way"
203085 On ch=6 n=65 v=79
204134 On ch=6 n=65 v=0
204242 Meta Lyric "yeah"
204242 On ch=6 n=67 v=92
204570 On ch=6 n=67 v=0
204592 Meta Lyric "+"
204592 On ch=6 n=69 v=78
204755 On ch=6 n=69 v=0
204960 On ch=6 n=106 v=0
205440 On ch=6 n=105 v=100
205637 Meta Lyric "I've"
205637 On ch=6 n=60 v=78
205735 On ch=6 n=60 v=0
205917 Meta Lyric "got"
205917 On ch=6 n=65 v=78
206043 On ch=6 n=65 v=0
206163 Meta Lyric "to"
206163 On ch=6 n=65 v=54
206280 On ch=6 n=65 v=0
206412 Meta Lyric "keep"
206412 On ch=6 n=69 v=79
206796 On ch=6 n=69 v=0
206914 Meta Lyric "on"
206914 On ch=6 n=67 v=77
207111 On ch=6 n=67 v=0
207130 Meta Lyric "+"
207130 On ch=6 n=65 v=74
207262 On ch=6 n=65 v=0
207391 Meta Lyric "chas-"
207391 On ch=6 n=65 v=76
207560 On ch=6 n=65 v=0
207669 Meta Lyric "in'"
207669 On ch=6 n=65 v=75
207845 On ch=6 n=65 v=0
207880 Meta Lyric "a"
207880 On ch=6 n=65 v=76
207981 On ch=6 n=65 v=0
208098 Meta Lyric "dream"
208098 On ch=6 n=67 v=77
208431 On ch=6 n=67 v=0
208451 Meta Lyric "+"
208451 On ch=6 n=65 v=84
208832 On ch=6 n=65 v=0
208860 On ch=6 n=105 v=0
208920 On ch=6 n=106 v=100
208920 On ch=6 n=105 v=100
208920 On ch=6 n=116 v=100
209008 Meta Lyric "I've"
209008 On ch=6 n=60 v=72
209125 On ch=6 n=60 v=0
209267 Meta Lyric "got-"
209267 On ch=6 n=69 v=77
209478 On ch=6 n=69 v=0
209507 Meta Lyric "ta"
209507 On ch=6 n=69 v=79
209647 On ch=6 n=69 v=0
209752 Meta Lyric "be"
209752 On ch=6 n=70 v=107
210004 On ch=6 n=70 v=0
210022 Meta Lyric "on"
210022 On ch=6 n=69 v=94
210174 On ch=6 n=69 v=0
210278 Meta Lyric "my"
210278 On ch=6 n=69 v=107
210926 On ch=6 n=69 v=0
210976 Meta Lyric "+"
210976 On ch=6 n=67 v=78
211141 On ch=6 n=67 v=0
211194 Meta Lyric "way"
211194 On ch=6 n=67 v=107
212521 On ch=6 n=67 v=0
212640 On ch=6 n=106 v=0
212640 On ch=6 n=105 v=0
212640 On ch=6 n=116 v=0
212640 Meta Text "[mellow]"
212760 On ch=6 n=106 v=100
212760 On ch=6 n=105 v=100
212880 Meta Lyric "Wish"
212880 On ch=6 n=60 v=75
212991 On ch=6 n=60 v=0
213121 Meta Lyric "there"
213121 On ch=6 n=64 v=76
213348 On ch=6 n=64 v=0
213359 Meta Lyric "was"
213359 On ch=6 n=64 v=71
213491 On ch=6 n=64 v=0
213609 Meta Lyric "some-"
213609 On ch=6 n=65 v=67
213760 On ch=6 n=65 v=0
213879 Meta Lyric "thing"
213879 On ch=6 n=64 v=76
214070 On ch=6 n=64 v=0
214092 Meta Lyric "I"
214092 On ch=6 n=64 v=77
214322 On ch=6 n=64 v=0
214410 Meta Lyric "could"
214410 On ch=6 n=65 v=78
214655 On ch=6 n=65 v=0
214835 Meta Lyric "say"
214835 On ch=6 n=62 v=98
215313 On ch=6 n=62 v=0
215345 Meta Lyric "+"
215345 On ch=6 n=60 v=77
215708 On ch=6 n=60 v=0
215774 Meta Lyric "+"
215774 On ch=6 n=69 v=79
217962 On ch=6 n=69 v=0
218040 On ch=6 n=106 v=0
218040 On ch=6 n=105 v=0
218280 Meta Text "[idle]"
226440 Meta Text "[play]"
226680 On ch=6 n=106 v=100
226804 Meta Lyric "I'm"
226804 On ch=6 n=62 v=79
226952 On ch=6 n=62 v=0
227046 Meta Lyric "just"
227046 On ch=6 n=65 v=79
227214 On ch=6 n=65 v=0
227294 Meta Lyric "+"
227294 On ch=6 n=62 v=77
227409 On ch=6 n=62 v=0
227538 Meta Lyric "mov-"
227538 On ch=6 n=67 v=79
227768 On ch=6 n=67 v=0
227811 Meta Lyric "in'"
227811 On ch=6 n=65 v=77
228155 On ch=6 n=65 v=0
228221 Meta Lyric "on"
228221 On ch=6 n=65 v=79
228453 On ch=6 n=65 v=0
228523 Meta Lyric "+"
228523 On ch=6 n=62 v=79
228680 On ch=6 n=62 v=0
228721 Meta Lyric "+"
228721 On ch=6 n=60 v=88
229145 On ch=6 n=60 v=0
229200 On ch=6 n=106 v=0
229320 On ch=6 n=106 v=100
229435 Meta Lyric "You'll"
229435 On ch=6 n=69 v=77
229585 On ch=6 n=69 v=0
229690 Meta Lyric "for-"
229690 On ch=6 n=69 v=76
229856 On ch=6 n=69 v=0
229923 Meta Lyric "get"
229923 On ch=6 n=69 v=68
230079 On ch=6 n=69 v=0
230091 Meta Lyric "a-"
230091 On ch=6 n=69 v=78
230171 On ch=6 n=69 v=0
230242 Meta Lyric "bout"
230242 On ch=6 n=70 v=111
230544 On ch=6 n=70 v=0
230628 Meta Lyric "me"
230628 On ch=6 n=69 v=79
230883 On ch=6 n=69 v=0
230904 Meta Lyric "af-"
230904 On ch=6 n=67 v=76
231029 On ch=6 n=67 v=0
231137 Meta Lyric "ter"
231137 On ch=6 n=65 v=73
231337 On ch=6 n=65 v=0
231362 Meta Lyric "I've"
231362 On ch=6 n=67 v=82
231569 On ch=6 n=67 v=0
231701 Meta Lyric "been"
231701 On ch=6 n=65 v=77
231921 On ch=6 n=65 v=0
232080 Meta Lyric "gone"
232080 On ch=6 n=65 v=76
232781 On ch=6 n=65 v=0
232846 On ch=6 n=106 v=0
234360 On ch=6 n=105 v=100
234360 On ch=6 n=116 v=100
234477 Meta Lyric "I"
234477 On ch=6 n=62 v=88
234628 On ch=6 n=62 v=0
234726 Meta Lyric "don't"
234726 On ch=6 n=65 v=79
234904 On ch=6 n=65 v=0
234946 Meta Lyric "+"
234946 On ch=6 n=62 v=82
235148 On ch=6 n=62 v=0
235190 Meta Lyric "want"
235190 On ch=6 n=67 v=92
235399 On ch=6 n=67 v=0
235476 Meta Lyric "no"
235476 On ch=6 n=65 v=78
235780 On ch=6 n=65 v=0
235904 Meta Lyric "more"
235904 On ch=6 n=65 v=84
236104 On ch=6 n=65 v=0
236179 Meta Lyric "+"
236179 On ch=6 n=62 v=79
236387 On ch=6 n=62 v=0
236397 Meta Lyric "+"
236397 On ch=6 n=60 v=78
236715 On ch=6 n=60 v=0
236760 On ch=6 n=105 v=0
236760 On ch=6 n=116 v=0
236820 On ch=6 n=105 v=100
236876 Meta Lyric "It's"
236876 On ch=6 n=60 v=84
236983 On ch=6 n=60 v=0
237110 Meta Lyric "just"
237110 On ch=6 n=68 v=77
237252 On ch=6 n=68 v=0
237333 Meta Lyric "out-"
237333 On ch=6 n=67 v=79
237484 On ch=6 n=67 v=0
237613 Meta Lyric "side"
237613 On ch=6 n=67 v=78
237814 On ch=6 n=67 v=0
237848 Meta Lyric "of"
237848 On ch=6 n=65 v=77
238059 On ch=6 n=65 v=0
238083 Meta Lyric "your"
238083 On ch=6 n=65 v=79
238213 On ch=6 n=65 v=0
238348 Meta Lyric "front"
238348 On ch=6 n=67 v=78
238643 On ch=6 n=67 v=0
238792 Meta Lyric "door"
238792 On ch=6 n=65 v=67
239013 On ch=6 n=65 v=0
239042 Meta Lyric "+"
239042 On ch=6 n=60 v=34
239275 On ch=6 n=60 v=0
239304 Meta Lyric "+"
239304 On ch=6 n=62 v=51
241065 On ch=6 n=62 v=0
241200 On ch=6 n=105 v=0
241320 Meta Text "[intense]"
241560 On ch=6 n=105 v=100
241560 On ch=6 n=106 v=100
241667 Meta Lyric "Ah"
241667 On ch=6 n=74 v=92
241874 On ch=6 n=74 v=0
241940 Meta Lyric "yeah"
241940 On ch=6 n=69 v=78
242293 On ch=6 n=69 v=0
242392 Meta Lyric "yeah"
242392 On ch=6 n=67 v=82
242623 On ch=6 n=67 v=0
242647 Meta Lyric "+"
242647 On ch=6 n=65 v=65
242841 On ch=6 n=65 v=0
242877 Meta Lyric "+"
242877 On ch=6 n=67 v=92
243650 On ch=6 n=67 v=0
243840 On ch=6 n=105 v=0
243840 On ch=6 n=106 v=0
244560 On ch=6 n=105 v=100
244560 On ch=6 n=106 v=100
244741 Meta Lyric "It's"
244741 On ch=6 n=69 v=73
244878 On ch=6 n=69 v=0
245014 Meta Lyric "been"
245014 On ch=6 n=72 v=76
245150 On ch=6 n=72 v=0
245286 Meta Lyric "such"
245286 On ch=6 n=72 v=64
245415 On ch=6 n=72 v=0
245514 Meta Lyric "a"
245514 On ch=6 n=69 v=74
245641 On ch=6 n=69 v=0
245744 Meta Lyric "long"
245744 On ch=6 n=72 v=65
246123 On ch=6 n=72 v=0
246238 Meta Lyric "time"
246238 On ch=6 n=69 v=77
246725 On ch=6 n=69 v=0
246840 On ch=6 n=105 v=0
246840 On ch=6 n=106 v=0
247440 On ch=6 n=105 v=100
247440 On ch=6 n=106 v=100
247440 On ch=6 n=116 v=100
247554 Meta Lyric "it's"
247554 On ch=6 n=69 v=86
247728 On ch=6 n=69 v=0
247879 Meta Lyric "been"
247879 On ch=6 n=72 v=82
248030 On ch=6 n=72 v=0
248147 Meta Lyric "such"
248147 On ch=6 n=72 v=76
248285 On ch=6 n=72 v=0
248380 Meta Lyric "a"
248380 On ch=6 n=69 v=72
248644 On ch=6 n=69 v=0
248728 Meta Lyric "long"
248728 On ch=6 n=74 v=107
249136 On ch=6 n=74 v=0
249356 Meta Lyric "time"
249356 On ch=6 n=69 v=78
249567 On ch=6 n=69 v=0
249645 Meta Lyric "+"
249645 On ch=6 n=67 v=77
249812 On ch=6 n=67 v=0
249839 Meta Lyric "+"
249839 On ch=6 n=65 v=75
251156 On ch=6 n=65 v=0
251160 Meta Text "[play]"
251282 Meta Lyric "oh"
251282 On ch=6 n=67 v=86
251617 On ch=6 n=67 v=0
251628 Meta Lyric "+"
251628 On ch=6 n=65 v=76
251707 On ch=6 n=65 v=0
251718 Meta Lyric "+"
251718 On ch=6 n=62 v=76
251817 On ch=6 n=62 v=0
251835 Meta Lyric "+"
251835 On ch=6 n=60 v=79
251946 On ch=6 n=60 v=0
251983 Meta Lyric "+"
251983 On ch=6 n=57 v=73
252077 On ch=6 n=57 v=0
252121 Meta Lyric "+"
252121 On ch=6 n=55 v=77
252219 On ch=6 n=55 v=0
252273 Meta Lyric "+"
252273 On ch=6 n=53 v=94
252967 On ch=6 n=53 v=0
253080 On ch=6 n=105 v=0
253080 On ch=6 n=106 v=0
253080 On ch=6 n=116 v=0
253440 On ch=6 n=105 v=100
253440 On ch=6 n=106 v=100
253677 Meta Text "Uh*"
253677 On ch=6 n=60 v=100
253821 On ch=6 n=60 v=0
256084 Meta Lyric "whoa*"
256084 On ch=6 n=70 v=77
256254 On ch=6 n=70 v=0
256440 On ch=6 n=105 v=0
256440 On ch=6 n=106 v=0
256920 Meta Text "[idle]"
264120 Meta Text "[play]"
264600 On ch=6 n=105 v=100
264600 On ch=6 n=116 v=100
264726 Meta Lyric "Well"
264726 On ch=6 n=60 v=76
264915 On ch=6 n=60 v=0
264935 Meta Lyric "+"
264935 On ch=6 n=62 v=92
265120 On ch=6 n=62 v=0
265169 Meta Lyric "I"
265169 On ch=6 n=65 v=70
265347 On ch=6 n=65 v=0
265437 Meta Lyric "get"
265437 On ch=6 n=65 v=73
265574 On ch=6 n=65 v=0
265752 Meta Lyric "so"
265752 On ch=6 n=69 v=76
266087 On ch=6 n=69 v=0
266197 Meta Lyric "lone-"
266197 On ch=6 n=69 v=84
266563 On ch=6 n=69 v=0
266658 Meta Lyric "ly"
266658 On ch=6 n=67 v=79
266880 On ch=6 n=67 v=0
266900 Meta Lyric "+"
266900 On ch=6 n=65 v=79
268198 On ch=6 n=65 v=0
268320 On ch=6 n=105 v=0
268320 On ch=6 n=116 v=0
268680 On ch=6 n=105 v=100
268797 Meta Lyric "When"
268797 On ch=6 n=62 v=88
269004 On ch=6 n=62 v=0
269036 Meta Lyric "I"
269036 On ch=6 n=65 v=77
269236 On ch=6 n=65 v=0
269249 Meta Lyric "am"
269249 On ch=6 n=65 v=76
269438 On ch=6 n=65 v=0
269509 Meta Lyric "with-"
269509 On ch=6 n=67 v=77
269676 On ch=6 n=67 v=0
269793 Meta Lyric "out"
269793 On ch=6 n=67 v=96
270108 On ch=6 n=67 v=0
270234 Meta Lyric "you"
270234 On ch=6 n=65 v=88
270901 On ch=6 n=65 v=0
270976 Meta Lyric "+"
270976 On ch=6 n=69 v=80
271128 On ch=6 n=69 v=0
271146 Meta Lyric "+"
271146 On ch=6 n=67 v=79
271233 On ch=6 n=67 v=0
271242 Meta Lyric "+"
271242 On ch=6 n=69 v=98
271417 On ch=6 n=69 v=0
271441 Meta Lyric "+"
271441 On ch=6 n=72 v=84
271542 On ch=6 n=72 v=0
271558 Meta Lyric "+"
271558 On ch=6 n=74 v=113
271677 On ch=6 n=74 v=0
272160 On ch=6 n=105 v=0
272400 On ch=6 n=106 v=100
272400 On ch=6 n=116 v=100
272633 Meta Lyric "But"
272633 On ch=6 n=62 v=78
272847 On ch=6 n=62 v=0
272871 Meta Lyric "in"
272871 On ch=6 n=65 v=78
273027 On ch=6 n=65 v=0
273123 Meta Lyric "my"
273123 On ch=6 n=65 v=75
273290 On ch=6 n=65 v=0
273391 Meta Lyric "mind"
273391 On ch=6 n=69 v=73
274440 On ch=6 n=69 v=0
274566 Meta Lyric "deep"
274566 On ch=6 n=72 v=79
274737 On ch=6 n=72 v=0
274838 Meta Lyric "in"
274838 On ch=6 n=68 v=77
274960 On ch=6 n=68 v=0
275024 Meta Lyric "my"
275024 On ch=6 n=67 v=77
275200 On ch=6 n=67 v=0
275295 Meta Lyric "mind"
275295 On ch=6 n=69 v=70
275356 On ch=6 n=69 v=0
275363 Meta Lyric "+"
275363 On ch=6 n=67 v=77
275490 On ch=6 n=67 v=0
275513 Meta Lyric "+"
275513 On ch=6 n=65 v=72
275949 On ch=6 n=65 v=0
276000 On ch=6 n=106 v=0
276000 On ch=6 n=116 v=0
276120 On ch=6 n=106 v=100
276234 Meta Lyric "I"
276234 On ch=6 n=60 v=77
276343 On ch=6 n=60 v=0
276491 Meta Lyric "can't"
276491 On ch=6 n=62 v=88
276636 On ch=6 n=62 v=0
276749 Meta Lyric "for-"
276749 On ch=6 n=65 v=79
276894 On ch=6 n=65 v=0
276977 Meta Lyric "get"
276977 On ch=6 n=65 v=84
277163 On ch=6 n=65 v=0
277189 Meta Lyric "a-"
277189 On ch=6 n=67 v=98
277317 On ch=6 n=67 v=0
277432 Meta Lyric "bout"
277432 On ch=6 n=67 v=100
277780 On ch=6 n=67 v=0
277934 Meta Lyric "you"
277934 On ch=6 n=65 v=78
279086 On ch=6 n=65 v=0
279117 Meta Lyric "oh"
279117 On ch=6 n=67 v=82
279478 On ch=6 n=67 v=0
279510 Meta Lyric "+"
279510 On ch=6 n=65 v=75
279622 On ch=6 n=65 v=0
279636 Meta Lyric "+"
279636 On ch=6 n=62 v=79
279752 On ch=6 n=62 v=0
279769 Meta Lyric "+"
279769 On ch=6 n=60 v=75
280296 On ch=6 n=60 v=0
280900 On ch=6 n=106 v=0
281040 On ch=6 n=105 v=100
281311 Meta Lyric "Good"
281311 On ch=6 n=69 v=88
281644 On ch=6 n=69 v=0
281760 Meta Lyric "times"
281760 On ch=6 n=67 v=107
282025 On ch=6 n=67 v=0
282067 Meta Lyric "+"
282067 On ch=6 n=65 v=92
283825 On ch=6 n=65 v=0
283860 On ch=6 n=105 v=0
283860 On ch=6 n=105 v=100
283916 Meta Lyric "And"
283916 On ch=6 n=60 v=78
284037 On ch=6 n=60 v=0
284169 Meta Lyric "fac-"
284169 On ch=6 n=62 v=86
284345 On ch=6 n=62 v=0
284425 Meta Text "es"
284425 On ch=6 n=65 v=74
284581 On ch=6 n=65 v=0
284651 Meta Lyric "that"
284651 On ch=6 n=65 v=77
284812 On ch=6 n=65 v=0
284880 Meta Lyric "re-"
284880 On ch=6 n=67 v=72
285035 On ch=6 n=67 v=0
285116 Meta Lyric "mind"
285116 On ch=6 n=67 v=82
285370 On ch=6 n=67 v=0
285403 Meta Lyric "+"
285403 On ch=6 n=65 v=61
285564 On ch=6 n=65 v=0
285645 Meta Lyric "me"
285645 On ch=6 n=65 v=111
286657 On ch=6 n=65 v=0
286799 Meta Lyric "yeah"
286799 On ch=6 n=67 v=79
287135 On ch=6 n=67 v=0
287150 Meta Lyric "+"
287150 On ch=6 n=69 v=79
287326 On ch=6 n=69 v=0
287400 On ch=6 n=105 v=0
288480 On ch=6 n=106 v=100
288692 Meta Lyric "I'm"
288692 On ch=6 n=60 v=84
288797 On ch=6 n=60 v=0
288961 Meta Lyric "tryin'"
288961 On ch=6 n=69 v=77
289327 On ch=6 n=69 v=0
289442 Meta Lyric "to"
289442 On ch=6 n=67 v=78
289598 On ch=6 n=67 v=0
289697 Meta Lyric "for-"
289697 On ch=6 n=65 v=82
289836 On ch=6 n=65 v=0
289912 Meta Lyric "get"
289912 On ch=6 n=65 v=88
290045 On ch=6 n=65 v=0
290196 Meta Lyric "your"
290196 On ch=6 n=67 v=88
290568 On ch=6 n=67 v=0
290648 Meta Lyric "name"
290648 On ch=6 n=65 v=92
291299 On ch=6 n=65 v=0
291360 On ch=6 n=106 v=0
291480 On ch=6 n=106 v=100
291480 On ch=6 n=105 v=100
291559 Meta Lyric "And"
291559 On ch=6 n=60 v=77
291690 On ch=6 n=60 v=0
291833 Meta Lyric "leave"
291833 On ch=6 n=69 v=88
292026 On ch=6 n=69 v=0
292066 Meta Lyric "it"
292066 On ch=6 n=69 v=77
292288 On ch=6 n=69 v=0
292317 Meta Lyric "all"
292317 On ch=6 n=70 v=100
292528 On ch=6 n=70 v=0
292574 Meta Lyric "be-"
292574 On ch=6 n=69 v=88
292710 On ch=6 n=69 v=0
292813 Meta Lyric "hind"
292813 On ch=6 n=69 v=78
293504 On ch=6 n=69 v=0
293512 Meta Lyric "+"
293512 On ch=6 n=67 v=96
293689 On ch=6 n=67 v=0
293768 Meta Lyric "me"
293768 On ch=6 n=67 v=96
294720 On ch=6 n=67 v=0
294720 Meta Text "[mellow]"
294840 On ch=6 n=106 v=0
294840 On ch=6 n=105 v=0
295200 On ch=6 n=105 v=100
295200 On ch=6 n=106 v=100
295200 On ch=6 n=116 v=100
295413 Meta Lyric "You're"
295413 On ch=6 n=60 v=84
295560 On ch=6 n=60 v=0
295678 Meta Lyric "com-"
295678 On ch=6 n=64 v=78
295886 On ch=6 n=64 v=0
295936 Meta Lyric "in'"
295936 On ch=6 n=64 v=74
296108 On ch=6 n=64 v=0
296157 Meta Lyric "back"
296157 On ch=6 n=65 v=68
296355 On ch=6 n=65 v=0
296451 Meta Lyric "to"
296451 On ch=6 n=64 v=75
296560 On ch=6 n=64 v=0
296692 Meta Lyric "find"
296692 On ch=6 n=64 v=80
297093 On ch=6 n=64 v=0
297115 Meta Lyric "+"
297115 On ch=6 n=65 v=64
297254 On ch=6 n=65 v=0
297318 Meta Lyric "me"
297318 On ch=6 n=62 v=92
297818 On ch=6 n=62 v=0
297842 Meta Lyric "+"
297842 On ch=6 n=60 v=76
298250 On ch=6 n=60 v=0
298320 Meta Lyric "+"
298320 On ch=6 n=69 v=75
300545 On ch=6 n=69 v=0
300600 On ch=6 n=105 v=0
300600 On ch=6 n=106 v=0
300600 On ch=6 n=116 v=0
300960 Meta Text "[idle]"
308760 Meta Text "[play]"
309120 On ch=6 n=105 v=100
309358 Meta Lyric "I'm"
309358 On ch=6 n=62 v=84
309499 On ch=6 n=62 v=0
309620 Meta Lyric "just"
309620 On ch=6 n=65 v=78
309761 On ch=6 n=65 v=0
309859 Meta Lyric "+"
309859 On ch=6 n=62 v=78
310026 On ch=6 n=62 v=0
310098 Meta Lyric "mov-"
310098 On ch=6 n=67 v=68
310319 On ch=6 n=67 v=0
310381 Meta Lyric "in'"
310381 On ch=6 n=65 v=75
310682 On ch=6 n=65 v=0
310761 Meta Lyric "on"
310761 On ch=6 n=65 v=67
310993 On ch=6 n=65 v=0
311016 Meta Lyric "+"
311016 On ch=6 n=62 v=75
311235 On ch=6 n=62 v=0
311260 Meta Lyric "+"
311260 On ch=6 n=60 v=77
311702 On ch=6 n=60 v=0
311760 On ch=6 n=105 v=0
311880 On ch=6 n=105 v=100
311998 Meta Lyric "You'll"
311998 On ch=6 n=69 v=82
312154 On ch=6 n=69 v=0
312268 Meta Lyric "for-"
312268 On ch=6 n=69 v=75
312427 On ch=6 n=69 v=0
312523 Meta Lyric "get"
312523 On ch=6 n=69 v=72
312656 On ch=6 n=69 v=0
312682 Meta Lyric "a-"
312682 On ch=6 n=69 v=72
312747 On ch=6 n=69 v=0
312826 Meta Lyric "bout"
312826 On ch=6 n=70 v=79
313139 On ch=6 n=70 v=0
313223 Meta Lyric "me"
313223 On ch=6 n=69 v=76
313450 On ch=6 n=69 v=0
313469 Meta Lyric "af-"
313469 On ch=6 n=67 v=74
313610 On ch=6 n=67 v=0
313714 Meta Lyric "ter"
313714 On ch=6 n=65 v=74
313910 On ch=6 n=65 v=0
313932 Meta Lyric "I've"
313932 On ch=6 n=67 v=76
314155 On ch=6 n=67 v=0
314282 Meta Lyric "been"
314282 On ch=6 n=65 v=68
314468 On ch=6 n=65 v=0
314648 Meta Lyric "gone"
314648 On ch=6 n=65 v=65
315406 On ch=6 n=65 v=0
315480 On ch=6 n=105 v=0
316800 On ch=6 n=106 v=100
317051 Meta Lyric "I"
317051 On ch=6 n=62 v=88
317230 On ch=6 n=62 v=0
317336 Meta Lyric "don't"
317336 On ch=6 n=65 v=96
317512 On ch=6 n=65 v=0
317535 Meta Lyric "+"
317535 On ch=6 n=62 v=82
317693 On ch=6 n=62 v=0
317779 Meta Lyric "want"
317779 On ch=6 n=67 v=68
317955 On ch=6 n=67 v=0
318043 Meta Lyric "no"
318043 On ch=6 n=65 v=74
318341 On ch=6 n=65 v=0
318471 Meta Lyric "more"
318471 On ch=6 n=65 v=88
318742 On ch=6 n=65 v=0
318761 Meta Lyric "+"
318761 On ch=6 n=62 v=76
318964 On ch=6 n=62 v=0
318991 Meta Lyric "+"
318991 On ch=6 n=60 v=79
319185 On ch=6 n=60 v=0
319260 On ch=6 n=106 v=0
319320 On ch=6 n=106 v=100
319320 On ch=6 n=116 v=100
319429 Meta Lyric "It's"
319429 On ch=6 n=60 v=75
319557 On ch=6 n=60 v=0
319689 Meta Lyric "just"
319689 On ch=6 n=68 v=79
319846 On ch=6 n=68 v=0
319923 Meta Lyric "out-"
319923 On ch=6 n=67 v=66
320079 On ch=6 n=67 v=0
320204 Meta Lyric "side"
320204 On ch=6 n=67 v=73
320401 On ch=6 n=67 v=0
320423 Meta Lyric "of"
320423 On ch=6 n=65 v=67
320641 On ch=6 n=65 v=0
320664 Meta Lyric "your"
320664 On ch=6 n=65 v=75
320782 On ch=6 n=65 v=0
320921 Meta Lyric "front"
320921 On ch=6 n=67 v=76
321225 On ch=6 n=67 v=0
321368 Meta Lyric "door"
321368 On ch=6 n=65 v=76
321619 On ch=6 n=65 v=0
321639 Meta Lyric "+"
321639 On ch=6 n=60 v=70
321844 On ch=6 n=60 v=0
321873 Meta Lyric "+"
321873 On ch=6 n=62 v=88
323402 On ch=6 n=62 v=0
323520 On ch=6 n=106 v=0
323520 On ch=6 n=116 v=0
323520 Meta Text "[intense]"
323760 On ch=6 n=106 v=100
323760 On ch=6 n=105 v=100
323994 Meta Lyric "Yeah"
323994 On ch=6 n=74 v=79
324450 On ch=6 n=74 v=0
324522 Meta Lyric "yeah"
324522 On ch=6 n=69 v=92
324917 On ch=6 n=69 v=0
324972 Meta Lyric "yeah"
324972 On ch=6 n=67 v=92
325167 On ch=6 n=67 v=0
325198 Meta Lyric "+"
325198 On ch=6 n=65 v=77
325389 On ch=6 n=65 v=0
325422 Meta Lyric "+"
325422 On ch=6 n=67 v=102
326698 On ch=6 n=67 v=0
327295 Meta Lyric "it's"
327295 On ch=6 n=69 v=71
327471 On ch=6 n=69 v=0
327613 Meta Lyric "been"
327613 On ch=6 n=72 v=74
327744 On ch=6 n=72 v=0
327870 Meta Lyric "such"
327870 On ch=6 n=72 v=71
327997 On ch=6 n=72 v=0
328099 Meta Lyric "a"
328099 On ch=6 n=69 v=75
328236 On ch=6 n=69 v=0
328335 Meta Lyric "long"
328335 On ch=6 n=72 v=67
328709 On ch=6 n=72 v=0
328835 Meta Lyric "time"
328835 On ch=6 n=69 v=74
329211 On ch=6 n=69 v=0
329280 On ch=6 n=106 v=0
329280 On ch=6 n=105 v=0
330000 On ch=6 n=105 v=100
330000 On ch=6 n=106 v=100
330000 On ch=6 n=116 v=100
330199 Meta Lyric "It's"
330199 On ch=6 n=72 v=80
330335 On ch=6 n=72 v=0
330473 Meta Lyric "been"
330473 On ch=6 n=72 v=76
330610 On ch=6 n=72 v=0
330736 Meta Lyric "such"
330736 On ch=6 n=72 v=75
330875 On ch=6 n=72 v=0
330964 Meta Lyric "a"
330964 On ch=6 n=69 v=76
331111 On ch=6 n=69 v=0
331208 On ch=6 n=69 v=100
331208 Meta Lyric "long"
331236 On ch=6 n=69 v=0
331316 On ch=6 n=77 v=79
331316 Meta Text "+"
331688 On ch=6 n=77 v=0
331875 Meta Lyric "time"
331875 On ch=6 n=68 v=75
332087 On ch=6 n=68 v=0
332106 Meta Lyric "+"
332106 On ch=6 n=67 v=77
332397 On ch=6 n=67 v=0
332432 Meta Lyric "+"
332432 On ch=6 n=65 v=67
333217 On ch=6 n=65 v=0
333312 On ch=6 n=105 v=0
333312 On ch=6 n=106 v=0
333312 On ch=6 n=116 v=0
333600 Meta Text "[play]"
333600 Meta Text "[tambourine_start]"
334920 On ch=6 n=105 v=100
334920 On ch=6 n=106 v=100
335040 On ch=6 n=96 v=100
335100 On ch=6 n=96 v=0
335280 On ch=6 n=96 v=100
335340 On ch=6 n=96 v=0
335520 On ch=6 n=97 v=100
335580 On ch=6 n=97 v=0
335760 On ch=6 n=96 v=100
335820 On ch=6 n=96 v=0
336000 On ch=6 n=97 v=100
336060 On ch=6 n=97 v=0
336240 On ch=6 n=96 v=100
336300 On ch=6 n=96 v=0
336480 On ch=6 n=97 v=100
336540 On ch=6 n=97 v=0
336720 On ch=6 n=96 v=100
336780 On ch=6 n=96 v=0
336960 On ch=6 n=96 v=100
337020 On ch=6 n=96 v=0
337040 On ch=6 n=97 v=100
337100 On ch=6 n=97 v=0
337120 On ch=6 n=97 v=100
337180 On ch=6 n=97 v=0
337200 On ch=6 n=97 v=100
337260 On ch=6 n=97 v=0
337280 On ch=6 n=97 v=100
337340 On ch=6 n=97 v=0
337360 On ch=6 n=97 v=100
337420 On ch=6 n=97 v=0
337440 On ch=6 n=96 v=100
337500 On ch=6 n=96 v=0
337920 On ch=6 n=105 v=0
337920 On ch=6 n=106 v=0
337920 On ch=6 n=105 v=100
337920 On ch=6 n=106 v=100
338880 On ch=6 n=96 v=100
338940 On ch=6 n=96 v=0
339120 On ch=6 n=96 v=100
339180 On ch=6 n=96 v=0
339360 On ch=6 n=97 v=100
339420 On ch=6 n=97 v=0
339600 On ch=6 n=96 v=100
339660 On ch=6 n=96 v=0
339840 On ch=6 n=97 v=100
339900 On ch=6 n=97 v=0
340080 On ch=6 n=96 v=100
340140 On ch=6 n=96 v=0
340320 On ch=6 n=97 v=100
340380 On ch=6 n=97 v=0
340560 On ch=6 n=96 v=100
340620 On ch=6 n=96 v=0
340800 On ch=6 n=105 v=0
340800 On ch=6 n=106 v=0
340800 On ch=6 n=106 v=100
340800 On ch=6 n=97 v=100
340920 On ch=6 n=97 v=0
341040 On ch=6 n=97 v=100
341160 On ch=6 n=97 v=0
341280 On ch=6 n=96 v=100
341340 On ch=6 n=96 v=0
341520 On ch=6 n=97 v=100
341640 On ch=6 n=97 v=0
341760 On ch=6 n=97 v=100
341880 On ch=6 n=97 v=0
342000 On ch=6 n=97 v=100
342120 On ch=6 n=97 v=0
342240 On ch=6 n=96 v=100
342300 On ch=6 n=96 v=0
342480 On ch=6 n=97 v=100
342600 On ch=6 n=97 v=0
342720 On ch=6 n=96 v=100
342780 On ch=6 n=96 v=0
342960 On ch=6 n=96 v=100
343020 On ch=6 n=96 v=0
343200 On ch=6 n=97 v=100
343320 On ch=6 n=97 v=0
343440 On ch=6 n=96 v=100
343500 On ch=6 n=96 v=0
343680 On ch=6 n=97 v=100
343800 On ch=6 n=97 v=0
343920 On ch=6 n=96 v=100
343980 On ch=6 n=96 v=0
344160 On ch=6 n=97 v=100
344280 On ch=6 n=97 v=0
344400 On ch=6 n=96 v=100
344460 On ch=6 n=96 v=0
344640 On ch=6 n=106 v=0
344640 On ch=6 n=105 v=100
344640 On ch=6 n=97 v=100
344760 On ch=6 n=97 v=0
344880 On ch=6 n=97 v=100
345000 On ch=6 n=97 v=0
345120 On ch=6 n=96 v=100
345180 On ch=6 n=96 v=0
345360 On ch=6 n=97 v=100
345480 On ch=6 n=97 v=0
345600 On ch=6 n=97 v=100
345720 On ch=6 n=97 v=0
345840 On ch=6 n=97 v=100
345960 On ch=6 n=97 v=0
346080 On ch=6 n=96 v=100
346140 On ch=6 n=96 v=0
346320 On ch=6 n=97 v=100
346440 On ch=6 n=97 v=0
346560 On ch=6 n=96 v=100
346620 On ch=6 n=96 v=0
346800 On ch=6 n=96 v=100
346860 On ch=6 n=96 v=0
347040 On ch=6 n=97 v=100
347160 On ch=6 n=97 v=0
347280 On ch=6 n=96 v=100
347340 On ch=6 n=96 v=0
347520 On ch=6 n=97 v=100
347640 On ch=6 n=97 v=0
347760 On ch=6 n=96 v=100
347820 On ch=6 n=96 v=0
348000 On ch=6 n=97 v=100
348120 On ch=6 n=97 v=0
348240 On ch=6 n=96 v=100
348300 On ch=6 n=96 v=0
348480 On ch=6 n=105 v=0
348480 On ch=6 n=106 v=100
348480 On ch=6 n=97 v=100
348600 On ch=6 n=97 v=0
348720 On ch=6 n=97 v=100
348840 On ch=6 n=97 v=0
348960 On ch=6 n=96 v=100
349020 On ch=6 n=96 v=0
349200 On ch=6 n=97 v=100
349320 On ch=6 n=97 v=0
349440 On ch=6 n=97 v=100
349560 On ch=6 n=97 v=0
349680 On ch=6 n=97 v=100
349800 On ch=6 n=97 v=0
349920 On ch=6 n=96 v=100
349980 On ch=6 n=96 v=0
350160 On ch=6 n=97 v=100
350280 On ch=6 n=97 v=0
350400 On ch=6 n=96 v=100
350460 On ch=6 n=96 v=0
350640 On ch=6 n=96 v=100
350700 On ch=6 n=96 v=0
350880 On ch=6 n=97 v=100
351000 On ch=6 n=97 v=0
351120 On ch=6 n=96 v=100
351180 On ch=6 n=96 v=0
351360 On ch=6 n=97 v=100
351480 On ch=6 n=97 v=0
351600 On ch=6 n=96 v=100
351660 On ch=6 n=96 v=0
351840 On ch=6 n=97 v=100
351960 On ch=6 n=97 v=0
352080 On ch=6 n=96 v=100
352140 On ch=6 n=96 v=0
352320 On ch=6 n=106 v=0
352320 On ch=6 n=105 v=100
352320 On ch=6 n=97 v=100
352440 On ch=6 n=97 v=0
352560 On ch=6 n=97 v=100
352680 On ch=6 n=97 v=0
352800 On ch=6 n=96 v=100
352860 On ch=6 n=96 v=0
353040 On ch=6 n=97 v=100
353160 On ch=6 n=97 v=0
353280 On ch=6 n=97 v=100
353400 On ch=6 n=97 v=0
353520 On ch=6 n=97 v=100
353640 On ch=6 n=97 v=0
353760 On ch=6 n=96 v=100
353820 On ch=6 n=96 v=0
354000 On ch=6 n=97 v=100
354120 On ch=6 n=97 v=0
354240 On ch=6 n=96 v=100
354300 On ch=6 n=96 v=0
354480 On ch=6 n=96 v=100
354540 On ch=6 n=96 v=0
354720 On ch=6 n=97 v=100
354840 On ch=6 n=97 v=0
354960 On ch=6 n=96 v=100
355020 On ch=6 n=96 v=0
355200 On ch=6 n=97 v=100
355320 On ch=6 n=97 v=0
355440 On ch=6 n=96 v=100
355500 On ch=6 n=96 v=0
355680 On ch=6 n=97 v=100
355800 On ch=6 n=97 v=0
355920 On ch=6 n=96 v=100
355980 On ch=6 n=96 v=0
356040 On ch=6 n=105 v=0
356040 On ch=6 n=105 v=100
356040 On ch=6 n=106 v=100
356160 On ch=6 n=96 v=100
356220 On ch=6 n=96 v=0
356400 On ch=6 n=97 v=100
356520 On ch=6 n=97 v=0
356640 On ch=6 n=96 v=100
356700 On ch=6 n=96 v=0
356880 On ch=6 n=97 v=100
357000 On ch=6 n=97 v=0
357120 On ch=6 n=96 v=100
357180 On ch=6 n=96 v=0
357360 On ch=6 n=97 v=100
357480 On ch=6 n=97 v=0
357600 On ch=6 n=96 v=100
357660 On ch=6 n=96 v=0
357840 On ch=6 n=97 v=100
357960 On ch=6 n=97 v=0
358080 On ch=6 n=96 v=100
358140 On ch=6 n=96 v=0
358320 On ch=6 n=96 v=100
358380 On ch=6 n=96 v=0
358560 On ch=6 n=97 v=100
358680 On ch=6 n=97 v=0
358800 On ch=6 n=96 v=100
358860 On ch=6 n=96 v=0
359040 On ch=6 n=97 v=100
359160 On ch=6 n=97 v=0
359280 On ch=6 n=96 v=100
359340 On ch=6 n=96 v=0
359520 On ch=6 n=97 v=100
359640 On ch=6 n=97 v=0
359760 On ch=6 n=96 v=100
359820 On ch=6 n=96 v=0
359880 On ch=6 n=105 v=0
359880 On ch=6 n=106 v=0
359880 On ch=6 n=106 v=100
360000 On ch=6 n=96 v=100
360060 On ch=6 n=96 v=0
360240 On ch=6 n=97 v=100
360360 On ch=6 n=97 v=0
360480 On ch=6 n=96 v=100
360540 On ch=6 n=96 v=0
360720 On ch=6 n=97 v=100
360840 On ch=6 n=97 v=0
360960 On ch=6 n=96 v=100
361020 On ch=6 n=96 v=0
361200 On ch=6 n=97 v=100
361320 On ch=6 n=97 v=0
361440 On ch=6 n=96 v=100
361500 On ch=6 n=96 v=0
361680 On ch=6 n=97 v=100
361800 On ch=6 n=97 v=0
361920 On ch=6 n=96 v=100
361980 On ch=6 n=96 v=0
362160 On ch=6 n=96 v=100
362220 On ch=6 n=96 v=0
362400 On ch=6 n=97 v=100
362520 On ch=6 n=97 v=0
362640 On ch=6 n=96 v=100
362700 On ch=6 n=96 v=0
362880 On ch=6 n=97 v=100
363000 On ch=6 n=97 v=0
363120 On ch=6 n=96 v=100
363180 On ch=6 n=96 v=0
363360 On ch=6 n=97 v=100
363480 On ch=6 n=97 v=0
363600 On ch=6 n=96 v=100
363660 On ch=6 n=96 v=0
363840 On ch=6 n=106 v=0
363840 On ch=6 n=97 v=100
363840 On ch=6 n=105 v=100
363960 On ch=6 n=97 v=0
364080 On ch=6 n=97 v=100
364200 On ch=6 n=97 v=0
364320 On ch=6 n=96 v=100
364380 On ch=6 n=96 v=0
364560 On ch=6 n=97 v=100
364680 On ch=6 n=97 v=0
364800 On ch=6 n=97 v=100
364920 On ch=6 n=97 v=0
365040 On ch=6 n=97 v=100
365160 On ch=6 n=97 v=0
365280 On ch=6 n=96 v=100
365340 On ch=6 n=96 v=0
365520 On ch=6 n=97 v=100
365640 On ch=6 n=97 v=0
365760 On ch=6 n=96 v=100
365820 On ch=6 n=96 v=0
366000 On ch=6 n=96 v=100
366060 On ch=6 n=96 v=0
366240 On ch=6 n=97 v=100
366360 On ch=6 n=97 v=0
366480 On ch=6 n=96 v=100
366540 On ch=6 n=96 v=0
366720 On ch=6 n=97 v=100
366840 On ch=6 n=97 v=0
366960 On ch=6 n=96 v=100
367020 On ch=6 n=96 v=0
367200 On ch=6 n=97 v=100
367320 On ch=6 n=97 v=0
367440 On ch=6 n=96 v=100
367500 On ch=6 n=96 v=0
367560 On ch=6 n=105 v=0
367560 On ch=6 n=105 v=100
367560 On ch=6 n=106 v=100
367680 On ch=6 n=96 v=100
367740 On ch=6 n=96 v=0
367920 On ch=6 n=97 v=100
368040 On ch=6 n=97 v=0
368160 On ch=6 n=96 v=100
368220 On ch=6 n=96 v=0
368400 On ch=6 n=97 v=100
368520 On ch=6 n=97 v=0
368640 On ch=6 n=96 v=100
368700 On ch=6 n=96 v=0
368880 On ch=6 n=97 v=100
369000 On ch=6 n=97 v=0
369120 On ch=6 n=96 v=100
369180 On ch=6 n=96 v=0
369360 On ch=6 n=97 v=100
369480 On ch=6 n=97 v=0
369600 On ch=6 n=96 v=100
369660 On ch=6 n=96 v=0
369840 On ch=6 n=97 v=100
369960 On ch=6 n=97 v=0
370080 On ch=6 n=96 v=100
370140 On ch=6 n=96 v=0
370320 On ch=6 n=97 v=100
370440 On ch=6 n=97 v=0
370560 On ch=6 n=96 v=100
370620 On ch=6 n=96 v=0
370800 On ch=6 n=97 v=100
370920 On ch=6 n=97 v=0
371040 On ch=6 n=96 v=100
371100 On ch=6 n=96 v=0
371280 On ch=6 n=97 v=100
371400 On ch=6 n=97 v=0
371520 On ch=6 n=105 v=0
371520 On ch=6 n=106 v=0
371520 On ch=6 n=97 v=100
371600 On ch=6 n=97 v=0
371600 On ch=6 n=97 v=100
371680 On ch=6 n=97 v=0
371680 On ch=6 n=97 v=100
371760 On ch=6 n=97 v=0
371760 On ch=6 n=97 v=100
371840 On ch=6 n=97 v=0
371840 On ch=6 n=97 v=100
371920 On ch=6 n=97 v=0
371920 On ch=6 n=97 v=100
372000 On ch=6 n=97 v=0
372000 On ch=6 n=97 v=100
372080 On ch=6 n=97 v=0
372080 On ch=6 n=97 v=100
372160 On ch=6 n=97 v=0
372160 On ch=6 n=97 v=100
372240 On ch=6 n=97 v=0
372240 On ch=6 n=97 v=100
372320 On ch=6 n=97 v=0
372320 On ch=6 n=97 v=100
372400 On ch=6 n=97 v=0
372400 On ch=6 n=97 v=100
372480 On ch=6 n=97 v=0
372480 On ch=6 n=97 v=100
372600 On ch=6 n=97 v=0
372600 On ch=6 n=97 v=100
372720 On ch=6 n=97 v=0
372720 On ch=6 n=97 v=100
372840 On ch=6 n=97 v=0
372840 On ch=6 n=97 v=100
372960 On ch=6 n=97 v=0
372960 On ch=6 n=97 v=100
373080 On ch=6 n=97 v=0
373080 On ch=6 n=97 v=100
373200 On ch=6 n=97 v=0
373200 Meta Text "[tambourine_end]"
373200 On ch=6 n=97 v=100
373320 On ch=6 n=97 v=0
373320 On ch=6 n=97 v=100
373440 On ch=6 n=97 v=0
373440 Meta Text "[idle]"
374880 Meta Text "[intense]"
375120 On ch=6 n=105 v=100
375120 On ch=6 n=106 v=100
375120 On ch=6 n=116 v=100
375238 Meta Lyric "Ah"
375238 On ch=6 n=77 v=73
377781 On ch=6 n=77 v=0
377967 Meta Lyric "hey"
377967 On ch=6 n=74 v=90
378529 On ch=6 n=74 v=0
378720 On ch=6 n=105 v=0
378720 On ch=6 n=106 v=0
378720 On ch=6 n=116 v=0
379200 Meta Text "[idle]"
385320 Meta Text "[play]"
385680 On ch=6 n=105 v=100
385906 Meta Lyric "It's"
385906 On ch=6 n=69 v=78
386038 On ch=6 n=69 v=0
386163 Meta Lyric "been"
386163 On ch=6 n=69 v=76
386319 On ch=6 n=69 v=0
386410 Meta Lyric "such"
386410 On ch=6 n=70 v=79
386576 On ch=6 n=70 v=0
386682 Meta Lyric "a"
386682 On ch=6 n=69 v=77
386871 On ch=6 n=69 v=0
386927 Meta Lyric "long"
386927 On ch=6 n=69 v=75
387473 On ch=6 n=69 v=0
387601 Meta Lyric "time"
387601 On ch=6 n=67 v=82
387850 On ch=6 n=67 v=0
387873 Meta Lyric "+"
387873 On ch=6 n=65 v=74
389001 On ch=6 n=65 v=0
389040 On ch=6 n=105 v=0
389280 On ch=6 n=116 v=100
389280 On ch=6 n=105 v=100
389498 Meta Lyric "I"
389498 On ch=6 n=60 v=64
389623 On ch=6 n=60 v=0
389727 Meta Lyric "think"
389727 On ch=6 n=68 v=96
389904 On ch=6 n=68 v=0
389974 Meta Lyric "I"
389974 On ch=6 n=67 v=88
390142 On ch=6 n=67 v=0
390263 Meta Lyric "should"
390263 On ch=6 n=67 v=75
390405 On ch=6 n=67 v=0
390475 Meta Lyric "be"
390475 On ch=6 n=65 v=92
390631 On ch=6 n=65 v=0
390733 Meta Lyric "go-"
390733 On ch=6 n=67 v=96
391034 On ch=6 n=67 v=0
391062 Meta Lyric "+"
391062 On ch=6 n=65 v=78
391195 On ch=6 n=65 v=0
391237 Meta Lyric "ing"
391237 On ch=6 n=65 v=76
392217 On ch=6 n=65 v=0
392403 Meta Lyric "yeah"
392403 On ch=6 n=62 v=96
392829 On ch=6 n=62 v=0
392856 Meta Lyric "+"
392856 On ch=6 n=63 v=58
392917 On ch=6 n=63 v=0
392931 Meta Lyric "+"
392931 On ch=6 n=62 v=86
393065 On ch=6 n=62 v=0
393092 Meta Lyric "+"
393092 On ch=6 n=60 v=77
393593 On ch=6 n=60 v=0
393720 On ch=6 n=116 v=0
393720 On ch=6 n=105 v=0
394080 On ch=6 n=106 v=100
394294 Meta Lyric "And"
394294 On ch=6 n=60 v=77
394416 On ch=6 n=60 v=0
394546 Meta Lyric "time"
394546 On ch=6 n=69 v=77
394909 On ch=6 n=69 v=0
395027 Meta Lyric "does-"
395027 On ch=6 n=72 v=72
395207 On ch=6 n=72 v=0
395295 Meta Lyric "n't"
395295 On ch=6 n=74 v=92
395416 On ch=6 n=74 v=0
395546 Meta Lyric "wait"
395546 On ch=6 n=68 v=79
395729 On ch=6 n=68 v=0
395862 Meta Lyric "for"
395862 On ch=6 n=67 v=79
396138 On ch=6 n=67 v=0
396233 Meta Lyric "me"
396233 On ch=6 n=68 v=77
396275 On ch=6 n=68 v=0
396283 Meta Lyric "+"
396283 On ch=6 n=67 v=77
396468 On ch=6 n=67 v=0
396481 Meta Lyric "+"
396481 On ch=6 n=65 v=70
396579 On ch=6 n=65 v=0
396593 Meta Lyric "+"
396593 On ch=6 n=62 v=70
396789 On ch=6 n=62 v=0
396960 On ch=6 n=106 v=0
397080 On ch=6 n=106 v=100
397225 Meta Lyric "It"
397225 On ch=6 n=60 v=78
397321 On ch=6 n=60 v=0
397436 Meta Lyric "keeps"
397436 On ch=6 n=62 v=88
397584 On ch=6 n=62 v=0
397684 Meta Lyric "on"
397684 On ch=6 n=65 v=77
398028 On ch=6 n=65 v=0
398183 Meta Lyric "roll-"
398183 On ch=6 n=67 v=86
399060 On ch=6 n=67 v=0
399134 Meta Lyric "ing"
399134 On ch=6 n=69 v=72
399218 On ch=6 n=69 v=0
399239 Meta Lyric "+"
399239 On ch=6 n=67 v=78
399359 On ch=6 n=67 v=0
399380 Meta Lyric "+"
399380 On ch=6 n=65 v=78
401156 On ch=6 n=65 v=0
401280 On ch=6 n=106 v=0
401520 On ch=6 n=105 v=100
401761 Meta Lyric "There's"
401761 On ch=6 n=62 v=77
401930 On ch=6 n=62 v=0
402022 Meta Lyric "a"
402022 On ch=6 n=65 v=76
402116 On ch=6 n=65 v=0
402259 Meta Lyric "long"
402259 On ch=6 n=69 v=75
402612 On ch=6 n=69 v=0
402717 Meta Lyric "road"
402717 On ch=6 n=67 v=78
402970 On ch=6 n=67 v=0
403026 Meta Lyric "+"
403026 On ch=6 n=65 v=77
404725 On ch=6 n=65 v=0
404880 On ch=6 n=105 v=0
404880 On ch=6 n=106 v=100
404896 Meta Lyric "I've"
404896 On ch=6 n=60 v=78
405019 On ch=6 n=60 v=0
405139 Meta Lyric "got-"
405139 On ch=6 n=62 v=86
405344 On ch=6 n=62 v=0
405377 Meta Lyric "ta"
405377 On ch=6 n=65 v=76
405495 On ch=6 n=65 v=0
405628 Meta Lyric "stay"
405628 On ch=6 n=65 v=77
405828 On ch=6 n=65 v=0
405846 Meta Lyric "in"
405846 On ch=6 n=67 v=78
405976 On ch=6 n=67 v=0
406074 Meta Lyric "time"
406074 On ch=6 n=67 v=88
406520 On ch=6 n=67 v=0
406593 Meta Lyric "with"
406593 On ch=6 n=65 v=82
407603 On ch=6 n=65 v=0
407758 Meta Lyric "yeah"
407758 On ch=6 n=67 v=78
408079 On ch=6 n=67 v=0
408107 Meta Lyric "+"
408107 On ch=6 n=69 v=86
408265 On ch=6 n=69 v=0
408480 On ch=6 n=106 v=0
408960 On ch=6 n=105 v=100
408960 On ch=6 n=106 v=100
409200 Meta Lyric "I've"
409200 On ch=6 n=60 v=79
409297 On ch=6 n=60 v=0
409432 Meta Lyric "got"
409432 On ch=6 n=65 v=84
409568 On ch=6 n=65 v=0
409688 Meta Lyric "to"
409688 On ch=6 n=65 v=82
409801 On ch=6 n=65 v=0
409952 Meta Lyric "keep"
409952 On ch=6 n=69 v=79
410326 On ch=6 n=69 v=0
410428 Meta Lyric "on"
410428 On ch=6 n=67 v=69
410635 On ch=6 n=67 v=0
410663 Meta Lyric "+"
410663 On ch=6 n=65 v=74
410769 On ch=6 n=65 v=0
410877 Meta Lyric "chas-"
410877 On ch=6 n=65 v=77
411082 On ch=6 n=65 v=0
411105 Meta Lyric "in'"
411105 On ch=6 n=65 v=78
411328 On ch=6 n=65 v=0
411385 Meta Lyric "that"
411385 On ch=6 n=65 v=72
411528 On ch=6 n=65 v=0
411642 Meta Lyric "dream"
411642 On ch=6 n=67 v=82
411994 On ch=6 n=67 v=0
412012 Meta Lyric "+"
412012 On ch=6 n=65 v=77
412243 On ch=6 n=65 v=0
412320 On ch=6 n=105 v=0
412320 On ch=6 n=106 v=0
412440 On ch=6 n=105 v=100
412440 On ch=6 n=106 v=100
412440 On ch=6 n=116 v=100
412558 Meta Lyric "Though"
412558 On ch=6 n=60 v=79
412714 On ch=6 n=60 v=0
412749 Meta Lyric "I"
412749 On ch=6 n=69 v=71
412965 On ch=6 n=69 v=0
413027 Meta Lyric "may"
413027 On ch=6 n=69 v=72
413223 On ch=6 n=69 v=0
413268 Meta Lyric "nev-"
413268 On ch=6 n=69 v=82
413458 On ch=6 n=69 v=0
413506 Meta Lyric "er"
413506 On ch=6 n=69 v=78
413664 On ch=6 n=69 v=0
413799 Meta Lyric "find"
413799 On ch=6 n=69 v=79
414504 On ch=6 n=69 v=0
414519 Meta Text "+"
414519 On ch=6 n=67 v=76
414677 On ch=6 n=67 v=0
414749 Meta Lyric "it"
414749 On ch=6 n=67 v=113
415774 On ch=6 n=67 v=0
415800 Meta Text "[mellow]"
415920 On ch=6 n=105 v=0
415920 On ch=6 n=106 v=0
415920 On ch=6 n=116 v=0
416160 On ch=6 n=105 v=100
416160 On ch=6 n=106 v=100
416372 Meta Lyric "I'm"
416372 On ch=6 n=60 v=77
416592 On ch=6 n=60 v=0
416647 Meta Lyric "al-"
416647 On ch=6 n=64 v=77
416852 On ch=6 n=64 v=0
416870 Meta Lyric "ways"
416870 On ch=6 n=64 v=73
417055 On ch=6 n=64 v=0
417153 Meta Lyric "just"
417153 On ch=6 n=65 v=55
417307 On ch=6 n=65 v=0
417420 Meta Lyric "be-"
417420 On ch=6 n=64 v=70
417579 On ch=6 n=64 v=0
417599 Meta Lyric "hind"
417599 On ch=6 n=64 v=78
418028 On ch=6 n=64 v=0
418073 Meta Lyric "+"
418073 On ch=6 n=65 v=65
418232 On ch=6 n=65 v=0
418311 Meta Lyric "it"
418311 On ch=6 n=62 v=82
418765 On ch=6 n=62 v=0
418787 Meta Lyric "+"
418787 On ch=6 n=60 v=73
419203 On ch=6 n=60 v=0
419249 Meta Lyric "+"
419249 On ch=6 n=69 v=88
420943 On ch=6 n=69 v=0
421200 On ch=6 n=105 v=0
421200 On ch=6 n=106 v=0
421440 Meta Text "[clap_start]"
428880 Meta Text "[clap_end]"
430080 On ch=6 n=105 v=100
430322 Meta Lyric "I'm"
430322 On ch=6 n=62 v=92
430446 On ch=6 n=62 v=0
430558 Meta Lyric "just"
430558 On ch=6 n=65 v=78
430704 On ch=6 n=65 v=0
430828 Meta Lyric "+"
430828 On ch=6 n=62 v=75
431027 On ch=6 n=62 v=0
431052 Meta Lyric "mov-"
431052 On ch=6 n=69 v=78
431265 On ch=6 n=69 v=0
431294 Meta Lyric "in'"
431294 On ch=6 n=69 v=78
431491 On ch=6 n=69 v=0
431526 Meta Lyric "on"
431526 On ch=6 n=67 v=74
431711 On ch=6 n=67 v=0
431752 Meta Lyric "+"
431752 On ch=6 n=65 v=84
432526 On ch=6 n=65 v=0
432554 Meta Lyric "ah"
432554 On ch=6 n=62 v=100
432792 On ch=6 n=62 v=0
432960 On ch=6 n=105 v=0
433560 Meta Text "[intense]"
433920 On ch=6 n=106 v=100
434158 Meta Lyric "Eh"
434158 On ch=6 n=69 v=72
434283 On ch=6 n=69 v=0
434390 Meta Lyric "+"
434390 On ch=6 n=70 v=96
435524 On ch=6 n=70 v=0
435599 Meta Lyric "just"
435599 On ch=6 n=70 v=96
435712 On ch=6 n=70 v=0
435725 Meta Lyric "+"
435725 On ch=6 n=68 v=74
435810 On ch=6 n=68 v=0
435841 Meta Lyric "mov-"
435841 On ch=6 n=72 v=98
436045 On ch=6 n=72 v=0
436070 Meta Lyric "in'"
436070 On ch=6 n=72 v=79
436166 On ch=6 n=72 v=0
436193 Meta Lyric "on"
436193 On ch=6 n=70 v=102
436421 On ch=6 n=70 v=0
436456 Meta Lyric "+"
436456 On ch=6 n=68 v=102
436905 On ch=6 n=68 v=0
436941 Meta Lyric "+"
436941 On ch=6 n=69 v=74
437086 On ch=6 n=69 v=0
437160 On ch=6 n=106 v=0
437280 On ch=6 n=106 v=100
437280 On ch=6 n=105 v=100
437280 On ch=6 n=116 v=100
437341 Meta Lyric "Ah"
437341 On ch=6 n=76 v=65
437762 On ch=6 n=76 v=0
438179 Meta Lyric "+"
438179 On ch=6 n=77 v=65
439294 On ch=6 n=77 v=0
439419 Meta Lyric "just"
439419 On ch=6 n=77 v=74
439557 On ch=6 n=77 v=0
439678 Meta Lyric "tak-"
439678 On ch=6 n=71 v=80
439878 On ch=6 n=71 v=0
439945 Meta Lyric "in'"
439945 On ch=6 n=71 v=86
440121 On ch=6 n=71 v=0
440177 Meta Lyric "my"
440177 On ch=6 n=72 v=78
440330 On ch=6 n=72 v=0
440428 Meta Lyric "time"
440428 On ch=6 n=70 v=92
440688 On ch=6 n=70 v=0
440722 Meta Lyric "+"
440722 On ch=6 n=68 v=107
440838 On ch=6 n=68 v=0
440859 Meta Lyric "+"
440859 On ch=6 n=65 v=107
441898 On ch=6 n=65 v=0
441960 On ch=6 n=106 v=0
441960 On ch=6 n=105 v=0
441960 On ch=6 n=116 v=0
442200 On ch=6 n=105 v=100
442200 On ch=6 n=106 v=100
442200 On ch=6 n=116 v=100
442309 Meta Lyric "Yeah"
442309 On ch=6 n=67 v=102
442710 On ch=6 n=67 v=0
442745 Meta Lyric "+"
442745 On ch=6 n=65 v=78
442849 On ch=6 n=65 v=0
442856 Meta Lyric "+"
442856 On ch=6 n=62 v=86
443528 On ch=6 n=62 v=0
443597 On ch=6 n=105 v=0
443597 On ch=6 n=106 v=0
443597 On ch=6 n=116 v=0
444480 Meta Text "[play]"
445543 On ch=6 n=105 v=100
445543 On ch=6 n=106 v=100
445633 Meta Lyric "Oh"
445633 On ch=6 n=65 v=78
446541 On ch=6 n=65 v=0
446594 Meta Lyric "you"
446594 On ch=6 n=63 v=79
446683 On ch=6 n=63 v=0
446730 Meta Lyric "know"
446730 On ch=6 n=65 v=79
446881 On ch=6 n=65 v=0
446902 Meta Lyric "I"
446902 On ch=6 n=63 v=74
447049 On ch=6 n=63 v=0
447106 Meta Lyric "wan-"
447106 On ch=6 n=65 v=88
447212 On ch=6 n=65 v=0
447229 Meta Lyric "na"
447229 On ch=6 n=63 v=74
447295 On ch=6 n=63 v=0
447371 Meta Lyric "get"
447371 On ch=6 n=68 v=92
447450 On ch=6 n=68 v=0
447466 Meta Lyric "on"
447466 On ch=6 n=68 v=100
447801 On ch=6 n=68 v=0
447904 Meta Lyric "home"
447904 On ch=6 n=65 v=113
448288 On ch=6 n=65 v=0
448320 On ch=6 n=105 v=0
448320 On ch=6 n=106 v=0
448440 On ch=6 n=106 v=100
448440 On ch=6 n=105 v=100
448564 Meta Lyric "Don't"
448564 On ch=6 n=69 v=76
448668 On ch=6 n=69 v=0
448854 Meta Lyric "talk"
448854 On ch=6 n=65 v=79
449190 On ch=6 n=65 v=0
449527 Meta Lyric "don't"
449527 On ch=6 n=69 v=79
449694 On ch=6 n=69 v=0
449820 Meta Lyric "stop"
449820 On ch=6 n=65 v=77
450173 On ch=6 n=65 v=0
450240 On ch=6 n=106 v=0
450240 On ch=6 n=105 v=0
450240 Meta Text "[intense]"
450360 On ch=6 n=105 v=100
450360 On ch=6 n=106 v=100
450476 Meta Lyric "Ah"
450476 On ch=6 n=77 v=92
451744 On ch=6 n=77 v=0
451860 Meta Lyric "ooh"
451860 On ch=6 n=79 v=76
452231 On ch=6 n=79 v=0
452275 Meta Lyric "+"
452275 On ch=6 n=74 v=96
452575 On ch=6 n=74 v=0
452645 Meta Lyric "+"
452645 On ch=6 n=77 v=77
453261 On ch=6 n=77 v=0
453600 On ch=6 n=105 v=0
453600 On ch=6 n=106 v=0
454080 On ch=6 n=105 v=100
454080 On ch=6 n=106 v=100
454294 Meta Lyric "Ow"
454294 On ch=6 n=77 v=79
454707 On ch=6 n=77 v=0
454785 Meta Lyric "just"
454785 On ch=6 n=67 v=74
454913 On ch=6 n=67 v=0
455015 Meta Lyric "tak-"
455015 On ch=6 n=68 v=92
455223 On ch=6 n=68 v=0
455293 Meta Lyric "in'"
455293 On ch=6 n=68 v=86
455467 On ch=6 n=68 v=0
455526 Meta Lyric "my"
455526 On ch=6 n=68 v=79
455677 On ch=6 n=68 v=0
455755 Meta Lyric "time"
455755 On ch=6 n=67 v=92
456038 On ch=6 n=67 v=0
456061 Meta Lyric "+"
456061 On ch=6 n=65 v=78
456647 On ch=6 n=65 v=0
456745 Meta Lyric "oh"
456745 On ch=6 n=67 v=92
457082 On ch=6 n=67 v=0
457107 Meta Lyric "+"
457107 On ch=6 n=65 v=74
457226 On ch=6 n=65 v=0
457243 Meta Lyric "+"
457243 On ch=6 n=62 v=82
457414 On ch=6 n=62 v=0
457560 On ch=6 n=105 v=0
457560 On ch=6 n=106 v=0
457920 On ch=6 n=106 v=100
457920 On ch=6 n=105 v=100
458166 Meta Lyric "Oh"
458166 On ch=6 n=72 v=92
458400 On ch=6 n=72 v=0
458424 Meta Lyric "+"
458424 On ch=6 n=70 v=79
458570 On ch=6 n=70 v=0
458635 Meta Lyric "just"
458635 On ch=6 n=70 v=77
458760 On ch=6 n=70 v=0
458905 Meta Lyric "tak-"
458905 On ch=6 n=72 v=102
459094 On ch=6 n=72 v=0
459183 Meta Lyric "in'"
459183 On ch=6 n=68 v=88
459327 On ch=6 n=68 v=0
459402 Meta Lyric "my"
459402 On ch=6 n=69 v=102
459555 On ch=6 n=69 v=0
459623 Meta Lyric "time"
459623 On ch=6 n=67 v=76
459896 On ch=6 n=67 v=0
459931 Meta Text "+"
459931 On ch=6 n=65 v=76
460494 On ch=6 n=65 v=0
460578 Meta Lyric "oh"
460578 On ch=6 n=67 v=77
460933 On ch=6 n=67 v=0
460970 Meta Lyric "+"
460970 On ch=6 n=69 v=88
461031 On ch=6 n=69 v=0
461038 Meta Lyric "+"
461038 On ch=6 n=67 v=92
461147 On ch=6 n=67 v=0
461149 Meta Lyric "+"
461149 On ch=6 n=65 v=78
461818 On ch=6 n=65 v=0
462000 On ch=6 n=106 v=0
462000 On ch=6 n=105 v=0
463440 On ch=6 n=106 v=100
463440 On ch=6 n=105 v=100
463671 Meta Lyric "Just"
463671 On ch=6 n=68 v=66
463808 On ch=6 n=68 v=0
463897 Meta Lyric "out-"
463897 On ch=6 n=68 v=67
464046 On ch=6 n=68 v=0
464172 Meta Lyric "side"
464172 On ch=6 n=67 v=78
464393 On ch=6 n=67 v=0
464423 Meta Lyric "of"
464423 On ch=6 n=65 v=75
464528 On ch=6 n=65 v=0
465560 Meta Lyric "just"
465560 On ch=6 n=70 v=79
465728 On ch=6 n=70 v=0
465801 Meta Lyric "out-"
465801 On ch=6 n=70 v=88
465963 On ch=6 n=70 v=0
466084 Meta Lyric "side"
466084 On ch=6 n=70 v=102
466271 On ch=6 n=70 v=0
466304 Meta Lyric "of"
466304 On ch=6 n=68 v=63
466411 On ch=6 n=68 v=0
466429 Meta Lyric "your"
466429 On ch=6 n=72 v=84
466588 On ch=6 n=72 v=0
466702 Meta Lyric "front"
466702 On ch=6 n=69 v=79
466889 On ch=6 n=69 v=0
467007 Meta Lyric "door"
467007 On ch=6 n=65 v=79
467514 On ch=6 n=65 v=0
467592 Meta Lyric "+"
467592 On ch=6 n=63 v=92
467737 On ch=6 n=63 v=0
467880 Meta Text "[idle]"
468000 On ch=6 n=106 v=0
468000 On ch=6 n=105 v=0
473280 Meta Text "[intense]"
495000 Meta Text "[idle_realtime]"
495000 Meta TrkEnd
TrkEnd
MTrk
0 Meta TrkName "EVENTS"
3840 Meta Text "[section foreplay_intro]"
6720 Meta Text "[music_start]"
19200 Meta Text "[crowd_mellow]"
26880 Meta Text "[section quiet_part_1]"
44160 Meta Text "[crowd_intense]"
46080 Meta Text "[section loud_part_1]"
46080 Meta Text "[crowd_intense]"
61440 Meta Text "[crowd_normal]"
69120 Meta Text "[crowd_intense]"
76800 Meta Text "[crowd_mellow]"
76800 Meta Text "[crowd_noclap]"
80640 Meta Text "[section quiet_part_2]"
90240 Meta Text "[crowd_intense]"
92160 Meta Text "[section loud_part_2]"
92160 Meta Text "[crowd_clap]"
107520 Meta Text "[crowd_normal]"
115200 Meta Text "[crowd_intense]"
122880 Meta Text "[crowd_mellow]"
125280 Meta Text "[crowd_noclap]"
126720 Meta Text "[section spacey]"
141120 Meta Text "[section very_spacey]"
141120 Meta Text "[crowd_realtime]"
160320 Meta Text "[section longtome_intro]"
168000 Meta Text "[section gtr_lead_1]"
168000 Meta Text "[crowd_normal]"
168000 Meta Text "[crowd_clap]"
183360 Meta Text "[section verse_1a]"
197520 Meta Text "[section verse_1b]"
210240 Meta Text "[crowd_intense]"
217920 Meta Text "[section chorus_1a]"
217920 Meta Text "[crowd_mellow]"
239040 Meta Text "[section chorus_1b]"
240960 Meta Text "[crowd_intense]"
250320 Meta Text "[section gtr_lead_2]"
264000 Meta Text "[crowd_normal]"
265920 Meta Text "[section verse_2a]"
280080 Meta Text "[section verse_2b]"
292800 Meta Text "[crowd_intense]"
300480 Meta Text "[section chorus_2a]"
300480 Meta Text "[crowd_mellow]"
321600 Meta Text "[section chorus_2b]"
323520 Meta Text "[crowd_intense]"
333120 Meta Text "[section gtr_solo_a]"
340800 Meta Text "[section gtr_solo_b]"
348480 Meta Text "[section gtr_solo_c]"
356160 Meta Text "[section gtr_solo_d]"
363840 Meta Text "[section gtr_solo_e]"
371520 Meta Text "[section break]"
371520 Meta Text "[crowd_normal]"
386880 Meta Text "[section verse_3a]"
401040 Meta Text "[section verse_3b]"
413760 Meta Text "[crowd_intense]"
421440 Meta Text "[section outro_a]"
421440 Meta Text "[crowd_intense]"
421440 Meta Text "[crowd_normal]"
429120 Meta Text "[crowd_intense]"
444480 Meta Text "[section outro_b]"
459840 Meta Text "[section outro_c]"
471360 Meta Text "[section big_rock_ending]"
471360 Meta Text "[crowd_noclap]"
472080 Meta Text "[coda]"
472320 Meta Text "[music_end]"
498720 Meta Text "[end]"
498720 Meta TrkEnd
TrkEnd
MTrk
0 Meta TrkName "VENUE"
0 Meta Text "[verse]"
0 Meta Text "[lighting (silhouettes)]"
0 On ch=7 n=60 v=100
0 On ch=7 n=61 v=100
0 On ch=7 n=62 v=100
0 On ch=7 n=63 v=100
0 On ch=7 n=64 v=100
0 On ch=7 n=70 v=100
120 On ch=7 n=60 v=0
120 On ch=7 n=70 v=0
3600 On ch=7 n=61 v=0
3600 On ch=7 n=62 v=0
3600 On ch=7 n=63 v=0
3600 On ch=7 n=64 v=0
3600 On ch=7 n=99 v=100
3720 On ch=7 n=99 v=0
3840 On ch=7 n=60 v=100
3840 On ch=7 n=71 v=100
3840 On ch=7 n=70 v=100
3840 Meta Text "[FogOn]"
3960 On ch=7 n=60 v=0
3960 On ch=7 n=71 v=0
3960 On ch=7 n=70 v=0
17280 On ch=7 n=38 v=100
18240 Meta Text "[do_directed_cut directed_drums_kd]"
19200 Meta Text "[lighting (flare_fast)]"
19680 Meta Text "[lighting (searchlights)]"
21120 On ch=7 n=38 v=0
21120 Meta Text "[lighting (flare_fast)]"
21120 Meta Text "[do_directed_cut directed_bass]"
21120 On ch=7 n=64 v=100
21600 Meta Text "[lighting (searchlights)]"
22080 On ch=7 n=96 v=100
22200 On ch=7 n=96 v=0
23040 On ch=7 n=64 v=0
23040 Meta Text "[lighting (flare_fast)]"
23040 Meta Text "[do_directed_cut directed_all_lt]"
24960 Meta Text "[lighting (blackout_slow)]"
26880 Meta Text "[lighting (silhouettes_spot)]"
26880 On ch=7 n=60 v=100
26880 On ch=7 n=62 v=100
26880 On ch=7 n=72 v=100
26880 On ch=7 n=38 v=100
26960 On ch=7 n=60 v=0
26960 On ch=7 n=62 v=0
26960 On ch=7 n=72 v=0
34560 Meta Text "[FogOff]"
37560 On ch=7 n=37 v=100
38400 On ch=7 n=60 v=100
38400 On ch=7 n=61 v=100
38400 On ch=7 n=70 v=100
38480 On ch=7 n=60 v=0
38480 On ch=7 n=61 v=0
38480 On ch=7 n=70 v=0
43920 On ch=7 n=60 v=100
43920 On ch=7 n=62 v=100
43920 On ch=7 n=72 v=100
44040 On ch=7 n=60 v=0
44040 On ch=7 n=62 v=0
44040 On ch=7 n=72 v=0
45840 On ch=7 n=60 v=100
45840 On ch=7 n=71 v=100
45840 On ch=7 n=70 v=100
45960 On ch=7 n=38 v=0
45960 On ch=7 n=37 v=0
45960 On ch=7 n=60 v=0
45960 On ch=7 n=71 v=0
45960 On ch=7 n=70 v=0
46080 Meta Text "[lighting (loop_warm)]"
53760 Meta Text "[do_directed_cut directed_drums_lt]"
53760 On ch=7 n=63 v=100
61440 Meta Text "[lighting (flare_fast)]"
61920 Meta Text "[lighting (loop_warm)]"
62880 Meta Text "[lighting (flare_fast)]"
63360 Meta Text "[lighting (loop_warm)]"
63840 On ch=7 n=63 v=0
64800 Meta Text "[lighting (flare_fast)]"
64800 On ch=7 n=60 v=100
64800 On ch=7 n=61 v=100
64880 On ch=7 n=60 v=0
64880 On ch=7 n=61 v=0
65280 Meta Text "[lighting (loop_warm)]"
65280 Meta Text "[FogOn]"
66720 Meta Text "[lighting (flare_fast)]"
67200 Meta Text "[lighting (loop_warm)]"
68640 Meta Text "[lighting (flare_fast)]"
69120 Meta Text "[lighting (loop_warm)]"
69120 On ch=7 n=60 v=100
69120 On ch=7 n=63 v=100
69120 On ch=7 n=72 v=100
69240 On ch=7 n=60 v=0
69240 On ch=7 n=63 v=0
69240 On ch=7 n=72 v=0
72960 On ch=7 n=60 v=100
72960 On ch=7 n=61 v=100
72960 On ch=7 n=72 v=100
73080 On ch=7 n=60 v=0
73080 On ch=7 n=61 v=0
73080 On ch=7 n=72 v=0
76560 On ch=7 n=60 v=100
76560 On ch=7 n=71 v=100
76560 On ch=7 n=70 v=100
76680 On ch=7 n=60 v=0
76680 On ch=7 n=71 v=0
76680 On ch=7 n=70 v=0
76800 Meta Text "[lighting (flare_fast)]"
78720 Meta Text "[lighting (blackout_slow)]"
80640 Meta Text "[lighting (searchlights)]"
83520 On ch=7 n=99 v=100
83640 On ch=7 n=99 v=0
84480 On ch=7 n=60 v=100
84480 On ch=7 n=61 v=100
84480 On ch=7 n=72 v=100
84480 On ch=7 n=70 v=100
84600 On ch=7 n=60 v=0
84600 On ch=7 n=61 v=0
84600 On ch=7 n=72 v=0
84600 On ch=7 n=70 v=0
84960 On ch=7 n=96 v=100
85080 On ch=7 n=96 v=0
92160 Meta Text "[lighting (loop_warm)]"
92160 On ch=7 n=60 v=100
92160 On ch=7 n=61 v=100
92160 On ch=7 n=63 v=100
92160 On ch=7 n=64 v=100
92160 On ch=7 n=70 v=100
92280 On ch=7 n=60 v=0
92280 On ch=7 n=61 v=0
92280 On ch=7 n=63 v=0
92280 On ch=7 n=64 v=0
92280 On ch=7 n=70 v=0
96000 Meta Text "[FogOff]"
99840 On ch=7 n=60 v=100
99840 On ch=7 n=64 v=100
99920 On ch=7 n=60 v=0
99920 On ch=7 n=64 v=0
107520 Meta Text "[lighting (flare_fast)]"
107520 On ch=7 n=60 v=100
107520 On ch=7 n=62 v=100
107520 On ch=7 n=72 v=100
107640 On ch=7 n=60 v=0
107640 On ch=7 n=62 v=0
107640 On ch=7 n=72 v=0
108000 Meta Text "[lighting (loop_warm)]"
108960 Meta Text "[lighting (flare_fast)]"
109440 Meta Text "[lighting (loop_warm)]"
110880 Meta Text "[lighting (flare_fast)]"
111360 Meta Text "[lighting (loop_warm)]"
112800 Meta Text "[lighting (flare_fast)]"
113280 Meta Text "[lighting (loop_warm)]"
114720 Meta Text "[lighting (flare_fast)]"
115200 Meta Text "[lighting (loop_warm)]"
115200 On ch=7 n=60 v=100
115200 On ch=7 n=71 v=100
115200 On ch=7 n=70 v=100
115320 On ch=7 n=60 v=0
115320 On ch=7 n=71 v=0
115320 On ch=7 n=70 v=0
122400 On ch=7 n=99 v=100
122520 On ch=7 n=99 v=0
122880 Meta Text "[lighting (flare_fast)]"
122880 On ch=7 n=60 v=100
122880 On ch=7 n=62 v=100
122880 On ch=7 n=72 v=100
122880 On ch=7 n=38 v=100
123000 On ch=7 n=60 v=0
123000 On ch=7 n=62 v=0
123000 On ch=7 n=72 v=0
123720 On ch=7 n=96 v=100
123840 On ch=7 n=96 v=0
125520 Meta Text "[lighting (blackout_slow)]"
126480 On ch=7 n=38 v=0
126480 Meta Text "[do_directed_cut directed_all_lt]"
126720 Meta Text "[lighting (flare_fast)]"
126720 Meta Text "[FogOn]"
127440 Meta Text "[lighting (silhouettes)]"
129120 Meta Text "[lighting (flare_fast)]"
129840 Meta Text "[lighting (silhouettes)]"
131520 Meta Text "[lighting (flare_fast)]"
132240 Meta Text "[lighting (silhouettes)]"
133680 On ch=7 n=60 v=100
133680 On ch=7 n=64 v=100
133680 On ch=7 n=63 v=100
133680 On ch=7 n=61 v=100
133680 On ch=7 n=62 v=100
133680 On ch=7 n=70 v=100
133760 On ch=7 n=61 v=0
133800 On ch=7 n=60 v=0
133800 On ch=7 n=64 v=0
133800 On ch=7 n=63 v=0
133800 On ch=7 n=62 v=0
133800 On ch=7 n=70 v=0
133920 Meta Text "[lighting (flare_fast)]"
134640 Meta Text "[lighting (silhouettes)]"
136320 Meta Text "[lighting (flare_fast)]"
137040 Meta Text "[lighting (silhouettes)]"
140760 Meta Text "[lighting (blackout_fast)]"
141120 On ch=7 n=60 v=100
141120 On ch=7 n=71 v=100
141120 On ch=7 n=70 v=100
141120 Meta Text "[FogOff]"
141240 On ch=7 n=60 v=0
141240 On ch=7 n=71 v=0
141240 On ch=7 n=70 v=0
144000 On ch=7 n=38 v=100
146880 On ch=7 n=39 v=100
149760 On ch=7 n=60 v=100
149760 On ch=7 n=61 v=100
149760 On ch=7 n=70 v=100
149760 On ch=7 n=37 v=100
149880 On ch=7 n=60 v=0
149880 On ch=7 n=61 v=0
149880 On ch=7 n=70 v=0
152640 On ch=7 n=60 v=100
152640 On ch=7 n=64 v=100
152640 On ch=7 n=40 v=100
152720 On ch=7 n=60 v=0
152720 On ch=7 n=64 v=0
155520 On ch=7 n=63 v=100
155520 On ch=7 n=60 v=100
155640 On ch=7 n=60 v=0
161640 On ch=7 n=63 v=0
161760 On ch=7 n=60 v=100
161760 On ch=7 n=61 v=100
161760 On ch=7 n=72 v=100
161760 On ch=7 n=70 v=100
161840 On ch=7 n=60 v=0
161840 On ch=7 n=61 v=0
161840 On ch=7 n=72 v=0
161840 On ch=7 n=70 v=0
166080 On ch=7 n=60 v=100
166080 On ch=7 n=62 v=100
166080 On ch=7 n=72 v=100
166200 On ch=7 n=60 v=0
166200 On ch=7 n=62 v=0
166200 On ch=7 n=72 v=0
168000 On ch=7 n=38 v=0
168000 On ch=7 n=37 v=0
168000 On ch=7 n=40 v=0
168000 Meta Text "[lighting (flare_fast)]"
168000 Meta Text "[do_directed_cut directed_all]"
168000 Meta Text "[bonusfx]"
168000 Meta Text "[FogOn]"
168480 Meta Text "[lighting (manual_warm)]"
170400 On ch=7 n=60 v=100
170400 On ch=7 n=63 v=100
170400 On ch=7 n=72 v=100
170400 On ch=7 n=70 v=100
170520 On ch=7 n=60 v=0
170520 On ch=7 n=72 v=0
170520 On ch=7 n=70 v=0
175440 On ch=7 n=63 v=0
175680 On ch=7 n=60 v=100
175680 On ch=7 n=63 v=100
175680 On ch=7 n=72 v=100
175800 On ch=7 n=60 v=0
175800 On ch=7 n=63 v=0
175800 On ch=7 n=72 v=0
182160 On ch=7 n=39 v=0
182160 On ch=7 n=60 v=100
182160 On ch=7 n=64 v=100
182160 On ch=7 n=72 v=100
182160 On ch=7 n=70 v=100
182280 On ch=7 n=60 v=0
182280 On ch=7 n=64 v=0
182280 On ch=7 n=72 v=0
182280 On ch=7 n=70 v=0
183360 Meta Text "[FogOff]"
189120 On ch=7 n=60 v=100
189120 On ch=7 n=61 v=100
189120 On ch=7 n=72 v=100
189120 On ch=7 n=70 v=100
189240 On ch=7 n=60 v=0
189240 On ch=7 n=61 v=0
189240 On ch=7 n=72 v=0
189240 On ch=7 n=70 v=0
191040 On ch=7 n=60 v=100
191040 On ch=7 n=64 v=100
191040 On ch=7 n=72 v=100
191040 On ch=7 n=70 v=100
191160 On ch=7 n=60 v=0
191160 On ch=7 n=64 v=0
191160 On ch=7 n=72 v=0
191160 On ch=7 n=70 v=0
197280 On ch=7 n=60 v=100
197280 On ch=7 n=71 v=100
197280 On ch=7 n=70 v=100
197400 On ch=7 n=60 v=0
197400 On ch=7 n=71 v=0
197400 On ch=7 n=70 v=0
197760 On ch=7 n=48 v=100
197880 On ch=7 n=48 v=0
198240 On ch=7 n=48 v=100
198360 On ch=7 n=48 v=0
198720 On ch=7 n=48 v=100
198720 On ch=7 n=60 v=100
198720 On ch=7 n=64 v=100
198720 On ch=7 n=70 v=100
198720 On ch=7 n=72 v=100
198720 Meta Text "[FogOn]"
198840 On ch=7 n=48 v=0
198840 On ch=7 n=60 v=0
198840 On ch=7 n=64 v=0
198840 On ch=7 n=70 v=0
198840 On ch=7 n=72 v=0
204480 On ch=7 n=60 v=100
204480 On ch=7 n=62 v=100
204480 On ch=7 n=72 v=100
204600 On ch=7 n=60 v=0
204600 On ch=7 n=62 v=0
204600 On ch=7 n=72 v=0
205440 On ch=7 n=48 v=100
205560 On ch=7 n=48 v=0
205920 On ch=7 n=48 v=100
206040 On ch=7 n=48 v=0
206400 On ch=7 n=48 v=100
206520 On ch=7 n=48 v=0
208800 On ch=7 n=60 v=100
208800 On ch=7 n=64 v=100
208800 On ch=7 n=72 v=100
208800 On ch=7 n=70 v=100
208920 On ch=7 n=60 v=0
208920 On ch=7 n=64 v=0
208920 On ch=7 n=72 v=0
208920 On ch=7 n=70 v=0
210240 On ch=7 n=48 v=100
210360 On ch=7 n=48 v=0
212880 On ch=7 n=87 v=100
214080 Meta Text "[FogOff]"
214560 On ch=7 n=64 v=100
214560 On ch=7 n=72 v=100
214680 Meta Text "[do_directed_cut directed_duo_guitar]"
217680 On ch=7 n=87 v=0
217680 On ch=7 n=99 v=100
217800 On ch=7 n=64 v=0
217800 On ch=7 n=72 v=0
217800 On ch=7 n=99 v=0
217920 Meta Text "[lighting (flare_fast)]"
217920 Meta Text "[do_directed_cut directed_guitar_cls]"
217920 Meta Text "[chorus]"
218040 Meta Text "[lighting (blackout_fast)]"
218160 Meta Text "[lighting (flare_fast)]"
218280 Meta Text "[lighting (searchlights)]"
221760 On ch=7 n=60 v=100
221760 On ch=7 n=63 v=100
221760 On ch=7 n=72 v=100
221760 On ch=7 n=70 v=100
221880 On ch=7 n=60 v=0
221880 On ch=7 n=63 v=0
221880 On ch=7 n=72 v=0
221880 On ch=7 n=70 v=0
225120 On ch=7 n=96 v=100
225240 On ch=7 n=96 v=0
226560 On ch=7 n=60 v=100
226560 On ch=7 n=64 v=100
226560 On ch=7 n=72 v=100
226560 On ch=7 n=70 v=100
226680 On ch=7 n=60 v=0
226680 On ch=7 n=64 v=0
226680 On ch=7 n=72 v=0
226680 On ch=7 n=70 v=0
229440 Meta Text "[FogOn]"
233280 On ch=7 n=60 v=100
233280 On ch=7 n=64 v=100
233280 On ch=7 n=63 v=100
233280 On ch=7 n=70 v=100
233400 On ch=7 n=60 v=0
233400 On ch=7 n=64 v=0
233400 On ch=7 n=63 v=0
233400 On ch=7 n=70 v=0
239040 Meta Text "[do_directed_cut directed_bass_np]"
239040 On ch=7 n=62 v=100
239040 On ch=7 n=72 v=100
240960 Meta Text "[lighting (strobe_fast)]"
242520 On ch=7 n=62 v=0
242520 On ch=7 n=72 v=0
242640 On ch=7 n=60 v=100
242640 On ch=7 n=71 v=100
242640 On ch=7 n=70 v=100
242760 On ch=7 n=60 v=0
242760 On ch=7 n=71 v=0
242760 On ch=7 n=70 v=0
242880 Meta Text "[lighting (flare_fast)]"
243360 Meta Text "[lighting (manual_warm)]"
244800 Meta Text "[FogOff]"
246720 On ch=7 n=60 v=100
246720 On ch=7 n=63 v=100
246720 On ch=7 n=61 v=100
246720 On ch=7 n=70 v=100
246840 On ch=7 n=60 v=0
246840 On ch=7 n=63 v=0
246840 On ch=7 n=61 v=0
246840 On ch=7 n=70 v=0
250200 On ch=7 n=39 v=100
250560 Meta Text "[do_directed_cut directed_guitar]"
250560 On ch=7 n=63 v=100
252240 On ch=7 n=63 v=0
252480 On ch=7 n=60 v=100
252480 On ch=7 n=63 v=100
252480 On ch=7 n=72 v=100
252480 On ch=7 n=70 v=100
252600 On ch=7 n=60 v=0
252600 On ch=7 n=63 v=0
252600 On ch=7 n=72 v=0
252600 On ch=7 n=70 v=0
257760 On ch=7 n=99 v=100
257880 On ch=7 n=99 v=0
258240 Meta Text "[do_directed_cut directed_guitar_cls]"
260160 Meta Text "[FogOn]"
261840 On ch=7 n=96 v=100
261960 On ch=7 n=96 v=0
261960 On ch=7 n=60 v=100
261960 On ch=7 n=63 v=100
261960 On ch=7 n=72 v=100
262080 On ch=7 n=60 v=0
262080 On ch=7 n=63 v=0
262080 On ch=7 n=72 v=0
264000 On ch=7 n=60 v=100
264000 On ch=7 n=63 v=100
264000 On ch=7 n=64 v=100
264000 On ch=7 n=70 v=100
264000 Meta Text "[verse]"
264120 On ch=7 n=60 v=0
264120 On ch=7 n=63 v=0
264120 On ch=7 n=64 v=0
264120 On ch=7 n=70 v=0
266000 On ch=7 n=39 v=0
266160 Meta Text "[do_directed_cut directed_duo_bass]"
266160 On ch=7 n=85 v=100
266160 On ch=7 n=64 v=100
266160 On ch=7 n=72 v=100
266160 On ch=7 n=70 v=100
268560 On ch=7 n=85 v=0
271680 On ch=7 n=64 v=0
271680 On ch=7 n=72 v=0
271680 On ch=7 n=70 v=0
271680 On ch=7 n=60 v=100
271680 On ch=7 n=62 v=100
271680 On ch=7 n=72 v=100
271800 On ch=7 n=60 v=0
271800 On ch=7 n=62 v=0
271800 On ch=7 n=72 v=0
272640 On ch=7 n=60 v=100
272640 On ch=7 n=64 v=100
272640 On ch=7 n=73 v=100
272640 On ch=7 n=70 v=100
272760 On ch=7 n=60 v=0
272760 On ch=7 n=64 v=0
272760 On ch=7 n=73 v=0
272760 On ch=7 n=70 v=0
275520 Meta Text "[FogOff]"
276480 Meta Text "[do_directed_cut directed_vocals_cam]"
276480 On ch=7 n=64 v=100
280200 On ch=7 n=64 v=0
280320 On ch=7 n=48 v=100
280320 On ch=7 n=60 v=100
280320 On ch=7 n=62 v=100
280440 On ch=7 n=48 v=0
280440 On ch=7 n=60 v=0
280440 On ch=7 n=62 v=0
280800 On ch=7 n=48 v=100
280800 On ch=7 n=60 v=100
280800 On ch=7 n=61 v=100
280920 On ch=7 n=48 v=0
280920 On ch=7 n=60 v=0
280920 On ch=7 n=61 v=0
281280 On ch=7 n=48 v=100
281280 On ch=7 n=60 v=100
281280 On ch=7 n=64 v=100
281280 On ch=7 n=72 v=100
281400 On ch=7 n=48 v=0
281400 On ch=7 n=60 v=0
281400 On ch=7 n=64 v=0
281400 On ch=7 n=72 v=0
288000 On ch=7 n=48 v=100
288000 On ch=7 n=60 v=100
288000 On ch=7 n=72 v=100
288000 On ch=7 n=70 v=100
288000 On ch=7 n=63 v=100
288120 On ch=7 n=48 v=0
288120 On ch=7 n=60 v=0
288120 On ch=7 n=72 v=0
288120 On ch=7 n=70 v=0
288120 On ch=7 n=63 v=0
288480 On ch=7 n=48 v=100
288600 On ch=7 n=48 v=0
288960 On ch=7 n=48 v=100
289080 On ch=7 n=48 v=0
290880 Meta Text "[FogOn]"
291360 On ch=7 n=60 v=100
291360 On ch=7 n=62 v=100
291360 On ch=7 n=72 v=100
291480 On ch=7 n=60 v=0
291480 On ch=7 n=62 v=0
291480 On ch=7 n=72 v=0
292800 On ch=7 n=48 v=100
292800 On ch=7 n=60 v=100
292800 On ch=7 n=71 v=100
292800 On ch=7 n=70 v=100
292920 On ch=7 n=48 v=0
292920 On ch=7 n=60 v=0
292920 On ch=7 n=71 v=0
292920 On ch=7 n=70 v=0
296640 On ch=7 n=60 v=100
296640 On ch=7 n=62 v=100
296640 On ch=7 n=72 v=100
296760 On ch=7 n=60 v=0
296760 On ch=7 n=62 v=0
296760 On ch=7 n=72 v=0
300240 On ch=7 n=60 v=100
300240 On ch=7 n=71 v=100
300240 On ch=7 n=70 v=100
300360 On ch=7 n=60 v=0
300360 On ch=7 n=71 v=0
300360 On ch=7 n=70 v=0
300480 Meta Text "[lighting (flare_fast)]"
300480 Meta Text "[chorus]"
300600 Meta Text "[lighting (blackout_fast)]"
300720 Meta Text "[lighting (flare_fast)]"
300720 On ch=7 n=99 v=100
300840 On ch=7 n=99 v=0
300840 Meta Text "[lighting (searchlights)]"
300960 On ch=7 n=60 v=100
300960 On ch=7 n=63 v=100
300960 On ch=7 n=72 v=100
300960 On ch=7 n=70 v=100
301080 On ch=7 n=60 v=0
301080 On ch=7 n=63 v=0
301080 On ch=7 n=72 v=0
301080 On ch=7 n=70 v=0
304320 On ch=7 n=60 v=100
304320 On ch=7 n=64 v=100
304440 On ch=7 n=60 v=0
304440 On ch=7 n=64 v=0
306240 Meta Text "[FogOff]"
307200 On ch=7 n=60 v=100
307200 On ch=7 n=64 v=100
307200 On ch=7 n=61 v=100
307320 On ch=7 n=60 v=0
307320 On ch=7 n=64 v=0
307320 On ch=7 n=61 v=0
312000 On ch=7 n=60 v=100
312000 On ch=7 n=64 v=100
312000 On ch=7 n=63 v=100
312120 On ch=7 n=60 v=0
312120 On ch=7 n=64 v=0
312120 On ch=7 n=63 v=0
315840 On ch=7 n=60 v=100
315840 On ch=7 n=63 v=100
315840 On ch=7 n=70 v=100
315840 On ch=7 n=73 v=100
315960 On ch=7 n=60 v=0
315960 On ch=7 n=63 v=0
315960 On ch=7 n=70 v=0
315960 On ch=7 n=73 v=0
319680 On ch=7 n=60 v=100
319680 On ch=7 n=64 v=100
319680 On ch=7 n=72 v=100
319680 On ch=7 n=70 v=100
319800 On ch=7 n=60 v=0
319800 On ch=7 n=64 v=0
319800 On ch=7 n=72 v=0
319800 On ch=7 n=70 v=0
319920 On ch=7 n=96 v=100
320040 On ch=7 n=96 v=0
321360 On ch=7 n=60 v=100
321360 On ch=7 n=71 v=100
321360 On ch=7 n=70 v=100
321480 On ch=7 n=60 v=0
321480 On ch=7 n=71 v=0
321480 On ch=7 n=70 v=0
321600 Meta Text "[FogOn]"
323520 Meta Text "[lighting (strobe_fast)]"
323520 On ch=7 n=60 v=100
323520 On ch=7 n=62 v=100
323520 On ch=7 n=72 v=100
323640 On ch=7 n=60 v=0
323640 On ch=7 n=62 v=0
323640 On ch=7 n=72 v=0
325440 Meta Text "[lighting (manual_warm)]"
330240 Meta Text "[do_directed_cut directed_vocals_cls]"
332880 On ch=7 n=60 v=100
332880 On ch=7 n=71 v=100
332880 On ch=7 n=70 v=100
333000 On ch=7 n=60 v=0
333000 On ch=7 n=71 v=0
333000 On ch=7 n=70 v=0
333120 Meta Text "[lighting (stomp)]"
333360 On ch=7 n=48 v=100
333480 On ch=7 n=48 v=0
333600 On ch=7 n=48 v=100
333600 On ch=7 n=39 v=100
333720 On ch=7 n=48 v=0
333840 On ch=7 n=48 v=100
333960 On ch=7 n=48 v=0
334080 Meta Text "[do_directed_cut directed_guitar_cam]"
334080 On ch=7 n=63 v=100
334080 On ch=7 n=72 v=100
334080 On ch=7 n=70 v=100
335040 Meta Text "[lighting (loop_warm)]"
336600 On ch=7 n=63 v=0
336600 On ch=7 n=72 v=0
336600 On ch=7 n=70 v=0
336960 Meta Text "[lighting (stomp)]"
336960 On ch=7 n=60 v=100
336960 On ch=7 n=63 v=100
336960 On ch=7 n=72 v=100
336960 Meta Text "[FogOff]"
337080 On ch=7 n=60 v=0
337080 On ch=7 n=63 v=0
337080 On ch=7 n=72 v=0
337200 On ch=7 n=48 v=100
337320 On ch=7 n=48 v=0
337440 On ch=7 n=48 v=100
337560 On ch=7 n=48 v=0
337680 On ch=7 n=48 v=100
337800 On ch=7 n=48 v=0
338880 Meta Text "[lighting (loop_warm)]"
340800 On ch=7 n=60 v=100
340800 On ch=7 n=63 v=100
340800 On ch=7 n=72 v=100
340800 On ch=7 n=70 v=100
340920 On ch=7 n=60 v=0
340920 On ch=7 n=63 v=0
340920 On ch=7 n=72 v=0
340920 On ch=7 n=70 v=0
344640 Meta Text "[do_directed_cut directed_guitar_cls]"
348480 On ch=7 n=60 v=100
348480 On ch=7 n=63 v=100
348480 On ch=7 n=72 v=100
348480 On ch=7 n=70 v=100
348600 On ch=7 n=60 v=0
348600 On ch=7 n=63 v=0
348600 On ch=7 n=72 v=0
348600 On ch=7 n=70 v=0
352320 On ch=7 n=60 v=100
352320 On ch=7 n=63 v=100
352320 On ch=7 n=70 v=100
352320 On ch=7 n=73 v=100
352320 Meta Text "[FogOn]"
352440 On ch=7 n=60 v=0
352440 On ch=7 n=63 v=0
352440 On ch=7 n=70 v=0
352440 On ch=7 n=73 v=0
356160 On ch=7 n=60 v=100
356160 On ch=7 n=63 v=100
356160 On ch=7 n=72 v=100
356280 On ch=7 n=60 v=0
356280 On ch=7 n=63 v=0
356280 On ch=7 n=72 v=0
359520 On ch=7 n=60 v=100
359520 On ch=7 n=63 v=100
359520 On ch=7 n=70 v=100
359640 On ch=7 n=60 v=0
359640 On ch=7 n=63 v=0
359640 On ch=7 n=70 v=0
363840 On ch=7 n=60 v=100
363840 On ch=7 n=61 v=100
363840 On ch=7 n=63 v=100
363840 On ch=7 n=72 v=100
363840 On ch=7 n=70 v=100
363960 On ch=7 n=60 v=0
363960 On ch=7 n=61 v=0
363960 On ch=7 n=63 v=0
363960 On ch=7 n=72 v=0
363960 On ch=7 n=70 v=0
365760 On ch=7 n=60 v=100
365760 On ch=7 n=63 v=100
365760 On ch=7 n=70 v=100
365760 On ch=7 n=73 v=100
365880 On ch=7 n=60 v=0
365880 On ch=7 n=63 v=0
365880 On ch=7 n=70 v=0
365880 On ch=7 n=73 v=0
367680 On ch=7 n=60 v=100
367680 On ch=7 n=63 v=100
367680 Meta Text "[FogOff]"
367800 On ch=7 n=60 v=0
367800 On ch=7 n=63 v=0
368640 On ch=7 n=60 v=100
368640 On ch=7 n=63 v=100
368760 On ch=7 n=60 v=0
368760 On ch=7 n=63 v=0
369600 On ch=7 n=60 v=100
369600 On ch=7 n=63 v=100
369720 On ch=7 n=60 v=0
369720 On ch=7 n=63 v=0
370080 On ch=7 n=60 v=100
370080 On ch=7 n=63 v=100
370200 On ch=7 n=60 v=0
370200 On ch=7 n=63 v=0
370560 On ch=7 n=60 v=100
370560 On ch=7 n=63 v=100
370680 On ch=7 n=60 v=0
370680 On ch=7 n=63 v=0
370920 On ch=7 n=60 v=100
370920 On ch=7 n=71 v=100
370920 On ch=7 n=70 v=100
371040 On ch=7 n=39 v=0
371040 On ch=7 n=60 v=0
371040 Meta Text "[lighting (stomp)]"
371100 On ch=7 n=48 v=100
371220 On ch=7 n=48 v=0
371220 On ch=7 n=48 v=100
371340 On ch=7 n=48 v=0
371340 On ch=7 n=48 v=100
371460 On ch=7 n=48 v=0
371520 Meta Text "[lighting (sweep)]"
374880 Meta Text "[lighting (stomp)]"
374940 On ch=7 n=48 v=100
375060 On ch=7 n=48 v=0
375060 On ch=7 n=48 v=100
375120 On ch=7 n=71 v=0
375120 On ch=7 n=70 v=0
375180 On ch=7 n=48 v=0
375180 On ch=7 n=48 v=100
375300 On ch=7 n=48 v=0
375360 Meta Text "[lighting (sweep)]"
375360 Meta Text "[do_directed_cut directed_vocals_cls]"
375360 On ch=7 n=63 v=100
378000 On ch=7 n=63 v=0
378240 On ch=7 n=60 v=100
378240 On ch=7 n=62 v=100
378240 On ch=7 n=72 v=100
378360 On ch=7 n=60 v=0
378360 On ch=7 n=62 v=0
378360 On ch=7 n=72 v=0
378720 Meta Text "[lighting (stomp)]"
378780 On ch=7 n=48 v=100
378900 On ch=7 n=48 v=0
378900 On ch=7 n=48 v=100
379020 On ch=7 n=48 v=0
379020 On ch=7 n=48 v=100
379140 On ch=7 n=48 v=0
379200 Meta Text "[lighting (sweep)]"
382560 On ch=7 n=60 v=100
382560 On ch=7 n=71 v=100
382560 On ch=7 n=70 v=100
382620 On ch=7 n=48 v=100
382680 On ch=7 n=60 v=0
382680 On ch=7 n=71 v=0
382680 On ch=7 n=70 v=0
382680 Meta Text "[lighting (stomp)]"
382740 On ch=7 n=48 v=0
382740 On ch=7 n=48 v=100
382860 On ch=7 n=48 v=0
382860 On ch=7 n=48 v=100
382980 On ch=7 n=48 v=0
383040 On ch=7 n=48 v=100
383040 Meta Text "[FogOn]"
383160 On ch=7 n=48 v=0
383280 On ch=7 n=48 v=100
383400 On ch=7 n=48 v=0
383520 On ch=7 n=48 v=100
383640 On ch=7 n=48 v=0
383760 On ch=7 n=48 v=100
383880 On ch=7 n=48 v=0
384000 On ch=7 n=48 v=100
384120 On ch=7 n=48 v=0
384240 On ch=7 n=48 v=100
384360 On ch=7 n=48 v=0
384480 On ch=7 n=48 v=100
384600 On ch=7 n=48 v=0
384720 On ch=7 n=48 v=100
384840 On ch=7 n=48 v=0
384960 On ch=7 n=48 v=100
385080 On ch=7 n=48 v=0
385200 On ch=7 n=48 v=100
385320 On ch=7 n=48 v=0
385440 On ch=7 n=48 v=100
385560 On ch=7 n=48 v=0
385680 On ch=7 n=48 v=100
385800 On ch=7 n=48 v=0
385920 On ch=7 n=48 v=100
386040 On ch=7 n=48 v=0
386160 On ch=7 n=48 v=100
386280 On ch=7 n=48 v=0
386340 On ch=7 n=48 v=100
386460 On ch=7 n=48 v=0
386460 On ch=7 n=48 v=100
386580 On ch=7 n=48 v=0
386580 On ch=7 n=48 v=100
386700 On ch=7 n=48 v=0
386700 On ch=7 n=48 v=100
386820 On ch=7 n=48 v=0
386880 Meta Text "[lighting (manual_warm)]"
386880 Meta Text "[verse]"
389520 On ch=7 n=60 v=100
389520 On ch=7 n=64 v=100
389520 On ch=7 n=72 v=100
389520 On ch=7 n=70 v=100
389640 On ch=7 n=60 v=0
389640 On ch=7 n=64 v=0
389640 On ch=7 n=72 v=0
389640 On ch=7 n=70 v=0
394560 On ch=7 n=60 v=100
394560 On ch=7 n=64 v=100
394560 On ch=7 n=72 v=100
394560 On ch=7 n=70 v=100
394680 On ch=7 n=60 v=0
394680 On ch=7 n=64 v=0
394680 On ch=7 n=72 v=0
394680 On ch=7 n=70 v=0
397440 On ch=7 n=60 v=100
397440 On ch=7 n=64 v=100
397440 On ch=7 n=70 v=100
397440 On ch=7 n=73 v=100
397560 On ch=7 n=60 v=0
397560 On ch=7 n=64 v=0
397560 On ch=7 n=70 v=0
397560 On ch=7 n=73 v=0
398400 Meta Text "[FogOff]"
400320 On ch=7 n=60 v=100
400320 On ch=7 n=62 v=100
400320 On ch=7 n=72 v=100
400440 On ch=7 n=60 v=0
400440 On ch=7 n=62 v=0
400440 On ch=7 n=72 v=0
401280 On ch=7 n=48 v=100
401400 On ch=7 n=48 v=0
401760 On ch=7 n=48 v=100
401880 On ch=7 n=48 v=0
402240 On ch=7 n=48 v=100
402360 On ch=7 n=48 v=0
405120 On ch=7 n=60 v=100
405120 On ch=7 n=64 v=100
405120 On ch=7 n=63 v=100
405120 On ch=7 n=70 v=100
405240 On ch=7 n=60 v=0
405240 On ch=7 n=64 v=0
405240 On ch=7 n=63 v=0
405240 On ch=7 n=70 v=0
408960 On ch=7 n=48 v=100
409080 On ch=7 n=48 v=0
409440 On ch=7 n=48 v=100
409560 On ch=7 n=48 v=0
409920 On ch=7 n=48 v=100
409920 On ch=7 n=60 v=100
409920 On ch=7 n=61 v=100
410040 On ch=7 n=48 v=0
410040 On ch=7 n=60 v=0
410040 On ch=7 n=61 v=0
413760 On ch=7 n=48 v=100
413760 On ch=7 n=60 v=100
413760 On ch=7 n=62 v=100
413760 On ch=7 n=63 v=100
413760 Meta Text "[FogOn]"
413880 On ch=7 n=48 v=0
413880 On ch=7 n=60 v=0
413880 On ch=7 n=62 v=0
413880 On ch=7 n=63 v=0
416160 On ch=7 n=60 v=100
416160 On ch=7 n=64 v=100
416160 On ch=7 n=72 v=100
416160 On ch=7 n=70 v=100
416280 On ch=7 n=60 v=0
416280 On ch=7 n=64 v=0
416280 On ch=7 n=72 v=0
416280 On ch=7 n=70 v=0
421440 Meta Text "[lighting (flare_fast)]"
421440 On ch=7 n=60 v=100
421440 On ch=7 n=61 v=100
421440 On ch=7 n=63 v=100
421440 On ch=7 n=64 v=100
421440 On ch=7 n=70 v=100
421440 Meta Text "[chorus]"
421560 On ch=7 n=60 v=0
421560 On ch=7 n=61 v=0
421560 On ch=7 n=63 v=0
421560 On ch=7 n=64 v=0
421560 On ch=7 n=70 v=0
421560 Meta Text "[lighting (blackout_fast)]"
421680 Meta Text "[lighting (flare_fast)]"
421800 Meta Text "[lighting (searchlights)]"
425280 On ch=7 n=60 v=100
425280 On ch=7 n=63 v=100
425280 On ch=7 n=72 v=100
425400 On ch=7 n=60 v=0
425400 On ch=7 n=63 v=0
425400 On ch=7 n=72 v=0
427200 Meta Text "[lighting (strobe_fast)]"
427200 On ch=7 n=60 v=100
427200 On ch=7 n=62 v=100
427200 On ch=7 n=72 v=100
427320 On ch=7 n=60 v=0
427320 On ch=7 n=62 v=0
427320 On ch=7 n=72 v=0
429120 Meta Text "[lighting (manual_warm)]"
429120 On ch=7 n=60 v=100
429120 On ch=7 n=64 v=100
429120 On ch=7 n=72 v=100
429120 On ch=7 n=63 v=100
429120 On ch=7 n=70 v=100
429120 Meta Text "[FogOff]"
429240 On ch=7 n=60 v=0
429240 On ch=7 n=64 v=0
429240 On ch=7 n=72 v=0
429240 On ch=7 n=63 v=0
429240 On ch=7 n=70 v=0
432600 On ch=7 n=48 v=100
432600 On ch=7 n=60 v=100
432720 On ch=7 n=48 v=0
432720 On ch=7 n=60 v=0
432960 On ch=7 n=50 v=100
432960 On ch=7 n=60 v=100
432960 On ch=7 n=62 v=100
432960 On ch=7 n=61 v=100
432960 On ch=7 n=70 v=100
433080 On ch=7 n=50 v=0
433080 On ch=7 n=60 v=0
433080 On ch=7 n=62 v=0
433080 On ch=7 n=61 v=0
433080 On ch=7 n=70 v=0
436440 On ch=7 n=48 v=100
436440 On ch=7 n=60 v=100
436560 On ch=7 n=48 v=0
436560 On ch=7 n=60 v=0
436800 On ch=7 n=50 v=100
436800 On ch=7 n=60 v=100
436800 On ch=7 n=62 v=100
436800 On ch=7 n=72 v=100
436920 On ch=7 n=50 v=0
436920 On ch=7 n=60 v=0
436920 On ch=7 n=62 v=0
436920 On ch=7 n=72 v=0
440280 On ch=7 n=48 v=100
440280 On ch=7 n=60 v=100
440400 On ch=7 n=48 v=0
440400 On ch=7 n=60 v=0
440640 On ch=7 n=50 v=100
440640 On ch=7 n=60 v=100
440640 On ch=7 n=64 v=100
440640 On ch=7 n=72 v=100
440760 On ch=7 n=50 v=0
440760 On ch=7 n=60 v=0
440760 On ch=7 n=64 v=0
440760 On ch=7 n=72 v=0
444120 On ch=7 n=48 v=100
444120 On ch=7 n=60 v=100
444240 On ch=7 n=48 v=0
444240 On ch=7 n=60 v=0
444480 On ch=7 n=50 v=100
444480 On ch=7 n=60 v=100
444480 On ch=7 n=63 v=100
444480 On ch=7 n=72 v=100
444480 On ch=7 n=70 v=100
444480 On ch=7 n=39 v=100
444480 Meta Text "[FogOn]"
444600 On ch=7 n=50 v=0
444600 On ch=7 n=60 v=0
444600 On ch=7 n=63 v=0
444600 On ch=7 n=72 v=0
444600 On ch=7 n=70 v=0
447960 On ch=7 n=48 v=100
448080 On ch=7 n=48 v=0
448320 On ch=7 n=50 v=100
448320 On ch=7 n=60 v=100
448320 On ch=7 n=63 v=100
448320 On ch=7 n=70 v=100
448320 On ch=7 n=73 v=100
448440 On ch=7 n=50 v=0
448440 On ch=7 n=60 v=0
448440 On ch=7 n=63 v=0
448440 On ch=7 n=70 v=0
448440 On ch=7 n=73 v=0
450240 On ch=7 n=60 v=100
450240 On ch=7 n=64 v=100
450240 On ch=7 n=72 v=100
450360 On ch=7 n=60 v=0
450360 On ch=7 n=64 v=0
450360 On ch=7 n=72 v=0
451800 On ch=7 n=48 v=100
451920 On ch=7 n=48 v=0
452160 On ch=7 n=50 v=100
452160 On ch=7 n=60 v=100
452160 On ch=7 n=64 v=100
452160 On ch=7 n=63 v=100
452160 On ch=7 n=72 v=100
452160 On ch=7 n=70 v=100
452280 On ch=7 n=50 v=0
452280 On ch=7 n=60 v=0
452280 On ch=7 n=64 v=0
452280 On ch=7 n=63 v=0
452280 On ch=7 n=72 v=0
452280 On ch=7 n=70 v=0
454080 On ch=7 n=60 v=100
454080 On ch=7 n=64 v=100
454080 On ch=7 n=72 v=100
454080 On ch=7 n=70 v=100
454200 On ch=7 n=60 v=0
454200 On ch=7 n=64 v=0
454200 On ch=7 n=72 v=0
454200 On ch=7 n=70 v=0
455640 On ch=7 n=48 v=100
455760 On ch=7 n=48 v=0
456000 On ch=7 n=50 v=100
456000 On ch=7 n=60 v=100
456000 On ch=7 n=63 v=100
456000 On ch=7 n=70 v=100
456000 On ch=7 n=72 v=100
456120 On ch=7 n=50 v=0
456120 On ch=7 n=60 v=0
456120 On ch=7 n=63 v=0
456120 On ch=7 n=70 v=0
456120 On ch=7 n=72 v=0
459480 On ch=7 n=48 v=100
459600 On ch=7 n=48 v=0
459840 On ch=7 n=50 v=100
459840 On ch=7 n=60 v=100
459840 On ch=7 n=62 v=100
459840 On ch=7 n=61 v=100
459840 Meta Text "[FogOff]"
459960 On ch=7 n=50 v=0
459960 On ch=7 n=60 v=0
459960 On ch=7 n=62 v=0
459960 On ch=7 n=61 v=0
463320 On ch=7 n=48 v=100
463440 On ch=7 n=48 v=0
463680 On ch=7 n=50 v=100
463680 On ch=7 n=60 v=100
463680 On ch=7 n=64 v=100
463680 On ch=7 n=70 v=100
463800 On ch=7 n=50 v=0
463800 On ch=7 n=60 v=0
463800 On ch=7 n=64 v=0
463800 On ch=7 n=70 v=0
467160 On ch=7 n=48 v=100
467280 On ch=7 n=48 v=0
467520 On ch=7 n=50 v=100
467520 On ch=7 n=60 v=100
467520 On ch=7 n=63 v=100
467520 On ch=7 n=72 v=100
467640 On ch=7 n=50 v=0
467640 On ch=7 n=60 v=0
467640 On ch=7 n=63 v=0
467640 On ch=7 n=72 v=0
469440 On ch=7 n=60 v=100
469440 On ch=7 n=62 v=100
469440 On ch=7 n=72 v=100
469520 On ch=7 n=39 v=0
469560 On ch=7 n=60 v=0
469560 On ch=7 n=62 v=0
469560 On ch=7 n=72 v=0
471120 On ch=7 n=60 v=100
471120 On ch=7 n=71 v=100
471120 On ch=7 n=70 v=100
471240 On ch=7 n=60 v=0
471240 On ch=7 n=71 v=0
471240 On ch=7 n=70 v=0
471360 Meta Text "[lighting (flare_fast)]"
471360 Meta Text "[FogOn]"
471600 Meta Text "[lighting (blackout_fast)]"
471840 Meta Text "[lighting (bre)]"
473280 On ch=7 n=60 v=100
473280 On ch=7 n=63 v=100
473280 On ch=7 n=70 v=100
473400 On ch=7 n=60 v=0
473400 On ch=7 n=63 v=0
473400 On ch=7 n=70 v=0
474240 On ch=7 n=60 v=100
474240 On ch=7 n=63 v=100
474240 On ch=7 n=70 v=100
474360 On ch=7 n=60 v=0
474360 On ch=7 n=63 v=0
474360 On ch=7 n=70 v=0
475200 Meta Text "[do_directed_cut directed_guitar_cls]"
476640 On ch=7 n=60 v=100
476640 On ch=7 n=62 v=100
476640 On ch=7 n=72 v=100
476760 On ch=7 n=60 v=0
476760 On ch=7 n=62 v=0
476760 On ch=7 n=72 v=0
478080 On ch=7 n=60 v=100
478080 On ch=7 n=63 v=100
478080 On ch=7 n=70 v=100
478080 On ch=7 n=72 v=100
478200 On ch=7 n=60 v=0
478200 On ch=7 n=63 v=0
478200 On ch=7 n=70 v=0
478200 On ch=7 n=72 v=0
479520 On ch=7 n=60 v=100
479520 On ch=7 n=61 v=100
479640 On ch=7 n=60 v=0
479640 On ch=7 n=61 v=0
480480 On ch=7 n=60 v=100
480480 On ch=7 n=63 v=100
480480 On ch=7 n=70 v=100
480480 On ch=7 n=72 v=100
480600 On ch=7 n=60 v=0
480600 On ch=7 n=63 v=0
480600 On ch=7 n=70 v=0
480600 On ch=7 n=72 v=0
482880 On ch=7 n=60 v=100
482880 On ch=7 n=62 v=100
482880 On ch=7 n=72 v=100
483000 On ch=7 n=60 v=0
483000 On ch=7 n=62 v=0
483000 On ch=7 n=72 v=0
483360 Meta Text "[do_directed_cut directed_guitar_cls]"
485760 On ch=7 n=60 v=100
485760 On ch=7 n=62 v=100
485760 On ch=7 n=72 v=100
485880 On ch=7 n=60 v=0
485880 On ch=7 n=62 v=0
485880 On ch=7 n=72 v=0
486720 On ch=7 n=60 v=100
486720 On ch=7 n=63 v=100
486720 On ch=7 n=64 v=100
486840 On ch=7 n=60 v=0
486840 On ch=7 n=63 v=0
486840 On ch=7 n=64 v=0
487680 On ch=7 n=60 v=100
487680 On ch=7 n=62 v=100
487680 On ch=7 n=72 v=100
487800 On ch=7 n=60 v=0
487800 On ch=7 n=62 v=0
487800 On ch=7 n=72 v=0
488640 On ch=7 n=60 v=100
488640 On ch=7 n=63 v=100
488640 On ch=7 n=72 v=100
488760 On ch=7 n=60 v=0
488760 On ch=7 n=63 v=0
488760 On ch=7 n=72 v=0
489600 On ch=7 n=60 v=100
489600 On ch=7 n=61 v=100
489600 On ch=7 n=62 v=100
489720 On ch=7 n=60 v=0
489720 On ch=7 n=61 v=0
489720 On ch=7 n=62 v=0
490320 On ch=7 n=60 v=100
490320 On ch=7 n=63 v=100
490440 On ch=7 n=60 v=0
490440 On ch=7 n=63 v=0
491040 On ch=7 n=60 v=100
491040 On ch=7 n=61 v=100
491160 On ch=7 n=60 v=0
491160 On ch=7 n=61 v=0
492000 On ch=7 n=60 v=100
492000 On ch=7 n=62 v=100
492000 On ch=7 n=64 v=100
492120 On ch=7 n=60 v=0
492120 On ch=7 n=62 v=0
492120 On ch=7 n=64 v=0
492480 Meta Text "[FogOff]"
492960 On ch=7 n=60 v=100
492960 On ch=7 n=63 v=100
493080 On ch=7 n=60 v=0
493080 On ch=7 n=63 v=0
493440 On ch=7 n=60 v=100
493440 On ch=7 n=62 v=100
493440 On ch=7 n=72 v=100
493560 On ch=7 n=60 v=0
493560 On ch=7 n=62 v=0
493560 On ch=7 n=72 v=0
494400 Meta Text "[lighting (flare_fast)]"
494400 Meta Text "[do_directed_cut directed_brej]"
495360 Meta Text "[lighting (silhouettes)]"
495360 Meta TrkEnd
TrkEnd
</pre></body>
</html>
